<svg xmlns="http://www.w3.org/2000/svg" xmlns:xlink="http://www.w3.org/1999/xlink" width="19" height="19" viewBox="0 0 19 19"><defs><path id="a" d="M1338.785 483.22a9.433 9.433 0 0 1-2.784-6.718c0-2.538.99-4.923 2.785-6.717a9.44 9.44 0 0 1 6.72-2.781c2.537 0 4.925.988 6.719 2.781 3.706 3.704 3.706 9.73.001 13.433a9.45 9.45 0 0 1-6.722 2.783 9.44 9.44 0 0 1-6.72-2.781zm1.142-12.294a7.83 7.83 0 0 0-2.312 5.576c0 2.107.821 4.088 2.31 5.577a7.839 7.839 0 0 0 5.579 2.308c2.107 0 4.09-.82 5.581-2.31 3.075-3.074 3.075-8.077-.001-11.151a7.84 7.84 0 0 0-5.578-2.31c-2.108 0-4.09.82-5.579 2.31zm3.054 10.05a.806.806 0 0 1 0-1.14l3.336-3.334-3.336-3.333a.806.806 0 1 1 1.14-1.141l3.908 3.904a.807.807 0 0 1 0 1.14l-3.907 3.904a.804.804 0 0 1-1.141 0z"/></defs><use fill="#ffcf34" xlink:href="#a" transform="translate(-1336 -467)"/></svg>