<svg class="svg-small-icon" xmlns="http://www.w3.org/2000/svg" viewBox="0 0 81.04 73.44" fill="#ffcc26"><path d="M16.35 73.43c-1 0-2 0-3-.11a3.48 3.48 0 0 1-1.28-6.6 21 21 0 0 0 7.55-6.07C7.59 54.81 0 44.17 0 32.67 0 14.67 18.18 0 40.52 0S81 14.66 81 32.67 62.86 65.35 40.52 65.35h-1.57c-5.73 5.22-13.69 8.08-22.6 8.08zM40.52 6.97C22 6.97 7 18.5 7 32.67c0 9.73 7.44 18.8 19 23.1a3.49 3.49 0 0 1 1.89 4.83l-.2.41c-.21.45-.43.89-.69 1.33a26.3 26.3 0 0 1-2.07 3 23 23 0 0 0 10.26-6 3.62 3.62 0 0 1 2.72-1c.88.06 1.78.11 2.69.11 18.4-.02 33.47-11.6 33.47-25.78s-15-25.7-33.55-25.7z"/></svg>