<svg class="svg-small-icon" xmlns="http://www.w3.org/2000/svg" viewBox="0 0 80.26 58.38" fill="#ffcc26"><path d="M40.13 58.38c-18.42 0-34.48-11.29-40-28.1a3.5 3.5 0 0 1 0-2.17C5.62 11.3 21.68 0 40.13 0s34.47 11.3 40 28.11a3.5 3.5 0 0 1 0 2.17c-5.49 16.81-21.55 28.1-40 28.1zm-33-29.19c4.87 13.34 18 22.22 33 22.22s28.08-8.88 33-22.22c-4.88-13.34-18-22.22-33-22.22s-28.09 8.88-33 22.22z"/><path d="M40.13 48.08a18.91 18.91 0 0 1-18.89-18.89 3.5 3.5 0 0 1 7 0 11.91 11.91 0 1 0 11.89-11.94 3.5 3.5 0 1 1 0-7 18.88 18.88 0 0 1 0 37.76z"/></svg>