<svg xmlns="http://www.w3.org/2000/svg" xmlns:xlink="http://www.w3.org/1999/xlink" width="14" height="14" viewBox="0 0 14 14"><defs><path id="a" d="M883.998 50.008c.001-3.311 2.74-6.006 6.106-6.006 3.366 0 6.106 2.693 6.107 6.004 0 1.498-.561 2.87-1.488 3.923l3.09 3.037c.24.235.24.616 0 .852a.615.615 0 0 1-.433.176.615.615 0 0 1-.433-.176l-3.114-3.061a6.146 6.146 0 0 1-3.73 1.252c-3.365 0-6.104-2.692-6.105-6.001zm1.225 0c.001 2.645 2.19 4.797 4.88 4.797 2.692 0 4.883-2.153 4.883-4.799-.001-2.646-2.191-4.8-4.882-4.8-2.69.001-4.88 2.155-4.881 4.802z"/></defs><use fill="#ffcf34" xlink:href="#a" transform="translate(-884 -44)"/></svg>