<svg width="38" height="31" viewBox="0 0 38 31" fill="none" xmlns="http://www.w3.org/2000/svg"><path d="M28.752.222L12.456 30.84H7.878L24.174.222h4.578zm.966 14.448c2.324 0 4.13.686 5.418 2.058 1.288 1.344 1.932 3.248 1.932 5.712 0 2.464-.616 4.438-1.848 5.922-1.204 1.456-3.038 2.184-5.502 2.184-2.296 0-4.088-.686-5.376-2.058-1.26-1.372-1.89-3.304-1.89-5.796 0-2.52.63-4.48 1.89-5.88 1.288-1.428 3.08-2.142 5.376-2.142zm.126 3.654c-1.344 0-2.002 1.358-1.974 4.074v.588c0 .756.014 1.358.042 1.806.028.42.182.868.462 1.344.308.476.756.714 1.344.714.728 0 1.232-.322 1.512-.966.28-.672.42-1.876.42-3.612 0-.616-.014-1.078-.042-1.386a7.516 7.516 0 0 0-.21-1.176c-.084-.476-.266-.826-.546-1.05-.252-.224-.588-.336-1.008-.336zM7.29.558c2.324 0 4.13.686 5.418 2.058 1.288 1.344 1.932 3.248 1.932 5.712 0 2.464-.616 4.438-1.848 5.922-1.204 1.456-3.038 2.184-5.502 2.184-2.296 0-4.088-.686-5.376-2.058C.654 13.004.024 11.072.024 8.58c0-2.52.63-4.48 1.89-5.88C3.202 1.272 4.994.558 7.29.558zm.126 3.654c-1.344 0-2.002 1.358-1.974 4.074v.588c0 .756.014 1.358.042 1.806.028.42.182.868.462 1.344.308.476.756.714 1.344.714.728 0 1.232-.322 1.512-.966.28-.672.42-1.876.42-3.612 0-.616-.014-1.078-.042-1.386a7.516 7.516 0 0 0-.21-1.176c-.084-.476-.266-.826-.546-1.05-.252-.224-.588-.336-1.008-.336z" fill="#000"/><path d="M28.752.222L12.456 30.84H7.878L24.174.222h4.578zm.966 14.448c2.324 0 4.13.686 5.418 2.058 1.288 1.344 1.932 3.248 1.932 5.712 0 2.464-.616 4.438-1.848 5.922-1.204 1.456-3.038 2.184-5.502 2.184-2.296 0-4.088-.686-5.376-2.058-1.26-1.372-1.89-3.304-1.89-5.796 0-2.52.63-4.48 1.89-5.88 1.288-1.428 3.08-2.142 5.376-2.142zm.126 3.654c-1.344 0-2.002 1.358-1.974 4.074v.588c0 .756.014 1.358.042 1.806.028.42.182.868.462 1.344.308.476.756.714 1.344.714.728 0 1.232-.322 1.512-.966.28-.672.42-1.876.42-3.612 0-.616-.014-1.078-.042-1.386a7.516 7.516 0 0 0-.21-1.176c-.084-.476-.266-.826-.546-1.05-.252-.224-.588-.336-1.008-.336zM7.29.558c2.324 0 4.13.686 5.418 2.058 1.288 1.344 1.932 3.248 1.932 5.712 0 2.464-.616 4.438-1.848 5.922-1.204 1.456-3.038 2.184-5.502 2.184-2.296 0-4.088-.686-5.376-2.058C.654 13.004.024 11.072.024 8.58c0-2.52.63-4.48 1.89-5.88C3.202 1.272 4.994.558 7.29.558zm.126 3.654c-1.344 0-2.002 1.358-1.974 4.074v.588c0 .756.014 1.358.042 1.806.028.42.182.868.462 1.344.308.476.756.714 1.344.714.728 0 1.232-.322 1.512-.966.28-.672.42-1.876.42-3.612 0-.616-.014-1.078-.042-1.386a7.516 7.516 0 0 0-.21-1.176c-.084-.476-.266-.826-.546-1.05-.252-.224-.588-.336-1.008-.336z" fill="url(#a)"/><defs><linearGradient id="a" x1="39" y1="-2" x2="-5.664" y2="2.12" gradientUnits="userSpaceOnUse"><stop stop-color="#56DF75"/><stop offset="1" stop-color="#49BCD6"/></linearGradient></defs></svg>