<svg width="15" height="15" viewBox="0 0 15 15" fill="none" xmlns="http://www.w3.org/2000/svg"><path d="M13.186 11.53l.551.76c-.988.722-1.938 1.241-2.85 1.558-.912.317-1.9.475-2.964.475-2.115 0-3.85-.627-5.206-1.881C1.286 11.125.57 9.452.57 7.426c0-2.052.735-3.775 2.204-5.168C4.244.852 6.054.149 8.208.149c1.887 0 3.426.532 4.617 1.596 1.203 1.064 1.805 2.432 1.805 4.104 0 1.317-.393 2.483-1.178 3.496-.785 1-1.697 1.501-2.736 1.501-.494 0-.887-.12-1.178-.361-.291-.253-.437-.595-.437-1.026 0-.152.013-.279.038-.38-.608 1.178-1.482 1.767-2.622 1.767-.773 0-1.4-.266-1.881-.798-.469-.545-.703-1.248-.703-2.109 0-1.229.38-2.299 1.14-3.211.773-.925 1.666-1.387 2.679-1.387 1.039 0 1.754.43 2.147 1.292l.266-.988h1.615l-1.235 4.237c-.127.456-.19.798-.19 1.026 0 .507.26.76.779.76.62 0 1.178-.405 1.672-1.216.507-.81.76-1.71.76-2.698 0-1.368-.494-2.476-1.482-3.325-.988-.861-2.274-1.292-3.857-1.292-1.887 0-3.458.602-4.712 1.805-1.254 1.203-1.881 2.717-1.881 4.541 0 1.723.589 3.135 1.767 4.237 1.19 1.09 2.717 1.634 4.579 1.634 1.799 0 3.534-.608 5.206-1.824zM9.31 5.754c0-.367-.108-.665-.323-.893-.203-.24-.481-.361-.836-.361-.659 0-1.21.412-1.653 1.235-.443.823-.665 1.59-.665 2.299 0 .52.101.925.304 1.216.215.279.513.418.893.418.443 0 .849-.253 1.216-.76.38-.507.652-1.051.817-1.634.165-.595.247-1.102.247-1.52z" fill="#000"/><path d="M13.186 11.53l.551.76c-.988.722-1.938 1.241-2.85 1.558-.912.317-1.9.475-2.964.475-2.115 0-3.85-.627-5.206-1.881C1.286 11.125.57 9.452.57 7.426c0-2.052.735-3.775 2.204-5.168C4.244.852 6.054.149 8.208.149c1.887 0 3.426.532 4.617 1.596 1.203 1.064 1.805 2.432 1.805 4.104 0 1.317-.393 2.483-1.178 3.496-.785 1-1.697 1.501-2.736 1.501-.494 0-.887-.12-1.178-.361-.291-.253-.437-.595-.437-1.026 0-.152.013-.279.038-.38-.608 1.178-1.482 1.767-2.622 1.767-.773 0-1.4-.266-1.881-.798-.469-.545-.703-1.248-.703-2.109 0-1.229.38-2.299 1.14-3.211.773-.925 1.666-1.387 2.679-1.387 1.039 0 1.754.43 2.147 1.292l.266-.988h1.615l-1.235 4.237c-.127.456-.19.798-.19 1.026 0 .507.26.76.779.76.62 0 1.178-.405 1.672-1.216.507-.81.76-1.71.76-2.698 0-1.368-.494-2.476-1.482-3.325-.988-.861-2.274-1.292-3.857-1.292-1.887 0-3.458.602-4.712 1.805-1.254 1.203-1.881 2.717-1.881 4.541 0 1.723.589 3.135 1.767 4.237 1.19 1.09 2.717 1.634 4.579 1.634 1.799 0 3.534-.608 5.206-1.824zM9.31 5.754c0-.367-.108-.665-.323-.893-.203-.24-.481-.361-.836-.361-.659 0-1.21.412-1.653 1.235-.443.823-.665 1.59-.665 2.299 0 .52.101.925.304 1.216.215.279.513.418.893.418.443 0 .849-.253 1.216-.76.38-.507.652-1.051.817-1.634.165-.595.247-1.102.247-1.52z" fill="url(#a)"/><defs><linearGradient id="a" x1="15" x2="-1.003" y2="1.16" gradientUnits="userSpaceOnUse"><stop stop-color="#56DF75"/><stop offset="1" stop-color="#49BCD6"/></linearGradient></defs></svg>