<svg width="17" height="9" viewBox="0 0 17 9" fill="none" xmlns="http://www.w3.org/2000/svg"><path d="M4.4.53a.101.101 0 0 1 .146 0 .11.11 0 0 1 0 .156L1.709 3.539l-.847.853h15.144v.003a.743.743 0 0 1-.003.043v.009L16 4.472v.136H.861l.847.853 2.837 2.853a.11.11 0 0 1 0 .155.102.102 0 0 1-.146 0L.532 4.578a.11.11 0 0 1 0-.156L.177 4.07M4.4.53L4.045.179.177 4.07M4.4.53L.532 4.423.177 4.07M4.4.53L.177 4.07" fill="#000" stroke="url(#a)"/><defs><linearGradient id="a" y1="9" x2="17.395" y2="6.688" gradientUnits="userSpaceOnUse"><stop stop-color="#56DF75"/><stop offset="1" stop-color="#49BCD6"/></linearGradient></defs></svg>