<svg width="21" height="21" viewBox="0 0 21 21" fill="none" xmlns="http://www.w3.org/2000/svg"><path d="M18.968 1.016H2.032A2.038 2.038 0 0 0 0 3.048c0 1.118.915 2.033 2.032 2.033h16.936A2.038 2.038 0 0 0 21 3.048a2.038 2.038 0 0 0-2.032-2.032z" fill="#000"/><path d="M18.968 1.016H2.032A2.038 2.038 0 0 0 0 3.048c0 1.118.915 2.033 2.032 2.033h16.936A2.038 2.038 0 0 0 21 3.048a2.038 2.038 0 0 0-2.032-2.032z" fill="url(#a)"/><path d="M18.968 8.468H2.032A2.038 2.038 0 0 0 0 10.5c0 1.118.915 2.032 2.032 2.032h16.936A2.038 2.038 0 0 0 21 10.5a2.038 2.038 0 0 0-2.032-2.032z" fill="#000"/><path d="M18.968 8.468H2.032A2.038 2.038 0 0 0 0 10.5c0 1.118.915 2.032 2.032 2.032h16.936A2.038 2.038 0 0 0 21 10.5a2.038 2.038 0 0 0-2.032-2.032z" fill="url(#b)"/><path d="M18.968 15.92H2.032A2.038 2.038 0 0 0 0 17.951c0 1.117.915 2.032 2.032 2.032h16.936A2.038 2.038 0 0 0 21 17.952a2.038 2.038 0 0 0-2.032-2.033z" fill="#000"/><path d="M18.968 15.92H2.032A2.038 2.038 0 0 0 0 17.951c0 1.117.915 2.032 2.032 2.032h16.936A2.038 2.038 0 0 0 21 17.952a2.038 2.038 0 0 0-2.032-2.033z" fill="url(#c)"/><defs><linearGradient id="a" x1="21" y1="1.016" x2="1.248" y2="8.413" gradientUnits="userSpaceOnUse"><stop stop-color="#56DF75"/><stop offset="1" stop-color="#49BCD6"/></linearGradient><linearGradient id="b" x1="21" y1="8.468" x2="1.248" y2="15.865" gradientUnits="userSpaceOnUse"><stop stop-color="#56DF75"/><stop offset="1" stop-color="#49BCD6"/></linearGradient><linearGradient id="c" x1="21" y1="15.919" x2="1.248" y2="23.317" gradientUnits="userSpaceOnUse"><stop stop-color="#56DF75"/><stop offset="1" stop-color="#49BCD6"/></linearGradient></defs></svg>