<svg width="42" height="42" viewBox="0 0 42 42" fill="none" xmlns="http://www.w3.org/2000/svg"><g clip-path="url(#a)"><path d="M13.617 28.61h22.231c.55 0 1.033-.364 1.182-.893l4.923-17.227a1.23 1.23 0 0 0-1.183-1.568H10.776l-.88-3.958A1.23 1.23 0 0 0 8.697 4H1.23a1.23 1.23 0 1 0 0 2.46h6.478l4.443 19.996a3.694 3.694 0 0 0-2.225 3.384 3.696 3.696 0 0 0 3.691 3.692h22.231a1.23 1.23 0 1 0 0-2.461h-22.23a1.233 1.233 0 0 1-1.231-1.23c0-.68.553-1.231 1.23-1.231z" fill="#000"/><path d="M13.617 28.61h22.231c.55 0 1.033-.364 1.182-.893l4.923-17.227a1.23 1.23 0 0 0-1.183-1.568H10.776l-.88-3.958A1.23 1.23 0 0 0 8.697 4H1.23a1.23 1.23 0 1 0 0 2.46h6.478l4.443 19.996a3.694 3.694 0 0 0-2.225 3.384 3.696 3.696 0 0 0 3.691 3.692h22.231a1.23 1.23 0 1 0 0-2.461h-22.23a1.233 1.233 0 0 1-1.231-1.23c0-.68.553-1.231 1.23-1.231z" fill="url(#b)"/><path d="M12.387 35.766a3.695 3.695 0 0 0 3.691 3.691 3.695 3.695 0 0 0 3.692-3.691 3.696 3.696 0 0 0-3.692-3.691 3.696 3.696 0 0 0-3.691 3.69z" fill="#000"/><path d="M12.387 35.766a3.695 3.695 0 0 0 3.691 3.691 3.695 3.695 0 0 0 3.692-3.691 3.696 3.696 0 0 0-3.692-3.691 3.696 3.696 0 0 0-3.691 3.69z" fill="url(#c)"/><path d="M29.696 35.766a3.695 3.695 0 0 0 3.691 3.691 3.695 3.695 0 0 0 3.691-3.691 3.695 3.695 0 0 0-3.691-3.691 3.696 3.696 0 0 0-3.691 3.69z" fill="#000"/><path d="M29.696 35.766a3.695 3.695 0 0 0 3.691 3.691 3.695 3.695 0 0 0 3.691-3.691 3.695 3.695 0 0 0-3.691-3.691 3.696 3.696 0 0 0-3.691 3.69z" fill="url(#d)"/></g><defs><linearGradient id="b" x1="42" y1="4" x2="-2.571" y2="8.595" gradientUnits="userSpaceOnUse"><stop stop-color="#56DF75"/><stop offset="1" stop-color="#49BCD6"/></linearGradient><linearGradient id="c" x1="19.77" y1="32.075" x2="11.893" y2="32.645" gradientUnits="userSpaceOnUse"><stop stop-color="#56DF75"/><stop offset="1" stop-color="#49BCD6"/></linearGradient><linearGradient id="d" x1="37.078" y1="32.075" x2="29.202" y2="32.645" gradientUnits="userSpaceOnUse"><stop stop-color="#56DF75"/><stop offset="1" stop-color="#49BCD6"/></linearGradient><clipPath id="a"><path fill="#fff" d="M0 0h42v42H0z"/></clipPath></defs></svg>