<svg width="32" height="32" viewBox="0 0 32 32" fill="none" xmlns="http://www.w3.org/2000/svg"><rect x="1" y="1" width="30" height="30" rx="7" stroke="url(#a)" stroke-width="2"/><rect x="1" y="1" width="30" height="30" rx="7" stroke="url(#b)" stroke-width="2"/><path d="M18.199 10.724l3.336 3.336-8.445 8.446-3.335-3.337 8.444-8.445zm5.868-.805l-1.488-1.488a1.476 1.476 0 0 0-2.086 0l-1.425 1.426 3.336 3.336 1.663-1.663a1.137 1.137 0 0 0 0-1.61zM8.009 23.86a.38.38 0 0 0 .46.451l3.717-.901-3.334-3.336-.843 3.786z" fill="url(#c)"/><defs><linearGradient id="a" x1="32" x2="-2.14" y2="2.475" gradientUnits="userSpaceOnUse"><stop stop-color="#56DF75"/><stop offset="1" stop-color="#49BCD6"/></linearGradient><linearGradient id="b" x1="32" x2="-2.14" y2="2.475" gradientUnits="userSpaceOnUse"><stop stop-color="#56DF75"/><stop offset="1" stop-color="#49BCD6"/></linearGradient><linearGradient id="c" x1="24.401" y1="8" x2="6.904" y2="9.274" gradientUnits="userSpaceOnUse"><stop stop-color="#56DF75"/><stop offset="1" stop-color="#49BCD6"/></linearGradient></defs></svg>