<svg width="23" height="23" viewBox="0 0 23 23" fill="none" xmlns="http://www.w3.org/2000/svg"><path d="M16.262 17.61v1.796A3.598 3.598 0 0 1 12.668 23h-9.03a3.598 3.598 0 0 1-3.593-3.594V3.594A3.598 3.598 0 0 1 3.639 0h9.029a3.598 3.598 0 0 1 3.594 3.594V5.39a.898.898 0 1 1-1.797 0V3.594c0-.991-.806-1.797-1.797-1.797h-9.03c-.99 0-1.796.806-1.796 1.797v15.812c0 .991.806 1.797 1.797 1.797h9.029a1.8 1.8 0 0 0 1.797-1.797V17.61a.898.898 0 1 1 1.797 0zm6.125-7.653l-2.012-2.012a.898.898 0 1 0-1.27 1.27l1.43 1.431H9.749a.898.898 0 1 0 0 1.797h10.788l-1.431 1.431a.898.898 0 1 0 1.27 1.271l2.012-2.012c.876-.876.876-2.3 0-3.176z" fill="url(#a)"/><defs><linearGradient id="a" x1="23.044" x2="-1.493" y2="1.778" gradientUnits="userSpaceOnUse"><stop stop-color="#56DF75"/><stop offset="1" stop-color="#49BCD6"/></linearGradient></defs></svg>