<svg width="172" height="18" viewBox="0 0 172 18" fill="none" xmlns="http://www.w3.org/2000/svg"><path d="M13.044.832l.01.009a.144.144 0 0 1 .036.028.845.845 0 0 1 .13.092c.136.118.248.254.334.409.266.494.229 1.088-.111 1.78v.01L8.72 12.81 4.007 3.18l-.019-.028c-.185-.384-.278-.74-.278-1.067 0-.26.059-.498.176-.714a1.32 1.32 0 0 1 .501-.538H0c.216.037.433.139.65.306.185.142.333.321.445.538.136.272.204.587.204.946v11.569c0 .655-.217 1.15-.65 1.484a1.48 1.48 0 0 1-.649.306h4.388a1.48 1.48 0 0 1-.65-.306c-.426-.334-.64-.829-.64-1.484v-8.6l5.623 11.244 5.622-11.244v8.6c0 .655-.217 1.15-.65 1.484a1.48 1.48 0 0 1-.65.306h4.39a1.48 1.48 0 0 1-.65-.306c-.433-.334-.65-.829-.65-1.484V2.622c0-.656.217-1.15.65-1.484a1.48 1.48 0 0 1 .65-.306h-4.39zm7.18.018c.217.037.434.14.65.306a1.7 1.7 0 0 1 .445.538c.136.272.204.588.204.947V14.21c0 .661-.216 1.156-.649 1.484a1.48 1.48 0 0 1-.65.306h11.542v-3.099a1.48 1.48 0 0 1-.306.65c-.143.191-.322.34-.539.445a2.09 2.09 0 0 1-.946.204h-6.587v-4.045a1.522 1.522 0 0 1 .464-.696c.34-.296.789-.445 1.345-.445h3.553c.545 0 .978-.16 1.3-.482.247-.26.42-.616.519-1.067a4.08 4.08 0 0 0 .037-1.55 1.832 1.832 0 0 1-.418.65c-.414.433-.961.65-1.642.65h-3.349c-.556 0-1.005.101-1.345.306-.124.074-.229.16-.315.26a.95.95 0 0 0-.149.213V2.65h6.476c.655 0 1.15.216 1.484.65.167.216.266.432.297.649V.85h-11.42zm26.524 1.893c-.896-.848-2.028-1.417-3.395-1.707-.687-.149-1.283-.21-1.79-.186H39.01h.019-4.407c.217.031.433.13.65.297.191.148.34.33.445.547.136.266.204.582.204.947V13.82c0 .662-.217 1.23-.65 1.707a2.233 2.233 0 0 1-.649.51 4.35 4.35 0 0 0 1.55-.25c1.032-.36 1.549-1.015 1.549-1.967V2.64l.009-.101h3.99a6.945 6.945 0 0 1 1.29.14c1.057.228 1.92.664 2.588 1.307 1.058 1.002 1.587 2.49 1.587 4.462v.13l-.019.343c-.03.384-.09.764-.176 1.142-.272 1.193-.761 2.149-1.466 2.866-.588.594-1.45.987-2.589 1.178-.37.062-.86.118-1.465.167l-.724.047-.696.065c-.798.093-1.428.377-1.892.853-.532.55-.727 1.256-.585 2.116v-.01c.173-.482.659-.847 1.457-1.095.309-.092.646-.16 1.011-.204a5.64 5.64 0 0 1 .89-.055c2.617.018 4.553-.613 5.808-1.893.91-.928 1.537-2.134 1.884-3.618.11-.47.185-.943.222-1.42.013-.154.022-.3.028-.435V8.43c0-2.45-.708-4.345-2.124-5.687zM64.32 2.64l.01 6.781c0 1.485-.471 2.731-1.411 3.74-.971 1.038-2.202 1.558-3.692 1.558-1.497 0-2.728-.52-3.693-1.559-.94-1.008-1.41-2.254-1.41-3.739v-6.78c0-.36.071-.671.213-.937a1.58 1.58 0 0 1 .464-.548 1.46 1.46 0 0 1 .677-.297h-4.471c.223.031.448.13.677.297.198.149.353.331.464.548.142.266.213.578.213.937l.01 6.781c0 1.949.64 3.59 1.92 4.927 1.311 1.367 2.956 2.05 4.936 2.05 1.979 0 3.62-.684 4.926-2.05 1.286-1.336 1.93-2.978 1.93-4.927V2.566c.006-.34.08-.64.222-.9.118-.204.272-.377.464-.519.216-.16.433-.257.65-.288h-4.444c.222.031.445.13.668.297.197.149.352.331.463.548.143.266.214.578.214.937zm12.107 4.61c-1.85-.865-2.969-1.49-3.359-1.874-.451-.445-.652-.924-.603-1.438.044-.494.294-.887.752-1.178.767-.476 1.645-.624 2.635-.445.321.056.643.148.964.278l.307.13.11.056.038.018.028.01c.34.247.547.562.621.946.025.142.031.275.019.399-.012.105-.034.173-.065.204L80.36 1.99c-.006.006-.021.01-.046.01a.441.441 0 0 1-.102.009c-.105 0-.238-.019-.399-.056-.458-.117-1.024-.365-1.698-.742a1.198 1.198 0 0 1-.241-.102l-.093-.037-.093-.047a6.674 6.674 0 0 0-1.512-.491c-1.342-.254-2.678.003-4.008.77-.909.63-1.407 1.45-1.493 2.458a3.316 3.316 0 0 0 .232 1.587c.21.507.507.943.89 1.308.619.569 1.785 1.215 3.498 1.939 1.713.723 2.743 1.373 3.09 1.948.302.507.38 1.067.231 1.68a2.962 2.962 0 0 1-.918 1.502c-.489.44-1.036.684-1.642.733-1.052.216-1.992.133-2.82-.25a3.865 3.865 0 0 1-.78-.492 4.308 4.308 0 0 1-.39-.38c-.402-.452-.646-.851-.733-1.197a.815.815 0 0 1-.037-.334c.013-.075.034-.127.065-.158l-2.254 1.763.019-.01h.092c.087.013.183.044.288.093.346.167.77.529 1.27 1.086.02.018.047.046.084.083l.056.056.065.065c.111.111.22.213.325.306.34.284.72.532 1.14.742 1.195.55 2.527.68 4 .39a5.642 5.642 0 0 0 2.356-1.095c.853-.674 1.382-1.5 1.586-2.477a3.981 3.981 0 0 0 .084-1.605c-.093-.625-.316-1.154-.668-1.587-.402-.606-1.528-1.342-3.377-2.208zm19.78 6.958L93.72 8.43c-1.268-2.937-2.1-4.867-2.496-5.788-.278-.656-.275-1.15.01-1.485a.91.91 0 0 1 .519-.306h-3.98a.91.91 0 0 1 .52.306c.284.334.287.829.009 1.485-.408.94-1.24 2.87-2.496 5.789-1.25 2.9-2.078 4.827-2.486 5.78-.285.661-.714 1.156-1.29 1.484-.29.167-.55.269-.779.306h4.61a.886.886 0 0 1-.51-.297.914.914 0 0 1-.213-.538c-.025-.26.037-.569.186-.928a1.71 1.71 0 0 1 .556-.556c.303-.18.675-.27 1.114-.27h3.553c.544 0 .974-.16 1.29-.482.253-.26.43-.615.528-1.067.112-.513.12-1.03.028-1.549-.068.216-.207.433-.417.65-.18.191-.39.34-.631.445a2.4 2.4 0 0 1-1.011.204h-3.34c-.198 0-.384.012-.557.037l.204-.464.204-.482a795.629 795.629 0 0 0 1.327-3.07c.686-1.597 1.218-2.83 1.596-3.703.488 1.144 1.295 3.022 2.421 5.632.167.383.377.872.63 1.465l.15.344.138.334c.112.253.204.466.279.64.396.921.665 1.543.807 1.864.278.662.275 1.157-.01 1.485a.91.91 0 0 1-.519.306h4.61c-.228-.037-.488-.14-.778-.306a2.706 2.706 0 0 1-.678-.538 3.119 3.119 0 0 1-.612-.947zM112.85 7.25c-1.85-.865-2.969-1.49-3.359-1.874-.451-.445-.652-.924-.603-1.438.043-.494.294-.887.752-1.178.767-.476 1.645-.624 2.634-.445.322.056.644.148.965.278l.306.13.112.056.037.018.028.01c.34.247.547.562.621.946.025.142.031.275.019.399-.013.105-.034.173-.065.204l2.486-2.366c-.006.006-.021.01-.046.01a.443.443 0 0 1-.102.009c-.105 0-.238-.019-.399-.056-.458-.117-1.024-.365-1.698-.742a1.208 1.208 0 0 1-.241-.102l-.093-.037-.093-.047a6.559 6.559 0 0 0-1.512-.492c-1.342-.253-2.678.004-4.008.77-.909.632-1.407 1.451-1.493 2.46a3.302 3.302 0 0 0 .232 1.586c.21.507.507.943.89 1.308.619.569 1.785 1.215 3.498 1.939 1.713.723 2.743 1.373 3.089 1.948.303.507.381 1.067.232 1.68a2.96 2.96 0 0 1-.918 1.502c-.489.44-1.036.684-1.642.733-1.052.216-1.992.133-2.821-.25a3.88 3.88 0 0 1-.779-.492 4.068 4.068 0 0 1-.39-.38c-.402-.452-.646-.851-.733-1.197-.037-.124-.049-.235-.037-.334.013-.075.034-.127.065-.158l-2.254 1.763.018-.01h.093c.087.013.183.044.288.093.346.167.77.529 1.271 1.086l.083.083.056.056.065.065c.111.111.219.213.325.306.34.284.72.532 1.141.742 1.193.55 2.526.68 3.998.39a5.643 5.643 0 0 0 2.357-1.095c.853-.674 1.382-1.5 1.586-2.477a3.99 3.99 0 0 0 .084-1.605c-.093-.625-.316-1.154-.668-1.587-.402-.606-1.528-1.342-3.377-2.208zm17.942-5.724l-.056-.027a1.023 1.023 0 0 0-.139-.075 6.134 6.134 0 0 0-.389-.204 8.03 8.03 0 0 0-1.197-.464 7.823 7.823 0 0 0-3.823-.167c-1.626.23-3.089 1.07-4.388 2.524-1.391 1.57-2.065 3.327-2.022 5.27-.056 1.935.609 3.692 1.994 5.269 1.287 1.466 2.74 2.32 4.361 2.56a8.088 8.088 0 0 0 3.831-.139c.415-.124 1.024-.386 1.828-.788.625-.402 1.166-.65 1.624-.742a1.52 1.52 0 0 1 .389-.038.2.2 0 0 1 .093.019c.025.006.04.01.046.01l-2.338-2.292a.525.525 0 0 1 .084.158.756.756 0 0 1 .018.333c-.061.347-.337.68-.825 1.002-.625.316-1.095.517-1.41.603a6.171 6.171 0 0 1-2.969.112c-1.262-.186-2.391-.845-3.386-1.976-1.076-1.225-1.59-2.589-1.54-4.092-.037-1.503.485-2.86 1.568-4.072 1.001-1.132 2.133-1.785 3.395-1.958a6.023 6.023 0 0 1 2.969.13c.315.093.621.21.918.352a6.907 6.907 0 0 1 .408.223l.038.019.037.018c.358.26.575.588.649.984.025.142.031.278.019.408-.013.105-.031.173-.056.204l2.44-2.338a.103.103 0 0 1-.037.019.522.522 0 0 1-.102.009 1.62 1.62 0 0 1-.381-.056c-.445-.111-.983-.368-1.614-.77l-.037-.028zm19.26 12.682l-2.487-5.78a6671.56 6671.56 0 0 1-2.495-5.788c-.278-.656-.275-1.15.009-1.485a.912.912 0 0 1 .52-.306h-3.98c.198.037.371.14.519.306.285.334.288.829.009 1.485-.408.94-1.24 2.87-2.495 5.789-1.249 2.9-2.078 4.827-2.486 5.78-.285.661-.715 1.156-1.29 1.484-.291.167-.55.269-.779.306h4.611a.89.89 0 0 1-.724-.835c-.025-.26.037-.569.185-.928a1.71 1.71 0 0 1 .557-.556c.303-.18.674-.27 1.113-.27h3.554c.544 0 .974-.16 1.289-.482.254-.26.43-.615.529-1.067a3.96 3.96 0 0 0 .028-1.549c-.068.216-.207.433-.418.65-.179.191-.389.34-.631.445a2.397 2.397 0 0 1-1.011.204h-3.34c-.198 0-.383.012-.556.037.086-.198.154-.353.204-.464l.204-.482a881.479 881.479 0 0 0 1.327-3.07c.686-1.597 1.218-2.83 1.595-3.703a2000.209 2000.209 0 0 0 3.053 7.097l.148.344.139.334c.111.253.204.466.278.64.396.921.665 1.543.808 1.864.278.662.275 1.157-.01 1.485a.907.907 0 0 1-.519.306h4.611c-.229-.037-.489-.14-.78-.306a2.718 2.718 0 0 1-.677-.538 3.1 3.1 0 0 1-.612-.947zM167.308.832l.009.009a.145.145 0 0 1 .037.028.845.845 0 0 1 .13.092c.136.118.247.254.334.409.266.494.229 1.088-.111 1.78v.01l-4.723 9.649-4.713-9.63-.018-.028c-.186-.384-.278-.74-.278-1.067 0-.26.058-.498.176-.714a1.32 1.32 0 0 1 .501-.538h-4.388c.216.037.433.139.649.306.186.142.334.321.445.538.136.272.204.587.204.946v11.569c0 .655-.216 1.15-.649 1.484a1.478 1.478 0 0 1-.649.306h4.388a1.481 1.481 0 0 1-.65-.306c-.426-.334-.64-.829-.64-1.484v-8.6l5.622 11.244 5.622-11.244v8.6c0 .655-.216 1.15-.649 1.484a1.478 1.478 0 0 1-.649.306h4.388a1.481 1.481 0 0 1-.65-.306c-.433-.334-.649-.829-.649-1.484V2.622c0-.656.216-1.15.649-1.484.217-.167.433-.27.65-.306h-4.388z" fill="#000"/><path d="M13.044.832l.01.009a.144.144 0 0 1 .036.028.845.845 0 0 1 .13.092c.136.118.248.254.334.409.266.494.229 1.088-.111 1.78v.01L8.72 12.81 4.007 3.18l-.019-.028c-.185-.384-.278-.74-.278-1.067 0-.26.059-.498.176-.714a1.32 1.32 0 0 1 .501-.538H0c.216.037.433.139.65.306.185.142.333.321.445.538.136.272.204.587.204.946v11.569c0 .655-.217 1.15-.65 1.484a1.48 1.48 0 0 1-.649.306h4.388a1.48 1.48 0 0 1-.65-.306c-.426-.334-.64-.829-.64-1.484v-8.6l5.623 11.244 5.622-11.244v8.6c0 .655-.217 1.15-.65 1.484a1.48 1.48 0 0 1-.65.306h4.39a1.48 1.48 0 0 1-.65-.306c-.433-.334-.65-.829-.65-1.484V2.622c0-.656.217-1.15.65-1.484a1.48 1.48 0 0 1 .65-.306h-4.39zm7.18.018c.217.037.434.14.65.306a1.7 1.7 0 0 1 .445.538c.136.272.204.588.204.947V14.21c0 .661-.216 1.156-.649 1.484a1.48 1.48 0 0 1-.65.306h11.542v-3.099a1.48 1.48 0 0 1-.306.65c-.143.191-.322.34-.539.445a2.09 2.09 0 0 1-.946.204h-6.587v-4.045a1.522 1.522 0 0 1 .464-.696c.34-.296.789-.445 1.345-.445h3.553c.545 0 .978-.16 1.3-.482.247-.26.42-.616.519-1.067a4.08 4.08 0 0 0 .037-1.55 1.832 1.832 0 0 1-.418.65c-.414.433-.961.65-1.642.65h-3.349c-.556 0-1.005.101-1.345.306-.124.074-.229.16-.315.26a.95.95 0 0 0-.149.213V2.65h6.476c.655 0 1.15.216 1.484.65.167.216.266.432.297.649V.85h-11.42zm26.524 1.893c-.896-.848-2.028-1.417-3.395-1.707-.687-.149-1.283-.21-1.79-.186H39.01h.019-4.407c.217.031.433.13.65.297.191.148.34.33.445.547.136.266.204.582.204.947V13.82c0 .662-.217 1.23-.65 1.707a2.233 2.233 0 0 1-.649.51 4.35 4.35 0 0 0 1.55-.25c1.032-.36 1.549-1.015 1.549-1.967V2.64l.009-.101h3.99a6.945 6.945 0 0 1 1.29.14c1.057.228 1.92.664 2.588 1.307 1.058 1.002 1.587 2.49 1.587 4.462v.13l-.019.343c-.03.384-.09.764-.176 1.142-.272 1.193-.761 2.149-1.466 2.866-.588.594-1.45.987-2.589 1.178-.37.062-.86.118-1.465.167l-.724.047-.696.065c-.798.093-1.428.377-1.892.853-.532.55-.727 1.256-.585 2.116v-.01c.173-.482.659-.847 1.457-1.095.309-.092.646-.16 1.011-.204a5.64 5.64 0 0 1 .89-.055c2.617.018 4.553-.613 5.808-1.893.91-.928 1.537-2.134 1.884-3.618.11-.47.185-.943.222-1.42.013-.154.022-.3.028-.435V8.43c0-2.45-.708-4.345-2.124-5.687zM64.32 2.64l.01 6.781c0 1.485-.471 2.731-1.411 3.74-.971 1.038-2.202 1.558-3.692 1.558-1.497 0-2.728-.52-3.693-1.559-.94-1.008-1.41-2.254-1.41-3.739v-6.78c0-.36.071-.671.213-.937a1.58 1.58 0 0 1 .464-.548 1.46 1.46 0 0 1 .677-.297h-4.471c.223.031.448.13.677.297.198.149.353.331.464.548.142.266.213.578.213.937l.01 6.781c0 1.949.64 3.59 1.92 4.927 1.311 1.367 2.956 2.05 4.936 2.05 1.979 0 3.62-.684 4.926-2.05 1.286-1.336 1.93-2.978 1.93-4.927V2.566c.006-.34.08-.64.222-.9.118-.204.272-.377.464-.519.216-.16.433-.257.65-.288h-4.444c.222.031.445.13.668.297.197.149.352.331.463.548.143.266.214.578.214.937zm12.107 4.61c-1.85-.865-2.969-1.49-3.359-1.874-.451-.445-.652-.924-.603-1.438.044-.494.294-.887.752-1.178.767-.476 1.645-.624 2.635-.445.321.056.643.148.964.278l.307.13.11.056.038.018.028.01c.34.247.547.562.621.946.025.142.031.275.019.399-.012.105-.034.173-.065.204L80.36 1.99c-.006.006-.021.01-.046.01a.441.441 0 0 1-.102.009c-.105 0-.238-.019-.399-.056-.458-.117-1.024-.365-1.698-.742a1.198 1.198 0 0 1-.241-.102l-.093-.037-.093-.047a6.674 6.674 0 0 0-1.512-.491c-1.342-.254-2.678.003-4.008.77-.909.63-1.407 1.45-1.493 2.458a3.316 3.316 0 0 0 .232 1.587c.21.507.507.943.89 1.308.619.569 1.785 1.215 3.498 1.939 1.713.723 2.743 1.373 3.09 1.948.302.507.38 1.067.231 1.68a2.962 2.962 0 0 1-.918 1.502c-.489.44-1.036.684-1.642.733-1.052.216-1.992.133-2.82-.25a3.865 3.865 0 0 1-.78-.492 4.308 4.308 0 0 1-.39-.38c-.402-.452-.646-.851-.733-1.197a.815.815 0 0 1-.037-.334c.013-.075.034-.127.065-.158l-2.254 1.763.019-.01h.092c.087.013.183.044.288.093.346.167.77.529 1.27 1.086.02.018.047.046.084.083l.056.056.065.065c.111.111.22.213.325.306.34.284.72.532 1.14.742 1.195.55 2.527.68 4 .39a5.642 5.642 0 0 0 2.356-1.095c.853-.674 1.382-1.5 1.586-2.477a3.981 3.981 0 0 0 .084-1.605c-.093-.625-.316-1.154-.668-1.587-.402-.606-1.528-1.342-3.377-2.208zm19.78 6.958L93.72 8.43c-1.268-2.937-2.1-4.867-2.496-5.788-.278-.656-.275-1.15.01-1.485a.91.91 0 0 1 .519-.306h-3.98a.91.91 0 0 1 .52.306c.284.334.287.829.009 1.485-.408.94-1.24 2.87-2.496 5.789-1.25 2.9-2.078 4.827-2.486 5.78-.285.661-.714 1.156-1.29 1.484-.29.167-.55.269-.779.306h4.61a.886.886 0 0 1-.51-.297.914.914 0 0 1-.213-.538c-.025-.26.037-.569.186-.928a1.71 1.71 0 0 1 .556-.556c.303-.18.675-.27 1.114-.27h3.553c.544 0 .974-.16 1.29-.482.253-.26.43-.615.528-1.067.112-.513.12-1.03.028-1.549-.068.216-.207.433-.417.65-.18.191-.39.34-.631.445a2.4 2.4 0 0 1-1.011.204h-3.34c-.198 0-.384.012-.557.037l.204-.464.204-.482a795.629 795.629 0 0 0 1.327-3.07c.686-1.597 1.218-2.83 1.596-3.703.488 1.144 1.295 3.022 2.421 5.632.167.383.377.872.63 1.465l.15.344.138.334c.112.253.204.466.279.64.396.921.665 1.543.807 1.864.278.662.275 1.157-.01 1.485a.91.91 0 0 1-.519.306h4.61c-.228-.037-.488-.14-.778-.306a2.706 2.706 0 0 1-.678-.538 3.119 3.119 0 0 1-.612-.947zM112.85 7.25c-1.85-.865-2.969-1.49-3.359-1.874-.451-.445-.652-.924-.603-1.438.043-.494.294-.887.752-1.178.767-.476 1.645-.624 2.634-.445.322.056.644.148.965.278l.306.13.112.056.037.018.028.01c.34.247.547.562.621.946.025.142.031.275.019.399-.013.105-.034.173-.065.204l2.486-2.366c-.006.006-.021.01-.046.01a.443.443 0 0 1-.102.009c-.105 0-.238-.019-.399-.056-.458-.117-1.024-.365-1.698-.742a1.208 1.208 0 0 1-.241-.102l-.093-.037-.093-.047a6.559 6.559 0 0 0-1.512-.492c-1.342-.253-2.678.004-4.008.77-.909.632-1.407 1.451-1.493 2.46a3.302 3.302 0 0 0 .232 1.586c.21.507.507.943.89 1.308.619.569 1.785 1.215 3.498 1.939 1.713.723 2.743 1.373 3.089 1.948.303.507.381 1.067.232 1.68a2.96 2.96 0 0 1-.918 1.502c-.489.44-1.036.684-1.642.733-1.052.216-1.992.133-2.821-.25a3.88 3.88 0 0 1-.779-.492 4.068 4.068 0 0 1-.39-.38c-.402-.452-.646-.851-.733-1.197-.037-.124-.049-.235-.037-.334.013-.075.034-.127.065-.158l-2.254 1.763.018-.01h.093c.087.013.183.044.288.093.346.167.77.529 1.271 1.086l.083.083.056.056.065.065c.111.111.219.213.325.306.34.284.72.532 1.141.742 1.193.55 2.526.68 3.998.39a5.643 5.643 0 0 0 2.357-1.095c.853-.674 1.382-1.5 1.586-2.477a3.99 3.99 0 0 0 .084-1.605c-.093-.625-.316-1.154-.668-1.587-.402-.606-1.528-1.342-3.377-2.208zm17.942-5.724l-.056-.027a1.023 1.023 0 0 0-.139-.075 6.134 6.134 0 0 0-.389-.204 8.03 8.03 0 0 0-1.197-.464 7.823 7.823 0 0 0-3.823-.167c-1.626.23-3.089 1.07-4.388 2.524-1.391 1.57-2.065 3.327-2.022 5.27-.056 1.935.609 3.692 1.994 5.269 1.287 1.466 2.74 2.32 4.361 2.56a8.088 8.088 0 0 0 3.831-.139c.415-.124 1.024-.386 1.828-.788.625-.402 1.166-.65 1.624-.742a1.52 1.52 0 0 1 .389-.038.2.2 0 0 1 .093.019c.025.006.04.01.046.01l-2.338-2.292a.525.525 0 0 1 .084.158.756.756 0 0 1 .018.333c-.061.347-.337.68-.825 1.002-.625.316-1.095.517-1.41.603a6.171 6.171 0 0 1-2.969.112c-1.262-.186-2.391-.845-3.386-1.976-1.076-1.225-1.59-2.589-1.54-4.092-.037-1.503.485-2.86 1.568-4.072 1.001-1.132 2.133-1.785 3.395-1.958a6.023 6.023 0 0 1 2.969.13c.315.093.621.21.918.352a6.907 6.907 0 0 1 .408.223l.038.019.037.018c.358.26.575.588.649.984.025.142.031.278.019.408-.013.105-.031.173-.056.204l2.44-2.338a.103.103 0 0 1-.037.019.522.522 0 0 1-.102.009 1.62 1.62 0 0 1-.381-.056c-.445-.111-.983-.368-1.614-.77l-.037-.028zm19.26 12.682l-2.487-5.78a6671.56 6671.56 0 0 1-2.495-5.788c-.278-.656-.275-1.15.009-1.485a.912.912 0 0 1 .52-.306h-3.98c.198.037.371.14.519.306.285.334.288.829.009 1.485-.408.94-1.24 2.87-2.495 5.789-1.249 2.9-2.078 4.827-2.486 5.78-.285.661-.715 1.156-1.29 1.484-.291.167-.55.269-.779.306h4.611a.89.89 0 0 1-.724-.835c-.025-.26.037-.569.185-.928a1.71 1.71 0 0 1 .557-.556c.303-.18.674-.27 1.113-.27h3.554c.544 0 .974-.16 1.289-.482.254-.26.43-.615.529-1.067a3.96 3.96 0 0 0 .028-1.549c-.068.216-.207.433-.418.65-.179.191-.389.34-.631.445a2.397 2.397 0 0 1-1.011.204h-3.34c-.198 0-.383.012-.556.037.086-.198.154-.353.204-.464l.204-.482a881.479 881.479 0 0 0 1.327-3.07c.686-1.597 1.218-2.83 1.595-3.703a2000.209 2000.209 0 0 0 3.053 7.097l.148.344.139.334c.111.253.204.466.278.64.396.921.665 1.543.808 1.864.278.662.275 1.157-.01 1.485a.907.907 0 0 1-.519.306h4.611c-.229-.037-.489-.14-.78-.306a2.718 2.718 0 0 1-.677-.538 3.1 3.1 0 0 1-.612-.947zM167.308.832l.009.009a.145.145 0 0 1 .037.028.845.845 0 0 1 .13.092c.136.118.247.254.334.409.266.494.229 1.088-.111 1.78v.01l-4.723 9.649-4.713-9.63-.018-.028c-.186-.384-.278-.74-.278-1.067 0-.26.058-.498.176-.714a1.32 1.32 0 0 1 .501-.538h-4.388c.216.037.433.139.649.306.186.142.334.321.445.538.136.272.204.587.204.946v11.569c0 .655-.216 1.15-.649 1.484a1.478 1.478 0 0 1-.649.306h4.388a1.481 1.481 0 0 1-.65-.306c-.426-.334-.64-.829-.64-1.484v-8.6l5.622 11.244 5.622-11.244v8.6c0 .655-.216 1.15-.649 1.484a1.478 1.478 0 0 1-.649.306h4.388a1.481 1.481 0 0 1-.65-.306c-.433-.334-.649-.829-.649-1.484V2.622c0-.656.216-1.15.649-1.484.217-.167.433-.27.65-.306h-4.388z" fill="url(#a)"/><defs><linearGradient id="a" x1="175" y1="-5" x2="23.4" y2="68.963" gradientUnits="userSpaceOnUse"><stop stop-color="#56DF75"/><stop offset="1" stop-color="#49BCD6"/></linearGradient></defs></svg>