<svg width="21" height="21" viewBox="0 0 21 21" fill="none" xmlns="http://www.w3.org/2000/svg"><g clip-path="url(#a)"><path d="M20.648 9.56l-3.183-3.183V2.7a1.204 1.204 0 0 0-2.408 0v1.27l-2.37-2.37C11.518.429 9.48.43 8.31 1.602L.352 9.56a1.204 1.204 0 0 0 1.703 1.702l7.957-7.958a.71.71 0 0 1 .974 0l7.959 7.958a1.201 1.201 0 0 0 1.703 0c.47-.47.47-1.232 0-1.702z" fill="url(#b)"/><path d="M10.918 4.158a.59.59 0 0 0-.836 0l-7 6.997a.593.593 0 0 0-.173.42v5.103c0 1.198.971 2.169 2.169 2.169h3.465V13.48h3.913v5.367h3.466a2.169 2.169 0 0 0 2.168-2.169v-5.104a.59.59 0 0 0-.173-.418l-6.999-6.998z" fill="url(#c)"/></g><defs><linearGradient id="b" x1="21" y1=".723" x2="-1.091" y2="3.81" gradientUnits="userSpaceOnUse"><stop stop-color="#56DF75"/><stop offset="1" stop-color="#49BCD6"/></linearGradient><linearGradient id="c" x1="18.09" y1="3.985" x2="1.898" y2="5.183" gradientUnits="userSpaceOnUse"><stop stop-color="#56DF75"/><stop offset="1" stop-color="#49BCD6"/></linearGradient><clipPath id="a"><path fill="#fff" d="M0 0h21v21H0z"/></clipPath></defs></svg>