<svg width="21" height="19" viewBox="0 0 21 19" fill="none" xmlns="http://www.w3.org/2000/svg"><path d="M18.836 7.163c-1.093.784-2.628 1.827-3.32 1.827-.137 0-.181-.042-.213-.08-.283-.349-.207-1.57.227-3.63a.434.434 0 0 0-.785-.332c-1.494 2.226-2.178 2.694-2.488 2.694-.44 0-.886-1.265-1.33-3.76a.433.433 0 0 0-.403-.356v-.003l-.012.001h-.013v.002a.434.434 0 0 0-.403.356c-.444 2.495-.891 3.76-1.33 3.76-.31 0-.994-.468-2.487-2.694a.434.434 0 0 0-.786.332c.434 2.06.51 3.281.227 3.63-.031.039-.076.08-.213.08-.692 0-2.226-1.043-3.32-1.827a.434.434 0 0 0-.606.606c2.5 3.198 2.03 6.869 2.03 6.869a.888.888 0 0 0-.014.158c0 .901 1.262 1.258 2.362 1.469 1.212.232 2.808.361 4.504.366h.098c1.695-.005 3.291-.134 4.503-.366 1.1-.21 2.363-.568 2.363-1.47a.891.891 0 0 0-.014-.157s-.47-3.671 2.03-6.869a.434.434 0 0 0-.607-.606zm-8.276 8.223h-.098c-2.695-.007-4.476-.321-5.262-.59.786-.27 2.567-.583 5.262-.59h.098c2.695.007 4.476.32 5.262.59-.786.269-2.567.583-5.262.59z" fill="#000"/><path d="M18.836 7.163c-1.093.784-2.628 1.827-3.32 1.827-.137 0-.181-.042-.213-.08-.283-.349-.207-1.57.227-3.63a.434.434 0 0 0-.785-.332c-1.494 2.226-2.178 2.694-2.488 2.694-.44 0-.886-1.265-1.33-3.76a.433.433 0 0 0-.403-.356v-.003l-.012.001h-.013v.002a.434.434 0 0 0-.403.356c-.444 2.495-.891 3.76-1.33 3.76-.31 0-.994-.468-2.487-2.694a.434.434 0 0 0-.786.332c.434 2.06.51 3.281.227 3.63-.031.039-.076.08-.213.08-.692 0-2.226-1.043-3.32-1.827a.434.434 0 0 0-.606.606c2.5 3.198 2.03 6.869 2.03 6.869a.888.888 0 0 0-.014.158c0 .901 1.262 1.258 2.362 1.469 1.212.232 2.808.361 4.504.366h.098c1.695-.005 3.291-.134 4.503-.366 1.1-.21 2.363-.568 2.363-1.47a.891.891 0 0 0-.014-.157s-.47-3.671 2.03-6.869a.434.434 0 0 0-.607-.606zm-8.276 8.223h-.098c-2.695-.007-4.476-.321-5.262-.59.786-.27 2.567-.583 5.262-.59h.098c2.695.007 4.476.32 5.262.59-.786.269-2.567.583-5.262.59z" fill="url(#a)"/><path d="M10.511 2.997a1.314 1.314 0 1 0 0-2.628 1.314 1.314 0 0 0 0 2.628z" fill="#000"/><path d="M10.511 2.997a1.314 1.314 0 1 0 0-2.628 1.314 1.314 0 0 0 0 2.628z" fill="url(#b)"/><path d="M4.964 4.366a1.095 1.095 0 1 0 0-2.19 1.095 1.095 0 0 0 0 2.19z" fill="#000"/><path d="M4.964 4.366a1.095 1.095 0 1 0 0-2.19 1.095 1.095 0 0 0 0 2.19z" fill="url(#c)"/><path d="M15.968 4.366a1.095 1.095 0 1 0 0-2.19 1.095 1.095 0 0 0 0 2.19z" fill="#000"/><path d="M15.968 4.366a1.095 1.095 0 1 0 0-2.19 1.095 1.095 0 0 0 0 2.19z" fill="url(#d)"/><path d="M.738 7.13a.738.738 0 1 0 0-1.477.738.738 0 0 0 0 1.476z" fill="#000"/><path d="M.738 7.13a.738.738 0 1 0 0-1.477.738.738 0 0 0 0 1.476z" fill="url(#e)"/><path d="M20.262 7.13a.738.738 0 1 0 0-1.477.738.738 0 0 0 0 1.476z" fill="#000"/><path d="M20.262 7.13a.738.738 0 1 0 0-1.477.738.738 0 0 0 0 1.476z" fill="url(#f)"/><defs><linearGradient id="a" x1="19.524" y1="3.523" x2=".383" y2="5.431" gradientUnits="userSpaceOnUse"><stop stop-color="#56DF75"/><stop offset="1" stop-color="#49BCD6"/></linearGradient><linearGradient id="b" x1="11.826" y1=".369" x2="9.021" y2=".572" gradientUnits="userSpaceOnUse"><stop stop-color="#56DF75"/><stop offset="1" stop-color="#49BCD6"/></linearGradient><linearGradient id="c" x1="6.059" y1="2.176" x2="3.723" y2="2.345" gradientUnits="userSpaceOnUse"><stop stop-color="#56DF75"/><stop offset="1" stop-color="#49BCD6"/></linearGradient><linearGradient id="d" x1="17.063" y1="2.176" x2="14.726" y2="2.345" gradientUnits="userSpaceOnUse"><stop stop-color="#56DF75"/><stop offset="1" stop-color="#49BCD6"/></linearGradient><linearGradient id="e" x1="1.476" y1="5.653" x2="-.099" y2="5.767" gradientUnits="userSpaceOnUse"><stop stop-color="#56DF75"/><stop offset="1" stop-color="#49BCD6"/></linearGradient><linearGradient id="f" x1="21" y1="5.653" x2="19.425" y2="5.767" gradientUnits="userSpaceOnUse"><stop stop-color="#56DF75"/><stop offset="1" stop-color="#49BCD6"/></linearGradient></defs></svg>