<svg width="21" height="21" viewBox="0 0 21 21" fill="none" xmlns="http://www.w3.org/2000/svg"><path d="M4.908 3.837l8.371-2.285-.443-.896a1.18 1.18 0 0 0-1.58-.533L3.76 3.837h1.147z" fill="#000"/><path d="M4.908 3.837l8.371-2.285-.443-.896a1.18 1.18 0 0 0-1.58-.533L3.76 3.837h1.147z" fill="url(#a)"/><path d="M15.878 1.618c-.104 0-.208.014-.311.043l-1.967.537-6.006 1.64h9.789l-.368-1.35a1.177 1.177 0 0 0-1.137-.87z" fill="#000"/><path d="M15.878 1.618c-.104 0-.208.014-.311.043l-1.967.537-6.006 1.64h9.789l-.368-1.35a1.177 1.177 0 0 0-1.137-.87z" fill="url(#b)"/><path d="M18.611 4.663H1.181a1.177 1.177 0 0 0-1.139.87A1.22 1.22 0 0 0 0 5.842V18.98c0 .65.528 1.179 1.18 1.179h17.429a1.18 1.18 0 0 0 1.179-1.18v-3.29H12.79a2.006 2.006 0 0 1-2.005-2.004v-2.622c0-.543.218-1.035.569-1.396a1.984 1.984 0 0 1 1.434-.606h6.999V5.84a1.176 1.176 0 0 0-1.177-1.178z" fill="#000"/><path d="M18.611 4.663H1.181a1.177 1.177 0 0 0-1.139.87A1.22 1.22 0 0 0 0 5.842V18.98c0 .65.528 1.179 1.18 1.179h17.429a1.18 1.18 0 0 0 1.179-1.18v-3.29H12.79a2.006 2.006 0 0 1-2.005-2.004v-2.622c0-.543.218-1.035.569-1.396a1.984 1.984 0 0 1 1.434-.606h6.999V5.84a1.176 1.176 0 0 0-1.177-1.178z" fill="url(#c)"/><path d="M20.616 10.188a1.177 1.177 0 0 0-.795-.309H12.79a1.18 1.18 0 0 0-1.18 1.18v2.623c0 .65.529 1.179 1.18 1.179h7.03c.134 0 .262-.024.382-.064A1.175 1.175 0 0 0 21 13.683v-2.625c0-.344-.149-.655-.384-.87zm-5.363 2.417a.59.59 0 0 1-.59.59h-.391a.59.59 0 0 1-.59-.59v-.391a.596.596 0 0 1 .59-.59h.391a.59.59 0 0 1 .59.59v.391z" fill="#000"/><path d="M20.616 10.188a1.177 1.177 0 0 0-.795-.309H12.79a1.18 1.18 0 0 0-1.18 1.18v2.623c0 .65.529 1.179 1.18 1.179h7.03c.134 0 .262-.024.382-.064A1.175 1.175 0 0 0 21 13.683v-2.625c0-.344-.149-.655-.384-.87zm-5.363 2.417a.59.59 0 0 1-.59.59h-.391a.59.59 0 0 1-.59-.59v-.391a.596.596 0 0 1 .59-.59h.391a.59.59 0 0 1 .59.59v.391z" fill="url(#d)"/><defs><linearGradient id="a" x1="13.279" x2="3.391" y2="1.778" gradientUnits="userSpaceOnUse"><stop stop-color="#56DF75"/><stop offset="1" stop-color="#49BCD6"/></linearGradient><linearGradient id="b" x1="17.383" y1="1.618" x2="7.858" y2="4.664" gradientUnits="userSpaceOnUse"><stop stop-color="#56DF75"/><stop offset="1" stop-color="#49BCD6"/></linearGradient><linearGradient id="c" x1="19.788" y1="4.663" x2="-1.254" y2="6.61" gradientUnits="userSpaceOnUse"><stop stop-color="#56DF75"/><stop offset="1" stop-color="#49BCD6"/></linearGradient><linearGradient id="d" x1="21" y1="9.879" x2="11.116" y2="11.229" gradientUnits="userSpaceOnUse"><stop stop-color="#56DF75"/><stop offset="1" stop-color="#49BCD6"/></linearGradient></defs></svg>