<svg width="21" height="21" viewBox="0 0 21 21" fill="none" xmlns="http://www.w3.org/2000/svg"><path d="M10.5 0C4.7 0 0 4.701 0 10.5 0 16.298 4.701 21 10.5 21 16.298 21 21 16.298 21 10.5 21 4.7 16.298 0 10.5 0zm2.185 16.273c-.54.213-.97.375-1.293.487a3.412 3.412 0 0 1-1.122.168c-.654 0-1.163-.16-1.526-.48a1.546 1.546 0 0 1-.543-1.214c0-.191.013-.387.04-.586.027-.2.071-.423.13-.675l.677-2.389c.06-.23.111-.447.152-.65.04-.204.06-.392.06-.562 0-.304-.063-.518-.188-.638-.127-.12-.366-.178-.723-.178-.174 0-.353.025-.537.08-.183.056-.34.106-.47.156l.178-.736c.443-.18.867-.335 1.271-.463.405-.13.787-.194 1.147-.194.65 0 1.15.158 1.504.471.35.314.528.722.528 1.223 0 .104-.013.287-.037.549a3.67 3.67 0 0 1-.135.72l-.673 2.383c-.055.191-.104.41-.148.654a3.455 3.455 0 0 0-.065.557c0 .316.07.532.212.647.14.114.387.172.736.172.164 0 .348-.03.556-.086a3.26 3.26 0 0 0 .45-.151l-.18.735zm-.119-9.67a1.606 1.606 0 0 1-1.133.438c-.441 0-.821-.146-1.138-.437a1.396 1.396 0 0 1-.474-1.06c0-.414.16-.77.474-1.064a1.611 1.611 0 0 1 1.138-.442c.442 0 .82.147 1.133.442.314.294.471.65.471 1.063 0 .415-.157.769-.47 1.06z" fill="url(#a)"/><defs><linearGradient id="a" x1="21" x2="-1.404" y2="1.624" gradientUnits="userSpaceOnUse"><stop stop-color="#56DF75"/><stop offset="1" stop-color="#49BCD6"/></linearGradient></defs></svg>