<svg width="21" height="21" viewBox="0 0 21 21" fill="none" xmlns="http://www.w3.org/2000/svg"><g clip-path="url(#a)"><path d="M11.116 0C9.76 0 8.614 1.145 8.614 2.502c0 1.357 1.145 2.502 2.502 2.502 1.358 0 2.461-1.145 2.461-2.502 0-1.357-1.103-2.502-2.46-2.502z" fill="#000"/><path d="M11.116 0C9.76 0 8.614 1.145 8.614 2.502c0 1.357 1.145 2.502 2.502 2.502 1.358 0 2.461-1.145 2.461-2.502 0-1.357-1.103-2.502-2.46-2.502z" fill="url(#b)"/><path d="M13.848 5.004a3.67 3.67 0 0 1-2.732 1.23 3.759 3.759 0 0 1-2.772-1.23 3.663 3.663 0 0 0-.96 2.46v.616c0 .34.275.615.615.615h6.194c.34 0 .615-.275.615-.615v-.615c0-.949-.37-1.807-.96-2.461z" fill="#000"/><path d="M13.848 5.004a3.67 3.67 0 0 1-2.732 1.23 3.759 3.759 0 0 1-2.772-1.23 3.663 3.663 0 0 0-.96 2.46v.616c0 .34.275.615.615.615h6.194c.34 0 .615-.275.615-.615v-.615c0-.949-.37-1.807-.96-2.461z" fill="url(#c)"/><path d="M5.945 18.884L2.81 12.598a1.23 1.23 0 0 0-1.648-.554l-.819.406a.616.616 0 0 0-.277.827l3.691 7.383a.616.616 0 0 0 .824.276l.81-.4a1.23 1.23 0 0 0 .554-1.652z" fill="#000"/><path d="M5.945 18.884L2.81 12.598a1.23 1.23 0 0 0-1.648-.554l-.819.406a.616.616 0 0 0-.277.827l3.691 7.383a.616.616 0 0 0 .824.276l.81-.4a1.23 1.23 0 0 0 .554-1.652z" fill="url(#d)"/><path d="M20.497 10.16a1.227 1.227 0 0 0-1.624.16l-3.364 4.134c-.234.246-.677.394-.91.394h-2.867a.61.61 0 0 1-.615-.616.61.61 0 0 1 .615-.615h2.46c.677 0 1.231-.554 1.231-1.23 0-.677-.554-1.23-1.23-1.23h-3.224c-.307 0-.46-.195-.701-.407-.952-.856-2.377-1.27-3.82-.935-.8.186-1.341.51-1.889.943l-.018-.015-.89.784 3.497 7.012h7.045a3.706 3.706 0 0 0 2.953-1.477l3.61-5.168a1.24 1.24 0 0 0-.26-1.735z" fill="#000"/><path d="M20.497 10.16a1.227 1.227 0 0 0-1.624.16l-3.364 4.134c-.234.246-.677.394-.91.394h-2.867a.61.61 0 0 1-.615-.616.61.61 0 0 1 .615-.615h2.46c.677 0 1.231-.554 1.231-1.23 0-.677-.554-1.23-1.23-1.23h-3.224c-.307 0-.46-.195-.701-.407-.952-.856-2.377-1.27-3.82-.935-.8.186-1.341.51-1.889.943l-.018-.015-.89.784 3.497 7.012h7.045a3.706 3.706 0 0 0 2.953-1.477l3.61-5.168a1.24 1.24 0 0 0-.26-1.735z" fill="url(#e)"/></g><defs><linearGradient id="b" x1="13.577" x2="8.282" y2=".381" gradientUnits="userSpaceOnUse"><stop stop-color="#56DF75"/><stop offset="1" stop-color="#49BCD6"/></linearGradient><linearGradient id="c" x1="14.808" y1="5.004" x2="7.012" y2="6.14" gradientUnits="userSpaceOnUse"><stop stop-color="#56DF75"/><stop offset="1" stop-color="#49BCD6"/></linearGradient><linearGradient id="d" x1="6.075" y1="11.916" x2="-.424" y2="12.231" gradientUnits="userSpaceOnUse"><stop stop-color="#56DF75"/><stop offset="1" stop-color="#49BCD6"/></linearGradient><linearGradient id="e" x1="20.999" y1="9.699" x2="2.763" y2="12.293" gradientUnits="userSpaceOnUse"><stop stop-color="#56DF75"/><stop offset="1" stop-color="#49BCD6"/></linearGradient><clipPath id="a"><path fill="#fff" d="M0 0h21v21H0z"/></clipPath></defs></svg>