<svg width="21" height="21" viewBox="0 0 21 21" fill="none" xmlns="http://www.w3.org/2000/svg"><path d="M19.696 11.187v7.985H4.376v-7.986h15.32zM21 9.883H3.073v10.593H21V9.883z" fill="#030104"/><path d="M19.696 11.187v7.985H4.376v-7.986h15.32zM21 9.883H3.073v10.593H21V9.883z" fill="url(#a)"/><path d="M16.11 9.883l1.836 1.835c-.014.067-.041.13-.041.202 0 .584.473 1.057 1.058 1.057.071 0 .133-.027.2-.04L21 14.772v-4.89h-4.89z" fill="#030104"/><path d="M16.11 9.883l1.836 1.835c-.014.067-.041.13-.041.202 0 .584.473 1.057 1.058 1.057.071 0 .133-.027.2-.04L21 14.772v-4.89h-4.89z" fill="url(#b)"/><path d="M17.333 16.237a1.058 1.058 0 1 0 0-2.116 1.058 1.058 0 0 0 0 2.116z" fill="#030104"/><path d="M17.333 16.237a1.058 1.058 0 1 0 0-2.116 1.058 1.058 0 0 0 0 2.116z" fill="url(#c)"/><path d="M12.036 17.961c1.767 0 3.2-1.245 3.2-2.782 0-1.536-1.433-2.782-3.2-2.782-1.766 0-3.199 1.246-3.199 2.782 0 1.537 1.433 2.782 3.2 2.782z" fill="#030104"/><path d="M12.036 17.961c1.767 0 3.2-1.245 3.2-2.782 0-1.536-1.433-2.782-3.2-2.782-1.766 0-3.199 1.246-3.199 2.782 0 1.537 1.433 2.782 3.2 2.782z" fill="url(#d)"/><path d="M6.74 16.236a1.057 1.057 0 1 0 0-2.114 1.057 1.057 0 0 0 0 2.114z" fill="#030104"/><path d="M6.74 16.236a1.057 1.057 0 1 0 0-2.114 1.057 1.057 0 0 0 0 2.114z" fill="url(#e)"/><path d="M3.073 14.772l1.835-1.835c.067.014.13.04.202.04.584 0 1.057-.473 1.057-1.057 0-.072-.027-.134-.04-.201l1.835-1.836h-4.89v4.889z" fill="#030104"/><path d="M3.073 14.772l1.835-1.835c.067.014.13.04.202.04.584 0 1.057-.473 1.057-1.057 0-.072-.027-.134-.04-.201l1.835-1.836h-4.89v4.889z" fill="url(#f)"/><path d="M6.168 18.439c0-.584-.474-1.057-1.058-1.057-.072 0-.134.027-.201.04l-1.836-1.835v4.889h4.889l-1.835-1.835c.014-.068.04-.131.04-.202z" fill="#030104"/><path d="M6.168 18.439c0-.584-.474-1.057-1.058-1.057-.072 0-.134.027-.201.04l-1.836-1.835v4.889h4.889l-1.835-1.835c.014-.068.04-.131.04-.202z" fill="url(#g)"/><path d="M18.963 17.381c-.585 0-1.057.474-1.057 1.058 0 .072.027.134.04.201l-1.835 1.836H21v-4.89l-1.835 1.836c-.068-.014-.13-.04-.202-.04z" fill="#030104"/><path d="M18.963 17.381c-.585 0-1.057.474-1.057 1.058 0 .072.027.134.04.201l-1.835 1.836H21v-4.89l-1.835 1.836c-.068-.014-.13-.04-.202-.04z" fill="url(#h)"/><path d="M15.053 7.987a1.057 1.057 0 1 0 0-2.113 1.057 1.057 0 0 0 0 2.113z" fill="#030104"/><path d="M15.053 7.987a1.057 1.057 0 1 0 0-2.113 1.057 1.057 0 0 0 0 2.113z" fill="url(#i)"/><path d="M1.85 9.883c0-.675.548-1.223 1.223-1.223h.668l.03-.104 9.434-5.166.721.21c.02.065.028.134.063.196.28.514.922.7 1.436.42.062-.034.104-.087.155-.132l.723.212 1.644 3-.211.722c-.065.02-.133.027-.196.061-.239.13-.398.344-.482.581h3.122l-2.107-3.848L15.726.524l-4.29 2.348L4.29 6.786 0 9.135l1.85 3.379V9.883z" fill="#030104"/><path d="M1.85 9.883c0-.675.548-1.223 1.223-1.223h.668l.03-.104 9.434-5.166.721.21c.02.065.028.134.063.196.28.514.922.7 1.436.42.062-.034.104-.087.155-.132l.723.212 1.644 3-.211.722c-.065.02-.133.027-.196.061-.239.13-.398.344-.482.581h3.122l-2.107-3.848L15.726.524l-4.29 2.348L4.29 6.786 0 9.135l1.85 3.379V9.883z" fill="url(#j)"/><path d="M9.07 7.036c-.71.387-1.22.976-1.507 1.624h5.894a2.42 2.42 0 0 0-.244-.72c-.739-1.349-2.593-1.753-4.143-.904z" fill="#030104"/><path d="M9.07 7.036c-.71.387-1.22.976-1.507 1.624h5.894a2.42 2.42 0 0 0-.244-.72c-.739-1.349-2.593-1.753-4.143-.904z" fill="url(#k)"/><defs><linearGradient id="a" x1="21" y1="9.883" x2="2.058" y2="12.206" gradientUnits="userSpaceOnUse"><stop stop-color="#56DF75"/><stop offset="1" stop-color="#49BCD6"/></linearGradient><linearGradient id="b" x1="21" y1="9.883" x2="15.784" y2="10.261" gradientUnits="userSpaceOnUse"><stop stop-color="#56DF75"/><stop offset="1" stop-color="#49BCD6"/></linearGradient><linearGradient id="c" x1="18.391" y1="14.122" x2="16.134" y2="14.285" gradientUnits="userSpaceOnUse"><stop stop-color="#56DF75"/><stop offset="1" stop-color="#49BCD6"/></linearGradient><linearGradient id="d" x1="15.236" y1="12.397" x2="8.421" y2="12.965" gradientUnits="userSpaceOnUse"><stop stop-color="#56DF75"/><stop offset="1" stop-color="#49BCD6"/></linearGradient><linearGradient id="e" x1="7.797" y1="14.122" x2="5.541" y2="14.286" gradientUnits="userSpaceOnUse"><stop stop-color="#56DF75"/><stop offset="1" stop-color="#49BCD6"/></linearGradient><linearGradient id="f" x1="7.962" y1="9.883" x2="2.746" y2="10.261" gradientUnits="userSpaceOnUse"><stop stop-color="#56DF75"/><stop offset="1" stop-color="#49BCD6"/></linearGradient><linearGradient id="g" x1="7.962" y1="15.587" x2="2.746" y2="15.965" gradientUnits="userSpaceOnUse"><stop stop-color="#56DF75"/><stop offset="1" stop-color="#49BCD6"/></linearGradient><linearGradient id="h" x1="21" y1="15.587" x2="15.784" y2="15.965" gradientUnits="userSpaceOnUse"><stop stop-color="#56DF75"/><stop offset="1" stop-color="#49BCD6"/></linearGradient><linearGradient id="i" x1="16.11" y1="5.874" x2="13.855" y2="6.037" gradientUnits="userSpaceOnUse"><stop stop-color="#56DF75"/><stop offset="1" stop-color="#49BCD6"/></linearGradient><linearGradient id="j" x1="20.18" y1=".524" x2="-1.145" y2="3.126" gradientUnits="userSpaceOnUse"><stop stop-color="#56DF75"/><stop offset="1" stop-color="#49BCD6"/></linearGradient><linearGradient id="k" x1="13.457" y1="6.592" x2="7.394" y2="7.844" gradientUnits="userSpaceOnUse"><stop stop-color="#56DF75"/><stop offset="1" stop-color="#49BCD6"/></linearGradient></defs></svg>