<svg width="14" height="19" viewBox="0 0 14 19" fill="none" xmlns="http://www.w3.org/2000/svg"><path d="M11.925 7.474h-8.42V3.99A3.118 3.118 0 0 1 6.62.876a3.118 3.118 0 0 1 3.114 3.115v1.576a.438.438 0 0 0 .877 0V3.991C10.61 1.79 8.82 0 6.62 0S2.629 1.79 2.629 3.99v3.484H1.314C.59 7.474 0 8.064 0 8.788v8.13c0 .725.59 1.314 1.314 1.314h10.61c.726 0 1.315-.59 1.315-1.314v-8.13c0-.725-.59-1.314-1.314-1.314zm.438 9.444a.439.439 0 0 1-.438.438H1.315a.439.439 0 0 1-.439-.438v-8.13a.44.44 0 0 1 .438-.438h10.61a.44.44 0 0 1 .439.438v8.13z" fill="#000"/><path d="M11.925 7.474h-8.42V3.99A3.118 3.118 0 0 1 6.62.876a3.118 3.118 0 0 1 3.114 3.115v1.576a.438.438 0 0 0 .877 0V3.991C10.61 1.79 8.82 0 6.62 0S2.629 1.79 2.629 3.99v3.484H1.314C.59 7.474 0 8.064 0 8.788v8.13c0 .725.59 1.314 1.314 1.314h10.61c.726 0 1.315-.59 1.315-1.314v-8.13c0-.725-.59-1.314-1.314-1.314zm.438 9.444a.439.439 0 0 1-.438.438H1.315a.439.439 0 0 1-.439-.438v-8.13a.44.44 0 0 1 .438-.438h10.61a.44.44 0 0 1 .439.438v8.13z" fill="url(#a)"/><defs><linearGradient id="a" x1="13.239" x2="-.92" y2=".745" gradientUnits="userSpaceOnUse"><stop stop-color="#56DF75"/><stop offset="1" stop-color="#49BCD6"/></linearGradient></defs></svg>