<svg width="17" height="17" viewBox="0 0 17 17" fill="none" xmlns="http://www.w3.org/2000/svg"><path d="M16.505 3.022h-4.519v-.499c0-.823-.67-1.494-1.494-1.494H6.508c-.824 0-1.494.67-1.494 1.494v.498H.498A.5.5 0 0 0 0 3.52v10.957c0 .823.67 1.494 1.494 1.494h14.012c.824 0 1.494-.67 1.494-1.494V3.528c-.02-.327-.22-.505-.495-.506zM6.01 2.523c0-.274.223-.498.498-.498h3.984c.275 0 .498.224.498.498v.498H6.01v-.498zm9.8 1.495l-1.546 4.64a.497.497 0 0 1-.472.34H10.99V8.5a.498.498 0 0 0-.498-.498H6.508a.498.498 0 0 0-.498.498v.498H3.208a.497.497 0 0 1-.472-.34l-1.547-4.64h14.622zm-5.816 4.98v.996H7.006v-.996h2.988zm6.01 5.479a.499.499 0 0 1-.498.498H1.494a.499.499 0 0 1-.498-.498V6.589l.795 2.383a1.492 1.492 0 0 0 1.417 1.022H6.01v.498c0 .275.223.498.498.498h3.984a.498.498 0 0 0 .498-.498v-.498h2.802a1.49 1.49 0 0 0 1.417-1.021l.795-2.384v7.888z" fill="#000"/><path d="M16.505 3.022h-4.519v-.499c0-.823-.67-1.494-1.494-1.494H6.508c-.824 0-1.494.67-1.494 1.494v.498H.498A.5.5 0 0 0 0 3.52v10.957c0 .823.67 1.494 1.494 1.494h14.012c.824 0 1.494-.67 1.494-1.494V3.528c-.02-.327-.22-.505-.495-.506zM6.01 2.523c0-.274.223-.498.498-.498h3.984c.275 0 .498.224.498.498v.498H6.01v-.498zm9.8 1.495l-1.546 4.64a.497.497 0 0 1-.472.34H10.99V8.5a.498.498 0 0 0-.498-.498H6.508a.498.498 0 0 0-.498.498v.498H3.208a.497.497 0 0 1-.472-.34l-1.547-4.64h14.622zm-5.816 4.98v.996H7.006v-.996h2.988zm6.01 5.479a.499.499 0 0 1-.498.498H1.494a.499.499 0 0 1-.498-.498V6.589l.795 2.383a1.492 1.492 0 0 0 1.417 1.022H6.01v.498c0 .275.223.498.498.498h3.984a.498.498 0 0 0 .498-.498v-.498h2.802a1.49 1.49 0 0 0 1.417-1.021l.795-2.384v7.888z" fill="url(#a)"/><defs><linearGradient id="a" x1="17" y1="1.029" x2="-1.109" y2="2.523" gradientUnits="userSpaceOnUse"><stop stop-color="#56DF75"/><stop offset="1" stop-color="#49BCD6"/></linearGradient></defs></svg>