<svg width="18" height="18" viewBox="0 0 18 18" fill="none" xmlns="http://www.w3.org/2000/svg"><path d="M8.724 12.066a.941.941 0 0 0-.931.944c0 .502.404.944.931.944a.952.952 0 0 0 .944-.944.952.952 0 0 0-.944-.944z" fill="#000"/><path d="M8.724 12.066a.941.941 0 0 0-.931.944c0 .502.404.944.931.944a.952.952 0 0 0 .944-.944.952.952 0 0 0-.944-.944z" fill="url(#a)"/><path d="M8.884 4.922c-1.655 0-2.415.98-2.415 1.642 0 .478.405.699.736.699.661 0 .392-.944 1.642-.944.613 0 1.103.27 1.103.833 0 .662-.687 1.042-1.09 1.385-.356.306-.822.809-.822 1.863 0 .637.172.82.674.82.6 0 .723-.269.723-.502 0-.637.012-1.005.686-1.531.331-.258 1.373-1.091 1.373-2.243s-1.042-2.022-2.61-2.022z" fill="#000"/><path d="M8.884 4.922c-1.655 0-2.415.98-2.415 1.642 0 .478.405.699.736.699.661 0 .392-.944 1.642-.944.613 0 1.103.27 1.103.833 0 .662-.687 1.042-1.09 1.385-.356.306-.822.809-.822 1.863 0 .637.172.82.674.82.6 0 .723-.269.723-.502 0-.637.012-1.005.686-1.531.331-.258 1.373-1.091 1.373-2.243s-1.042-2.022-2.61-2.022z" fill="url(#b)"/><path d="M9 0C4.026 0 0 4.025 0 9v8.297c0 .388.315.703.703.703H9c4.974 0 9-4.025 9-9 0-4.974-4.025-9-9-9zm0 16.594H1.406V9A7.59 7.59 0 0 1 9 1.406 7.59 7.59 0 0 1 16.594 9 7.59 7.59 0 0 1 9 16.594z" fill="#000"/><path d="M9 0C4.026 0 0 4.025 0 9v8.297c0 .388.315.703.703.703H9c4.974 0 9-4.025 9-9 0-4.974-4.025-9-9-9zm0 16.594H1.406V9A7.59 7.59 0 0 1 9 1.406 7.59 7.59 0 0 1 16.594 9 7.59 7.59 0 0 1 9 16.594z" fill="url(#c)"/><defs><linearGradient id="a" x1="9.668" y1="12.066" x2="7.667" y2="12.21" gradientUnits="userSpaceOnUse"><stop stop-color="#56DF75"/><stop offset="1" stop-color="#49BCD6"/></linearGradient><linearGradient id="b" x1="11.494" y1="4.922" x2="6.123" y2="5.232" gradientUnits="userSpaceOnUse"><stop stop-color="#56DF75"/><stop offset="1" stop-color="#49BCD6"/></linearGradient><linearGradient id="c" x1="18" x2="-1.204" y2="1.392" gradientUnits="userSpaceOnUse"><stop stop-color="#56DF75"/><stop offset="1" stop-color="#49BCD6"/></linearGradient></defs></svg>