<svg width="42" height="42" viewBox="0 0 42 42" fill="none" xmlns="http://www.w3.org/2000/svg"><path d="M23.636 13.005h-5.36v8.082h5.36a4.046 4.046 0 0 0 4.041-4.041 4.038 4.038 0 0 0-4.041-4.041z" fill="#000"/><path d="M23.636 13.005h-5.36v8.082h5.36a4.046 4.046 0 0 0 4.041-4.041 4.038 4.038 0 0 0-4.041-4.041z" fill="url(#a)"/><path d="M21 0C9.42 0 0 9.42 0 21s9.42 21 21 21 21-9.42 21-21S32.58 0 21 0zm2.636 23.548h-5.36v2.811h5.36a1.23 1.23 0 0 1 0 2.461h-5.36v2.724a1.23 1.23 0 0 1-2.46 0V28.82H14.41a1.23 1.23 0 1 1 0-2.46h1.406v-2.812H14.41a1.23 1.23 0 1 1 0-2.46h1.406v-9.314c0-.68.55-1.23 1.23-1.23h6.59c3.51 0 6.502 2.828 6.502 6.502a6.51 6.51 0 0 1-6.502 6.502z" fill="#000"/><path d="M21 0C9.42 0 0 9.42 0 21s9.42 21 21 21 21-9.42 21-21S32.58 0 21 0zm2.636 23.548h-5.36v2.811h5.36a1.23 1.23 0 0 1 0 2.461h-5.36v2.724a1.23 1.23 0 0 1-2.46 0V28.82H14.41a1.23 1.23 0 1 1 0-2.46h1.406v-2.812H14.41a1.23 1.23 0 1 1 0-2.46h1.406v-9.314c0-.68.55-1.23 1.23-1.23h6.59c3.51 0 6.502 2.828 6.502 6.502a6.51 6.51 0 0 1-6.502 6.502z" fill="url(#b)"/><defs><linearGradient id="a" x1="27.677" y1="13.005" x2="17.666" y2="13.849" gradientUnits="userSpaceOnUse"><stop stop-color="#56DF75"/><stop offset="1" stop-color="#49BCD6"/></linearGradient><linearGradient id="b" x1="42" x2="-2.809" y2="3.248" gradientUnits="userSpaceOnUse"><stop stop-color="#56DF75"/><stop offset="1" stop-color="#49BCD6"/></linearGradient></defs></svg>