<svg width="12" height="10" viewBox="0 0 12 10" fill="none" xmlns="http://www.w3.org/2000/svg"><path d="M6.18 6.262l3.45-3.457a.134.134 0 0 1 .19 0 .137.137 0 0 1 0 .194l-3.9 3.907a.132.132 0 0 1-.094.039.132.132 0 0 1-.095-.04L1.835 3a.137.137 0 0 1 0-.194.134.134 0 0 1 .19 0l3.448 3.457.354.355.354-.355z" fill="#000" stroke="url(#a)"/><defs><linearGradient id="a" x1="10.358" y1="7.445" x2="10.129" y2="1.9" gradientUnits="userSpaceOnUse"><stop stop-color="#56DF75"/><stop offset="1" stop-color="#49BCD6"/></linearGradient></defs></svg>