<svg width="18" height="18" viewBox="0 0 18 18" fill="none" xmlns="http://www.w3.org/2000/svg"><path d="M8.872 8.67a4.195 4.195 0 0 0 3.065-1.27 4.195 4.195 0 0 0 1.27-3.065c0-1.19-.427-2.222-1.27-3.065A4.196 4.196 0 0 0 8.872 0a4.195 4.195 0 0 0-3.066 1.27 4.195 4.195 0 0 0-1.27 3.065c0 1.192.428 2.223 1.27 3.066a4.196 4.196 0 0 0 3.066 1.27zm-2.32-6.654c.647-.647 1.406-.961 2.32-.961.914 0 1.672.314 2.32.96.646.648.96 1.406.96 2.32 0 .914-.314 1.673-.96 2.32-.648.646-1.406.96-2.32.96a3.137 3.137 0 0 1-2.32-.96c-.647-.647-.961-1.406-.961-2.32 0-.914.314-1.672.961-2.32z" fill="#000"/><path d="M8.872 8.67a4.195 4.195 0 0 0 3.065-1.27 4.195 4.195 0 0 0 1.27-3.065c0-1.19-.427-2.222-1.27-3.065A4.196 4.196 0 0 0 8.872 0a4.195 4.195 0 0 0-3.066 1.27 4.195 4.195 0 0 0-1.27 3.065c0 1.192.428 2.223 1.27 3.066a4.196 4.196 0 0 0 3.066 1.27zm-2.32-6.654c.647-.647 1.406-.961 2.32-.961.914 0 1.672.314 2.32.96.646.648.96 1.406.96 2.32 0 .914-.314 1.673-.96 2.32-.648.646-1.406.96-2.32.96a3.137 3.137 0 0 1-2.32-.96c-.647-.647-.961-1.406-.961-2.32 0-.914.314-1.672.961-2.32z" fill="url(#a)"/><path d="M16.458 13.841a10.73 10.73 0 0 0-.146-1.137 8.954 8.954 0 0 0-.28-1.144 5.651 5.651 0 0 0-.47-1.066 4.024 4.024 0 0 0-.709-.924 3.125 3.125 0 0 0-1.018-.64 3.52 3.52 0 0 0-1.3-.235c-.184 0-.362.075-.705.299-.211.137-.458.297-.734.473a4.24 4.24 0 0 1-.95.418 3.771 3.771 0 0 1-1.161.188 3.76 3.76 0 0 1-1.162-.188 4.193 4.193 0 0 1-.949-.418l-.735-.473c-.343-.224-.52-.3-.704-.3-.468 0-.905.08-1.3.236a3.123 3.123 0 0 0-1.018.64 4.021 4.021 0 0 0-.709.924 5.66 5.66 0 0 0-.47 1.066 8.985 8.985 0 0 0-.28 1.144c-.072.403-.121.786-.145 1.137-.024.344-.036.702-.036 1.063 0 .94.298 1.7.887 2.262.582.553 1.352.834 2.288.834h8.667c.936 0 1.705-.28 2.287-.834.59-.56.888-1.322.888-2.262 0-.362-.012-.72-.036-1.063zm-1.58 2.56c-.383.366-.894.544-1.56.544H4.653c-.666 0-1.176-.178-1.56-.543-.377-.36-.56-.85-.56-1.498 0-.337.01-.67.033-.99a9.377 9.377 0 0 1 .378-2.032c.094-.295.223-.586.382-.867a2.98 2.98 0 0 1 .521-.683c.18-.173.409-.315.677-.421.249-.098.528-.152.831-.16.037.02.103.057.21.126.216.142.466.303.743.48a5.24 5.24 0 0 0 1.192.532c.49.158.99.239 1.486.239s.996-.08 1.486-.239c.48-.155.88-.334 1.193-.533.283-.18.526-.337.742-.479a2.88 2.88 0 0 1 .21-.126c.303.008.582.062.83.16.27.106.497.248.678.421.193.185.368.415.52.683.16.28.29.572.383.867.099.307.182.647.247 1.008.065.367.11.711.131 1.025.023.318.034.651.034.99 0 .648-.183 1.138-.56 1.496z" fill="#000"/><path d="M16.458 13.841a10.73 10.73 0 0 0-.146-1.137 8.954 8.954 0 0 0-.28-1.144 5.651 5.651 0 0 0-.47-1.066 4.024 4.024 0 0 0-.709-.924 3.125 3.125 0 0 0-1.018-.64 3.52 3.52 0 0 0-1.3-.235c-.184 0-.362.075-.705.299-.211.137-.458.297-.734.473a4.24 4.24 0 0 1-.95.418 3.771 3.771 0 0 1-1.161.188 3.76 3.76 0 0 1-1.162-.188 4.193 4.193 0 0 1-.949-.418l-.735-.473c-.343-.224-.52-.3-.704-.3-.468 0-.905.08-1.3.236a3.123 3.123 0 0 0-1.018.64 4.021 4.021 0 0 0-.709.924 5.66 5.66 0 0 0-.47 1.066 8.985 8.985 0 0 0-.28 1.144c-.072.403-.121.786-.145 1.137-.024.344-.036.702-.036 1.063 0 .94.298 1.7.887 2.262.582.553 1.352.834 2.288.834h8.667c.936 0 1.705-.28 2.287-.834.59-.56.888-1.322.888-2.262 0-.362-.012-.72-.036-1.063zm-1.58 2.56c-.383.366-.894.544-1.56.544H4.653c-.666 0-1.176-.178-1.56-.543-.377-.36-.56-.85-.56-1.498 0-.337.01-.67.033-.99a9.377 9.377 0 0 1 .378-2.032c.094-.295.223-.586.382-.867a2.98 2.98 0 0 1 .521-.683c.18-.173.409-.315.677-.421.249-.098.528-.152.831-.16.037.02.103.057.21.126.216.142.466.303.743.48a5.24 5.24 0 0 0 1.192.532c.49.158.99.239 1.486.239s.996-.08 1.486-.239c.48-.155.88-.334 1.193-.533.283-.18.526-.337.742-.479a2.88 2.88 0 0 1 .21-.126c.303.008.582.062.83.16.27.106.497.248.678.421.193.185.368.415.52.683.16.28.29.572.383.867.099.307.182.647.247 1.008.065.367.11.711.131 1.025.023.318.034.651.034.99 0 .648-.183 1.138-.56 1.496z" fill="url(#b)"/><defs><linearGradient id="a" x1="13.207" x2="3.956" y2=".671" gradientUnits="userSpaceOnUse"><stop stop-color="#56DF75"/><stop offset="1" stop-color="#49BCD6"/></linearGradient><linearGradient id="b" x1="16.494" y1="8.695" x2=".605" y2="10.553" gradientUnits="userSpaceOnUse"><stop stop-color="#56DF75"/><stop offset="1" stop-color="#49BCD6"/></linearGradient></defs></svg>