<svg width="26" height="26" viewBox="0 0 26 26" fill="none" xmlns="http://www.w3.org/2000/svg"><g clip-path="url(#a)" fill="#163F59"><path d="M21.49 3.074c-.002-.014-.011-.025-.015-.039a.384.384 0 0 0-.074-.136.376.376 0 0 0-.115-.095.416.416 0 0 0-.065-.032.413.413 0 0 0-.083-.017.422.422 0 0 0-.052-.012H19c-.107-1.44-.775-2.482-1.638-2.482-.863 0-1.531 1.042-1.638 2.482h-.862c-.107-1.44-.775-2.482-1.638-2.482-.862 0-1.53 1.042-1.637 2.482h-.863C10.618 1.303 9.95.261 9.087.261S7.556 1.303 7.449 2.743h-.862C6.48 1.303 5.812.261 4.949.261c-.863 0-1.53 1.042-1.638 2.482H1.225a.414.414 0 0 0-.413.414v21.516c0 .228.185.413.413.413h19.86a.414.414 0 0 0 .415-.413V23.43h3.724a.413.413 0 0 0 .404-.496l-4.137-19.86zm-4.128-1.986c.299 0 .716.634.808 1.655h-1.614c.09-1.02.507-1.655.806-1.655zm-4.138 0c.3 0 .716.634.808 1.655h-1.614c.09-1.02.508-1.655.806-1.655zm-4.137 0c.299 0 .716.634.807 1.655H8.281c.09-1.02.507-1.655.806-1.655zm-4.138 0c.299 0 .716.634.808 1.655H4.143c.09-1.02.507-1.655.806-1.655zM1.64 3.571h1.672c.107 1.44.775 2.482 1.638 2.482a.414.414 0 0 0 0-.827c-.299 0-.716-.634-.808-1.655H7.45c.108 1.44.775 2.482 1.638 2.482a.414.414 0 0 0 0-.827c-.299 0-.716-.634-.808-1.655h3.308c.108 1.44.775 2.482 1.637 2.482a.414.414 0 0 0 0-.827c-.298 0-.715-.634-.807-1.655h3.307c.108 1.44.775 2.482 1.638 2.482a.414.414 0 0 0 0-.827c-.299 0-.716-.634-.808-1.655h4.118v4.137H1.64V3.571zm19.033 20.688H1.64V8.536h19.033v15.723zm.828-1.655V7.17l3.215 15.433H21.5z"/><path d="M9.915 15.157H8.259a.414.414 0 0 0-.413.413v1.655c0 .229.185.414.413.414h1.656a.414.414 0 0 0 .413-.413V15.57a.414.414 0 0 0-.413-.414zM9.5 16.812h-.828v-.828H9.5v.828zm4.552-1.655h-1.655a.414.414 0 0 0-.414.413v1.655c0 .229.186.414.414.414h1.655a.414.414 0 0 0 .414-.413V15.57a.414.414 0 0 0-.414-.414zm-.414 1.655h-.827v-.828h.827v.828zm-7.861-1.655H4.122a.414.414 0 0 0-.414.413v1.655c0 .229.185.414.414.414h1.655a.414.414 0 0 0 .414-.413V15.57a.414.414 0 0 0-.414-.414zm-.414 1.655h-.827v-.828h.827v.828zm4.552 2.482H8.259a.414.414 0 0 0-.413.414v1.655c0 .228.185.413.413.413h1.656a.414.414 0 0 0 .413-.413v-1.655a.414.414 0 0 0-.413-.414zM9.5 20.949h-.828v-.828H9.5v.828zm4.552-1.655h-1.655a.414.414 0 0 0-.414.414v1.655c0 .228.186.413.414.413h1.655a.414.414 0 0 0 .414-.413v-1.655a.414.414 0 0 0-.414-.414zm-.414 1.655h-.827v-.828h.827v.828zm-7.861-1.655H4.122a.414.414 0 0 0-.414.414v1.655c0 .228.185.413.414.413h1.655a.414.414 0 0 0 .414-.413v-1.655a.414.414 0 0 0-.414-.414zm-.414 1.655h-.827v-.828h.827v.828zm4.552-9.93H8.259a.414.414 0 0 0-.413.414v1.655c0 .228.185.414.413.414h1.656a.414.414 0 0 0 .413-.414v-1.655a.414.414 0 0 0-.413-.414zM9.5 12.674h-.828v-.827H9.5v.827zm4.552-1.655h-1.655a.414.414 0 0 0-.414.414v1.655c0 .228.186.414.414.414h1.655a.414.414 0 0 0 .414-.414v-1.655a.414.414 0 0 0-.414-.414zm-.414 1.655h-.827v-.827h.827v.827zm4.552 2.483h-1.655a.414.414 0 0 0-.414.413v1.655c0 .229.185.414.414.414h1.655a.414.414 0 0 0 .414-.413V15.57a.414.414 0 0 0-.414-.414zm-.414 1.655h-.827v-.828h.827v.828zm.414 2.482h-1.655a.414.414 0 0 0-.414.414v1.655c0 .228.185.413.414.413h1.655a.414.414 0 0 0 .414-.413v-1.655a.414.414 0 0 0-.414-.414zm-.414 1.655h-.827v-.828h.827v.828zm.414-9.93h-1.655a.414.414 0 0 0-.414.414v1.655c0 .228.185.414.414.414h1.655a.414.414 0 0 0 .414-.414v-1.655a.414.414 0 0 0-.414-.414zm-.414 1.655h-.827v-.827h.827v.827zM5.777 11.019H4.122a.414.414 0 0 0-.414.414v1.655c0 .228.185.414.414.414h1.655a.414.414 0 0 0 .414-.414v-1.655a.414.414 0 0 0-.414-.414zm-.414 1.655h-.827v-.827h.827v.827z"/></g><defs><clipPath id="a"><path fill="#fff" transform="translate(.812 .26)" d="M0 0h24.826v24.826H0z"/></clipPath></defs></svg>