<svg width="27" height="26" viewBox="0 0 27 26" fill="none" xmlns="http://www.w3.org/2000/svg"><g clip-path="url(#a)" fill="#163F59"><path d="M25.621 7.905c-1.361-3.174-3.674-5.482-6.874-6.847A12.69 12.69 0 0 0 13.72.028c-1.75 0-3.413.345-5.011 1.03C5.536 2.42 3.213 4.726 1.85 7.905a12.563 12.563 0 0 0-1.017 5.01c0 1.752.333 3.434 1.016 5.027 1.364 3.178 3.688 5.499 6.861 6.86 1.598.686 3.26 1.03 5.011 1.03 1.75 0 3.426-.348 5.026-1.03 3.2-1.365 5.513-3.687 6.874-6.86a12.627 12.627 0 0 0 1.03-5.026c0-1.75-.344-3.413-1.03-5.011zm-2.06 10.714a11.326 11.326 0 0 1-4.15 4.136 11.118 11.118 0 0 1-5.69 1.525 10.93 10.93 0 0 1-4.404-.904c-1.398-.607-2.604-1.404-3.614-2.414-1.01-1.009-1.813-2.227-2.413-3.628a11.114 11.114 0 0 1-.89-4.418c0-2.047.503-3.942 1.51-5.675a11.333 11.333 0 0 1 4.137-4.136c1.736-1.016 3.628-1.524 5.674-1.524 2.047 0 3.951.51 5.689 1.524a11.36 11.36 0 0 1 4.15 4.136c1.017 1.736 1.525 3.628 1.525 5.675 0 2.047-.505 3.954-1.525 5.703z"/><path d="M14.539 12.803V5.49c0-.437-.382-.79-.82-.79a.796.796 0 0 0-.776.79v7.425c0 .015.029.071.029.113a.738.738 0 0 0 .211.636l4.221 4.22c.283.283.805.283 1.087 0a.761.761 0 0 0 0-1.1l-3.952-3.981z"/></g><defs><clipPath id="a"><path fill="#fff" transform="translate(.833 .02)" d="M0 0h25.819v25.819H0z"/></clipPath></defs></svg>