<svg width="50" height="50" viewBox="0 0 50 50" fill="none" xmlns="http://www.w3.org/2000/svg"><g clip-path="url(#a)"><path d="M44.17 1.982a6.791 6.791 0 0 0-9.59 0L7.408 29.153c-.013.013-.02.029-.032.043a.731.731 0 0 0-.138.237c-.006.02-.016.037-.021.056l-.01.023L4.545 40.7a.747.747 0 0 0-.017.152c0 .01-.003.019-.003.029a.75.75 0 0 0 .072.303.76.76 0 0 0 .148.223.757.757 0 0 0 .706.2l11.19-2.663c.02-.004.038-.016.058-.022a.704.704 0 0 0 .226-.123c.018-.014.036-.024.054-.04.006-.006.013-.01.02-.015L44.17 11.573a6.79 6.79 0 0 0 0-9.59zm-1.065 1.066c1.875 1.875 2.035 4.82.49 6.884L36.22 2.558c2.065-1.545 5.01-1.385 6.884.49zm-3.73 11.188l-7.459-7.459 1.065-1.065 7.46 7.46-1.066 1.064zM8.262 37.89a.753.753 0 0 0-1.065 0l-.57.57 1.924-8.083 3.332-.37-.429 3.86c-.003.028.008.054.008.082 0 .029-.01.054-.008.083.003.025.016.045.021.07a.751.751 0 0 0 .407.52c.05.023.102.037.156.05.029.006.052.022.081.026a.742.742 0 0 0 .082.005h.004a.755.755 0 0 0 .082-.005l3.859-.429-.37 3.332-8.084 1.924.57-.57a.754.754 0 0 0 0-1.065zm9.456-4.129L34.58 16.9a.753.753 0 1 0-1.066-1.065L16.653 32.696l-3.596.4.4-3.597 16.862-16.86a.753.753 0 1 0-1.066-1.066l-16.862 16.86-2.399.268L30.851 7.843l7.459 7.459L17.452 36.16l.266-2.399zm23.788-21.655l-7.46-7.46 1.067-1.066 7.46 7.46-1.067 1.066z" fill="#163F59"/><path stroke="#163F59" stroke-width="1.5" d="M5 48.25h46"/></g><defs><clipPath id="a"><path fill="#fff" d="M0 0h50v50H0z"/></clipPath></defs></svg>