<svg width="169" height="348" viewBox="0 0 169 348" fill="none" xmlns="http://www.w3.org/2000/svg"><circle cx="166.459" cy="285.547" r="2.483" transform="rotate(-180 166.459 285.547)" fill="#EDEEF0"/><circle cx="151.563" cy="285.547" r="2.483" transform="rotate(-180 151.563 285.547)" fill="#EDEEF0"/><circle cx="166.459" cy="270.652" r="2.483" transform="rotate(-180 166.459 270.652)" fill="#EDEEF0"/><circle cx="151.563" cy="270.652" r="2.483" transform="rotate(-180 151.563 270.652)" fill="#EDEEF0"/><circle cx="166.459" cy="255.757" r="2.483" transform="rotate(-180 166.459 255.757)" fill="#EDEEF0"/><circle cx="151.563" cy="255.757" r="2.483" transform="rotate(-180 151.563 255.757)" fill="#EDEEF0"/><circle cx="166.459" cy="240.861" r="2.483" transform="rotate(-180 166.459 240.861)" fill="#EDEEF0"/><circle cx="151.563" cy="240.861" r="2.483" transform="rotate(-180 151.563 240.861)" fill="#EDEEF0"/><circle cx="136.668" cy="255.757" r="2.483" transform="rotate(-180 136.668 255.757)" fill="#EDEEF0"/><circle cx="121.772" cy="255.757" r="2.483" transform="rotate(-180 121.772 255.757)" fill="#EDEEF0"/><circle cx="136.668" cy="240.861" r="2.483" transform="rotate(-180 136.668 240.861)" fill="#EDEEF0"/><circle cx="121.772" cy="240.861" r="2.483" transform="rotate(-180 121.772 240.861)" fill="#EDEEF0"/><circle cx="136.668" cy="285.547" r="2.483" transform="rotate(-180 136.668 285.547)" fill="#EDEEF0"/><circle cx="121.772" cy="285.547" r="2.483" transform="rotate(-180 121.772 285.547)" fill="#EDEEF0"/><circle cx="136.668" cy="270.652" r="2.483" transform="rotate(-180 136.668 270.652)" fill="#EDEEF0"/><circle cx="121.772" cy="270.652" r="2.483" transform="rotate(-180 121.772 270.652)" fill="#EDEEF0"/><circle cx="106.877" cy="255.757" r="2.483" transform="rotate(-180 106.877 255.757)" fill="#EDEEF0"/><circle cx="91.981" cy="255.757" r="2.483" transform="rotate(-180 91.981 255.757)" fill="#EDEEF0"/><circle cx="106.877" cy="240.861" r="2.483" transform="rotate(-180 106.877 240.861)" fill="#EDEEF0"/><circle cx="91.981" cy="240.861" r="2.483" transform="rotate(-180 91.981 240.861)" fill="#EDEEF0"/><circle cx="106.877" cy="285.547" r="2.483" transform="rotate(-180 106.877 285.547)" fill="#EDEEF0"/><circle cx="91.981" cy="285.547" r="2.483" transform="rotate(-180 91.981 285.547)" fill="#EDEEF0"/><circle cx="106.877" cy="270.652" r="2.483" transform="rotate(-180 106.877 270.652)" fill="#EDEEF0"/><circle cx="91.981" cy="270.652" r="2.483" transform="rotate(-180 91.981 270.652)" fill="#EDEEF0"/><circle cx="166.459" cy="225.966" r="2.483" transform="rotate(-180 166.459 225.966)" fill="#EDEEF0"/><circle cx="151.563" cy="225.966" r="2.483" transform="rotate(-180 151.563 225.966)" fill="#EDEEF0"/><circle cx="166.459" cy="211.07" r="2.483" transform="rotate(-180 166.459 211.07)" fill="#EDEEF0"/><circle cx="151.563" cy="211.07" r="2.483" transform="rotate(-180 151.563 211.07)" fill="#EDEEF0"/><circle cx="166.459" cy="196.175" r="2.483" transform="rotate(-180 166.459 196.175)" fill="#EDEEF0"/><circle cx="151.563" cy="196.175" r="2.483" transform="rotate(-180 151.563 196.175)" fill="#EDEEF0"/><circle cx="166.459" cy="181.28" r="2.483" transform="rotate(-180 166.459 181.28)" fill="#EDEEF0"/><circle cx="151.563" cy="181.28" r="2.483" transform="rotate(-180 151.563 181.28)" fill="#EDEEF0"/><circle cx="136.668" cy="196.175" r="2.483" transform="rotate(-180 136.668 196.175)" fill="#EDEEF0"/><circle cx="121.772" cy="196.175" r="2.483" transform="rotate(-180 121.772 196.175)" fill="#EDEEF0"/><circle cx="136.668" cy="181.28" r="2.483" transform="rotate(-180 136.668 181.28)" fill="#EDEEF0"/><circle cx="121.772" cy="181.28" r="2.483" transform="rotate(-180 121.772 181.28)" fill="#EDEEF0"/><circle cx="136.668" cy="225.966" r="2.483" transform="rotate(-180 136.668 225.966)" fill="#EDEEF0"/><circle cx="121.772" cy="225.966" r="2.483" transform="rotate(-180 121.772 225.966)" fill="#EDEEF0"/><circle cx="136.668" cy="211.07" r="2.483" transform="rotate(-180 136.668 211.07)" fill="#EDEEF0"/><circle cx="121.772" cy="211.07" r="2.483" transform="rotate(-180 121.772 211.07)" fill="#EDEEF0"/><circle cx="106.877" cy="196.175" r="2.483" transform="rotate(-180 106.877 196.175)" fill="#EDEEF0"/><circle cx="91.981" cy="196.175" r="2.483" transform="rotate(-180 91.981 196.175)" fill="#EDEEF0"/><circle cx="106.877" cy="181.28" r="2.483" transform="rotate(-180 106.877 181.28)" fill="#EDEEF0"/><circle cx="91.981" cy="181.28" r="2.483" transform="rotate(-180 91.981 181.28)" fill="#EDEEF0"/><circle cx="106.877" cy="225.966" r="2.483" transform="rotate(-180 106.877 225.966)" fill="#EDEEF0"/><circle cx="91.981" cy="225.966" r="2.483" transform="rotate(-180 91.981 225.966)" fill="#EDEEF0"/><circle cx="106.877" cy="211.07" r="2.483" transform="rotate(-180 106.877 211.07)" fill="#EDEEF0"/><circle cx="91.981" cy="211.07" r="2.483" transform="rotate(-180 91.981 211.07)" fill="#EDEEF0"/><circle cx="166.459" cy="345.129" r="2.483" transform="rotate(-180 166.459 345.129)" fill="#EDEEF0"/><circle cx="151.563" cy="345.129" r="2.483" transform="rotate(-180 151.563 345.129)" fill="#EDEEF0"/><circle cx="166.459" cy="330.234" r="2.483" transform="rotate(-180 166.459 330.234)" fill="#EDEEF0"/><circle cx="151.563" cy="330.234" r="2.483" transform="rotate(-180 151.563 330.234)" fill="#EDEEF0"/><circle cx="166.459" cy="315.338" r="2.483" transform="rotate(-180 166.459 315.338)" fill="#EDEEF0"/><circle cx="151.563" cy="315.338" r="2.483" transform="rotate(-180 151.563 315.338)" fill="#EDEEF0"/><circle cx="166.459" cy="300.443" r="2.483" transform="rotate(-180 166.459 300.443)" fill="#EDEEF0"/><circle cx="151.563" cy="300.443" r="2.483" transform="rotate(-180 151.563 300.443)" fill="#EDEEF0"/><circle cx="136.668" cy="315.338" r="2.483" transform="rotate(-180 136.668 315.338)" fill="#EDEEF0"/><circle cx="121.772" cy="315.338" r="2.483" transform="rotate(-180 121.772 315.338)" fill="#EDEEF0"/><circle cx="136.668" cy="300.443" r="2.483" transform="rotate(-180 136.668 300.443)" fill="#EDEEF0"/><circle cx="121.772" cy="300.443" r="2.483" transform="rotate(-180 121.772 300.443)" fill="#EDEEF0"/><circle cx="136.668" cy="345.129" r="2.483" transform="rotate(-180 136.668 345.129)" fill="#EDEEF0"/><circle cx="121.772" cy="345.129" r="2.483" transform="rotate(-180 121.772 345.129)" fill="#EDEEF0"/><circle cx="136.668" cy="330.234" r="2.483" transform="rotate(-180 136.668 330.234)" fill="#EDEEF0"/><circle cx="121.772" cy="330.234" r="2.483" transform="rotate(-180 121.772 330.234)" fill="#EDEEF0"/><circle cx="106.877" cy="315.338" r="2.483" transform="rotate(-180 106.877 315.338)" fill="#EDEEF0"/><circle cx="91.981" cy="315.338" r="2.483" transform="rotate(-180 91.981 315.338)" fill="#EDEEF0"/><circle cx="106.877" cy="300.443" r="2.483" transform="rotate(-180 106.877 300.443)" fill="#EDEEF0"/><circle cx="91.981" cy="300.443" r="2.483" transform="rotate(-180 91.981 300.443)" fill="#EDEEF0"/><circle cx="106.877" cy="345.129" r="2.483" transform="rotate(-180 106.877 345.129)" fill="#EDEEF0"/><circle cx="91.981" cy="345.129" r="2.483" transform="rotate(-180 91.981 345.129)" fill="#EDEEF0"/><circle cx="106.877" cy="330.234" r="2.483" transform="rotate(-180 106.877 330.234)" fill="#EDEEF0"/><circle cx="91.981" cy="330.234" r="2.483" transform="rotate(-180 91.981 330.234)" fill="#EDEEF0"/><circle cx="77.087" cy="285.547" r="2.483" transform="rotate(-180 77.087 285.547)" fill="#EDEEF0"/><circle cx="62.191" cy="285.547" r="2.483" transform="rotate(-180 62.191 285.547)" fill="#EDEEF0"/><circle cx="77.087" cy="270.652" r="2.483" transform="rotate(-180 77.087 270.652)" fill="#EDEEF0"/><circle cx="62.191" cy="270.652" r="2.483" transform="rotate(-180 62.191 270.652)" fill="#EDEEF0"/><circle cx="77.087" cy="255.757" r="2.483" transform="rotate(-180 77.087 255.757)" fill="#EDEEF0"/><circle cx="62.191" cy="255.757" r="2.483" transform="rotate(-180 62.191 255.757)" fill="#EDEEF0"/><circle cx="77.087" cy="240.861" r="2.483" transform="rotate(-180 77.087 240.861)" fill="#EDEEF0"/><circle cx="62.191" cy="240.861" r="2.483" transform="rotate(-180 62.191 240.861)" fill="#EDEEF0"/><circle cx="47.296" cy="255.757" r="2.483" transform="rotate(-180 47.296 255.757)" fill="#EDEEF0"/><circle cx="32.4" cy="255.757" r="2.483" transform="rotate(-180 32.4 255.757)" fill="#EDEEF0"/><circle cx="47.296" cy="240.861" r="2.483" transform="rotate(-180 47.296 240.861)" fill="#EDEEF0"/><circle cx="32.4" cy="240.861" r="2.483" transform="rotate(-180 32.4 240.861)" fill="#EDEEF0"/><circle cx="47.296" cy="285.547" r="2.483" transform="rotate(-180 47.296 285.547)" fill="#EDEEF0"/><circle cx="32.4" cy="285.547" r="2.483" transform="rotate(-180 32.4 285.547)" fill="#EDEEF0"/><circle cx="47.296" cy="270.652" r="2.483" transform="rotate(-180 47.296 270.652)" fill="#EDEEF0"/><circle cx="32.4" cy="270.652" r="2.483" transform="rotate(-180 32.4 270.652)" fill="#EDEEF0"/><circle cx="17.505" cy="255.757" r="2.483" transform="rotate(-180 17.505 255.757)" fill="#EDEEF0"/><circle cx="2.609" cy="255.757" r="2.483" transform="rotate(-180 2.61 255.757)" fill="#EDEEF0"/><circle cx="17.505" cy="240.861" r="2.483" transform="rotate(-180 17.505 240.861)" fill="#EDEEF0"/><circle cx="2.609" cy="240.861" r="2.483" transform="rotate(-180 2.61 240.861)" fill="#EDEEF0"/><circle cx="17.505" cy="285.547" r="2.483" transform="rotate(-180 17.505 285.547)" fill="#EDEEF0"/><circle cx="2.609" cy="285.547" r="2.483" transform="rotate(-180 2.61 285.547)" fill="#EDEEF0"/><circle cx="17.505" cy="270.652" r="2.483" transform="rotate(-180 17.505 270.652)" fill="#EDEEF0"/><circle cx="2.609" cy="270.652" r="2.483" transform="rotate(-180 2.61 270.652)" fill="#EDEEF0"/><circle cx="77.087" cy="225.966" r="2.483" transform="rotate(-180 77.087 225.966)" fill="#EDEEF0"/><circle cx="62.191" cy="225.966" r="2.483" transform="rotate(-180 62.191 225.966)" fill="#EDEEF0"/><circle cx="77.087" cy="211.07" r="2.483" transform="rotate(-180 77.087 211.07)" fill="#EDEEF0"/><circle cx="62.191" cy="211.07" r="2.483" transform="rotate(-180 62.191 211.07)" fill="#EDEEF0"/><circle cx="77.087" cy="196.175" r="2.483" transform="rotate(-180 77.087 196.175)" fill="#EDEEF0"/><circle cx="62.191" cy="196.175" r="2.483" transform="rotate(-180 62.191 196.175)" fill="#EDEEF0"/><circle cx="77.087" cy="181.28" r="2.483" transform="rotate(-180 77.087 181.28)" fill="#EDEEF0"/><circle cx="62.191" cy="181.28" r="2.483" transform="rotate(-180 62.191 181.28)" fill="#EDEEF0"/><circle cx="47.296" cy="196.175" r="2.483" transform="rotate(-180 47.296 196.175)" fill="#EDEEF0"/><circle cx="32.4" cy="196.175" r="2.483" transform="rotate(-180 32.4 196.175)" fill="#EDEEF0"/><circle cx="47.296" cy="181.28" r="2.483" transform="rotate(-180 47.296 181.28)" fill="#EDEEF0"/><circle cx="32.4" cy="181.28" r="2.483" transform="rotate(-180 32.4 181.28)" fill="#EDEEF0"/><circle cx="47.296" cy="225.966" r="2.483" transform="rotate(-180 47.296 225.966)" fill="#EDEEF0"/><circle cx="32.4" cy="225.966" r="2.483" transform="rotate(-180 32.4 225.966)" fill="#EDEEF0"/><circle cx="47.296" cy="211.07" r="2.483" transform="rotate(-180 47.296 211.07)" fill="#EDEEF0"/><circle cx="32.4" cy="211.07" r="2.483" transform="rotate(-180 32.4 211.07)" fill="#EDEEF0"/><circle cx="17.505" cy="196.175" r="2.483" transform="rotate(-180 17.505 196.175)" fill="#EDEEF0"/><circle cx="2.609" cy="196.175" r="2.483" transform="rotate(-180 2.61 196.175)" fill="#EDEEF0"/><circle cx="17.505" cy="181.28" r="2.483" transform="rotate(-180 17.505 181.28)" fill="#EDEEF0"/><circle cx="2.609" cy="181.28" r="2.483" transform="rotate(-180 2.61 181.28)" fill="#EDEEF0"/><circle cx="17.505" cy="225.966" r="2.483" transform="rotate(-180 17.505 225.966)" fill="#EDEEF0"/><circle cx="2.609" cy="225.966" r="2.483" transform="rotate(-180 2.61 225.966)" fill="#EDEEF0"/><circle cx="17.505" cy="211.07" r="2.483" transform="rotate(-180 17.505 211.07)" fill="#EDEEF0"/><circle cx="2.609" cy="211.07" r="2.483" transform="rotate(-180 2.61 211.07)" fill="#EDEEF0"/><circle cx="77.087" cy="345.129" r="2.483" transform="rotate(-180 77.087 345.129)" fill="#EDEEF0"/><circle cx="62.191" cy="345.129" r="2.483" transform="rotate(-180 62.191 345.129)" fill="#EDEEF0"/><circle cx="77.087" cy="330.234" r="2.483" transform="rotate(-180 77.087 330.234)" fill="#EDEEF0"/><circle cx="62.191" cy="330.234" r="2.483" transform="rotate(-180 62.191 330.234)" fill="#EDEEF0"/><circle cx="77.087" cy="315.338" r="2.483" transform="rotate(-180 77.087 315.338)" fill="#EDEEF0"/><circle cx="62.191" cy="315.338" r="2.483" transform="rotate(-180 62.191 315.338)" fill="#EDEEF0"/><circle cx="77.087" cy="300.443" r="2.483" transform="rotate(-180 77.087 300.443)" fill="#EDEEF0"/><circle cx="62.191" cy="300.443" r="2.483" transform="rotate(-180 62.191 300.443)" fill="#EDEEF0"/><circle cx="47.296" cy="315.338" r="2.483" transform="rotate(-180 47.296 315.338)" fill="#EDEEF0"/><circle cx="32.4" cy="315.338" r="2.483" transform="rotate(-180 32.4 315.338)" fill="#EDEEF0"/><circle cx="47.296" cy="300.443" r="2.483" transform="rotate(-180 47.296 300.443)" fill="#EDEEF0"/><circle cx="32.4" cy="300.443" r="2.483" transform="rotate(-180 32.4 300.443)" fill="#EDEEF0"/><circle cx="47.296" cy="345.129" r="2.483" transform="rotate(-180 47.296 345.129)" fill="#EDEEF0"/><circle cx="32.4" cy="345.129" r="2.483" transform="rotate(-180 32.4 345.129)" fill="#EDEEF0"/><circle cx="47.296" cy="330.234" r="2.483" transform="rotate(-180 47.296 330.234)" fill="#EDEEF0"/><circle cx="32.4" cy="330.234" r="2.483" transform="rotate(-180 32.4 330.234)" fill="#EDEEF0"/><circle cx="17.505" cy="315.338" r="2.483" transform="rotate(-180 17.505 315.338)" fill="#EDEEF0"/><circle cx="2.609" cy="315.338" r="2.483" transform="rotate(-180 2.61 315.338)" fill="#EDEEF0"/><circle cx="17.505" cy="300.443" r="2.483" transform="rotate(-180 17.505 300.443)" fill="#EDEEF0"/><circle cx="2.609" cy="300.443" r="2.483" transform="rotate(-180 2.61 300.443)" fill="#EDEEF0"/><circle cx="17.505" cy="345.129" r="2.483" transform="rotate(-180 17.505 345.129)" fill="#EDEEF0"/><circle cx="2.609" cy="345.129" r="2.483" transform="rotate(-180 2.61 345.129)" fill="#EDEEF0"/><circle cx="17.505" cy="330.234" r="2.483" transform="rotate(-180 17.505 330.234)" fill="#EDEEF0"/><circle cx="2.609" cy="330.234" r="2.483" transform="rotate(-180 2.61 330.234)" fill="#EDEEF0"/><circle cx="166.459" cy="106.803" r="2.483" transform="rotate(-180 166.459 106.803)" fill="#EDEEF0"/><circle cx="151.563" cy="106.803" r="2.483" transform="rotate(-180 151.563 106.803)" fill="#EDEEF0"/><circle cx="166.459" cy="91.907" r="2.483" transform="rotate(-180 166.459 91.907)" fill="#EDEEF0"/><circle cx="151.563" cy="91.907" r="2.483" transform="rotate(-180 151.563 91.907)" fill="#EDEEF0"/><circle cx="166.459" cy="77.012" r="2.483" transform="rotate(-180 166.459 77.012)" fill="#EDEEF0"/><circle cx="151.563" cy="77.012" r="2.483" transform="rotate(-180 151.563 77.012)" fill="#EDEEF0"/><circle cx="166.459" cy="62.116" r="2.483" transform="rotate(-180 166.459 62.116)" fill="#EDEEF0"/><circle cx="151.563" cy="62.116" r="2.483" transform="rotate(-180 151.563 62.116)" fill="#EDEEF0"/><circle cx="136.668" cy="77.012" r="2.483" transform="rotate(-180 136.668 77.012)" fill="#EDEEF0"/><circle cx="121.772" cy="77.012" r="2.483" transform="rotate(-180 121.772 77.012)" fill="#EDEEF0"/><circle cx="136.668" cy="62.116" r="2.483" transform="rotate(-180 136.668 62.116)" fill="#EDEEF0"/><circle cx="121.772" cy="62.116" r="2.483" transform="rotate(-180 121.772 62.116)" fill="#EDEEF0"/><circle cx="136.668" cy="106.803" r="2.483" transform="rotate(-180 136.668 106.803)" fill="#EDEEF0"/><circle cx="121.772" cy="106.803" r="2.483" transform="rotate(-180 121.772 106.803)" fill="#EDEEF0"/><circle cx="136.668" cy="91.907" r="2.483" transform="rotate(-180 136.668 91.907)" fill="#EDEEF0"/><circle cx="121.772" cy="91.907" r="2.483" transform="rotate(-180 121.772 91.907)" fill="#EDEEF0"/><circle cx="106.877" cy="77.012" r="2.483" transform="rotate(-180 106.877 77.012)" fill="#EDEEF0"/><circle cx="91.981" cy="77.012" r="2.483" transform="rotate(-180 91.981 77.012)" fill="#EDEEF0"/><circle cx="106.877" cy="62.116" r="2.483" transform="rotate(-180 106.877 62.116)" fill="#EDEEF0"/><circle cx="91.981" cy="62.116" r="2.483" transform="rotate(-180 91.981 62.116)" fill="#EDEEF0"/><circle cx="106.877" cy="106.803" r="2.483" transform="rotate(-180 106.877 106.803)" fill="#EDEEF0"/><circle cx="91.981" cy="106.803" r="2.483" transform="rotate(-180 91.981 106.803)" fill="#EDEEF0"/><circle cx="106.877" cy="91.907" r="2.483" transform="rotate(-180 106.877 91.907)" fill="#EDEEF0"/><circle cx="91.981" cy="91.907" r="2.483" transform="rotate(-180 91.981 91.907)" fill="#EDEEF0"/><circle cx="166.459" cy="47.221" r="2.483" transform="rotate(-180 166.459 47.22)" fill="#EDEEF0"/><circle cx="151.563" cy="47.221" r="2.483" transform="rotate(-180 151.563 47.22)" fill="#EDEEF0"/><circle cx="166.459" cy="32.325" r="2.483" transform="rotate(-180 166.459 32.325)" fill="#EDEEF0"/><circle cx="151.563" cy="32.325" r="2.483" transform="rotate(-180 151.563 32.325)" fill="#EDEEF0"/><circle cx="166.459" cy="17.43" r="2.483" transform="rotate(-180 166.459 17.43)" fill="#EDEEF0"/><circle cx="151.563" cy="17.43" r="2.483" transform="rotate(-180 151.563 17.43)" fill="#EDEEF0"/><circle cx="166.459" cy="2.535" r="2.483" transform="rotate(-180 166.459 2.535)" fill="#EDEEF0"/><circle cx="151.563" cy="2.535" r="2.483" transform="rotate(-180 151.563 2.535)" fill="#EDEEF0"/><circle cx="136.668" cy="17.43" r="2.483" transform="rotate(-180 136.668 17.43)" fill="#EDEEF0"/><circle cx="121.772" cy="17.43" r="2.483" transform="rotate(-180 121.772 17.43)" fill="#EDEEF0"/><circle cx="136.668" cy="2.535" r="2.483" transform="rotate(-180 136.668 2.535)" fill="#EDEEF0"/><circle cx="121.772" cy="2.535" r="2.483" transform="rotate(-180 121.772 2.535)" fill="#EDEEF0"/><circle cx="136.668" cy="47.221" r="2.483" transform="rotate(-180 136.668 47.22)" fill="#EDEEF0"/><circle cx="121.772" cy="47.221" r="2.483" transform="rotate(-180 121.772 47.22)" fill="#EDEEF0"/><circle cx="136.668" cy="32.325" r="2.483" transform="rotate(-180 136.668 32.325)" fill="#EDEEF0"/><circle cx="121.772" cy="32.325" r="2.483" transform="rotate(-180 121.772 32.325)" fill="#EDEEF0"/><circle cx="106.877" cy="17.43" r="2.483" transform="rotate(-180 106.877 17.43)" fill="#EDEEF0"/><circle cx="91.981" cy="17.43" r="2.483" transform="rotate(-180 91.981 17.43)" fill="#EDEEF0"/><circle cx="106.877" cy="2.535" r="2.483" transform="rotate(-180 106.877 2.535)" fill="#EDEEF0"/><circle cx="91.981" cy="2.535" r="2.483" transform="rotate(-180 91.981 2.535)" fill="#EDEEF0"/><circle cx="106.877" cy="47.221" r="2.483" transform="rotate(-180 106.877 47.22)" fill="#EDEEF0"/><circle cx="91.981" cy="47.221" r="2.483" transform="rotate(-180 91.981 47.22)" fill="#EDEEF0"/><circle cx="106.877" cy="32.325" r="2.483" transform="rotate(-180 106.877 32.325)" fill="#EDEEF0"/><circle cx="91.981" cy="32.325" r="2.483" transform="rotate(-180 91.981 32.325)" fill="#EDEEF0"/><circle cx="166.459" cy="166.384" r="2.483" transform="rotate(-180 166.459 166.384)" fill="#EDEEF0"/><circle cx="151.563" cy="166.384" r="2.483" transform="rotate(-180 151.563 166.384)" fill="#EDEEF0"/><circle cx="166.459" cy="151.489" r="2.483" transform="rotate(-180 166.459 151.489)" fill="#EDEEF0"/><circle cx="151.563" cy="151.489" r="2.483" transform="rotate(-180 151.563 151.489)" fill="#EDEEF0"/><circle cx="166.459" cy="136.593" r="2.483" transform="rotate(-180 166.459 136.593)" fill="#EDEEF0"/><circle cx="151.563" cy="136.593" r="2.483" transform="rotate(-180 151.563 136.593)" fill="#EDEEF0"/><circle cx="166.459" cy="121.698" r="2.483" transform="rotate(-180 166.459 121.698)" fill="#EDEEF0"/><circle cx="151.563" cy="121.698" r="2.483" transform="rotate(-180 151.563 121.698)" fill="#EDEEF0"/><circle cx="136.668" cy="136.593" r="2.483" transform="rotate(-180 136.668 136.593)" fill="#EDEEF0"/><circle cx="121.772" cy="136.593" r="2.483" transform="rotate(-180 121.772 136.593)" fill="#EDEEF0"/><circle cx="136.668" cy="121.698" r="2.483" transform="rotate(-180 136.668 121.698)" fill="#EDEEF0"/><circle cx="121.772" cy="121.698" r="2.483" transform="rotate(-180 121.772 121.698)" fill="#EDEEF0"/><circle cx="136.668" cy="166.384" r="2.483" transform="rotate(-180 136.668 166.384)" fill="#EDEEF0"/><circle cx="121.772" cy="166.384" r="2.483" transform="rotate(-180 121.772 166.384)" fill="#EDEEF0"/><circle cx="136.668" cy="151.489" r="2.483" transform="rotate(-180 136.668 151.489)" fill="#EDEEF0"/><circle cx="121.772" cy="151.489" r="2.483" transform="rotate(-180 121.772 151.489)" fill="#EDEEF0"/><circle cx="106.877" cy="136.593" r="2.483" transform="rotate(-180 106.877 136.593)" fill="#EDEEF0"/><circle cx="91.981" cy="136.593" r="2.483" transform="rotate(-180 91.981 136.593)" fill="#EDEEF0"/><circle cx="106.877" cy="121.698" r="2.483" transform="rotate(-180 106.877 121.698)" fill="#EDEEF0"/><circle cx="91.981" cy="121.698" r="2.483" transform="rotate(-180 91.981 121.698)" fill="#EDEEF0"/><circle cx="106.877" cy="166.384" r="2.483" transform="rotate(-180 106.877 166.384)" fill="#EDEEF0"/><circle cx="91.981" cy="166.384" r="2.483" transform="rotate(-180 91.981 166.384)" fill="#EDEEF0"/><circle cx="106.877" cy="151.489" r="2.483" transform="rotate(-180 106.877 151.489)" fill="#EDEEF0"/><circle cx="91.981" cy="151.489" r="2.483" transform="rotate(-180 91.981 151.489)" fill="#EDEEF0"/><circle cx="77.087" cy="106.803" r="2.483" transform="rotate(-180 77.087 106.803)" fill="#EDEEF0"/><circle cx="62.191" cy="106.803" r="2.483" transform="rotate(-180 62.191 106.803)" fill="#EDEEF0"/><circle cx="77.087" cy="91.907" r="2.483" transform="rotate(-180 77.087 91.907)" fill="#EDEEF0"/><circle cx="62.191" cy="91.907" r="2.483" transform="rotate(-180 62.191 91.907)" fill="#EDEEF0"/><circle cx="77.087" cy="77.012" r="2.483" transform="rotate(-180 77.087 77.012)" fill="#EDEEF0"/><circle cx="62.191" cy="77.012" r="2.483" transform="rotate(-180 62.191 77.012)" fill="#EDEEF0"/><circle cx="77.087" cy="62.116" r="2.483" transform="rotate(-180 77.087 62.116)" fill="#EDEEF0"/><circle cx="62.191" cy="62.116" r="2.483" transform="rotate(-180 62.191 62.116)" fill="#EDEEF0"/><circle cx="47.296" cy="77.012" r="2.483" transform="rotate(-180 47.296 77.012)" fill="#EDEEF0"/><circle cx="32.4" cy="77.012" r="2.483" transform="rotate(-180 32.4 77.012)" fill="#EDEEF0"/><circle cx="47.296" cy="62.116" r="2.483" transform="rotate(-180 47.296 62.116)" fill="#EDEEF0"/><circle cx="32.4" cy="62.116" r="2.483" transform="rotate(-180 32.4 62.116)" fill="#EDEEF0"/><circle cx="47.296" cy="106.803" r="2.483" transform="rotate(-180 47.296 106.803)" fill="#EDEEF0"/><circle cx="32.4" cy="106.803" r="2.483" transform="rotate(-180 32.4 106.803)" fill="#EDEEF0"/><circle cx="47.296" cy="91.907" r="2.483" transform="rotate(-180 47.296 91.907)" fill="#EDEEF0"/><circle cx="32.4" cy="91.907" r="2.483" transform="rotate(-180 32.4 91.907)" fill="#EDEEF0"/><circle cx="17.505" cy="77.012" r="2.483" transform="rotate(-180 17.505 77.012)" fill="#EDEEF0"/><circle cx="2.609" cy="77.012" r="2.483" transform="rotate(-180 2.61 77.012)" fill="#EDEEF0"/><circle cx="17.505" cy="62.116" r="2.483" transform="rotate(-180 17.505 62.116)" fill="#EDEEF0"/><circle cx="2.609" cy="62.116" r="2.483" transform="rotate(-180 2.61 62.116)" fill="#EDEEF0"/><circle cx="17.505" cy="106.803" r="2.483" transform="rotate(-180 17.505 106.803)" fill="#EDEEF0"/><circle cx="2.609" cy="106.803" r="2.483" transform="rotate(-180 2.61 106.803)" fill="#EDEEF0"/><circle cx="17.505" cy="91.907" r="2.483" transform="rotate(-180 17.505 91.907)" fill="#EDEEF0"/><circle cx="2.609" cy="91.907" r="2.483" transform="rotate(-180 2.61 91.907)" fill="#EDEEF0"/><circle cx="77.087" cy="47.221" r="2.483" transform="rotate(-180 77.087 47.22)" fill="#EDEEF0"/><circle cx="62.191" cy="47.221" r="2.483" transform="rotate(-180 62.191 47.22)" fill="#EDEEF0"/><circle cx="77.087" cy="32.325" r="2.483" transform="rotate(-180 77.087 32.325)" fill="#EDEEF0"/><circle cx="62.191" cy="32.325" r="2.483" transform="rotate(-180 62.191 32.325)" fill="#EDEEF0"/><circle cx="77.087" cy="17.43" r="2.483" transform="rotate(-180 77.087 17.43)" fill="#EDEEF0"/><circle cx="62.191" cy="17.43" r="2.483" transform="rotate(-180 62.191 17.43)" fill="#EDEEF0"/><circle cx="77.087" cy="2.535" r="2.483" transform="rotate(-180 77.087 2.535)" fill="#EDEEF0"/><circle cx="62.191" cy="2.535" r="2.483" transform="rotate(-180 62.191 2.535)" fill="#EDEEF0"/><circle cx="47.296" cy="17.43" r="2.483" transform="rotate(-180 47.296 17.43)" fill="#EDEEF0"/><circle cx="32.4" cy="17.43" r="2.483" transform="rotate(-180 32.4 17.43)" fill="#EDEEF0"/><circle cx="47.296" cy="2.535" r="2.483" transform="rotate(-180 47.296 2.535)" fill="#EDEEF0"/><circle cx="32.4" cy="2.535" r="2.483" transform="rotate(-180 32.4 2.535)" fill="#EDEEF0"/><circle cx="47.296" cy="47.221" r="2.483" transform="rotate(-180 47.296 47.22)" fill="#EDEEF0"/><circle cx="32.4" cy="47.221" r="2.483" transform="rotate(-180 32.4 47.22)" fill="#EDEEF0"/><circle cx="47.296" cy="32.325" r="2.483" transform="rotate(-180 47.296 32.325)" fill="#EDEEF0"/><circle cx="32.4" cy="32.325" r="2.483" transform="rotate(-180 32.4 32.325)" fill="#EDEEF0"/><circle cx="17.505" cy="17.43" r="2.483" transform="rotate(-180 17.505 17.43)" fill="#EDEEF0"/><circle cx="2.609" cy="17.43" r="2.483" transform="rotate(-180 2.61 17.43)" fill="#EDEEF0"/><circle cx="17.505" cy="2.535" r="2.483" transform="rotate(-180 17.505 2.535)" fill="#EDEEF0"/><circle cx="2.609" cy="2.535" r="2.483" transform="rotate(-180 2.61 2.535)" fill="#EDEEF0"/><circle cx="17.505" cy="47.221" r="2.483" transform="rotate(-180 17.505 47.22)" fill="#EDEEF0"/><circle cx="2.609" cy="47.221" r="2.483" transform="rotate(-180 2.61 47.22)" fill="#EDEEF0"/><circle cx="17.505" cy="32.325" r="2.483" transform="rotate(-180 17.505 32.325)" fill="#EDEEF0"/><circle cx="2.609" cy="32.325" r="2.483" transform="rotate(-180 2.61 32.325)" fill="#EDEEF0"/><circle cx="77.087" cy="166.384" r="2.483" transform="rotate(-180 77.087 166.384)" fill="#EDEEF0"/><circle cx="62.191" cy="166.384" r="2.483" transform="rotate(-180 62.191 166.384)" fill="#EDEEF0"/><circle cx="77.087" cy="151.489" r="2.483" transform="rotate(-180 77.087 151.489)" fill="#EDEEF0"/><circle cx="62.191" cy="151.489" r="2.483" transform="rotate(-180 62.191 151.489)" fill="#EDEEF0"/><circle cx="77.087" cy="136.593" r="2.483" transform="rotate(-180 77.087 136.593)" fill="#EDEEF0"/><circle cx="62.191" cy="136.593" r="2.483" transform="rotate(-180 62.191 136.593)" fill="#EDEEF0"/><circle cx="77.087" cy="121.698" r="2.483" transform="rotate(-180 77.087 121.698)" fill="#EDEEF0"/><circle cx="62.191" cy="121.698" r="2.483" transform="rotate(-180 62.191 121.698)" fill="#EDEEF0"/><circle cx="47.296" cy="136.593" r="2.483" transform="rotate(-180 47.296 136.593)" fill="#EDEEF0"/><circle cx="32.4" cy="136.593" r="2.483" transform="rotate(-180 32.4 136.593)" fill="#EDEEF0"/><circle cx="47.296" cy="121.698" r="2.483" transform="rotate(-180 47.296 121.698)" fill="#EDEEF0"/><circle cx="32.4" cy="121.698" r="2.483" transform="rotate(-180 32.4 121.698)" fill="#EDEEF0"/><circle cx="47.296" cy="166.384" r="2.483" transform="rotate(-180 47.296 166.384)" fill="#EDEEF0"/><circle cx="32.4" cy="166.384" r="2.483" transform="rotate(-180 32.4 166.384)" fill="#EDEEF0"/><circle cx="47.296" cy="151.489" r="2.483" transform="rotate(-180 47.296 151.489)" fill="#EDEEF0"/><circle cx="32.4" cy="151.489" r="2.483" transform="rotate(-180 32.4 151.489)" fill="#EDEEF0"/><circle cx="17.505" cy="136.593" r="2.483" transform="rotate(-180 17.505 136.593)" fill="#EDEEF0"/><circle cx="2.609" cy="136.593" r="2.483" transform="rotate(-180 2.61 136.593)" fill="#EDEEF0"/><circle cx="17.505" cy="121.698" r="2.483" transform="rotate(-180 17.505 121.698)" fill="#EDEEF0"/><circle cx="2.609" cy="121.698" r="2.483" transform="rotate(-180 2.61 121.698)" fill="#EDEEF0"/><circle cx="17.505" cy="166.384" r="2.483" transform="rotate(-180 17.505 166.384)" fill="#EDEEF0"/><circle cx="2.609" cy="166.384" r="2.483" transform="rotate(-180 2.61 166.384)" fill="#EDEEF0"/><circle cx="17.505" cy="151.489" r="2.483" transform="rotate(-180 17.505 151.489)" fill="#EDEEF0"/><circle cx="2.609" cy="151.489" r="2.483" transform="rotate(-180 2.61 151.489)" fill="#EDEEF0"/></svg>