<svg width="348" height="170" viewBox="0 0 348 170" fill="none" xmlns="http://www.w3.org/2000/svg"><circle cx="285.773" cy="2.691" r="2.483" transform="rotate(90 285.773 2.691)" fill="#EDEEF0"/><circle cx="285.773" cy="17.587" r="2.483" transform="rotate(90 285.773 17.587)" fill="#EDEEF0"/><circle cx="270.878" cy="2.691" r="2.483" transform="rotate(90 270.878 2.691)" fill="#EDEEF0"/><circle cx="270.878" cy="17.587" r="2.483" transform="rotate(90 270.878 17.587)" fill="#EDEEF0"/><circle cx="255.982" cy="2.691" r="2.483" transform="rotate(90 255.982 2.691)" fill="#EDEEF0"/><circle cx="255.982" cy="17.587" r="2.483" transform="rotate(90 255.982 17.587)" fill="#EDEEF0"/><circle cx="241.087" cy="2.691" r="2.483" transform="rotate(90 241.087 2.691)" fill="#EDEEF0"/><circle cx="241.087" cy="17.587" r="2.483" transform="rotate(90 241.087 17.587)" fill="#EDEEF0"/><circle cx="255.982" cy="32.482" r="2.483" transform="rotate(90 255.982 32.482)" fill="#EDEEF0"/><circle cx="255.982" cy="47.377" r="2.483" transform="rotate(90 255.982 47.377)" fill="#EDEEF0"/><circle cx="241.087" cy="32.482" r="2.483" transform="rotate(90 241.087 32.482)" fill="#EDEEF0"/><circle cx="241.087" cy="47.377" r="2.483" transform="rotate(90 241.087 47.377)" fill="#EDEEF0"/><circle cx="285.773" cy="32.482" r="2.483" transform="rotate(90 285.773 32.482)" fill="#EDEEF0"/><circle cx="285.773" cy="47.377" r="2.483" transform="rotate(90 285.773 47.377)" fill="#EDEEF0"/><circle cx="270.878" cy="32.482" r="2.483" transform="rotate(90 270.878 32.482)" fill="#EDEEF0"/><circle cx="270.878" cy="47.377" r="2.483" transform="rotate(90 270.878 47.377)" fill="#EDEEF0"/><circle cx="255.982" cy="62.273" r="2.483" transform="rotate(90 255.982 62.273)" fill="#EDEEF0"/><circle cx="255.982" cy="77.168" r="2.483" transform="rotate(90 255.982 77.168)" fill="#EDEEF0"/><circle cx="241.087" cy="62.273" r="2.483" transform="rotate(90 241.087 62.273)" fill="#EDEEF0"/><circle cx="241.087" cy="77.168" r="2.483" transform="rotate(90 241.087 77.168)" fill="#EDEEF0"/><circle cx="285.773" cy="62.273" r="2.483" transform="rotate(90 285.773 62.273)" fill="#EDEEF0"/><circle cx="285.773" cy="77.168" r="2.483" transform="rotate(90 285.773 77.168)" fill="#EDEEF0"/><circle cx="270.878" cy="62.273" r="2.483" transform="rotate(90 270.878 62.273)" fill="#EDEEF0"/><circle cx="270.878" cy="77.168" r="2.483" transform="rotate(90 270.878 77.168)" fill="#EDEEF0"/><circle cx="226.191" cy="2.691" r="2.483" transform="rotate(90 226.191 2.691)" fill="#EDEEF0"/><circle cx="226.191" cy="17.587" r="2.483" transform="rotate(90 226.191 17.587)" fill="#EDEEF0"/><circle cx="211.296" cy="2.691" r="2.483" transform="rotate(90 211.296 2.691)" fill="#EDEEF0"/><circle cx="211.296" cy="17.587" r="2.483" transform="rotate(90 211.296 17.587)" fill="#EDEEF0"/><circle cx="196.4" cy="2.691" r="2.483" transform="rotate(90 196.4 2.691)" fill="#EDEEF0"/><circle cx="196.4" cy="17.587" r="2.483" transform="rotate(90 196.4 17.587)" fill="#EDEEF0"/><circle cx="181.506" cy="2.691" r="2.483" transform="rotate(90 181.506 2.691)" fill="#EDEEF0"/><circle cx="181.505" cy="17.587" r="2.483" transform="rotate(90 181.505 17.587)" fill="#EDEEF0"/><circle cx="196.4" cy="32.482" r="2.483" transform="rotate(90 196.4 32.482)" fill="#EDEEF0"/><circle cx="196.4" cy="47.377" r="2.483" transform="rotate(90 196.4 47.377)" fill="#EDEEF0"/><circle cx="181.505" cy="32.482" r="2.483" transform="rotate(90 181.505 32.482)" fill="#EDEEF0"/><circle cx="181.505" cy="47.377" r="2.483" transform="rotate(90 181.505 47.377)" fill="#EDEEF0"/><circle cx="226.191" cy="32.482" r="2.483" transform="rotate(90 226.191 32.482)" fill="#EDEEF0"/><circle cx="226.191" cy="47.377" r="2.483" transform="rotate(90 226.191 47.377)" fill="#EDEEF0"/><circle cx="211.296" cy="32.482" r="2.483" transform="rotate(90 211.296 32.482)" fill="#EDEEF0"/><circle cx="211.296" cy="47.377" r="2.483" transform="rotate(90 211.296 47.377)" fill="#EDEEF0"/><circle cx="196.4" cy="62.273" r="2.483" transform="rotate(90 196.4 62.273)" fill="#EDEEF0"/><circle cx="196.4" cy="77.168" r="2.483" transform="rotate(90 196.4 77.168)" fill="#EDEEF0"/><circle cx="181.505" cy="62.273" r="2.483" transform="rotate(90 181.505 62.273)" fill="#EDEEF0"/><circle cx="181.505" cy="77.168" r="2.483" transform="rotate(90 181.505 77.168)" fill="#EDEEF0"/><circle cx="226.191" cy="62.273" r="2.483" transform="rotate(90 226.191 62.273)" fill="#EDEEF0"/><circle cx="226.191" cy="77.168" r="2.483" transform="rotate(90 226.191 77.168)" fill="#EDEEF0"/><circle cx="211.296" cy="62.273" r="2.483" transform="rotate(90 211.296 62.273)" fill="#EDEEF0"/><circle cx="211.296" cy="77.168" r="2.483" transform="rotate(90 211.296 77.168)" fill="#EDEEF0"/><circle cx="345.355" cy="2.691" r="2.483" transform="rotate(90 345.355 2.691)" fill="#EDEEF0"/><circle cx="345.355" cy="17.587" r="2.483" transform="rotate(90 345.355 17.587)" fill="#EDEEF0"/><circle cx="330.46" cy="2.691" r="2.483" transform="rotate(90 330.46 2.691)" fill="#EDEEF0"/><circle cx="330.46" cy="17.587" r="2.483" transform="rotate(90 330.46 17.587)" fill="#EDEEF0"/><circle cx="315.564" cy="2.691" r="2.483" transform="rotate(90 315.564 2.691)" fill="#EDEEF0"/><circle cx="315.564" cy="17.587" r="2.483" transform="rotate(90 315.564 17.587)" fill="#EDEEF0"/><circle cx="300.669" cy="2.691" r="2.483" transform="rotate(90 300.669 2.691)" fill="#EDEEF0"/><circle cx="300.669" cy="17.587" r="2.483" transform="rotate(90 300.669 17.587)" fill="#EDEEF0"/><circle cx="315.564" cy="32.482" r="2.483" transform="rotate(90 315.564 32.482)" fill="#EDEEF0"/><circle cx="315.564" cy="47.377" r="2.483" transform="rotate(90 315.564 47.377)" fill="#EDEEF0"/><circle cx="300.669" cy="32.482" r="2.483" transform="rotate(90 300.669 32.482)" fill="#EDEEF0"/><circle cx="300.669" cy="47.377" r="2.483" transform="rotate(90 300.669 47.377)" fill="#EDEEF0"/><circle cx="345.355" cy="32.482" r="2.483" transform="rotate(90 345.355 32.482)" fill="#EDEEF0"/><circle cx="345.355" cy="47.377" r="2.483" transform="rotate(90 345.355 47.377)" fill="#EDEEF0"/><circle cx="330.46" cy="32.482" r="2.483" transform="rotate(90 330.46 32.482)" fill="#EDEEF0"/><circle cx="330.46" cy="47.377" r="2.483" transform="rotate(90 330.46 47.377)" fill="#EDEEF0"/><circle cx="315.564" cy="62.273" r="2.483" transform="rotate(90 315.564 62.273)" fill="#EDEEF0"/><circle cx="315.564" cy="77.168" r="2.483" transform="rotate(90 315.564 77.168)" fill="#EDEEF0"/><circle cx="300.669" cy="62.273" r="2.483" transform="rotate(90 300.669 62.273)" fill="#EDEEF0"/><circle cx="300.669" cy="77.168" r="2.483" transform="rotate(90 300.669 77.168)" fill="#EDEEF0"/><circle cx="345.355" cy="62.273" r="2.483" transform="rotate(90 345.355 62.273)" fill="#EDEEF0"/><circle cx="345.355" cy="77.168" r="2.483" transform="rotate(90 345.355 77.168)" fill="#EDEEF0"/><circle cx="330.46" cy="62.273" r="2.483" transform="rotate(90 330.46 62.273)" fill="#EDEEF0"/><circle cx="330.46" cy="77.168" r="2.483" transform="rotate(90 330.46 77.168)" fill="#EDEEF0"/><circle cx="285.773" cy="92.064" r="2.483" transform="rotate(90 285.773 92.064)" fill="#EDEEF0"/><circle cx="285.773" cy="106.959" r="2.483" transform="rotate(90 285.773 106.959)" fill="#EDEEF0"/><circle cx="270.878" cy="92.064" r="2.483" transform="rotate(90 270.878 92.064)" fill="#EDEEF0"/><circle cx="270.878" cy="106.959" r="2.483" transform="rotate(90 270.878 106.959)" fill="#EDEEF0"/><circle cx="255.982" cy="92.064" r="2.483" transform="rotate(90 255.982 92.064)" fill="#EDEEF0"/><circle cx="255.982" cy="106.959" r="2.483" transform="rotate(90 255.982 106.959)" fill="#EDEEF0"/><circle cx="241.087" cy="92.064" r="2.483" transform="rotate(90 241.087 92.064)" fill="#EDEEF0"/><circle cx="241.087" cy="106.959" r="2.483" transform="rotate(90 241.087 106.959)" fill="#EDEEF0"/><circle cx="255.982" cy="121.854" r="2.483" transform="rotate(90 255.982 121.854)" fill="#EDEEF0"/><circle cx="255.982" cy="136.75" r="2.483" transform="rotate(90 255.982 136.75)" fill="#EDEEF0"/><circle cx="241.087" cy="121.854" r="2.483" transform="rotate(90 241.087 121.854)" fill="#EDEEF0"/><circle cx="241.087" cy="136.75" r="2.483" transform="rotate(90 241.087 136.75)" fill="#EDEEF0"/><circle cx="285.773" cy="121.854" r="2.483" transform="rotate(90 285.773 121.854)" fill="#EDEEF0"/><circle cx="285.773" cy="136.75" r="2.483" transform="rotate(90 285.773 136.75)" fill="#EDEEF0"/><circle cx="270.878" cy="121.854" r="2.483" transform="rotate(90 270.878 121.854)" fill="#EDEEF0"/><circle cx="270.878" cy="136.75" r="2.483" transform="rotate(90 270.878 136.75)" fill="#EDEEF0"/><circle cx="255.982" cy="151.645" r="2.483" transform="rotate(90 255.982 151.645)" fill="#EDEEF0"/><circle cx="255.982" cy="166.541" r="2.483" transform="rotate(90 255.982 166.541)" fill="#EDEEF0"/><circle cx="241.087" cy="151.645" r="2.483" transform="rotate(90 241.087 151.645)" fill="#EDEEF0"/><circle cx="241.087" cy="166.541" r="2.483" transform="rotate(90 241.087 166.541)" fill="#EDEEF0"/><circle cx="285.773" cy="151.645" r="2.483" transform="rotate(90 285.773 151.645)" fill="#EDEEF0"/><circle cx="285.773" cy="166.541" r="2.483" transform="rotate(90 285.773 166.541)" fill="#EDEEF0"/><circle cx="270.878" cy="151.645" r="2.483" transform="rotate(90 270.878 151.645)" fill="#EDEEF0"/><circle cx="270.878" cy="166.541" r="2.483" transform="rotate(90 270.878 166.541)" fill="#EDEEF0"/><circle cx="226.191" cy="92.064" r="2.483" transform="rotate(90 226.191 92.064)" fill="#EDEEF0"/><circle cx="226.191" cy="106.959" r="2.483" transform="rotate(90 226.191 106.959)" fill="#EDEEF0"/><circle cx="211.296" cy="92.064" r="2.483" transform="rotate(90 211.296 92.064)" fill="#EDEEF0"/><circle cx="211.296" cy="106.959" r="2.483" transform="rotate(90 211.296 106.959)" fill="#EDEEF0"/><circle cx="196.4" cy="92.064" r="2.483" transform="rotate(90 196.4 92.064)" fill="#EDEEF0"/><circle cx="196.4" cy="106.959" r="2.483" transform="rotate(90 196.4 106.959)" fill="#EDEEF0"/><circle cx="181.505" cy="92.064" r="2.483" transform="rotate(90 181.505 92.064)" fill="#EDEEF0"/><circle cx="181.505" cy="106.959" r="2.483" transform="rotate(90 181.505 106.959)" fill="#EDEEF0"/><circle cx="196.4" cy="121.854" r="2.483" transform="rotate(90 196.4 121.854)" fill="#EDEEF0"/><circle cx="196.4" cy="136.75" r="2.483" transform="rotate(90 196.4 136.75)" fill="#EDEEF0"/><circle cx="181.505" cy="121.854" r="2.483" transform="rotate(90 181.505 121.854)" fill="#EDEEF0"/><circle cx="181.505" cy="136.75" r="2.483" transform="rotate(90 181.505 136.75)" fill="#EDEEF0"/><circle cx="226.191" cy="121.854" r="2.483" transform="rotate(90 226.191 121.854)" fill="#EDEEF0"/><circle cx="226.191" cy="136.75" r="2.483" transform="rotate(90 226.191 136.75)" fill="#EDEEF0"/><circle cx="211.296" cy="121.854" r="2.483" transform="rotate(90 211.296 121.854)" fill="#EDEEF0"/><circle cx="211.296" cy="136.75" r="2.483" transform="rotate(90 211.296 136.75)" fill="#EDEEF0"/><circle cx="196.4" cy="151.645" r="2.483" transform="rotate(90 196.4 151.645)" fill="#EDEEF0"/><circle cx="196.4" cy="166.541" r="2.483" transform="rotate(90 196.4 166.541)" fill="#EDEEF0"/><circle cx="181.505" cy="151.645" r="2.483" transform="rotate(90 181.505 151.645)" fill="#EDEEF0"/><circle cx="181.505" cy="166.541" r="2.483" transform="rotate(90 181.505 166.541)" fill="#EDEEF0"/><circle cx="226.191" cy="151.645" r="2.483" transform="rotate(90 226.191 151.645)" fill="#EDEEF0"/><circle cx="226.191" cy="166.541" r="2.483" transform="rotate(90 226.191 166.541)" fill="#EDEEF0"/><circle cx="211.296" cy="151.645" r="2.483" transform="rotate(90 211.296 151.645)" fill="#EDEEF0"/><circle cx="211.296" cy="166.541" r="2.483" transform="rotate(90 211.296 166.541)" fill="#EDEEF0"/><circle cx="345.355" cy="92.064" r="2.483" transform="rotate(90 345.355 92.064)" fill="#EDEEF0"/><circle cx="345.355" cy="106.959" r="2.483" transform="rotate(90 345.355 106.959)" fill="#EDEEF0"/><circle cx="330.46" cy="92.064" r="2.483" transform="rotate(90 330.46 92.064)" fill="#EDEEF0"/><circle cx="330.46" cy="106.959" r="2.483" transform="rotate(90 330.46 106.959)" fill="#EDEEF0"/><circle cx="315.564" cy="92.064" r="2.483" transform="rotate(90 315.564 92.064)" fill="#EDEEF0"/><circle cx="315.564" cy="106.959" r="2.483" transform="rotate(90 315.564 106.959)" fill="#EDEEF0"/><circle cx="300.669" cy="92.064" r="2.483" transform="rotate(90 300.669 92.064)" fill="#EDEEF0"/><circle cx="300.669" cy="106.959" r="2.483" transform="rotate(90 300.669 106.959)" fill="#EDEEF0"/><circle cx="315.564" cy="121.854" r="2.483" transform="rotate(90 315.564 121.854)" fill="#EDEEF0"/><circle cx="315.564" cy="136.75" r="2.483" transform="rotate(90 315.564 136.75)" fill="#EDEEF0"/><circle cx="300.669" cy="121.854" r="2.483" transform="rotate(90 300.669 121.854)" fill="#EDEEF0"/><circle cx="300.669" cy="136.75" r="2.483" transform="rotate(90 300.669 136.75)" fill="#EDEEF0"/><circle cx="345.355" cy="121.854" r="2.483" transform="rotate(90 345.355 121.854)" fill="#EDEEF0"/><circle cx="345.355" cy="136.75" r="2.483" transform="rotate(90 345.355 136.75)" fill="#EDEEF0"/><circle cx="330.46" cy="121.854" r="2.483" transform="rotate(90 330.46 121.854)" fill="#EDEEF0"/><circle cx="330.46" cy="136.75" r="2.483" transform="rotate(90 330.46 136.75)" fill="#EDEEF0"/><circle cx="315.564" cy="151.645" r="2.483" transform="rotate(90 315.564 151.645)" fill="#EDEEF0"/><circle cx="315.564" cy="166.541" r="2.483" transform="rotate(90 315.564 166.541)" fill="#EDEEF0"/><circle cx="300.669" cy="151.645" r="2.483" transform="rotate(90 300.669 151.645)" fill="#EDEEF0"/><circle cx="300.669" cy="166.541" r="2.483" transform="rotate(90 300.669 166.541)" fill="#EDEEF0"/><circle cx="345.355" cy="151.645" r="2.483" transform="rotate(90 345.355 151.645)" fill="#EDEEF0"/><circle cx="345.355" cy="166.541" r="2.483" transform="rotate(90 345.355 166.541)" fill="#EDEEF0"/><circle cx="330.46" cy="151.645" r="2.483" transform="rotate(90 330.46 151.645)" fill="#EDEEF0"/><circle cx="330.46" cy="166.541" r="2.483" transform="rotate(90 330.46 166.541)" fill="#EDEEF0"/><circle cx="107.028" cy="2.691" r="2.483" transform="rotate(90 107.028 2.691)" fill="#EDEEF0"/><circle cx="107.028" cy="17.587" r="2.483" transform="rotate(90 107.028 17.587)" fill="#EDEEF0"/><circle cx="92.133" cy="2.691" r="2.483" transform="rotate(90 92.133 2.691)" fill="#EDEEF0"/><circle cx="92.133" cy="17.587" r="2.483" transform="rotate(90 92.133 17.587)" fill="#EDEEF0"/><circle cx="77.237" cy="2.691" r="2.483" transform="rotate(90 77.237 2.691)" fill="#EDEEF0"/><circle cx="77.237" cy="17.587" r="2.483" transform="rotate(90 77.237 17.587)" fill="#EDEEF0"/><circle cx="62.342" cy="2.691" r="2.483" transform="rotate(90 62.342 2.691)" fill="#EDEEF0"/><circle cx="62.342" cy="17.587" r="2.483" transform="rotate(90 62.342 17.587)" fill="#EDEEF0"/><circle cx="77.237" cy="32.482" r="2.483" transform="rotate(90 77.237 32.482)" fill="#EDEEF0"/><circle cx="77.237" cy="47.377" r="2.483" transform="rotate(90 77.237 47.377)" fill="#EDEEF0"/><circle cx="62.342" cy="32.482" r="2.483" transform="rotate(90 62.342 32.482)" fill="#EDEEF0"/><circle cx="62.342" cy="47.377" r="2.483" transform="rotate(90 62.342 47.377)" fill="#EDEEF0"/><circle cx="107.028" cy="32.482" r="2.483" transform="rotate(90 107.028 32.482)" fill="#EDEEF0"/><circle cx="107.028" cy="47.377" r="2.483" transform="rotate(90 107.028 47.377)" fill="#EDEEF0"/><circle cx="92.133" cy="32.482" r="2.483" transform="rotate(90 92.133 32.482)" fill="#EDEEF0"/><circle cx="92.133" cy="47.377" r="2.483" transform="rotate(90 92.133 47.377)" fill="#EDEEF0"/><circle cx="77.237" cy="62.273" r="2.483" transform="rotate(90 77.237 62.273)" fill="#EDEEF0"/><circle cx="77.237" cy="77.168" r="2.483" transform="rotate(90 77.237 77.168)" fill="#EDEEF0"/><circle cx="62.342" cy="62.273" r="2.483" transform="rotate(90 62.342 62.273)" fill="#EDEEF0"/><circle cx="62.342" cy="77.168" r="2.483" transform="rotate(90 62.342 77.168)" fill="#EDEEF0"/><circle cx="107.028" cy="62.273" r="2.483" transform="rotate(90 107.028 62.273)" fill="#EDEEF0"/><circle cx="107.028" cy="77.168" r="2.483" transform="rotate(90 107.028 77.168)" fill="#EDEEF0"/><circle cx="92.133" cy="62.273" r="2.483" transform="rotate(90 92.133 62.273)" fill="#EDEEF0"/><circle cx="92.133" cy="77.168" r="2.483" transform="rotate(90 92.133 77.168)" fill="#EDEEF0"/><circle cx="47.446" cy="2.691" r="2.483" transform="rotate(90 47.446 2.691)" fill="#EDEEF0"/><circle cx="47.446" cy="17.587" r="2.483" transform="rotate(90 47.446 17.587)" fill="#EDEEF0"/><circle cx="32.551" cy="2.691" r="2.483" transform="rotate(90 32.55 2.691)" fill="#EDEEF0"/><circle cx="32.551" cy="17.587" r="2.483" transform="rotate(90 32.55 17.587)" fill="#EDEEF0"/><circle cx="17.655" cy="2.691" r="2.483" transform="rotate(90 17.655 2.691)" fill="#EDEEF0"/><circle cx="17.655" cy="17.587" r="2.483" transform="rotate(90 17.655 17.587)" fill="#EDEEF0"/><circle cx="2.761" cy="2.691" r="2.483" transform="rotate(90 2.76 2.691)" fill="#EDEEF0"/><circle cx="2.761" cy="17.587" r="2.483" transform="rotate(90 2.76 17.587)" fill="#EDEEF0"/><circle cx="17.655" cy="32.482" r="2.483" transform="rotate(90 17.655 32.482)" fill="#EDEEF0"/><circle cx="17.655" cy="47.377" r="2.483" transform="rotate(90 17.655 47.377)" fill="#EDEEF0"/><circle cx="2.761" cy="32.482" r="2.483" transform="rotate(90 2.76 32.482)" fill="#EDEEF0"/><circle cx="2.761" cy="47.377" r="2.483" transform="rotate(90 2.76 47.377)" fill="#EDEEF0"/><circle cx="47.446" cy="32.482" r="2.483" transform="rotate(90 47.446 32.482)" fill="#EDEEF0"/><circle cx="47.446" cy="47.377" r="2.483" transform="rotate(90 47.446 47.377)" fill="#EDEEF0"/><circle cx="32.551" cy="32.482" r="2.483" transform="rotate(90 32.55 32.482)" fill="#EDEEF0"/><circle cx="32.551" cy="47.377" r="2.483" transform="rotate(90 32.55 47.377)" fill="#EDEEF0"/><circle cx="17.655" cy="62.273" r="2.483" transform="rotate(90 17.655 62.273)" fill="#EDEEF0"/><circle cx="17.655" cy="77.168" r="2.483" transform="rotate(90 17.655 77.168)" fill="#EDEEF0"/><circle cx="2.761" cy="62.273" r="2.483" transform="rotate(90 2.76 62.273)" fill="#EDEEF0"/><circle cx="2.761" cy="77.168" r="2.483" transform="rotate(90 2.76 77.168)" fill="#EDEEF0"/><circle cx="47.446" cy="62.273" r="2.483" transform="rotate(90 47.446 62.273)" fill="#EDEEF0"/><circle cx="47.446" cy="77.168" r="2.483" transform="rotate(90 47.446 77.168)" fill="#EDEEF0"/><circle cx="32.551" cy="62.273" r="2.483" transform="rotate(90 32.55 62.273)" fill="#EDEEF0"/><circle cx="32.551" cy="77.168" r="2.483" transform="rotate(90 32.55 77.168)" fill="#EDEEF0"/><circle cx="166.61" cy="2.691" r="2.483" transform="rotate(90 166.61 2.691)" fill="#EDEEF0"/><circle cx="166.61" cy="17.587" r="2.483" transform="rotate(90 166.61 17.587)" fill="#EDEEF0"/><circle cx="151.715" cy="2.691" r="2.483" transform="rotate(90 151.715 2.691)" fill="#EDEEF0"/><circle cx="151.715" cy="17.587" r="2.483" transform="rotate(90 151.715 17.587)" fill="#EDEEF0"/><circle cx="136.819" cy="2.691" r="2.483" transform="rotate(90 136.819 2.691)" fill="#EDEEF0"/><circle cx="136.819" cy="17.587" r="2.483" transform="rotate(90 136.819 17.587)" fill="#EDEEF0"/><circle cx="121.924" cy="2.691" r="2.483" transform="rotate(90 121.924 2.691)" fill="#EDEEF0"/><circle cx="121.924" cy="17.587" r="2.483" transform="rotate(90 121.924 17.587)" fill="#EDEEF0"/><circle cx="136.819" cy="32.482" r="2.483" transform="rotate(90 136.819 32.482)" fill="#EDEEF0"/><circle cx="136.819" cy="47.377" r="2.483" transform="rotate(90 136.819 47.377)" fill="#EDEEF0"/><circle cx="121.924" cy="32.482" r="2.483" transform="rotate(90 121.924 32.482)" fill="#EDEEF0"/><circle cx="121.924" cy="47.377" r="2.483" transform="rotate(90 121.924 47.377)" fill="#EDEEF0"/><circle cx="166.61" cy="32.482" r="2.483" transform="rotate(90 166.61 32.482)" fill="#EDEEF0"/><circle cx="166.61" cy="47.377" r="2.483" transform="rotate(90 166.61 47.377)" fill="#EDEEF0"/><circle cx="151.715" cy="32.482" r="2.483" transform="rotate(90 151.715 32.482)" fill="#EDEEF0"/><circle cx="151.715" cy="47.377" r="2.483" transform="rotate(90 151.715 47.377)" fill="#EDEEF0"/><circle cx="136.819" cy="62.273" r="2.483" transform="rotate(90 136.819 62.273)" fill="#EDEEF0"/><circle cx="136.819" cy="77.168" r="2.483" transform="rotate(90 136.819 77.168)" fill="#EDEEF0"/><circle cx="121.924" cy="62.273" r="2.483" transform="rotate(90 121.924 62.273)" fill="#EDEEF0"/><circle cx="121.924" cy="77.168" r="2.483" transform="rotate(90 121.924 77.168)" fill="#EDEEF0"/><circle cx="166.61" cy="62.273" r="2.483" transform="rotate(90 166.61 62.273)" fill="#EDEEF0"/><circle cx="166.61" cy="77.168" r="2.483" transform="rotate(90 166.61 77.168)" fill="#EDEEF0"/><circle cx="151.715" cy="62.273" r="2.483" transform="rotate(90 151.715 62.273)" fill="#EDEEF0"/><circle cx="151.715" cy="77.168" r="2.483" transform="rotate(90 151.715 77.168)" fill="#EDEEF0"/><circle cx="107.028" cy="92.064" r="2.483" transform="rotate(90 107.028 92.064)" fill="#EDEEF0"/><circle cx="107.028" cy="106.959" r="2.483" transform="rotate(90 107.028 106.959)" fill="#EDEEF0"/><circle cx="92.133" cy="92.064" r="2.483" transform="rotate(90 92.133 92.064)" fill="#EDEEF0"/><circle cx="92.133" cy="106.959" r="2.483" transform="rotate(90 92.133 106.959)" fill="#EDEEF0"/><circle cx="77.237" cy="92.064" r="2.483" transform="rotate(90 77.237 92.064)" fill="#EDEEF0"/><circle cx="77.237" cy="106.959" r="2.483" transform="rotate(90 77.237 106.959)" fill="#EDEEF0"/><circle cx="62.342" cy="92.064" r="2.483" transform="rotate(90 62.342 92.064)" fill="#EDEEF0"/><circle cx="62.342" cy="106.959" r="2.483" transform="rotate(90 62.342 106.959)" fill="#EDEEF0"/><circle cx="77.237" cy="121.854" r="2.483" transform="rotate(90 77.237 121.854)" fill="#EDEEF0"/><circle cx="77.237" cy="136.75" r="2.483" transform="rotate(90 77.237 136.75)" fill="#EDEEF0"/><circle cx="62.342" cy="121.854" r="2.483" transform="rotate(90 62.342 121.854)" fill="#EDEEF0"/><circle cx="62.342" cy="136.75" r="2.483" transform="rotate(90 62.342 136.75)" fill="#EDEEF0"/><circle cx="107.028" cy="121.854" r="2.483" transform="rotate(90 107.028 121.854)" fill="#EDEEF0"/><circle cx="107.028" cy="136.75" r="2.483" transform="rotate(90 107.028 136.75)" fill="#EDEEF0"/><circle cx="92.133" cy="121.854" r="2.483" transform="rotate(90 92.133 121.854)" fill="#EDEEF0"/><circle cx="92.133" cy="136.75" r="2.483" transform="rotate(90 92.133 136.75)" fill="#EDEEF0"/><circle cx="77.237" cy="151.645" r="2.483" transform="rotate(90 77.237 151.645)" fill="#EDEEF0"/><circle cx="77.237" cy="166.541" r="2.483" transform="rotate(90 77.237 166.541)" fill="#EDEEF0"/><circle cx="62.342" cy="151.645" r="2.483" transform="rotate(90 62.342 151.645)" fill="#EDEEF0"/><circle cx="62.342" cy="166.541" r="2.483" transform="rotate(90 62.342 166.541)" fill="#EDEEF0"/><circle cx="107.028" cy="151.645" r="2.483" transform="rotate(90 107.028 151.645)" fill="#EDEEF0"/><circle cx="107.028" cy="166.541" r="2.483" transform="rotate(90 107.028 166.541)" fill="#EDEEF0"/><circle cx="92.133" cy="151.645" r="2.483" transform="rotate(90 92.133 151.645)" fill="#EDEEF0"/><circle cx="92.133" cy="166.541" r="2.483" transform="rotate(90 92.133 166.541)" fill="#EDEEF0"/><circle cx="47.446" cy="92.064" r="2.483" transform="rotate(90 47.446 92.064)" fill="#EDEEF0"/><circle cx="47.446" cy="106.959" r="2.483" transform="rotate(90 47.446 106.959)" fill="#EDEEF0"/><circle cx="32.551" cy="92.064" r="2.483" transform="rotate(90 32.55 92.064)" fill="#EDEEF0"/><circle cx="32.551" cy="106.959" r="2.483" transform="rotate(90 32.55 106.959)" fill="#EDEEF0"/><circle cx="17.655" cy="92.064" r="2.483" transform="rotate(90 17.655 92.064)" fill="#EDEEF0"/><circle cx="17.655" cy="106.959" r="2.483" transform="rotate(90 17.655 106.959)" fill="#EDEEF0"/><circle cx="2.761" cy="92.064" r="2.483" transform="rotate(90 2.76 92.064)" fill="#EDEEF0"/><circle cx="2.761" cy="106.959" r="2.483" transform="rotate(90 2.76 106.959)" fill="#EDEEF0"/><circle cx="17.655" cy="121.854" r="2.483" transform="rotate(90 17.655 121.854)" fill="#EDEEF0"/><circle cx="17.655" cy="136.75" r="2.483" transform="rotate(90 17.655 136.75)" fill="#EDEEF0"/><circle cx="2.761" cy="121.854" r="2.483" transform="rotate(90 2.76 121.854)" fill="#EDEEF0"/><circle cx="2.761" cy="136.75" r="2.483" transform="rotate(90 2.76 136.75)" fill="#EDEEF0"/><circle cx="47.446" cy="121.854" r="2.483" transform="rotate(90 47.446 121.854)" fill="#EDEEF0"/><circle cx="47.446" cy="136.75" r="2.483" transform="rotate(90 47.446 136.75)" fill="#EDEEF0"/><circle cx="32.551" cy="121.854" r="2.483" transform="rotate(90 32.55 121.854)" fill="#EDEEF0"/><circle cx="32.551" cy="136.75" r="2.483" transform="rotate(90 32.55 136.75)" fill="#EDEEF0"/><circle cx="17.655" cy="151.645" r="2.483" transform="rotate(90 17.655 151.645)" fill="#EDEEF0"/><circle cx="17.655" cy="166.541" r="2.483" transform="rotate(90 17.655 166.541)" fill="#EDEEF0"/><circle cx="2.761" cy="151.645" r="2.483" transform="rotate(90 2.76 151.645)" fill="#EDEEF0"/><circle cx="2.761" cy="166.541" r="2.483" transform="rotate(90 2.76 166.541)" fill="#EDEEF0"/><circle cx="47.446" cy="151.645" r="2.483" transform="rotate(90 47.446 151.645)" fill="#EDEEF0"/><circle cx="47.446" cy="166.541" r="2.483" transform="rotate(90 47.446 166.541)" fill="#EDEEF0"/><circle cx="32.551" cy="151.645" r="2.483" transform="rotate(90 32.55 151.645)" fill="#EDEEF0"/><circle cx="32.551" cy="166.541" r="2.483" transform="rotate(90 32.55 166.541)" fill="#EDEEF0"/><circle cx="166.61" cy="92.064" r="2.483" transform="rotate(90 166.61 92.064)" fill="#EDEEF0"/><circle cx="166.61" cy="106.959" r="2.483" transform="rotate(90 166.61 106.959)" fill="#EDEEF0"/><circle cx="151.715" cy="92.064" r="2.483" transform="rotate(90 151.715 92.064)" fill="#EDEEF0"/><circle cx="151.715" cy="106.959" r="2.483" transform="rotate(90 151.715 106.959)" fill="#EDEEF0"/><circle cx="136.819" cy="92.064" r="2.483" transform="rotate(90 136.819 92.064)" fill="#EDEEF0"/><circle cx="136.819" cy="106.959" r="2.483" transform="rotate(90 136.819 106.959)" fill="#EDEEF0"/><circle cx="121.924" cy="92.064" r="2.483" transform="rotate(90 121.924 92.064)" fill="#EDEEF0"/><circle cx="121.924" cy="106.959" r="2.483" transform="rotate(90 121.924 106.959)" fill="#EDEEF0"/><circle cx="136.819" cy="121.854" r="2.483" transform="rotate(90 136.819 121.854)" fill="#EDEEF0"/><circle cx="136.819" cy="136.75" r="2.483" transform="rotate(90 136.819 136.75)" fill="#EDEEF0"/><circle cx="121.924" cy="121.854" r="2.483" transform="rotate(90 121.924 121.854)" fill="#EDEEF0"/><circle cx="121.924" cy="136.75" r="2.483" transform="rotate(90 121.924 136.75)" fill="#EDEEF0"/><circle cx="166.61" cy="121.854" r="2.483" transform="rotate(90 166.61 121.854)" fill="#EDEEF0"/><circle cx="166.61" cy="136.75" r="2.483" transform="rotate(90 166.61 136.75)" fill="#EDEEF0"/><circle cx="151.715" cy="121.854" r="2.483" transform="rotate(90 151.715 121.854)" fill="#EDEEF0"/><circle cx="151.715" cy="136.75" r="2.483" transform="rotate(90 151.715 136.75)" fill="#EDEEF0"/><circle cx="136.819" cy="151.645" r="2.483" transform="rotate(90 136.819 151.645)" fill="#EDEEF0"/><circle cx="136.819" cy="166.541" r="2.483" transform="rotate(90 136.819 166.541)" fill="#EDEEF0"/><circle cx="121.924" cy="151.645" r="2.483" transform="rotate(90 121.924 151.645)" fill="#EDEEF0"/><circle cx="121.924" cy="166.541" r="2.483" transform="rotate(90 121.924 166.541)" fill="#EDEEF0"/><circle cx="166.61" cy="151.645" r="2.483" transform="rotate(90 166.61 151.645)" fill="#EDEEF0"/><circle cx="166.61" cy="166.541" r="2.483" transform="rotate(90 166.61 166.541)" fill="#EDEEF0"/><circle cx="151.715" cy="151.645" r="2.483" transform="rotate(90 151.715 151.645)" fill="#EDEEF0"/><circle cx="151.715" cy="166.541" r="2.483" transform="rotate(90 151.715 166.541)" fill="#EDEEF0"/></svg>