<svg width="26" height="32" viewBox="0 0 26 32" fill="none" xmlns="http://www.w3.org/2000/svg"><path d="M12.48.205c-1.863.066-3.69.527-5.354 1.352a12.87 12.87 0 0 0-4.288 3.426A12.59 12.59 0 0 0 .402 9.855a12.457 12.457 0 0 0 .818 8.339c1.294 3.01 4.286 8.047 11.001 13.526a1.134 1.134 0 0 0 1.433 0c6.715-5.473 9.708-10.51 11.008-13.533.382-.804.674-1.648.87-2.515.059-.254.085-.397.085-.397a12.46 12.46 0 0 0-.198-5.643 12.607 12.607 0 0 0-2.674-5 12.902 12.902 0 0 0-4.618-3.364A13.124 13.124 0 0 0 12.48.205zm.457 18.973a6.351 6.351 0 0 1-3.483-1.038 6.182 6.182 0 0 1-2.31-2.763 6.054 6.054 0 0 1-.356-3.558 6.123 6.123 0 0 1 1.716-3.152 6.306 6.306 0 0 1 3.21-1.685 6.377 6.377 0 0 1 3.623.35A6.246 6.246 0 0 1 18.151 9.6a6.06 6.06 0 0 1 .58 5.777 6.151 6.151 0 0 1-1.36 1.998 6.28 6.28 0 0 1-2.034 1.334 6.37 6.37 0 0 1-2.4.469z" fill="#C95469"/></svg>