<svg width="19" height="24" viewBox="0 0 19 24" fill="none" xmlns="http://www.w3.org/2000/svg"><path d="M9.495 0C4.261 0 0 4.317 0 9.62a9.59 9.59 0 0 0 .233 2.128 9.56 9.56 0 0 0 .636 1.897c1.023 2.44 3.273 6.189 8.209 10.204a.669.669 0 0 0 .844 0c4.931-4.015 7.186-7.764 8.209-10.204a9.452 9.452 0 0 0 .7-2.219c.11-.593.169-1.202.169-1.806C18.99 4.317 14.73 0 9.495 0zM17.5 11.19c0 .01-.005.02-.005.03l-.044.216v.01a8.057 8.057 0 0 1-.552 1.64c-.005.006-.005.016-.01.02-.928 2.23-2.964 5.631-7.394 9.34-4.43-3.709-6.466-7.11-7.394-9.34-.005-.004-.005-.014-.01-.02a8.597 8.597 0 0 1-.552-1.64v-.01c-.03-.115-.04-.19-.044-.216 0-.01-.005-.02-.005-.035a8.321 8.321 0 0 1-.15-1.57c0-4.553 3.66-8.262 8.155-8.262 4.494 0 8.154 3.709 8.154 8.262 0 .533-.05 1.062-.149 1.575z" fill="#163F59"/><path d="M9.5 4.8c-2.618 0-4.75 2.155-4.75 4.8s2.132 4.8 4.75 4.8 4.75-2.155 4.75-4.8-2.132-4.8-4.75-4.8zm0 8.532c-2.039 0-3.694-1.676-3.694-3.732S7.466 5.868 9.5 5.868c2.035 0 3.694 1.676 3.694 3.732s-1.655 3.732-3.694 3.732z" fill="#163F59"/></svg>