<svg width="25" height="19" viewBox="0 0 25 19" fill="none" xmlns="http://www.w3.org/2000/svg"><g clip-path="url(#a)" fill="#163F59"><path d="M19.9 9.183a.48.48 0 0 0-.684-.071l-.17.136a.482.482 0 0 0 .256.856.49.49 0 0 0 .357-.105l.17-.136a.48.48 0 0 0 .162-.513.476.476 0 0 0-.09-.167zm-1.392 1.12a.478.478 0 0 0-.517-.161.479.479 0 0 0-.167.09l-3.479 2.759a.484.484 0 0 0-.072.68.484.484 0 0 0 .517.159.485.485 0 0 0 .168-.088l3.477-2.76a.477.477 0 0 0 .073-.679z"/><path d="M21.74.84H3.702c-.769 0-1.506.305-2.05.845a2.871 2.871 0 0 0-.847 2.038V15.84c0 .763.306 1.494.85 2.034a2.91 2.91 0 0 0 2.047.844H21.74a2.911 2.911 0 0 0 2.046-.847c.542-.54.847-1.272.847-2.035V3.723c0-.763-.304-1.495-.847-2.036A2.911 2.911 0 0 0 21.74.84zm-1.388.966l-7.637 6.13-7.636-6.13h15.273zm.382 15.941H4.696V6.47l7.712 6.172a.482.482 0 0 0 .611 0l7.713-6.172v11.277h.002zm2.931-1.906a1.907 1.907 0 0 1-.564 1.345c-.36.358-.847.559-1.355.561h-.04V5.457a.474.474 0 0 0-.272-.444.483.483 0 0 0-.52.068l-8.2 6.56-8.2-6.56a.481.481 0 0 0-.79.376v12.29h-.022a1.934 1.934 0 0 1-1.354-.56 1.907 1.907 0 0 1-.565-1.346V3.723c0-.479.181-.94.507-1.293a1.932 1.932 0 0 1 1.252-.613l8.87 7.12a.481.481 0 0 0 .61 0l8.868-7.12c.483.038.934.255 1.263.608.329.353.512.816.512 1.298V15.84z"/></g><defs><clipPath id="a"><path fill="#fff" transform="translate(.805 .84)" d="M0 0h23.833v17.875H0z"/></clipPath></defs></svg>