<svg width="22" height="22" viewBox="0 0 22 22" fill="none" xmlns="http://www.w3.org/2000/svg"><path d="M9.442 4.088a1.124 1.124 0 0 0 0 2.248c1.374 0 2.6.767 3.202 2.003a1.124 1.124 0 0 0 2.02-.985 5.77 5.77 0 0 0-5.222-3.266z" fill="#fff"/><path d="M21.534 19.526l-3.746-3.746a9.488 9.488 0 0 0 1.768-5.516C19.556 4.995 15.27.709 10 .709 4.733.71.447 4.995.447 10.264c0 5.268 4.286 9.554 9.554 9.554a9.494 9.494 0 0 0 5.841-2.01l3.705 3.704a1.402 1.402 0 0 0 1.987 0 1.404 1.404 0 0 0 0-1.986zM2.696 10.264c0-4.029 3.278-7.306 7.306-7.306 4.028 0 7.306 3.277 7.306 7.306a7.258 7.258 0 0 1-1.526 4.452 7.27 7.27 0 0 1-5.78 2.854c-4.029 0-7.306-3.278-7.306-7.306z" fill="#fff"/></svg>