<svg width="350" height="170" viewBox="0 0 350 170" fill="none" xmlns="http://www.w3.org/2000/svg"><circle cx="287.5" cy="2.5" r="2.5" transform="rotate(90 287.5 2.5)" fill="#EDEEF0"/><circle cx="287.5" cy="17.5" r="2.5" transform="rotate(90 287.5 17.5)" fill="#EDEEF0"/><circle cx="272.5" cy="2.5" r="2.5" transform="rotate(90 272.5 2.5)" fill="#EDEEF0"/><circle cx="272.5" cy="17.5" r="2.5" transform="rotate(90 272.5 17.5)" fill="#EDEEF0"/><circle cx="257.5" cy="2.5" r="2.5" transform="rotate(90 257.5 2.5)" fill="#EDEEF0"/><circle cx="257.5" cy="17.5" r="2.5" transform="rotate(90 257.5 17.5)" fill="#EDEEF0"/><circle cx="242.5" cy="2.5" r="2.5" transform="rotate(90 242.5 2.5)" fill="#EDEEF0"/><circle cx="242.5" cy="17.5" r="2.5" transform="rotate(90 242.5 17.5)" fill="#EDEEF0"/><circle cx="257.5" cy="32.5" r="2.5" transform="rotate(90 257.5 32.5)" fill="#EDEEF0"/><circle cx="257.5" cy="47.5" r="2.5" transform="rotate(90 257.5 47.5)" fill="#EDEEF0"/><circle cx="242.5" cy="32.5" r="2.5" transform="rotate(90 242.5 32.5)" fill="#EDEEF0"/><circle cx="242.5" cy="47.5" r="2.5" transform="rotate(90 242.5 47.5)" fill="#EDEEF0"/><circle cx="287.5" cy="32.5" r="2.5" transform="rotate(90 287.5 32.5)" fill="#EDEEF0"/><circle cx="287.5" cy="47.5" r="2.5" transform="rotate(90 287.5 47.5)" fill="#EDEEF0"/><circle cx="272.5" cy="32.5" r="2.5" transform="rotate(90 272.5 32.5)" fill="#EDEEF0"/><circle cx="272.5" cy="47.5" r="2.5" transform="rotate(90 272.5 47.5)" fill="#EDEEF0"/><circle cx="257.5" cy="62.5" r="2.5" transform="rotate(90 257.5 62.5)" fill="#EDEEF0"/><circle cx="257.5" cy="77.5" r="2.5" transform="rotate(90 257.5 77.5)" fill="#EDEEF0"/><circle cx="242.5" cy="62.5" r="2.5" transform="rotate(90 242.5 62.5)" fill="#EDEEF0"/><circle cx="242.5" cy="77.5" r="2.5" transform="rotate(90 242.5 77.5)" fill="#EDEEF0"/><circle cx="287.5" cy="62.5" r="2.5" transform="rotate(90 287.5 62.5)" fill="#EDEEF0"/><circle cx="287.5" cy="77.5" r="2.5" transform="rotate(90 287.5 77.5)" fill="#EDEEF0"/><circle cx="272.5" cy="62.5" r="2.5" transform="rotate(90 272.5 62.5)" fill="#EDEEF0"/><circle cx="272.5" cy="77.5" r="2.5" transform="rotate(90 272.5 77.5)" fill="#EDEEF0"/><circle cx="227.5" cy="2.5" r="2.5" transform="rotate(90 227.5 2.5)" fill="#EDEEF0"/><circle cx="227.5" cy="17.5" r="2.5" transform="rotate(90 227.5 17.5)" fill="#EDEEF0"/><circle cx="212.5" cy="2.5" r="2.5" transform="rotate(90 212.5 2.5)" fill="#EDEEF0"/><circle cx="212.5" cy="17.5" r="2.5" transform="rotate(90 212.5 17.5)" fill="#EDEEF0"/><circle cx="197.5" cy="2.5" r="2.5" transform="rotate(90 197.5 2.5)" fill="#EDEEF0"/><circle cx="197.5" cy="17.5" r="2.5" transform="rotate(90 197.5 17.5)" fill="#EDEEF0"/><circle cx="182.5" cy="2.5" r="2.5" transform="rotate(90 182.5 2.5)" fill="#EDEEF0"/><circle cx="182.5" cy="17.5" r="2.5" transform="rotate(90 182.5 17.5)" fill="#EDEEF0"/><circle cx="197.5" cy="32.5" r="2.5" transform="rotate(90 197.5 32.5)" fill="#EDEEF0"/><circle cx="197.5" cy="47.5" r="2.5" transform="rotate(90 197.5 47.5)" fill="#EDEEF0"/><circle cx="182.5" cy="32.5" r="2.5" transform="rotate(90 182.5 32.5)" fill="#EDEEF0"/><circle cx="182.5" cy="47.5" r="2.5" transform="rotate(90 182.5 47.5)" fill="#EDEEF0"/><circle cx="227.5" cy="32.5" r="2.5" transform="rotate(90 227.5 32.5)" fill="#EDEEF0"/><circle cx="227.5" cy="47.5" r="2.5" transform="rotate(90 227.5 47.5)" fill="#EDEEF0"/><circle cx="212.5" cy="32.5" r="2.5" transform="rotate(90 212.5 32.5)" fill="#EDEEF0"/><circle cx="212.5" cy="47.5" r="2.5" transform="rotate(90 212.5 47.5)" fill="#EDEEF0"/><circle cx="197.5" cy="62.5" r="2.5" transform="rotate(90 197.5 62.5)" fill="#EDEEF0"/><circle cx="197.5" cy="77.5" r="2.5" transform="rotate(90 197.5 77.5)" fill="#EDEEF0"/><circle cx="182.5" cy="62.5" r="2.5" transform="rotate(90 182.5 62.5)" fill="#EDEEF0"/><circle cx="182.5" cy="77.5" r="2.5" transform="rotate(90 182.5 77.5)" fill="#EDEEF0"/><circle cx="227.5" cy="62.5" r="2.5" transform="rotate(90 227.5 62.5)" fill="#EDEEF0"/><circle cx="227.5" cy="77.5" r="2.5" transform="rotate(90 227.5 77.5)" fill="#EDEEF0"/><circle cx="212.5" cy="62.5" r="2.5" transform="rotate(90 212.5 62.5)" fill="#EDEEF0"/><circle cx="212.5" cy="77.5" r="2.5" transform="rotate(90 212.5 77.5)" fill="#EDEEF0"/><circle cx="347.5" cy="2.5" r="2.5" transform="rotate(90 347.5 2.5)" fill="#EDEEF0"/><circle cx="347.5" cy="17.5" r="2.5" transform="rotate(90 347.5 17.5)" fill="#EDEEF0"/><circle cx="332.5" cy="2.5" r="2.5" transform="rotate(90 332.5 2.5)" fill="#EDEEF0"/><circle cx="332.5" cy="17.5" r="2.5" transform="rotate(90 332.5 17.5)" fill="#EDEEF0"/><circle cx="317.5" cy="2.5" r="2.5" transform="rotate(90 317.5 2.5)" fill="#EDEEF0"/><circle cx="317.5" cy="17.5" r="2.5" transform="rotate(90 317.5 17.5)" fill="#EDEEF0"/><circle cx="302.5" cy="2.5" r="2.5" transform="rotate(90 302.5 2.5)" fill="#EDEEF0"/><circle cx="302.5" cy="17.5" r="2.5" transform="rotate(90 302.5 17.5)" fill="#EDEEF0"/><circle cx="317.5" cy="32.5" r="2.5" transform="rotate(90 317.5 32.5)" fill="#EDEEF0"/><circle cx="317.5" cy="47.5" r="2.5" transform="rotate(90 317.5 47.5)" fill="#EDEEF0"/><circle cx="302.5" cy="32.5" r="2.5" transform="rotate(90 302.5 32.5)" fill="#EDEEF0"/><circle cx="302.5" cy="47.5" r="2.5" transform="rotate(90 302.5 47.5)" fill="#EDEEF0"/><circle cx="347.5" cy="32.5" r="2.5" transform="rotate(90 347.5 32.5)" fill="#EDEEF0"/><circle cx="347.5" cy="47.5" r="2.5" transform="rotate(90 347.5 47.5)" fill="#EDEEF0"/><circle cx="332.5" cy="32.5" r="2.5" transform="rotate(90 332.5 32.5)" fill="#EDEEF0"/><circle cx="332.5" cy="47.5" r="2.5" transform="rotate(90 332.5 47.5)" fill="#EDEEF0"/><circle cx="317.5" cy="62.5" r="2.5" transform="rotate(90 317.5 62.5)" fill="#EDEEF0"/><circle cx="317.5" cy="77.5" r="2.5" transform="rotate(90 317.5 77.5)" fill="#EDEEF0"/><circle cx="302.5" cy="62.5" r="2.5" transform="rotate(90 302.5 62.5)" fill="#EDEEF0"/><circle cx="302.5" cy="77.5" r="2.5" transform="rotate(90 302.5 77.5)" fill="#EDEEF0"/><circle cx="347.5" cy="62.5" r="2.5" transform="rotate(90 347.5 62.5)" fill="#EDEEF0"/><circle cx="347.5" cy="77.5" r="2.5" transform="rotate(90 347.5 77.5)" fill="#EDEEF0"/><circle cx="332.5" cy="62.5" r="2.5" transform="rotate(90 332.5 62.5)" fill="#EDEEF0"/><circle cx="332.5" cy="77.5" r="2.5" transform="rotate(90 332.5 77.5)" fill="#EDEEF0"/><circle cx="287.5" cy="92.5" r="2.5" transform="rotate(90 287.5 92.5)" fill="#EDEEF0"/><circle cx="287.5" cy="107.5" r="2.5" transform="rotate(90 287.5 107.5)" fill="#EDEEF0"/><circle cx="272.5" cy="92.5" r="2.5" transform="rotate(90 272.5 92.5)" fill="#EDEEF0"/><circle cx="272.5" cy="107.5" r="2.5" transform="rotate(90 272.5 107.5)" fill="#EDEEF0"/><circle cx="257.5" cy="92.5" r="2.5" transform="rotate(90 257.5 92.5)" fill="#EDEEF0"/><circle cx="257.5" cy="107.5" r="2.5" transform="rotate(90 257.5 107.5)" fill="#EDEEF0"/><circle cx="242.5" cy="92.5" r="2.5" transform="rotate(90 242.5 92.5)" fill="#EDEEF0"/><circle cx="242.5" cy="107.5" r="2.5" transform="rotate(90 242.5 107.5)" fill="#EDEEF0"/><circle cx="257.5" cy="122.5" r="2.5" transform="rotate(90 257.5 122.5)" fill="#EDEEF0"/><circle cx="257.5" cy="137.5" r="2.5" transform="rotate(90 257.5 137.5)" fill="#EDEEF0"/><circle cx="242.5" cy="122.5" r="2.5" transform="rotate(90 242.5 122.5)" fill="#EDEEF0"/><circle cx="242.5" cy="137.5" r="2.5" transform="rotate(90 242.5 137.5)" fill="#EDEEF0"/><circle cx="287.5" cy="122.5" r="2.5" transform="rotate(90 287.5 122.5)" fill="#EDEEF0"/><circle cx="287.5" cy="137.5" r="2.5" transform="rotate(90 287.5 137.5)" fill="#EDEEF0"/><circle cx="272.5" cy="122.5" r="2.5" transform="rotate(90 272.5 122.5)" fill="#EDEEF0"/><circle cx="272.5" cy="137.5" r="2.5" transform="rotate(90 272.5 137.5)" fill="#EDEEF0"/><circle cx="257.5" cy="152.5" r="2.5" transform="rotate(90 257.5 152.5)" fill="#EDEEF0"/><circle cx="257.5" cy="167.5" r="2.5" transform="rotate(90 257.5 167.5)" fill="#EDEEF0"/><circle cx="242.5" cy="152.5" r="2.5" transform="rotate(90 242.5 152.5)" fill="#EDEEF0"/><circle cx="242.5" cy="167.5" r="2.5" transform="rotate(90 242.5 167.5)" fill="#EDEEF0"/><circle cx="287.5" cy="152.5" r="2.5" transform="rotate(90 287.5 152.5)" fill="#EDEEF0"/><circle cx="287.5" cy="167.5" r="2.5" transform="rotate(90 287.5 167.5)" fill="#EDEEF0"/><circle cx="272.5" cy="152.5" r="2.5" transform="rotate(90 272.5 152.5)" fill="#EDEEF0"/><circle cx="272.5" cy="167.5" r="2.5" transform="rotate(90 272.5 167.5)" fill="#EDEEF0"/><circle cx="227.5" cy="92.5" r="2.5" transform="rotate(90 227.5 92.5)" fill="#EDEEF0"/><circle cx="227.5" cy="107.5" r="2.5" transform="rotate(90 227.5 107.5)" fill="#EDEEF0"/><circle cx="212.5" cy="92.5" r="2.5" transform="rotate(90 212.5 92.5)" fill="#EDEEF0"/><circle cx="212.5" cy="107.5" r="2.5" transform="rotate(90 212.5 107.5)" fill="#EDEEF0"/><circle cx="197.5" cy="92.5" r="2.5" transform="rotate(90 197.5 92.5)" fill="#EDEEF0"/><circle cx="197.5" cy="107.5" r="2.5" transform="rotate(90 197.5 107.5)" fill="#EDEEF0"/><circle cx="182.5" cy="92.5" r="2.5" transform="rotate(90 182.5 92.5)" fill="#EDEEF0"/><circle cx="182.5" cy="107.5" r="2.5" transform="rotate(90 182.5 107.5)" fill="#EDEEF0"/><circle cx="197.5" cy="122.5" r="2.5" transform="rotate(90 197.5 122.5)" fill="#EDEEF0"/><circle cx="197.5" cy="137.5" r="2.5" transform="rotate(90 197.5 137.5)" fill="#EDEEF0"/><circle cx="182.5" cy="122.5" r="2.5" transform="rotate(90 182.5 122.5)" fill="#EDEEF0"/><circle cx="182.5" cy="137.5" r="2.5" transform="rotate(90 182.5 137.5)" fill="#EDEEF0"/><circle cx="227.5" cy="122.5" r="2.5" transform="rotate(90 227.5 122.5)" fill="#EDEEF0"/><circle cx="227.5" cy="137.5" r="2.5" transform="rotate(90 227.5 137.5)" fill="#EDEEF0"/><circle cx="212.5" cy="122.5" r="2.5" transform="rotate(90 212.5 122.5)" fill="#EDEEF0"/><circle cx="212.5" cy="137.5" r="2.5" transform="rotate(90 212.5 137.5)" fill="#EDEEF0"/><circle cx="197.5" cy="152.5" r="2.5" transform="rotate(90 197.5 152.5)" fill="#EDEEF0"/><circle cx="197.5" cy="167.5" r="2.5" transform="rotate(90 197.5 167.5)" fill="#EDEEF0"/><circle cx="182.5" cy="152.5" r="2.5" transform="rotate(90 182.5 152.5)" fill="#EDEEF0"/><circle cx="182.5" cy="167.5" r="2.5" transform="rotate(90 182.5 167.5)" fill="#EDEEF0"/><circle cx="227.5" cy="152.5" r="2.5" transform="rotate(90 227.5 152.5)" fill="#EDEEF0"/><circle cx="227.5" cy="167.5" r="2.5" transform="rotate(90 227.5 167.5)" fill="#EDEEF0"/><circle cx="212.5" cy="152.5" r="2.5" transform="rotate(90 212.5 152.5)" fill="#EDEEF0"/><circle cx="212.5" cy="167.5" r="2.5" transform="rotate(90 212.5 167.5)" fill="#EDEEF0"/><circle cx="347.5" cy="92.5" r="2.5" transform="rotate(90 347.5 92.5)" fill="#EDEEF0"/><circle cx="347.5" cy="107.5" r="2.5" transform="rotate(90 347.5 107.5)" fill="#EDEEF0"/><circle cx="332.5" cy="92.5" r="2.5" transform="rotate(90 332.5 92.5)" fill="#EDEEF0"/><circle cx="332.5" cy="107.5" r="2.5" transform="rotate(90 332.5 107.5)" fill="#EDEEF0"/><circle cx="317.5" cy="92.5" r="2.5" transform="rotate(90 317.5 92.5)" fill="#EDEEF0"/><circle cx="317.5" cy="107.5" r="2.5" transform="rotate(90 317.5 107.5)" fill="#EDEEF0"/><circle cx="302.5" cy="92.5" r="2.5" transform="rotate(90 302.5 92.5)" fill="#EDEEF0"/><circle cx="302.5" cy="107.5" r="2.5" transform="rotate(90 302.5 107.5)" fill="#EDEEF0"/><circle cx="317.5" cy="122.5" r="2.5" transform="rotate(90 317.5 122.5)" fill="#EDEEF0"/><circle cx="317.5" cy="137.5" r="2.5" transform="rotate(90 317.5 137.5)" fill="#EDEEF0"/><circle cx="302.5" cy="122.5" r="2.5" transform="rotate(90 302.5 122.5)" fill="#EDEEF0"/><circle cx="302.5" cy="137.5" r="2.5" transform="rotate(90 302.5 137.5)" fill="#EDEEF0"/><circle cx="347.5" cy="122.5" r="2.5" transform="rotate(90 347.5 122.5)" fill="#EDEEF0"/><circle cx="347.5" cy="137.5" r="2.5" transform="rotate(90 347.5 137.5)" fill="#EDEEF0"/><circle cx="332.5" cy="122.5" r="2.5" transform="rotate(90 332.5 122.5)" fill="#EDEEF0"/><circle cx="332.5" cy="137.5" r="2.5" transform="rotate(90 332.5 137.5)" fill="#EDEEF0"/><circle cx="317.5" cy="152.5" r="2.5" transform="rotate(90 317.5 152.5)" fill="#EDEEF0"/><circle cx="317.5" cy="167.5" r="2.5" transform="rotate(90 317.5 167.5)" fill="#EDEEF0"/><circle cx="302.5" cy="152.5" r="2.5" transform="rotate(90 302.5 152.5)" fill="#EDEEF0"/><circle cx="302.5" cy="167.5" r="2.5" transform="rotate(90 302.5 167.5)" fill="#EDEEF0"/><circle cx="347.5" cy="152.5" r="2.5" transform="rotate(90 347.5 152.5)" fill="#EDEEF0"/><circle cx="347.5" cy="167.5" r="2.5" transform="rotate(90 347.5 167.5)" fill="#EDEEF0"/><circle cx="332.5" cy="152.5" r="2.5" transform="rotate(90 332.5 152.5)" fill="#EDEEF0"/><circle cx="332.5" cy="167.5" r="2.5" transform="rotate(90 332.5 167.5)" fill="#EDEEF0"/><circle cx="107.5" cy="2.5" r="2.5" transform="rotate(90 107.5 2.5)" fill="#EDEEF0"/><circle cx="107.5" cy="17.5" r="2.5" transform="rotate(90 107.5 17.5)" fill="#EDEEF0"/><circle cx="92.5" cy="2.5" r="2.5" transform="rotate(90 92.5 2.5)" fill="#EDEEF0"/><circle cx="92.5" cy="17.5" r="2.5" transform="rotate(90 92.5 17.5)" fill="#EDEEF0"/><circle cx="77.5" cy="2.5" r="2.5" transform="rotate(90 77.5 2.5)" fill="#EDEEF0"/><circle cx="77.5" cy="17.5" r="2.5" transform="rotate(90 77.5 17.5)" fill="#EDEEF0"/><circle cx="62.5" cy="2.5" r="2.5" transform="rotate(90 62.5 2.5)" fill="#EDEEF0"/><circle cx="62.5" cy="17.5" r="2.5" transform="rotate(90 62.5 17.5)" fill="#EDEEF0"/><circle cx="77.5" cy="32.5" r="2.5" transform="rotate(90 77.5 32.5)" fill="#EDEEF0"/><circle cx="77.5" cy="47.5" r="2.5" transform="rotate(90 77.5 47.5)" fill="#EDEEF0"/><circle cx="62.5" cy="32.5" r="2.5" transform="rotate(90 62.5 32.5)" fill="#EDEEF0"/><circle cx="62.5" cy="47.5" r="2.5" transform="rotate(90 62.5 47.5)" fill="#EDEEF0"/><circle cx="107.5" cy="32.5" r="2.5" transform="rotate(90 107.5 32.5)" fill="#EDEEF0"/><circle cx="107.5" cy="47.5" r="2.5" transform="rotate(90 107.5 47.5)" fill="#EDEEF0"/><circle cx="92.5" cy="32.5" r="2.5" transform="rotate(90 92.5 32.5)" fill="#EDEEF0"/><circle cx="92.5" cy="47.5" r="2.5" transform="rotate(90 92.5 47.5)" fill="#EDEEF0"/><circle cx="77.5" cy="62.5" r="2.5" transform="rotate(90 77.5 62.5)" fill="#EDEEF0"/><circle cx="77.5" cy="77.5" r="2.5" transform="rotate(90 77.5 77.5)" fill="#EDEEF0"/><circle cx="62.5" cy="62.5" r="2.5" transform="rotate(90 62.5 62.5)" fill="#EDEEF0"/><circle cx="62.5" cy="77.5" r="2.5" transform="rotate(90 62.5 77.5)" fill="#EDEEF0"/><circle cx="107.5" cy="62.5" r="2.5" transform="rotate(90 107.5 62.5)" fill="#EDEEF0"/><circle cx="107.5" cy="77.5" r="2.5" transform="rotate(90 107.5 77.5)" fill="#EDEEF0"/><circle cx="92.5" cy="62.5" r="2.5" transform="rotate(90 92.5 62.5)" fill="#EDEEF0"/><circle cx="92.5" cy="77.5" r="2.5" transform="rotate(90 92.5 77.5)" fill="#EDEEF0"/><circle cx="47.5" cy="2.5" r="2.5" transform="rotate(90 47.5 2.5)" fill="#EDEEF0"/><circle cx="47.5" cy="17.5" r="2.5" transform="rotate(90 47.5 17.5)" fill="#EDEEF0"/><circle cx="32.5" cy="2.5" r="2.5" transform="rotate(90 32.5 2.5)" fill="#EDEEF0"/><circle cx="32.5" cy="17.5" r="2.5" transform="rotate(90 32.5 17.5)" fill="#EDEEF0"/><circle cx="17.5" cy="2.5" r="2.5" transform="rotate(90 17.5 2.5)" fill="#EDEEF0"/><circle cx="17.5" cy="17.5" r="2.5" transform="rotate(90 17.5 17.5)" fill="#EDEEF0"/><circle cx="2.5" cy="2.5" r="2.5" transform="rotate(90 2.5 2.5)" fill="#EDEEF0"/><circle cx="2.5" cy="17.5" r="2.5" transform="rotate(90 2.5 17.5)" fill="#EDEEF0"/><circle cx="17.5" cy="32.5" r="2.5" transform="rotate(90 17.5 32.5)" fill="#EDEEF0"/><circle cx="17.5" cy="47.5" r="2.5" transform="rotate(90 17.5 47.5)" fill="#EDEEF0"/><circle cx="2.5" cy="32.5" r="2.5" transform="rotate(90 2.5 32.5)" fill="#EDEEF0"/><circle cx="2.5" cy="47.5" r="2.5" transform="rotate(90 2.5 47.5)" fill="#EDEEF0"/><circle cx="47.5" cy="32.5" r="2.5" transform="rotate(90 47.5 32.5)" fill="#EDEEF0"/><circle cx="47.5" cy="47.5" r="2.5" transform="rotate(90 47.5 47.5)" fill="#EDEEF0"/><circle cx="32.5" cy="32.5" r="2.5" transform="rotate(90 32.5 32.5)" fill="#EDEEF0"/><circle cx="32.5" cy="47.5" r="2.5" transform="rotate(90 32.5 47.5)" fill="#EDEEF0"/><circle cx="17.5" cy="62.5" r="2.5" transform="rotate(90 17.5 62.5)" fill="#EDEEF0"/><circle cx="17.5" cy="77.5" r="2.5" transform="rotate(90 17.5 77.5)" fill="#EDEEF0"/><circle cx="2.5" cy="62.5" r="2.5" transform="rotate(90 2.5 62.5)" fill="#EDEEF0"/><circle cx="2.5" cy="77.5" r="2.5" transform="rotate(90 2.5 77.5)" fill="#EDEEF0"/><circle cx="47.5" cy="62.5" r="2.5" transform="rotate(90 47.5 62.5)" fill="#EDEEF0"/><circle cx="47.5" cy="77.5" r="2.5" transform="rotate(90 47.5 77.5)" fill="#EDEEF0"/><circle cx="32.5" cy="62.5" r="2.5" transform="rotate(90 32.5 62.5)" fill="#EDEEF0"/><circle cx="32.5" cy="77.5" r="2.5" transform="rotate(90 32.5 77.5)" fill="#EDEEF0"/><circle cx="167.5" cy="2.5" r="2.5" transform="rotate(90 167.5 2.5)" fill="#EDEEF0"/><circle cx="167.5" cy="17.5" r="2.5" transform="rotate(90 167.5 17.5)" fill="#EDEEF0"/><circle cx="152.5" cy="2.5" r="2.5" transform="rotate(90 152.5 2.5)" fill="#EDEEF0"/><circle cx="152.5" cy="17.5" r="2.5" transform="rotate(90 152.5 17.5)" fill="#EDEEF0"/><circle cx="137.5" cy="2.5" r="2.5" transform="rotate(90 137.5 2.5)" fill="#EDEEF0"/><circle cx="137.5" cy="17.5" r="2.5" transform="rotate(90 137.5 17.5)" fill="#EDEEF0"/><circle cx="122.5" cy="2.5" r="2.5" transform="rotate(90 122.5 2.5)" fill="#EDEEF0"/><circle cx="122.5" cy="17.5" r="2.5" transform="rotate(90 122.5 17.5)" fill="#EDEEF0"/><circle cx="137.5" cy="32.5" r="2.5" transform="rotate(90 137.5 32.5)" fill="#EDEEF0"/><circle cx="137.5" cy="47.5" r="2.5" transform="rotate(90 137.5 47.5)" fill="#EDEEF0"/><circle cx="122.5" cy="32.5" r="2.5" transform="rotate(90 122.5 32.5)" fill="#EDEEF0"/><circle cx="122.5" cy="47.5" r="2.5" transform="rotate(90 122.5 47.5)" fill="#EDEEF0"/><circle cx="167.5" cy="32.5" r="2.5" transform="rotate(90 167.5 32.5)" fill="#EDEEF0"/><circle cx="167.5" cy="47.5" r="2.5" transform="rotate(90 167.5 47.5)" fill="#EDEEF0"/><circle cx="152.5" cy="32.5" r="2.5" transform="rotate(90 152.5 32.5)" fill="#EDEEF0"/><circle cx="152.5" cy="47.5" r="2.5" transform="rotate(90 152.5 47.5)" fill="#EDEEF0"/><circle cx="137.5" cy="62.5" r="2.5" transform="rotate(90 137.5 62.5)" fill="#EDEEF0"/><circle cx="137.5" cy="77.5" r="2.5" transform="rotate(90 137.5 77.5)" fill="#EDEEF0"/><circle cx="122.5" cy="62.5" r="2.5" transform="rotate(90 122.5 62.5)" fill="#EDEEF0"/><circle cx="122.5" cy="77.5" r="2.5" transform="rotate(90 122.5 77.5)" fill="#EDEEF0"/><circle cx="167.5" cy="62.5" r="2.5" transform="rotate(90 167.5 62.5)" fill="#EDEEF0"/><circle cx="167.5" cy="77.5" r="2.5" transform="rotate(90 167.5 77.5)" fill="#EDEEF0"/><circle cx="152.5" cy="62.5" r="2.5" transform="rotate(90 152.5 62.5)" fill="#EDEEF0"/><circle cx="152.5" cy="77.5" r="2.5" transform="rotate(90 152.5 77.5)" fill="#EDEEF0"/><circle cx="107.5" cy="92.5" r="2.5" transform="rotate(90 107.5 92.5)" fill="#EDEEF0"/><circle cx="107.5" cy="107.5" r="2.5" transform="rotate(90 107.5 107.5)" fill="#EDEEF0"/><circle cx="92.5" cy="92.5" r="2.5" transform="rotate(90 92.5 92.5)" fill="#EDEEF0"/><circle cx="92.5" cy="107.5" r="2.5" transform="rotate(90 92.5 107.5)" fill="#EDEEF0"/><circle cx="77.5" cy="92.5" r="2.5" transform="rotate(90 77.5 92.5)" fill="#EDEEF0"/><circle cx="77.5" cy="107.5" r="2.5" transform="rotate(90 77.5 107.5)" fill="#EDEEF0"/><circle cx="62.5" cy="92.5" r="2.5" transform="rotate(90 62.5 92.5)" fill="#EDEEF0"/><circle cx="62.5" cy="107.5" r="2.5" transform="rotate(90 62.5 107.5)" fill="#EDEEF0"/><circle cx="77.5" cy="122.5" r="2.5" transform="rotate(90 77.5 122.5)" fill="#EDEEF0"/><circle cx="77.5" cy="137.5" r="2.5" transform="rotate(90 77.5 137.5)" fill="#EDEEF0"/><circle cx="62.5" cy="122.5" r="2.5" transform="rotate(90 62.5 122.5)" fill="#EDEEF0"/><circle cx="62.5" cy="137.5" r="2.5" transform="rotate(90 62.5 137.5)" fill="#EDEEF0"/><circle cx="107.5" cy="122.5" r="2.5" transform="rotate(90 107.5 122.5)" fill="#EDEEF0"/><circle cx="107.5" cy="137.5" r="2.5" transform="rotate(90 107.5 137.5)" fill="#EDEEF0"/><circle cx="92.5" cy="122.5" r="2.5" transform="rotate(90 92.5 122.5)" fill="#EDEEF0"/><circle cx="92.5" cy="137.5" r="2.5" transform="rotate(90 92.5 137.5)" fill="#EDEEF0"/><circle cx="77.5" cy="152.5" r="2.5" transform="rotate(90 77.5 152.5)" fill="#EDEEF0"/><circle cx="77.5" cy="167.5" r="2.5" transform="rotate(90 77.5 167.5)" fill="#EDEEF0"/><circle cx="62.5" cy="152.5" r="2.5" transform="rotate(90 62.5 152.5)" fill="#EDEEF0"/><circle cx="62.5" cy="167.5" r="2.5" transform="rotate(90 62.5 167.5)" fill="#EDEEF0"/><circle cx="107.5" cy="152.5" r="2.5" transform="rotate(90 107.5 152.5)" fill="#EDEEF0"/><circle cx="107.5" cy="167.5" r="2.5" transform="rotate(90 107.5 167.5)" fill="#EDEEF0"/><circle cx="92.5" cy="152.5" r="2.5" transform="rotate(90 92.5 152.5)" fill="#EDEEF0"/><circle cx="92.5" cy="167.5" r="2.5" transform="rotate(90 92.5 167.5)" fill="#EDEEF0"/><circle cx="47.5" cy="92.5" r="2.5" transform="rotate(90 47.5 92.5)" fill="#EDEEF0"/><circle cx="47.5" cy="107.5" r="2.5" transform="rotate(90 47.5 107.5)" fill="#EDEEF0"/><circle cx="32.5" cy="92.5" r="2.5" transform="rotate(90 32.5 92.5)" fill="#EDEEF0"/><circle cx="32.5" cy="107.5" r="2.5" transform="rotate(90 32.5 107.5)" fill="#EDEEF0"/><circle cx="17.5" cy="92.5" r="2.5" transform="rotate(90 17.5 92.5)" fill="#EDEEF0"/><circle cx="17.5" cy="107.5" r="2.5" transform="rotate(90 17.5 107.5)" fill="#EDEEF0"/><circle cx="2.5" cy="92.5" r="2.5" transform="rotate(90 2.5 92.5)" fill="#EDEEF0"/><circle cx="2.5" cy="107.5" r="2.5" transform="rotate(90 2.5 107.5)" fill="#EDEEF0"/><circle cx="17.5" cy="122.5" r="2.5" transform="rotate(90 17.5 122.5)" fill="#EDEEF0"/><circle cx="17.5" cy="137.5" r="2.5" transform="rotate(90 17.5 137.5)" fill="#EDEEF0"/><circle cx="2.5" cy="122.5" r="2.5" transform="rotate(90 2.5 122.5)" fill="#EDEEF0"/><circle cx="2.5" cy="137.5" r="2.5" transform="rotate(90 2.5 137.5)" fill="#EDEEF0"/><circle cx="47.5" cy="122.5" r="2.5" transform="rotate(90 47.5 122.5)" fill="#EDEEF0"/><circle cx="47.5" cy="137.5" r="2.5" transform="rotate(90 47.5 137.5)" fill="#EDEEF0"/><circle cx="32.5" cy="122.5" r="2.5" transform="rotate(90 32.5 122.5)" fill="#EDEEF0"/><circle cx="32.5" cy="137.5" r="2.5" transform="rotate(90 32.5 137.5)" fill="#EDEEF0"/><circle cx="17.5" cy="152.5" r="2.5" transform="rotate(90 17.5 152.5)" fill="#EDEEF0"/><circle cx="17.5" cy="167.5" r="2.5" transform="rotate(90 17.5 167.5)" fill="#EDEEF0"/><circle cx="2.5" cy="152.5" r="2.5" transform="rotate(90 2.5 152.5)" fill="#EDEEF0"/><circle cx="2.5" cy="167.5" r="2.5" transform="rotate(90 2.5 167.5)" fill="#EDEEF0"/><circle cx="47.5" cy="152.5" r="2.5" transform="rotate(90 47.5 152.5)" fill="#EDEEF0"/><circle cx="47.5" cy="167.5" r="2.5" transform="rotate(90 47.5 167.5)" fill="#EDEEF0"/><circle cx="32.5" cy="152.5" r="2.5" transform="rotate(90 32.5 152.5)" fill="#EDEEF0"/><circle cx="32.5" cy="167.5" r="2.5" transform="rotate(90 32.5 167.5)" fill="#EDEEF0"/><circle cx="167.5" cy="92.5" r="2.5" transform="rotate(90 167.5 92.5)" fill="#EDEEF0"/><circle cx="167.5" cy="107.5" r="2.5" transform="rotate(90 167.5 107.5)" fill="#EDEEF0"/><circle cx="152.5" cy="92.5" r="2.5" transform="rotate(90 152.5 92.5)" fill="#EDEEF0"/><circle cx="152.5" cy="107.5" r="2.5" transform="rotate(90 152.5 107.5)" fill="#EDEEF0"/><circle cx="137.5" cy="92.5" r="2.5" transform="rotate(90 137.5 92.5)" fill="#EDEEF0"/><circle cx="137.5" cy="107.5" r="2.5" transform="rotate(90 137.5 107.5)" fill="#EDEEF0"/><circle cx="122.5" cy="92.5" r="2.5" transform="rotate(90 122.5 92.5)" fill="#EDEEF0"/><circle cx="122.5" cy="107.5" r="2.5" transform="rotate(90 122.5 107.5)" fill="#EDEEF0"/><circle cx="137.5" cy="122.5" r="2.5" transform="rotate(90 137.5 122.5)" fill="#EDEEF0"/><circle cx="137.5" cy="137.5" r="2.5" transform="rotate(90 137.5 137.5)" fill="#EDEEF0"/><circle cx="122.5" cy="122.5" r="2.5" transform="rotate(90 122.5 122.5)" fill="#EDEEF0"/><circle cx="122.5" cy="137.5" r="2.5" transform="rotate(90 122.5 137.5)" fill="#EDEEF0"/><circle cx="167.5" cy="122.5" r="2.5" transform="rotate(90 167.5 122.5)" fill="#EDEEF0"/><circle cx="167.5" cy="137.5" r="2.5" transform="rotate(90 167.5 137.5)" fill="#EDEEF0"/><circle cx="152.5" cy="122.5" r="2.5" transform="rotate(90 152.5 122.5)" fill="#EDEEF0"/><circle cx="152.5" cy="137.5" r="2.5" transform="rotate(90 152.5 137.5)" fill="#EDEEF0"/><circle cx="137.5" cy="152.5" r="2.5" transform="rotate(90 137.5 152.5)" fill="#EDEEF0"/><circle cx="137.5" cy="167.5" r="2.5" transform="rotate(90 137.5 167.5)" fill="#EDEEF0"/><circle cx="122.5" cy="152.5" r="2.5" transform="rotate(90 122.5 152.5)" fill="#EDEEF0"/><circle cx="122.5" cy="167.5" r="2.5" transform="rotate(90 122.5 167.5)" fill="#EDEEF0"/><circle cx="167.5" cy="152.5" r="2.5" transform="rotate(90 167.5 152.5)" fill="#EDEEF0"/><circle cx="167.5" cy="167.5" r="2.5" transform="rotate(90 167.5 167.5)" fill="#EDEEF0"/><circle cx="152.5" cy="152.5" r="2.5" transform="rotate(90 152.5 152.5)" fill="#EDEEF0"/><circle cx="152.5" cy="167.5" r="2.5" transform="rotate(90 152.5 167.5)" fill="#EDEEF0"/></svg>