<svg width="89" height="103" viewBox="0 0 89 103" fill="none" xmlns="http://www.w3.org/2000/svg"><g clip-path="url(#a)"><path d="M35.228 41.741l.01.94c-1.247.828-2.837 2.885-3.791 3.889-.65.683-1.352 1.322-1.993 2.037-1.457 1.642-1.61 1.298-1.617 2.3.727-.514 5.743-5.511 7.406-7.7l.004.458a4601.115 4601.115 0 0 0-5.051 5.487c-2.371 2.244-2.37 2.407-1.945 3.753 1.445-.345 2.847-.44 4.267-.942.504-.176 1.603-1.098 2.79-2.233l.005.483a.73.73 0 0 0-.075.075c-.208.2-.171.163-.335.382.135-.081.27-.163.412-.244l.025 2.456c-3.568.76-7.244 1.583-8.18 1.477.043-.395-.008-.044.073-.439.036-.181.08-.357.124-.538-.775-.846-2.413-8.153-2.35-8.78-1.486.334-2.966.661-4.439.988.137.282.274.557.418.826.125-.582-.07-.344.404-.558.375 1.315 1.926 6.593 1.804 7.62-3.855 1.637-11.108 1.584-13.786 3.238 1.283.087 4.944-.866 6.521-1.13 1.546-.276 5.52-1.136 6.63-.836-2.419.677-4.818.86-7.21 1.4-1.773.389-5.51.772-6.575 1.298-.288-1.351-.553-4.017-1.165-5.137.362.163.732.325 1.094.494a44.95 44.95 0 0 0-.324.457c-.196.87-.12.188.046 1.064.324-.338.656-.69.987-1.04a59.077 59.077 0 0 1-.468-1.02l.067-.732c.852 0 5.048 1.762 6.135 2.162 1.548.575 1.353.825 3.351.474 1.297-.22 1.148.293 4.273-.83-.496-1.189-.305-.707-1.212-1.044-.664-.263-.5-.476-1.284-.626-3.01-.567-1.306-.393-2.906-.974a1039.1 1039.1 0 0 1-4.14-1.374c-.679-.181-.958-.419-1.32-.538 1.288-.195 9.165 3.005 10.388 3.28-.7-1.278-9.274-3.788-10.314-4.319.466-.131.94-.27 1.414-.408l.16.62c.64-.038 1.28-.07 1.92-.108-.16-.338-.311-.682-.463-1.02-2.58.403-5.146.8-7.72 1.196.218.963.436 1.933.663 2.897l-.09 1.17c-.09-.263-.181-.538-.264-.807a245.108 245.108 0 0 1-.61-3.429l14.364-2.793-.181-.075a3.318 3.318 0 0 1-.272-.118c1.993-.09 4.4-.97 6.713-1.429 2.101-.422 4.452-.638 6.416-1.09.037-.107.08-.214.125-.327 0-.012-.016-.056-.024-.081a16.27 16.27 0 0 1 1.095-.202zM58.914 38.1h.79c0-.853-.79-.853-.79 0zM39.322 66.792h.917c-.133-1.648.109-3.623-.056-5.428-.07-.758.038-1.26-.615-1.503-.345.257-.369.144-.431.639-.154 1.09-.032 4.512-.09 6.185-.06 0-.12 0-.181-.006-.145-2.093-.091-6.787.048-7.808 2.53-.17 5.098-.322 7.648-.053.173.476.206 6.068.157 7.974h.553c-.224-1.88-.181-6.921.08-8.144.266.031.53.057.796.081a2970.7 2970.7 0 0 0-.126 8.063h1.456l-.005-.301c1.177-.859 2.345-1.725 3.52-2.584l-2.894 2.885h.705c1.06-.96 2.129-1.919 3.196-2.885-.071.282-.999 1.474-2.18 2.885h.583l2.008-2.276c-.12.47-.704 1.373-1.349 2.276h.41c.94-1.31 1.703-2.314 1.935-2.484-.448.834-.896 1.656-1.337 2.484h.447c.713-1.342 1.324-2.352 1.685-2.484-.373.74-.73 1.618-1.07 2.484h.386c.554-1.273 1.108-2.471 1.286-2.684-.03.426-.344 1.524-.718 2.684h.538c.072-.22.144-.439.216-.665-.027.226-.06.445-.095.665h1.41l.437-3.487a77.794 77.794 0 0 1-.035 3.487h.25c-.002-.799-.212-2.3.167-2.912.07.448.088 1.513.174 2.912h1.955c-.228-.828-.417-1.612-.482-2.277.177.194.582 1.16 1.013 2.277h.348c-.509-1.255-.956-2.484-.972-2.886.466.966.939 1.926 1.412 2.886h.47c-.37-.703-.694-1.405-.867-2.083.262.194.878 1.098 1.503 2.083h.516c-.549-.89-1.089-1.788-1.629-2.685.268.175 1.286 1.474 2.235 2.685h.5c-.919-1.23-1.845-2.46-2.755-3.695 1.145 1.236 2.306 2.465 3.46 3.695h.644c-1.17-1.23-2.338-2.46-3.506-3.695 1.44 1.236 2.875 2.465 4.317 3.695h.902c-1.405-1.23-2.81-2.46-4.212-3.695.533.138 3.121 1.92 5.508 3.695h.743c-1.894-1.362-3.779-2.73-5.654-4.097 2.481 1.367 4.972 2.735 7.473 4.097h.47c-1.213-.678-2.46-1.519-3.074-1.889-.844-.502-5.376-2.986-5.695-3.419 3.775 1.769 7.569 3.538 11.375 5.308h1.19c-.007-.019-.016-.038-.016-.057.129 0 .47-.012.584.013.053.019.114.031.175.044h1.531c.005-.383.09-.96.278-1.877 1.565-.139 2.168 1.236 2.592-.81-.944-1.061-1.674-.64-1.9-1.457-.25-.891.102-1.927.77-2.147.644-.22 2.267.244 1.594-1.2-.714-1.57-1.108.434-2.219-1.041-1.197-1.934 1.77-1.351 1.732-2.82-.033-1.25-1.506-.445-2.22-.602-.154-.722-.3-1.444-.447-2.178.829-.905 1.59-.001 1.554-1.433-.018-.697-.608-.772-1.08-.658-1.416.333.422.3-1.53.258-.243-.653-.486-1.305-.72-1.964.867-.566 1.458-.403 1.432-1.433-.017-.684-1.236-1.286-1.6-.2-1.325.002-2.412-1.372-2.043-1.994-.343-.822 2.07-.58-.057-2.392-.37.302-.73.598-1.092.887-.037.012-1.872.303-1.917-1.674-.006-.245 1.508-1.992-.444-1.989-.736 0-.68.785-1.365 1.395-4.147-1.1.618-3.578-2.263-3.575-1.058.002-.425.842-1.164 1.395-.55.264-2.18.204-2.2-.788-.02-1.016 1.07-1.99-.835-1.987-1.207.001.05 1.788-1.36 1.79-3 .003-1.714-.174-2.217-2.18-3.29.004-.198 2.183-2.352 2.185l-1.185.002c-1.673.002-.231-2.916-2.614-1.978l.085 2.376c-.667.12-1.333.234-1.991.348-1.026-.858.158-.904-.934-1.686-.456-.331-1.385-.268-1.294.748.107.658.215 1.317.33 1.968-.667.058-.83.208-1.061.31-.185-1.8.198-1.305.55-1.801-.197-.658-.205-1.229-.18-1.962.187-.07.374-.139.568-.208.317-1.33.041-3.148-.046-4.452-.114-1.611-.238-2.846-.226-4.533-.18-.068-.36-.137-.541-.212-.281-1.291.056-2.251.017-2.815-.03-.577-.05-.878-.449-1.078-.404.917-.381.948-.404 2.477-.346-.193-.423-.356-.653-.732.98-.478.136-1.473.31-2.339.097-.502.452-.208-.025-.696-.462.057-.192.138-.636.422.124.306.329.513.258.839-.228-.35-.313-.513-.541-.852-.213-.25-.418-.494-.623-.744-.16-.22-.498-.476-.6-.764-.154-.426.166-.42.248-.985a20.783 20.783 0 0 1-.606-.18c-.052-.533-.06-1.147-.09-1.693-.035-.858.034-.702.386-1.154-.413-.72-.102-1.398-.489-1.974-.17.114-.332.227-.494.34.2.445.257.313.221.959-.36-.294-.3-.169-.514-.57-.244-.475-.145-.269-.448-.688-1.022-1.395-1.652-6.502-.75-7.971-.44-.695-.461-.037-.439-1.197v-.056c.01-.389.02-.784.036-1.185-.03-.094-.129-.219-.181-.306-.177.075-.354.151-.524.22.026.301.138.376.139.414-.036.138-.064.27-.092.408.003.238.04.238.05.357.046.181.093.369.147.545-.104-.025-.513-.118-.61-.086-.324.082-.185-.044-.285.314.352.25.349-.039.735-.003.147.489-.4.108-.197.86.296 1.133-.116 2.601-.28 3.768-.13.934-1.068 3.9-1.425 4.472.025-.42.158-.483.096-.696-.14-.52.323.25-.129-.194-.06-.056-.18-.094-.247-.125-.37.866.18 1.316-.396 1.781a60.083 60.083 0 0 1-.232-.751c-.139.188-.002-.15-.153.3-.194.572.294 2.275.133 3.097-.176.915-.154.188-.566.721.34.965.231.633-.236 1.486-.256.483-.534.998-.964 1.243.049-.351.097-.696.153-1.047-.223.045-.439.095-.655.14.01.162.019.325.035.488.008.032.03.05.046.075.183.414.151-.495.162.545-.003.37-.118.759-.213 1.022a30.693 30.693 0 0 1-.315-.839c-.015-.05-.037-.063-.06-.088-.512.321-.346.434-.482 1.004-.086.345-.087.194-.123.339-.043.188-.03.037-.02.206.017.213.147-.113.094.52-.163.057-.327.114-.483.17a1.116 1.116 0 0 0-.33-.839c-.154.258-.308.508-.455.766.177.526.21.024.244.507l-.038.62c-.066.896-.118.915.136 1.73-.29.207-.462.132-.614.564-.284.778-.14 2.607-.138 3.484.008 1.604-.089 3.202-.066 4.75.445.331.488.124.572.939.058.564-.088.971.164 1.41.252-.226.115.269.227-.496.064-.413-.06-.84.19-1.184.311-.433.768-.465 1.332-.303.012-.276.025-.558.044-.84.467.15-.113.64.47 1.184-.003-.294.022-.79-.011-1.059-.034-.313.05-.12-.094-.363-.29-.495-.076-.094-.143-.057.307 0 .412.006.57.113.014.532-.022.714.357 1.02.131-.35.109-.332.104-.796h.404l-.264.508c-.22.533.086.3-.579.52.004.37-.088.916.02 1.23.179.494.232-.164.236.92A51.21 51.21 0 0 0 38 41.681c.033 1.022.246 3.91.044 4.713-.188.025-.376.044-.556.063-.005-2.544-.261-5.414-.491-7.964-1.191.208.1.225-.672.333a8.992 8.992 0 0 1-.444-.106 9.541 9.541 0 0 1-.204-.112c.001.125.035.476-.009.588-.131.383.394-.407-.155.201-.015.013-.067.082-.075.056-.015-.018-.06.038-.09.063.617 2.224.222 4.825.253 7.1.012 1.24.092 2.412.022 3.671-.039.652-.193 1.028-.178 1.724a64.908 64.908 0 0 1-.073 4.016l-.001-.132c-1.199.208-2.201.409-2.75.616-.995.307-1.982.608-2.96.91.99.162 1.906-.496 3.064-.196-1.213.326-2.419.646-3.625.966.472 1.46.773 3.126 1.035 4.617.221 1.14.45 2.274.671 3.407.04.282.057.458.043.577h.334c.074-.163-.3-.401.49-.232.471.106.41.113.457.232h4.744c-.051-1.291.163-2.57.201-3.917.027-1.084-.078-2.35.048-3.334.044-.15.095-.307.146-.457.248-.207.755-.088 1.066-.057-.01 2.545-.013 5.089-.014 7.64-.069 0-.137 0-.198-.007l.002.126c.394.006.796.006 1.197.006zm6.942 0h-1.357c.155-.96.06-2.877.06-3.454-.01-.702-.01-1.398-.02-2.087-.004-.314-.017-.709.032-1.016.007-.05.078-.357.145-.452.2-.3-.177-.219.397-.244.922-.05.742 2.764.74 3.799-.007 1.06-.12 2.206-.015 3.235.009.087.01.156.018.219zm-1.72 0h-1.296c.01-2.2-.661-7.371.81-7.014 1.07.257.173 5.159.486 7.014zm-2.804 0h-1.228c.09-2.018-.612-6.97.545-6.97.653.25.567.658.63 1.43.1 1.303.077 3.86.053 5.54zm-11.247 0h-.41c-.601-2.33-1.787-7.886-1.812-9.245 1.148 1.847 1.45 6.52 2.222 9.245zm-3.623 0h-.038c-.847-1.967-1.313-6.119-2.084-8.474-.855-.212-.945-.1-1.889.038-.657.089-1.367.17-1.94.283l-10.547 2.05c-.998.038-.356 0-.787-.15 2.517-.745 5.743-1.397 8.19-1.786 2.357-.364 6.799-1.7 7.522-.923.689 1.396 1.207 7.49 1.573 8.962zm-.879 0h-1.243c-.008 0-.008 0-.008-.006-.147-.57-.244-.276-.282-.314a2.23 2.23 0 0 0-.05.32h-2.062a9.975 9.975 0 0 0-.518-.382c-.113.125-.226.257-.339.382h-1.303c1.169-1.084 4.213-5.042 4.204-5.173 0-.088.068-.12.098-.175-1.35.645-2.149 2.774-3.356 3.582-.082.25.023.088-.217.457-.196.276.075-.031-.287.213-.21.482-.044.32-.588.658a5.84 5.84 0 0 0-.052.381c-.015-.018-.015.013-.014.057h-.395c.151-.15.302-.294.46-.438.03-.057.053-.195.083-.157.038.031.076-.119.098-.15.272-.282.03-.088.408-.351.165-.22.33-.445.504-.67.067-.257.141-.507.223-.764.254-.701.638-1.065 1.232-1.729 2.885-3.25 1.185-1.803 1.373-3.369.833.269.283-.633.859 2.01l1.172 5.618zm-10.504 0h-.72c.143-.294.233-.595.232-.92l-.77.92h-.765c.348-.188-.008.169.036-.557-.257.256-.409.081-.363.557h-2.743a5.642 5.642 0 0 0-.069-.4c-.297-1.596-1.116-3.637-.603-4.951 1.793.118 12.143-2.389 13.43-2.033-3.027.847-3.542 2.375-5.877 5.293-.603.695-1.191 1.396-1.788 2.09zm21.676-9.143c.408.013.816.025 1.232.031l.01.84a80.454 80.454 0 0 1-1.203-.025 29.627 29.627 0 0 1-.039-.846zm1.777.144c.548-.276 7.293-.36 7.61-.348-.026.263-.045.526-.064.783-2.546.077-5.091.147-7.63.21.029-.213.056-.426.084-.645zm-1.65-8.083c.048-1.09-.205-1.492.893-1.624.064 3.027.127 6.066.199 9.112l-1.179-.019c.026-2.494.053-4.982.086-7.47zm10.706-1.388c.063 1.73.306 8.056.017 8.947-.25-.05-.492-.113-.735-.17-.28-.576-.158-7.923.017-8.833l.701.056zm-8.934 8.888c-.352-.414-.505-7.99-.458-9.15 1.488-.29 6.288.064 8.08.15-.056 2.947-.112 5.906-.162 8.859a16.905 16.905 0 0 1-.574-.025c-.167-1.191-.01-4.501.007-6.075.013-1.78-.194-1.51-.228-1.736 0-.044-.023-.056-.046-.081-1.123-.1-.965 2.727-.99 3.668-.013.752.02 1.535.03 2.3.014 1.015.168 1.824-.26 1.925-.598-1.755.342-6-.46-7.992-.257.012-.505.019-.753.025-.834 2.565.182 5.435-.252 8.067-.438.013-.876.032-1.313.045.002-1.016.106-6.707-.072-7.69-.09-.483-.119-.483-.46-.683-.749.408-.723 2.582-.828 3.873-.105 1.386.141 3.027-.04 4.388-.435-1.755.302-7.684-.515-8.022-1.387-.055-.867 2.595-.84 3.648.024.764-.18 4.167.134 4.506zm-.221-10.892c-.385-.056-.334-.181-.34-.733l-.08-3.096c-.05-1.115-.27-2.794-.126-3.935 2.732.053 5.472.106 8.211.152.205 1.229.197 6.508.043 7.85-.234-.02-.46-.044-.686-.069-.268-1.467-.134-5.936-.484-6.757-1.864-.242-.72 3.348-.805 4.922-.018.338-.066.683-.084 1.015-.032.426-.001.49-.172.64-.283-.358-.037-2.796-.084-3.485-.077-1.323-.215-2.044-.462-3.203l-.668.038c-.635 2.007.135 5.215-.11 6.65l-1.49.059c.201-.803-.053-6.23-.276-6.706-1.227-.275-.998 2.019-.918 3.003.07.814.148 3.027-.107 3.691-.182-.125-.104.1-.162-.32l.003-.381c.062-1.787-.248-3.221-.273-4.776-.015-.62.087-1.479-.543-1.497-1.134-.03-.506 2.451-.444 3.21.077.883.198 2.945.057 3.728zm3.937-13.994c.688.5-.194 1.292.623 1.29-1.08.554-1.709-.06-2.217-.623.529-.22 1.058-.44 1.594-.667zm-1.748.31c-.24-.645-.035-1.021.49-1.505 1.339-1.25 3.607-.044 2.66 1.957-.364-.97-.355-.243-.776-.976.067-.019.134-.044.209-.07.126-.062.448-.05.322-.489-.219-.733-.216.057-.53-.507-.14.1-.282.195-.423.29a.178.178 0 0 1-.074.03 6.246 6.246 0 0 1-.313.145c-.615.472.188.082-.263.515-.118.12-1.109.515-1.302.61zm-2.471-3.988c.778.067 1.549.129 2.335.19-.09.063-.215.132-.312.207-.288.258-.089.05-.288.314 1.311-.46 1.233-.73 2.949-.45 1.768.285 1.212.067 2.968-.055.069.664.232 2.137.09 2.727.014-.088.198.188-.048-.245-.154-.282-.108-.169-.29-.338.451 2.213.32 1.937-.435 3.719.782-.347.477-.779.86-1.212l.033 2.326c-.743-.068-1.486-.136-2.222-.197.127-.063.596-.277.646-.453.015-.05.044-.056.067-.087-2.091.61-2.839.756-4.807-.213-.972-.481-.361-.156-.598.082.323.132.806.357 1.25.613-.831-.037-1.649-.073-2.474-.116.033-1.04.074-2.08.115-3.12.176.362.204.851.374 1.27.555 1.335.393.947.852 1.122-.216-.483-.306-.495-.513-.927.008 0 .389-.07.396-.07.3.025.189.094.583.513.934 1.02 2.263 1.206 3.63.847.859-.227 1.457-.29 1.84-1.388.496-1.43-.127-3.774-1.667-4.26-4.129-1.303-5.022 2.992-4.368 3.868l-.515.189c-.901-2.286.055-2.426.662-3.649-.834.321.021-.087-.327.189-.215.163-.833 1.11-.83 1.324.012-.91.024-1.818.044-2.72zm-1.74 6.545c-.198-.946.145-3.234.209-4.287.082-1.366-.139-3.834-.06-4.154 2.924.226 8.542.655 11.256.7.175.727.326 7.36.165 8.157-.801.064-1.197.165-1.186-.65a11.26 11.26 0 0 0-.094-1.819c-.038-.62-.07-1.24-.101-1.861.185-.646-.097.552.05-.195l.071-1.254c-.01-.163-.063-.796-.08-.884-.08-.413-.072-.357-.284-.557-.506-.344-3.668-.363-4.505-.362a363.86 363.86 0 0 1-3.763-.219c-.202.007-.15.013-.291.044-.023.007-.074.063-.09.038-.296-.482-.574 6.293-.63 7.34l-.667-.037zm10.57-8.116a45.076 45.076 0 0 1-.95-.086c.026-.752.197-1.354-.164-2.062.292.024.583.05.882.074l.232 2.075zm-9.505-.621c-.14-.533-.124-1.047-.017-1.586.091-.489.435-.464.974-.365-.29.207-.207 1.53-.203 1.937-.253.006-.507.013-.754.014zm-.057-3.152c.397-1.18.399-.377 1.036-1.425.263-.446.68-1.098.794-1.656 1.745.07 3.49.149 5.243.227.53 1.102 1.067 2.21 1.605 3.306-1.5.028-2.833-.289-4.311-.355-1.352-.06-2.912-.05-4.367-.097zm6.916-6.246c-.02.727.328 2.263-.097 2.79-.478-.632.297-1.198-.255-2.331-.861.202-.22 1.862-.535 2.37-.315-.2-.188-1.297-.254-2.35-1.162.536-.18 1.593-.626 2.308-.174-.776.027-1.422-.284-2.38-.948.409-.348 1.31-.536 2.32-.527-.432.115-1.467-.365-2.337-.695.396-.42.96-.425 1.787-.042.188-.077.376-.112.552-.407-.338-.199-1.604-.28-2.137-.27-.125.318-.233-.373-.068-.72.183.116 2.168-.48 2.157-.352-.13-.194.07-.178-.495.012-.3.04-.476.02-.802-.028-.476-.116-.996-.174-1.516 1.646.046 3.3.092 4.953.132zm-4.41-.717c-.082-.67.485-1.166.653-2.038.125-.677.467-1.361.651-2.039.256-.934.544-4.006.804-4.584.077 3.134-.147 5.347 1.538 7.988.183.295.365.589.548.877-1.4-.066-2.8-.131-4.194-.204zm-4.986 40.183a.963.963 0 0 0-.007.145c-.686.125-1.372.238-2.05.351-.06-.006-.144-.031-.22-.05a35.482 35.482 0 0 1 2.276-.446zm-.057 1.122c-.014.157-.02.32-.026.47a7.93 7.93 0 0 1-.539-.225c-.045-.026-.121-.076-.16-.094-.045-.026-.113-.076-.174-.107a3.02 3.02 0 0 1 .899-.044zm-.044.883c-.057 1.122-.114 2.237-.149 3.359-.342-.163-.676-.32-1.01-.489-.715-.375-3.685-1.947-4.19-2.548 1.692-1.066 3.74-.935 5.349-.322zm-.175 4.537c-.004.363 0 .72.004 1.084a17.488 17.488 0 0 1-.634-.59c-.663-.369-1.429.264-.818-.788.362-.145.916.03 1.449.294zm.006 2.124v.094c-.022-.025-.052-.05-.083-.082.023 0 .053-.006.083-.012zm-.015.74c-.007.118-.006.237-.012.35-.347.132-.694.25-1.034.37-.978-.013-.015.044-.562-.1.045-.044.082-.17.127-.132.054.044.105-.1.15-.119.785-.376 1.133-.426 1.33-.37zm14.385-.145c-.004-.258-.008-.508-.004-.766 1.516-.909 3.024-1.818 4.53-2.721-1.51 1.16-3.013 2.326-4.526 3.487zm-.003-1.192l.014-.633c1.24-.62 2.471-1.242 3.71-1.87-1.243.835-2.48 1.67-3.724 2.503zm.019-1.323c.004-.194.002-.395.006-.595 1.43-.527 2.851-1.054 4.28-1.588-1.426.728-2.852 1.456-4.286 2.183zm.005-1.122l-.004-.32-.004-.257c1.22-.301 2.382-.552 2.693-.483-.895.357-1.79.709-2.685 1.06zm-.012-.865l-.01-.615c1.23-.188 2.46-.39 3.689-.584-.231.2-2.068.753-3.68 1.199zm0-1.035l-.008-.489 4.479-.265c-1.493.258-2.986.503-4.472.754zm-.013-.821a21.36 21.36 0 0 1-.003-.702c1.754.05 3.508.099 5.27.142l.003.207c-1.759.12-3.519.233-5.27.353zm-.007-.94a16.84 16.84 0 0 1-.001-.621c1.62.219 3.24.431 4.868.637 0 .057.002.12.01.17l-4.877-.186zm-.008-1.104l-.007-.44c1.289.314 2.578.62 3.874.921a379.171 379.171 0 0 1-3.867-.481zm-.005-.809l-.009-.564c1.36.488 2.719.97 4.079 1.453-.84-.069-2.546-.488-4.07-.889zm-.017-1.154l-.009-.583c1.702.752 3.96 1.748 4.282 2.024-1.427-.476-2.854-.952-4.273-1.44zm-.018-1.178a11.11 11.11 0 0 1-.015-.527c1.468.808 3.242 1.81 3.49 2.143a1386.43 1386.43 0 0 1-3.475-1.616zm-.024-1.066c-.011-.27-.015-.54-.027-.803 1.418 1.009 3.922 2.813 4.123 3.083a740.326 740.326 0 0 1-4.096-2.28zm-.05-1.31l-.035-.897c1.037.814 3.979 3.214 4.574 4.085-1.511-1.059-3.022-2.123-4.538-3.188zm-.058-1.392a53.869 53.869 0 0 0-.054-1.091c1.746 1.823 3.494 3.653 5.244 5.47-1.73-1.453-3.456-2.913-5.19-4.38zm-.133-2.352c-.02-.37-.033-.733-.054-1.09 1.72 2.205 3.435 4.417 5.16 6.624-1.704-1.843-3.406-3.692-5.106-5.534zm-.098-2.056c-.025-.646-.042-1.291-.067-1.95 1.95 3.046 3.903 6.092 5.86 9.138-.617-.407-3.901-4.519-5.793-7.188zm-.082-3.436c.026-.294.068-.508.054-.934.406.043.452.094.86.194-.28.389-.527.49-.914.74zm28.813 16.643c.478.106.115.082.416.012.42-.088-.19-.043.735-.22.016.34.032.679.056 1.011-1.074 0-.91-.087-1.207-.803zm.76-1.011c-.246.414.258.358-.786.603l-.015-.603h.801zm-1.662 5.845c1.166-.295 1.398.515-.182.603.056-.195.119-.396.182-.603zm.169 1.005h.658c.28-.34-.05-.214.21.163-.178.182-.348.351-.518.527a18.58 18.58 0 0 1-.35-.69zm1.413-1.005a41.676 41.676 0 0 1-1.196-.609c.029-.063.058-.126.094-.194.37-.038.74-.07 1.11-.101-.008.301-.008.603-.008.904zm-2.695-13.07c.127-.075.253-.156.379-.238.261.22-.207.17.616.238-.305.477-.236.201-.38.798a11.261 11.261 0 0 1-.487-.201c-.043-.195-.085-.395-.128-.596zm.625 1.187c.342-.515.103-.409.792-.59l.402.4-1.194.19zm.157-1.589h-.791c.184-.778.07-.495.673-.803.037.27.074.54.118.803zm-.427-1.13c-.294.334-.101.196-.323.377-.524.422-.042.1-.64.353-.073-.27-.147-.534-.214-.804l1.177.075zm-4.68-4.063c.48-.672-.198-.068.366-.414.208-.126.358-.126.62-.183-.003 1.167.196.653-.579.999-.138-.132-.276-.264-.407-.402zm1.123.765l.09-.967h.497c.094.163.195.32.297.477-.275.163-.46.27-.884.49zm-.551-2.04l.01.478c-.78.02-.467-.05-.995.202.156-.748-.042-.534.58-.999.13.107.267.213.405.32zm-1.014-.613c-.174.257-.207.464-.207.464-.255.383-.026.176-.465.434-.175-.125-.344-.257-.512-.383.257-.27.514-.54.779-.81.13.1.267.2.405.295zm1.566 2.69c.82-.019.536.063 1.086-.207-.047.244-.075.665-.075.665-.1.176-.202.358-.296.534-.24-.333-.482-.659-.715-.991zm1.339 1.876c.367-.678-.11-.458.981-.484-.23 1.093-.075.634-.778.804a3.61 3.61 0 0 1-.203-.32zm.813.985c.165-.352.33-.71.502-1.074.234.333.468.659.71.991-.407.032-.813.058-1.212.083zm-.25-2.272c.025 1.01.063.389-.18.602-.328-.156.356-.2-.603.001.135-.326.27-.665.413-.998l.37.395zm2.986 9.314c.214-.829.153-.836 1.095-.905-.086.47-.165.942-.244 1.406-.283-.163-.567-.326-.85-.501zm.806-1.306c-.329.131-.658.27-.987.402l-.02-.797c.345.188.245.106.798.194.07.069.14.138.209.2zm-.23-1.005c-.19.496.35.402-.39.402l-.39-.226c.318-.584.296-.546.957-.37a5.245 5.245 0 0 1-.176.194zm-.625-1.199c.022.91-.23.773-.782 1.005 0-.332.006-.671.013-1.01.249.006.513.005.769.005zm-.079 13.29c-.036.057-.073.088-.093.195-.103.138-.198.276-.293.408-.458-.119-.25-.019-.608-.345.169-.239.338-.477.513-.71.156.151.319.308.481.453zm-16.05-12.06c-.005-.997 2.29-5.405 2.773-6.485.712-1.638 1.43-3.283 2.147-4.921.471.244.526.344 1.203.394-1.79 3.19-4.214 7.811-6.123 11.012zm-.48-.188c-.127-.294 1.202-4.311 1.478-5.085.207-.577.371-1.016.578-1.6.347-1.092.701-2.184 1.048-3.276.677-1.814-.103-2.497 1.894-1.451l-1.765 4.118c-.13.282-.202.464-.295.69-.909 1.99-2.041 4.608-2.938 6.604zm7.163-12.388c-.29.835-.39.679-.17 1.168a103.76 103.76 0 0 1-1.207-.589c.657-.183.452-.282 1.377-.579zm-1.803-.77c-.075.384-.15.76-.217 1.137-.762-.181-.557-.044-.763-.583.43-.29.325-.264.98-.553zm.716.157c.02.577.082.307-.099.64-.347.647-.357.17-.395.151.068-1.06-.267-.238.494-.791zm-14.614.412c.037-.54.082-.54.18-.997.282.257.563.507.853.751-.42.076-.742.127-1.032.246zm3.953-1.591c.275.25.557.495.839.739-.413.02-.825.032-1.238.045.13-.257.261-.52.4-.784zm2.166-.204c.168.584.088.32.42.79l-.999.001c.168-.69.067-.445.579-.79zm-4.164.087c.512 1.022 1.181 1.077-.177 1.11l-.016-.978c.059-.044.126-.088.193-.132zm-.986.315c.611.2.19-.308.6.394-.79.378-.779.152-.603-.595 0 .07.002.138.003.201zm-1.777.598c.998-.001.382-.057.596.2-.48.515.047.608-.514.283-.424-.25-.275.138-.085-.684 0 .07.002.132.003.201zm-.59.201c.28.652-.106.427.602.595l.007.395c-.45.101-.456.151-.989.196.112-.54.15-.483.177-1.186h.203zm-.993.397c.486.363.389-.59.41.79-.88-.069-.768-.107-.605-.79h.195zm-.563 1.988c.586.03.008.025.989-.202 1.224 2.388 2.46 4.788 3.696 7.176.415.935.83 1.862 1.245 2.797-.93-1.053-5.835-8.467-5.93-9.771zm5.08 6.774c-.948-1.812-1.888-3.617-2.827-5.429-.51-1.422-.69-1.303-.872-1.942.456-.139.912-.284 1.375-.428.92 2.444 1.847 4.883 2.776 7.334.416.94 1.584 4.007 1.61 4.659-.687-1.392-1.374-2.797-2.061-4.194zm2.663 3.999c-.619-.859-1.656-4.176-2.323-5.775a1012.17 1012.17 0 0 1-1.804-4.438c-.227-.539-.312-1.185-.457-1.762.486-.126.195 0 .598-.195h.789c1.06 4.05 2.123 8.106 3.197 12.17zm-2.81-12.767c.568.213.001.032.551.119.828.137-.386-.17.647.074.661 3.913 1.325 7.839 1.997 11.771-.572-.796-1.478-4.81-1.86-6.038-.343-1.117-1.56-5.098-1.334-5.926zm1.982-.058c.261-.114.522-.227.79-.34.342 1.04 1.198 11.402 1.237 13.566a6561 6561 0 0 1-2.46-13.145l.433-.081zm1.195.055c.723-.284.553-.195 1.393-.197.06 3.275-.085 5.972-.023 9.36.036 1.605.18 2.627.217 4.227h-.43c-.356-4.666-.81-8.75-1.157-13.39zm1.791-.197c2.118-.003 1.446.211.744 5.996-.138 1.08-.779 5.707-.727 7.25l-.017-13.246zm.618 11.761c.387-3.864.78-7.723 1.173-11.569.79.018.753.075 1.397.394-.86 3.715-1.713 7.442-2.57 11.175zm3.299-11.176c.328.244.614.288 1.075.394-1.071 3.182-2.13 6.37-3.19 9.564-.27.872-.153 1.493-.765 2.221-.001-1.26.962-4.862 1.275-6.205.27-1.192.768-5.346 1.605-5.974zm-2.853 13.628a.559.559 0 0 1-.01-.112l.01.112zm2.152-1.851c.201-.916 2.632-4.79 3.223-6.057.382-.823 1.734-2.675 1.96-3.73.342.188.242.107.808.194.13.069.266.138.403.2-.044 1.08-2.308 3.95-3.003 4.88-.623.834-2.717 4.267-3.39 4.513zm6.182-9.794c.219-.992-.419-.257.584-.798.003.145.025.446-.01.578-.096.427-.026.175-.186.42-.13-.062-.259-.131-.388-.2zm1.992.004c-.667.101-.427.063-.988.196-.03-1.4-.092-.42.373-.798.2.2.408.401.615.602zm-2.027-1.598c.213.79.37.451-.06.684-.2.107.075.339-.532-.282.146-.565-.08-.226.495-.402h.097zm-3.217-1.584c-.214.552-.047.301-.382.797h-.39c-.004-.915-.166-.77.58-.602.059-.063.126-.126.192-.195zm-1.19-.2c.032.873-.07.616.219 1.199-.453-.106-.461-.157-.996-.2l-.008-.395c.792-.22.458-.02.578-.779.069.063.138.12.206.176zm-.61-.394c-.246.791-.178.797-.986.597l.195-.395c.262-.063.53-.132.792-.202zm-.982.798c-.723.283-.544.201-1.385.202.343-.527.471-.483.775-1.073.2.294.402.583.61.871zm-1.21-1.19c-.127.771.215.577-.584.79.064-.194.127-.388.191-.59.126-.062.26-.131.394-.2zm-.993.202c.15.439.166.457.221.984-.33 0-.66 0-.991.002.21-.848.207-.145.376-1.187.128.07.257.138.394.2zm-.999-.394c.121.445.314.696-.144.702-.51 0-.013.082-.326-.187-.275-.245-.108-.144-.315-.395.262-.038.524-.076.785-.12zm-1.59.002c-.17.527-.148.54-.38.985-.03-.006-.868.183-.213-.984h.593v-.001zm-2.132.398c-.078.263-.156.527-.227.79-.455-.294-.628-.313-.809-.758.346-.006.69-.02 1.036-.032zm3.831 27.03c0-.025-.079-1.398.131-.27.043.227.04.885-.13.27zm20.714-2.16c.26-.182.177-.175.624-.175.029.226.065.439.1.659-.767-.1-.38-.05-.724-.483zm-.693.139c-.257.019-.431-.584-.053-.59.553 0 .083.59.053.59zm1.883-5.011c.024.05.07.063.08.125 0 .063.047.1.047.12.034.703.005.194-.057.42-.657.02-1.01-.477-.07-.665zm-1.787.78c.315-.698.003-1.094.583-.566.519.47.028.496-.583.565zm-.852-2.022c-.486-.107-.978-.125-.573-.546.523-.534.207-.182.573.546zm.744-2.21c-.103-.497.3-.66.118-.12-.014.038.019.728-.118.12zm1.528-.202c-.668.465-.43.351-.723-.2.488-.39.416-.585.723.2zm-2.694-4.111c.086.056.284-.166.37-.109.076.05.098.483.177.535a3.3 3.3 0 0 1-.155.157c-.117-.157-.282-.42-.392-.584zm1.516-.592c.077.647-.016.842-.652.742.09-.885-.172-.515.652-.742zm-2.949-3.105c-.11 1.306-1.156.127 0 0zm1.065-.484c.012.49-.02.433-.422.597-.264-.34-.262-.232-.049-.747.152.05.312.1.47.15zm-4.337-2.903c.067-.069.762.087.476.383-.17.17-.542-.313-.475-.383zm1.358-.472c-.135.66-.02.12-.37.277-.472-.57-.361-.653.246-.722.095.194.211.024.124.445zM55.87 40.871c.105-.013.21-.026.322-.044l-.322.044zm13.325 3.178c.335.2.67.401 1.005.596.03 1.33-1.14 1.783-1.763 2.568-.616.779-1.29 1.658-1.967 2.38-1.062 1.124-3.04 3.967-4.052 4.652 2.262-3.408 4.518-6.805 6.777-10.196zm1.415 1.084c.338.308.683.609 1.021.91-.192.784-7.443 7.686-8.413 8.202a3282.57 3282.57 0 0 0 7.392-9.111zm1.63 1.505c.2.239.402.477.618.709-3.143 2.5-6.285 5.007-9.425 7.5 2.939-2.738 5.872-5.476 8.806-8.209zm1.236 1.393c.134.232.274.458.415.677-.24.96-1.577 1.495-2.358 1.929-.908.497-1.657 1.055-2.55 1.615-.974.603-4.462 2.99-5.334 3.197 3.269-2.474 6.547-4.949 9.827-7.418zm.756 1.405c.23.427.465.853.702 1.274-3.764 1.854-7.518 3.695-11.269 5.542 3.516-2.267 7.04-4.547 10.567-6.816zm1.109 1.6c.072.47.15.935.23 1.4-3.77 1.339-7.543 2.678-11.305 4.016 3.684-1.802 7.386-3.606 11.075-5.416zm.23 1.406c.204.345.409.684.62 1.023-.053.263-.1.527-.146.785-3.984 1-7.978 2-11.96 3.005.698-.621 4.45-1.74 5.706-2.249.86-.358 1.876-.804 2.842-1.131.906-.32 2.488-.692 2.938-1.433zm.858 1.795c.2.47.408.941.616 1.406-4.25.673-8.501 1.34-12.755 2.014 4.047-1.138 8.091-2.282 12.14-3.42zm.837 2.404v-.007.007zm1.012.005l-.787.516-.019-.716c.267.069.533.138.806.2zm-1.14 1.206c.005.54.01 1.074.017 1.614-4.813-.212-9.632-.424-14.444-.642l-.003-.157 14.43-.815zm.438 2.75c.018-.17.037-.352.062-.527.262.175.523.357.792.527h-.854zm1.019.822c-.094.188-.188.364-.281.546-.24-.232-.474-.458-.706-.69.323-.075.646-.163.97-.245.003.138.006.264.017.39zm-1.424-.69c.056.12.111.232.167.345-4.672-.557-9.35-1.12-14.01-1.684a.556.556 0 0 1-.01-.125c4.607.218 9.223.43 13.833.635l.02.829zm.237 1.318c.336.144.665.295.994.433-.323.082-.647.17-.97.252a20.272 20.272 0 0 1-.024-.685zm-.403-.088c-.082.377-.156.754-.23 1.13-4.218-1.072-8.44-2.144-12.637-3.222 2.019-.001 4.498.651 6.5.933 1.45.194 6.012.28 6.367 1.16zm-.358 1.777l.019.772c-.843.207-4.865-1.167-6.02-1.662-1-.427-5.394-1.75-5.894-2.17 1.49.03 8.197 1.906 10.486 2.401.89.2 1.159.012 1.41.659zm-.3 1.369c-.223.477-.446.954-.67 1.418a5625.902 5625.902 0 0 1-11.514-5.445c4.045 1.341 8.117 2.684 12.185 4.027zM58.74 55.645c-.053.452-.097.904-.142 1.35a1.777 1.777 0 0 1 1.65 1.761 1.74 1.74 0 0 1-1.73 1.77 1.8 1.8 0 0 1-1.792-1.768c-.017-.979 1.219-1.77 1.729-1.77s.098 0 .143.006c.045-.445.09-.897.142-1.349zm11.54-13.907c.277-.025.562-.05.854-.082.005.207.01.408.013.602a18.605 18.605 0 0 1-.868-.52zm1.34-1.181c.181.728.258.458-.3.66-.607-.552-.329-.553.3-.66zm-4.965-.74c.804-.315.797-.63 1.057.255a50.841 50.841 0 0 1-1.056-.256zm-16.244-.909c.303.144.605.288.908.425-.3.058-.599.114-.899.165l-.009-.59zm17.446-.467c.178.27.26-.453.185.59-1.124.082-.757-.677-.185-.59zm-3.945.45a58.316 58.316 0 0 1-.996-.237c.445-.647.713-.76.996.237zm-9.537-.364c.21-.89.308-.86.784-.22-.261.075-.523.15-.784.22zm-3.786-.766c.286.545.225.03.07.64-.255.03-.553.182-.56-.276-.006-.37.154-.27.49-.364zm13.402-.156c-.764.051-.273.213-.636-.307.032-.238.156-.433.488-.308.628.238.162.577.148.615zm-4.888-1.066c.635.268.787.4.012.677-.632-.557-.217-.407-.012-.677zm-4.291.3c0 .47-.089.553-.45.521-.205-.219-.293.402-.152-.626.195.037.398.074.602.105zm5.809 27.676c-.078-.132-.157-.264-.235-.402.078.138.157.27.235.402zm-5.823-.407zm1.602-.201c-.066.132-.132.263-.198.401.066-.138.132-.27.198-.401zm-.803 0zm5.811-.201zm-4.604.401zm5.611 0zm-6.617-.4c-.067.068-.134.131-.2.2.066-.069.133-.132.2-.2zm-1.605 0c-.067.068-.134.131-.193.2.059-.069.126-.132.193-.2zm6.605-.209a.267.267 0 0 0 .062.063c0-.006-.076-.044-.062-.063zm-5 .208c.028-.144.063-.288.099-.439-.036.15-.07.295-.099.44zm-1 .401zm-.404-.608c-.067.07-.134.145-.2.208.066-.063.133-.139.2-.208zm.194-.194c-.067.069-.134.132-.194.194.06-.062.127-.125.194-.194zm7.005-.208a.428.428 0 0 0 .062.056s-.077-.037-.062-.056zm-6.812.001zm-1.788.81zm10.598-1.213c.139.132.27.264.409.402-.139-.139-.27-.27-.41-.402zm-.598.402zm-.598 0zm-6.217-.206a.26.26 0 0 0 .062.063c0-.007-.077-.038-.062-.063zm-1.397.207c.127-.075.255-.157.39-.232-.135.075-.263.157-.39.232zm8.011-.208zm-8.806.208zm10.611-.403c-.069-.063-.139-.138-.208-.207.07.069.139.144.208.207zm-3.417-.206a.27.27 0 0 0 .062.062c0-.006-.076-.038-.062-.062zm-6.606 0c-.067.07-.134.145-.193.208.06-.063.126-.138.193-.207zm9.017.206l-.665-.32.665.32zm-7.62-.4a.372.372 0 0 0 .061.056c-.007 0-.084-.037-.061-.056zm-1.203 0c-.067.07-.135.132-.194.195.06-.063.127-.126.194-.195zm9.62.193c-.267-.132-.534-.27-.81-.402.276.132.543.27.81.402zm-10.018-.4zm9.209-.002zm-9.015-.192c-.067.069-.134.131-.194.194.06-.063.127-.126.194-.194zm-.999 0c-.135.069-.27.132-.397.194.127-.062.262-.125.397-.194zm.398-.207zm8.802-.203a.487.487 0 0 0 .061.063c-.007-.007-.084-.044-.061-.063zm-7.807.002a.48.48 0 0 0 .062.062c-.008-.006-.084-.044-.062-.063zm-.802 0c-.067.075-.134.138-.193.2.06-.062.126-.125.193-.2zm9.002-.404a.372.372 0 0 0 .061.056c-.007-.006-.083-.037-.061-.056zm-8.608.002a.44.44 0 0 0 .062.056c-.008-.006-.084-.037-.062-.056zm9.614-.002l-.434-.113.434.113zm-10.415.003c.195-.075.39-.151.594-.226-.204.075-.399.15-.594.226zm9.4-.404c.016.019.04.037.062.056-.007-.006-.084-.037-.061-.056zm-8.605.003a.488.488 0 0 0 .061.056c-.007-.006-.083-.038-.061-.056zm-2.391.402c.459-.132.926-.264 1.392-.402-.466.138-.933.27-1.392.402zm12.6-.405zm-2.008-.2c.016.018.039.037.062.056-.008 0-.084-.038-.062-.056zm-9.2.203c.128-.076.255-.15.382-.232-.127.081-.254.156-.382.232zm10.606-.204c-.212-.025-.416-.063-.629-.094.212.031.417.07.63.094zm-10.015-.204a.261.261 0 0 0 .062.063c-.008-.006-.084-.038-.062-.063zm9.002-.197c.015.019.038.037.062.056-.008 0-.085-.037-.062-.056zm-10.003.003c.263-.082.526-.157.79-.233-.264.076-.527.151-.79.233zm11.004-.21c-.159-.02-.318-.038-.47-.063.152.025.311.044.47.063zm-9.809-.198c.016.019.031.044.054.063 0 0-.076-.044-.054-.063zm8.764-1.816a.48.48 0 0 0 .062.063c-.008 0-.084-.044-.062-.063zm-9.799.004zm10.996-.206zm-10.798-.195c.144.037.288.08.432.112-.144-.031-.288-.075-.432-.112zm10.594-.206l-.6.226c.202-.075.397-.15.6-.226zm-10.004-.196c.098.119-.008.006 0 0zm9.788-.406c-.127.075-.254.157-.389.232.135-.075.262-.157.389-.232zm.396-.2l-.396.2c.127-.063.261-.132.396-.2zm-.6-.201zm-9.594.205zm8.585-.406c.015.02.039.038.062.057-.008 0-.084-.038-.062-.057zm-9.185.205zm.59-.401c.187.204.253.277 0 0zm-.994.201c-.069-.063-.138-.125-.207-.2.07.075.138.137.207.2zm10.381-.406c-.066.068-.133.138-.2.2.067-.063.134-.132.2-.2zm-1.004 0zm-8.383.205zm9.587-.406c-.066.068-.14.138-.2.2.06-.062.133-.132.2-.2zm-1.004 0zm-8.19.004c.163.182.281.315 0 0zm-.593.2zm9.18-.405c-.135.069-.27.132-.397.2.127-.068.262-.131.396-.2zm-8.587.205c-.069-.07-.138-.132-.2-.2.062.068.131.13.2.2zm8.779-.406l-.193.2.193-.2zm-.8 0zm-8.178.205zm9.177-.406c-.066.07-.133.132-.2.2.067-.068.134-.13.2-.2zm-.8 0c-.066.07-.133.132-.2.201.067-.069.134-.131.2-.2zm-.596 0c-.066.07-.133.133-.2.202.067-.07.134-.132.2-.201zm-7.592.005c.204.23.22.246 0 0zm8.38-.206l-.192.201.193-.2zm-.6-.194zm.8 0zm-8.19-.203c.402.507.676.853 0 0zm8.383-.004zm-.8 0zm-6.394-.19c.202.343.344.583 0 0zm-.796-.207c.33.518.596.937 0 0zm-1-.194zm1 .194zm-.41-.596zm2.587-.402zm-2.198-.2c.273.47.544.94.817 1.404-.273-.463-.544-.934-.817-1.404zm22.22 3.495c-.056.17-.112.333-.16.49-.065.182-.128.352-.184.527-.27.737-5.243.465-6.501.788-1.951.252-5.172.261-7.077.262.925-.603 5.233-.644 6.766-.971 1.803-.132 5.424-1.146 6.995-.6l.161-.496zm-42.13-7.498l.004.432c-.366.332-.717.596-1.055.759.35-.389.7-.79 1.05-1.191zm-25.16-.768c.716.888.03.645 1.04.532-.528-.676-.227-.413-1.04-.532zm4.017 4.566c.158.12.098.107.408.276.03.018.362.175.437.2.469.162.484.143.974.093-.447-.4-1.126-.575-1.82-.569a309.79 309.79 0 0 1-3.063-1.362c-.784-.256-2.096-1.031-2.977-.83.437.738 5.31 2.174 6.04 2.192zm9.965 2.042c.242-1.196-1.256-7.326-1.867-9.06-.456.551-.34-.213-.297.776.016.27.223.908.307 1.19.284.914.37 1.383.555 2.291.28 1.397.916 3.356 1.302 4.803zM12.622 66.742a2.411 2.411 0 0 1-.54-1.672c.515.401.91.864.54 1.672zm3.065-1.497c-.015.195-.03.382-.036.57l-.652.057c.234-.526-.008-.389.688-.627zm-1.365-.625c0 .006.649-.89.108.607-.039-.2-.077-.4-.108-.607zm1.365.625c.157-.72.86-1.24 1.562-1.502-.414.576-.67 1.158-1.562 1.502zm.764-2.579c-.023-.15-.039-.3-.055-.457.084.088.535-.739.055.457zm-4.788 1.397c.166-.175-.675-.32.469-.263-.476.995-.25.32-.47.263zm6.099-.965c.276-.908.533-.97 1.15-1.716.535-.645.428-.92 1.25-1.196-.472.952-1.344 2.154-2.4 2.912zm-5.336-.005c-.59.031-.485.018-.969.4-.282-1.145.197-.494-.622-.932-.136.056-.226.106-.597.426-.129-.307-.258-.62-.387-.933 2.035-.451 4.091-.908 6.147-1.36-.051.426-.103.858-.147 1.284-.78-.1-1.22-.35-2.074-.463.546.782.167.282.88.932-.401.007-.931-.018-.946-.018-.295.188-.59.363-.884.538l-.184-1.108c-.212.1-.424.188-.628.276l.41.958zM31.099 65c-.122-.933-.052-.79.516-1.585-.055.602.023.84-.516 1.585zm.296-3.433c.712.056.598.056 1.19.344.707.326.477-.05.71.708-.694.07-1.456-.488-1.9-1.052zm-.76-1.403c.673.106-.025-.225.879.257.95.52.15-.02.7.588-1.468-.206-.674-.181-1.58-.845zm-3.326-9.269c.232.84.464 1.666.697 2.499.55-.05 1.108-.114 1.666-.17-.277.382.258.244-.736.489-.316.075-.934.144-1.175.176-.526-.708-.897-2.03-.452-2.994zM14 54.38c1.087.043.249-.082.733.4-1.562-.093-.15-.031-.733-.4zm-5.145 1.28c-.174-.776-.242-.532.022-1.215.445.413.89.82 1.337 1.226-.453 0-.906-.006-1.36-.012zm20.779-7.941c.11-.345-.222-.408.626-.728-.377.802-.081.163-.626.727zm-8.827 2.255c.008-.056.106.05.166.081-1.143.283-.789.452-1.32-.6.384.175.77.344 1.154.519zm6.3.302c-.548-.851-.55-1.227-.707-2.154-.056-.35-.125-.639-.173-1.002-.15-1.158.023-1.052.045-1.165.273 1.44.554 2.88.835 4.321zM10.95 52.703c.069.138-.105.451-.188.144-.167-.67.083-.338.188-.144zm8.062-3.524c.297.708.075.082-.081.495-.552-.463-.551-.269-.373-.92.521.344.21-.144.454.425zm12.338-3.343c.135-.814.293-.902 1.1-1.535-.203.958.488-.007-.36 1.027-.03.044-.508.345-.74.508zm-13.114 3.5c-1.243-.368.274.526-.565-.268-.476-.45-.002-.37.058-.42.167.238.334.463.508.688zm10.06-2.338c-.563-.945-.577-1.822-.825-2.83 1.178-.32 2.533-.974 3.721-.887.07 1.077.25.225-.753.715-.008.745-.025 1.49-.034 2.23-.409-.35-.316-.044-.415-1.121-.073-.67.07-.552-.34-1.002-.668 1.911-.133 2.017-.606 3.114-.097-.827-.194-1.66-.283-2.493-.218.05-.435.1-.645.145.6.826.445 1.208.18 2.13zm-1.659-2.692c.008.007.478-.463.402.388-.05.483.038.044-.358.458-.017-.282-.034-.564-.044-.846zm-6.149 1.773c-.903-.144.032.463-.806-.238.685-.019.338-.244.806.238zm-2.347.12c.347.232.285-.306.31.376.57-.451.46.119.525-.564.128.069.256.131.392.194-.029.4.49.118-.48.433.084.275.168.55.252.832-.581-.363-.62 1.146-.607-1.127-.203.113-.405.22-.6.326.053.17.114.332.174.495-.37-.213-.37-.3-.7-.206a17.455 17.455 0 0 1-.536-.475l1.27-.283zm-1.638.647c-.058.507-.022.126-.299.501-.552-.82-.596-.481.185-1.033.083.276.173-.013.114.532z" fill="url(#b)"/><path d="M14.402 66.023h60.292c3.867 0 7.388 1.59 9.944 4.154a14.29 14.29 0 0 1 4.187 10.114c0 3.945-1.604 7.525-4.187 10.115-2.556 2.563-6.077 4.154-9.944 4.154H65.1a6.533 6.533 0 0 1-1.885 4.068 6.284 6.284 0 0 1-4.454 1.866H31.113a6.283 6.283 0 0 1-4.453-1.866 6.533 6.533 0 0 1-1.886-4.068H14.402c-3.867 0-7.387-1.59-9.944-4.154A14.292 14.292 0 0 1 .271 80.291a14.29 14.29 0 0 1 4.187-10.114c2.556-2.563 6.077-4.154 9.944-4.154zm50.663 27.092h9.629c3.564 0 6.8-1.457 9.14-3.804 2.314-2.32 3.751-5.514 3.751-9.02 0-3.505-1.436-6.699-3.75-9.019a12.882 12.882 0 0 0-9.141-3.804H14.402a12.883 12.883 0 0 0-9.14 3.804c-2.314 2.32-3.75 5.514-3.75 9.02-.001 3.505 1.436 6.698 3.75 9.019a12.882 12.882 0 0 0 9.14 3.804H24.81a6.533 6.533 0 0 1 1.85-3.745 6.283 6.283 0 0 1 4.454-1.865h27.648c1.728 0 3.305.714 4.453 1.865a6.533 6.533 0 0 1 1.851 3.745zm-6.304-3.976H31.113c-1.386 0-2.64.563-3.545 1.47a4.798 4.798 0 0 0-1.417 3.39c0 1.314.543 2.514 1.417 3.39a4.992 4.992 0 0 0 3.545 1.47h27.648c1.386 0 2.64-.563 3.545-1.47A4.798 4.798 0 0 0 63.723 94a4.798 4.798 0 0 0-1.417-3.39 4.993 4.993 0 0 0-3.545-1.47z" fill="url(#c)"/><path fill-rule="evenodd" clip-rule="evenodd" d="M16.227 79.755h-3.984v3.372h3.8l.104-1.41h1.794v3.225H8.628v-1.42l1.253-.243v-8.468l-1.253-.244V73.14h9.296v3.234h-1.81l-.105-1.408h-3.766v2.966h3.984v1.823zm37.425 14.938c0-.719.2-1.307.602-1.766.4-.458.954-.688 1.662-.688.71 0 1.265.23 1.667.687.4.456.601 1.045.601 1.767v.092c0 .725-.201 1.314-.601 1.77-.402.456-.955.682-1.658.684-.714-.001-1.271-.228-1.671-.684-.402-.456-.602-1.045-.602-1.77v-.092zm1.296.092c0 .44.077.792.23 1.058.155.266.403.398.747.398.333 0 .579-.134.733-.4.157-.267.234-.62.234-1.056v-.092c0-.429-.079-.776-.235-1.047-.158-.269-.404-.404-.741-.404-.338 0-.583.135-.738.404-.153.27-.23.618-.23 1.047v.092zm-4.267 1.58l.625-.133v-2.986l-.692-.133v-.784h1.99v3.903l.62.133v.78h-2.543v-.78zm1.922-5.19h-1.297v-.973h1.297v.974zm-4.138 5.382a1.583 1.583 0 0 1-.535.507 1.415 1.415 0 0 1-.703.175c-.592-.001-1.051-.217-1.379-.65-.327-.433-.49-1.006-.49-1.719v-.094c0-.76.165-1.372.492-1.838.329-.465.79-.699 1.386-.699.24 0 .455.053.647.158.193.106.363.255.507.448v-1.727l-.693-.134v-.782h1.99v6.03l.62.133v.78h-1.743l-.099-.588zm-1.81-1.687c0 .421.069.754.21.995.14.242.371.362.69.362a1 1 0 0 0 .494-.115.932.932 0 0 0 .34-.333v-2.043a.976.976 0 0 0-.339-.359.91.91 0 0 0-.486-.128.727.727 0 0 0-.693.424c-.144.282-.217.65-.217 1.103v.094zm-3.628 1.666a1.605 1.605 0 0 1-.57.519 1.632 1.632 0 0 1-.774.184c-.506-.001-.903-.163-1.19-.488-.288-.325-.432-.83-.432-1.516v-1.989l-.527-.133v-.784h1.826v2.915c0 .35.057.602.175.755.117.152.29.228.522.228.204 0 .38-.034.53-.099a.925.925 0 0 0 .367-.287v-2.595l-.568-.133v-.784h1.863v3.903l.582.133v.78h-1.718l-.085-.61zm-4.838-5.386v1.179h.844v.913h-.844v2.452c0 .187.04.32.115.4.077.08.182.12.312.12a2.01 2.01 0 0 0 .456-.05l.112.941c-.145.044-.29.078-.431.1a3.28 3.28 0 0 1-.461.034c-.447-.001-.791-.125-1.032-.371-.243-.246-.362-.636-.362-1.17v-2.456h-.706v-.913h.706v-1.18h1.29zm-2.55 1.584h-.97l-.17-.89a1.692 1.692 0 0 0-.493-.187 2.87 2.87 0 0 0-.687-.08c-.355 0-.629.074-.823.225a.7.7 0 0 0-.29.58c0 .22.1.4.302.54.203.142.553.291 1.05.449.714.197 1.255.46 1.623.787.368.326.553.755.553 1.287 0 .554-.22.992-.658 1.312-.438.32-1.015.48-1.73.482a3.758 3.758 0 0 1-1.388-.246 2.849 2.849 0 0 1-1.032-.676v-1.354h1.003l.138.922c.13.107.308.195.53.264.223.07.473.105.749.105.354 0 .624-.072.81-.218a.7.7 0 0 0 .276-.582.755.755 0 0 0-.264-.602c-.175-.15-.484-.293-.925-.427-.767-.223-1.346-.486-1.74-.793-.394-.305-.59-.723-.59-1.255 0-.523.222-.954.666-1.288.444-.334 1.002-.504 1.673-.513.497 0 .95.076 1.359.226.408.152.752.354 1.029.606v1.326zM31.232 73.14v1.427l-1.261.244v10.131H27.62L22.864 77l-.047.008v6.272l1.261.244v1.42h-4.876v-1.42l1.253-.244v-8.468l-1.253-.244V73.14h3.615l4.752 7.942.05-.005v-6.266l-1.262-.244V73.14h4.873zM41.75 83.628c-.38.379-.941.722-1.672 1.026-.734.305-1.661.457-2.782.46-1.59-.003-2.883-.534-3.88-1.602-.999-1.068-1.495-2.454-1.495-4.164v-.404c0-1.768.49-3.204 1.473-4.313.985-1.107 2.268-1.66 3.853-1.66.921 0 1.766.147 2.527.442.762.294 1.396.692 1.904 1.196v2.374h-1.747l-.33-1.58c-.216-.186-.5-.332-.853-.443a4.076 4.076 0 0 0-1.217-.166c-1.03 0-1.83.382-2.401 1.143-.571.76-.858 1.76-.858 2.99v.421c0 1.2.281 2.158.841 2.874.56.717 1.369 1.074 2.426 1.074.475 0 .858-.039 1.15-.122a2.5 2.5 0 0 0 .693-.282v-2.003l-1.683-.13v-1.66h4.051v4.529zm1.181 1.314v-1.42l1.253-.243v-8.468l-1.253-.244V73.14h4.876v1.427l-1.261.244v8.316h3.322l.114-1.483h1.801v3.298h-8.852zm9.694-10.375V73.14h4.876v1.427l-1.26.244v8.468l1.26.244v1.42h-4.876v-1.42l1.261-.244v-8.468l-1.26-.244zm14.714 2.344H65.57l-.309-1.622c-.204-.13-.502-.243-.897-.34a5.221 5.221 0 0 0-1.253-.147c-.645 0-1.145.136-1.498.41-.353.27-.53.625-.53 1.057 0 .4.185.727.552.985.37.257 1.007.528 1.912.816 1.3.36 2.285.838 2.956 1.433.67.595 1.007 1.375 1.007 2.343 0 1.01-.4 1.807-1.198 2.39-.797.584-1.849.875-3.151.877-.933-.002-1.775-.149-2.528-.448-.75-.296-1.377-.705-1.88-1.23v-2.466h1.828l.25 1.68c.238.193.561.354.967.48.405.128.86.192 1.363.192.646 0 1.137-.133 1.474-.399.336-.263.504-.617.504-1.06 0-.453-.16-.818-.48-1.095-.32-.274-.883-.534-1.686-.777-1.396-.407-2.45-.885-3.167-1.444-.718-.556-1.077-1.317-1.077-2.286 0-.954.406-1.737 1.215-2.346.808-.608 1.823-.918 3.046-.935.905 0 1.73.139 2.475.412.742.277 1.369.645 1.874 1.104v2.416zm1.1-2.344V73.14h4.877v1.427l-1.261.244v3.403h4.801V74.81l-1.261-.244V73.14h4.873v1.427l-1.26.244v8.468l1.26.244v1.42h-4.873v-1.42l1.261-.244v-3.24h-4.801v3.24l1.26.244v1.42H68.44v-1.42l1.253-.244v-8.468l-1.253-.244z" fill="#000"/></g><defs><linearGradient id="b" x1="6.991" y1="4.281" x2="82.104" y2="4.281" gradientUnits="userSpaceOnUse"><stop stop-color="#0E5FC2"/><stop offset="1" stop-color="#F00"/></linearGradient><linearGradient id="c" x1=".271" y1="66.023" x2="88.825" y2="66.023" gradientUnits="userSpaceOnUse"><stop stop-color="#0E5FC2"/><stop offset="1" stop-color="#F00"/></linearGradient><clipPath id="a"><path fill="#fff" d="M0 0h89v103H0z"/></clipPath></defs></svg>