<svg width="861" height="995" viewBox="0 0 861 995" fill="none" xmlns="http://www.w3.org/2000/svg"><path d="M340.804 403.228c.032 3.086.06 6.112.09 9.078-12.064 8.002-27.445 27.873-36.676 37.565-6.278 6.602-13.07 12.779-19.279 19.683-14.087 15.865-15.57 12.539-15.642 22.219 7.034-4.966 55.562-53.241 71.647-74.382.016 1.514.032 2.966.043 4.419-16.34 17.69-32.63 35.378-48.867 53.004-22.937 21.679-22.926 23.252-18.818 36.259 13.981-3.337 27.544-4.252 41.286-9.104 4.87-1.698 15.506-10.604 26.987-21.566l.048 4.66a6.932 6.932 0 0 0-.721.727c-2.021 1.938-1.66 1.574-3.245 3.693 1.307-.786 2.61-1.574 3.987-2.362.081 7.929.159 15.796.239 23.728-34.518 7.343-70.074 15.293-79.132 14.27.412-3.813-.074-.426.701-4.237.351-1.756.776-3.448 1.203-5.205-7.5-8.165-23.343-78.758-22.728-84.808-14.385 3.22-28.699 6.38-42.946 9.539 1.323 2.72 2.647 5.383 4.041 7.982 1.211-5.626-.671-3.326 3.905-5.389 3.632 12.7 18.635 63.686 17.453 73.607-37.293 15.811-107.462 15.303-133.368 31.278 12.418.841 47.829-8.367 63.087-10.915 14.96-2.67 53.4-10.976 64.146-8.079-23.404 6.546-46.619 8.312-69.754 13.525-17.158 3.758-53.314 7.463-63.612 12.546-2.785-13.056-5.352-38.811-11.265-49.626 3.503 1.57 7.078 3.138 10.58 4.767a422.321 422.321 0 0 0-3.136 4.417c-1.893 8.404-1.167 1.813.445 10.276 3.137-3.266 6.345-6.654 9.554-10.041a569.995 569.995 0 0 1-4.531-9.851c.215-2.36.435-4.656.65-7.074 8.24-.006 48.83 17.019 59.347 20.881 14.979 5.556 13.092 7.975 32.421 4.577 12.545-2.123 11.108 2.837 41.341-8.01-4.805-11.489-2.955-6.831-11.727-10.093-6.43-2.535-4.836-4.595-12.428-6.04-29.119-5.483-12.632-3.801-28.111-9.416-13.356-4.405-26.707-8.81-40.054-13.273-6.561-1.749-9.262-4.045-12.759-5.191 12.454-1.884 88.66 29.023 100.489 31.677-6.775-12.337-89.719-36.584-99.78-41.715 4.514-1.272 9.098-2.607 13.682-3.942.517 1.996 1.03 3.99 1.542 5.985 6.19-.368 12.382-.674 18.571-1.044-1.539-3.263-3.005-6.589-4.472-9.854a35702.957 35702.957 0 0 1-74.69 11.555c2.112 9.308 4.227 18.676 6.418 27.986-.292 3.809-.581 7.616-.871 11.306a249.604 249.604 0 0 1-2.555-7.799c-2.045-11-4.013-22.062-5.906-33.122 46.229-8.99 92.648-17.982 138.962-26.978-.584-.241-1.457-.604-1.749-.726-.949-.36-1.75-.723-2.626-1.145 19.276-.868 42.572-9.36 64.94-13.8 20.327-4.076 43.065-6.16 62.071-10.537.352-1.03.779-2.059 1.204-3.149-.002-.123-.151-.544-.225-.788 3.336-.729 6.89-1.399 10.591-1.948h.002zm229.136-35.185h7.64c0-8.243-7.64-8.243-7.64 0zM380.407 645.222h8.872c-1.286-15.92 1.053-34.993-.542-52.428-.672-7.328.37-12.17-5.949-14.529-3.335 2.482-3.568 1.392-4.171 6.176-1.49 10.535-.311 43.588-.862 59.751-.585 0-1.173.001-1.76-.059-1.4-20.22-.883-65.564.47-75.432 24.473-1.645 49.31-3.105 73.982-.51 1.672 4.601 1.993 58.623 1.518 77.032h5.353c-2.166-18.168-1.754-66.86.781-78.67 2.564.301 5.127.545 7.688.786-.427 25.921-.854 51.902-1.212 77.884h14.079c-.016-.909-.027-1.938-.043-2.907 11.381-8.298 22.681-16.659 34.048-24.959-9.374 9.331-18.68 18.598-27.993 27.866h6.818c10.263-9.268 20.594-18.537 30.917-27.868-.685 2.727-9.658 14.238-21.093 27.868h5.645c6.479-7.329 12.955-14.661 19.429-21.991-1.171 4.544-6.815 13.268-13.049 21.991h3.959c9.1-12.661 16.484-22.356 18.724-23.992-4.331 8.059-8.667 15.996-12.934 23.992h4.328c6.891-12.965 12.804-22.72 16.299-23.992-3.613 7.149-7.059 15.629-10.36 23.992h3.738c5.359-12.301 10.726-23.871 12.447-25.931-.295 4.12-3.332 14.724-6.949 25.931h5.207c.697-2.121 1.392-4.24 2.085-6.424-.254 2.184-.583 4.303-.912 6.424h13.638c1.408-11.209 2.816-22.481 4.224-33.688.202 11.027-.032 22.295-.339 33.688h2.418c-.021-7.713-2.052-22.21 1.622-28.133.671 4.329.843 14.621 1.68 28.133h18.915c-2.206-8-4.035-15.575-4.67-21.997 1.721 1.878 5.638 11.21 9.801 21.997h3.374c-4.925-12.12-9.257-23.996-9.405-27.876 4.501 9.331 9.077 18.604 13.658 27.876h4.544c-3.579-6.788-6.716-13.575-8.382-20.119 2.527 1.876 8.488 10.604 14.541 20.119h4.987c-5.306-8.606-10.533-17.272-15.759-25.937 2.596 1.696 12.444 14.24 21.623 25.937h4.839c-8.892-11.878-17.848-23.757-26.652-35.694 11.073 11.937 22.305 23.816 33.472 35.694h6.229a15063.359 15063.359 0 0 1-33.917-35.696 16615.325 16615.325 0 0 0 41.763 35.696h8.725a16641.676 16641.676 0 0 1-40.75-35.696c5.154 1.331 30.196 18.543 53.287 35.696h7.186a9937.52 9937.52 0 0 1-54.692-39.577c23.998 13.209 48.095 26.423 72.287 39.577h4.547c-11.733-6.547-23.789-14.671-29.73-18.247-8.165-4.848-52.017-28.844-55.102-33.026a41199.537 41199.537 0 0 0 110.051 51.273h11.512c-.077-.182-.155-.362-.161-.546 1.25 0 4.543-.122 5.65.123.518.18 1.106.302 1.697.423h14.81c.053-3.7.863-9.278 2.694-18.133 15.131-1.337 20.972 11.946 25.072-7.827-9.131-10.25-16.2-6.185-18.381-14.068-2.414-8.614.989-18.622 7.443-20.747 6.238-2.123 21.936 2.361 15.424-11.589-6.906-15.161-10.715 4.189-21.465-10.061-11.584-18.676 17.128-13.048 16.754-27.241-.32-12.07-14.571-4.299-21.471-5.812a1587.951 1587.951 0 0 1-4.333-21.042c8.02-8.74 15.394-.011 15.034-13.84-.174-6.732-5.878-7.456-10.445-6.36-13.695 3.225 4.087 2.907-14.807 2.497-2.344-6.306-4.692-12.612-6.963-18.978 8.388-5.465 14.11-3.893 13.857-13.84-.166-6.61-11.958-12.422-15.484-1.925-12.816.011-23.328-13.26-19.76-19.268-3.319-7.94 20.018-5.597-.554-23.103-3.567 2.915-7.063 5.77-10.558 8.561-.362.122-18.113 2.931-18.553-16.167-.055-2.366 14.593-19.239-4.291-19.215-7.118.005-6.585 7.586-13.209 13.475-40.116-10.623 5.98-34.565-21.89-34.53-10.231.016-4.108 8.13-11.255 13.474-5.319 2.552-21.09 1.964-21.285-7.612-.198-9.82 10.347-19.227-8.08-19.202-11.678.016.492 17.273-13.152 17.29-29.035.038-16.584-1.674-21.448-21.06-31.837.043-1.924 21.092-22.757 21.117l-11.467.016c-16.188.021-2.236-28.17-25.287-19.11l.819 22.958c-6.444 1.159-12.887 2.258-19.257 3.356-9.931-8.284 1.53-8.725-9.04-16.282-4.404-3.203-13.39-2.588-12.517 7.226 1.042 6.357 2.082 12.716 3.194 19.013-6.454.554-8.03 2.009-10.268 2.982-1.784-17.381 1.917-12.602 5.329-17.391-1.91-6.357-1.991-11.868-1.736-18.954a426.425 426.425 0 0 1 5.482-2.008c3.067-12.844.406-30.407-.438-43.004-1.106-15.565-2.301-27.498-2.189-43.79a186.678 186.678 0 0 1-5.234-2.051c-2.718-12.47.54-21.744.168-27.194-.301-5.573-.489-8.48-4.345-10.409-3.913 8.851-3.691 9.15-3.907 23.93-3.35-1.871-4.096-3.445-6.316-7.073 9.467-4.623 1.31-14.236 2.991-22.597.943-4.848 4.373-2.008-.24-6.722-4.467.552-1.856 1.335-6.151 4.069 1.2 2.966 3.179 4.96 2.501 8.111-2.213-3.388-3.033-4.961-5.244-8.228a538.514 538.514 0 0 1-6.019-7.193c-1.543-2.115-4.825-4.593-5.802-7.377-1.5-4.114 1.604-4.059 2.393-9.513-1.957-.539-3.911-1.141-5.867-1.745-.501-5.146-.584-11.08-.873-16.349-.329-8.295.339-6.783 3.738-11.151-3.987-6.953-.98-13.503-4.727-19.066a258.725 258.725 0 0 0-4.778 3.283c1.929 4.295 2.487 3.023 2.14 9.259-3.493-2.836-2.904-1.627-4.971-5.498-2.366-4.598-1.402-2.6-4.336-6.652-9.89-13.478-15.984-62.812-7.262-77.004-4.249-6.713-4.457-.352-4.242-11.557l-.005-.543c.096-3.756.19-7.57.354-11.446-.299-.908-1.245-2.116-1.758-2.962a328.133 328.133 0 0 1-5.064 2.134c.251 2.906 1.336 3.63 1.342 3.994a75.118 75.118 0 0 0-.884 3.938c.027 2.301.388 2.3.472 3.45.455 1.755.907 3.568 1.432 5.264-1.007-.24-4.966-1.138-5.894-.832-3.147.796-1.8-.417-2.761 3.035 3.401 2.413 3.368-.373 7.104-.021 1.421 4.718-3.862 1.038-1.907 8.301 2.868 10.951-1.12 25.132-2.705 36.396-1.253 9.028-10.329 37.688-13.789 43.205.241-4.056 1.528-4.664.929-6.723-1.356-5.022 3.123 2.416-1.246-1.874-.582-.542-1.739-.903-2.391-1.205-3.573 8.365 1.735 12.711-3.83 17.204a563.889 563.889 0 0 1-2.244-7.259c-1.345 1.819-.016-1.453-1.478 2.909-1.882 5.514 2.847 21.971 1.282 29.905-1.699 8.843-1.492 1.819-5.471 6.975 3.28 9.315 2.235 6.11-2.289 14.352-2.473 4.667-5.157 9.637-9.318 12.007.468-3.393.936-6.722 1.476-10.114-2.16.43-4.247.916-6.334 1.345.089 1.574.178 3.148.338 4.723.077.301.294.482.441.723 1.774 3.993 1.464-4.785 1.574 5.265-.037 3.572-1.149 7.327-2.062 9.871a298.501 298.501 0 0 1-3.047-8.104c-.148-.486-.366-.606-.583-.847-4.95 3.097-3.351 4.184-4.664 9.694-.833 3.331-.846 1.878-1.193 3.272-.417 1.817-.286.363-.196 1.997.165 2.057 1.432-1.092.919 5.023-1.583.549-3.169 1.096-4.678 1.643.026-4.238-1.729-6.595-3.19-8.107-1.49 2.486-2.983 4.909-4.404 7.395 1.715 5.081 2.027.237 2.362 4.899l-.372 5.992c-.637 8.658-1.142 8.84 1.323 16.705-2.8 2.003-4.47 1.28-5.947 5.457-2.747 7.512-1.345 25.183-1.335 33.658.08 15.494-.855 30.93-.636 45.88 4.309 3.203 4.726 1.204 5.53 9.072.561 5.446-.85 9.382 1.588 13.617 2.445-2.182 1.116 2.601 2.2-4.785.615-3.996-.587-8.11 1.845-11.443 3.004-4.181 7.425-4.489 12.882-2.923.118-2.664.235-5.389.423-8.114 4.512 1.449-1.096 6.179 4.547 11.437-.032-2.846.207-7.63-.109-10.229-.326-3.027.493-1.153-.909-3.511-2.806-4.779-.735-.907-1.385-.545 2.975-.004 3.991.057 5.525 1.084.127 5.146-.216 6.9 3.444 9.862 1.269-3.393 1.053-3.209 1.004-7.69l3.914-.005c-.852 1.637-1.703 3.272-2.557 4.908-2.119 5.148.832 2.904-5.6 5.033.037 3.571-.848 8.839.202 11.864 1.723 4.779 2.232-1.576 2.275 8.896-.061 7.688-.048 15.559.257 23.246.327 9.868 2.382 37.774.429 45.523-1.816.245-3.635.427-5.382.612-.048-24.579-2.526-52.301-4.75-76.934-11.522 2.011.967 2.175-6.499 3.215a86.897 86.897 0 0 1-4.296-1.023c-.217-.12-1.678-.906-1.97-1.086.01 1.209.337 4.598-.088 5.688-1.269 3.694 3.808-3.938-1.504 1.939-.145.122-.644.788-.721.545-.146-.181-.577.365-.865.607 5.959 21.482 2.144 46.606 2.44 68.58.121 11.983.891 23.303.213 35.47-.372 6.295-1.866 9.927-1.725 16.646.204 12.954-.106 25.847-.705 38.799-.004-.422-.005-.847-.01-1.27-11.595 2.003-21.291 3.946-26.606 5.945-9.618 2.97-19.164 5.88-28.639 8.789 9.587 1.566 18.448-4.79 29.652-1.89-11.738 3.152-23.404 6.241-35.074 9.333 4.572 14.099 7.482 30.194 10.014 44.596 2.14 11.013 4.354 21.966 6.499 32.918.389 2.725.55 4.419.413 5.57h3.227c.718-1.574-2.892-3.874 4.747-2.239 4.552 1.027 3.967 1.088 4.417 2.239l45.896-.002c-.497-12.47 1.571-24.818 1.945-37.833.255-10.472-.754-22.701.462-32.205.423-1.453.92-2.966 1.414-4.419 2.392-1.997 7.304-.85 10.306-.548-.095 24.579-.116 49.156-.136 73.795-.66 0-1.32 0-1.907-.061.004.424.011.849.016 1.212 3.812.059 7.697.059 11.584.059l-.004.002zm67.16.001h-13.126c1.49-9.266.58-27.795.58-33.365-.092-6.783-.108-13.503-.196-20.166-.042-3.027-.167-6.841.305-9.809.067-.485.758-3.453 1.405-4.362 1.936-2.908-1.71-2.118 3.843-2.362 8.917-.489 7.173 26.703 7.165 36.697-.076 10.233-1.171 21.317-.152 31.248.084.849.093 1.514.176 2.119zm-16.644 0h-12.539c.095-21.254-6.393-71.206 7.839-67.759 10.345 2.482 1.678 49.836 4.7 67.759zm-27.128-.001h-11.878c.869-19.494-5.916-67.323 5.275-67.327 6.319 2.421 5.488 6.357 6.094 13.805.959 12.593.749 37.296.509 53.522zm-108.804.001h-3.959c-5.823-22.51-17.29-76.181-17.535-89.312 11.102 17.848 14.026 62.989 21.494 89.312zm-35.044 0h-.367c-8.192-18.997-12.706-59.11-20.164-81.858-8.271-2.052-9.142-.965-18.273.37-6.355.851-13.221 1.639-18.773 2.729-34.044 6.607-68.031 13.209-102.032 19.809-9.658.367-3.439.002-7.611-1.448 24.347-7.202 55.558-13.503 79.236-17.261 22.794-3.515 65.769-16.418 72.759-8.918 6.668 13.489 11.681 72.359 15.225 86.577zm-8.506 0l-12.025-.001c-.073 0-.073-.001-.073-.06-1.425-5.506-2.361-2.664-2.729-3.025a21.32 21.32 0 0 0-.496 3.085h-19.941c-1.253-1.028-2.873-2.178-5.005-3.69-1.095 1.209-2.188 2.48-3.28 3.69h-12.61c11.308-10.465 40.756-48.702 40.674-49.972-.004-.847.654-1.149.943-1.693-13.066 6.231-20.785 26.801-32.467 34.605-.793 2.421.225.849-2.101 4.417-1.894 2.662.73-.304-2.777 2.057-2.03 4.659-.425 3.085-5.686 6.353-.216 1.21-.357 2.417-.497 3.688-.148-.181-.145.123-.143.545h-3.813a132.192 132.192 0 0 1 4.453-4.233c.29-.545.505-1.876.799-1.513.368.302.726-1.149.945-1.453 2.626-2.721.291-.845 3.942-3.387 1.602-2.116 3.204-4.296 4.878-6.474a143.864 143.864 0 0 1 2.16-7.378c2.459-6.775 6.174-10.284 11.923-16.699 27.905-31.404 11.462-17.423 13.274-32.549 8.061 2.599 2.743-6.111 8.312 19.417 3.775 18.09 7.557 36.18 11.34 54.27zm-101.619-.001h-6.963c1.384-2.843 2.255-5.744 2.246-8.889-2.483 2.964-4.968 5.926-7.451 8.889h-7.406c3.368-1.814-.07 1.634.355-5.382-2.489 2.48-3.958.786-3.509 5.382l-26.541.001a54.628 54.628 0 0 0-.664-3.869c-2.876-15.416-10.802-35.126-5.837-47.823 17.343 1.144 117.476-23.076 129.926-19.633-29.284 8.177-34.265 22.934-56.852 51.124-5.837 6.714-11.532 13.487-17.304 20.2zm209.699-88.318c3.95.119 7.895.239 11.918.298.032 2.725.058 5.387.09 8.109-3.878-.058-7.753-.117-11.628-.235-.176-2.725-.278-5.389-.38-8.172zm17.191 1.384c5.304-2.667 70.553-3.48 73.624-3.36-.257 2.544-.443 5.087-.625 7.571-24.626.735-49.253 1.411-73.806 2.024.27-2.058.539-4.117.807-6.235zm-15.969-78.083c.468-10.533-1.977-14.405 8.644-15.685.616 29.239 1.235 58.599 1.924 88.02l-11.4-.177c.253-24.092.507-48.125.832-72.158zm103.581-13.403c.609 16.714 2.959 77.824.163 86.424-2.418-.482-4.764-1.088-7.112-1.631-2.708-5.571-1.527-76.55.169-85.334 2.259.18 4.519.359 6.78.541zm-86.434 85.855c-3.404-3.993-4.885-77.185-4.427-88.382 14.388-2.799 60.826.614 78.17 1.447-.544 28.464-1.092 57.048-1.568 85.573-1.901-.061-3.728-.12-5.557-.239-1.62-11.507-.088-43.483.067-58.681.125-17.201-1.88-14.593-2.201-16.775-.005-.423-.225-.543-.449-.786-10.867-.961-9.336 26.349-9.579 35.433-.123 7.265.198 14.834.296 22.223.131 9.809 1.625 17.621-2.528 18.591-5.773-16.952 3.315-57.953-4.449-77.204-2.475.124-4.88.185-7.282.247-8.068 24.773 1.77 52.499-2.43 77.932-4.238.124-8.473.306-12.708.429.021-9.809 1.025-64.787-.696-74.291-.859-4.66-1.149-4.66-4.452-6.595-7.24 3.942-6.989 24.95-8.009 37.422-1.01 13.381 1.368 29.24-.376 42.38-4.216-16.951 2.915-74.228-4.993-77.491-13.414-.535-8.387 25.071-8.125 35.24.23 7.386-1.736 40.26 1.296 43.527zm-2.141-105.216c-3.719-.541-3.222-1.752-3.282-7.078-.255-9.927-.513-19.917-.772-29.906-.484-10.776-2.624-26.998-1.222-38.017 26.429.512 52.932 1.021 79.434 1.473 1.983 11.866 1.903 62.86.413 75.822-2.262-.181-4.447-.422-6.634-.66-2.597-14.17-1.3-57.349-4.678-65.278-18.038-2.339-6.975 32.346-7.79 47.546-.174 3.27-.638 6.6-.814 9.811-.31 4.117-.011 4.725-1.665 6.177-2.739-3.45-.358-27.007-.81-33.666-.751-12.778-2.078-19.739-4.477-30.939-2.175.124-4.353.249-6.456.373-6.148 19.382 1.301 50.377-1.069 64.245l-14.406.558c1.943-7.753-.519-60.183-2.68-64.782-11.867-2.65-9.646 19.505-8.879 29.012.674 7.868 1.438 29.24-1.033 35.66-1.761-1.207-1.009.971-1.565-3.085 0 0 .032-3.453.032-3.694.597-17.255-2.401-31.117-2.65-46.13-.142-5.993.85-14.289-5.249-14.464-10.968-.288-4.89 23.677-4.298 31.003.75 8.535 1.923 28.452.552 36.019h-.002zm38.089-135.185c6.654 4.836-1.87 12.477 6.029 12.463-10.439 5.347-16.529-.58-21.449-6.02 5.116-2.127 10.233-4.254 15.42-6.443zm-16.911 2.993c-2.32-6.23-.336-9.866 4.745-14.538 12.951-12.072 34.892-.419 25.736 18.911-3.529-9.38-3.437-2.356-7.511-9.435.647-.182 1.297-.425 2.018-.668 1.224-.608 4.34-.492 3.124-4.729-2.121-7.081-2.092.55-5.131-4.896a162.398 162.398 0 0 1-4.092 2.793c-.214.18-.504.243-.721.304-1.006.484-2.013.972-3.021 1.396-5.955 4.552 1.819.784-2.544 4.969-1.145 1.155-10.731 4.982-12.603 5.893zm-23.904-38.525c7.531.653 14.987 1.245 22.591 1.837-.862.608-2.084 1.274-3.016 2.004-2.79 2.487-.862.485-2.784 3.03 12.679-4.44 11.923-7.043 28.522-4.346 17.112 2.754 11.729.645 28.712-.535.667 6.416 2.244 20.647.877 26.343.131-.849 1.909 1.813-.468-2.362-1.486-2.723-1.038-1.633-2.796-3.266 4.355 21.372 3.084 18.708-4.212 35.92 7.564-3.343 4.607-7.519 8.316-11.702.108 7.51.212 15.02.315 22.468a2843.26 2843.26 0 0 0-21.492-1.906c1.226-.609 5.767-2.674 6.252-4.371.139-.484.427-.545.643-.847-20.226 5.902-27.461 7.304-46.5-2.052-9.405-4.649-3.497-1.508-5.79.795 3.133 1.266 7.797 3.44 12.105 5.915-8.052-.351-15.959-.702-23.94-1.114.321-10.051.717-20.101 1.112-30.152 1.706 3.509 1.976 8.232 3.615 12.284 5.367 12.889 3.8 9.136 8.241 10.826-2.083-4.659-2.953-4.779-4.959-8.955.074 0 3.761-.67 3.834-.67 2.902.237 1.821.906 5.637 4.956 9.035 9.855 21.89 11.654 35.113 8.183 8.31-2.192 14.101-2.806 17.799-13.409 4.805-13.815-1.227-36.457-16.123-41.154-39.944-12.583-48.585 28.901-42.256 37.368-1.658.608-3.319 1.216-4.98 1.823-8.723-22.083.529-23.429 6.402-35.245-8.07 3.102.205-.849-3.165 1.821-2.081 1.576-8.058 10.729-8.032 12.788.117-8.779.237-17.557.427-26.275zm-16.832 63.227c-1.91-9.137 1.404-31.238 2.02-41.408.8-13.199-1.339-37.047-.575-40.134 28.289 2.187 82.639 6.326 108.889 6.763 1.696 7.024 3.153 71.104 1.598 78.796-7.752.618-11.578 1.592-11.477-6.281.112-7.451-.074-10.298-.904-17.562-.374-5.997-.678-11.992-.979-17.987 1.789-6.24-.938 5.333.48-1.878.23-3.997.462-8.055.693-12.113-.094-1.576-.615-7.693-.772-8.539-.781-3.995-.701-3.452-2.755-5.387-4.891-3.321-35.485-3.507-43.584-3.496a3488.862 3488.862 0 0 1-36.401-2.113c-1.951.065-1.443.124-2.814.43-.217.06-.719.605-.866.364-2.87-4.656-5.555 60.789-6.098 70.898-2.175-.118-4.352-.235-6.455-.353zm102.257-78.396c-3.112-.239-6.152-.535-9.193-.833.258-7.267 1.911-13.086-1.583-19.921 2.822.235 5.644.474 8.536.71.746 6.721 1.494 13.383 2.24 20.044zm-91.952-6.006c-1.359-5.147-1.196-10.11-.17-15.317.887-4.724 4.212-4.489 9.423-3.53-2.795 2.003-2 14.777-1.955 18.711-2.455.065-4.913.13-7.298.136zm-.556-30.451c3.846-11.392 3.862-3.642 10.026-13.764 2.547-4.303 6.585-10.609 7.678-15.998 16.883.688 33.767 1.439 50.727 2.192a4443.97 4443.97 0 0 0 15.524 31.942c-14.508.272-27.402-2.792-41.706-3.429-13.077-.578-28.164-.488-42.249-.943zm66.906-60.33c-.192 7.024 3.179 21.854-.933 26.952-4.625-6.109 2.869-11.574-2.467-22.523-8.33 1.956-2.138 17.99-5.171 22.901-3.057-1.931-1.825-12.531-2.464-22.703-11.245 5.173-1.744 15.385-6.052 22.297-1.682-7.504.255-13.744-2.747-23.003-9.172 3.956-3.368 12.662-5.191 22.415-5.099-4.166 1.117-14.169-3.527-22.576-6.726 3.831-4.065 9.273-4.11 17.267-.409 1.815-.748 3.633-1.087 5.328-3.933-3.259-1.923-15.494-2.704-20.638-2.608-1.208 3.07-2.248-3.611-.659-6.967 1.77 1.118 20.944-4.651 20.837-3.405-1.263-1.868.67-1.717-4.78.112-2.905.38-4.602.198-7.749-.27-4.601-1.122-9.625-1.686-14.647 15.924.447 31.921.894 47.92 1.281zm-42.658-6.926c-.797-6.475 4.69-11.271 6.313-19.691 1.216-6.542 4.517-13.15 6.305-19.694 2.477-9.027 5.261-38.707 7.776-44.284.745 30.273-1.428 51.655 14.879 77.169 1.768 2.841 3.533 5.683 5.301 8.465-13.55-.634-27.096-1.267-40.574-1.965zm-48.241 388.174c-.068.484-.064.968-.06 1.394-6.636 1.211-13.275 2.305-19.84 3.397-.583-.061-1.39-.302-2.123-.485 7.29-1.756 14.657-3.032 22.023-4.306zm-.55 10.835c-.131 1.513-.188 3.087-.247 4.54a77.302 77.302 0 0 1-5.211-2.176c-.442-.245-1.176-.728-1.544-.908-.441-.243-1.103-.727-1.69-1.029 3.428-.608 6.203-.729 8.692-.427zm-.425 8.533c-.552 10.835-1.102 21.611-1.435 32.446-3.307-1.574-6.542-3.086-9.779-4.719-6.912-3.63-35.648-18.813-40.521-24.62 16.362-10.295 36.18-9.031 51.735-3.107zm-1.686 43.826c-.042 3.509-.004 6.959.032 10.47a171.13 171.13 0 0 1-6.135-5.689c-6.405-3.57-13.818 2.545-7.907-7.624 3.5-1.394 8.861.3 14.013 2.843h-.003zm.057 20.517l.005.909c-.221-.243-.516-.486-.814-.788.221 0 .513-.061.807-.121h.002zm-.149 7.141c-.062 1.153-.053 2.302-.113 3.392-3.361 1.27-6.72 2.419-10.01 3.572-9.458-.124-.143.423-5.434-.969.437-.425.791-1.635 1.233-1.272.52.425 1.019-.969 1.457-1.149 7.588-3.632 10.954-4.116 12.867-3.574zm139.166-1.395c-.037-2.486-.074-4.907-.037-7.391 14.666-8.784 29.248-17.571 43.82-26.294-14.607 11.209-29.15 22.477-43.781 33.685h-.002zm-.027-11.51l.13-6.116a8789.063 8789.063 0 0 0 35.888-18.059c-12.023 8.061-23.979 16.118-36.018 24.175zm.179-12.779c.042-1.878.015-3.815.056-5.754a10772.444 10772.444 0 0 0 41.407-15.334c-13.791 7.03-27.588 14.06-41.463 21.088zm.054-10.841l-.048-3.09c-.01-.788-.026-1.635-.037-2.483 11.811-2.911 23.042-5.336 26.053-4.67-8.653 3.454-17.31 6.847-25.969 10.243h.001zm-.125-8.359c-.032-1.999-.061-3.936-.088-5.936 11.894-1.821 23.789-3.764 35.683-5.642-2.236 1.939-20.003 7.273-35.595 11.578zm-.004-9.994c-.021-1.513-.048-3.148-.071-4.724 14.395-.853 28.864-1.704 43.328-2.559-14.441 2.488-28.884 4.856-43.257 7.283zm-.117-7.933c-.038-2.241-.069-4.544-.032-6.785 16.971.48 33.94.957 50.982 1.376l.031 2c-17.015 1.156-34.037 2.252-50.983 3.409h.002zm-.065-9.085c-.032-1.939-.059-3.938-.016-5.998a5775.36 5775.36 0 0 0 47.099 6.161c.005.545.016 1.151.097 1.635-15.727-.6-31.453-1.2-47.181-1.798h.001zm-.086-10.66l-.065-4.242a3710.227 3710.227 0 0 0 37.483 8.89c-12.523-1.509-24.97-3.019-37.418-4.648zm-.043-7.814c-.026-1.757-.055-3.634-.084-5.452 13.149 4.719 26.3 9.376 39.454 14.036-8.122-.664-24.627-4.714-39.37-8.584zm-.168-11.145c-.027-1.817-.057-3.695-.084-5.633 16.468 7.26 38.314 16.88 41.426 19.546-13.809-4.599-27.614-9.196-41.342-13.913zm-.17-11.387c-.099-1.635-.126-3.331-.151-5.087 14.206 7.804 31.373 17.486 33.761 20.697a13836.633 13836.633 0 0 1-33.61-15.61zm-.229-10.296c-.112-2.605-.151-5.209-.263-7.753 13.721 9.743 37.941 27.174 39.881 29.779a7223.84 7223.84 0 0 1-39.618-22.026zm-.482-12.658c-.116-2.907-.233-5.814-.349-8.661 10.037 7.865 38.495 31.048 44.256 39.466-14.622-10.231-29.235-20.517-43.907-30.805zm-.566-13.446c-.125-3.452-.323-7.026-.523-10.539 16.889 17.614 33.801 35.29 50.731 52.849a22791.932 22791.932 0 0 1-50.208-42.31zm-1.289-22.713c-.198-3.574-.323-7.086-.521-10.538 16.64 21.306 33.234 42.676 49.925 63.989-16.488-17.798-32.956-35.657-49.404-53.451zm-.951-19.866c-.239-6.238-.404-12.476-.644-18.835 18.86 29.419 37.76 58.844 56.699 88.273-5.976-3.935-37.749-43.649-56.055-69.438zm-.786-33.19c.249-2.847.652-4.907.52-9.024 3.931.418 4.374.903 8.314 1.868-2.707 3.758-5.092 4.73-8.834 7.156zm278.736 160.772c4.631 1.029 1.114.79 4.024.119 4.073-.851-1.841-.421 7.112-2.125.156 3.276.309 6.552.538 9.767-10.386.002-8.798-.847-11.674-7.761zm7.357-9.767c-2.385 4.003 2.498 3.456-7.602 5.826l-.147-5.822c2.56-.002 5.117-.004 7.749-.004zm-16.08 56.467c11.282-2.853 13.528 4.971-1.763 5.822.541-1.88 1.151-3.821 1.763-5.822zm1.632 9.703c2.123 0 4.248 0 6.372-.002 2.702-3.276-.489-2.06 2.019 1.576-1.715 1.761-3.36 3.397-5.005 5.095a205.131 205.131 0 0 1-3.386-6.669zm13.676-9.706a402.422 402.422 0 0 1-11.573-5.881c.279-.607.555-1.213.905-1.88 3.582-.364 7.161-.67 10.742-.972-.074 2.911-.074 5.822-.074 8.733zm-26.074-126.25c1.222-.73 2.445-1.519 3.663-2.31 2.53 2.123-2.001 1.642 5.963 2.302-2.949 4.611-2.285 1.942-3.676 7.704-1.619-.606-3.166-1.272-4.715-1.937-.411-1.88-.822-3.819-1.235-5.759zm6.042 11.456c3.308-4.976.997-3.944 7.663-5.704l3.891 3.877c-3.85.608-7.774 1.219-11.554 1.827zm1.52-15.344l-7.656.006c1.783-7.522.685-4.791 6.516-7.769.357 2.609.713 5.214 1.14 7.763zm-4.134-10.913c-2.835 3.217-.975 1.882-3.115 3.64-5.077 4.068-.415.971-6.188 3.402-.717-2.608-1.435-5.152-2.083-7.76 3.796.238 7.592.479 11.386.718zm-45.275-39.252c4.652-6.493-1.908-.665 3.546-4.005 2.009-1.216 3.464-1.218 5.997-1.765-.026 11.276 1.892 6.303-5.598 9.648-1.339-1.275-2.678-2.545-3.945-3.878zm10.867 7.387c.294-3.094.585-6.185.875-9.339 1.602 0 3.204-.003 4.802-.005.91 1.577 1.891 3.09 2.874 4.605-2.655 1.579-4.451 2.611-8.551 4.739zm-5.33-19.702l.106 4.609c-7.56.19-4.521-.48-9.63 1.95 1.509-7.218-.409-5.151 5.598-9.647a183.587 183.587 0 0 0 3.926 3.088zm-9.808-5.93c-1.688 2.488-2.007 4.489-2.007 4.489-2.464 3.699-.253 1.696-4.49 4.187-1.7-1.209-3.327-2.481-4.954-3.693 2.487-2.609 4.973-5.218 7.533-7.83a85.17 85.17 0 0 0 3.918 2.847zm15.148 25.996c7.93-.19 5.183.6 10.507-2.011-.454 2.364-.722 6.428-.722 6.428a184.144 184.144 0 0 0-2.863 5.155c-2.332-3.211-4.664-6.361-6.922-9.572zm12.951 18.118c3.558-6.552-1.055-4.425 9.499-4.678-2.222 10.553-.727 6.127-7.533 7.767-.68-.968-1.361-2-1.966-3.089zm7.873 9.513c1.593-3.397 3.187-6.855 4.851-10.374a761.622 761.622 0 0 0 6.861 9.576c-3.928.306-7.856.553-11.712.798zm-2.416-21.948c.232 9.761.598 3.756-1.756 5.82-3.166-1.511 3.448-1.94-5.824.006 1.306-3.154 2.613-6.43 3.993-9.645l3.587 3.819zm28.885 89.972c2.064-8.005 1.48-8.068 10.589-8.739-.834 4.548-1.595 9.098-2.358 13.586-2.743-1.575-5.488-3.151-8.231-4.847zm7.791-12.618c-3.18 1.274-6.36 2.609-9.544 3.887-.063-2.609-.127-5.156-.192-7.702 3.331 1.817 2.364 1.029 7.715 1.874a59.491 59.491 0 0 0 2.021 1.941zm-2.214-9.704c-1.853 4.793 3.381 3.88-3.774 3.886-1.259-.73-2.518-1.455-3.777-2.183 3.07-5.641 2.861-5.277 9.252-3.583-.566.667-1.134 1.274-1.701 1.88zm-6.057-11.58c.219 8.794-2.223 7.461-7.566 9.708-.006-3.213.059-6.487.123-9.763 2.409.059 4.964.057 7.443.055zm-.76 128.387c-.353.545-.711.847-.906 1.879-.993 1.336-1.914 2.67-2.836 3.942-4.427-1.151-2.422-.18-5.872-3.335 1.629-2.303 3.26-4.609 4.962-6.853 1.502 1.456 3.078 2.972 4.652 4.367zM592.54 520.349c-.043-9.635 22.158-52.22 26.83-62.649a18046.92 18046.92 0 0 1 20.771-47.541c4.557 2.359 5.088 3.329 11.64 3.807-17.316 30.811-40.769 75.462-59.241 106.383zm-4.639-1.819c-1.23-2.837 11.625-41.646 14.292-49.119 2.005-5.575 3.595-9.821 5.597-15.457 3.356-10.549 6.782-21.1 10.137-31.648 6.547-17.524-.997-24.122 18.322-14.021-5.684 13.28-11.377 26.498-17.075 39.78-1.255 2.727-1.949 4.485-2.851 6.667-8.794 19.221-19.75 44.52-28.422 63.798zm69.296-119.666c-2.806 8.067-3.783 6.551-1.645 11.278-3.893-1.874-7.788-3.75-11.678-5.685 6.358-1.767 4.374-2.733 13.323-5.593zm-17.449-7.434c-.723 3.697-1.445 7.336-2.095 10.974-7.374-1.75-5.387-.419-7.382-5.63 4.155-2.793 3.142-2.55 9.477-5.344zm6.934 1.506c.19 5.577.789 2.97-.96 6.185-3.356 6.247-3.452 1.641-3.82 1.458.654-10.242-2.591-2.3 4.78-7.643zm-141.377 3.985c.35-5.211.787-5.211 1.735-9.633a291.041 291.041 0 0 0 8.252 7.257c-4.056.734-7.173 1.222-9.987 2.376zm38.239-15.373c2.656 2.419 5.386 4.779 8.114 7.138-3.991.186-7.984.313-11.978.439 1.265-2.484 2.528-5.033 3.864-7.577zm20.95-1.966c1.629 5.634.855 3.089 4.061 7.63-3.269.003-6.464.005-9.66.01 1.624-6.667.648-4.303 5.599-7.641v.001zm-40.285.839c4.958 9.868 11.433 10.406-1.709 10.725-.054-3.15-.105-6.301-.157-9.453.573-.423 1.22-.849 1.866-1.272zm-9.537 3.04c5.916 1.931 1.841-2.971 5.803 3.809-7.639 3.645-7.529 1.463-5.833-5.747l.032 1.938h-.002zm-17.19 5.778c9.66-.011 3.695-.551 5.769 1.931-4.645 4.973.458 5.874-4.97 2.73-4.106-2.417-2.667 1.337-.83-6.6l.032 1.939h-.001zm-5.707 1.943c2.713 6.296-1.027 4.122 5.829 5.747.021 1.274.037 2.544.061 3.817-4.346.974-4.412 1.46-9.564 1.89 1.083-5.211 1.453-4.668 1.711-11.453l1.963-.001zm-9.603 3.828c4.701 3.507 3.761-5.699 3.967 7.628-8.512-.657-7.429-1.022-5.857-7.626l1.89-.002zm-5.452 19.208c5.675.295.076.241 9.568-1.949a20481.473 20481.473 0 0 0 35.757 69.325c4.014 9.024 8.03 17.987 12.048 27.012-8.995-10.172-56.456-81.791-57.373-94.388zm49.153 65.436c-9.178-17.5-18.271-34.939-27.355-52.438-4.942-13.745-6.669-12.593-8.437-18.768 4.413-1.337 8.823-2.736 13.307-4.134 8.888 23.614 17.864 47.173 26.856 70.853 4.018 9.084 15.324 38.703 15.579 45.004-6.654-13.447-13.304-27.014-19.95-40.517zm25.756 38.635c-5.984-8.297-16.018-40.34-22.474-55.784-5.845-14.293-11.686-28.582-17.451-42.875-2.193-5.207-3.019-11.447-4.418-17.018 4.704-1.217 1.888-.002 5.783-1.884 2.542-.002 5.085-.005 7.631-.01 10.254 39.124 20.541 78.314 30.929 117.568v.003zm-27.176-123.33c5.483 2.054.005.303 5.323 1.145 8.014 1.325-3.733-1.631 6.26.719 6.397 37.802 12.814 75.725 19.322 113.709-5.535-7.691-14.303-46.461-18.004-58.333-3.315-10.782-15.094-49.24-12.901-57.24zm19.171-.567c2.524-1.093 5.044-2.187 7.64-3.281 3.304 10.055 11.585 110.144 11.966 131.047-7.985-42.406-15.945-84.752-23.806-126.974l4.2-.792zm11.558.532c6.997-2.735 5.344-1.885 13.478-1.894.584 31.628-.83 57.687-.229 90.408.356 15.512 1.75 25.388 2.107 40.837-1.459.002-2.847.002-4.161.002-3.446-45.078-7.844-84.52-11.195-129.353zm17.328-1.9c20.488-.027 13.989 2.043 7.19 57.925-1.333 10.425-7.527 55.128-7.032 70.037l-.158-127.962zm5.976 113.614c3.746-37.331 7.553-74.603 11.35-111.755 7.632.172 7.28.719 13.514 3.8-8.314 35.888-16.577 71.893-24.864 107.955zM610.4 398.676c3.172 2.362 5.941 2.782 10.395 3.807-10.36 30.74-20.599 61.537-30.862 92.391-2.61 8.424-1.474 14.425-7.397 21.458-.011-12.181 9.312-46.972 12.34-59.943 2.618-11.517 7.431-51.644 15.524-57.713zm-27.6 131.653c-.08-.363-.088-.727-.094-1.09l.094 1.09zm20.821-17.888c1.942-8.849 25.459-46.265 31.179-58.513 3.693-7.943 16.775-25.837 18.955-36.023 3.313 1.815 2.351 1.027 7.822 1.87a74.37 74.37 0 0 0 3.897 1.935c-.427 10.427-22.323 38.152-29.053 47.129-6.025 8.067-26.28 41.234-32.8 43.602zm59.805-94.609c2.114-9.58-4.053-2.482 5.647-7.706.032 1.396.241 4.305-.096 5.579-.928 4.123-.255 1.696-1.801 4.064-1.25-.606-2.501-1.272-3.75-1.937zm19.27.037c-6.453.979-4.134.612-9.556 1.89-.301-13.519-.891-4.06 3.609-7.702a445.768 445.768 0 0 0 5.947 5.812zm-19.607-15.438c2.056 7.638 3.583 4.362-.583 6.611-1.941 1.031.726 3.272-5.147-2.723 1.408-5.458-.773-2.182 4.786-3.886l.944-.002zm-31.129-15.298c-2.069 5.336-.45 2.909-3.692 7.702-1.308.002-2.542.004-3.778.004-.037-8.849-1.603-7.453 5.62-5.824.568-.608 1.21-1.213 1.85-1.882zm-11.515-1.925c.315 8.424-.679 5.94 2.123 11.574-4.381-1.026-4.461-1.511-9.629-1.927-.026-1.274-.048-2.547-.078-3.819 7.66-2.131 4.429-.188 5.589-7.524.665.606 1.329 1.149 1.995 1.696zm-5.888-3.811c-2.387 7.64-1.733 7.698-9.542 5.769l1.885-3.821c2.53-.609 5.131-1.278 7.657-1.948zm-9.505 7.708c-6.992 2.735-5.266 1.944-13.399 1.955 3.315-5.096 4.558-4.672 7.497-10.373a371.699 371.699 0 0 0 5.902 8.418zm-11.698-11.499c-1.236 7.453 2.07 5.571-5.663 7.641.619-1.88 1.236-3.76 1.853-5.699 1.222-.607 2.516-1.276 3.81-1.942zm-9.62 1.948c1.463 4.243 1.612 4.423 2.142 9.514-3.196.004-6.391.005-9.587.011 2.025-8.183 2.007-1.396 3.635-11.459 1.245.665 2.492 1.332 3.81 1.933v.001zm-9.656-3.805c1.171 4.303 3.031 6.722-1.397 6.789-4.939.005-.13.788-3.157-1.814-2.657-2.36-1.042-1.391-3.047-3.814 2.536-.365 5.068-.731 7.601-1.161zm-15.389.022c-1.65 5.092-1.433 5.212-3.677 9.519-.292-.061-8.394 1.766-2.058-9.512l5.735-.005v-.002zm-20.624 3.843c-.755 2.545-1.51 5.092-2.193 7.636-4.406-2.842-6.08-3.021-7.823-7.319 3.339-.065 6.677-.191 10.016-.317zm37.065 261.124c-.004-.244-.764-13.511 1.271-2.606.407 2.182.379 8.544-1.271 2.606zm200.392-20.867c2.519-1.76 1.714-1.699 6.035-1.699.277 2.182.625 4.244.972 6.367-7.424-.97-3.676-.484-7.007-4.668zm-6.704 1.334c-2.487.182-4.173-5.64-.513-5.701 5.348-.002.805 5.701.513 5.701zm18.214-48.406c.231.487.674.609.764 1.214.016.606.464.97.468 1.152.325 6.795.048 1.881-.552 4.065-6.358.184-9.773-4.607-.68-6.431zm-17.284 7.528c3.043-6.733.021-10.554 5.637-5.461 5.019 4.548.271 4.791-5.637 5.461zM761.5 560.8c-4.703-1.029-9.459-1.209-5.539-5.273 5.056-5.158 2.001-1.76 5.539 5.273zm7.202-21.352c-.998-4.791 2.902-6.371 1.14-1.153-.139.363.18 7.036-1.14 1.153zm14.775-1.948c-6.456 4.491-4.148 3.396-6.989-1.937 4.721-3.764 4.018-5.644 6.989 1.937zm-26.057-39.715c.828.547 2.743-1.602 3.579-1.047.736.486.944 4.66 1.708 5.169-.496.547-.995 1.033-1.492 1.52-1.132-1.518-2.734-4.068-3.795-5.642zm14.662-5.709c.744 6.248-.157 8.128-6.305 7.161.875-8.551-1.661-4.973 6.305-7.161zm-28.524-29.999c-1.071 12.615-11.185 1.223 0 0zm10.3-4.68c.117 4.733-.188 4.186-4.081 5.766-2.559-3.272-2.532-2.241-.472-7.216 1.469.484 3.012.968 4.553 1.45zm-41.951-28.036c.638-.667 7.367.841 4.598 3.695-1.635 1.639-5.238-3.027-4.598-3.695zm13.129-4.562c-1.302 6.369-.19 1.153-3.572 2.674-4.57-5.515-3.499-6.305 2.378-6.977.916 1.878 2.04.239 1.194 4.303zm-184.531-29.98c1.016-.123 2.03-.245 3.119-.427l-3.119.427zm128.907 30.707a864.026 864.026 0 0 0 9.728 5.75c.29 12.852-11.04 17.228-17.062 24.81-5.956 7.522-12.477 16.016-19.03 22.991-10.269 10.856-29.406 38.327-39.2 44.939a71713.512 71713.512 0 0 1 65.564-98.49zm13.691 10.472c3.27 2.97 6.611 5.877 9.88 8.785-1.866 7.578-72.009 74.254-81.396 79.229 23.914-29.352 47.778-58.648 71.516-88.014zm15.763 14.537c1.948 2.303 3.892 4.604 5.984 6.845-30.41 24.157-60.804 48.367-91.176 72.449 28.428-26.446 56.801-52.895 85.192-79.294zm11.964 13.449a157.161 157.161 0 0 0 4.016 6.548c-2.332 9.278-15.256 14.442-22.814 18.631-8.786 4.797-16.029 10.196-24.663 15.599-9.43 5.826-43.178 28.88-51.61 30.885a47657.998 47657.998 0 0 1 95.071-71.663zm7.315 13.578a708.275 708.275 0 0 0 6.784 12.303c-36.41 17.913-72.725 35.7-109.011 53.539 34.01-21.899 68.109-43.928 102.227-65.842zm10.723 15.455c.694 4.546 1.459 9.035 2.223 13.521-36.466 12.938-72.972 25.872-109.364 38.803 35.638-17.416 71.45-34.836 107.141-52.324zm2.225 13.581a464.48 464.48 0 0 0 6.006 9.881c-.521 2.548-.97 5.095-1.421 7.582-38.537 9.661-77.175 19.321-115.694 29.037 6.747-6.003 43.038-16.81 55.198-21.726 8.318-3.463 18.15-7.771 27.49-10.929 8.761-3.098 24.072-6.685 28.421-13.845zm8.304 17.34a802.55 802.55 0 0 0 5.959 13.581c-41.113 6.508-82.243 12.954-123.393 19.457 39.152-10.988 78.274-22.04 117.434-33.038zm8.099 23.222l-.002-.06.002.06zm9.79.055a2152 2152 0 0 1-7.621 4.977c-.056-2.303-.115-4.608-.174-6.914 2.575.666 5.148 1.333 7.795 1.937zm-11.035 11.651l.164 15.586c-46.556-2.049-93.181-4.091-139.726-6.197a78.931 78.931 0 0 0-.032-1.515c46.513-2.623 93.093-5.25 139.591-7.874h.003zm4.239 26.56c.18-1.637.356-3.397.605-5.093 2.532 1.696 5.06 3.454 7.662 5.091l-8.267.002zm9.859 7.944c-.906 1.819-1.813 3.516-2.72 5.275a556.821 556.821 0 0 1-6.828-6.669c3.127-.728 6.252-1.579 9.38-2.369.032 1.335.062 2.549.168 3.763zm-13.775-6.669a163.543 163.543 0 0 0 1.617 3.334 86799.71 86799.71 0 0 1-135.542-16.267c-.08-.363-.088-.786-.097-1.211 44.577 2.107 89.232 4.154 133.824 6.139.064 2.729.131 5.397.198 8.005zm2.291 12.736c3.256 1.392 6.44 2.848 9.622 4.181-3.129.79-6.258 1.639-9.385 2.429-.128-2.186-.182-4.368-.237-6.61zm-3.901-.849c-.789 3.638-1.504 7.277-2.221 10.915-40.805-10.36-81.653-20.717-122.251-31.13 19.53-.011 43.509 6.291 62.883 9.013 14.018 1.874 58.16 2.714 61.589 11.202zm-3.456 17.161c.059 2.488.119 4.973.18 7.461-8.154 2.001-47.069-11.274-58.232-16.061-9.683-4.121-52.187-16.9-57.027-20.96 14.421.298 79.298 18.409 101.448 23.196 8.612 1.939 11.207.12 13.631 6.364zm-2.9 13.223c-2.162 4.606-4.322 9.217-6.484 13.702a54637.323 54637.323 0 0 1-111.395-52.604c39.135 12.962 78.524 25.928 117.879 38.902zm-170.351-91.426c-.505 4.364-.936 8.728-1.369 13.029 8.853.663 15.784 7.812 15.955 17.022.172 9.209-7.288 17.09-16.724 17.092-9.439.002-17.179-7.63-17.346-17.079-.164-9.451 11.794-17.094 16.727-17.095 4.93-.003.948-.001 1.388.06.433-4.301.864-8.665 1.369-13.029zm111.637-134.344c2.682-.245 5.439-.49 8.267-.796.048 2.001.088 3.94.131 5.82-2.873-1.635-5.673-3.268-8.398-5.024zm12.962-11.413c1.763 7.031 2.501 4.424-2.904 6.369-5.86-5.327-3.174-5.331 2.904-6.369zm-48.021-7.156c7.778-3.04 7.711-6.071 10.22 2.474a485.007 485.007 0 0 1-10.22-2.474zm-157.147-8.77c2.925 1.387 5.851 2.779 8.776 4.106a408.3 408.3 0 0 1-8.688 1.586c-.032-1.876-.059-3.754-.088-5.692zm168.769-4.519c1.727 2.603 2.52-4.37 1.794 5.695-10.874.801-7.328-6.536-1.794-5.695zm-38.166 4.352c-3.21-.723-6.419-1.506-9.63-2.29 4.306-6.249 6.896-7.345 9.63 2.29zm-92.261-3.517c2.033-8.606 2.98-8.306 7.586-2.131-2.528.73-5.056 1.461-7.586 2.131zm-36.627-7.404c2.767 5.267 2.181.3.676 6.179-2.464.304-5.344 1.762-5.412-2.659-.056-3.575 1.484-2.607 4.736-3.52zm129.654-1.506c-7.392.496-2.644 2.064-6.155-2.962.316-2.303 1.51-4.183 4.729-2.974 6.069 2.294 1.563 5.572 1.426 5.936zM571.77 352.97c6.14 2.597 7.617 3.867.121 6.545-6.121-5.385-2.105-3.936-.121-6.545zm-41.515 2.905c.004 4.544-.853 5.334-4.341 5.034-1.995-2.117-2.839 3.882-1.482-6.056 1.894.361 3.858.722 5.823 1.022zm56.199 267.351c-.756-1.275-1.514-2.547-2.27-3.878.756 1.331 1.514 2.603 2.27 3.878zm-56.33-3.935zm15.495-1.939zm-7.764.003c-.637 1.272-1.273 2.542-1.839 3.875.566-1.333 1.202-2.603 1.839-3.875zm56.216-1.947zm-44.536 3.883zm54.277-.005c-1.572-1.758-3.146-3.576-4.646-5.456 1.5 1.88 3.074 3.698 4.646 5.456zm-64.013-3.87c-.648.665-1.294 1.272-1.944 1.939.65-.667 1.296-1.274 1.944-1.939zm-15.524.002c-.65.665-1.3 1.272-1.874 1.937.574-.665 1.224-1.272 1.874-1.937zm63.898-2.01c.151.241.374.424.599.606-.002-.061-.742-.423-.599-.606zm-48.374 2.008c.271-1.396.611-2.788.954-4.243-.343 1.455-.683 2.847-.954 4.243zm-9.675 3.875zm-3.906-5.875c-.646.667-1.296 1.396-1.943 2.002.647-.606 1.297-1.335 1.943-2.002zm1.874-1.876c-.65.665-1.299 1.272-1.874 1.876.575-.604 1.224-1.211 1.874-1.876zm67.768-2.011c.151.182.375.363.596.544 0 0-.738-.362-.596-.544zm-65.898.01c-.65.666-1.297 1.335-1.87 2.001.573-.666 1.22-1.335 1.87-2.001zm-17.302 7.817c3.18-2.605 6.36-5.21 9.612-7.816-3.252 2.606-6.432 5.211-9.612 7.816zm102.525-11.709c1.344 1.272 2.616 2.545 3.96 3.88-1.344-1.335-2.616-2.608-3.96-3.88zm-5.778 3.88c-.672-.606-1.343-1.333-1.945-2 .602.667 1.273 1.394 1.945 2zm-5.784.002c-.672-.608-1.344-1.335-1.943-2 .599.665 1.271 1.392 1.943 2zm-60.15-1.992c.151.243.372.425.597.606-.002-.061-.74-.363-.597-.606zm-13.511 2.002c1.229-.726 2.463-1.514 3.769-2.243-1.306.729-2.54 1.517-3.769 2.243zm77.5-2.012c-.669-.606-1.341-1.213-2.013-1.878.672.665 1.344 1.272 2.013 1.878zm-85.19 2.013c1.224-1.332 2.52-2.605 3.817-3.877-1.297 1.272-2.593 2.545-3.817 3.877zm102.653-3.894c-.672-.607-1.347-1.334-2.019-2 .672.666 1.347 1.393 2.019 2zm-33.059-1.994c.153.241.376.423.599.603-.002-.061-.74-.362-.599-.603zm-63.909.01c-.646.667-1.295 1.394-1.868 2 .573-.606 1.222-1.333 1.868-2zm87.228 1.984c-2.14-1.029-4.286-2.058-6.428-3.089 2.142 1.031 4.288 2.06 6.428 3.089zm-73.717-3.864c.148.18.374.363.595.543-.072 0-.811-.363-.595-.543zm-11.637.002c-.649.667-1.299 1.272-1.874 1.878.575-.606 1.225-1.211 1.874-1.878zm93.075 1.861c-2.587-1.273-5.175-2.606-7.836-3.878 2.661 1.272 5.249 2.605 7.836 3.878zm-96.917-3.858zm89.081-.022zm-87.209-1.86c-.647.665-1.297 1.271-1.872 1.879.575-.608 1.225-1.214 1.872-1.879zm-9.662.002c-1.306.665-2.612 1.273-3.848 1.877 1.236-.604 2.542-1.212 3.848-1.877zm3.848-2.001c-1.306.665-2.614 1.331-3.848 2 1.234-.669 2.542-1.335 3.848-2zm85.149-1.96c.151.182.374.424.595.605-.072-.06-.812-.423-.595-.605zm-75.523.016c.149.183.374.424.595.606-.072-.061-.81-.423-.595-.606zm-7.756.002c-.648.727-1.296 1.333-1.87 1.941.574-.608 1.222-1.214 1.87-1.941zm87.08-3.899c.151.182.374.362.597.545-.074-.061-.811-.363-.597-.545zm-83.268.021c.151.183.372.363.596.544-.075-.06-.811-.361-.596-.544zm93-.021l-4.193-1.09 4.193 1.09zm-100.753.027c1.889-.728 3.776-1.457 5.743-2.184-1.967.727-3.854 1.456-5.743 2.184zm90.945-3.904c.15.183.374.363.595.547-.072-.063-.811-.364-.595-.547zm-83.256.027c.149.182.372.362.595.545-.074-.061-.811-.363-.595-.545zm-23.129 3.883c4.441-1.274 8.956-2.547 13.471-3.88-4.515 1.333-9.03 2.606-13.471 3.88zm121.893-3.911c-1.985-.605-3.902-1.27-5.818-1.937 1.916.667 3.833 1.332 5.818 1.937zm-19.425-1.933c.151.18.374.363.595.545-.072 0-.81-.365-.595-.545zm-88.997 1.964c1.232-.729 2.464-1.456 3.693-2.244-1.229.788-2.461 1.515-3.693 2.244zm102.604-1.968c-2.054-.241-4.033-.605-6.09-.907 2.057.302 4.036.666 6.09.907zm-96.89-1.971c.151.241.373.422.597.603-.076-.059-.812-.362-.597-.603zm87.084-1.907c.149.183.372.363.597.547-.074 0-.813-.364-.597-.547zm-96.769.032c2.548-.789 5.093-1.517 7.641-2.246-2.548.729-5.093 1.457-7.641 2.246zm106.456-2.032c-1.539-.183-3.078-.363-4.545-.606 1.467.243 3.006.423 4.545.606zm-94.893-1.91c.151.181.299.424.521.604 0 0-.736-.421-.521-.604zm84.783-17.543c.149.182.372.425.595.608-.074 0-.812-.426-.595-.608zm-94.795.038zm106.376-1.984c-2.542.729-5.088 1.458-7.702 2.249 2.614-.791 5.16-1.52 7.702-2.249zm-104.467-1.894c1.394.363 2.789.786 4.183 1.088-1.394-.302-2.789-.725-4.183-1.088zm102.488-1.984c-1.958.73-3.843 1.457-5.801 2.186 1.958-.729 3.843-1.456 5.801-2.186zm-96.778-1.895c.95 1.15-.072.06 0 0zm94.688-3.923c-1.227.729-2.454 1.517-3.754 2.247 1.3-.73 2.527-1.518 3.754-2.247zm3.833-1.939c-1.302.667-2.602 1.335-3.833 1.939 1.231-.604 2.531-1.272 3.833-1.939zm-5.809-1.935c-2.033.728-3.921 1.335-5.808 1.941 1.887-.606 3.775-1.213 5.808-1.941zm-92.81 1.982c-1.983-.606-3.892-1.21-5.804-1.937 1.912.727 3.821 1.331 5.804 1.937zm83.054-3.919c.151.185.374.365.598.547-.075 0-.811-.362-.598-.547zm-88.858 1.982zm5.708-3.881c1.812 1.972 2.454 2.674 0 0zm-9.61 1.945c-.668-.608-1.335-1.212-2.004-1.939.669.727 1.336 1.331 2.004 1.939zm100.424-3.927c-.642.664-1.286 1.333-1.93 1.939.644-.606 1.288-1.275 1.93-1.939zm-9.71.004zm-81.104 1.978zm92.747-3.923c-.642.665-1.359 1.333-1.933 1.941.574-.608 1.291-1.276 1.933-1.941zm-9.711.004zm-79.231.037c1.575 1.763 2.72 3.046 0 0zm-5.738 1.943zm88.802-3.923c-1.302.667-2.605 1.273-3.833 1.941 1.228-.668 2.531-1.274 3.833-1.941zm-83.064 1.98c-.668-.666-1.335-1.27-1.93-1.936.595.666 1.262 1.27 1.93 1.936zm84.924-3.921zm-7.74.005zm-79.114 1.98zm88.787-3.925c-.645.667-1.291 1.272-1.933 1.94.642-.668 1.288-1.273 1.933-1.94zm-7.739.004c-.646.666-1.289 1.272-1.934 1.941.645-.669 1.288-1.275 1.934-1.941zm-5.768.004c-.645.664-1.291 1.272-1.933 1.938.642-.666 1.288-1.274 1.933-1.938zm-73.448.037c1.978 2.216 2.125 2.378 0 0zm81.074-1.984c-.642.667-1.286 1.333-1.858 1.941.572-.608 1.216-1.274 1.858-1.941zm-5.803-1.876c-.633 1.275-1.263 2.547-1.823 3.821.56-1.274 1.19-2.546 1.823-3.821zm7.736-.003zm-79.236-1.955c3.887 4.895 6.542 8.238 0 0zm81.097-.043zm-7.739.004c-.642.664-1.287 1.333-1.858 2 .571-.667 1.216-1.336 1.858-2zm-61.857-1.845c1.962 3.319 3.333 5.638 0 0zm-7.698-1.995c3.188 5.002 5.769 9.048 0 0zm-9.667-1.873c1.93 1.939 3.859 3.876 5.864 5.754-2.005-1.878-3.934-3.815-5.864-5.754zm9.667 1.873zm-3.967-5.752c.607 1.333 1.286 2.605 1.964 3.876-.678-1.271-1.357-2.543-1.964-3.876zm25.032-3.893c.725 3.815 1.524 7.692 2.325 11.57-.801-3.878-1.6-7.755-2.325-11.57zm-21.265-1.925c2.634 4.542 5.264 9.084 7.898 13.565-2.634-4.481-5.264-9.023-7.898-13.565zm214.962 33.763c-.544 1.637-1.089 3.215-1.561 4.73-.617 1.758-1.232 3.397-1.776 5.095-2.603 7.116-50.719 4.487-62.889 7.608-18.877 2.431-50.034 2.525-68.458 2.531 8.949-5.822 50.617-6.222 65.454-9.38 17.443-1.275 52.468-11.067 67.671-5.793l1.559-4.791zm-407.582-72.439c.016 1.452.026 2.844.042 4.175-3.538 3.213-6.938 5.756-10.202 7.334 3.39-3.756 6.775-7.633 10.159-11.509h.001zm-243.397-7.412c6.932 8.579.298 6.228 10.059 5.131-5.109-6.524-2.193-3.99-10.059-5.131zm38.857 44.11c1.536 1.147.952 1.028 3.948 2.659.292.18 3.505 1.692 4.235 1.933 4.53 1.568 4.674 1.386 9.415.9-4.318-3.868-10.887-5.556-17.598-5.492a2994.826 2994.826 0 0 1-29.636-13.161c-7.584-2.475-20.276-9.961-28.802-8.02 4.232 7.132 51.361 21.005 58.438 21.181zm96.409 19.719c2.34-11.555-12.15-70.772-18.066-87.523-4.412 5.328-3.285-2.053-2.872 7.504.16 2.599 2.157 8.771 2.974 11.492 2.743 8.829 3.57 13.365 5.367 22.136 2.701 13.487 8.866 32.418 12.597 46.391zM122.109 644.739c-3.968-5.079-5.444-10.097-5.235-16.145 4.992 3.871 8.81 8.343 5.235 16.145zm29.647-14.455c-.141 1.875-.282 3.689-.348 5.504-2.125.18-4.249.363-6.303.545 2.257-5.081-.083-3.75 6.651-6.049zm-13.205-6.044c0 .058 6.277-8.589 1.042 5.865-.372-1.937-.743-3.871-1.042-5.865zm13.205 6.044c1.518-6.954 8.315-11.974 15.117-14.515-4.01 5.563-6.481 11.19-15.117 14.515zm7.39-24.917c-.223-1.45-.374-2.903-.526-4.415.808.848 5.173-7.137.526 4.415zm-46.317 13.493c1.608-1.693-6.525-3.083 4.535-2.538-4.598 9.614-2.411 3.083-4.535 2.538zm59.002-9.321c2.673-8.771 5.16-9.376 11.132-16.575 5.168-6.23 4.132-8.892 12.091-11.556-4.566 9.196-13.003 20.811-23.223 28.131zm-51.624-.053c-5.71.306-4.686.183-9.366 3.872-2.727-11.062 1.897-4.777-6.017-9.008-1.316.545-2.195 1.029-5.779 4.113-1.249-2.962-2.496-5.985-3.743-9.006 19.681-4.36 39.577-8.779 59.466-13.139-.5 4.114-.999 8.287-1.424 12.398-7.542-.964-11.793-3.383-20.066-4.47 5.288 7.557 1.617 2.721 8.513 9.008-3.88.063-9.005-.178-9.152-.178-2.851 1.813-5.7 3.507-8.553 5.201l-1.78-10.702c-2.046.968-4.094 1.815-6.07 2.662 1.326 3.084 2.647 6.167 3.971 9.249zm180.651 18.429c-1.177-9.017-.507-7.625 4.993-15.312-.534 5.81.219 8.11-4.993 15.312zm2.863-33.165c6.884.543 5.788.543 11.519 3.327 6.836 3.144 4.608-.484 6.869 6.837-6.726.667-14.096-4.718-18.388-10.164zm-7.359-13.554c6.52 1.028-.237-2.178 8.508 2.48 9.188 5.02 1.461-.182 6.779 5.687-14.21-1.994-6.526-1.755-15.287-8.167zm-32.172-89.539c2.248 8.106 4.494 16.093 6.744 24.138 5.32-.486 10.719-1.096 16.113-1.645-2.672 3.693 2.499 2.358-7.116 4.725-3.058.729-9.038 1.397-11.371 1.701-5.085-6.833-8.678-19.599-4.37-28.919zm-128.743 33.654c10.513.417 2.407-.788 7.093 3.865-15.115-.897-1.461-.301-7.093-3.865zm-49.775 12.36c-1.684-7.495-2.338-5.137.211-11.727a2251.08 2251.08 0 0 0 12.936 11.842c-4.383 0-8.763-.056-13.147-.115zM286.69 460.96c1.065-3.328-2.142-3.932 6.06-7.026-3.651 7.749-.789 1.575-6.06 7.026zm-85.39 21.789c.072-.545 1.024.483 1.608.784-11.066 2.731-7.633 4.362-12.781-5.796 3.722 1.691 7.449 3.321 11.173 5.012zm60.951 2.918c-5.305-8.224-5.331-11.855-6.85-20.808-.533-3.387-1.208-6.171-1.666-9.678-1.461-11.194.219-10.166.43-11.254 2.644 13.912 5.364 27.827 8.086 41.74zm-156.316 23.455c.658 1.331-1.016 4.356-1.824 1.393-1.612-6.469.8-3.266 1.824-1.393zm77.986-34.042c2.873 6.834.733.787-.781 4.78-5.337-4.472-5.33-2.596-3.606-8.889 5.042 3.323 2.034-1.392 4.387 4.109zm119.36-32.293c1.314-7.866 2.838-8.715 10.639-14.835-1.955 9.262 4.727-.067-3.476 9.927-.288.425-4.919 3.334-7.163 4.908zM176.423 476.6c-12.035-3.56 2.645 5.077-5.473-2.598-4.607-4.352-.016-3.567.566-4.052a176.257 176.257 0 0 0 4.907 6.65zm97.325-22.588c-5.456-9.133-5.591-17.603-7.99-27.343 11.397-3.097 24.509-9.403 36.002-8.568.672 10.407 2.419 2.174-7.286 6.906-.084 7.2-.243 14.403-.329 21.542-3.959-3.383-3.06-.419-4.02-10.827-.707-6.475.686-5.328-3.28-9.678-6.473 18.463-1.297 19.486-5.872 30.08-.936-7.986-1.874-16.034-2.735-24.081-2.105.484-4.21.972-6.245 1.398 5.808 7.982 4.308 11.674 1.755 20.571zm-16.053-26.003c.073.06 4.623-4.482 3.881 3.748-.476 4.659.368.423-3.46 4.42-.165-2.723-.329-5.446-.421-8.168zm-59.49 17.119c-8.741-1.382.314 4.476-7.797-2.292 6.622-.186 3.264-2.362 7.797 2.292zm-22.702 1.171c3.356 2.232 2.753-2.966 2.997 3.626 5.514-4.362 4.446 1.145 5.072-5.45a67.242 67.242 0 0 0 3.795 1.873c-.276 3.871 4.737 1.145-4.641 4.179.811 2.658 1.623 5.318 2.436 8.042-5.62-3.506-5.998 11.073-5.869-10.883-1.961 1.091-3.924 2.122-5.811 3.151.517 1.631 1.104 3.203 1.692 4.777-3.576-2.055-3.578-2.901-6.778-1.99-1.752-1.511-3.506-3.022-5.185-4.593 4.073-.91 8.218-1.821 12.292-2.732zm-15.847 6.243c-.566 4.899-.214 1.212-2.896 4.841-5.34-7.916-5.767-4.652 1.787-9.981.809 2.662 1.672-.121 1.109 5.14z" fill="#F9F9F9"/><path d="M139.33 637.795h583.269c37.412 0 71.472 15.369 96.203 40.128 24.99 25.016 40.502 59.603 40.502 97.708 0 38.107-15.514 72.692-40.502 97.71-24.731 24.759-58.791 40.13-96.203 40.13h-92.807a63.065 63.065 0 0 1-18.246 39.296c-11.106 11.118-26.364 18.021-43.084 18.021H300.993c-16.722 0-31.979-6.903-43.084-18.021a63.065 63.065 0 0 1-18.246-39.296H139.33c-37.412 0-71.471-15.371-96.202-40.13-24.988-25.018-40.502-59.603-40.502-97.71 0-38.105 15.512-72.692 40.502-97.708 24.73-24.759 58.79-40.128 96.202-40.128zM629.45 899.51h93.149c34.478 0 65.778-14.078 88.426-36.751 22.387-22.415 36.288-53.265 36.288-87.128 0-33.865-13.899-64.713-36.288-87.126-22.648-22.673-53.948-36.749-88.426-36.749H139.33c-34.476 0-65.777 14.076-88.424 36.749-22.39 22.413-36.288 53.261-36.288 87.126 0 33.863 13.9 64.713 36.288 87.128 22.647 22.673 53.948 36.751 88.424 36.751h100.676a63.076 63.076 0 0 1 17.903-36.175c11.105-11.119 26.362-18.021 43.084-18.021h267.469c16.72 0 31.978 6.902 43.084 18.021a63.083 63.083 0 0 1 17.904 36.175zm-60.988-38.412H300.993a48.33 48.33 0 0 0-34.292 14.2c-8.457 8.466-13.709 20.068-13.709 32.751v.004c0 12.685 5.252 24.287 13.709 32.751a48.333 48.333 0 0 0 34.292 14.199h267.469a48.344 48.344 0 0 0 34.293-14.199c8.457-8.464 13.708-20.066 13.708-32.751v-.004c0-12.683-5.251-24.285-13.708-32.751a48.341 48.341 0 0 0-34.293-14.2z" fill="#F9F9F9"/><path fill-rule="evenodd" clip-rule="evenodd" d="M156.987 770.444h-38.548v32.58h36.76l1.014-13.63h17.353v31.162H83.468v-13.711l12.12-2.352v-81.807l-12.12-2.352v-13.791h89.937v31.242h-17.513l-1.014-13.603h-36.439v28.651h38.548v17.611zm362.052 144.305c0-6.941 1.935-12.622 5.82-17.052 3.871-4.431 9.234-6.648 16.079-6.648 6.862 0 12.243 2.217 16.129 6.632 3.869 4.402 5.816 10.097 5.816 17.068v.896c0 7-1.947 12.692-5.816 17.097-3.886 4.403-9.238 6.591-16.038 6.603-6.906-.011-12.299-2.2-16.17-6.603-3.885-4.405-5.82-10.097-5.82-17.097v-.896zm12.534.896c0 4.241.747 7.645 2.227 10.212 1.495 2.571 3.9 3.846 7.229 3.846 3.223 0 5.597-1.29 7.093-3.86 1.511-2.582 2.258-5.987 2.258-10.198v-.896c0-4.138-.761-7.497-2.272-10.113-1.526-2.595-3.912-3.9-7.17-3.9-3.267 0-5.643 1.305-7.138 3.9-1.48 2.616-2.227 5.975-2.227 10.113v.896zm-41.281 15.261l6.054-1.291v-28.839l-6.699-1.29v-7.571h19.246v37.7l6.011 1.291v7.53h-24.612v-7.53zm18.601-50.13h-12.547v-9.407h12.547v9.407zm-40.034 51.981c-1.464 2.155-3.18 3.787-5.174 4.9-1.994 1.116-4.25 1.676-6.802 1.688-5.729-.011-10.174-2.096-13.339-6.281-3.167-4.183-4.749-9.716-4.749-16.598v-.911c0-7.335 1.598-13.252 4.762-17.757 3.182-4.489 7.654-6.749 13.415-6.749 2.317 0 4.399.512 6.26 1.526 1.861 1.025 3.504 2.466 4.897 4.329v-16.685l-6.7-1.293v-7.557h19.246v58.246l6.01 1.291v7.53h-16.871l-.955-5.679zm-17.517-16.291c0 4.066.674 7.279 2.038 9.612 1.361 2.335 3.592 3.493 6.683 3.493 1.833 0 3.417-.368 4.767-1.113a9.031 9.031 0 0 0 3.299-3.215v-19.74c-.85-1.494-1.951-2.644-3.284-3.462-1.335-.821-2.904-1.234-4.707-1.234-3.064 0-5.292 1.362-6.699 4.095-1.394 2.718-2.097 6.279-2.097 10.653v.911zm-35.093 16.086c-1.478 2.172-3.329 3.843-5.51 5.018-2.201 1.173-4.692 1.763-7.493 1.775-4.894-.011-8.735-1.57-11.508-4.71-2.785-3.141-4.178-8.026-4.178-14.647v-19.212l-5.099-1.29v-7.571h17.652v28.163c0 3.374.554 5.808 1.697 7.293 1.13 1.465 2.802 2.2 5.042 2.2 1.98 0 3.68-.326 5.133-.952 1.452-.647 2.623-1.57 3.546-2.776v-25.067l-5.495-1.29v-7.571h18.028v37.7l5.629 1.291v7.53h-16.624l-.82-5.884zm-46.806-52.026v11.389h8.166v8.821h-8.166v23.686c0 1.803.383 3.094 1.116 3.873.748.763 1.758 1.158 3.019 1.158.851 0 1.597-.042 2.242-.117.646-.072 1.379-.19 2.171-.367l1.085 9.085a31.937 31.937 0 0 1-4.178.969c-1.363.205-2.858.31-4.457.322-4.323-.011-7.65-1.203-9.982-3.581-2.347-2.375-3.503-6.149-3.503-11.299v-23.729h-6.833v-8.821h6.833v-11.389h12.487zm-24.658 15.306h-9.394l-1.643-8.601c-1.085-.689-2.669-1.291-4.765-1.805-2.079-.512-4.307-.776-6.654-.776-3.431 0-6.081.719-7.961 2.171-1.873 1.44-2.811 3.315-2.811 5.604 0 2.131.98 3.861 2.93 5.226 1.965 1.365 5.35 2.805 10.16 4.331 6.904 1.907 12.137 4.445 15.7 7.6 3.56 3.156 5.347 7.297 5.347 12.433 0 5.356-2.122 9.58-6.36 12.678-4.236 3.098-9.823 4.64-16.741 4.652-4.952-.011-9.425-.791-13.428-2.376-3.987-1.57-7.315-3.744-9.983-6.531V917.36h9.706l1.332 8.911c1.261 1.026 2.977 1.877 5.133 2.551 2.154.676 4.572 1.014 7.24 1.014 3.43 0 6.041-.703 7.829-2.113 1.787-1.394 2.679-3.274 2.679-5.622 0-2.406-.847-4.344-2.55-5.809-1.698-1.456-4.689-2.834-8.955-4.125-7.415-2.157-13.017-4.698-16.827-7.661-3.813-2.949-5.719-6.987-5.719-12.122 0-5.062 2.155-9.219 6.45-12.444 4.295-3.228 9.69-4.875 16.187-4.962 4.805 0 9.19.734 13.146 2.188 3.943 1.468 7.271 3.418 9.952 5.855v12.811zm-42.653-189.289v13.791l-12.201 2.352v97.87h-22.744l-45.996-76.73-.454.079v60.588l12.2 2.352v13.711h-47.171v-13.711l12.119-2.352v-81.807l-12.119-2.352v-13.791h34.971l45.97 76.729.48-.053v-60.535l-12.201-2.352v-13.791h34.945l12.201.002zM403.896 807.86c-3.684 3.662-9.104 6.977-16.179 9.917-7.099 2.939-16.069 4.409-26.908 4.436-15.377-.027-27.897-5.158-37.535-15.474-9.664-10.316-14.469-23.707-14.469-40.223v-3.901c0-17.078 4.753-30.95 14.256-41.666 9.53-10.691 21.943-16.036 37.268-16.036 8.916 0 17.086 1.416 24.453 4.275 7.368 2.834 13.508 6.683 18.42 11.547v22.931h-16.899l-3.203-15.261c-2.082-1.791-4.832-3.207-8.248-4.277-3.418-1.069-7.342-1.604-11.773-1.604-9.958 0-17.699 3.688-23.228 11.039-5.525 7.349-8.301 16.997-8.301 28.89v4.063c0 11.598 2.723 20.846 8.142 27.768 5.42 6.922 13.241 10.369 23.466 10.369 4.592 0 8.302-.374 11.132-1.174 2.858-.777 5.072-1.684 6.701-2.727v-19.35l-16.284-1.255V764.11h39.189v43.75zm11.426 12.696v-13.711l12.12-2.352v-81.807l-12.12-2.352v-13.791h47.172v13.791l-12.201 2.352v80.338h32.142l1.094-14.326h17.433v31.858h-85.64zm93.782-100.222v-13.791h47.171v13.791l-12.199 2.352v81.807l12.199 2.352v13.711h-47.171v-13.711l12.201-2.352v-81.807l-12.201-2.352zm142.343 22.637h-17.112l-2.99-15.662c-1.976-1.256-4.86-2.352-8.677-3.288-3.791-.935-7.849-1.416-12.119-1.416-6.247 0-11.08 1.309-14.496 3.956-3.417 2.618-5.126 6.039-5.126 10.209 0 3.876 1.789 7.028 5.339 9.514 3.578 2.486 9.743 5.105 18.501 7.884 12.573 3.475 22.104 8.099 28.589 13.846 6.488 5.745 9.745 13.282 9.745 22.636 0 9.754-3.871 17.451-11.586 23.091-7.715 5.639-17.885 8.445-30.485 8.472-9.025-.027-17.167-1.443-24.455-4.331-7.26-2.859-13.319-6.815-18.18-11.892v-23.813h17.674l2.428 16.224c2.297 1.871 5.42 3.421 9.344 4.65 3.924 1.228 8.33 1.844 13.189 1.844 6.246 0 10.998-1.284 14.255-3.85 3.257-2.538 4.885-5.959 4.885-10.235 0-4.382-1.55-7.911-4.645-10.583-3.098-2.646-8.543-5.159-16.312-7.511-13.507-3.929-23.706-8.551-30.646-13.951-6.941-5.372-10.411-12.721-10.411-22.075 0-9.221 3.924-16.784 11.746-22.664 7.822-5.879 17.645-8.872 29.473-9.034 8.755 0 16.737 1.337 23.944 3.982 7.182 2.673 13.241 6.229 18.128 10.665v23.332zm10.651-22.637v-13.791h47.171v13.791l-12.2 2.352v32.872h46.45v-32.872l-12.201-2.352v-13.791h47.146v13.791l-12.199 2.352v81.807l12.199 2.352v13.711h-47.146v-13.711l12.201-2.352v-31.297h-46.45v31.297l12.2 2.352v13.711h-47.171v-13.711l12.12-2.352v-81.807l-12.12-2.352z" fill="#F9F9F9"/></svg>