<svg width="13" height="15" viewBox="0 0 13 15" fill="none" xmlns="http://www.w3.org/2000/svg"><path fill-rule="evenodd" clip-rule="evenodd" d="M10.117 3.711c0 2.05-1.623 3.712-3.626 3.712-2.002 0-3.626-1.662-3.626-3.712C2.865 1.661 4.49 0 6.491 0c2.003 0 3.626 1.662 3.626 3.711zm-1.51 0c0 1.196-.948 2.165-2.116 2.165-1.168 0-2.115-.969-2.115-2.165 0-1.195.947-2.165 2.115-2.165 1.168 0 2.115.97 2.115 2.165z" fill="#C95469"/><path d="M3.208 10.96c.895-.564 2.033-.909 3.283-.909 2.34 0 4.23 1.194 4.955 2.722.204.429-.408.68-.725.68h-8.46c-.494 0-.912-.338-.647-.835a.782.782 0 0 0-.3-1.05.746.746 0 0 0-1.026.309c-.403.755-.413 1.626.16 2.305.434.515 1.11.818 1.813.818h8.46c.704 0 1.38-.303 1.814-.818.455-.54.635-1.315.27-2.085-1.028-2.167-3.522-3.592-6.314-3.592-1.518 0-2.93.418-4.074 1.137a.784.784 0 0 0-.248 1.063.745.745 0 0 0 1.04.254z" fill="#C95469"/></svg>