<svg width="27" height="32" viewBox="0 0 27 32" fill="none" xmlns="http://www.w3.org/2000/svg"><g clip-path="url(#a)"><path d="M12.736.205c-1.864.066-3.69.527-5.354 1.352a12.87 12.87 0 0 0-4.288 3.426A12.59 12.59 0 0 0 .658 9.855a12.457 12.457 0 0 0 .818 8.339c1.294 3.01 4.286 8.047 11.001 13.526a1.134 1.134 0 0 0 1.433 0c6.715-5.473 9.707-10.51 11.008-13.533.382-.804.674-1.648.87-2.515.059-.254.085-.397.085-.397.367-1.872.299-3.8-.198-5.643a12.61 12.61 0 0 0-2.674-5 12.903 12.903 0 0 0-4.618-3.364A13.123 13.123 0 0 0 12.736.205zm.457 18.973A6.352 6.352 0 0 1 9.71 18.14a6.182 6.182 0 0 1-2.31-2.763 6.054 6.054 0 0 1-.356-3.558A6.123 6.123 0 0 1 8.76 8.667a6.307 6.307 0 0 1 3.21-1.685 6.377 6.377 0 0 1 3.623.35A6.247 6.247 0 0 1 18.407 9.6a6.06 6.06 0 0 1 .58 5.777 6.15 6.15 0 0 1-1.36 1.998 6.28 6.28 0 0 1-2.034 1.334 6.37 6.37 0 0 1-2.4.469z" fill="#DADADA"/></g><defs><clipPath id="a"><path fill="#fff" transform="translate(.287 .196)" d="M0 0h25.819v31.777H0z"/></clipPath></defs></svg>