<svg width="55" height="55" viewBox="0 0 55 55" fill="none" xmlns="http://www.w3.org/2000/svg"><path d="M27.5 13.535a1.075 1.075 0 1 0 0 2.15 1.075 1.075 0 0 0 0-2.15zM9.668 32.871a1.075 1.075 0 1 0 0-2.15 1.075 1.075 0 0 0 0 2.15z" fill="#163F59"/><path d="M36.094 2.793c-9.671 0-17.609 6.668-18.223 15.066C8.662 18.321 0 24.963 0 33.945c0 3.754 1.485 7.391 4.19 10.273a6.533 6.533 0 0 1-1.727 6.155 1.075 1.075 0 0 0 .76 1.834 11.85 11.85 0 0 0 8.21-3.318c2.137.728 4.925 1.17 7.473 1.17 9.67 0 17.607-6.666 18.222-15.063 2.25-.1 4.589-.516 6.44-1.146a11.85 11.85 0 0 0 8.21 3.318 1.074 1.074 0 0 0 .759-1.834 6.533 6.533 0 0 1-1.727-6.155C53.515 26.297 55 22.66 55 18.906c0-9.333-9.328-16.113-18.906-16.113zM18.906 47.91c-2.535 0-5.424-.497-7.36-1.267a1.074 1.074 0 0 0-1.19.272 9.693 9.693 0 0 1-4.82 2.861 8.687 8.687 0 0 0 .655-6.394 1.072 1.072 0 0 0-.263-.453c-2.437-2.51-3.78-5.701-3.78-8.984 0-7.57 7.674-13.965 16.758-13.965 8.578 0 16.114 5.965 16.114 13.965 0 7.7-7.229 13.965-16.114 13.965zm30.166-20.02a1.078 1.078 0 0 0-.263.453 8.688 8.688 0 0 0 .655 6.394 9.69 9.69 0 0 1-4.82-2.86 1.075 1.075 0 0 0-1.19-.274c-1.678.668-4.07 1.13-6.33 1.241-.313-4.062-2.34-7.88-5.804-10.715h14.012a1.074 1.074 0 1 0 0-2.149H28.02c-2.439-1.24-5.177-1.965-7.995-2.117.618-7.214 7.589-12.922 16.069-12.922 9.084 0 16.758 6.395 16.758 13.965 0 3.283-1.343 6.473-3.78 8.983z" fill="#163F59"/><path d="M27.5 30.723H13.965a1.074 1.074 0 1 0 0 2.148H27.5a1.074 1.074 0 1 0 0-2.148zm0 6.445H9.668a1.074 1.074 0 1 0 0 2.148H27.5a1.074 1.074 0 1 0 0-2.148zm17.832-23.633H31.797a1.074 1.074 0 1 0 0 2.149h13.535a1.074 1.074 0 1 0 0-2.149z" fill="#163F59"/></svg>