<svg width="26" height="29" viewBox="0 0 26 29" fill="none" xmlns="http://www.w3.org/2000/svg"><path d="M4.52 7.314v14.363c0 1.748.721 2.622 2.165 2.622s2.166-.873 2.166-2.622V7.314c0-1.748-.722-2.622-2.166-2.622S4.52 5.566 4.52 7.314zM.34 21.412V7.58c0-2.128.544-3.775 1.633-4.94C3.063 1.474 4.633.892 6.685.892c2.052 0 3.623.582 4.712 1.748 1.09 1.165 1.634 2.812 1.634 4.94v13.832c0 2.128-.545 3.774-1.634 4.94-1.09 1.165-2.66 1.747-4.712 1.747-2.052 0-3.623-.582-4.712-1.747C.883 25.186.34 23.539.34 21.412zM18.33 7.504V4.54c1.445 0 2.47-.28 3.079-.836.607-.558 1.114-1.394 1.52-2.508h2.811v26.6h-4.18V7.503h-3.23z" fill="#E8EAF3"/></svg>