<svg width="29" height="29" viewBox="0 0 29 29" fill="none" xmlns="http://www.w3.org/2000/svg"><path d="M4.899 7.314v14.363c0 1.748.722 2.622 2.166 2.622s2.166-.873 2.166-2.622V7.314c0-1.748-.722-2.622-2.166-2.622s-2.166.874-2.166 2.622zM.719 21.412V7.58c0-2.128.545-3.775 1.634-4.94C3.443 1.474 5.013.892 7.065.892c2.052 0 3.623.582 4.712 1.748 1.09 1.165 1.634 2.812 1.634 4.94v13.832c0 2.128-.545 3.774-1.634 4.94-1.09 1.165-2.66 1.747-4.712 1.747-2.052 0-3.623-.582-4.712-1.747-1.09-1.166-1.634-2.813-1.634-4.94zm23.692-13.68c0-1.14-.19-1.926-.57-2.356-.354-.456-.886-.684-1.596-.684-1.444 0-2.166.874-2.166 2.622v2.85h-3.952V7.58c0-2.154.532-3.8 1.596-4.94C18.787 1.474 20.333.892 22.36.892c2.027 0 3.572.582 4.636 1.748 1.064 1.14 1.596 2.786 1.596 4.94a11.31 11.31 0 0 1-.874 4.408c-.557 1.393-1.254 2.584-2.09 3.572a54.26 54.26 0 0 1-2.432 2.774 19.348 19.348 0 0 0-2.09 2.622c-.557.86-.836 1.684-.836 2.47 0 .253.013.443.038.57h7.904v3.8H16.127v-3.268c0-1.444.28-2.762.836-3.952.583-1.216 1.28-2.268 2.09-3.154.811-.913 1.622-1.8 2.432-2.66.811-.887 1.495-1.926 2.052-3.117.583-1.19.874-2.495.874-3.913z" fill="#E8EAF3"/></svg>