<svg width="29" height="29" viewBox="0 0 29 29" fill="none" xmlns="http://www.w3.org/2000/svg"><path d="M4.862 7.314v14.363c0 1.748.722 2.622 2.166 2.622s2.166-.873 2.166-2.622V7.314c0-1.748-.722-2.622-2.166-2.622s-2.166.874-2.166 2.622zM.682 21.412V7.58c0-2.128.545-3.775 1.634-4.94C3.406 1.474 4.976.892 7.028.892c2.052 0 3.623.582 4.712 1.748 1.09 1.165 1.634 2.812 1.634 4.94v13.832c0 2.128-.545 3.774-1.634 4.94-1.09 1.165-2.66 1.747-4.712 1.747-2.052 0-3.623-.582-4.712-1.747-1.09-1.166-1.634-2.813-1.634-4.94zM24.146 9.213V7.732c0-1.14-.19-1.926-.57-2.356-.354-.456-.886-.684-1.596-.684-1.444 0-2.166.874-2.166 2.622v1.71h-3.952V7.58c0-2.154.532-3.8 1.596-4.94 1.064-1.166 2.61-1.748 4.636-1.748 2.027 0 3.572.582 4.636 1.748 1.064 1.14 1.596 2.786 1.596 4.94v.684c0 2.837-.975 4.66-2.926 5.472 1.951.86 2.926 2.723 2.926 5.585v2.09c0 2.154-.532 3.813-1.596 4.979-1.064 1.14-2.609 1.71-4.636 1.71-2.026 0-3.572-.57-4.636-1.71-1.064-1.166-1.596-2.825-1.596-4.979v-2.204h3.952v2.47c0 1.748.722 2.622 2.166 2.622.71 0 1.242-.215 1.596-.645.38-.456.57-1.242.57-2.357v-2.09c0-1.216-.215-2.077-.646-2.584-.43-.532-1.127-.798-2.09-.798h-1.406v-3.8h1.634c.836 0 1.457-.215 1.862-.646.431-.43.646-1.152.646-2.165z" fill="#E8EAF3"/></svg>