<svg width="17" height="27" viewBox="0 0 17 27" fill="none" xmlns="http://www.w3.org/2000/svg"><path d="M6.1 21.895h10.687V26.5H.017v-1.898c0-1.29.217-2.444.651-3.463a11.296 11.296 0 0 1 1.635-2.76 13.871 13.871 0 0 1 2.144-2.162 49.893 49.893 0 0 1 2.233-1.705A25.483 25.483 0 0 0 8.613 13c.563-.48 1.032-.955 1.407-1.424.386-.48.673-.96.86-1.441a4.357 4.357 0 0 0 .282-1.565c0-1.078-.305-1.892-.914-2.443-.61-.55-1.541-.826-2.795-.826-2.168 0-4.242.861-6.223 2.584V2.998C3.422 1.58 5.895.871 8.648.871c1.278 0 2.42.17 3.428.51 1.02.328 1.881.803 2.584 1.424a6.009 6.009 0 0 1 1.6 2.267c.375.88.562 1.864.562 2.953 0 1.16-.181 2.192-.545 3.094a9.18 9.18 0 0 1-1.424 2.461 12.903 12.903 0 0 1-2.038 2.04 47.295 47.295 0 0 1-2.409 1.775c-.562.398-1.107.796-1.635 1.195-.515.387-.972.773-1.37 1.16a6.064 6.064 0 0 0-.95 1.107c-.234.364-.351.71-.351 1.038z" fill="#fff" filter="url(#a)"/><defs><filter id="a" x=".018" y=".871" width="16.805" height="25.629" filterUnits="userSpaceOnUse" color-interpolation-filters="sRGB"><feFlood flood-opacity="0" result="BackgroundImageFix"/><feBlend in="SourceGraphic" in2="BackgroundImageFix" result="shape"/><feColorMatrix in="SourceAlpha" values="0 0 0 0 0 0 0 0 0 0 0 0 0 0 0 0 0 0 127 0" result="hardAlpha"/><feOffset/><feGaussianBlur stdDeviation="5"/><feComposite in2="hardAlpha" operator="arithmetic" k2="-1" k3="1"/><feColorMatrix values="0 0 0 0 0 0 0 0 0 0 0 0 0 0 0 0 0 0 0.25 0"/><feBlend in2="shape" result="effect1_innerShadow"/></filter></defs></svg>