<svg width="17" height="27" viewBox="0 0 17 27" fill="none" xmlns="http://www.w3.org/2000/svg"><path d="M.615 25.674V20.84c1.688 1.23 3.656 1.846 5.906 1.846 1.418 0 2.52-.305 3.305-.915.797-.609 1.195-1.459 1.195-2.548 0-1.125-.492-1.992-1.476-2.602-.973-.61-2.315-.914-4.025-.914H3.182v-4.254h2.162c3.281 0 4.922-1.09 4.922-3.27 0-2.05-1.26-3.076-3.78-3.076-1.687 0-3.328.545-4.922 1.635V2.207C3.334 1.317 5.396.871 7.752.871c2.578 0 4.582.58 6.012 1.74 1.441 1.16 2.162 2.666 2.162 4.518 0 3.293-1.67 5.355-5.01 6.187v.088c1.781.223 3.188.873 4.219 1.951 1.031 1.067 1.547 2.38 1.547 3.938 0 2.355-.862 4.219-2.584 5.59-1.723 1.37-4.102 2.056-7.137 2.056-2.602 0-4.717-.421-6.346-1.265z" fill="#fff" filter="url(#a)"/><defs><filter id="a" x=".615" y=".871" width="16.066" height="26.068" filterUnits="userSpaceOnUse" color-interpolation-filters="sRGB"><feFlood flood-opacity="0" result="BackgroundImageFix"/><feBlend in="SourceGraphic" in2="BackgroundImageFix" result="shape"/><feColorMatrix in="SourceAlpha" values="0 0 0 0 0 0 0 0 0 0 0 0 0 0 0 0 0 0 127 0" result="hardAlpha"/><feOffset/><feGaussianBlur stdDeviation="5"/><feComposite in2="hardAlpha" operator="arithmetic" k2="-1" k3="1"/><feColorMatrix values="0 0 0 0 0 0 0 0 0 0 0 0 0 0 0 0 0 0 0.25 0"/><feBlend in2="shape" result="effect1_innerShadow"/></filter></defs></svg>