<svg width="1920" height="140" viewBox="0 0 1920 140" fill="none" xmlns="http://www.w3.org/2000/svg"><path fill="#D8DCEB" d="M0 0h1920v140H0z"/><mask id="a" maskUnits="userSpaceOnUse" x="920" y="0" width="1000" height="140"><path fill="#C4C4C4" d="M920 0h1000v140H920z"/></mask><g mask="url(#a)"><path d="M920 143.869l.058-10.935 9.564.042.044-7.693 5.469.028.015-4.127 5.25.014-.029 3.846 9.344.042-.015 3.257 5.016.014-.044 6.795 6.391.042.029-7.693 7.297.042.088-17.744 5.469.028.015-2.948 5.688.028-.014 3.537 2.281.014.029-7.089 7.063.028-.014 3.847 3.875.014-.102 21.282 4.094.014-.014 4.141 5.013.028.15-31.333 5.8.028.02-3.552 13.34.056-.02 3.552 6.83.028-.15 30.449 27.35.126.22-43.743 3.19.014.01-4.14 7.52.041-.02 3.538 5.02.028-.22 43.448 4.8.014.19-39.012 3.18.014.02-4.422 9.34.028-.01 3.257 3.87.014-.11 23.359 4.11.015.01-4.731 4.33.028-.01 4.731 3.87.014.03-7.693 21.64.098-.11 23.36 6.84.028.07-15.667 20.97.098-.07 14.179 10.94.056.13-26.013 3.64.028.02-4.436 7.98.028-.03 4.142 8.44.042-.03 4.436 7.3.028-.12 22.756 4.78.028.09-16.551 2.95.014.03-4.141 8.43.042-.02 4.141 5.24.014-.06 13.013 19.14.085.23-49.064 2.28.014.06-12.129 3.66.028.03-7.398 21.19.099-.03 7.089 6.37.042-.32 64.421 6.61.042.15-29.564 3.19.014.04-8.564 4.56.014-.03 4.142 5.47.028-.01 2.948 4.79.028-.16 31.319 3.88.028.03-6.499 5.47.014.16-32.808 2.28.014 2.18-2.793 7.85.028-.01 3.397 3.65.028-.19 36.64 18.69.084.26-53.485 9.35.042-.03 4.436h2.28l.02-2.948 14.12.07-.01 4.127 4.33.028-.25 47.576 5.47.028.08-15.077 4.33.028.02-4.141 5.72.028-.03 4.141 5.9.028-.07 14.473 8.66.042.19-36.05 2.95.014.06-12.423 19.38.098-.03 5.306 5.01.028-.11 23.346 13.22.07.41-84.243 1.59.014.03-5.026 11.62.056-.01 2.359 6.83.042-.44 88.96 17.31.07.12-23.64 13.22.056.1-19.204 19.13.084-.03 6.205 4.56.028-.07 15.077 5.47.014.01-5.026 12.54.07-.02 5.321 5.69.014-.04 10.051 3.4.014.19-36.64 3.43.015.03-7.103 6.61.042 8.65.042-.01 3.537 7.28.043-.1 21.267 7.75.042.03-5.025 8.42.042-.01 3.538 10.94.056-.05 7.678 3.88.029.01-3.707 3.66.029.01-4.001 8.66.042-.02 4 5.93.029-.02 2.499 2.74.014-.05 8.282 4.33.014.03-5.32 8.66.042.01-3.538 3.88.014.01-1.923 8.43.042-.02 3.987 5.92.028-.01 3.847 7.06.028-.03 4.73 3.42.014-.13 24.82 1.6.014.04-6.794 2.95.014.12-21.282h1.81l.02-3.538 6.39.028-.01 3.243 2.04.014-.1 18.909 2.97.029.13-27.936 16.86.07-.03 7.538 2.11.014-.03 8.578h1.3l-.12 22.755 4.79.029.01-3.257 2.06.014.03-7.988 1.83.014.14-31.333 12.77.056-.09 18.924h2.05l-.07 12.718 5.7.028-.06 11.82 3.64.014.03-6.205 6.16.029.01-3.847 20.74.098.03-4.141 5.23.028-.01 4.731 5.45.028-.04 10.936 4.55.014.06-10.051 3.18.014.08-15.962 3.19.028.04-6.514 3.64.015 2.18-2.794 6.73.028.16-33.537 13.67.056-.17 33.986 7.53.043-.14 26.012 4.33.014.16-32.358 11.85.056-.02 3.398 11.4.042-.06 11.834 5.47.014.04-8.858 8.42.042.03-4.73 7.52.027-.15 28.961 11.63.056.16-33.102 2.05.014.01-2.667 12.08.056-.03 5.18 13.46.056-.18 33.552 6.38.028-.05 10.051 7.07.028.05-12.115 3.64.014.03-5.026 5.02.029-.13 29.845L920 143.869z" fill="#3C3C3B"/></g><mask id="b" maskUnits="userSpaceOnUse" x="0" y="0" width="962" height="140"><path fill="#C4C4C4" d="M0 0h962v140H0z"/></mask><g mask="url(#b)"><path d="M-38 143.869l.059-10.935 9.563.042.044-7.693 5.47.028.014-4.127 5.25.014-.03 3.846 9.345.042-.015 3.257 5.016.014-.044 6.795 6.39.042.03-7.693 7.297.042.088-17.744 5.47.028.014-2.948 5.688.028-.014 3.537 2.281.014.03-7.089 7.062.028-.014 3.847 3.875.014-.102 21.282 4.094.014-.014 4.141 5.015.028.147-31.333 5.805.028.015-3.552 13.337.056-.015 3.552 6.829.028-.146 30.449 27.346.126.22-43.743 3.187.014.015-4.14 7.516.041-.014 3.538 5.015.028-.219 43.448 4.797.014.19-39.012 3.188.014.014-4.422 9.345.028-.015 3.257 3.875.014-.117 23.359 4.11.015.014-4.731 4.329.028-.015 4.731 3.875.014.03-7.693 21.642.098-.117 23.36 6.844.028.073-15.667 20.97.098-.073 14.179 10.939.056.131-26.013 3.642.028.014-4.436 7.985.028-.03 4.142 8.438.042-.029 4.436 7.297.028-.117 22.756 4.782.028.088-16.551 2.954.014.029-4.141 8.423.042-.015 4.141 5.236.014-.059 13.013 19.142.085.234-49.064 2.282.014.058-12.129 3.656.028.029-7.398 21.19.099-.03 7.089 6.376.042-.321 64.421 6.609.042.147-29.564 3.188.014.043-8.564 4.563.014-.029 4.142 5.469.028-.015 2.948 4.797.028-.161 31.319 3.875.028.029-6.499 5.47.014.16-32.808 2.282.014 2.179-2.793 7.852.028-.014 3.397 3.656.028-.19 36.64 18.688.084.264-53.485 9.344.042-.029 4.436h2.281l.015-2.948 14.126.07-.015 4.127 4.329.028-.249 47.576 5.47.028.087-15.077 4.329.028.015-4.141 5.717.028-.029 4.141 5.908.028-.073 14.473 8.657.042.19-36.05 2.954.014.058-12.423 19.377.098-.03 5.306 5.016.028-.117 23.346 13.22.07.409-84.243 1.594.014.03-5.026 11.625.056-.014 2.359 6.829.042-.439 88.96 17.314.07.117-23.64 13.22.056.102-19.204 19.128.084-.029 6.205 4.562.028-.073 15.077 5.469.014.015-5.026 12.532.07-.014 5.321 5.688.014-.044 10.051 3.408.014.19-36.64 3.422.015.029-7.103 6.61.042 8.657.042-.015 3.537 7.283.043-.103 21.267 7.751.042.029-5.025 8.423.042-.014 3.538 10.938.056-.044 7.678 3.875.029.015-3.707 3.656.029.015-4.001 8.657.042-.015 4 5.923.029-.015 2.499 2.735.014-.044 8.282 4.328.014.029-5.32 8.658.042.014-3.538 3.875.014.015-1.923 8.423.042-.014 3.987 5.922.028-.015 3.847 7.064.028-.03 4.73 3.422.014-.131 24.82 1.594.014.044-6.794 2.953.014.117-21.282h1.814l.014-3.538 6.391.028-.015 3.243 2.048.014-.103 18.909 2.969.029.131-27.936 16.861.07-.029 7.538 2.106.014-.029 8.578h1.301l-.117 22.755 4.782.029.015-3.257 2.061.014.03-7.988 1.828.014.146-31.333 12.766.056-.088 18.924h2.048l-.073 12.718 5.703.028-.059 11.82 3.642.014.029-6.205 6.156.029.015-3.847 20.736.098.029-4.141 5.236.028-.015 4.731 5.455.028-.044 10.936 4.548.014.058-10.051 3.188.014.073-15.962 3.188.028.044-6.514 3.641.015 2.179-2.794 6.727.028.161-33.537 13.673.056-.176 33.986 7.531.043-.131 26.012 4.328.014.161-32.358 11.845.056-.014 3.398 11.391.042-.058 11.834 5.469.014.044-8.858 8.423.042.029-4.73 7.517.027-.146 28.961 11.625.056.161-33.102 2.047.014.015-2.667 12.079.056-.029 5.18 13.453.056-.175 33.552 6.376.028-.044 10.051 7.063.028.059-12.115 3.641.014.029-5.026 5.016.029-.132 29.845L-38 143.869z" fill="#3C3C3B"/></g></svg>