<svg width="18" height="18" viewBox="0 0 18 18" fill="none" xmlns="http://www.w3.org/2000/svg"><g clip-path="url(#a)" fill="#fff"><path d="M17.528 13.886l-3.644-2.43a1.063 1.063 0 0 0-1.424.232l-1.06 1.364a.454.454 0 0 1-.582.123l-.202-.111c-.67-.365-1.502-.82-3.18-2.498C5.76 8.889 5.304 8.055 4.94 7.386l-.11-.2a.454.454 0 0 1 .12-.585l1.363-1.06c.436-.342.537-.962.231-1.424L4.113.473a1.058 1.058 0 0 0-1.425-.32l-1.524.914c-.478.282-.83.738-.98 1.272-.548 2-.136 5.449 4.946 10.531C9.173 16.913 12.182 18 14.25 18c.477.002.95-.06 1.41-.184a2.15 2.15 0 0 0 1.272-.98l.916-1.523a1.058 1.058 0 0 0-.32-1.427zm-.197 1.12l-.913 1.523c-.202.345-.53.6-.915.709-1.846.506-5.07.087-9.948-4.792C.675 7.567.256 4.344.763 2.498c.11-.386.364-.714.71-.916L2.996.668a.459.459 0 0 1 .62.14l1.319 1.98L6.043 4.45c.132.2.089.47-.1.618l-1.364 1.06A1.05 1.05 0 0 0 4.3 7.477l.108.197c.383.703.86 1.578 2.6 3.318 1.74 1.74 2.614 2.216 3.317 2.6l.197.108a1.05 1.05 0 0 0 1.348-.278l1.06-1.364a.462.462 0 0 1 .618-.1l3.643 2.43a.459.459 0 0 1 .14.618zM10.2 3.002A5.105 5.105 0 0 1 15.298 8.1a.3.3 0 0 0 .6 0 5.705 5.705 0 0 0-5.7-5.7.3.3 0 1 0 0 .6z"/><path d="M10.2 4.801a3.303 3.303 0 0 1 3.299 3.3.3.3 0 1 0 .6 0 3.904 3.904 0 0 0-3.9-3.9.3.3 0 1 0 0 .6z"/><path d="M10.2 6.6a1.502 1.502 0 0 1 1.5 1.5.3.3 0 0 0 .599 0 2.102 2.102 0 0 0-2.1-2.099.3.3 0 1 0 0 .6z"/></g><defs><clipPath id="a"><path fill="#fff" d="M0 0h18v18H0z"/></clipPath></defs></svg>