<svg width="14" height="14" viewBox="0 0 14 14" fill="none" xmlns="http://www.w3.org/2000/svg"><mask id="a" fill="#fff"><path d="M11.95 2.05A6.95 6.95 0 0 0 7 0a6.95 6.95 0 0 0-4.95 2.05A6.95 6.95 0 0 0 0 7a6.95 6.95 0 0 0 2.05 4.95A6.95 6.95 0 0 0 7 14a6.95 6.95 0 0 0 4.95-2.05A6.95 6.95 0 0 0 14 7a6.95 6.95 0 0 0-2.05-4.95zm-.563 9.337A6.165 6.165 0 0 1 7 13.204a6.164 6.164 0 0 1-4.387-1.817 6.211 6.211 0 0 1 0-8.774A6.164 6.164 0 0 1 7 .795c1.656 0 3.214.646 4.387 1.818a6.211 6.211 0 0 1 0 8.774z"/></mask><path d="M12.657 1.343A7.95 7.95 0 0 0 7-1v2a5.95 5.95 0 0 1 4.242 1.758l1.415-1.415zM7-1a7.95 7.95 0 0 0-5.657 2.343l1.415 1.415A5.95 5.95 0 0 1 7 1v-2zM1.343 1.343A7.95 7.95 0 0 0-1 7h2a5.95 5.95 0 0 1 1.758-4.242L1.343 1.343zM-1 7a7.95 7.95 0 0 0 2.343 5.657l1.415-1.415A5.95 5.95 0 0 1 1 7h-2zm2.343 5.657A7.95 7.95 0 0 0 7 15v-2a5.95 5.95 0 0 1-4.242-1.758l-1.415 1.415zM7 15a7.95 7.95 0 0 0 5.657-2.343l-1.415-1.415A5.95 5.95 0 0 1 7 13v2zm5.657-2.343A7.95 7.95 0 0 0 15 7h-2a5.95 5.95 0 0 1-1.758 4.242l1.415 1.415zM15 7a7.95 7.95 0 0 0-2.343-5.657l-1.415 1.415A5.95 5.95 0 0 1 13 7h2zm-4.32 3.68A5.164 5.164 0 0 1 7 12.204v2c1.921 0 3.734-.75 5.094-2.11L10.68 10.68zM7 12.204a5.17 5.17 0 0 1-3.68-1.524l-1.414 1.414A7.164 7.164 0 0 0 7 14.204v-2zM3.32 10.68a5.211 5.211 0 0 1 0-7.36L1.906 1.906a7.211 7.211 0 0 0 0 10.188L3.32 10.68zm0-7.36A5.164 5.164 0 0 1 7 1.795v-2a7.165 7.165 0 0 0-5.094 2.111L3.32 3.32zM7 1.795c1.39 0 2.695.54 3.68 1.525l1.414-1.414A7.164 7.164 0 0 0 7-.204v2zm3.68 1.525a5.211 5.211 0 0 1 0 7.36l1.414 1.414a7.211 7.211 0 0 0 0-10.188L10.68 3.32z" fill="#6C7185" mask="url(#a)"/></svg>