<svg width="12" height="13" viewBox="0 0 12 13" fill="none" xmlns="http://www.w3.org/2000/svg"><g clip-path="url(#a)"><path d="M5.427 6.46L.115 11.77a.378.378 0 1 0 .534.534l5.352-5.351 5.351 5.351a.376.376 0 0 0 .534 0 .378.378 0 0 0 0-.534L6.575 6.46l5.315-5.316a.378.378 0 1 0-.534-.534L6 5.965.646.61a.378.378 0 0 0-.534.535L5.427 6.46z" fill="#FF855F" stroke="#FF855F" stroke-width=".5"/></g><defs><clipPath id="a"><path fill="#fff" transform="translate(0 .5)" d="M0 0h12v12H0z"/></clipPath></defs></svg>