<svg width="18" height="18" viewBox="0 0 18 18" fill="none" xmlns="http://www.w3.org/2000/svg"><path d="M15.751 3.27a.352.352 0 0 0 .351-.352V1.055C16.102.473 15.63 0 15.048 0H1.056C.474 0 0 .473 0 1.055v15.89A1.057 1.057 0 0 0 1.056 18h13.992c.581 0 1.054-.473 1.054-1.055v-.984a.352.352 0 0 0-.703 0v.984a.352.352 0 0 1-.351.352H1.056a.352.352 0 0 1-.352-.352V1.055c0-.194.158-.352.352-.352h13.992c.194 0 .351.158.351.352v1.863c0 .194.158.352.352.352z" fill="#fff"/><path d="M14.063 1.688H2.039a.352.352 0 0 0-.352.351v7.348a.352.352 0 1 0 .704 0V2.39h11.32v.562a.352.352 0 1 0 .704 0V2.04a.352.352 0 0 0-.352-.352zM2.288 10.439a.354.354 0 0 0-.497 0 .354.354 0 0 0 0 .497.354.354 0 0 0 .6-.249.353.353 0 0 0-.103-.248zm11.775 4.397a.352.352 0 0 0-.352.351v.422H2.391v-3.568a.351.351 0 1 0-.704 0v3.92c0 .194.158.351.352.351h12.024a.352.352 0 0 0 .351-.351v-.774a.352.352 0 0 0-.351-.351z" fill="#fff"/><path d="M10.895 12.422a.351.351 0 0 0-.497 0l-.695.695-.432-.432a.7.7 0 0 0-.989 0l-.28.28a.352.352 0 0 0 .497.498l.278-.278.432.432a.697.697 0 0 0 .989 0l.697-.698a.352.352 0 0 0 0-.497z" fill="#fff"/><path d="M17.838 7.375a1.025 1.025 0 0 0-.391-1.46.32.32 0 0 1-.173-.3 1.025 1.025 0 0 0-1.069-1.068.32.32 0 0 1-.299-.173 1.025 1.025 0 0 0-1.46-.391.32.32 0 0 1-.345 0 1.025 1.025 0 0 0-1.46.391.321.321 0 0 1-.3.173 1.025 1.025 0 0 0-1.068 1.069.32.32 0 0 1-.173.299 1.025 1.025 0 0 0-.543 1.046H4.422a.352.352 0 1 0 0 .703h6.314a.324.324 0 0 1-.027.056 1.025 1.025 0 0 0-.09.928H4.422a.352.352 0 1 0 0 .704h6.83a.32.32 0 0 1 .02.127 1.025 1.025 0 0 0 1.07 1.07.32.32 0 0 1 .298.172c.043.082.095.157.157.223v3.284a.352.352 0 0 0 .6.249l.876-.873.877.873a.352.352 0 0 0 .6-.25v-3.283a1.02 1.02 0 0 0 .156-.223.321.321 0 0 1 .3-.172 1.023 1.023 0 0 0 1.068-1.07.32.32 0 0 1 .173-.298 1.025 1.025 0 0 0 .391-1.46.32.32 0 0 1 0-.346zm-2.791 6.007l-.526-.523a.351.351 0 0 0-.496 0l-.525.523v-2.11c.21.01.421-.044.6-.16a.32.32 0 0 1 .346 0c.166.107.358.162.553.162l.048-.001v2.109zm2.239-5.027a.316.316 0 0 1-.162.201c-.354.183-.57.558-.552.956a.316.316 0 0 1-.093.241.316.316 0 0 1-.241.093 1.026 1.026 0 0 0-.956.552.316.316 0 0 1-.201.162.316.316 0 0 1-.256-.04 1.022 1.022 0 0 0-1.104 0 .316.316 0 0 1-.255.04.316.316 0 0 1-.201-.162 1.025 1.025 0 0 0-.956-.552.316.316 0 0 1-.241-.093.316.316 0 0 1-.093-.24 1.025 1.025 0 0 0-.552-.957.316.316 0 0 1-.162-.201.316.316 0 0 1 .04-.255 1.025 1.025 0 0 0 0-1.104.316.316 0 0 1-.04-.256.316.316 0 0 1 .162-.2c.354-.184.57-.559.552-.957a.316.316 0 0 1 .093-.24.316.316 0 0 1 .24-.094c.399.018.774-.198.957-.552a.316.316 0 0 1 .201-.162.316.316 0 0 1 .255.04c.336.215.77.215 1.104 0a.316.316 0 0 1 .256-.04.313.313 0 0 1 .2.162c.184.354.559.57.957.552a.316.316 0 0 1 .24.093c.065.065.098.15.094.241-.018.398.198.773.552.956a.32.32 0 0 1 .162.201.316.316 0 0 1-.04.256 1.025 1.025 0 0 0 0 1.104.31.31 0 0 1 .04.255z" fill="#fff"/><path d="M15.945 6.591a.352.352 0 0 0-.498 0l-1.166 1.167-.465-.464a.352.352 0 0 0-.497.497l.713.713a.35.35 0 0 0 .497 0l1.416-1.415a.352.352 0 0 0 0-.498zM4.292 4.251a.354.354 0 0 0-.498 0 .354.354 0 0 0 0 .498.354.354 0 0 0 .498 0 .354.354 0 0 0 0-.498zm2.774-.103h-1.71a.352.352 0 1 0 0 .704h1.71a.352.352 0 1 0 0-.704zm3.581 6.188h-4.02a.352.352 0 0 0 0 .703h4.02a.352.352 0 0 0 0-.703z" fill="#fff"/></svg>