<svg width="19" height="19" viewBox="0 0 19 19" fill="none" xmlns="http://www.w3.org/2000/svg"><circle cx="9.5" cy="9.5" r="9.5" fill="#fff"/><circle cx="9.499" cy="9.5" r="7.265" fill="#4880FF"/><g clip-path="url(#a)"><path d="M12.973 6.478c-.328-.169-.694.157-.908.35-.492.458-.908.989-1.374 1.471-.517.53-.996 1.061-1.526 1.58-.303.29-.63.603-.832.965-.454-.422-.845-.88-1.35-1.255-.365-.265-.97-.458-.957.181.025.833.794 1.725 1.361 2.292.24.241.555.494.92.506.442.024.896-.482 1.16-.76.467-.482.845-1.025 1.274-1.519.555-.651 1.122-1.29 1.665-1.954.34-.41 1.412-1.423.567-1.857zM6.58 9.722c-.012 0-.025 0-.05.012a.632.632 0 0 1-.139-.048c.038-.024.101-.012.19.036z" fill="#fff"/></g><defs><clipPath id="a"><path fill="#fff" transform="translate(6.025 6.026)" d="M0 0h7.265v6.949H0z"/></clipPath></defs></svg>