<svg width="288" height="94" viewBox="0 0 288 94" fill="none" xmlns="http://www.w3.org/2000/svg"><path d="M3.999 89.554V78.83l280-68.83v79.554h-280z" fill="#ECEEF7"/><path fill="#D1D6E9" d="M3.999 88.908h280v1.293h-280z"/><circle cx="3.999" cy="89.555" r="3.5" fill="url(#a)" stroke="#fff"/><path fill="#fff" d="M19.47 86.334V64.976h2v21.358z"/><circle cx="20.47" cy="89.554" r="3.5" fill="url(#b)" stroke="#fff"/><path fill="#fff" d="M35.94 86.334V64.976h2v21.358z"/><circle cx="36.94" cy="89.554" r="3.5" fill="url(#c)" stroke="#fff"/><path fill="#fff" d="M52.411 86.334V64.976h2v21.358z"/><circle cx="53.411" cy="89.554" r="3.5" fill="url(#d)" stroke="#fff"/><path fill="#fff" d="M68.882 86.336V60.405h2v25.93z"/><circle cx="69.882" cy="89.556" r="3.5" fill="url(#e)" stroke="#fff"/><path fill="#fff" d="M85.352 86.335V45.93h2v40.405z"/><circle cx="86.353" cy="89.555" r="3.5" fill="url(#f)" stroke="#fff"/><path fill="#fff" d="M101.823 86.335V45.93h2v40.405z"/><circle cx="102.823" cy="89.555" r="3.5" fill="url(#g)" stroke="#fff"/><path fill="#fff" d="M118.294 86.335V45.93h2v40.405z"/><circle cx="119.294" cy="89.555" r="3.5" fill="url(#h)" stroke="#fff"/><path fill="#fff" d="M134.765 86.335V45.93h2v40.405z"/><circle cx="135.765" cy="89.555" r="3.5" fill="url(#i)" stroke="#fff"/><path fill="#fff" d="M151.235 86.335V37.277h2v49.058z"/><circle cx="152.235" cy="89.555" r="3.5" fill="url(#j)" stroke="#fff"/><path fill="#fff" d="M167.706 86.335V27.389h2v58.946z"/><circle cx="168.706" cy="89.555" r="3.5" fill="url(#k)" stroke="#fff"/><path fill="#fff" d="M184.177 86.335V27.389h2v58.946z"/><circle cx="185.177" cy="89.555" r="3.5" fill="url(#l)" stroke="#fff"/><path fill="#fff" d="M200.647 86.335V27.389h2v58.946z"/><circle cx="201.647" cy="89.555" r="3.5" fill="url(#m)" stroke="#fff"/><path fill="#fff" d="M217.118 86.335V13.707h2v72.628z"/><circle cx="218.118" cy="89.555" r="3.5" fill="url(#n)" stroke="#fff"/><path fill="#fff" d="M233.589 86.335V13.707h2v72.628z"/><circle cx="234.589" cy="89.555" r="3.5" fill="url(#o)" stroke="#fff"/><path fill="#fff" d="M250 86.335V0h2v86.335z"/><circle cx="251.06" cy="89.555" r="3.5" fill="url(#p)" stroke="#fff"/><path fill="#fff" d="M266.53 86.335V0h2v86.335z"/><circle cx="267.53" cy="89.555" r="3.5" fill="url(#q)" stroke="#fff"/><circle cx="284.001" cy="89.555" r="3.5" fill="url(#r)" stroke="#fff"/><defs><linearGradient id="a" x1="-.001" y1="85.731" x2="8.713" y2="86.629" gradientUnits="userSpaceOnUse"><stop stop-color="#4880FF"/><stop offset="1" stop-color="#6694FE"/></linearGradient><linearGradient id="b" x1="16.47" y1="85.73" x2="25.184" y2="86.628" gradientUnits="userSpaceOnUse"><stop stop-color="#4880FF"/><stop offset="1" stop-color="#6694FE"/></linearGradient><linearGradient id="c" x1="32.94" y1="85.73" x2="41.654" y2="86.628" gradientUnits="userSpaceOnUse"><stop stop-color="#4880FF"/><stop offset="1" stop-color="#6694FE"/></linearGradient><linearGradient id="d" x1="49.411" y1="85.73" x2="58.125" y2="86.628" gradientUnits="userSpaceOnUse"><stop stop-color="#4880FF"/><stop offset="1" stop-color="#6694FE"/></linearGradient><linearGradient id="e" x1="65.882" y1="85.732" x2="74.596" y2="86.63" gradientUnits="userSpaceOnUse"><stop stop-color="#4880FF"/><stop offset="1" stop-color="#6694FE"/></linearGradient><linearGradient id="f" x1="82.353" y1="85.731" x2="91.067" y2="86.629" gradientUnits="userSpaceOnUse"><stop stop-color="#4880FF"/><stop offset="1" stop-color="#6694FE"/></linearGradient><linearGradient id="g" x1="98.823" y1="85.731" x2="107.537" y2="86.629" gradientUnits="userSpaceOnUse"><stop stop-color="#4880FF"/><stop offset="1" stop-color="#6694FE"/></linearGradient><linearGradient id="h" x1="115.294" y1="85.731" x2="124.008" y2="86.629" gradientUnits="userSpaceOnUse"><stop stop-color="#4880FF"/><stop offset="1" stop-color="#6694FE"/></linearGradient><linearGradient id="i" x1="131.765" y1="85.731" x2="140.479" y2="86.629" gradientUnits="userSpaceOnUse"><stop stop-color="#4880FF"/><stop offset="1" stop-color="#6694FE"/></linearGradient><linearGradient id="j" x1="148.235" y1="85.731" x2="156.949" y2="86.629" gradientUnits="userSpaceOnUse"><stop stop-color="#4880FF"/><stop offset="1" stop-color="#6694FE"/></linearGradient><linearGradient id="k" x1="164.706" y1="85.731" x2="173.42" y2="86.629" gradientUnits="userSpaceOnUse"><stop stop-color="#4880FF"/><stop offset="1" stop-color="#6694FE"/></linearGradient><linearGradient id="l" x1="181.177" y1="85.731" x2="189.891" y2="86.629" gradientUnits="userSpaceOnUse"><stop stop-color="#4880FF"/><stop offset="1" stop-color="#6694FE"/></linearGradient><linearGradient id="m" x1="197.647" y1="85.731" x2="206.361" y2="86.629" gradientUnits="userSpaceOnUse"><stop stop-color="#4880FF"/><stop offset="1" stop-color="#6694FE"/></linearGradient><linearGradient id="n" x1="214.118" y1="85.731" x2="222.832" y2="86.629" gradientUnits="userSpaceOnUse"><stop stop-color="#4880FF"/><stop offset="1" stop-color="#6694FE"/></linearGradient><linearGradient id="o" x1="230.589" y1="85.731" x2="239.303" y2="86.629" gradientUnits="userSpaceOnUse"><stop stop-color="#4880FF"/><stop offset="1" stop-color="#6694FE"/></linearGradient><linearGradient id="p" x1="247.06" y1="85.731" x2="255.774" y2="86.629" gradientUnits="userSpaceOnUse"><stop stop-color="#4880FF"/><stop offset="1" stop-color="#6694FE"/></linearGradient><linearGradient id="q" x1="263.53" y1="85.731" x2="272.244" y2="86.629" gradientUnits="userSpaceOnUse"><stop stop-color="#4880FF"/><stop offset="1" stop-color="#6694FE"/></linearGradient><linearGradient id="r" x1="280.001" y1="85.731" x2="288.715" y2="86.629" gradientUnits="userSpaceOnUse"><stop stop-color="#4880FF"/><stop offset="1" stop-color="#6694FE"/></linearGradient></defs></svg>