<svg width="719" height="105" viewBox="0 0 719 105" fill="none" xmlns="http://www.w3.org/2000/svg"><path d="M4.502 90.554V79.83L714.5 11v79.554H4.5z" fill="#ECEEF7"/><path fill="#D1D6E9" d="M4.502 88.555h709.999v2H4.502z"/><circle cx="4.502" cy="89.555" r="3.5" fill="url(#a)" stroke="#fff"/><path fill="#fff" d="M45.265 86.334V64.976h2v21.358z"/><circle cx="46.266" cy="89.554" r="3.5" fill="url(#b)" stroke="#fff"/><path fill="#fff" d="M87.03 86.334V64.976h2v21.358z"/><circle cx="88.029" cy="89.554" r="3.5" fill="url(#c)" stroke="#fff"/><path fill="#fff" d="M128.793 86.334V64.976h2v21.358z"/><circle cx="129.793" cy="89.554" r="3.5" fill="url(#d)" stroke="#fff"/><path fill="#fff" d="M170.557 86.335v-25.93h2v25.93z"/><circle cx="171.557" cy="89.555" r="3.5" fill="url(#e)" stroke="#fff"/><path fill="#fff" d="M212.32 86.335V45.93h2v40.405z"/><circle cx="213.32" cy="89.554" r="3.5" fill="url(#f)" stroke="#fff"/><path fill="#fff" d="M254.084 86.335V45.93h2v40.405z"/><circle cx="255.084" cy="89.554" r="3.5" fill="url(#g)" stroke="#fff"/><path fill="#fff" d="M295.848 86.335V45.93h2v40.405z"/><circle cx="296.848" cy="89.554" r="3.5" fill="url(#h)" stroke="#fff"/><path fill="#fff" d="M337.611 86.335V45.93h2v40.405z"/><circle cx="338.611" cy="89.554" r="3.5" fill="url(#i)" stroke="#fff"/><path fill="#fff" d="M379.375 86.335V37.277h2v49.058z"/><circle cx="380.375" cy="89.555" r="3.5" fill="url(#j)" stroke="#fff"/><path fill="#fff" d="M421.139 86.335V27.389h2v58.946z"/><circle cx="422.139" cy="89.555" r="3.5" fill="url(#k)" stroke="#fff"/><path fill="#fff" d="M462.902 86.335V27.389h2v58.946z"/><circle cx="463.902" cy="89.555" r="3.5" fill="url(#l)" stroke="#fff"/><path fill="#fff" d="M504.666 86.335V27.389h2v58.946z"/><circle cx="505.666" cy="89.555" r="3.5" fill="url(#m)" stroke="#fff"/><path fill="#fff" d="M546.43 86.335V13.707h2v72.628z"/><circle cx="547.43" cy="89.554" r="3.5" fill="url(#n)" stroke="#fff"/><path fill="#fff" d="M588.193 86.335V13.707h2v72.628z"/><circle cx="589.193" cy="89.554" r="3.5" fill="url(#o)" stroke="#fff"/><path fill="#fff" d="M629.957 86.335V0h2v86.335z"/><circle cx="630.957" cy="89.554" r="3.5" fill="url(#p)" stroke="#fff"/><path fill="#fff" d="M671.721 86.334V0h2v86.335z"/><circle cx="672.721" cy="89.554" r="3.5" fill="url(#q)" stroke="#fff"/><circle cx="714.484" cy="89.555" r="3.5" fill="url(#r)" stroke="#fff"/><rect x="371.875" y="75.055" width="17" height="29" rx="8.5" fill="#fff" stroke="#6C7185"/><path stroke="#B6B8C2" d="M378.4 84.613V95.4m4.045-10.787V95.4"/><defs><linearGradient id="a" x1=".502" y1="85.731" x2="9.216" y2="86.629" gradientUnits="userSpaceOnUse"><stop stop-color="#4880FF"/><stop offset="1" stop-color="#6694FE"/></linearGradient><linearGradient id="b" x1="42.266" y1="85.73" x2="50.98" y2="86.628" gradientUnits="userSpaceOnUse"><stop stop-color="#4880FF"/><stop offset="1" stop-color="#6694FE"/></linearGradient><linearGradient id="c" x1="84.029" y1="85.73" x2="92.743" y2="86.628" gradientUnits="userSpaceOnUse"><stop stop-color="#4880FF"/><stop offset="1" stop-color="#6694FE"/></linearGradient><linearGradient id="d" x1="125.793" y1="85.73" x2="134.507" y2="86.628" gradientUnits="userSpaceOnUse"><stop stop-color="#4880FF"/><stop offset="1" stop-color="#6694FE"/></linearGradient><linearGradient id="e" x1="167.557" y1="85.731" x2="176.271" y2="86.629" gradientUnits="userSpaceOnUse"><stop stop-color="#4880FF"/><stop offset="1" stop-color="#6694FE"/></linearGradient><linearGradient id="f" x1="209.32" y1="85.73" x2="218.034" y2="86.629" gradientUnits="userSpaceOnUse"><stop stop-color="#4880FF"/><stop offset="1" stop-color="#6694FE"/></linearGradient><linearGradient id="g" x1="251.084" y1="85.73" x2="259.798" y2="86.629" gradientUnits="userSpaceOnUse"><stop stop-color="#4880FF"/><stop offset="1" stop-color="#6694FE"/></linearGradient><linearGradient id="h" x1="292.848" y1="85.73" x2="301.562" y2="86.629" gradientUnits="userSpaceOnUse"><stop stop-color="#4880FF"/><stop offset="1" stop-color="#6694FE"/></linearGradient><linearGradient id="i" x1="334.611" y1="85.73" x2="343.325" y2="86.629" gradientUnits="userSpaceOnUse"><stop stop-color="#4880FF"/><stop offset="1" stop-color="#6694FE"/></linearGradient><linearGradient id="j" x1="376.375" y1="85.731" x2="385.089" y2="86.629" gradientUnits="userSpaceOnUse"><stop stop-color="#4880FF"/><stop offset="1" stop-color="#6694FE"/></linearGradient><linearGradient id="k" x1="418.139" y1="85.731" x2="426.853" y2="86.629" gradientUnits="userSpaceOnUse"><stop stop-color="#4880FF"/><stop offset="1" stop-color="#6694FE"/></linearGradient><linearGradient id="l" x1="459.902" y1="85.731" x2="468.616" y2="86.629" gradientUnits="userSpaceOnUse"><stop stop-color="#4880FF"/><stop offset="1" stop-color="#6694FE"/></linearGradient><linearGradient id="m" x1="501.666" y1="85.731" x2="510.38" y2="86.629" gradientUnits="userSpaceOnUse"><stop stop-color="#4880FF"/><stop offset="1" stop-color="#6694FE"/></linearGradient><linearGradient id="n" x1="543.43" y1="85.73" x2="552.144" y2="86.629" gradientUnits="userSpaceOnUse"><stop stop-color="#4880FF"/><stop offset="1" stop-color="#6694FE"/></linearGradient><linearGradient id="o" x1="585.193" y1="85.73" x2="593.907" y2="86.629" gradientUnits="userSpaceOnUse"><stop stop-color="#4880FF"/><stop offset="1" stop-color="#6694FE"/></linearGradient><linearGradient id="p" x1="626.957" y1="85.73" x2="635.671" y2="86.629" gradientUnits="userSpaceOnUse"><stop stop-color="#4880FF"/><stop offset="1" stop-color="#6694FE"/></linearGradient><linearGradient id="q" x1="668.721" y1="85.73" x2="677.435" y2="86.629" gradientUnits="userSpaceOnUse"><stop stop-color="#4880FF"/><stop offset="1" stop-color="#6694FE"/></linearGradient><linearGradient id="r" x1="710.484" y1="85.731" x2="719.198" y2="86.629" gradientUnits="userSpaceOnUse"><stop stop-color="#4880FF"/><stop offset="1" stop-color="#6694FE"/></linearGradient></defs></svg>