<svg width="463" height="106" viewBox="0 0 463 106" fill="none" xmlns="http://www.w3.org/2000/svg"><path d="M4 90.323V79.6l455-68.83v79.554H4z" fill="#ECEEF7"/><path fill="#D1D6E9" d="M4 89.677h455v1.293H4z"/><circle cx="4" cy="90.324" r="3.5" fill="url(#a)" stroke="#fff"/><path fill="#fff" d="M29.764 87.103V65.745h2v21.358z"/><circle cx="30.765" cy="90.323" r="3.5" fill="url(#b)" stroke="#fff"/><path fill="#fff" d="M56.529 87.104V65.746h2v21.358z"/><circle cx="57.529" cy="90.323" r="3.5" fill="url(#c)" stroke="#fff"/><path fill="#fff" d="M83.293 87.103V65.745h2v21.358z"/><circle cx="84.294" cy="90.323" r="3.5" fill="url(#d)" stroke="#fff"/><path fill="#fff" d="M110.06 87.105V61.174h2v25.93z"/><circle cx="111.059" cy="90.325" r="3.5" fill="url(#e)" stroke="#fff"/><path fill="#fff" d="M136.823 87.104V46.699h2v40.405z"/><circle cx="137.823" cy="90.324" r="3.5" fill="url(#f)" stroke="#fff"/><path fill="#fff" d="M163.588 87.104V46.699h2v40.405z"/><circle cx="164.588" cy="90.324" r="3.5" fill="url(#g)" stroke="#fff"/><path fill="#fff" d="M190.353 87.104V46.699h2v40.405z"/><circle cx="191.353" cy="90.324" r="3.5" fill="url(#h)" stroke="#fff"/><path fill="#fff" d="M217.117 87.104V46.699h2v40.405z"/><circle cx="218.117" cy="90.324" r="3.5" fill="url(#i)" stroke="#fff"/><path fill="#fff" d="M243.882 87.104V38.046h2v49.058z"/><circle cx="244.882" cy="90.324" r="3.5" fill="url(#j)" stroke="#fff"/><path fill="#fff" d="M270.646 87.104V28.158h2v58.946z"/><circle cx="271.646" cy="90.324" r="3.5" fill="url(#k)" stroke="#fff"/><path fill="#fff" d="M297.41 87.104V28.158h2v58.946z"/><circle cx="298.411" cy="90.324" r="3.5" fill="url(#l)" stroke="#fff"/><path fill="#fff" d="M324.176 87.104V28.158h2v58.946z"/><circle cx="325.176" cy="90.324" r="3.5" fill="url(#m)" stroke="#fff"/><path fill="#fff" d="M350.94 87.104V14.476h2v72.628z"/><circle cx="351.94" cy="90.324" r="3.5" fill="url(#n)" stroke="#fff"/><path fill="#fff" d="M377.705 87.104V14.476h2v72.628z"/><circle cx="378.705" cy="90.324" r="3.5" fill="url(#o)" stroke="#fff"/><path fill="#fff" d="M404.47 87.104V.769h2v86.335z"/><circle cx="405.47" cy="90.323" r="3.5" fill="url(#p)" stroke="#fff"/><path fill="#fff" d="M431.234 87.104V.769h2v86.335z"/><circle cx="432.234" cy="90.323" r="3.5" fill="url(#q)" stroke="#fff"/><circle cx="458.999" cy="90.324" r="3.5" fill="url(#r)" stroke="#fff"/><rect x="129.323" y="75.823" width="17" height="29" rx="8.5" fill="#fff" stroke="#6C7185"/><path stroke="#B6B8C2" d="M135.848 85.382v10.787m4.045-10.787v10.787"/><defs><linearGradient id="a" y1="86.5" x2="8.714" y2="87.398" gradientUnits="userSpaceOnUse"><stop stop-color="#4880FF"/><stop offset="1" stop-color="#6694FE"/></linearGradient><linearGradient id="b" x1="26.765" y1="86.499" x2="35.479" y2="87.397" gradientUnits="userSpaceOnUse"><stop stop-color="#4880FF"/><stop offset="1" stop-color="#6694FE"/></linearGradient><linearGradient id="c" x1="53.529" y1="86.499" x2="62.243" y2="87.397" gradientUnits="userSpaceOnUse"><stop stop-color="#4880FF"/><stop offset="1" stop-color="#6694FE"/></linearGradient><linearGradient id="d" x1="80.294" y1="86.499" x2="89.008" y2="87.397" gradientUnits="userSpaceOnUse"><stop stop-color="#4880FF"/><stop offset="1" stop-color="#6694FE"/></linearGradient><linearGradient id="e" x1="107.059" y1="86.501" x2="115.773" y2="87.399" gradientUnits="userSpaceOnUse"><stop stop-color="#4880FF"/><stop offset="1" stop-color="#6694FE"/></linearGradient><linearGradient id="f" x1="133.823" y1="86.5" x2="142.537" y2="87.398" gradientUnits="userSpaceOnUse"><stop stop-color="#4880FF"/><stop offset="1" stop-color="#6694FE"/></linearGradient><linearGradient id="g" x1="160.588" y1="86.5" x2="169.302" y2="87.398" gradientUnits="userSpaceOnUse"><stop stop-color="#4880FF"/><stop offset="1" stop-color="#6694FE"/></linearGradient><linearGradient id="h" x1="187.353" y1="86.5" x2="196.067" y2="87.398" gradientUnits="userSpaceOnUse"><stop stop-color="#4880FF"/><stop offset="1" stop-color="#6694FE"/></linearGradient><linearGradient id="i" x1="214.117" y1="86.5" x2="222.831" y2="87.398" gradientUnits="userSpaceOnUse"><stop stop-color="#4880FF"/><stop offset="1" stop-color="#6694FE"/></linearGradient><linearGradient id="j" x1="240.882" y1="86.5" x2="249.596" y2="87.398" gradientUnits="userSpaceOnUse"><stop stop-color="#4880FF"/><stop offset="1" stop-color="#6694FE"/></linearGradient><linearGradient id="k" x1="267.646" y1="86.5" x2="276.36" y2="87.398" gradientUnits="userSpaceOnUse"><stop stop-color="#4880FF"/><stop offset="1" stop-color="#6694FE"/></linearGradient><linearGradient id="l" x1="294.411" y1="86.5" x2="303.125" y2="87.398" gradientUnits="userSpaceOnUse"><stop stop-color="#4880FF"/><stop offset="1" stop-color="#6694FE"/></linearGradient><linearGradient id="m" x1="321.176" y1="86.5" x2="329.89" y2="87.398" gradientUnits="userSpaceOnUse"><stop stop-color="#4880FF"/><stop offset="1" stop-color="#6694FE"/></linearGradient><linearGradient id="n" x1="347.94" y1="86.5" x2="356.654" y2="87.398" gradientUnits="userSpaceOnUse"><stop stop-color="#4880FF"/><stop offset="1" stop-color="#6694FE"/></linearGradient><linearGradient id="o" x1="374.705" y1="86.5" x2="383.419" y2="87.398" gradientUnits="userSpaceOnUse"><stop stop-color="#4880FF"/><stop offset="1" stop-color="#6694FE"/></linearGradient><linearGradient id="p" x1="401.47" y1="86.499" x2="410.184" y2="87.398" gradientUnits="userSpaceOnUse"><stop stop-color="#4880FF"/><stop offset="1" stop-color="#6694FE"/></linearGradient><linearGradient id="q" x1="428.234" y1="86.499" x2="436.948" y2="87.398" gradientUnits="userSpaceOnUse"><stop stop-color="#4880FF"/><stop offset="1" stop-color="#6694FE"/></linearGradient><linearGradient id="r" x1="454.999" y1="86.5" x2="463.713" y2="87.398" gradientUnits="userSpaceOnUse"><stop stop-color="#4880FF"/><stop offset="1" stop-color="#6694FE"/></linearGradient></defs></svg>