<svg width="57" height="57" viewBox="0 0 57 57" fill="none" xmlns="http://www.w3.org/2000/svg"><g clip-path="url(#a)" fill="#FF855F"><path d="M56.266 45.243L32.886 6.468A5.148 5.148 0 0 0 28.5 3.992a5.148 5.148 0 0 0-4.385 2.476L.735 45.243a5.129 5.129 0 0 0-.074 5.162 5.129 5.129 0 0 0 4.458 2.603H51.88a5.129 5.129 0 0 0 4.46-2.603 5.128 5.128 0 0 0-.074-5.162zm-3.158 3.337c-.25.442-.72.717-1.228.717H5.12a1.412 1.412 0 0 1-1.208-2.138l23.38-38.774c.254-.42.717-.682 1.208-.682s.954.261 1.207.682l23.38 38.774c.263.435.27.98.02 1.421z"/><path d="M28.517 19.26c-1.411 0-2.513.758-2.513 2.1 0 4.098.482 9.985.482 14.082 0 1.068.93 1.515 2.031 1.515.827 0 1.997-.447 1.997-1.515 0-4.097.482-9.984.482-14.081 0-1.343-1.136-2.1-2.479-2.1zm.033 20.073a2.63 2.63 0 0 0-2.652 2.651 2.652 2.652 0 0 0 2.652 2.651c1.411 0 2.616-1.24 2.616-2.65 0-1.447-1.205-2.652-2.616-2.652z"/></g><defs><clipPath id="a"><path fill="#fff" d="M0 0h57v57H0z"/></clipPath></defs></svg>