<svg width="36" height="35" viewBox="0 0 36 35" fill="none" xmlns="http://www.w3.org/2000/svg"><g clip-path="url(#a)" fill="#6C7185" stroke="#fff" stroke-width=".3"><path d="M33.533 18.02l.124-.062-.124.061 1.305 2.67a2.888 2.888 0 0 1-1.246 3.837l.07.133-.07-.133-2.626 1.393a1.176 1.176 0 0 0-.61.84l-.514 2.928a2.888 2.888 0 0 1-3.263 2.371l-2.943-.416a1.177 1.177 0 0 0-.988.32l-2.136 2.067.104.108-.104-.108a2.892 2.892 0 0 1-4.034 0l-2.136-2.066a1.175 1.175 0 0 0-.988-.321l-2.943.416a2.887 2.887 0 0 1-3.264-2.371l-.513-2.928a1.176 1.176 0 0 0-.61-.84l-2.626-1.393a2.888 2.888 0 0 1-1.246-3.836l1.305-2.67c.161-.33.161-.71 0-1.039l-.135.066.135-.066-1.305-2.67a2.888 2.888 0 0 1 1.246-3.837l-.07-.132.07.132 2.626-1.393c.324-.172.547-.479.61-.84l.514-2.928a2.888 2.888 0 0 1 3.263-2.37l2.943.416c.364.05.724-.066.988-.321l-.104-.108.104.108L16.478.97l-.104-.108.104.108a2.888 2.888 0 0 1 4.034 0l.104-.108-.104.108 2.136 2.066.105-.107-.105.107c.264.255.624.373.988.321l2.943-.416-.021-.149.02.149a2.889 2.889 0 0 1 3.264 2.371l.514 2.928c.063.361.286.668.61.84l2.626 1.393a2.888 2.888 0 0 1 1.246 3.836l-1.305 2.67a1.18 1.18 0 0 0 0 1.04zM26.82 30.355a1.178 1.178 0 0 0 1.33-.966l.513-2.928a2.882 2.882 0 0 1 1.498-2.061l2.625-1.393c.566-.3.79-.988.508-1.564l-.134.066.134-.066-1.305-2.67a2.882 2.882 0 0 1 0-2.548l1.305-2.67-.134-.066.134.066a1.178 1.178 0 0 0-.508-1.564L30.16 10.6l-.07.133.07-.133a2.881 2.881 0 0 1-1.497-2.061l-.514-2.928a1.178 1.178 0 0 0-1.33-.966l-2.943.416.021.149-.02-.149a2.881 2.881 0 0 1-2.424-.787l-2.136-2.067a1.178 1.178 0 0 0-1.644 0l-2.136 2.067a2.881 2.881 0 0 1-2.424.787l-2.943-.416a1.178 1.178 0 0 0-1.33.966l-.513 2.928A2.881 2.881 0 0 1 6.829 10.6l-2.625 1.393c-.566.3-.79.988-.508 1.564l.134-.066-.134.066L5 16.226c.396.81.396 1.738 0 2.548l-1.305 2.67.134.066-.134-.066a1.178 1.178 0 0 0 .508 1.564L6.829 24.4l.07-.133-.07.133a2.881 2.881 0 0 1 1.498 2.061l.514 2.928.147-.026-.147.026c.11.631.695 1.056 1.33.966l-.021-.148.02.148 2.944-.416a2.878 2.878 0 0 1 2.423.787l2.136 2.067.104-.108-.104.108a1.18 1.18 0 0 0 1.644 0l2.136-2.067a2.881 2.881 0 0 1 2.424-.787l2.943.416z"/><path d="M25.764 10.231a.86.86 0 0 1 0 1.216L12.44 24.768a.856.856 0 0 1-1.215 0 .86.86 0 0 1 0-1.215L24.548 10.23a.86.86 0 0 1 1.216 0zm-9.474 1.886c0-1.01-.82-1.832-1.831-1.832-1.01 0-1.832.822-1.832 1.832 0 1.01.821 1.832 1.832 1.832 1.01 0 1.832-.822 1.832-1.832zm-5.382 0a3.555 3.555 0 0 1 3.55-3.55 3.555 3.555 0 0 1 3.552 3.55 3.555 3.555 0 0 1-3.551 3.55 3.555 3.555 0 0 1-3.551-3.55zm8.074 10.766a3.555 3.555 0 0 1 3.55-3.55 3.555 3.555 0 0 1 3.552 3.55 3.555 3.555 0 0 1-3.551 3.551 3.555 3.555 0 0 1-3.551-3.55zm1.719 0c0 1.01.822 1.832 1.832 1.832 1.01 0 1.832-.822 1.832-1.832 0-1.01-.822-1.832-1.832-1.832-1.01 0-1.832.822-1.832 1.832z"/></g><defs><clipPath id="a"><path fill="#fff" transform="translate(.996)" d="M0 0h35v35H0z"/></clipPath></defs></svg>