<svg width="13" height="13" viewBox="0 0 13 13" fill="none" xmlns="http://www.w3.org/2000/svg"><g clip-path="url(#a)"><path d="M9.618 3.637a.5.5 0 0 0 0-.707l-.014-.014a.5.5 0 0 0-.707 0L6.359 5.454a.5.5 0 0 0 0 .707l.014.014a.5.5 0 0 0 .708 0l2.537-2.538zm2.871-.743a.5.5 0 0 0-.696.013L7.081 7.665a.5.5 0 0 1-.71.002L4.918 6.212a.5.5 0 0 0-.707 0l-.014.014a.5.5 0 0 0 0 .707L6.373 9.11a.5.5 0 0 0 .708 0l5.46-5.46a.5.5 0 0 0-.012-.72l-.04-.036zM1.261 6.226a.5.5 0 0 0 0 .707L3.438 9.11a.5.5 0 0 0 .707 0l.014-.014a.5.5 0 0 0 0-.707L1.982 6.212a.5.5 0 0 0-.707 0l-.014.014z" fill="#fff"/></g><defs><clipPath id="a"><path fill="#fff" transform="translate(.907 .014)" d="M0 0h12v12H0z"/></clipPath></defs></svg>