<svg width="19" height="19" viewBox="0 0 19 19" fill="none" xmlns="http://www.w3.org/2000/svg"><g clip-path="url(#a)" fill="#4880FF"><path d="M17.536 11.936a.473.473 0 0 0-.473.473v4.201a1.421 1.421 0 0 1-1.42 1.42H2.367a1.421 1.421 0 0 1-1.42-1.42V4.28a1.421 1.421 0 0 1 1.42-1.42h4.201a.473.473 0 1 0 0-.947H2.366A2.369 2.369 0 0 0 0 4.28v12.332a2.369 2.369 0 0 0 2.366 2.366h13.277a2.369 2.369 0 0 0 2.366-2.366V12.41a.473.473 0 0 0-.473-.473z"/><path d="M17.822.696a2.13 2.13 0 0 0-3.012 0L6.368 9.138a.473.473 0 0 0-.121.208l-1.11 4.008a.473.473 0 0 0 .582.583l4.008-1.11a.472.472 0 0 0 .208-.122l8.442-8.443c.83-.832.83-2.179 0-3.011l-.555-.555zM7.399 9.446l6.91-6.91 2.228 2.228-6.91 6.91L7.4 9.445zm-.445.893l1.78 1.78-2.462.682.682-2.462zm10.754-6.746l-.502.502-2.229-2.228.502-.502a1.183 1.183 0 0 1 1.673 0l.556.555a1.185 1.185 0 0 1 0 1.673z"/></g><defs><clipPath id="a"><path fill="#fff" d="M0 0h19v19H0z"/></clipPath></defs></svg>