<svg width="18" height="18" viewBox="0 0 18 18" fill="none" xmlns="http://www.w3.org/2000/svg"><g clip-path="url(#a)" fill="#fff"><path d="M18 6.9c0-.006-.003-.012-.004-.018a.284.284 0 0 0-.012-.061.306.306 0 0 0-.017-.052.29.29 0 0 0-.03-.045.298.298 0 0 0-.04-.047l-.013-.014L15 4.423V2.1a.9.9 0 0 0-.9-.9h-3.251L9.547.189a.89.89 0 0 0-1.094 0L7.15 1.199H3.9a.9.9 0 0 0-.9.9v2.323L.116 6.662l-.012.015a.294.294 0 0 0-.041.047.287.287 0 0 0-.03.045.296.296 0 0 0-.017.052.284.284 0 0 0-.012.06c0 .006-.004.011-.004.018V17.1a.889.889 0 0 0 .05.284.297.297 0 0 0 .33.45A.892.892 0 0 0 .9 18h16.2c.187 0 .37-.06.521-.169a.297.297 0 0 0 .079.013.297.297 0 0 0 .25-.46.89.89 0 0 0 .05-.284V6.9zM8.82.662a.288.288 0 0 1 .358 0l.692.538H8.13l.69-.538zM.974 17.4l7.846-6.094a.288.288 0 0 1 .357 0l7.849 6.094H.974zm16.426-.469l-7.854-6.099a.89.89 0 0 0-1.093 0L.6 16.932V7.356l4.916 3.817a.3.3 0 1 0 .368-.474L.889 6.822 3 5.182V7.5a.3.3 0 1 0 .6 0V2.1a.3.3 0 0 1 .3-.3h10.2a.3.3 0 0 1 .3.3v5.4a.3.3 0 1 0 .6 0V5.182l2.111 1.64-5.003 3.885a.3.3 0 0 0 .368.474L17.4 7.357v9.574z"/><path d="M6 3.9h6a.3.3 0 1 0 0-.6H6a.3.3 0 1 0 0 .6zm6.3 1.5a.3.3 0 0 0-.3-.3H6a.3.3 0 1 0 0 .6h6a.3.3 0 0 0 .3-.3zm0 1.8a.3.3 0 0 0-.3-.3H9.3a.3.3 0 1 0 0 .6H12a.3.3 0 0 0 .3-.3z"/></g><defs><clipPath id="a"><path fill="#fff" d="M0 0h18v18H0z"/></clipPath></defs></svg>