<svg width="90" height="91" viewBox="0 0 90 91" fill="none" xmlns="http://www.w3.org/2000/svg"><g clip-path="url(#a)"><path d="M88.359 54.338a2.374 2.374 0 0 1-1.467 4.516l-4.077-1.325a2.373 2.373 0 1 1 1.467-4.516l4.077 1.325z" fill="#FFC501"/><path d="M84.507 29.973a5.9 5.9 0 0 1-1.502 6.084l-14.25 13.889c-.28.273-.406.667-.342 1.052l3.364 19.612a5.899 5.899 0 0 1-2.36 5.805 5.92 5.92 0 0 1-3.483 1.14 5.938 5.938 0 0 1-2.768-.689l-17.613-9.259a1.18 1.18 0 0 0-1.104 0l-17.614 9.26a5.897 5.897 0 0 1-6.25-.452 5.896 5.896 0 0 1-2.363-5.805l3.364-19.612a1.188 1.188 0 0 0-.342-1.052L6.994 36.057a5.9 5.9 0 0 1-1.5-6.084 5.897 5.897 0 0 1 4.791-4.041l19.693-2.861c.385-.057.72-.3.893-.65l8.806-17.844A5.904 5.904 0 0 1 45 1.269a5.899 5.899 0 0 1 5.322 3.307L59.13 22.42c.174.352.506.594.893.65l19.693 2.862a5.9 5.9 0 0 1 4.791 4.04zm-4.817 2.682c.478-.463.37-1.004.302-1.215a1.155 1.155 0 0 0-.96-.807l-19.69-2.863a5.93 5.93 0 0 1-4.47-3.246L46.065 6.678a1.138 1.138 0 0 0-.56-.554A1.263 1.263 0 0 0 45 6.017c-.221 0-.77.065-1.064.66l-8.808 17.847a5.93 5.93 0 0 1-4.468 3.245l-19.694 2.863a1.155 1.155 0 0 0-.956.808c-.07.21-.178.752.299 1.215l14.25 13.891a5.933 5.933 0 0 1 1.706 5.254l-3.364 19.613c-.111.655.295 1.03.473 1.16.18.131.662.402 1.251.09l17.614-9.258a5.919 5.919 0 0 1 5.524 0l17.614 9.259c.589.31 1.07.04 1.249-.09.18-.13.586-.506.472-1.161L63.734 51.8a5.94 5.94 0 0 1 1.707-5.254l14.25-13.89z" fill="#FBCF3A"/><path d="M79.993 31.44c.068.211.175.752-.302 1.215l-14.25 13.891a5.94 5.94 0 0 0-1.707 5.254L67.1 71.413a1.154 1.154 0 0 1-.473 1.16c-.178.132-.66.402-1.249.091l-17.613-9.26a5.929 5.929 0 0 0-5.525 0l-17.614 9.26c-.588.311-1.07.04-1.25-.09a1.162 1.162 0 0 1-.473-1.161L26.266 51.8a5.933 5.933 0 0 0-1.707-5.253l-14.25-13.892a1.152 1.152 0 0 1-.299-1.215c.069-.211.3-.712.957-.807L30.66 27.77a5.93 5.93 0 0 0 4.469-3.246l8.808-17.846c.294-.596.843-.66 1.063-.66.112 0 .304.016.506.106s.413.257.56.554l8.806 17.846a5.93 5.93 0 0 0 4.47 3.245l19.691 2.864c.66.095.89.595.96.807zM72.734 4.576a2.373 2.373 0 0 1 .527 3.315l-2.522 3.469a2.365 2.365 0 0 1-1.923.98 2.37 2.37 0 0 1-1.393-.454 2.378 2.378 0 0 1-.525-3.316l2.521-3.47a2.37 2.37 0 0 1 3.315-.525zM47.373 83.267v4.288a2.373 2.373 0 1 1-4.748 0v-4.288a2.375 2.375 0 0 1 4.748 0zM23.091 8.556a2.378 2.378 0 0 1-.524 3.316 2.37 2.37 0 0 1-1.394.454c-.736 0-1.46-.34-1.923-.979L16.73 7.88a2.377 2.377 0 0 1 .525-3.317 2.373 2.373 0 0 1 3.316.525l2.521 3.469zM8.709 54.533a2.374 2.374 0 0 1-1.524 2.994L3.108 58.85a2.375 2.375 0 0 1-1.467-4.518l4.077-1.324a2.374 2.374 0 0 1 2.99 1.524z" fill="#FFC501"/></g><defs><clipPath id="a"><path fill="#fff" transform="translate(0 .6)" d="M0 0h90v90H0z"/></clipPath></defs></svg>