<svg width="27" height="27" viewBox="0 0 27 27" fill="none" xmlns="http://www.w3.org/2000/svg"><path d="M26.764 25.623l-6.561-6.561a11.466 11.466 0 0 0 2.826-7.55C23.029 5.161 17.862 0 11.516 0 5.164 0 .004 5.167.004 11.512c0 6.346 5.166 11.513 11.512 11.513 2.886 0 5.526-1.066 7.55-2.826l6.561 6.561c.156.156.365.24.569.24a.81.81 0 0 0 .569-1.377zm-25.15-14.11c0-5.46 4.442-9.897 9.896-9.897 5.46 0 9.896 4.443 9.896 9.896 0 5.454-4.436 9.902-9.896 9.902-5.454 0-9.896-4.442-9.896-9.902z" fill="#fff"/></svg>