<svg width="18" height="18" viewBox="0 0 18 18" fill="none" xmlns="http://www.w3.org/2000/svg"><path d="M7.5 4.2h3a.3.3 0 1 0 0-.6h-3a.3.3 0 0 0 0 .6zM6.3 5.4h5.4a.3.3 0 1 0 0-.6H6.3a.3.3 0 0 0 0 .6zM9 7.2a4.205 4.205 0 0 0-4.2 4.2c0 2.316 1.885 4.2 4.2 4.2 2.317 0 4.2-1.884 4.2-4.2 0-2.316-1.883-4.2-4.2-4.2zm1.079 2.942a9.657 9.657 0 0 1-1.078.058c-.407 0-.762-.023-1.078-.058.243-1.2.788-1.916 1.078-2.226.29.31.835 1.027 1.078 2.226zm.086.595c.021.21.036.429.036.663 0 .234-.015.452-.036.662A10.44 10.44 0 0 0 9.005 12c-.438 0-.823.025-1.168.063A6.51 6.51 0 0 1 7.8 11.4c0-.234.014-.453.036-.663.344.038.727.063 1.164.063.436 0 .82-.025 1.164-.063zm-1.906-2.86c-.334.455-.728 1.171-.928 2.175-.772-.152-1.2-.387-1.398-.527A3.608 3.608 0 0 1 8.26 7.878zM5.4 11.4c0-.47.093-.919.258-1.331.286.19.783.429 1.584.581a7.127 7.127 0 0 0-.042.75c0 .265.017.512.042.75-.8.153-1.297.393-1.584.582A3.584 3.584 0 0 1 5.4 11.4zm.533 1.876c.2-.142.629-.375 1.397-.527.2 1.003.595 1.72.928 2.173a3.608 3.608 0 0 1-2.325-1.646zm1.989-.617a9.643 9.643 0 0 1 1.083-.059c.404 0 .757.023 1.073.057-.243 1.2-.789 1.917-1.078 2.227-.29-.31-.835-1.027-1.078-2.226zm1.82 2.263c.333-.454.728-1.17.928-2.175.77.152 1.2.385 1.399.525a3.607 3.607 0 0 1-2.327 1.65zM12.6 11.4c0 .47-.094.917-.257 1.329-.288-.19-.785-.429-1.585-.58.024-.238.042-.484.042-.749s-.018-.512-.043-.75c.8-.151 1.298-.39 1.585-.58.165.412.258.86.258 1.33zm-1.93-1.348c-.2-1.004-.595-1.72-.928-2.174a3.609 3.609 0 0 1 2.326 1.649c-.201.142-.632.374-1.399.525z" fill="#fff"/><path d="M14.1 1.2h-.3V.9a.9.9 0 0 0-.9-.9H3.3c-.496 0-.9.404-.9.9v16.8a.3.3 0 0 0 .3.3h11.4c.842 0 1.5-.659 1.5-1.5V2.7c0-.827-.672-1.5-1.5-1.5zm.9 15.3a.89.89 0 0 1-.9.9H3V.9a.3.3 0 0 1 .3-.3h9.6a.3.3 0 0 1 .3.3v.3H3.9a.3.3 0 0 0 0 .6h10.2c.488 0 .9.412.9.9v13.8z" fill="#fff"/></svg>