<svg width="19" height="19" viewBox="0 0 19 19" fill="none" xmlns="http://www.w3.org/2000/svg"><g clip-path="url(#a)" fill="#6C7185"><path d="M9.637.5a6.825 6.825 0 0 0-6.819 6.822c0 3.664 6.289 10.763 6.556 11.061a.35.35 0 0 0 .523 0c.266-.302 6.555-7.397 6.555-11.061A6.825 6.825 0 0 0 9.637.5zm0 17.115C8.437 16.21 3.52 10.319 3.52 7.318a6.117 6.117 0 1 1 12.234 0c0 3-4.917 8.9-6.117 10.297z"/><path d="M9.76 3.922a3.695 3.695 0 1 0 3.699 3.695A3.702 3.702 0 0 0 9.76 3.922zm0 6.692a2.993 2.993 0 1 1 0-5.987 2.993 2.993 0 0 1 0 5.987z"/></g><defs><clipPath id="a"><path fill="#fff" transform="translate(.635 .5)" d="M0 0h18v18H0z"/></clipPath></defs></svg>