<svg width="14" height="8" viewBox="0 0 14 8" fill="none" xmlns="http://www.w3.org/2000/svg"><path d="M10.222 1.169a.5.5 0 0 0 0-.707l-.134-.134a.5.5 0 0 0-.708 0L6.302 3.406a.5.5 0 0 0 0 .707l.134.134a.5.5 0 0 0 .707 0l3.079-3.078zm3.232-.864a.5.5 0 0 0-.697.014L7.143 5.986a.5.5 0 0 1-.709.002L4.62 4.173a.5.5 0 0 0-.707 0l-.135.134a.5.5 0 0 0 0 .707l2.658 2.658a.5.5 0 0 0 .707 0l6.491-6.49a.5.5 0 0 0-.012-.72l-.168-.157zM.354 4.307a.5.5 0 0 0 0 .707L3.01 7.672a.5.5 0 0 0 .707 0l.134-.134a.5.5 0 0 0 0-.707L1.195 4.173a.5.5 0 0 0-.707 0l-.134.134z" fill="#fff"/></svg>