<svg width="65" height="64" viewBox="0 0 65 64" fill="none" xmlns="http://www.w3.org/2000/svg"><g clip-path="url(#a)"><path d="M56.764 42.739c-1.72 4.662-4.322 8.716-7.734 12.047-3.883 3.792-8.968 6.805-15.114 8.955a4.714 4.714 0 0 1-1.469.26h-.054a4.7 4.7 0 0 1-1.521-.259c-6.153-2.146-11.245-5.157-15.132-8.95-3.413-3.331-6.014-7.382-7.732-12.044-3.123-8.477-2.946-17.815-2.802-25.319l.002-.115c.029-.62.047-1.27.058-1.99.052-3.528 2.858-6.448 6.387-6.644 7.358-.411 13.05-2.81 17.914-7.552l.043-.039a4.097 4.097 0 0 1 5.566 0l.041.04c4.865 4.74 10.557 7.14 17.916 7.55 3.53.197 6.335 3.117 6.387 6.646a59.6 59.6 0 0 0 .058 1.989l.001.049c.143 7.518.32 16.874-2.815 25.376z" fill="#fff"/><path d="M48.342 32c0 8.776-7.125 15.92-15.894 15.95h-.056c-8.794 0-15.95-7.155-15.95-15.95 0-8.794 7.156-15.95 15.95-15.95h.056c8.769.031 15.894 7.175 15.894 15.95z" fill="#33C093"/><path d="M39.63 29.703l-7.183 7.185-1.552 1.552c-.367.367-.848.55-1.328.55-.481 0-.962-.183-1.329-.55l-3.337-3.339a1.877 1.877 0 1 1 2.655-2.655l2.01 2.01 7.41-7.408a1.877 1.877 0 1 1 2.655 2.655z" fill="#fff"/></g><defs><clipPath id="a"><path fill="#fff" transform="translate(.266)" d="M0 0h64v64H0z"/></clipPath></defs></svg>