<svg width="14" height="14" viewBox="0 0 14 14" fill="none" xmlns="http://www.w3.org/2000/svg"><g clip-path="url(#a)"><path d="M13.435 6.104a.623.623 0 0 0 .159-.645.623.623 0 0 0-.508-.428l-3.39-.493a.818.818 0 0 1-.616-.448L7.564 1.02v-.001A.623.623 0 0 0 7 .669a.623.623 0 0 0-.564.35L4.921 4.09l-.337-.165a.443.443 0 0 1-.334.242l9.185 1.937zm0 0l-2.453 2.39a.819.819 0 0 0-.236.725m2.689-3.115l-2.689 3.115m-6.984 4.37l3.032-1.593a.454.454 0 0 1 .413 0l3.031 1.594a.994.994 0 0 0 .467.117 1.007 1.007 0 0 0 .99-1.176l-.58-3.375M3.763 13.59l-.174-.332m.174.332l-.174-.332m.174.332c-.417.219-.939.11-1.237-.245l.729-4.126m.334 4.039l3.031-1.594a.829.829 0 0 1 .76 0h.002l3.032 1.594a.62.62 0 0 0 .776-.154.607.607 0 0 0 .136-.509l-.579-3.376.37-.063m-7.528 4.102a.64.64 0 0 1-.776-.154.608.608 0 0 1-.137-.509l.579-3.376m7.862-.063l-.37.063m.37-.063a.444.444 0 0 1 .128-.393l-.498.456m-7.492 0a.819.819 0 0 0-.236-.724L.566 6.104m2.688 3.115L.566 6.104m0 0a.623.623 0 0 1-.16-.645l.16.645z" stroke="#FFC501" stroke-width=".75"/><mask id="b" maskUnits="userSpaceOnUse" x="-2" y="0" width="8" height="14"><path fill="#C4C4C4" d="M-1.4 0h7v14h-7z"/></mask><g mask="url(#b)"><path d="M13.696 6.372a.998.998 0 0 0 .254-1.029.998.998 0 0 0-.81-.683l-3.39-.493a.443.443 0 0 1-.334-.242L7.901.853a.998.998 0 0 0-.9-.56.998.998 0 0 0-.9.56L4.583 3.925a.443.443 0 0 1-.334.242L.86 4.66a.998.998 0 0 0-.81.683.998.998 0 0 0 .254 1.03l2.452 2.39a.444.444 0 0 1 .128.393l-.578 3.375a.983.983 0 0 0 .219.814c.298.356.82.464 1.237.245l3.032-1.594a.454.454 0 0 1 .413 0l3.031 1.594a.994.994 0 0 0 .467.117 1.007 1.007 0 0 0 .99-1.176l-.58-3.375a.444.444 0 0 1 .129-.393l2.452-2.39z" fill="#FFC501"/></g></g><defs><clipPath id="a"><path fill="#fff" d="M0 0h14v14H0z"/></clipPath></defs></svg>