<svg width="15" height="14" viewBox="0 0 14 14" fill="none" xmlns="http://www.w3.org/2000/svg"><path fill-rule="evenodd" clip-rule="evenodd" d="M7.16 1.876L6.282 4.58a1.665 1.665 0 0 1-1.584 1.15H1.857L4.155 7.4c.584.425.828 1.177.605 1.863l-.878 2.702 2.3-1.67a1.665 1.665 0 0 1 1.957 0l2.299 1.67-.878-2.702a1.665 1.665 0 0 1 .605-1.862l2.299-1.67H9.622c-.721 0-1.36-.465-1.584-1.151L7.16 1.876zM7.793.588c-.2-.613-1.066-.613-1.266 0L5.331 4.27a.665.665 0 0 1-.633.46H.827c-.645 0-.913.824-.391 1.203L3.568 8.21c.233.17.33.47.241.744l-1.196 3.682c-.2.613.503 1.123 1.024.744l3.132-2.276a.665.665 0 0 1 .782 0l3.132 2.276c.522.379 1.223-.131 1.024-.744l-1.196-3.682a.665.665 0 0 1 .242-.744l3.132-2.276c.521-.379.253-1.203-.392-1.203h-3.87a.665.665 0 0 1-.634-.46L7.793.588z" fill="#FFC501"/></svg>