<svg width="14" height="14" viewBox="0 0 14 14" fill="none" xmlns="http://www.w3.org/2000/svg"><g clip-path="url(#a)"><path d="M13.696 6.372a.998.998 0 0 0 .254-1.029.998.998 0 0 0-.81-.683l-3.39-.493a.443.443 0 0 1-.334-.242L7.901.853a.998.998 0 0 0-.9-.56.998.998 0 0 0-.9.56L4.583 3.925a.443.443 0 0 1-.334.242L.86 4.66a.998.998 0 0 0-.81.683.998.998 0 0 0 .254 1.03l2.452 2.39a.444.444 0 0 1 .128.393l-.578 3.375a.983.983 0 0 0 .219.814c.298.356.82.464 1.237.245l3.032-1.594a.454.454 0 0 1 .413 0l3.031 1.594a.994.994 0 0 0 .467.117 1.007 1.007 0 0 0 .99-1.176l-.58-3.375a.444.444 0 0 1 .129-.393l2.452-2.39z" fill="#FFC501"/></g><defs><clipPath id="a"><path fill="#fff" d="M0 0h14v14H0z"/></clipPath></defs></svg>