<svg width="80" height="80" viewBox="0 0 80 80" fill="none" xmlns="http://www.w3.org/2000/svg"><path fill="#fff" d="M10.6 10.599h58.8v58.8H10.6z" filter="url(#a)"/><rect x="7.5" y="7.5" width="65" height="65" rx="2.5" stroke="#fff" stroke-width="5" filter="url(#b)"/><path d="M54.456 27.047c-4.79-1.45-9.61-3.71-13.935-6.535a.672.672 0 0 0-.745 0c-4.451 2.905-9.01 5.043-13.936 6.535-.319.097-.54.417-.54.782v8.275c0 8.52 3.556 14.161 6.539 17.393 3.21 3.478 6.951 5.402 8.31 5.402 1.357 0 5.098-1.924 8.309-5.402 2.982-3.231 6.537-8.872 6.537-17.393v-8.275c0-.365-.22-.685-.538-.782zm-.925 9.056c0 7.96-3.317 13.223-6.099 16.237-3.157 3.42-6.533 4.94-7.284 4.94-.75 0-4.126-1.52-7.284-4.94-2.782-3.014-6.098-8.278-6.098-16.237v-7.66c4.711-1.479 9.099-3.543 13.382-6.295 4.177 2.68 8.784 4.846 13.383 6.295v7.66z" fill="#6C7185"/><path d="M33.656 28.351c-.148-.416-.573-.62-.95-.456a55.852 55.852 0 0 1-3.992 1.56c-.305.105-.513.418-.513.772v3.127c0 .447.328.81.733.81.404 0 .732-.363.732-.81V30.82a57.294 57.294 0 0 0 3.577-1.418c.377-.163.561-.634.413-1.05zm1.393.155a.674.674 0 0 0 .293-.068l.014-.007c.37-.18.537-.656.375-1.066-.163-.41-.596-.595-.967-.416l-.012.006c-.37.179-.538.656-.376 1.065.12.305.39.486.673.486zm13.826 18.007c-.338-.245-.792-.14-1.014.235a19.5 19.5 0 0 1-2.105 2.907 19.472 19.472 0 0 1-2.1 2.066c-.322.272-.384.78-.139 1.136a.71.71 0 0 0 .583.319.685.685 0 0 0 .444-.166c.8-.675 1.562-1.425 2.266-2.23a21.09 21.09 0 0 0 2.278-3.146c.221-.375.126-.877-.213-1.121zm-6.92 6.479l-.042.027c-.35.224-.47.72-.267 1.107.135.26.381.404.634.404.125 0 .25-.035.366-.11l.049-.03c.349-.227.466-.723.262-1.109-.205-.386-.654-.515-1.002-.29zm-6.801-14.997c-.45-.497-1.047-.77-1.684-.77-.636 0-1.234.273-1.684.77-.928 1.027-.928 2.698 0 3.725l4.325 4.782c.45.497 1.048.77 1.684.77.637 0 1.235-.273 1.685-.77l9.028-9.983c.929-1.027.929-2.698 0-3.724-.45-.498-1.048-.772-1.684-.772-.636 0-1.234.274-1.684.771l-7.345 8.121-2.64-2.92zm11.022-4.055a.87.87 0 0 1 .648-.297.87.87 0 0 1 .648.297 1.092 1.092 0 0 1 0 1.434l-9.028 9.982a.869.869 0 0 1-.649.297.87.87 0 0 1-.648-.297l-4.325-4.781a1.092 1.092 0 0 1 0-1.434.87.87 0 0 1 .648-.297c.245 0 .476.105.649.297l3.158 3.492a.7.7 0 0 0 .518.237c.195 0 .38-.085.518-.237l7.863-8.693z" fill="#6C7185"/><defs><filter id="a" x="10.6" y="10.599" width="58.8" height="58.8" filterUnits="userSpaceOnUse" color-interpolation-filters="sRGB"><feFlood flood-opacity="0" result="BackgroundImageFix"/><feBlend in="SourceGraphic" in2="BackgroundImageFix" result="shape"/><feColorMatrix in="SourceAlpha" values="0 0 0 0 0 0 0 0 0 0 0 0 0 0 0 0 0 0 127 0" result="hardAlpha"/><feOffset/><feGaussianBlur stdDeviation="10"/><feComposite in2="hardAlpha" operator="arithmetic" k2="-1" k3="1"/><feColorMatrix values="0 0 0 0 0 0 0 0 0 0 0 0 0 0 0 0 0 0 0.05 0"/><feBlend in2="shape" result="effect1_innerShadow"/></filter><filter id="b" x="0" y="0" width="80" height="80" filterUnits="userSpaceOnUse" color-interpolation-filters="sRGB"><feFlood flood-opacity="0" result="BackgroundImageFix"/><feColorMatrix in="SourceAlpha" values="0 0 0 0 0 0 0 0 0 0 0 0 0 0 0 0 0 0 127 0"/><feOffset/><feGaussianBlur stdDeviation="2.5"/><feColorMatrix values="0 0 0 0 0 0 0 0 0 0 0 0 0 0 0 0 0 0 0.1 0"/><feBlend in2="BackgroundImageFix" result="effect1_dropShadow"/><feBlend in="SourceGraphic" in2="effect1_dropShadow" result="shape"/></filter></defs></svg>