<svg width="80" height="80" viewBox="0 0 80 80" fill="none" xmlns="http://www.w3.org/2000/svg"><path fill="#fff" d="M10.6 10.6h58.8v58.8H10.6z" filter="url(#a)"/><rect x="7.5" y="7.5" width="65" height="65" rx="2.5" stroke="#fff" stroke-width="5" filter="url(#b)"/><path d="M33 29.5a1.167 1.167 0 1 0 .002 2.334A1.167 1.167 0 0 0 33 29.5zm7 9.333a1.168 1.168 0 0 1-1.166-1.167c0-.643.523-1.166 1.166-1.166.414 0 .85.21 1.262.61a1.167 1.167 0 0 0 1.623-1.677c-.592-.573-1.185-.897-1.718-1.074v-1.36a1.167 1.167 0 1 0-2.333 0v1.368a3.505 3.505 0 0 0-2.334 3.3c0 1.93 1.57 3.5 3.5 3.5a1.167 1.167 0 0 1 0 2.333c-.498 0-1.036-.314-1.514-.883a1.167 1.167 0 1 0-1.787 1.502c.624.742 1.358 1.258 2.135 1.52v1.36a1.167 1.167 0 0 0 2.333 0v-1.367a3.505 3.505 0 0 0 2.333-3.299c0-1.93-1.57-3.5-3.5-3.5z" fill="#6C7185"/><path d="M40 22.5c-9.65 0-17.5 7.85-17.5 17.5S30.35 57.5 40 57.5 57.5 49.65 57.5 40 49.65 22.5 40 22.5zm0 32.667c-8.363 0-15.167-6.804-15.167-15.167S31.637 24.833 40 24.833 55.167 31.637 55.167 40 48.363 55.167 40 55.167z" fill="#6C7185"/><path d="M48.056 30.01c-3.036-2.452-7.01-3.376-10.9-2.538a1.167 1.167 0 1 0 .492 2.281c3.198-.69 6.457.066 8.942 2.072A10.462 10.462 0 0 1 50.5 40c0 5.79-4.71 10.5-10.5 10.5S29.5 45.79 29.5 40c0-1.73.429-3.444 1.24-4.958a1.167 1.167 0 0 0-2.055-1.103 12.858 12.858 0 0 0-1.519 6.06c0 7.077 5.757 12.834 12.833 12.834 7.077 0 12.834-5.757 12.834-12.833 0-3.898-1.741-7.54-4.777-9.99z" fill="#6C7185"/><defs><filter id="a" x="10.6" y="10.6" width="58.8" height="58.8" filterUnits="userSpaceOnUse" color-interpolation-filters="sRGB"><feFlood flood-opacity="0" result="BackgroundImageFix"/><feBlend in="SourceGraphic" in2="BackgroundImageFix" result="shape"/><feColorMatrix in="SourceAlpha" values="0 0 0 0 0 0 0 0 0 0 0 0 0 0 0 0 0 0 127 0" result="hardAlpha"/><feOffset/><feGaussianBlur stdDeviation="10"/><feComposite in2="hardAlpha" operator="arithmetic" k2="-1" k3="1"/><feColorMatrix values="0 0 0 0 0 0 0 0 0 0 0 0 0 0 0 0 0 0 0.05 0"/><feBlend in2="shape" result="effect1_innerShadow"/></filter><filter id="b" x="0" y="0" width="80" height="80" filterUnits="userSpaceOnUse" color-interpolation-filters="sRGB"><feFlood flood-opacity="0" result="BackgroundImageFix"/><feColorMatrix in="SourceAlpha" values="0 0 0 0 0 0 0 0 0 0 0 0 0 0 0 0 0 0 127 0"/><feOffset/><feGaussianBlur stdDeviation="2.5"/><feColorMatrix values="0 0 0 0 0 0 0 0 0 0 0 0 0 0 0 0 0 0 0.1 0"/><feBlend in2="BackgroundImageFix" result="effect1_dropShadow"/><feBlend in="SourceGraphic" in2="effect1_dropShadow" result="shape"/></filter></defs></svg>