<svg width="81" height="80" viewBox="0 0 81 80" fill="none" xmlns="http://www.w3.org/2000/svg"><path fill="#fff" d="M11.1 10.6h58.8v58.8H11.1z" filter="url(#a)"/><g clip-path="url(#b)" fill="#6C7185"><path d="M31.052 34.418a.684.684 0 1 0-.967.968.684.684 0 0 0 .967-.968zm9.257 18.688a2.395 2.395 0 0 0-1.928-3.81H26.76c-.64 0-1.24.249-1.692.7a2.377 2.377 0 0 0-.7 1.692c0 .53.173 1.02.465 1.417A3.42 3.42 0 0 0 23 56.132v.683c0 .378.306.684.684.684h17.772a.684.684 0 0 0 .684-.684v-.683a3.42 3.42 0 0 0-1.831-3.026zm-14.274-2.143c.193-.194.45-.3.725-.3h11.62a1.026 1.026 0 0 1 0 2.05H26.76a1.026 1.026 0 0 1-.726-1.75zm-1.668 5.169c0-1.131.92-2.051 2.05-2.051h12.305c1.13 0 2.05.92 2.05 2.05H24.368z"/><path d="M57.921 51.22a4.307 4.307 0 0 0-.823-.946l-3.194-2.786a.693.693 0 0 0-.273-.237L51.7 45.566l-8.94-7.8c.365-.382.567-.882.567-1.414a2.038 2.038 0 0 0-1.168-1.85l.827-.827a2.726 2.726 0 0 0 2.64-.707 2.716 2.716 0 0 0 .8-1.933 2.72 2.72 0 0 0-.8-1.934l-5.8-5.8a2.717 2.717 0 0 0-1.934-.801 2.735 2.735 0 0 0-2.64 3.44l-8.253 8.253a2.752 2.752 0 0 0-.708-.092c-.73 0-1.417.284-1.933.8a2.738 2.738 0 0 0 0 3.867l5.8 5.8c.533.534 1.234.8 1.934.8s1.4-.266 1.933-.8a2.735 2.735 0 0 0 .707-2.64l.825-.825a2.052 2.052 0 0 0 3.267.6l9.522 10.94a.69.69 0 0 0 .131.151l2.838 3.26a4.066 4.066 0 0 0 3.69 1.406c1.286-.178 2.398-.948 3.05-2.113a4.045 4.045 0 0 0-.134-4.128zM36.925 24.267c.259-.259.602-.4.967-.4s.708.142.967.4l5.8 5.8c.258.258.4.602.4.967s-.142.708-.4.967c-.533.533-1.4.533-1.933 0l-5.8-5.8V26.2a1.368 1.368 0 0 1 0-1.933zM33.06 43.602a1.37 1.37 0 0 1-1.934 0l-5.8-5.8a1.369 1.369 0 0 1 .966-2.334c.366 0 .709.142.966.4l5.802 5.8a1.37 1.37 0 0 1 0 1.934zm2.878-4.811l-1.912 1.911-5.8-5.8 7.733-7.735 5.801 5.801-1.915 1.915-.019.018-3.865 3.865a.778.778 0 0 0-.023.025zm2.44 1.426l-.003.004-.482.481c-.129.13-.3.2-.483.2a.679.679 0 0 1-.484-.2.68.68 0 0 1-.008-.958L40.8 35.86a.686.686 0 0 1 .96.007.68.68 0 0 1 0 .967l-.48.479a.453.453 0 0 0-.01.01l-2.892 2.893zm1.416.517l1.998-1.997 8.459 7.378-3.087 3.087-7.37-8.468zm8.27 9.502l3.22-3.22 1.032.9-3.352 3.353-.9-1.033zm8.8 4.443c-.441.788-1.187 1.308-2.046 1.427a2.716 2.716 0 0 1-2.461-.938l-.007-.007-2.487-2.858 3.486-3.486 2.854 2.49a2.942 2.942 0 0 1 .57.655c.517.798.554 1.89.091 2.717z"/><path d="M35.884 29.585a.683.683 0 0 0-.967 0l-2.9 2.9a.684.684 0 0 0 .966.967l2.9-2.9a.683.683 0 0 0 0-.967z"/></g><rect x="8" y="7.5" width="65" height="65" rx="2.5" stroke="#fff" stroke-width="5" filter="url(#c)"/><defs><filter id="a" x="11.1" y="10.6" width="58.8" height="58.8" filterUnits="userSpaceOnUse" color-interpolation-filters="sRGB"><feFlood flood-opacity="0" result="BackgroundImageFix"/><feBlend in="SourceGraphic" in2="BackgroundImageFix" result="shape"/><feColorMatrix in="SourceAlpha" values="0 0 0 0 0 0 0 0 0 0 0 0 0 0 0 0 0 0 127 0" result="hardAlpha"/><feOffset/><feGaussianBlur stdDeviation="10"/><feComposite in2="hardAlpha" operator="arithmetic" k2="-1" k3="1"/><feColorMatrix values="0 0 0 0 0 0 0 0 0 0 0 0 0 0 0 0 0 0 0.05 0"/><feBlend in2="shape" result="effect1_innerShadow"/></filter><filter id="c" x=".5" y="0" width="80" height="80" filterUnits="userSpaceOnUse" color-interpolation-filters="sRGB"><feFlood flood-opacity="0" result="BackgroundImageFix"/><feColorMatrix in="SourceAlpha" values="0 0 0 0 0 0 0 0 0 0 0 0 0 0 0 0 0 0 127 0"/><feOffset/><feGaussianBlur stdDeviation="2.5"/><feColorMatrix values="0 0 0 0 0 0 0 0 0 0 0 0 0 0 0 0 0 0 0.1 0"/><feBlend in2="BackgroundImageFix" result="effect1_dropShadow"/><feBlend in="SourceGraphic" in2="effect1_dropShadow" result="shape"/></filter><clipPath id="b"><path fill="#fff" transform="translate(23 22.5)" d="M0 0h35v35H0z"/></clipPath></defs></svg>