<svg width="80" height="80" viewBox="0 0 80 80" fill="none" xmlns="http://www.w3.org/2000/svg"><path fill="#fff" d="M10.6 10.6h58.8v58.8H10.6z" filter="url(#a)"/><rect x="7.5" y="7.5" width="65" height="65" rx="2.5" stroke="#fff" stroke-width="5" filter="url(#b)"/><g clip-path="url(#c)" fill="#6C7185"><path d="M47.968 31.132a3.527 3.527 0 0 0-3.523 3.523 3.527 3.527 0 0 0 3.523 3.523 3.527 3.527 0 0 0 3.523-3.523 3.527 3.527 0 0 0-3.523-3.523zm0 5.679a2.158 2.158 0 0 1-2.156-2.156c0-1.189.968-2.156 2.156-2.156 1.189 0 2.156.967 2.156 2.156a2.158 2.158 0 0 1-2.156 2.156zm.024 16.204a.676.676 0 0 0-.497-.409.672.672 0 0 0-.513.102.658.658 0 0 0-.252.307.642.642 0 0 0-.052.261.672.672 0 0 0 .115.38.654.654 0 0 0 .307.251.641.641 0 0 0 .261.053.672.672 0 0 0 .262-.053.675.675 0 0 0 .37-.37.694.694 0 0 0 .052-.261.672.672 0 0 0-.053-.261zM37.234 25.963a.729.729 0 0 0-.147-.222.649.649 0 0 0-.222-.148.689.689 0 0 0-.523 0 .695.695 0 0 0-.307.252.717.717 0 0 0-.115.38.678.678 0 0 0 .115.38.737.737 0 0 0 .19.188.695.695 0 0 0 .378.116.672.672 0 0 0 .38-.116.654.654 0 0 0 .252-.307.641.641 0 0 0 .052-.261.679.679 0 0 0-.053-.262z"/><path d="M53.18 25.544a3.937 3.937 0 0 0-3.825-3.026H27.907A5.914 5.914 0 0 0 22 28.425v21.448a3.935 3.935 0 0 0 3.82 3.928 3.937 3.937 0 0 0 3.825 3.027h23.424A3.936 3.936 0 0 0 57 52.897V29.473a3.935 3.935 0 0 0-3.82-3.929zm2.453 27.353a2.567 2.567 0 0 1-2.564 2.564H29.644a2.568 2.568 0 0 1-2.564-2.564V49.27l7.843-13.297a1.278 1.278 0 0 1 1.132-.634c.47.008.884.26 1.11.672l3.376 6.2 4.908 9.013a.683.683 0 1 0 1.2-.654l-1.592-2.925a2.82 2.82 0 0 0 1.935-.648l3.074-2.55a1.293 1.293 0 0 1 1.693.041l.16.148 1.368 1.253 2.346 2.15v4.858zm0-6.712l-2.346-2.151-1.367-1.041a2.667 2.667 0 0 0-2.727.401l-3.074 2.55c-.338.281-.78.394-1.211.311a1.459 1.459 0 0 1-1.01-.737l-2.157-3.96-1.204-2.212-2.172-3.989a2.626 2.626 0 0 0-2.287-1.385 2.63 2.63 0 0 0-2.333 1.306l-6.665 11.3V29.473a2.567 2.567 0 0 1 2.564-2.564h4.224a.684.684 0 0 0 0-1.367h-4.224a3.936 3.936 0 0 0-3.93 3.931v22.955a2.567 2.567 0 0 1-2.347-2.554V28.425a4.545 4.545 0 0 1 4.54-4.54h21.448c1.095 0 2.03.69 2.398 1.656H39.337a.684.684 0 1 0 0 1.367H51.92l1.367.01a2.567 2.567 0 0 1 2.346 2.555v16.712z"/></g><defs><filter id="a" x="10.6" y="10.6" width="58.8" height="58.8" filterUnits="userSpaceOnUse" color-interpolation-filters="sRGB"><feFlood flood-opacity="0" result="BackgroundImageFix"/><feBlend in="SourceGraphic" in2="BackgroundImageFix" result="shape"/><feColorMatrix in="SourceAlpha" values="0 0 0 0 0 0 0 0 0 0 0 0 0 0 0 0 0 0 127 0" result="hardAlpha"/><feOffset/><feGaussianBlur stdDeviation="10"/><feComposite in2="hardAlpha" operator="arithmetic" k2="-1" k3="1"/><feColorMatrix values="0 0 0 0 0 0 0 0 0 0 0 0 0 0 0 0 0 0 0.05 0"/><feBlend in2="shape" result="effect1_innerShadow"/></filter><filter id="b" x="0" y="0" width="80" height="80" filterUnits="userSpaceOnUse" color-interpolation-filters="sRGB"><feFlood flood-opacity="0" result="BackgroundImageFix"/><feColorMatrix in="SourceAlpha" values="0 0 0 0 0 0 0 0 0 0 0 0 0 0 0 0 0 0 127 0"/><feOffset/><feGaussianBlur stdDeviation="2.5"/><feColorMatrix values="0 0 0 0 0 0 0 0 0 0 0 0 0 0 0 0 0 0 0.1 0"/><feBlend in2="BackgroundImageFix" result="effect1_dropShadow"/><feBlend in="SourceGraphic" in2="effect1_dropShadow" result="shape"/></filter><clipPath id="c"><path fill="#fff" transform="translate(22 22.173)" d="M0 0h35v35H0z"/></clipPath></defs></svg>