<svg width="41" height="48" viewBox="0 0 41 48" fill="none" xmlns="http://www.w3.org/2000/svg"><g clip-path="url(#a)" fill="#417D19"><path d="M40.863 40.943l-7.051-12.324c.715-.332 1.143-1.09 1.096-1.943l-.524-4.36 3.001-3.13c.667-.663.715-1.8.048-2.606l-3.002-3.223.62-4.408c.095-.948-.572-1.896-1.525-2.086L29.19 6.01l-2.096-3.84c-.429-.9-1.477-1.28-2.43-.9h-.048l-4.002 1.848-3.907-1.896a1.863 1.863 0 0 0-2.525.759l-2.144 3.84-4.336.758a1.956 1.956 0 0 0-1.207.76 1.937 1.937 0 0 0-.365 1.373l.524 4.36-3.002 3.129c-.667.663-.714 1.8-.047 2.607l3.001 3.223-.619 4.408a1.948 1.948 0 0 0 1.239 1.99l-7.1 12.514c-.19.284-.142.664 0 .948a.98.98 0 0 0 .81.474H8.56l3.478 6.02a.982.982 0 0 0 .81.474.928.928 0 0 0 .81-.474l6.813-11.567 6.814 11.709a.981.981 0 0 0 .81.474.925.925 0 0 0 .81-.474l3.477-6.162h7.624a.925.925 0 0 0 .81-.474.783.783 0 0 0 .047-.948zm-27.967 5.072l-2.954-5.072a.98.98 0 0 0-.81-.474H2.557l6.575-11.565 2.715.474 2.097 3.839c.429.9 1.477 1.279 2.43.9h.047l1.954-.9.953 1.659-6.432 11.139zm2.763-13.604h-.048l-2.096-3.934c-.286-.474-.762-.853-1.334-.9l-4.383-.806.619-4.361a1.836 1.836 0 0 0-.476-1.564l-2.954-3.223 3.001-3.129a1.776 1.776 0 0 0 .524-1.564l-.524-4.313a.147.147 0 0 1 .048-.095l4.335-.758a1.934 1.934 0 0 0 1.335-.948l2.144-3.84 3.906 1.896a1.83 1.83 0 0 0 1.716 0l3.954-1.801h.048l2.096 3.934c.286.474.763.853 1.287.9l4.336.854-.62 4.36a1.835 1.835 0 0 0 .477 1.565l3.001 3.223-3.05 3.127a1.777 1.777 0 0 0-.523 1.564l.524 4.361-4.288.711a1.941 1.941 0 0 0-1.334.948l-2.144 3.84-3.907-1.895a1.829 1.829 0 0 0-1.715 0l-3.955 1.848zm16.2 8.058a.925.925 0 0 0-.81.474l-2.954 5.214-6.718-11.565a.757.757 0 0 0-.191-.332l-1.048-1.849.333-.142 3.907 1.896a1.97 1.97 0 0 0 2.525-.758l2.144-3.84 2.86-.521 6.527 11.423h-6.576z"/><path d="M21.068 16H19.71v-3.718l.013-.61.022-.669a7.144 7.144 0 0 1-.47.444l-.738.594-.655-.818 2.07-1.648h1.116V16zm-3.81 4.087v1.006h-2.052V25h-1.34v-4.913h3.392zm1.982 2.448c0 .486.079.854.237 1.103.161.249.422.373.782.373.358 0 .614-.123.77-.369.158-.249.237-.618.237-1.107 0-.487-.08-.851-.237-1.095-.159-.243-.418-.364-.778-.364-.358 0-.616.121-.774.364-.158.24-.237.605-.237 1.095zm3.397 0c0 .8-.211 1.425-.633 1.876-.422.451-1.01.677-1.762.677a2.48 2.48 0 0 1-1.248-.308 2.075 2.075 0 0 1-.83-.892c-.194-.387-.29-.838-.29-1.353 0-.803.209-1.427.628-1.872.419-.446 1.008-.668 1.766-.668.472 0 .888.102 1.248.307.36.205.638.5.83.884.194.383.29.833.29 1.349zm4.183 1.485v-2.927h-1.006a12.749 12.749 0 0 1-.303 1.552 6.346 6.346 0 0 1-.527 1.375h1.836zm2.061 2.742h-1.204V25h-3.304v1.762h-1.204V24.02h.413c.281-.436.517-.987.707-1.652.19-.665.324-1.426.4-2.281h3.472v3.933h.72v2.742z"/></g><defs><clipPath id="a"><path fill="#fff" d="M0 0h41v48H0z"/></clipPath></defs></svg>