<svg width="49" height="49" viewBox="0 0 49 49" fill="none" xmlns="http://www.w3.org/2000/svg"><path d="M36.75 20.417H16.333a.816.816 0 1 0 0 1.633H36.75a.817.817 0 1 0 0-1.633zm-20.417-4.9H24.5a.816.816 0 1 0 0-1.634h-8.167a.816.816 0 1 0 0 1.634zM36.75 26.95H16.333a.816.816 0 1 0 0 1.633H36.75a.817.817 0 1 0 0-1.633zm0 6.533H16.333a.816.816 0 1 0 0 1.634H36.75a.816.816 0 1 0 0-1.634zm0 6.534H16.333a.816.816 0 1 0 0 1.633H36.75a.817.817 0 1 0 0-1.633z" fill="#417D19"/><path d="M40.017 11.912V0H4.9v44.917h4.083V49H44.1V15.995l-4.083-4.083zm-7.35-5.04l7.35 7.35 1.295 1.295h-8.645V6.87zM6.533 43.282V1.633h31.85v8.646l-6.195-6.196H8.983v39.2h-2.45zm4.084 4.084V5.717h20.416V17.15h11.434v30.217h-31.85z" fill="#417D19"/></svg>