<svg width="47" height="47" viewBox="0 0 47 47" fill="none" xmlns="http://www.w3.org/2000/svg"><g clip-path="url(#a)" fill="#417D19"><path d="M43.875 24.109c-.19-.387-.19-.83 0-1.218l1.753-3.586a4.08 4.08 0 0 0-1.76-5.418l-3.527-1.87a1.378 1.378 0 0 1-.715-.986l-.69-3.931a4.08 4.08 0 0 0-4.609-3.349l-3.952.56a1.377 1.377 0 0 1-1.158-.377L26.35 1.16a4.08 4.08 0 0 0-5.697 0l-2.87 2.775c-.309.3-.73.437-1.157.377l-3.952-.56a4.08 4.08 0 0 0-4.609 3.35l-.69 3.93a1.378 1.378 0 0 1-.715.986l-3.526 1.87a4.08 4.08 0 0 0-1.76 5.419l1.752 3.585c.19.387.19.831 0 1.218l-1.753 3.586a4.08 4.08 0 0 0 1.76 5.418l3.527 1.87c.38.203.64.562.715.986l.69 3.931a4.078 4.078 0 0 0 4.609 3.349l3.952-.56c.426-.06.848.078 1.158.377l2.869 2.775a4.084 4.084 0 0 0 2.848 1.16c1.025 0 2.05-.387 2.849-1.16l2.868-2.775c.31-.3.732-.436 1.158-.376l3.952.559a4.08 4.08 0 0 0 4.61-3.349l.689-3.931c.074-.424.335-.783.715-.985l3.526-1.871a4.08 4.08 0 0 0 1.76-5.418l-1.752-3.586zm-1.278 6.61l-3.526 1.87a4.071 4.071 0 0 0-2.115 2.911l-.69 3.932a1.38 1.38 0 0 1-1.56 1.133l-3.951-.56a4.07 4.07 0 0 0-3.422 1.113l-2.87 2.775a1.38 1.38 0 0 1-1.927 0l-2.868-2.776a4.067 4.067 0 0 0-3.423-1.111l-3.952.559a1.38 1.38 0 0 1-1.56-1.133l-.689-3.932a4.07 4.07 0 0 0-2.114-2.91l-3.526-1.87a1.38 1.38 0 0 1-.595-1.834L5.56 25.3a4.07 4.07 0 0 0 0-3.598l-1.752-3.586a1.38 1.38 0 0 1 .595-1.833L7.93 14.41a4.071 4.071 0 0 0 2.115-2.911l.69-3.932a1.38 1.38 0 0 1 1.559-1.133l3.952.56a4.07 4.07 0 0 0 3.422-1.112l2.87-2.776a1.38 1.38 0 0 1 1.927 0l2.868 2.776a4.07 4.07 0 0 0 3.423 1.111l3.952-.559a1.38 1.38 0 0 1 1.56 1.133l.689 3.932a4.07 4.07 0 0 0 2.115 2.911l3.526 1.87a1.38 1.38 0 0 1 .595 1.834L41.44 21.7a4.07 4.07 0 0 0 0 3.598l1.753 3.586a1.38 1.38 0 0 1-.595 1.833z"/><path d="M33.403 13.597a1.355 1.355 0 0 0-1.916 0l-17.89 17.89a1.355 1.355 0 0 0 1.916 1.917l17.89-17.89c.53-.53.53-1.388 0-1.917zm-15.325-2.295c-2.74 0-4.97 2.23-4.97 4.97 0 2.74 2.23 4.97 4.97 4.97 2.74 0 4.97-2.23 4.97-4.97 0-2.74-2.23-4.97-4.97-4.97zm0 7.228a2.262 2.262 0 0 1-2.258-2.259 2.261 2.261 0 0 1 2.258-2.259 2.262 2.262 0 0 1 2.26 2.26 2.262 2.262 0 0 1-2.26 2.258zm10.844 7.229c-2.74 0-4.97 2.23-4.97 4.97 0 2.74 2.23 4.97 4.97 4.97 2.74 0 4.97-2.23 4.97-4.97 0-2.74-2.23-4.97-4.97-4.97zm0 7.229a2.261 2.261 0 0 1-2.26-2.26 2.261 2.261 0 0 1 2.26-2.258 2.261 2.261 0 0 1 2.258 2.259 2.261 2.261 0 0 1-2.258 2.259z"/></g><defs><clipPath id="a"><path fill="#fff" d="M0 0h47v47H0z"/></clipPath></defs></svg>