<svg width="53" height="53" viewBox="0 0 53 53" fill="none" xmlns="http://www.w3.org/2000/svg"><g clip-path="url(#a)" fill="#417D19"><path d="M43.132 33.412a.871.871 0 0 1-.871-.871v-.331c0-1.019-1.454-2.018-2.934-2.018h-3.563a.87.87 0 1 1 0-1.742h3.563c2.212 0 4.676 1.544 4.676 3.76v.331a.87.87 0 0 1-.871.871zm-3.484-10.625c-.024 0-.048 0-.072-.003a.871.871 0 0 1-.797-.94l.436-5.317c-.004-3.002-2.325-5.502-5.178-5.502h-4.461c-2.854 0-5.175 2.5-5.175 5.573l.432 5.247a.871.871 0 1 1-1.736.142l-.435-5.317c-.003-4.105 3.1-7.387 6.914-7.387h4.46c3.815 0 6.918 3.282 6.918 7.315l-.439 5.39a.871.871 0 0 1-.867.799z"/><path d="M31.806 31.063a9.57 9.57 0 0 1-3.01-.48.871.871 0 0 1 .554-1.653 7.79 7.79 0 0 0 2.456.391c1.974 0 3.801-.715 4.768-1.866 1.317-1.57 2.201-3.811 2.201-5.576v-3.511c0-.458-.093-.763-.278-.906-.656-.511-2.742.018-4.583.486-1.683.427-3.421.869-4.997.869-1.96 0-3.28-.705-4.07-1.19-.007.195-.01.437-.01.74v3.512c0 1.271.473 2.853 1.267 4.23a.87.87 0 1 1-1.51.87c-.953-1.655-1.5-3.514-1.5-5.1v-3.511c0-1.482.033-2.338.723-2.718.614-.345 1.196.025 1.709.346.68.43 1.71 1.079 3.39 1.079 1.358 0 2.99-.416 4.569-.816 2.55-.648 4.752-1.208 6.082-.173.631.49.95 1.258.95 2.282v3.51c0 2.178-1.023 4.806-2.609 6.697-1.307 1.558-3.589 2.488-6.102 2.488zm7.951 10.792a.872.872 0 0 1-.19-1.721l10.34-2.315a1.33 1.33 0 0 0 .884-.545c.2-.285.278-.632.217-.976-.08-.456-.4-.84-.835-1.002a.87.87 0 1 1 .605-1.633 3.062 3.062 0 0 1 1.947 2.334 3.025 3.025 0 0 1-.508 2.278 3.03 3.03 0 0 1-1.97 1.252l-10.299 2.307a.9.9 0 0 1-.191.02z"/><path d="M27.97 46.745h-6.618a.86.86 0 0 1-.19-.02l-7.84-1.743a.871.871 0 0 1 .378-1.701l7.747 1.722h6.523c3.4 0 6.735-1.17 9.39-3.295a.818.818 0 0 1 .073-.051l12.895-8.292a.86.86 0 0 1 .13-.07c.323-.136.571-.39.702-.713a1.308 1.308 0 0 0-1.722-1.693l-12.944 5.336a.87.87 0 0 1-.332.066H19.61a.87.87 0 0 1-.747-1.32l2.614-4.356a.871.871 0 0 1 .747-.423h3.485a3.49 3.49 0 0 0 3.374-2.613h-9.188L8.01 36.295a.873.873 0 0 1-1.03-1.406l12.114-8.884a.87.87 0 0 1 .515-.169h10.454c.482 0 .872.39.872.872a5.233 5.233 0 0 1-5.227 5.227h-2.991l-1.569 2.614H35.99l12.776-5.267a3.05 3.05 0 0 1 2.448 5.586l-12.8 8.23a16.845 16.845 0 0 1-10.444 3.647z"/><path d="M9.426 51.675a.874.874 0 0 1-.707-.361L.165 39.447a.867.867 0 0 1 .197-1.217l5.653-4.075a.875.875 0 0 1 1.216.197l8.555 11.867a.871.871 0 0 1-.197 1.216L9.936 51.51a.874.874 0 0 1-.51.164zm-7.338-12.54l7.536 10.452 4.24-3.056-7.536-10.453-4.24 3.057z"/><path d="M11.768 45.874a1.742 1.742 0 1 1-3.485 0 1.742 1.742 0 0 1 3.485 0zM31.806 6.67a.87.87 0 0 1-.871-.872V2.313a.87.87 0 1 1 1.742 0v3.485a.87.87 0 0 1-.87.871zm3.484 0a.87.87 0 0 1-.616-1.487l3.05-3.05a.871.871 0 0 1 1.232 1.232l-3.049 3.05a.867.867 0 0 1-.616.254zm-6.969 0a.866.866 0 0 1-.615-.256L25.092 3.8a.87.87 0 1 1 1.232-1.231l2.613 2.613a.871.871 0 0 1-.616 1.487z"/></g><defs><clipPath id="a"><path fill="#fff" d="M0 0h53v53H0z"/></clipPath></defs></svg>