<svg width="259" height="94" viewBox="0 0 259 94" fill="none" xmlns="http://www.w3.org/2000/svg"><path d="M100.726 86.156c0 4.302-3.41 7.718-7.705 7.718h-78.19C10.538 93.874 7 90.458 7 86.156V7.844C7 3.542 10.41 0 14.832 0H93.02c4.295 0 7.705 3.416 7.705 7.844v78.312z" fill="#E9E9E9"/><path d="M33.653 47.063h1.768c2.779 0 3.032-1.645 3.032-2.53 0-1.139-.38-2.53-3.032-2.53h-1.768v5.06zm-6.19-9.994h9.347c6.316 0 8.085 4.428 8.085 7.464 0 3.036-1.769 7.464-8.085 7.464h-3.157v7.338h-6.19V37.07zm23.369 5.313h-4.8V37.07h15.915v5.313h-4.926v16.953h-6.19V42.382zm29.684 15.941c-2.021 1.392-4.042 1.645-5.937 1.645-6.569 0-11.368-4.681-11.368-11.766 0-7.465 5.178-11.766 11.242-11.766 2.02 0 4.168.506 6.063 1.771v6.453c-1.137-1.266-2.906-2.657-5.306-2.657-3.41 0-5.684 2.783-5.684 6.325 0 3.29 2.148 5.947 5.684 5.947 2.274 0 4.169-1.266 5.306-2.404v6.452zm-39.663-33.02h-2.274v-.76h5.431v.76h-2.273v5.82h-.884v-5.82zm9.473 1.897c0-1.011-.758-2.15-2.147-2.15-1.263 0-2.147.886-2.274 2.15h4.421zm.885 2.151c-.506 1.139-1.516 2.025-3.032 2.025-2.147 0-3.284-1.772-3.284-3.543 0-1.897 1.137-3.542 3.284-3.542 2.274 0 3.032 1.898 3.032 3.163v.38h-5.432c0 1.264.758 2.782 2.4 2.782.505 0 1.516-.126 2.274-1.644l.758.38zm1.894-4.807h.885v2.91h3.663v-2.91h.884v6.578h-.884v-3.036H53.99v3.036h-.885v-6.578zm11.495.759h-2.4v3.036c0 .886-.253 1.518-.884 2.024H64.6v-5.06zm.884-.76v5.82h.884v2.404h-.884v-1.645h-4.926v1.645h-.884v-2.404c1.39-.126 1.516-1.518 1.516-2.656v-3.163h4.294zm7.453 2.657c0-1.011-.758-2.15-2.021-2.15s-2.148.886-2.274 2.15h4.295zm.884 2.151c-.505 1.139-1.39 2.025-3.031 2.025-2.148 0-3.411-1.772-3.411-3.543 0-1.897 1.137-3.542 3.41-3.542 2.274 0 3.032 1.898 3.032 3.163v.38H68.39c0 1.264.757 2.782 2.4 2.782.505 0 1.515-.126 2.273-1.644l.758.38zm7.453-1.518c0-1.265-.758-2.783-2.527-2.783-1.39 0-2.273 1.265-2.273 2.783 0 1.771 1.136 2.784 2.526 2.784s2.274-1.266 2.274-2.784zm-4.8-3.29v1.14c.379-.76 1.136-1.392 2.4-1.392 2.02 0 3.284 1.391 3.284 3.542 0 2.024-1.263 3.543-3.284 3.543-1.39 0-2.021-.76-2.4-1.266v4.049h-.885v-9.615h.885z" fill="#E21E32"/><path d="M115.126 22.773c-.884 0-1.894.253-3.031 1.012h-.127l.758 1.265.127-.127c.758-.632 1.515-.759 2.147-.759.632 0 1.263.127 1.895.76.505.505.758 1.264.758 2.403v.126h-3.79v1.392h3.79v.253c0 .886-.127 2.15-.885 2.91-.631.633-1.389.633-1.894.633-.758 0-1.516-.127-2.274-.76l-.126-.126-.632 1.139.126.126c.253.253.632.38 1.137.633.632.253 1.263.38 1.895.38 1.011 0 2.147-.127 3.284-1.14 1.263-1.391 1.516-3.289 1.516-4.554 0-1.265-.126-2.91-1.389-4.175-1.011-1.012-2.148-1.392-3.285-1.392zm7.2 11.133c.506 0 1.137-.127 1.769-.633.758-.759.884-1.897 1.01-2.657.127-1.012.253-2.656.379-3.921l.127-2.278h2.4v9.489h1.642v-10.88h-5.558l-.127 2.53c0 .886-.126 3.036-.252 4.048-.126 1.139-.253 2.151-.884 2.657-.253.253-.632.38-.885.506l-.379.127h-.126l.379 1.265.505-.253zm17.432 0v-1.518h-4.547v-3.543h3.41v-1.391h-3.41v-3.037h4.042l.252-1.391h-5.937v10.88h6.19zm4.547-5.061h1.137c.253 0 .632 0 1.011.38.252.253.379.632.505 1.012l.379 1.898c.126.506.252 1.012.631 1.265.379.38 1.011.506 1.39.506l.758.126h.126l.253-1.265-.506-.126c-.252-.127-.505-.127-.631-.38a.97.97 0 0 1-.253-.633l-.631-2.024c-.127-.38-.253-.885-.632-1.265l-.379-.38c.126-.126.253-.126.379-.252.505-.506.632-1.013.758-1.392l.379-1.392c0-.253.126-.38.253-.632.126-.127.378-.253.505-.253l.505-.127h.126v-.126l-.252-1.139-.758.127c-.253 0-.884.126-1.263.632-.379.38-.506.76-.506 1.139l-.379 1.391c-.126.38-.126.76-.378 1.013-.379.253-.885.379-1.137.379h-1.137v-4.428h-1.769v10.88h1.769v-4.934h-.253zm10.484 5.061h1.769v-9.489h2.779v-.126l.126-1.265h-7.326v1.391h2.652v9.489zm8.59-4.302h1.642c1.137 0 1.769-.253 2.274-.632 1.01-.76 1.389-1.645 1.263-2.784 0-1.138-.505-2.15-1.39-2.656-.631-.38-1.263-.506-2.652-.506h-2.905v10.88h1.642v-4.302h.126zm3.411-3.289c0 .633-.127 1.012-.379 1.392-.379.38-.758.632-1.516.632h-1.516v-3.922h1.263c.884 0 1.263.127 1.642.506.253.253.506.76.506 1.392zm8.589-3.542c-2.653 0-4.421 2.024-4.421 5.566 0 3.163 1.516 5.567 4.421 5.567 2.779 0 4.421-2.278 4.421-5.44.126-2.91-1.137-5.694-4.421-5.694zm2.653 5.82c0 2.909-.885 4.048-2.527 4.048-2.021 0-2.652-1.772-2.652-4.428 0-2.657.758-4.049 2.526-4.049 2.021 0 2.653 1.645 2.653 4.428zm10.736-1.266h-3.789v-4.301h-1.768v10.88h1.768v-5.187h3.789v5.187h1.643v-10.88h-1.643v4.301zm11.116 0h-3.916v-4.301h-1.642v10.88h1.642v-5.187h3.916v5.187h1.642v-10.88h-1.642v4.301zm7.705-4.301l-3.536 10.88h1.768l.884-3.037h3.537l.884 3.037h1.895l-3.537-10.88h-1.895zm2.274 6.325h-2.652a210.98 210.98 0 0 0 1.389-4.554c.126 1.012 1.011 3.795 1.263 4.554zm9.474-6.452c-.884 0-2.021 0-2.905.886-.379.38-.885 1.012-.885 2.15 0 .633.253 1.392.758 1.898.379.38.758.506 1.137.633-.253.126-.379.253-.632.38-.378.379-.505.885-.631 1.264l-.379 1.392a.964.964 0 0 1-.253.633c-.126.126-.505.253-.884.379l-.253.127h-.126l.379 1.265.884-.127c.506-.126 1.011-.253 1.39-.506.379-.38.379-.759.505-1.139l.379-1.644c.126-.38.126-.76.505-1.012.379-.38.758-.38 1.263-.38h1.137v4.681h1.642V22.9h-3.031zm.252 4.807c-.379 0-1.136 0-1.642-.38a1.54 1.54 0 0 1-.631-1.264c0-.38 0-.886.505-1.265.505-.506 1.137-.506 1.642-.506h1.263v3.415h-1.137zM117.905 52.377h1.642v-10.88H112.6v10.88h1.642v-9.362h3.537v9.362h.126zm4.8.126c.506 0 1.137-.126 1.769-.759.758-.632.884-1.771 1.01-2.657.127-1.012.253-2.656.379-3.922l.126-2.277h2.274v9.489h1.642v-10.88h-5.558l-.126 2.53c0 .886-.126 3.036-.253 4.048-.126 1.139-.252 2.151-.884 2.657-.252.253-.631.38-.884.506h-.379l.379 1.265h.505zm15.032-11.133c-2.653 0-4.421 2.024-4.421 5.567 0 3.163 1.516 5.566 4.547 5.566 2.779 0 4.421-2.277 4.421-5.566 0-2.91-1.263-5.567-4.547-5.567zm.126 9.868c-2.021 0-2.652-1.771-2.652-4.428 0-2.783.757-4.048 2.526-4.048 1.895 0 2.526 1.518 2.526 4.428.126 2.91-.758 4.048-2.4 4.048zm12.379-9.741v9.488h-2.905v-9.488h-1.769v10.88h10.485v2.783h1.515v-4.175h-1.01v-9.488h-1.769v9.488h-2.905v-9.488h-1.642zm16.169 10.88h1.768l-3.537-10.88h-2.021l-3.537 10.88h1.769l.884-3.037h3.537l1.137 3.037zm-2.779-8.983c.252.886 1.136 3.796 1.263 4.555h-2.653a204.63 204.63 0 0 0 1.39-4.555zm14.526-1.897H172.6v1.644c-.126 1.265-.126 2.784-.505 4.302-.379 1.265-.758 2.404-1.263 3.416h-.885v4.175h1.642V52.25h5.937v2.784h1.642v-4.175h-1.136v-9.362h.126zm-1.768 1.518v7.97h-4.043c.506-1.012.758-1.898 1.137-2.91.379-1.518.506-2.657.632-3.922l.126-1.265h2.148v.127zm12.378 7.844a.968.968 0 0 1-.252-.633l-.632-2.024c-.126-.38-.252-.886-.631-1.265-.127-.127-.253-.253-.379-.253.126-.127.252-.127.379-.38.505-.38.631-1.012.758-1.391l.379-1.392c0-.253.126-.38.252-.633.126-.126.379-.253.505-.253l.506-.126h.126v-.127l-.379-1.138-.758.126c-.252 0-.884.127-1.263.633-.379.38-.379.759-.505 1.138l-.253 1.392c-.126.38-.126.76-.379 1.012-.379.38-.884.38-1.137.38h-1.263v-4.428h-1.768v10.88h1.768v-5.06h1.137c.253 0 .632 0 .884.379.253.253.379.632.505 1.012l.379 1.898c.127.506.253 1.012.632 1.265.379.38 1.011.506 1.389.506l.758.126h.127l.252-1.265-.505-.126a.966.966 0 0 1-.632-.253zm6.443-9.362l-3.537 10.88h1.768l.884-3.037h3.537l.884 3.037h1.895l-3.41-10.88h-2.021zm2.273 6.452h-2.652c.252-.76 1.136-3.67 1.389-4.555.126.886 1.011 3.796 1.263 4.555zM118.158 60.6c-.632-.38-1.263-.506-2.526-.506H112.6v10.88h1.768V66.8h1.643c1.136 0 1.768-.253 2.273-.632 1.011-.76 1.39-1.518 1.39-2.783-.127-1.266-.632-2.151-1.516-2.784zm-3.916.886h1.263c.884 0 1.263.126 1.642.506.379.253.506.759.506 1.392 0 .632-.127 1.012-.379 1.265-.379.38-.758.632-1.39.632h-1.516v-3.795h-.126zm12.126-1.518c-2.652 0-4.421 2.024-4.421 5.566 0 3.163 1.516 5.567 4.548 5.567 2.779 0 4.421-2.277 4.421-5.567-.127-2.91-1.39-5.566-4.548-5.566zm.127 9.868c-2.021 0-2.653-1.771-2.653-4.428s.758-3.922 2.526-3.922c1.895 0 2.527 1.518 2.527 4.428 0 2.783-.884 3.795-2.4 3.922zm13.894-.759a3.096 3.096 0 0 1-1.894.632c-1.137 0-2.021-.506-2.527-1.644-.252-.633-.379-1.266-.379-2.404 0-1.265.127-2.15.506-2.784.505-.885 1.263-1.391 2.273-1.391.632 0 1.264.126 1.769.633l.126.126.884-1.139-.126-.126c-.758-.633-1.642-.886-2.653-.886-1.642 0-3.157.886-3.915 2.53-.506.886-.758 1.898-.758 3.163 0 1.518.379 2.784 1.137 3.796.884 1.012 2.021 1.645 3.41 1.645 1.137 0 2.147-.38 2.905-.886l.127-.127-.885-1.138zm10.106 0a3.101 3.101 0 0 1-1.895.632c-1.137 0-2.021-.506-2.526-1.644-.253-.633-.379-1.266-.379-2.404 0-1.265.126-2.15.505-2.784.505-.885 1.263-1.391 2.274-1.391.631 0 1.263.126 1.768.633l.126.126.885-1.139-.127-.126c-.631-.633-1.642-.886-2.652-.886-1.642 0-3.158.886-3.916 2.53-.379.886-.632 1.898-.632 3.163 0 1.518.379 2.784 1.137 3.796.884 1.012 2.021 1.645 3.411 1.645 1.136 0 2.147-.38 2.905-.886l.126-.127-1.01-1.138zm6.189-1.645c-.126.253-.252.506-.379.886V60.22h-1.642V71.1h1.769l4.042-7.717c.126-.127.126-.38.252-.633v8.223h1.642v-10.88h-1.894l-3.79 7.338zm11.369 0a6.057 6.057 0 0 0-.379.886V60.22h-1.642V71.1h1.768l4.042-7.717c.126-.127.126-.38.253-.633v8.223h1.642v-10.88h-1.769l-3.915 7.338z" fill="#E22232"/></svg>