<svg width="77" height="77" viewBox="0 0 77 77" fill="none" xmlns="http://www.w3.org/2000/svg"><path fill-rule="evenodd" clip-rule="evenodd" d="M0 0h77v77H0V0z" fill="#fff"/><path fill-rule="evenodd" clip-rule="evenodd" d="M38.61 13.793c2.093.66 4.24 1.321 6.168 2.422-2.809 3.965-15.199 3.03-15.915 12.336-.11 1.927 1.046 3.69 2.423 4.956C22.2 27.56 24.843 19.63 34.039 15.72c1.542-.66 3.084-1.101 4.571-1.928zm-.826 22.413c-2.092-.662-4.24-1.378-6.168-2.424 2.754-3.964 15.199-3.028 15.86-12.335.165-1.927-.99-3.744-2.368-4.956 9.086 5.948 6.443 13.822-2.753 17.732-1.542.66-3.084 1.156-4.57 1.983z" fill="#28539C"/><path fill-rule="evenodd" clip-rule="evenodd" d="M44.832 17.372c1.763 1.322 2.258 3.634 1.377 5.617-.77-1.597-4.295-2.809-6.002-3.249 1.597-.55 3.194-1.432 4.625-2.368zm-13.16 15.254c-1.818-1.322-2.258-3.8-1.432-5.782 1.101 1.817 4.13 3.028 6.223 3.414-1.653.44-3.415 1.377-4.791 2.368zM2.87 41.988h6.608c4.901 0 4.13 7.158-1.157 7.048-.44 0-.881 0-1.267-.165l-.55-2.092c2.974.716 4.35-2.974-.275-2.589-.33 2.974-.386 6.002-.33 9.031H2.264c.385-3.744.55-7.489.606-11.233z" fill="#28539C"/><path fill-rule="evenodd" clip-rule="evenodd" d="M12.728 44.796h3.139v.882c.77-.661 1.982-1.267 3.029-1.046l.11 2.588c-3.855-.826-3.249 3.634-3.304 6.002h-3.36c.22-2.809.33-5.617.386-8.426zm20.21 1.101c1.487-1.762 4.075-1.762 5.562 0 .771-1.046 1.818-1.431 3.084-1.321 1.541.165 2.808.606 2.863 2.423.11 1.982-.164 4.185-.22 6.222h-3.414c.11-1.596.275-3.193.22-4.79 0-1.873-2.037-1.873-2.257 0-.22 1.597-.276 3.194-.276 4.79h-3.469c.165-1.266.991-6.002-.716-6.167-1.762-.22-1.542 4.956-1.597 6.167h-3.47c.276-2.808.441-5.617.441-8.426h3.25v1.102zm33.537-.715c1.541-.55 2.808-.66 4.406-.66 1.431 0 3.854.385 3.854 2.256 0 2.148-.165 4.296-.22 6.443H71.1l.11-3.854c-.55.606-2.919.716-2.698 1.762.165.716 1.432.55 1.873.33l-.441 1.873c-1.928.386-4.957.055-4.957-2.478 0-2.864 6.168-2.533 6.168-3.855 0-1.431-4.35.11-4.956.44l.276-2.257z" fill="#28539C"/><path fill-rule="evenodd" clip-rule="evenodd" d="M24.072 44.632c3.029 0 5.066 1.1 5.121 4.35.055 3.359-2.588 4.46-5.562 4.405-3.248-.055-5.066-1.046-5.066-4.405 0-3.25 2.698-4.35 5.507-4.35zm-.22 2.312c-2.699 0-2.699 4.13-.166 4.185 2.81.11 3.084-4.185.165-4.185zm30.673 2.588h-6.498c.055 2.699 4.24 1.597 5.727 1.157L53.314 53c-1.047.22-2.204.441-3.25.441-3.194 0-5.507-.826-5.342-4.46.11-3.25 2.038-4.406 5.067-4.406 3.194.056 5.342 1.541 4.736 4.956zm-6.498-1.596h3.194c.055-1.928-3.084-1.873-3.194 0z" fill="#28539C"/><path fill-rule="evenodd" clip-rule="evenodd" d="M65.263 45.071c-.275 3.139-.22 6.279-.385 9.418-.166 2.147-2.808 2.863-4.57 2.863-1.542 0-3.14-.165-4.57-.771l-.11-2.368c3.028 1.102 5.836 1.982 5.946-2.258-.77.88-1.927 1.322-3.083 1.322-5.508 0-6.83-10.959 6.772-8.206zm-3.69 1.763a9.323 9.323 0 0 0-1.76 0c-2.59.385-2.81 4.405-.496 4.295 1.1-.055 1.981-.936 2.037-1.983l.22-2.312z" fill="#28539C"/></svg>