<svg width="103" height="39" viewBox="0 0 103 39" fill="none" xmlns="http://www.w3.org/2000/svg"><g clip-path="url(#a)"><path d="M-14.857-23.495c.623.12 1.684 1.045 2.516 1.061.82.015.706-.44.989-.456v-.037c-.37-.07-.348-.74-1.335-.8-.68-.042-1.598.19-2.17.21v.022zm-.009-1.55c.608.125 1.616.96 2.404.982.748.021.692-.404.961-.413l-.002-.034c-.366-.065-.336-.676-1.269-.742-.642-.047-1.554.177-2.093.187v.02zm-.027-1.58c.592.133 1.54.884 2.282.918.676.027.678-.368.932-.374l-.002-.027c-.365-.063-.326-.615-1.205-.686-.605-.052-1.496.153-2.006.152l-.002.018zm-.045-1.573c.578.14 1.446.825 2.144.864.606.034.664-.331.904-.331l-.002-.022c-.365-.06-.316-.552-1.14-.63-.57-.056-1.427.117-1.905.106l-.001.013zm-.064-1.584c.563.148 1.33.73 1.983.779.534.04.552-.266.874-.288v-.02c-.365-.055-.422-.524-1.077-.572-.534-.04-1.333.113-1.78.092v.01zm-.081-1.558c.782.187 1.183.589 1.793.66.48.055.487-.195.856-.221l-.002-.018c-.447-.063-.315-.406-1.103-.485-.532-.052-1.094.075-1.542.054l-.002.01zm-.099-1.589c.706.177 1.064.495 1.614.559.413.047.46-.14.8-.157v-.018c-.402-.062-.298-.319-.962-.396-.478-.058-1.028.028-1.451.002v.01zm-.117-1.59c.628.165.921.391 1.41.45.346.042.431-.082.741-.091v-.019c-.355-.061-.278-.232-.819-.31-.424-.062-.933-.01-1.332-.042v.011zm-.134-1.582c.552.154.74.298 1.166.353.28.037.404-.027.687-.025v-.02c-.308-.06-.259-.145-.678-.22-.368-.069-.8-.063-1.174-.098l-.001.01zm-.148-1.582c.278.025.666.028.958.076.297.054.28.11.517.157l.002.018c-.226-.008-.305.03-.515.003-.319-.043-.53-.131-.962-.242v-.012zm-.167-1.599c.179.013.414.02.623.053.179.028.19.057.358.09l.001.02c-.165-.017-.201-.005-.343-.024-.21-.027-.329-.06-.64-.128v-.011zm.882 17.345c.633.13 1.642 1.033 2.525 1.073.845.034.828-.432 1.111-.45l-.001-.037c-.369-.07-.382-.763-1.399-.839-.696-.05-1.664.21-2.236.23v.023zm-.026 1.561c.643.141 1.587 1.037 2.52 1.1.873.055.953-.427 1.238-.443l-.004-.037c-.368-.07-.416-.79-1.467-.878-.711-.06-1.715.214-2.287.233v.025zm-.045 1.555c.654.15 1.518 1.015 2.502 1.1.898.075 1.075-.42 1.36-.437l-.003-.037c-.368-.07-.45-.812-1.533-.916-.726-.068-1.754.243-2.325.262v.028h-.001zm-.06 1.558c.663.16 1.432.996 2.466 1.106.925.095 1.199-.413 1.483-.43l-.002-.038c-.368-.069-.485-.837-1.6-.955-.742-.078-1.775.268-2.346.288v.03zm-.078 1.547c.675.173 1.33.99 2.416 1.123.95.115 1.322-.407 1.606-.424l-.004-.038c-.367-.068-.518-.86-1.667-.993-.757-.087-1.78.282-2.35.303v.03zm-.093 1.532c.687.183 1.21.989 2.346 1.148.98.133 1.446-.402 1.73-.42l-.002-.037c-.369-.069-.553-.884-1.734-1.033-.772-.095-1.767.288-2.338.31l-.002.032zm-.106 1.544c.696.192 1.075.962 2.262 1.143 1.006.154 1.57-.395 1.853-.412l-.001-.037c-.369-.069-.588-.91-1.804-1.072-.786-.105-1.737.325-2.309.343l-.001.035zM-16.413-.36c.505.25.547.844 1.643 1.018.997.158 1.655-.3 2.392-.296V.325c-.607-.094-1.213-.991-2.263-1.146-1.013-.152-1.245.388-1.772.426v.035zm-.137 1.545c.497.248.362.776 1.57.976.956.159 1.544-.276 2.4-.276v-.04c-.678-.107-1.258-.982-2.287-1.122-1.115-.15-1.122.361-1.683.427v.035zm-.11 1.547c.47.248.363.76 1.471.933.913.143 1.445-.25 2.423-.255v-.036c-.75-.133-1.32-.966-2.327-1.104-1.062-.149-1.042.361-1.566.427v.035zm-.122 1.533c.442.25.375.754 1.383.903.874.133 1.32-.23 2.417-.237v-.039c-.82-.156-1.353-.933-2.337-1.077-1.01-.147-.974.35-1.464.415v.035h.001zm-.094 1.558c.413.251.36.725 1.266.85.837.116 1.21-.207 2.428-.22v-.038c-.893-.179-1.402-.908-2.362-1.055-.96-.145-.879.363-1.332.431v.032zm-.1 1.549c.468.239.298.692 1.158.805.795.104 1.096-.187 2.435-.2v-.04c-.968-.173-1.446-.909-2.386-1.03-.909-.118-.771.356-1.206.43v.035zm2.68-9.716c1.006.141 1.723-.346 2.305-.35v-.04c-.469-.069-1.028-.855-1.971-1.103v-.026c.938.091 1.607-.345 2.146-.364v-.039c-.435-.067-.863-.802-1.878-1.074v-.027c.904.07 1.533-.348 2.042-.383v-.035c-.406-.066-.789-.804-1.812-1.071v-.026c.892.065 1.48-.363 1.963-.41v-.038c-.383-.065-.768-.829-1.771-1.063v-.027c.949.093 1.44-.347 1.908-.408v-.037c-.37-.066-.71-.815-1.784-1.056v-.027c.96.117 1.437-.337 1.896-.413v-.039c-.369-.07-.673-.934-1.93-1.08-.998-.116-1.638.322-2.21.342l-.002.034c.65.18.91.843 1.899 1.09v.028c-.933-.076-1.482.364-2.028.385l-.001.034c.621.189.836.833 1.821 1.076v.027c-.991-.049-1.42.376-1.962.399l-.002.033c.597.198.77.832 1.755 1.068v.027c-.937-.085-1.364.385-1.9.41l-.001.033c.57.21.713.818 1.701 1.048v.029c-.943-.093-1.328.395-1.864.422v.034c.543.217.674.81 1.666 1.034v.027c-.95-.1-1.279.412-1.811.441l-.002.032c.519.232.615.804 1.616 1.048v.026c-.96-.11-1.231.4-1.76.43v.033c.511.25.563.857 1.705 1.044 1.04.17 1.768-.323 2.385-.316v-.037c-.515-.075-1.12-.91-2.12-1.12v-.025h.002zm6.891 28.545v-.024c-.453-.064-3.034-1.343-4.454-1.515-1.34-.158-1.842.067-2.979.033-.675-.018-1.113-.14-1.453-.213-.47-.103-.69-.093-.928-.034l-.002.023c.265.169.45.248.908.326.331.058.56.069 1.342.255.708.17 1.777.89 3.031 1.093 1.668.269 2.942.053 4.535.056zm-.07 1.562v-.022c-.454-.067-3.069-1.314-4.409-1.48-1.34-.167-1.825.02-2.882-.017-.674-.024-1.053-.118-1.396-.177-.528-.086-.727-.055-1.054-.045v.021c.331.146.44.204.989.305.332.058.521.08 1.297.287.687.183 1.717.809 2.972 1.014 1.43.232 2.892.111 4.484.114zm-.066 1.566v-.025c-.455-.064-3.101-1.282-4.36-1.444-1.337-.172-1.81-.02-2.79-.064-.676-.03-.992-.095-1.337-.137-.586-.074-.763-.016-1.181-.06v.021c.403.123.434.16 1.073.279.333.066.48.1 1.25.326.665.194 1.661.727 2.915.93 1.19.195 2.84.17 4.43.174zm-.082 1.53v-.023c-.447-.064-3.125-1.211-4.355-1.38-1.253-.171-1.777-.057-2.736-.094-.668-.025-1.033-.088-1.373-.13-.517-.064-.692-.034-1.099-.066l-.002.022c.386.115.43.14 1.015.252.368.074.55.122 1.306.345.653.189 1.579.67 2.827.874 1.167.189 2.842.19 4.417.2zm-.095 1.543l.003-.02c-.436-.066-3.137-1.155-4.342-1.333-1.165-.168-1.74-.09-2.68-.122-.66-.021-1.073-.082-1.406-.12-.453-.056-.64-.057-1.038-.082v.02c.37.115.44.132.97.236.405.085.623.147 1.364.364.638.186 1.495.62 2.738.82 1.144.181 2.832.22 4.391.237zm-.104 1.538l.002-.022c-.427-.061-3.137-1.091-4.314-1.274-1.077-.165-1.704-.127-2.624-.152-.653-.016-1.117-.072-1.442-.11-.386-.046-.573-.08-.96-.093v.02c.356.11.438.116.911.212.441.095.698.172 1.423.384.625.184 1.412.565 2.65.763 1.119.178 2.814.247 4.354.272zm-.114 1.543l.002-.022c-.419-.058-3.129-1.031-4.279-1.223-.99-.162-1.668-.163-2.569-.181-.493-.01-.985-.044-1.474-.101-.321-.038-.487-.084-.865-.09v.02c.339.105.416.087.834.175.478.106.769.195 1.48.402.61.18 1.33.513 2.56.707 1.097.174 2.787.28 4.311.313zm-.125 1.545v-.022c-.408-.057-3.104-.975-4.228-1.174-.905-.159-1.635-.2-2.516-.21a15.183 15.183 0 0 1-1.509-.094c-.256-.027-.419-.102-.787-.097v.021c.324.1.413.067.775.149.514.115.841.22 1.537.423.598.174 1.248.458 2.473.649 1.074.169 2.745.316 4.255.355zm-.138 1.544l.002-.02c-.4-.057-2.978-.905-4.066-1.1-.885-.157-1.55-.192-2.4-.222a18.806 18.806 0 0 1-1.521-.119c-.25-.03-.512-.119-.871-.116l-.002.02c.317.096.503.088.859.165.508.11.842.218 1.527.408.595.162 1.168.406 2.36.598 1.05.17 2.644.323 4.112.386zm-.147 1.523v-.02c-.393-.057-2.835-.808-3.89-1-.867-.157-1.47-.19-2.29-.237a24.331 24.331 0 0 1-1.53-.142c-.243-.032-.592-.128-.947-.128v.017c.312.092.584.102.933.174.502.103.844.213 1.516.39.588.152 1.09.357 2.247.549 1.025.17 2.535.307 3.961.397zm-.161 1.55v-.018c-.384-.054-2.683-.742-3.701-.932-.85-.156-1.387-.182-2.177-.25a30.657 30.657 0 0 1-1.542-.167c-.238-.035-.66-.15-1.008-.153l-.001.016c.306.088.649.127.99.196.498.1.849.215 1.509.374.586.143 1.011.306 2.133.5 1.005.171 2.41.322 3.797.435zm-.172 1.534v-.019c-.375-.053-2.516-.657-3.504-.844-.83-.155-1.303-.18-2.063-.263a57.089 57.089 0 0 1-1.793-.225c-.233-.034-.393-.095-.732-.104l-.002.02c.3.083.378.075.713.139 1.09.241 2.32.522 3.76.837.98.177 2.276.32 3.621.46zm-.254 1.521v-.02c-.369-.053-2.27-.56-3.223-.742-2.518-.353-3.742-.531-4.233-.596v.016c.294.079.369.075.697.135.484.088.85.21 1.486.343.577.123.852.204 1.907.396.961.179 2.06.3 3.366.468zm-.44 1.456v-.017c-.331-.044-1.857-.444-2.717-.587-2.112-.293-3.237-.466-3.662-.526v.016c.328.072 1.596.33 3.545.722.866.151 1.66.25 2.834.392zm-.661 1.456v-.017c-.244-.03-1.495-.373-2.127-.479-1.549-.207-2.373-.332-2.685-.375v.016c.241.052 1.171.254 2.607.551.634.116 1.344.208 2.205.304zm-1.03 1.386l.007-.019c-.142-.027-.847-.19-1.143-.238-.788-.11-1.207-.18-1.366-.202v.01c.4.076.982.203 1.349.266.326.057.738.141 1.154.183zm4.176-61.606c.247-.003.477-.01.678-.026v-.028c-.099 0-.256-.052-.67-.21-.567-.22-2.278-.68-3.017-.835-.179-.036-.226.018-.292.09-.064.074-.115.143-.3.218.146.147.207.277.25.373.059.126.134.205.406.244a24.9 24.9 0 0 0 2.945.174zm.006 1.633c.296-.004.538-.057.76-.078v-.03c-.122-.005-.302-.12-.772-.294-.524-.192-2.178-.665-2.994-.822-.179-.035-.248.02-.333.133a.639.639 0 0 1-.313.226c.153.141.22.277.263.373.062.136.14.265.416.302.583.083 1.915.212 2.973.19zm.027 1.612c.347-.009.512-.122.755-.149v-.03c-.144-.01-.262-.164-.784-.36-.532-.198-2.124-.656-3.016-.815-.179-.032-.269.022-.377.177a.606.606 0 0 1-.322.23c.16.14.229.279.273.375.069.146.152.323.426.362.602.088 1.978.243 3.045.21zm-.055 1.637c.4-.012.536-.176.796-.209v-.028c-.167-.017-.267-.221-.842-.44-.541-.203-2.01-.631-2.98-.795-.178-.03-.29.027-.42.223a.58.58 0 0 1-.332.235c.168.14.24.28.285.374.074.158.16.384.434.424.623.092 1.986.261 3.059.216zm-.15 1.628c.497-.023.61-.24.891-.279v-.028c-.19-.025-.271-.275-.897-.517-.55-.208-1.882-.622-2.928-.788-.178-.027-.31.03-.459.269-.055.081-.184.214-.345.238.175.138.25.281.297.376.08.168.168.443.443.485.641.099 1.915.301 2.997.244zm-.027 1.607c.524-.021.573-.285.875-.33v-.029c-.215-.03-.28-.328-.956-.59-.557-.217-1.78-.61-2.904-.778-.18-.025-.33.033-.504.314-.051.083-.2.232-.354.242a.97.97 0 0 1 .306.378c.085.178.18.503.455.544.66.104 1.997.293 3.082.249zm.7-9.734v-.026c-.093 0-.249-.059-.647-.195-.51-.174-2.153-.596-2.856-.746-.168-.036-.231-.005-.314.072a.676.676 0 0 1-.266.167c.124.112.203.236.253.326.07.127.152.178.414.21.669.082 2.453.233 3.415.192zm-.272-1.595v-.025c-.087 0-.24-.056-.621-.179-.508-.164-1.96-.515-2.625-.66-.16-.035-.236-.027-.336.056a.676.676 0 0 1-.229.113.946.946 0 0 1 .24.255c.061.115.187.178.434.203.638.065 2.272.235 3.137.237zm-.367-1.623v-.026c-.078 0-.311-.072-.662-.175-.483-.14-1.616-.403-2.22-.536-.116-.026-.246-.045-.367.024a.59.59 0 0 1-.22.078.83.83 0 0 1 .224.206c.077.096.214.157.439.183.576.065 2.04.22 2.806.246zm-.473-1.642v-.026c-.071 0-.3-.085-.62-.168-.458-.116-1.273-.292-1.818-.413-.073-.015-.26-.06-.397-.007a.557.557 0 0 1-.21.044c.113.058.153.113.206.158.094.08.244.137.446.163.515.064 1.724.2 2.393.249zm-.602-1.68l-.002-.026c-.346-.064-.98-.216-1.982-.437a.962.962 0 0 0-.33-.012c-.063.012-.136.013-.215.018.09.047.131.086.188.119.09.055.204.093.37.114.404.05 1.444.182 1.97.224zm-.756-1.692l-.002-.025a3.142 3.142 0 0 1-.455-.078c-.27-.058-.722-.173-1.02-.227a1.33 1.33 0 0 0-.38 0c.143.08.301.13.465.146.29.035 1.01.15 1.392.184zm-1.013-1.736l-.005-.026a11.216 11.216 0 0 1-.704-.154.342.342 0 0 0-.15-.013c-.026.007-.06 0-.107 0 .083.024.163.065.285.094.16.027.47.08.681.099zm-2.09 48.767c2.153.407 4.011.113 4.608.113v-.029c-.361-.094-1.673-.744-2.14-.908-.436-.154-1.195-.43-1.849-.587v-.028c2.074.314 3.516-.017 4.028-.012v-.028c-.36-.094-1.51-.71-1.971-.885-.393-.146-1.039-.383-1.6-.503v-.03c1.999.249 3.183-.127 3.61-.117v-.028c-.361-.094-1.347-.674-1.804-.861a9.092 9.092 0 0 0-1.37-.448v-.025c1.745.222 2.87-.217 3.211-.204v-.028c-.36-.093-1.18-.636-1.634-.834a6.257 6.257 0 0 0-1.178-.413v-.028c1.639.197 2.487-.24 2.836-.253v-.026c-.353-.104-.798-.502-1.221-.722a5.23 5.23 0 0 0-1.258-.464V17.2c1.536.173 2.143-.277 2.502-.312v-.03c-.345-.111-.536-.424-.973-.657a6.208 6.208 0 0 0-1.199-.485v-.026c1.43.15 1.826-.297 2.196-.358v-.026c-.339-.123-.446-.383-.814-.648-.293-.21-.665-.356-1.086-.444v-.027c1.333.137 1.486-.338 1.93-.43v-.027c-.283-.075-.411-.452-.842-.715a2.177 2.177 0 0 0-.822-.308v-.028c1.29.097 1.312-.371 1.692-.499v-.026c-.31-.12-.364-.494-.888-.766a1.687 1.687 0 0 0-.567-.2v-.03c1.258.051 1.1-.413 1.488-.554v-.028c-.288-.105-.273-.541-.94-.818a1.508 1.508 0 0 0-.347-.085v-.029c1.01.035 1.055-.434 1.342-.54v-.025c-.29-.107-.14-.527-.825-.852a1.25 1.25 0 0 0-.347-.092v-.028c.173.013.29.009.432-.014.577-.09.396-.386.818-.531v-.025c-.332-.175-.108-.52-.765-.834a1.707 1.707 0 0 0-.348-.116v-.028c.186.018.407-.002.485-.022.512-.126.358-.37.716-.519l.001-.025c-.255-.127-.17-.563-.75-.832a2.485 2.485 0 0 0-.356-.12v-.027c.148.012.32.004.467-.022.482-.088.38-.372.735-.536v-.029c-.277-.072-.124-.587-.882-.859a1.362 1.362 0 0 0-.286-.077v-.028c.12.012.193.016.296.007.683-.055.59-.405.97-.557v-.027c-.267-.069-.147-.549-.922-.852-.158-.062-.202-.066-.387-.11v-.03c.19.014.31 0 .407-.003.796-.032.665-.422.992-.523V1.34c-.257-.063-.123-.509-1.033-.855-.182-.068-.209-.086-.52-.162L-8.126.3c.33.032.41.038.719.004.77-.082.596-.375.945-.485V-.21c-.248-.055-.226-.543-1.065-.811-.259-.083-.501-.171-.901-.272l-.005-.023c.396.039.743.062 1.139.04.593-.031.59-.369.924-.455v-.028c-.237-.047-.272-.511-.997-.745A19.45 19.45 0 0 0-8.96-2.95v-.028c.57.071 1.142.136 1.715.093.648-.049.641-.322.96-.39V-3.3c-.226-.039-.29-.428-.992-.676a17.107 17.107 0 0 0-2.874-.71c-.225-.032-.345.057-.553.322-.076.09-.238.226-.38.24.197.129.285.258.353.368.123.203.178.49.416.563-.204.018-.284.139-.524.391-.106.096-.192.18-.42.201.24.125.305.214.376.35.118.223.238.533.485.604-.237-.005-.33.187-.607.424-.13.103-.225.153-.453.164.228.12.326.227.428.374.094.133.282.533.518.585-.262.025-.376.237-.576.356-.212.128-.334.192-.59.202.193.087.361.22.49.388.22.266.276.47.545.569-.237.03-.271.197-.572.383a1.45 1.45 0 0 1-.706.185c.26.11.442.222.595.396.228.26.253.473.536.586-.275.067-.3.197-.593.358-.216.113-.515.162-.805.17.267.11.52.264.7.44.245.247.26.45.545.572-.31.056-.341.197-.635.336-.246.12-.6.15-.9.156.274.113.597.306.804.488.26.233.266.369.576.557-.306.092-.35.205-.698.316-.29.093-.689.134-.997.139.283.113.674.346.91.533.304.241.27.286.631.555-.252.055-.364.143-.738.28-.342.123-.632.16-1.15.136.34.122.661.291.954.502.228.154.453.453.786.595v.027c-.577.09-.821.522-2.155.342-1.33-.245-1.46-.84-2.28-.975-.875-.143-.79.312-1.162.382v.036c.343.266.268.68 1.057.741 1.055.08 1.54-.243 2.369-.129 1.044.143 1.384.838 2.03 1.096v.028c-.608.076-.864.509-2.211.33-1.271-.221-1.475-.758-2.2-.883-.804-.14-.746.27-1.093.344v.032c.345.267.264.623 1.023.682.943.074 1.257-.182 2.243-.087.99.102 1.41.85 2.108 1.098v.026c-.64.062-.97.47-2.28.298-1.21-.199-1.485-.68-2.111-.798-.733-.141-.703.226-1.024.306v.029c.345.267.26.563.99.621.832.067 1.148-.144 2.11-.035 1.01.119 1.458.862 2.205 1.096v.03c-.67.049-1.099.426-2.368.263-1.15-.176-1.487-.586-2.018-.694-.661-.141-.66.183-.953.266v.028c.344.267.252.503.953.56.724.06 1.035-.126 1.972-.005 1.035.138 1.517.868 2.317 1.09v.03c-.7.034-1.239.389-2.469.232-1.09-.152-1.474-.524-1.905-.62-.591-.14-.616.14-.883.227l-.002.025c.344.269.248.442.918.5.614.051.905-.071 1.82.062 1.055.155 1.582.86 2.435 1.073v.029c-.73.02-1.388.365-2.58.214-1.03-.128-1.476-.444-1.813-.532-.519-.138-.573.096-.812.189l-.003.021c.345.269.243.384.884.44.504.044.791-.037 1.68.11 1.08.178 1.686.88 2.59 1.083v.026c-.73.02-1.774.308-2.68.194-.835-.107-1.34-.386-1.683-.441-.474-.072-.563.026-.806.12l-.002.02c.25.2.31.336.809.389.5.056.69-.008 1.579.138 1.079.177 1.803.923 2.76 1.115v.028c-.955-.013-1.668.266-2.65.174-.822-.081-1.316-.32-1.658-.385-.488-.096-.607-.004-.848.078v.02c.262.205.355.318.839.38.446.053.63.007 1.51.166 1.075.196 1.781.888 2.823 1.1v.028c-1.18-.045-1.604.226-2.66.158-.811-.057-1.294-.253-1.634-.33-.504-.118-.648-.036-.887.035l-.004.02c.276.208.403.297.873.368.39.056.57.023 1.439.195 1.073.217 1.809.869 2.931 1.1v.027c-1.405-.076-1.582.172-2.717.126-.794-.034-1.27-.185-1.606-.276-.518-.137-.69-.064-.928-.003l-.001.02c.288.21.448.277.906.357.331.054.51.04 1.37.227 1.07.232 1.665.826 2.984 1.075zm35.597-8.415c0-3.514-2.18-5.697-5.69-5.697-3.755 0-6.186 2.334-6.186 5.945 0 3.632 2.136 5.8 5.71 5.8 3.803-.002 6.166-2.319 6.166-6.048zm-5.972 5.268c-2.551 0-4.133-1.957-4.133-5.11-.002-3.132 1.581-5.076 4.133-5.076 2.633 0 4.206 1.909 4.206 5.11 0 3.18-1.573 5.076-4.206 5.076zm25.374-10.24l2.442.424.273 7.398-6.809-8.301H35.51v.474l1.841.42-.07 9.461-1.644.393c-.465-.13-1.202-.327-2.18-1.543l-2.868-3.54c1.01-.278 2.64-1.023 2.64-2.929 0-1.252-.677-2.735-3.918-2.735h-5.056v.474l1.836.42v9.459l-1.836.423v.476h5.019v-.473l-1.627-.423v-9.522c.485-.08.965-.128 1.29-.128 1.796 0 2.672.667 2.672 2.044-.001 2.134-1.728 2.445-2.435 2.54-.24.03-.524.044-.777.044v.474l.628.2 2.655 3.437c.886 1.147 1.532 1.807 4.536 1.807h4.439v-.478l-2.21-.427-.275-8.882 8.118 10.025h.215l.142-10.597 1.485-.424v-.468h-5.093v.477h.002zm17.567 10.297l-2.213-.425-.272-8.882 8.117 10.022h.216l.141-10.598 1.488-.424v-.468H62.99v.478l2.44.425.271 7.4-6.8-8.303h-3.437v.475l1.834.42-.068 9.46-1.766.421v.475h5.142v-.476zM9.418 18.758c-.349 1.15-.865 2.67-3.476 2.67-2.473 0-4.117-2.093-4.135-5.034-.02-3.12 1.526-5.154 4.24-5.154 2.296 0 2.975 1.399 3.222 2.89h.564v-2.815c-.632-.362-2.356-.854-3.82-.854-3.571 0-6.019 2.416-5.974 6 .047 3.47 2.201 5.746 5.742 5.746 2.006 0 3.108-.528 4.152-1.06.008-.002.258-3.008.258-3.008h-.59l-.183.619zm69.394-1.156l1.448-.421v-.468H75.1v.475l2.157.423v2.918c-.758.598-1.602.95-2.916.907-2.349-.075-4.011-2.087-4.011-5.03 0-3.25 1.526-5.158 4.307-5.158 2.446 0 3.127 1.581 3.37 2.874h.522v-2.781c-.73-.41-2.31-.871-4.13-.871-3.571 0-5.856 2.344-5.837 6.006.015 3.4 2.244 5.683 5.678 5.738 2.36.039 3.597-.62 4.567-1.196-.002.01.005-3.416.005-3.416zm-24.4 3.883l-1.84-.422v-9.46l1.84-.419v-.475h-5.23v.475l1.833.42v9.46l-1.834.421v.478l5.23-.003v-.475zm-38.806 7.17c0 1.176-.716 1.705-1.736 1.705a4.82 4.82 0 0 1-.574-.038V26.97c.159-.004.424-.017.651-.017 1.13 0 1.66.59 1.66 1.702zm.628-.04c0-1.498-.834-2.148-2.23-2.148-.48 0-.969.02-1.306.026v4.343c.323 0 .666.027 1.107.027 1.427 0 2.429-.762 2.429-2.248zm1.168-1.51a.384.384 0 0 1-.387-.38.38.38 0 0 1 .387-.375c.214 0 .389.161.389.374a.387.387 0 0 1-.39.381zm-.29.528h.581v3.204h-.582v-3.204zm2.216 3.264c-.24 0-.477-.018-.677-.06l.018-.515c.2.066.458.107.704.107.427 0 .716-.19.716-.485 0-.72-1.492-.28-1.492-1.406 0-.544.447-.96 1.286-.96.195 0 .422.023.613.062l-.012.485a2.172 2.172 0 0 0-.646-.104c-.427 0-.64.182-.64.456 0 .705 1.5.323 1.5 1.4 0 .582-.517 1.02-1.37 1.02zm3.399-.014c-.771 0-1.408-.36-1.408-1.541 0-1.033.528-1.76 1.601-1.76.253 0 .504.04.73.106l-.064.508a1.896 1.896 0 0 0-.691-.137c-.648 0-.965.479-.965 1.209 0 .624.207 1.12.919 1.12a1.7 1.7 0 0 0 .762-.176l.047.503a2.69 2.69 0 0 1-.931.168zm3.733-1.669c0 .818-.413 1.192-.893 1.192-.586 0-.902-.426-.902-1.197 0-.796.438-1.15.902-1.15.596 0 .893.424.893 1.155zm.607-.033c0-1.154-.626-1.604-1.447-1.604-.968 0-1.565.746-1.565 1.69 0 1.127.57 1.629 1.442 1.629.951 0 1.57-.75 1.57-1.715zm2.086 1.656h-.6l-1.208-3.204h.652l.68 1.91c.07.204.135.406.185.605h.013c.055-.19.11-.394.183-.585l.697-1.93h.628l-1.23 3.204zm3.599-2.05h-1.5c.066-.47.362-.785.783-.785.453 0 .729.315.717.785zm.594.135c0-.734-.381-1.344-1.285-1.344-.912 0-1.434.713-1.434 1.673 0 1.131.528 1.646 1.518 1.646.4 0 .773-.073 1.085-.202l-.051-.47a2.35 2.35 0 0 1-.937.201c-.686 0-1.04-.368-1.015-1.225h2.099c.013-.113.02-.2.02-.28zm2.463-.781c-.68-.114-1.004.38-1.004 1.407v1.288h-.58v-3.204h.562c0 .202-.02.497-.07.762h.013c.135-.444.465-.888 1.104-.817l-.025.564zm1.032-1.035a.387.387 0 0 1-.358-.235.38.38 0 0 1-.03-.147.38.38 0 0 1 .388-.374.38.38 0 0 1 .386.374.384.384 0 0 1-.386.381zm-.29.527h.581v3.204h-.582v-3.204zm3.752 3.204V28.77c0-.453-.12-.717-.548-.717-.533 0-.912.535-.912 1.243v1.541h-.582v-3.204h.563c0 .189-.012.483-.052.673l.014.003c.188-.442.582-.74 1.131-.74.738 0 .967.459.967 1.027v2.242h-.581v-.001zm3.683-2.08c0 .466-.308.737-.793.737-.504 0-.795-.261-.795-.738 0-.432.303-.748.814-.748.491 0 .774.276.774.748zm.796 2.547c0-.58-.389-.916-1.084-.916h-.596c-.386 0-.55-.072-.55-.252 0-.104.065-.206.207-.266.11.021.272.04.408.04.918 0 1.396-.503 1.396-1.194 0-.269-.105-.495-.273-.624h.54v-.46h-1.087a2.157 2.157 0 0 0-.504-.054c-.898 0-1.41.559-1.41 1.236 0 .408.156.735.472.915a.594.594 0 0 0-.363.538c0 .21.124.379.317.468-.283.149-.53.452-.53.831 0 .615.525.942 1.352.942 1.008-.002 1.705-.53 1.705-1.204zm-.576.067c0 .394-.38.67-1.038.67-.505 0-.867-.205-.867-.586 0-.244.16-.456.415-.583h.819c.451-.001.671.19.671.5zm4.957-3.764c0 .478-.38.763-1.097.763-.155 0-.273 0-.397-.01v-1.402c.175-.006.39-.014.591-.014.702 0 .904.276.904.663zm.71 1.93c0-.453-.27-.896-.878-1v-.015c.471-.149.782-.553.782-1.01 0-.651-.456-1.045-1.416-1.045-.522 0-.967.014-1.285.02v4.349c.426.01.85.02 1.11.02 1.363 0 1.687-.8 1.687-1.319zm-.619.017c0 .478-.317.82-1.03.82a3.91 3.91 0 0 1-.555-.032v-1.523c.106-.006.332-.006.407-.006.674 0 1.178.182 1.178.741zm3.379-.767h-1.5c.066-.47.363-.785.784-.785.452 0 .728.315.715.785zm.594.135c0-.734-.382-1.344-1.285-1.344-.911 0-1.436.713-1.436 1.673 0 1.131.532 1.646 1.52 1.646.4 0 .773-.073 1.084-.202l-.047-.47a2.37 2.37 0 0 1-.939.201c-.685 0-1.039-.368-1.015-1.225h2.1a2.4 2.4 0 0 0 .018-.28zm1.979 2.24c-.377.991-.681 1.314-1.39 1.314a3.07 3.07 0 0 1-.422-.04l.052-.522c.136.045.263.064.413.064.355 0 .543-.162.768-.779l.137-.362-1.215-3.204h.66l.609 1.663c.102.293.171.543.244.794h.013c.058-.224.196-.634.317-.984l.515-1.473h.638l-1.34 3.529zm3.969-1.948c0 .818-.412 1.192-.89 1.192-.589 0-.904-.426-.904-1.197 0-.796.44-1.15.904-1.15.595 0 .89.424.89 1.155zm.608-.033c0-1.154-.626-1.604-1.446-1.604-.97 0-1.565.746-1.565 1.69 0 1.127.57 1.629 1.442 1.629.95 0 1.569-.75 1.569-1.715zm2.882 1.656V28.77c0-.453-.123-.717-.548-.717-.531 0-.912.535-.912 1.243v1.541h-.58v-3.204h.561c0 .189-.016.483-.05.673l.009.003c.188-.442.582-.74 1.134-.74.735 0 .969.459.969 1.027v2.242h-.583v-.001zm3.624-1.656c0 .56-.299 1.239-.876 1.239-.487 0-.713-.393-.713-1.085 0-.92.408-1.289 1.02-1.289a2.2 2.2 0 0 1 .57.07v1.065zm.583 1.656v-4.705h-.583v1.49a5.15 5.15 0 0 0-.541-.032c-1.016 0-1.662.676-1.662 1.796 0 .937.395 1.511 1.183 1.511a1.143 1.143 0 0 0 1.079-.715l.013.006a3.49 3.49 0 0 0-.053.65h.564v-.001zm2.57-4.35h.594v4.35h-.594v-4.35zm5.726 4.35v-2.055c0-.445-.105-.73-.523-.73-.462 0-.9.486-.9 1.26v1.524h-.574v-2.062c0-.4-.086-.722-.523-.722-.49 0-.9.523-.9 1.26v1.524h-.58v-3.204h.563c0 .19-.015.48-.052.673l.013.004a1.177 1.177 0 0 1 1.115-.741c.68 0 .861.472.888.732.136-.306.48-.732 1.097-.732.61 0 .959.33.959 1.052v2.216h-.583v.001zm3.392-1.417c0 .502-.349 1.02-.873 1.02-.295 0-.49-.173-.49-.445 0-.29.245-.635 1.364-.635v.06h-.001zm.593 1.417c-.012-.619-.012-2.196-.012-2.196 0-.639-.265-1.073-1.19-1.073-.424 0-.812.105-1.125.232l.058.5c.296-.17.63-.261.97-.266.53 0 .706.238.706.683v.239c-1.214 0-1.934.443-1.934 1.146 0 .51.362.795.895.795.53 0 .935-.304 1.09-.694h.012c-.032.179-.032.41-.032.635h.563v-.001zm3.103-2.08c0 .466-.31.737-.799.737-.501 0-.792-.261-.792-.738 0-.432.304-.748.813-.748.492 0 .778.276.778.748zm.795 2.547c0-.58-.39-.916-1.087-.916h-.595c-.387 0-.548-.072-.548-.252 0-.104.065-.206.204-.266.112.021.275.04.408.04.92 0 1.398-.503 1.398-1.194 0-.269-.104-.495-.27-.624h.542v-.46h-1.091a2.141 2.141 0 0 0-.506-.054c-.898 0-1.408.559-1.408 1.236 0 .408.156.735.473.915a.593.593 0 0 0-.363.538c0 .21.124.379.316.468-.282.149-.527.452-.527.831 0 .615.523.942 1.352.942 1.003-.002 1.702-.53 1.702-1.204zm-.576.067c0 .394-.381.67-1.043.67-.5 0-.863-.205-.863-.586 0-.244.16-.456.412-.583h.82c.455-.001.674.19.674.5zm1.717-4.265a.385.385 0 0 1-.387-.382.38.38 0 0 1 .387-.374.379.379 0 0 1 .387.374.386.386 0 0 1-.387.381zm-.29.527h.583v3.204h-.583v-3.204zm3.756 3.204V28.77c0-.453-.124-.717-.55-.717-.53 0-.914.535-.914 1.243v1.541h-.581v-3.204h.56c0 .189-.01.483-.049.673l.014.003a1.18 1.18 0 0 1 1.131-.74c.737 0 .968.459.968 1.027v2.242h-.58v-.001zm3.385-1.417c0 .502-.35 1.02-.875 1.02-.294 0-.49-.173-.49-.445 0-.29.246-.635 1.365-.635v.06zm.594 1.417c-.013-.619-.013-2.196-.013-2.196 0-.639-.267-1.073-1.19-1.073a2.989 2.989 0 0 0-1.123.232l.056.5c.295-.17.63-.262.97-.266.53 0 .706.238.706.683v.239c-1.217 0-1.933.443-1.933 1.146 0 .51.362.795.892.795s.937-.304 1.09-.694h.015c-.034.179-.034.41-.034.635h.564v-.001zm2.034.053c-.66 0-.86-.27-.86-.96v-1.844h-.659v-.453h.659v-1.037l.58-.159v1.196h.899v.453h-.899v1.638c0 .53.098.671.459.671.148 0 .31-.027.44-.059v.488a3.096 3.096 0 0 1-.62.066zm1.729-3.785a.384.384 0 0 1-.388-.38c0-.209.176-.375.388-.375a.378.378 0 0 1 .387.374.386.386 0 0 1-.387.381zm-.29.528h.581v3.204h-.581v-3.204zm3.818 1.581c0 .818-.415 1.192-.89 1.192-.589 0-.907-.426-.907-1.197 0-.796.439-1.15.906-1.15.594 0 .891.424.891 1.155zm.609-.033c0-1.154-.63-1.604-1.449-1.604-.968 0-1.562.746-1.562 1.69 0 1.127.569 1.629 1.44 1.629.951 0 1.571-.75 1.571-1.715zm2.882 1.656V28.77c0-.453-.123-.717-.55-.717-.528 0-.912.535-.912 1.243v1.541h-.58v-3.204h.561c0 .189-.012.483-.053.673l.013.003c.19-.442.583-.74 1.132-.74.739 0 .97.459.97 1.027v2.242h-.581v-.001z" fill="#397DB7"/></g><defs><clipPath id="a"><path fill="#fff" d="M0 0h103v39H0z"/></clipPath></defs></svg>