<svg width="94" height="37" viewBox="0 0 94 37" fill="none" xmlns="http://www.w3.org/2000/svg"><path d="M89.677.323a.25.25 0 0 0-.354 0l-1.59 1.591a.25.25 0 0 0 .353.354L89.5.854l1.414 1.414a.25.25 0 0 0 .354-.354L89.677.324zM.5 36.25h2.608v-.5H.5v.5zm4.658 0c1.726 0 3.418 0 5.074-.002v-.5l-5.074.002v.5zm7.14-.003l5.064-.007-.001-.5-5.063.007v.5zm7.139-.012c1.731-.004 3.42-.01 5.066-.018l-.002-.5c-1.646.008-3.335.014-5.065.018v.5zm7.141-.028c1.741-.01 3.434-.022 5.08-.037l-.005-.5c-1.645.015-3.337.027-5.077.037l.002.5zm7.143-.057c1.753-.018 3.451-.04 5.096-.066l-.008-.5c-1.644.026-3.34.048-5.093.066l.005.5zm7.132-.101c1.765-.033 3.466-.071 5.106-.115l-.014-.5c-1.638.044-3.337.082-5.101.115l.009.5zm7.1-.173a376.06 376.06 0 0 0 5.108-.192l-.022-.5a376.29 376.29 0 0 1-5.101.192l.015.5zm7.188-.292c1.786-.093 3.48-.199 5.088-.32l-.038-.498c-1.602.12-3.293.226-5.076.318l.026.5zm7.113-.483c1.815-.158 3.511-.338 5.095-.543l-.064-.496c-1.576.204-3.265.383-5.074.54l.043.499zm7.107-.826a61.3 61.3 0 0 0 5.013-.962l-.116-.487a60.459 60.459 0 0 1-4.972.955l.075.494zm7.014-1.495c1.821-.536 3.398-1.157 4.764-1.875l-.233-.443c-1.33.7-2.876 1.31-4.672 1.839l.14.48zm6.538-2.946c1.514-1.049 2.697-2.269 3.619-3.688l-.42-.272c-.885 1.362-2.021 2.536-3.483 3.549l.284.41zm4.613-5.506c.67-1.466 1.138-3.106 1.465-4.937l-.492-.088c-.322 1.802-.78 3.4-1.427 4.817l.454.208zm1.764-6.967c.188-1.574.3-3.277.367-5.119l-.5-.018c-.066 1.834-.178 3.522-.363 5.077l.496.06zm.423-7.147c.032-1.599.04-3.297.04-5.098h-.5c0 1.8-.008 3.494-.04 5.088l.5.01zm.04-7.147c-.002-.834-.003-1.69-.003-2.567h-.5l.002 2.568h.5zm.1-2.92a.5.5 0 0 0-.707 0l-3.181 3.181a.5.5 0 1 0 .707.708L89.5 1.207l2.828 2.829a.5.5 0 1 0 .707-.708L89.855.146zM.5 36.5h2.608v-1H.5v1zm4.658 0c1.726 0 3.418 0 5.075-.002v-1l-5.075.002v1zm7.14-.003l5.064-.007-.002-1-5.063.007.001 1zm7.14-.012c1.73-.004 3.42-.01 5.066-.018l-.004-1c-1.646.008-3.334.014-5.065.018l.003 1zm7.142-.028c1.74-.01 3.434-.022 5.08-.037l-.01-1c-1.644.015-3.336.027-5.076.037l.006 1zm7.144-.057c1.753-.018 3.452-.04 5.097-.066l-.016-1c-1.643.026-3.34.048-5.092.066l.01 1zm7.134-.101c1.765-.033 3.467-.071 5.108-.115l-.027-1c-1.638.044-3.337.082-5.1.115l.019 1zm7.103-.173a376.82 376.82 0 0 0 5.112-.192l-.045-1c-1.625.073-3.324.137-5.098.192l.031 1zm7.193-.293c1.788-.093 3.484-.199 5.093-.32l-.074-.996c-1.6.12-3.29.225-5.071.317l.052 1zm7.121-.483c1.819-.159 3.518-.339 5.106-.544l-.128-.992a122.43 122.43 0 0 1-5.064.54l.087.996zm7.124-.828a61.16 61.16 0 0 0 5.034-.966l-.234-.973a60.11 60.11 0 0 1-4.95.95l.15.99zm7.046-1.502c1.834-.54 3.427-1.166 4.81-1.894l-.466-.885c-1.312.691-2.842 1.294-4.626 1.82l.282.96zm6.61-2.98c1.54-1.067 2.746-2.31 3.687-3.758l-.839-.545c-.867 1.335-1.98 2.485-3.417 3.48l.57.822zm4.699-5.608c.68-1.49 1.153-3.15 1.483-4.997l-.984-.176c-.32 1.787-.772 3.363-1.409 4.757l.91.416zm1.784-7.042c.19-1.582.302-3.293.37-5.139l-1-.036c-.067 1.83-.178 3.51-.362 5.057l.992.118zm.425-7.17c.032-1.603.04-3.302.04-5.104h-1c0 1.8-.008 3.492-.04 5.084l1 .02zm.04-7.153C90 2.232 90 1.377 90 .5h-1l.002 2.568h1z" fill="#1E211E"/></svg>