<svg width="29" height="33" viewBox="0 0 29 33" fill="none" xmlns="http://www.w3.org/2000/svg"><g filter="url(#a)"><path d="M6.495 12.549h16.986c.403 0 .725.322.725.725v3.944h-2.308a.95.95 0 0 0-.939.94v1.636c0 .51.43.94.94.94h2.307v3.541a.721.721 0 0 1-.725.725H6.495a.721.721 0 0 1-.724-.725V13.3c-.027-.402.322-.751.724-.751z" fill="url(#b)"/><path d="M24.85 4.928c0-.027-.027-.053-.027-.053-.027-.054-.054-.081-.08-.135-.054-.053-.08-.08-.161-.107l-3.274-1.61L15.217.044a.523.523 0 0 0-.35-.026.588.588 0 0 0-.268.241l-4.078 8.292H5.208A1.202 1.202 0 0 0 4 9.758v13.176c0 .67.537 1.207 1.208 1.207h16.985c.671 0 1.208-.536 1.208-1.207v-3.086h.51a.481.481 0 0 0 .483-.483V15.85a.481.481 0 0 0-.483-.483h-.51v-3.462c0-.67-.537-1.207-1.208-1.207h-.027l2.657-5.421c.027-.054.054-.107.054-.188 0-.053 0-.107-.027-.16zm-2.2 2.657c-1.1-.778-1.61-2.174-1.235-3.462l2.362 1.154-1.127 2.308zm-5.045-5.313a3.152 3.152 0 0 1-2.55 1.288 3.61 3.61 0 0 1-.939-.135l1.127-2.307 2.362 1.154zM5.208 9.517h4.857l-.59 1.18H5.207c-.081 0-.188 0-.269.027v-.966c0-.134.134-.241.269-.241zm18.247 6.816v2.576h-2.818a.481.481 0 0 1-.483-.483v-1.61a.48.48 0 0 1 .483-.483h2.818zm-.993-4.428v3.462H20.61c-.778 0-1.422.644-1.422 1.422v1.637c0 .778.644 1.422 1.422 1.422h1.852v3.086a.269.269 0 0 1-.269.268H5.208a.269.269 0 0 1-.269-.268V11.905a.27.27 0 0 1 .269-.268h16.985a.27.27 0 0 1 .269.268zm-9.338-1.207a2.401 2.401 0 0 1 2.146-1.289c.376 0 .725.08 1.074.242.456.215.831.59 1.073 1.046h-4.294zm5.313 0c-.296-.806-.886-1.503-1.664-1.879a3.506 3.506 0 0 0-1.476-.349 3.317 3.317 0 0 0-3.032 1.905 1.656 1.656 0 0 0-.134.322h-1.557l3.14-6.44c.43.161.885.242 1.368.242a4.082 4.082 0 0 0 3.408-1.825l2.093 1.02c-.59 1.77.135 3.73 1.69 4.75l-1.1 2.253h-2.736z" fill="#3D3F3D"/><path d="M18.141 6.002c-.644-.322-1.449-.027-1.77.617a1.32 1.32 0 0 0 .616 1.77c.188.081.376.135.59.135.51 0 .967-.295 1.181-.751.296-.671.027-1.45-.617-1.771zm-.268 1.341c-.08.188-.322.269-.483.161-.188-.08-.268-.322-.161-.483a.349.349 0 0 1 .322-.214.34.34 0 0 1 .16.026c.189.108.27.322.162.51z" fill="#231F20"/></g><defs><filter id="a" x="0" y="0" width="28.877" height="33" filterUnits="userSpaceOnUse" color-interpolation-filters="sRGB"><feFlood flood-opacity="0" result="BackgroundImageFix"/><feColorMatrix in="SourceAlpha" values="0 0 0 0 0 0 0 0 0 0 0 0 0 0 0 0 0 0 127 0"/><feOffset dy="4"/><feGaussianBlur stdDeviation="2"/><feColorMatrix values="0 0 0 0 0 0 0 0 0 0 0 0 0 0 0 0 0 0 0.25 0"/><feBlend in2="BackgroundImageFix" result="effect1_dropShadow"/><feBlend in="SourceGraphic" in2="effect1_dropShadow" result="shape"/></filter><linearGradient id="b" x1="6.403" y1="13.794" x2="25.64" y2="15.396" gradientUnits="userSpaceOnUse"><stop stop-color="#2CCF5E"/><stop offset="1" stop-color="#0FCF4A"/></linearGradient></defs></svg>