<svg width="20" height="24" viewBox="0 0 20 24" fill="none" xmlns="http://www.w3.org/2000/svg"><path d="M11.076 7.185c9.987 0 6.9 14.501 8.197 14.501.416 0 .727.337.727.726v.39a.725.725 0 0 1-.727.726H2.853a.725.725 0 0 1-.726-.726v-.39c0-.415.337-.726.726-.726 1.323 0-1.764-14.5 8.223-14.5z" fill="url(#a)"/><path d="M17.743 20.26c-.104-.338-.13-1.272-.155-2.102-.13-3.631-.39-10.817-6.148-12.192a.45.45 0 0 0-.337-.7c.933-.908 1.79-2.413 2.178-4.306a.676.676 0 0 0-.13-.597C12.893.052 12.4 0 12.012 0c-.597 0-1.427.104-2.31.233-.985.13-1.997.26-2.8.26-.416 0-.753-.026-.96-.104a.477.477 0 0 0-.416.052c-.13.078-.181.233-.181.363 0 1.582 1.011 3.372 2.127 4.462a.445.445 0 0 0-.337.44c0 .105.051.208.103.286-5.68 1.427-5.94 8.535-6.07 12.166-.026.83-.052 1.764-.155 2.101A1.176 1.176 0 0 0 0 21.427v.389c0 .648.545 1.193 1.193 1.193h16.42c.649 0 1.194-.545 1.194-1.193v-.39a1.322 1.322 0 0 0-1.064-1.167zM6.303 1.4c.908.104 2.257-.077 3.528-.233.856-.103 1.635-.207 2.18-.207.181 0 .285 0 .363.026-.545 2.438-1.868 3.917-2.776 4.306h-.675c-.907-.467-2.36-2.205-2.62-3.891zm11.544 20.416c0 .155-.13.285-.285.285H1.142a.288.288 0 0 1-.286-.285v-.39c0-.155.13-.285.285-.285.779 0 .83-.985.908-2.957.156-4.02.415-11.517 7.315-11.517s7.16 7.496 7.316 11.543c.078 1.971.103 2.957.908 2.957.155 0 .285.13.285.286v.363h-.026z" fill="#3D3F3D"/><path d="M7.989 17.458c-.078-.026-.182-.078-.26-.104l-.13-.052.027-.13.077-.7.026-.26.234.13c.026.026.078.026.104.052.025.026.077.026.103.052.078.026.156.052.26.078a.768.768 0 0 0 .26.052.643.643 0 0 0 .207.026c.077 0 .13.026.207.026h.286c.051 0 .13-.026.181-.026l.156-.078c.052-.026.103-.078.155-.104.052-.026.078-.078.104-.13l.078-.155a.221.221 0 0 0 0-.182c0-.052-.026-.13-.026-.181a.564.564 0 0 0-.078-.13c-.026-.052-.078-.078-.104-.104-.051-.026-.077-.078-.13-.104l-.155-.077a.37.37 0 0 0-.156-.052c-.103-.052-.233-.078-.337-.13l-.311-.156c-.104-.052-.208-.103-.285-.155a1.82 1.82 0 0 1-.26-.208c-.078-.078-.155-.13-.207-.207-.052-.078-.13-.156-.156-.26a1.46 1.46 0 0 1-.104-.311c-.026-.104-.026-.207-.026-.311 0-.13 0-.26.026-.39.026-.129.052-.233.104-.362.052-.104.104-.208.182-.312.077-.104.155-.181.233-.26.104-.077.182-.155.285-.207.104-.052.208-.104.338-.13l.052-.025v-.804h.907v.75h.052c.052 0 .13.027.182.027.078.026.13.026.181.052a.293.293 0 0 0 .13.025c.026 0 .078.027.13.052l.155.052-.025.156-.078.623-.026.207-.208-.078c-.026 0-.078-.026-.155-.052-.026 0-.078-.026-.13-.026-.078-.026-.13-.026-.208-.051H9.39c-.077 0-.13.025-.207.025-.052.026-.13.052-.182.078a.313.313 0 0 0-.13.13l-.077.156c-.026.051-.026.103-.052.155v.182c0 .052.026.13.052.181a.566.566 0 0 0 .078.13c.026.052.078.078.103.104.052.026.078.052.13.078l.156.077c.052.026.104.052.155.052.104.052.208.078.338.13l.31.156c.105.052.182.104.286.181.104.052.182.13.26.208.078.078.155.155.207.233.052.078.104.156.156.26.052.104.078.207.104.311.026.104.026.208.026.311 0 .13 0 .26-.026.363-.026.13-.052.234-.104.364a1.938 1.938 0 0 1-.182.31 2.09 2.09 0 0 1-.233.26c-.104.078-.208.156-.312.208a1.496 1.496 0 0 1-.363.13l-.052.025v.806h-.907v-.752H8.87c-.104 0-.208-.027-.312-.053-.103-.026-.207-.051-.285-.077-.104 0-.207-.052-.285-.078z" fill="#3D3F3D"/><defs><linearGradient id="a" x1="2.741" y1="8.82" x2="21.448" y2="9.97" gradientUnits="userSpaceOnUse"><stop stop-color="#2CCF5E"/><stop offset="1" stop-color="#0FCF4A"/></linearGradient></defs></svg>