<svg width="20" height="17" viewBox="0 0 20 17" fill="none" xmlns="http://www.w3.org/2000/svg"><path d="M3.947 2.874h14.859V14.21H3.947v-1.538h.911v-2.611h-.91V7.024h.91V4.413h-.91V2.874z" fill="url(#a)"/><path d="M19.595 0H.365A.363.363 0 0 0 0 .364V15.04c0 .203.162.365.364.365h2.389v1.093c0 .202.162.364.364.364h2.956a.363.363 0 0 0 .364-.364v-1.093h7.126v1.093c0 .202.162.364.364.364h2.956a.363.363 0 0 0 .364-.364v-1.093h2.389A.363.363 0 0 0 20 15.04V.364C19.94.162 19.777 0 19.595 0zM5.71 16.134H3.482v-.73h2.226v.73zm10.769 0H14.25v-.73h2.227v.73zm2.753-1.458H.729V.708H19.23v13.968z" fill="#3D3F3D"/><path d="M2.126 12.186h.567v1.174c0 .203.162.365.364.365h14.859a.363.363 0 0 0 .364-.365V2.024a.363.363 0 0 0-.364-.364H3.037a.363.363 0 0 0-.364.364v1.174h-.547a.363.363 0 0 0-.364.365v2.611c0 .202.162.364.364.364h.567v2.328h-.547a.363.363 0 0 0-.364.365v2.611c0 .182.162.344.344.344zM3.401 2.39h14.15v10.627H3.401v-.83h.547a.363.363 0 0 0 .364-.364V9.23a.363.363 0 0 0-.364-.365h-.547V6.538h.547a.363.363 0 0 0 .364-.364V3.563a.363.363 0 0 0-.364-.365h-.547v-.81zm-.91 3.42V3.908h1.093V5.81H2.49zm0 3.766h1.093v1.903H2.49V9.575z" fill="#3D3F3D"/><path d="M13.704 10.283a2.574 2.574 0 0 0 2.57-2.57 2.574 2.574 0 0 0-2.57-2.571 2.575 2.575 0 0 0-2.571 2.57 2.574 2.574 0 0 0 2.57 2.571zm0-4.453c1.032 0 1.862.83 1.862 1.862 0 1.033-.83 1.863-1.862 1.863a1.857 1.857 0 0 1-1.863-1.863 1.87 1.87 0 0 1 1.863-1.862z" fill="#3D3F3D"/><path d="M13.704 8.907c.668 0 1.194-.547 1.194-1.194a1.21 1.21 0 0 0-1.194-1.195c-.668 0-1.194.547-1.194 1.195a1.21 1.21 0 0 0 1.194 1.194zm0-1.7c.263 0 .486.222.486.485a.493.493 0 0 1-.486.486.48.48 0 0 1-.486-.486c0-.263.223-.486.486-.486z" fill="#3D3F3D"/><defs><linearGradient id="a" x1="4.458" y1="4.008" x2="19.984" y2="5.153" gradientUnits="userSpaceOnUse"><stop stop-color="#2CCF5E"/><stop offset="1" stop-color="#0FCF4A"/></linearGradient></defs></svg>