<svg width="20" height="19" viewBox="0 0 20 19" fill="none" xmlns="http://www.w3.org/2000/svg"><path d="M3.436 5.535h16.285c.154 0 .279.141.279.315v8.843c0 .174-.125.316-.279.316H3.437c-.154 0-.28-.142-.28-.316 0-.174.126-.316.28-.316L3.37 5.851l16.072.316H3.716v8.526c0 .174-.124.316-.278.316h-.001c-.154 0-.279-.141-.28-.315V5.85c0-.174.125-.316.28-.316z" fill="url(#a)"/><path d="M2.877 6.075h15.984c.15 0 .274.122.274.273v7.673a.274.274 0 0 1-.274.274H7.99a.274.274 0 0 1 0-.548h10.596V6.623H3.15v.685a.274.274 0 0 1-.548 0V6.35c0-.151.122-.274.274-.274zm1.857-1.272L17.52 1.926a.275.275 0 0 1 .328.208l.64 2.877a.274.274 0 0 1-.536.119l-.58-2.609L4.855 5.338a.274.274 0 0 1-.12-.534zm1.554-1.585L13.96.02a.275.275 0 0 1 .352.131l.64 1.279a.275.275 0 1 1-.492.245L13.935.628 6.5 3.725a.275.275 0 0 1-.212-.507z" fill="#3D3F3D"/><path d="M6.093 7.354H8.63a.274.274 0 0 1 0 .548H6.093a.274.274 0 0 1 0-.548zm5.094.018a2.813 2.813 0 1 1 0 5.626 2.813 2.813 0 0 1 0-5.626zm0 5.115a2.302 2.302 0 1 0 0-4.603 2.302 2.302 0 0 0 0 4.603zm-7.67-4.22c1.694 0 3.516.4 3.516 1.279v7.672c0 .878-1.822 1.279-3.516 1.279S0 18.097 0 17.218V9.546c0-.879 1.823-1.279 3.517-1.279zM.64 17.213c.048.178 1.007.644 2.877.644 1.87 0 2.829-.466 2.877-.639v-.503c-.68.343-1.804.503-2.877.503-1.073 0-2.197-.161-2.877-.503v.498zm0-1.279c.048.178 1.007.645 2.877.645 1.87 0 2.829-.467 2.877-.64v-.502c-.68.343-1.804.502-2.877.502-1.073 0-2.197-.161-2.877-.502v.498zm0-1.278c.048.177 1.007.644 2.877.644 1.87 0 2.829-.467 2.877-.64v-.502c-.68.343-1.804.503-2.877.503-1.073 0-2.197-.162-2.877-.503v.498zm0-1.279c.048.178 1.007.644 2.877.644 1.87 0 2.829-.466 2.877-.64v-.502c-.68.343-1.804.503-2.877.503-1.073 0-2.197-.162-2.877-.503v.498zm0-1.279c.048.178 1.007.645 2.877.645 1.87 0 2.829-.467 2.877-.64v-.502c-.68.34-1.804.502-2.877.502-1.073 0-2.197-.161-2.877-.503v.498zm0-1.278c.048.177 1.007.644 2.877.644 1.87 0 2.829-.467 2.877-.64v-.502c-.68.341-1.804.503-2.877.503-1.073 0-2.197-.162-2.877-.503v.498zm2.877-.635c1.867 0 2.825-.465 2.877-.633V9.55c-.052-.178-1.01-.643-2.877-.643-1.854 0-2.813.458-2.877.639.064.18 1.023.64 2.877.64z" fill="#3D3F3D"/><path d="M13.745 12.468h2.417l1.145-1.253V9.137l-1.265-1.235h-2.297a.274.274 0 0 1 0-.548h2.408c.072 0 .14.028.192.078l1.428 1.392a.344.344 0 0 1 .082.224v2.274a.274.274 0 0 1-.071.184l-1.299 1.421a.274.274 0 0 1-.202.09h-2.538a.274.274 0 1 1 0-.549zM11.35 9.866h-.32c-.1 0-.16-.056-.16-.08 0-.025.06-.08.16-.08h.799a.32.32 0 1 0 0-.64h-.32a.32.32 0 0 0-.64 0v.015a.744.744 0 0 0-.639.703c.023.42.38.741.8.72h.32c.099 0 .16.056.16.08 0 .025-.061.08-.16.08h-.8a.32.32 0 0 0 0 .64h.32a.32.32 0 0 0 .64 0v-.014a.744.744 0 0 0 .639-.704.763.763 0 0 0-.8-.72z" fill="#3D3F3D"/><defs><linearGradient id="a" x1="19.421" y1="6.483" x2="1.901" y2="8.235" gradientUnits="userSpaceOnUse"><stop stop-color="#2CCF5E"/><stop offset="1" stop-color="#0FCF4A"/></linearGradient></defs></svg>