<svg width="28" height="30" viewBox="0 0 28 30" fill="none" xmlns="http://www.w3.org/2000/svg"><g filter="url(#a)"><path d="M14.458 10.798a3.039 3.039 0 0 1-3.036-3.035 3.039 3.039 0 0 1 3.036-3.036 3.039 3.039 0 0 1 3.035 3.036 3.039 3.039 0 0 1-3.035 3.035z" fill="#727272"/><path d="M22.263 14.96a1.014 1.014 0 0 0-.961-.694h-1.07c-.647 0-1.282.244-1.763.674h-1.89v-.487a1.2 1.2 0 0 0-2.226-.617l-.663 1.104h-.837a.305.305 0 0 1-.26-.14.305.305 0 0 1-.023-.296l.678-1.525a1 1 0 1 0-1.691-1.036l-1.92 2.368-2.944.905a2.23 2.23 0 0 0-1.582 2.143v1.196c0 .61.497 1.108 1.108 1.108h.943a2.363 2.363 0 0 0 2.334 2.023c1.187 0 2.17-.881 2.334-2.023h5.451a2.363 2.363 0 0 0 2.334 2.023c1.187 0 2.17-.881 2.334-2.023h.027A2.026 2.026 0 0 0 24 17.639v-.675a2.027 2.027 0 0 0-1.737-2.003zm-7.332-.777a.525.525 0 0 1 .974.27v.487h-1.428l.454-.757z" fill="url(#b)"/><path d="M21.152 13.85a1.015 1.015 0 0 0-.962-.695h-1.07c-.646 0-1.28.244-1.762.674h-1.89v-.487a1.2 1.2 0 0 0-2.227-.617l-.662 1.104h-.837a.305.305 0 0 1-.26-.14.305.305 0 0 1-.023-.296l.678-1.525a1 1 0 1 0-1.691-1.036L8.525 13.2l-2.943.905A2.23 2.23 0 0 0 4 16.247v1.197c0 .61.497 1.108 1.107 1.108h.944a2.363 2.363 0 0 0 2.334 2.023c1.187 0 2.17-.881 2.334-2.023h5.45a2.363 2.363 0 0 0 2.335 2.023c1.187 0 2.17-.881 2.334-2.023h.027a2.026 2.026 0 0 0 2.024-2.024v-.675a2.027 2.027 0 0 0-1.737-2.003zm-7.332-.778a.525.525 0 0 1 .974.27v.487h-1.428l.454-.757zm-5.435 6.829c-.93 0-1.687-.757-1.687-1.687s.757-1.686 1.687-1.686a1.687 1.687 0 0 1 0 3.373zm10.119 0c-.93 0-1.687-.757-1.687-1.687s.757-1.686 1.687-1.686a1.687 1.687 0 0 1 0 3.373zm3.71-3.373a1.35 1.35 0 0 1-1.349 1.349h-.027a2.363 2.363 0 0 0-2.334-2.024c-1.187 0-2.17.882-2.334 2.024h-5.45a2.363 2.363 0 0 0-2.335-2.024c-1.187 0-2.17.882-2.334 2.024h-.944a.433.433 0 0 1-.432-.433v-.579h.843a.844.844 0 0 0 0-1.686h-.169v.674h.169a.17.17 0 0 1 .169.169.17.17 0 0 1-.17.169H4.68a1.556 1.556 0 0 1 1.102-1.44l3.139-.967 2.05-2.527a.326.326 0 0 1 .55.337l-.678 1.526a.982.982 0 0 0 .075.936.98.98 0 0 0 .825.448h5.89l.098-.099a1.98 1.98 0 0 1 1.39-.575h1.07c.187 0 .338.15.338.337v.337h.337c.744 0 1.35.605 1.35 1.35v.674z" fill="#333"/><path d="M14.792 8.77h-.675c-.186 0-.337 0-.337-.338h-.675c0 .675.454 1.017 1.012 1.017v.333h.675v-.333a1.015 1.015 0 0 0 0-2.028h-.675a.337.337 0 0 1 0-.675h.675c.186 0 .337 0 .337.337h.675c0-.674-.454-1.007-1.012-1.007v-.342h-.675v.342c-.558 0-1.012.452-1.012 1.01s.454 1.01 1.012 1.01h.675a.337.337 0 0 1 0 .674z" fill="#fff"/><path d="M14.794 1.686h-.675v2.362h.675V1.686zm0-1.344h-.675v.675h.675V.342zM16.82 1.35h-.675v3.372h.674V1.35zm0-1.35h-.675v.675h.674V0zm-4.048 2.361h-.674v2.361h.674V2.361zm0-1.344h-.674v.674h.674v-.674z" fill="#333"/></g><defs><filter id="a" x="0" y="0" width="28" height="29.686" filterUnits="userSpaceOnUse" color-interpolation-filters="sRGB"><feFlood flood-opacity="0" result="BackgroundImageFix"/><feColorMatrix in="SourceAlpha" values="0 0 0 0 0 0 0 0 0 0 0 0 0 0 0 0 0 0 127 0"/><feOffset dy="4"/><feGaussianBlur stdDeviation="2"/><feColorMatrix values="0 0 0 0 0 0 0 0 0 0 0 0 0 0 0 0 0 0 0.25 0"/><feBlend in2="BackgroundImageFix" result="effect1_dropShadow"/><feBlend in="SourceGraphic" in2="effect1_dropShadow" result="shape"/></filter><linearGradient id="b" x1="5.761" y1="12.584" x2="25.389" y2="14.646" gradientUnits="userSpaceOnUse"><stop stop-color="#2CCF5E"/><stop offset="1" stop-color="#0FCF4A"/></linearGradient></defs></svg>