<svg width="49" height="56" viewBox="0 0 49 56" fill="none" xmlns="http://www.w3.org/2000/svg"><path d="M45.9 19.791h-1.329v-6.41c0-.04-.006-.08-.011-.121a1.063 1.063 0 0 0-.258-.703L33.634.371c-.003-.003-.006-.004-.008-.008a1.059 1.059 0 0 0-.287-.223 1.138 1.138 0 0 0-.214-.09c-.02-.005-.038-.014-.059-.02a1.09 1.09 0 0 0-.248-.03H6.599A2.172 2.172 0 0 0 4.43 2.17v17.62H3.102A3.101 3.101 0 0 0 0 22.893V39.02a3.102 3.102 0 0 0 3.101 3.102H4.43v11.04c0 1.196.972 2.17 2.17 2.17h35.8c1.197 0 2.17-.974 2.17-2.17V42.12h1.33c1.712 0 3.1-1.39 3.1-3.101V22.892a3.101 3.101 0 0 0-3.1-3.1zM6.6 2.171h25.133v11.1c0 .6.486 1.085 1.085 1.085h9.584v5.436H6.599V2.17zm27.326 31.72c.791 0 1.67-.17 2.186-.379l.396 2.05c-.482.239-1.565.498-2.977.498-4.01 0-6.075-2.495-6.075-5.8 0-3.958 2.822-6.16 6.333-6.16 1.36 0 2.393.276 2.857.516l-.533 2.083a5.648 5.648 0 0 0-2.203-.43c-2.083 0-3.7 1.256-3.7 3.837 0 2.322 1.376 3.786 3.716 3.786zm-7.66-3.922c0 3.803-2.306 6.109-5.695 6.109-3.443 0-5.456-2.6-5.456-5.903 0-3.477 2.22-6.076 5.645-6.076 3.563 0 5.507 2.668 5.507 5.87zM3.67 35.837V24.444c.964-.155 2.22-.24 3.545-.24 2.203 0 3.631.395 4.749 1.239 1.205.894 1.963 2.323 1.963 4.37 0 2.22-.809 3.753-1.928 4.699-1.222 1.015-3.08 1.497-5.353 1.497-1.358 0-2.322-.087-2.976-.172zm38.733 16.736H6.599V42.121h35.802v10.452zm1.989-16.685l-1.05-2.1c-.43-.808-.706-1.411-1.033-2.082h-.035c-.24.672-.533 1.274-.894 2.082l-.964 2.1H37.42l3.356-5.87-3.234-5.73h3.012l1.015 2.118c.344.704.602 1.273.877 1.927h.034c.275-.74.5-1.256.791-1.927l.981-2.118h2.996l-3.27 5.662 3.441 5.938h-3.028z" fill="#fff"/></svg>