<svg width="30" height="33" viewBox="0 0 30 33" fill="none" xmlns="http://www.w3.org/2000/svg"><path d="M16.607 17.15a4.827 4.827 0 0 1-4.822-4.821 4.827 4.827 0 0 1 4.822-4.822 4.827 4.827 0 0 1 4.821 4.822 4.827 4.827 0 0 1-4.821 4.821z" fill="url(#a)"/><path d="M6.965 27.321a1.61 1.61 0 0 0-1.608 1.608 1.61 1.61 0 0 0 1.608 1.607 1.61 1.61 0 0 0 1.607-1.607 1.61 1.61 0 0 0-1.607-1.608zm0 2.143a.536.536 0 1 1 0-1.072.536.536 0 0 1 0 1.072zm16.07-2.143a1.61 1.61 0 0 0-1.607 1.608 1.61 1.61 0 0 0 1.607 1.607 1.61 1.61 0 0 0 1.607-1.607 1.61 1.61 0 0 0-1.607-1.608zm0 2.143a.536.536 0 1 1 0-1.072.536.536 0 0 1 0 1.072z" fill="#333"/><path d="M27.241 21.996a1.611 1.611 0 0 0-1.527-1.103h-1.7a4.23 4.23 0 0 0-2.799 1.071h-3v-.774c0-1.05-.855-1.904-1.905-1.904-.665 0-1.29.354-1.633.924l-1.052 1.754h-1.329a.485.485 0 0 1-.413-.224.484.484 0 0 1-.037-.468l1.078-2.423a1.589 1.589 0 1 0-2.686-1.646l-3.051 3.762-4.674 1.437A3.542 3.542 0 0 0 0 25.805v1.9c0 .97.79 1.76 1.759 1.76h1.498a3.753 3.753 0 0 0 3.707 3.213c1.886 0 3.446-1.4 3.707-3.214h8.657a3.753 3.753 0 0 0 3.708 3.214c1.885 0 3.445-1.4 3.707-3.214h.043A3.218 3.218 0 0 0 30 26.25v-1.072a3.22 3.22 0 0 0-2.759-3.182zm-11.645-1.234a.833.833 0 0 1 1.547.428v.774h-2.268l.721-1.202zM6.964 31.607a2.682 2.682 0 0 1-2.678-2.678 2.682 2.682 0 0 1 2.678-2.679 2.682 2.682 0 0 1 2.679 2.678 2.682 2.682 0 0 1-2.679 2.68zm16.072 0a2.682 2.682 0 0 1-2.679-2.678 2.682 2.682 0 0 1 2.679-2.679 2.682 2.682 0 0 1 2.678 2.678 2.681 2.681 0 0 1-2.678 2.68zm5.892-5.357a2.145 2.145 0 0 1-2.142 2.143h-.043a3.753 3.753 0 0 0-3.707-3.215 3.753 3.753 0 0 0-3.708 3.215h-8.656a3.753 3.753 0 0 0-3.708-3.215 3.753 3.753 0 0 0-3.707 3.215H1.76a.688.688 0 0 1-.688-.688v-.92h1.34a1.34 1.34 0 0 0 0-2.678h-.268v1.072h.268a.269.269 0 0 1 0 .536H1.079a2.47 2.47 0 0 1 1.75-2.288l4.985-1.534 3.256-4.015a.518.518 0 0 1 .874.536l-1.077 2.423a1.559 1.559 0 0 0 .118 1.487c.29.446.78.712 1.311.712h9.354l.157-.157a3.144 3.144 0 0 1 2.208-.915h1.7c.295 0 .535.24.535.536v.536h.536c1.181 0 2.142.96 2.142 2.143v1.07zM17.143 13.928h-1.071c-.296 0-.536 0-.536-.535h-1.071c0 1.071.72 1.614 1.607 1.614v.529h1.072v-.528c.886 0 1.607-.725 1.607-1.611s-.721-1.611-1.608-1.611h-1.071a.536.536 0 0 1 0-1.072h1.072c.295 0 .535 0 .535.536h1.072c0-1.072-.721-1.6-1.608-1.6v-.543h-1.071v.543c-.886 0-1.607.718-1.607 1.604 0 .886.72 1.603 1.607 1.603h1.072a.536.536 0 0 1 0 1.072zm.001-11.25h-1.072v3.75h1.072v-3.75zm0-2.135h-1.072v1.072h1.072V.543zm3.213 1.6h-1.072V7.5h1.072V2.143zm0-2.143h-1.072v1.071h1.072V0zm-6.428 3.75h-1.072V7.5h1.072V3.75zm0-2.135h-1.072v1.071h1.072V1.615z" fill="#333"/><defs><linearGradient id="a" x1="12.117" y1="8.472" x2="22.216" y2="9.04" gradientUnits="userSpaceOnUse"><stop stop-color="#2CCF5E"/><stop offset="1" stop-color="#0FCF4A"/></linearGradient></defs></svg>