<svg width="30" height="31" viewBox="0 0 30 31" fill="none" xmlns="http://www.w3.org/2000/svg"><path d="M17.285 4.55A.961.961 0 0 1 16.451 6a.962.962 0 0 1-.834-1.452H5.322v8.71h15.484V4.55h-3.521zm-7.608 6.29a.967.967 0 1 1 0-1.935.967.967 0 0 1 0 1.935z" fill="url(#a)"/><path d="M20.806 14.71H5.322v.969h15.484v-.968z" fill="#333"/><path d="M28.548.678c-.8 0-1.451.652-1.451 1.452 0 .234.06.451.159.647l-4.03 4.366V.678H2.903v10.877L0 13.588v17.09h26.129v-17.09l-2.903-2.032V8.569L27.95 3.45c.183.083.384.132.597.132.8 0 1.452-.652 1.452-1.452 0-.8-.651-1.452-1.452-1.452zm-17.75 21.706l-9.83 6.881V14.823l9.83 7.561zm2.267-1.587l-1.436 1.005-1.67-1.285h6.212l-1.67 1.285-1.436-1.005zM8.71 19.55v.008l-1.897-1.46h12.503l-1.897 1.46v-.008H8.71zm4.355 2.43l11.045 7.732H2.02l11.046-7.732zm2.266.405l9.83-7.562v14.443l-9.83-6.881zm6.927-20.738v6.545l-.064.07c-.249-.2-.56-.325-.904-.325-.24 0-.463.065-.663.168l-2.847-2.49a1.43 1.43 0 0 0 .123-.58c0-.8-.651-1.452-1.451-1.452S15 4.233 15 5.033c0 .08.011.157.024.233l-4.397 3.517a1.438 1.438 0 0 0-.95-.363c-.8 0-1.451.652-1.451 1.452 0 .8.651 1.452 1.451 1.452s1.452-.652 1.452-1.452c0-.08-.011-.156-.024-.233l4.397-3.517c.255.223.585.363.95.363.24 0 .463-.064.663-.168l2.847 2.491a1.436 1.436 0 0 0-.123.58c0 .8.651 1.452 1.452 1.452.373 0 .71-.146.967-.378v5.373l-1.684 1.295H5.555l-1.684-1.295V1.646h18.387zm-.968 7.258a.485.485 0 1 1-.001.97.485.485 0 0 1 .001-.97zm-4.838-3.387a.485.485 0 1 1 .001-.97.485.485 0 0 1-.001.97zm-6.29 4.355a.485.485 0 1 1-.97-.001.485.485 0 0 1 .97.001zm-7.259 5.219l-1.602-1.233 1.602-1.121v2.354zm21.925-1.233l-1.602 1.232v-2.353l1.602 1.121zm3.72-11.244a.485.485 0 1 1 .002-.97.485.485 0 0 1-.002.97z" fill="#333"/><defs><linearGradient id="a" x1="5.855" y1="5.42" x2="21.961" y2="7.031" gradientUnits="userSpaceOnUse"><stop stop-color="#2CCF5E"/><stop offset="1" stop-color="#0FCF4A"/></linearGradient></defs></svg>