<svg width="30" height="24" viewBox="0 0 30 24" fill="none" xmlns="http://www.w3.org/2000/svg"><path d="M26.613 22.453a.484.484 0 0 1-.484.484H1.452a.484.484 0 0 1-.484-.484V8.42h25.645v6.29h.968V5.034c0-.8-.652-1.451-1.452-1.451h-1.936V2.13c0-.8-.65-1.452-1.451-1.452-.8 0-1.452.652-1.452 1.452v1.452h-15V2.13c0-.8-.65-1.452-1.451-1.452-.8 0-1.452.652-1.452 1.452v1.452H1.452C.652 3.582 0 4.233 0 5.033v17.42c0 .8.651 1.451 1.452 1.451h24.677c.8 0 1.452-.651 1.452-1.451v-.968h-.968v.968zM22.258 2.13a.484.484 0 0 1 .968 0v1.936a.484.484 0 0 1-.968 0V2.13zm-17.903 0a.484.484 0 0 1 .968 0v1.936a.484.484 0 0 1-.968 0V2.13zM1.452 4.55h2.024c.2.561.733.967 1.363.967A1.45 1.45 0 0 0 6.2 4.55h15.18c.2.561.732.967 1.362.967a1.45 1.45 0 0 0 1.363-.967h2.024c.267 0 .484.217.484.483v2.42H.968v-2.42c0-.266.217-.483.484-.483z" fill="#333"/><path d="M25.886 21.969a4.118 4.118 0 0 1-4.113-4.113 4.118 4.118 0 0 1 4.113-4.113A4.118 4.118 0 0 1 30 17.856a4.118 4.118 0 0 1-4.113 4.113z" fill="url(#a)"/><path d="M23.979 17.695l-.538.805 1.817 1.212 4.633-5.663-.75-.612-4.076 4.983-1.087-.725zM5.807 9.872H2.42v2.903h3.387V9.872zm-.968 1.935H3.388v-.967h1.451v.967zm5.806-1.935H7.258v2.903h3.387V9.872zm-.968 1.935H8.226v-.967h1.451v.967zm5.808-1.935h-3.387v2.903h3.387V9.872zm-.968 1.935h-1.452v-.967h1.452v.967zm5.806-1.935h-3.387v2.903h3.387V9.872zm-.968 1.935h-1.452v-.967h1.452v.967zm5.805-1.935h-3.387v2.903h3.388V9.872zm-.967 1.935H22.74v-.967h1.452v.967zm-18.386 2.42H2.42v2.903h3.387v-2.903zm-.968 1.935H3.388v-.967h1.451v.967zm5.806-1.935H7.258v2.903h3.387v-2.903zm-.968 1.935H8.226v-.967h1.451v.967zm5.808-1.935h-3.387v2.903h3.387v-2.903zm-.968 1.935h-1.452v-.967h1.452v.967zm5.806-1.935h-3.387v2.903h3.387v-2.903zm-.968 1.935h-1.452v-.967h1.452v.967zM2.42 21.485h3.387v-2.903H2.42v2.903zm.968-1.936h1.451v.968H3.388v-.968zm3.87 1.936h3.387v-2.903H7.258v2.903zm.968-1.936h1.451v.968H8.226v-.968zm3.872 1.936h3.387v-2.903h-3.387v2.903zm.967-1.936h1.452v.968h-1.451v-.968zm3.871 1.936h3.387v-2.903h-3.387v2.903zm.967-1.936h1.452v.968h-1.452v-.968z" fill="#333"/><defs><linearGradient id="a" x1="22.056" y1="14.566" x2="30.671" y2="15.05" gradientUnits="userSpaceOnUse"><stop stop-color="#2CCF5E"/><stop offset="1" stop-color="#0FCF4A"/></linearGradient></defs></svg>