<svg width="30" height="31" viewBox="0 0 30 31" fill="none" xmlns="http://www.w3.org/2000/svg"><path d="M17.42 10.356h-4.84V7.569a3.876 3.876 0 0 1-1.451-3.02 3.875 3.875 0 0 1 3.87-3.87 3.875 3.875 0 0 1 3.872 3.87 3.875 3.875 0 0 1-1.452 3.02v2.787z" fill="url(#a)"/><path d="M17.902 7.936h-2.42V5.912c.563-.2.969-.733.969-1.363 0-.8-.652-1.451-1.452-1.451-.8 0-1.452.651-1.452 1.451 0 .63.406 1.163.968 1.363v2.024h-2.42v.968h5.807v-.968zM15 4.066a.484.484 0 1 1 0 .968.484.484 0 0 1 0-.969zm4.255 17.496l-.525.814a5.555 5.555 0 0 1 2.56 4.684v2.65h-6.012l3.527-6.046-.836-.487L15 28.267l-2.969-5.09-.836.487 3.528 6.047H8.71V27.06c0-1.9.957-3.651 2.56-4.685l-.524-.814a6.521 6.521 0 0 0-3.004 5.499v3.619h14.516v-3.62a6.52 6.52 0 0 0-3.003-5.497z" fill="#333"/><path d="M9.633 17.15a5.348 5.348 0 0 0 5.342 5.341 5.348 5.348 0 0 0 5.342-5.341 5.348 5.348 0 0 0-5.342-5.342 5.348 5.348 0 0 0-5.342 5.341zm9.716 0a4.38 4.38 0 0 1-4.374 4.374 4.38 4.38 0 0 1-4.374-4.375 4.38 4.38 0 0 1 4.374-4.374 4.38 4.38 0 0 1 4.374 4.374z" fill="#333"/><path d="M8.438 18.932c-.4.114-.806.172-1.205.172a4.38 4.38 0 0 1-4.374-4.374 4.38 4.38 0 0 1 4.374-4.374 4.36 4.36 0 0 1 3.386 1.607l.75-.613a5.327 5.327 0 0 0-4.136-1.962A5.348 5.348 0 0 0 1.89 14.73a5.348 5.348 0 0 0 5.342 5.342c.489 0 .983-.07 1.47-.21l-.265-.93zM.968 24.64c0-1.9.957-3.65 2.56-4.684l-.525-.814A6.522 6.522 0 0 0 0 24.64v3.619h6.29v-.968H.968v-2.65zm27.09-9.91a5.348 5.348 0 0 0-5.342-5.342 5.327 5.327 0 0 0-4.136 1.962l.75.613a4.36 4.36 0 0 1 3.386-1.607 4.38 4.38 0 0 1 4.374 4.374 4.38 4.38 0 0 1-4.374 4.374c-.4 0-.805-.058-1.205-.172l-.267.93c.487.14.982.21 1.472.21a5.349 5.349 0 0 0 5.342-5.342zm-1.061 4.413l-.524.813a5.555 5.555 0 0 1 2.56 4.684v2.651h-5.806v.968H30V24.64a6.52 6.52 0 0 0-3.004-5.497z" fill="#333"/><defs><linearGradient id="a" x1="11.395" y1="1.646" x2="19.512" y2="2.011" gradientUnits="userSpaceOnUse"><stop stop-color="#2CCF5E"/><stop offset="1" stop-color="#0FCF4A"/></linearGradient></defs></svg>