<svg width="30" height="30" viewBox="0 0 30 30" fill="none" xmlns="http://www.w3.org/2000/svg"><path d="M17.285 3.871a.961.961 0 0 1-.834 1.452.962.962 0 0 1-.834-1.452H5.322v8.71h15.484V3.87h-3.521zm-7.608 6.29a.967.967 0 1 1 0-1.934.967.967 0 0 1 0 1.934z" fill="url(#a)"/><path d="M20.806 14.032H5.322V15h15.484v-.968z" fill="#333"/><path d="M28.548 0c-.8 0-1.451.651-1.451 1.452 0 .233.06.45.159.647l-4.03 4.365V0H2.903v10.877L0 12.909V30h26.129V12.91l-2.903-2.033V7.891l4.725-5.12c.183.083.384.132.597.132.8 0 1.452-.651 1.452-1.451S29.349 0 28.548 0zm-17.75 21.706l-9.83 6.88V14.145l9.83 7.562zm2.267-1.587l-1.436 1.005-1.67-1.285h6.212l-1.67 1.285-1.436-1.005zM8.71 18.87v.007L6.813 17.42h12.503l-1.897 1.46v-.008H8.71zm4.355 2.43l11.045 7.731H2.02L13.065 21.3zm2.266.405l9.83-7.562v14.443l-9.83-6.881zM22.258.968v6.545l-.064.07c-.249-.2-.56-.325-.904-.325-.24 0-.463.064-.663.168L17.78 4.935c.079-.178.123-.374.123-.58 0-.8-.651-1.452-1.451-1.452S15 3.555 15 4.355c0 .08.011.156.024.233l-4.397 3.517a1.438 1.438 0 0 0-.95-.363c-.8 0-1.451.651-1.451 1.452 0 .8.651 1.451 1.451 1.451s1.452-.651 1.452-1.451c0-.08-.011-.157-.024-.233l4.397-3.517c.255.223.585.363.95.363.24 0 .463-.065.663-.168l2.847 2.49a1.436 1.436 0 0 0-.123.58c0 .801.651 1.452 1.452 1.452.373 0 .71-.145.967-.377v5.372l-1.684 1.296H5.555l-1.684-1.296V.968h18.387zm-.968 7.258a.485.485 0 1 1-.001.97.485.485 0 0 1 .001-.97zm-4.838-3.387a.485.485 0 1 1 .001-.97.485.485 0 0 1-.001.97zm-6.29 4.355a.485.485 0 1 1-.97-.002.485.485 0 0 1 .97.002zm-7.259 5.218L1.301 13.18l1.602-1.121v2.353zm21.925-1.232l-1.602 1.232v-2.354l1.602 1.122zm3.72-11.245a.485.485 0 1 1 .002-.969.485.485 0 0 1-.002.97z" fill="#333"/><defs><linearGradient id="a" x1="5.855" y1="4.742" x2="21.961" y2="6.353" gradientUnits="userSpaceOnUse"><stop stop-color="#2CCF5E"/><stop offset="1" stop-color="#0FCF4A"/></linearGradient></defs></svg>