<svg width="33" height="30" viewBox="0 0 33 30" fill="none" xmlns="http://www.w3.org/2000/svg"><path d="M30.98 5.62l.076-.212h.878a.636.636 0 1 0 0-1.271h-1.326c-.102 0-.2.024-.287.068l-.554-2.258A2.552 2.552 0 0 0 27.284 0H20.92c-1.18 0-2.201.8-2.483 1.947l-.555 2.258a.634.634 0 0 0-.286-.068H16.27a.636.636 0 1 0 0 1.27h.878l.075.213a2.44 2.44 0 0 0-1.588 2.284v.2h-2.349a1.654 1.654 0 0 0-1.457-.874H6.872c-.63 0-1.178.354-1.457.874H2.034A2.036 2.036 0 0 0 0 10.138v17.828C0 29.088.912 30 2.034 30h14.634a2.036 2.036 0 0 0 2.034-2.034V15.272c.077.013.156.02.236.02h.97c.827 0 1.5-.674 1.5-1.502v-1.2h5.388v1.2c0 .828.674 1.501 1.501 1.501h.97c.827 0 1.5-.673 1.5-1.501v-1.2h1.167a.636.636 0 0 0 .635-.635v-4.05A2.44 2.44 0 0 0 30.98 5.62zM19.672 2.25a1.285 1.285 0 0 1 1.25-.979h6.361c.594 0 1.108.403 1.25.98l.79 3.217h-10.44l.79-3.218zm-12.8 6.251h4.958c.21 0 .381.171.381.381v1.462c0 .21-.17.382-.381.382H6.872a.382.382 0 0 1-.381-.382V8.882c0-.21.171-.381.381-.381zm10.56 19.465c0 .42-.343.763-.764.763H2.034a.764.764 0 0 1-.763-.763V10.138c0-.42.342-.763.763-.763H5.22v.97c0 .91.741 1.652 1.652 1.652h4.958c.911 0 1.652-.742 1.652-1.653v-.969h3.186c.421 0 .763.342.763.763v17.828zm2.706-14.176a.23.23 0 0 1-.23.23h-.97a.23.23 0 0 1-.23-.23v-1.2h1.43v1.2zm9.358 0a.23.23 0 0 1-.23.23h-.969a.23.23 0 0 1-.23-.23v-1.2h1.43v1.2zm1.802-2.47H18.703v-1.182a2.038 2.038 0 0 0-1.796-2.02v-.214c0-.641.521-1.164 1.163-1.165h12.065a1.166 1.166 0 0 1 1.163 1.165v3.415z" fill="#333"/><path d="M20.423 8.394a.64.64 0 0 0-.636.636.64.64 0 0 0 .186.449.64.64 0 0 0 .45.186.64.64 0 0 0 .45-.186.64.64 0 0 0 .185-.45.64.64 0 0 0-.635-.635zm7.357 0a.639.639 0 0 0-.636.635.638.638 0 0 0 .636.636c.167 0 .33-.068.45-.186a.64.64 0 0 0 .186-.45.64.64 0 0 0-.636-.635zm-2.542.017h-2.272a.636.636 0 1 0 0 1.271h2.272a.636.636 0 1 0 0-1.27z" fill="#333"/><path d="M5.997 18.904l-1.33 1.33-.478-.478a.636.636 0 0 0-.9.9l.928.927a.634.634 0 0 0 .9 0l1.779-1.78a.636.636 0 0 0-.899-.899z" fill="url(#a)"/><path d="M14.898 19.957H9.516a.636.636 0 0 0 0 1.272h5.382a.636.636 0 1 0 0-1.271z" fill="#333"/><path d="M5.997 13.82l-1.33 1.33-.478-.479a.636.636 0 0 0-.9.9l.928.927a.634.634 0 0 0 .9 0l1.779-1.78a.636.636 0 0 0-.899-.899z" fill="url(#b)"/><path d="M14.897 14.873a.64.64 0 0 0-.45.186.64.64 0 0 0-.185.45.64.64 0 0 0 .186.449.64.64 0 0 0 .45.186.64.64 0 0 0 .635-.636.64.64 0 0 0-.636-.636zm-5.381 1.271h2.84a.636.636 0 0 0 0-1.271h-2.84a.636.636 0 0 0 0 1.271z" fill="#333"/><path d="M5.997 23.99l-1.33 1.33-.478-.479a.636.636 0 0 0-.9.899l.928.928a.634.634 0 0 0 .9 0l1.779-1.78a.636.636 0 0 0-.899-.899z" fill="url(#c)"/><path d="M14.898 25.042H9.516a.636.636 0 0 0 0 1.271h5.382a.636.636 0 1 0 0-1.27z" fill="#333"/><defs><linearGradient id="a" x1="3.24" y1="19.023" x2="7.398" y2="19.328" gradientUnits="userSpaceOnUse"><stop stop-color="#2CCF5E"/><stop offset="1" stop-color="#0FCF4A"/></linearGradient><linearGradient id="b" x1="3.24" y1="13.938" x2="7.398" y2="14.243" gradientUnits="userSpaceOnUse"><stop stop-color="#2CCF5E"/><stop offset="1" stop-color="#0FCF4A"/></linearGradient><linearGradient id="c" x1="3.24" y1="24.108" x2="7.398" y2="24.413" gradientUnits="userSpaceOnUse"><stop stop-color="#2CCF5E"/><stop offset="1" stop-color="#0FCF4A"/></linearGradient></defs></svg>