<svg width="30" height="24" viewBox="0 0 30 24" fill="none" xmlns="http://www.w3.org/2000/svg"><path d="M26.613 21.774a.484.484 0 0 1-.484.484H1.452a.484.484 0 0 1-.484-.484V7.742h25.645v6.29h.968V4.355c0-.8-.652-1.452-1.452-1.452h-1.936V1.452c0-.8-.65-1.452-1.451-1.452-.8 0-1.452.651-1.452 1.452v1.451h-15V1.452C6.29.652 5.64 0 4.84 0c-.8 0-1.452.651-1.452 1.452v1.451H1.452C.652 2.903 0 3.555 0 4.355v17.42c0 .8.651 1.45 1.452 1.45h24.677c.8 0 1.452-.65 1.452-1.45v-.969h-.968v.968zM22.258 1.452a.484.484 0 0 1 .968 0v1.935a.484.484 0 0 1-.968 0V1.452zm-17.903 0a.484.484 0 0 1 .968 0v1.935a.484.484 0 0 1-.968 0V1.452zm-2.903 2.42h2.024c.2.56.733.967 1.363.967A1.45 1.45 0 0 0 6.2 3.87h15.18c.2.562.732.968 1.362.968a1.45 1.45 0 0 0 1.363-.968h2.024c.267 0 .484.217.484.484v2.42H.968v-2.42c0-.267.217-.484.484-.484z" fill="#333"/><path d="M25.886 21.29a4.118 4.118 0 0 1-4.113-4.113 4.117 4.117 0 0 1 4.113-4.112A4.117 4.117 0 0 1 30 17.177a4.118 4.118 0 0 1-4.113 4.113z" fill="url(#a)"/><path d="M23.979 17.017l-.538.805 1.817 1.211 4.633-5.662-.75-.613-4.076 4.983-1.087-.724zM5.807 9.194H2.42v2.903h3.387V9.194zm-.968 1.935H3.388v-.968h1.451v.968zm5.806-1.935H7.258v2.903h3.387V9.194zm-.968 1.935H8.226v-.968h1.451v.968zm5.808-1.935h-3.387v2.903h3.387V9.194zm-.968 1.935h-1.452v-.968h1.452v.968zm5.806-1.935h-3.387v2.903h3.387V9.194zm-.968 1.935h-1.452v-.968h1.452v.968zm5.805-1.935h-3.387v2.903h3.388V9.194zm-.967 1.935H22.74v-.968h1.452v.968zM5.807 13.548H2.42v2.904h3.387v-2.904zm-.968 1.936H3.388v-.968h1.451v.968zm5.806-1.936H7.258v2.904h3.387v-2.904zm-.968 1.936H8.226v-.968h1.451v.968zm5.808-1.936h-3.387v2.904h3.387v-2.904zm-.968 1.936h-1.452v-.968h1.452v.968zm5.806-1.936h-3.387v2.904h3.387v-2.904zm-.968 1.936h-1.452v-.968h1.452v.968zM2.42 20.806h3.387v-2.903H2.42v2.904zm.968-1.935h1.451v.968H3.388v-.968zm3.87 1.935h3.387v-2.903H7.258v2.904zm.968-1.935h1.451v.968H8.226v-.968zm3.872 1.935h3.387v-2.903h-3.387v2.904zm.967-1.935h1.452v.968h-1.451v-.968zm3.871 1.935h3.387v-2.903h-3.387v2.904zm.967-1.935h1.452v.968h-1.452v-.968z" fill="#333"/><defs><linearGradient id="a" x1="22.056" y1="13.887" x2="30.671" y2="14.372" gradientUnits="userSpaceOnUse"><stop stop-color="#2CCF5E"/><stop offset="1" stop-color="#0FCF4A"/></linearGradient></defs></svg>