<svg width="17" height="25" viewBox="0 0 17 25" fill="none" xmlns="http://www.w3.org/2000/svg"><path d="M8.333 0C3.738 0 0 3.738 0 8.333c0 1.38.345 2.747 1 3.96l6.878 12.438a.52.52 0 0 0 .911 0l6.88-12.442a8.348 8.348 0 0 0 .998-3.956C16.667 3.738 12.928 0 8.333 0zm0 12.5a4.171 4.171 0 0 1-4.166-4.167 4.171 4.171 0 0 1 4.166-4.166A4.171 4.171 0 0 1 12.5 8.333 4.171 4.171 0 0 1 8.333 12.5z" fill="url(#a)"/><defs><linearGradient id="a" x1=".573" y1="2.5" x2="18.059" y2="3.156" gradientUnits="userSpaceOnUse"><stop stop-color="#2CCF5E"/><stop offset="1" stop-color="#0FCF4A"/></linearGradient></defs></svg>