<svg width="196" height="42" viewBox="0 0 196 42" fill="none" xmlns="http://www.w3.org/2000/svg"><path d="M29.179 11.096a13.944 13.944 0 0 1 6.087-1.389c7.732 0 14 6.268 14 14s-6.268 14-14 14c-6.523 0-12.005-4.461-13.559-10.5" stroke="#27A04C" stroke-width="7" stroke-linecap="round" filter="url(#a)"/><path fill-rule="evenodd" clip-rule="evenodd" d="M4.502 16.796a9 9 0 1 1 13.117-5.19c2.073 1.573 4.362 3.839 6.435 6.086-2.983-.672-6.09-1.52-8.488-2.53A9.004 9.004 0 0 1 4.5 16.796zm27 2.316a124.392 124.392 0 0 1-7.448-1.42 124.37 124.37 0 0 1 4.954 5.74 6.001 6.001 0 1 0 2.494-4.32z" fill="url(#b)" filter="url(#c)"/><path d="M80.252 21.707h-2.55l-2.58-7.17c-.02-.07-.07-.105-.15-.105-.07 0-.115.035-.135.105l-2.58 7.17h-2.55l3.78-10.515h2.985l3.78 10.515zm17.286-8.94c.29.52.46 1.08.51 1.68.05.59.075 1.215.075 1.875v1.02h-.015c-.02.45-.07.885-.15 1.305-.07.42-.21.82-.42 1.2-.37.65-.9 1.12-1.59 1.41-.62.29-1.44.435-2.46.435-1 0-1.82-.145-2.46-.435-.68-.3-1.205-.77-1.575-1.41a4.11 4.11 0 0 1-.51-1.68c-.05-.6-.075-1.225-.075-1.875v-1.02h.015c.02-.45.065-.885.135-1.305.07-.42.215-.82.435-1.2.37-.64.895-1.11 1.575-1.41.64-.29 1.46-.435 2.46-.435 1.02 0 1.84.145 2.46.435.69.29 1.22.76 1.59 1.41zm-1.845 3.555c0-.48-.01-.93-.03-1.35-.02-.43-.1-.765-.24-1.005a.644.644 0 0 0-.12-.15c-.05-.07-.145-.135-.285-.195a2.4 2.4 0 0 0-.57-.18 4.9 4.9 0 0 0-.96-.075c-.39 0-.71.025-.96.075a2.4 2.4 0 0 0-.57.18.83.83 0 0 0-.285.195.839.839 0 0 0-.105.15c-.14.24-.22.565-.24.975-.02.41-.03.85-.03 1.32v.03c0 .48.01.935.03 1.365.02.42.1.75.24.99l.105.15a1 1 0 0 0 .285.21c.14.06.33.115.57.165.25.05.57.075.96.075.4 0 .72-.025.96-.075.24-.05.43-.105.57-.165.14-.07.235-.14.285-.21.06-.07.1-.12.12-.15.14-.24.22-.565.24-.975.02-.41.03-.855.03-1.335v-.015zm21.644-5.115v10.515h-2.4v-4.38c0-.03-.02-.05-.06-.06-.03-.01-.055 0-.075.03l-1.335 2.79h-1.875l-1.35-2.775c-.02-.04-.045-.055-.075-.045-.03.01-.045.035-.045.075v4.365h-2.4V11.207h2.235l2.505 5.19c.02.02.04.03.06.03.03 0 .05-.01.06-.03l2.505-5.19h2.25zm15.329 4.035c.44 0 .855.085 1.245.255.4.17.745.4 1.035.69.3.29.535.63.705 1.02.17.39.255.81.255 1.26 0 .44-.085.86-.255 1.26-.16.39-.39.735-.69 1.035-.29.29-.63.52-1.02.69-.39.17-.805.255-1.245.255h-5.505V11.222h7.89v2.445h-5.355c-.09 0-.135.05-.135.15v1.29c0 .09.045.135.135.135h2.94zm-2.94 2.4c-.09 0-.135.05-.135.15v1.365c0 .09.045.135.135.135h2.97a.796.796 0 0 0 .81-.84c0-.23-.08-.42-.24-.57a.796.796 0 0 0-.585-.24h-2.955zm25.93 4.08h-2.55l-.39-1.065c-.02-.07-.065-.105-.135-.105h-4.53c-.06 0-.105.035-.135.105l-.375 1.065h-2.55l3.78-10.515h3.105l3.78 10.515zm-6.765-3.765a.13.13 0 0 0 .015.135c.03.04.07.06.12.06h2.595c.13 0 .175-.065.135-.195l-1.29-3.6c-.03-.07-.08-.105-.15-.105-.07 0-.115.035-.135.105l-1.29 3.6zm21.092-6.72c.63 0 1.22.12 1.77.36.56.24 1.045.565 1.455.975.42.41.75.895.99 1.455.24.55.36 1.14.36 1.77 0 .56-.11 1.11-.33 1.65a4.902 4.902 0 0 1-.915 1.455c-.44.48-.945.845-1.515 1.095a4.47 4.47 0 0 1-1.815.375h-2.67v1.35h-2.385V11.237h5.055zm-.015 6.735c.3 0 .58-.055.84-.165.27-.11.505-.26.705-.45.2-.2.355-.43.465-.69.12-.27.18-.555.18-.855 0-.3-.06-.58-.18-.84a2.113 2.113 0 0 0-.465-.705c-.19-.2-.42-.355-.69-.465a1.98 1.98 0 0 0-.84-.18h-2.505c-.11 0-.165.055-.165.165v4.035c0 .1.055.15.165.15h2.49zm24.129 1.35c.1 0 .15.045.15.135v3.075h-2.4v-.735c0-.06-.025-.09-.075-.09h-5.595c-.06 0-.09.03-.09.09v.735h-2.385v-3.075c0-.09.05-.135.15-.135h1.125l2.895-8.07h3.12l2.505 8.07h.6zm-6.51-.195a.13.13 0 0 0 .015.135c.03.04.07.06.12.06h3.075c.12 0 .17-.065.15-.195l-1.425-4.65c-.02-.07-.065-.105-.135-.105s-.115.035-.135.105l-1.665 4.65zm-113.5 12.33l4.56 5.265h-3.165l-3.06-3.54c-.05-.05-.105-.06-.165-.03-.06.02-.09.065-.09.135v3.435h-2.46V26.207h2.46v3.435c0 .07.03.115.09.135.06.02.115.005.165-.045l3.06-3.525h3.165l-4.56 5.25zm24.264 5.265h-2.55l-.39-1.065c-.02-.07-.065-.105-.135-.105h-4.53c-.06 0-.105.035-.135.105l-.375 1.065h-2.55l3.78-10.515h3.105l3.78 10.515zm-6.765-3.765a.13.13 0 0 0 .015.135c.03.04.07.06.12.06h2.595c.13 0 .175-.065.135-.195l-1.29-3.6c-.03-.07-.08-.105-.15-.105-.07 0-.115.035-.135.105l-1.29 3.6zm26.249 3.75h-2.55l-2.58-7.17c-.02-.07-.07-.105-.15-.105-.07 0-.115.035-.135.105l-2.58 7.17h-2.55l3.78-10.515h2.985l3.78 10.515zm12.089-10.5v5.49c0 .02.005.035.015.045.01 0 .02-.01.03-.03l3.72-5.505h2.175v10.515h-2.4v-5.805c0-.02-.005-.03-.015-.03-.01-.01-.02-.005-.03.015l-3.765 5.82h-2.13V26.207h2.4zm15.944 0h8.79v10.485h-2.415v-8.085h-3.975v8.085h-2.4V26.207zm28.008 9.015l-.345.27c-1.02.79-2.19 1.185-3.51 1.185-.73 0-1.43-.13-2.1-.39a5.497 5.497 0 0 1-1.77-1.125 5.363 5.363 0 0 1-1.245-1.755 5.127 5.127 0 0 1-.435-2.085c0-.73.145-1.42.435-2.07.29-.66.705-1.245 1.245-1.755.52-.5 1.11-.88 1.77-1.14.67-.26 1.37-.39 2.1-.39 1.31 0 2.475.395 3.495 1.185l.345.255-.84 2.52-.675-.63c-.31-.29-.665-.51-1.065-.66a3.48 3.48 0 0 0-1.26-.225 3.4 3.4 0 0 0-1.275.24c-.39.15-.74.37-1.05.66-.6.57-.9 1.24-.9 2.01 0 .38.075.745.225 1.095.16.34.385.645.675.915.31.29.66.515 1.05.675.4.15.825.225 1.275.225.45 0 .875-.075 1.275-.225.4-.16.755-.385 1.065-.675l.675-.63.84 2.52zm18.465-7.455c.29.52.46 1.08.51 1.68.05.59.075 1.215.075 1.875v1.02h-.015c-.02.45-.07.885-.15 1.305-.07.42-.21.82-.42 1.2-.37.65-.9 1.12-1.59 1.41-.62.29-1.44.435-2.46.435-1 0-1.82-.145-2.46-.435-.68-.3-1.205-.77-1.575-1.41a4.11 4.11 0 0 1-.51-1.68c-.05-.6-.075-1.225-.075-1.875v-1.02h.015c.02-.45.065-.885.135-1.305.07-.42.215-.82.435-1.2.37-.64.895-1.11 1.575-1.41.64-.29 1.46-.435 2.46-.435 1.02 0 1.84.145 2.46.435.69.29 1.22.76 1.59 1.41zm-1.845 3.555c0-.48-.01-.93-.03-1.35-.02-.43-.1-.765-.24-1.005a.644.644 0 0 0-.12-.15c-.05-.07-.145-.135-.285-.195a2.4 2.4 0 0 0-.57-.18 4.9 4.9 0 0 0-.96-.075c-.39 0-.71.025-.96.075a2.4 2.4 0 0 0-.57.18.83.83 0 0 0-.285.195.839.839 0 0 0-.105.15c-.14.24-.22.565-.24.975-.02.41-.03.85-.03 1.32v.03c0 .48.01.935.03 1.365.02.42.1.75.24.99l.105.15a1 1 0 0 0 .285.21c.14.06.33.115.57.165.25.05.57.075.96.075.4 0 .72-.025.96-.075.24-.05.43-.105.57-.165.14-.07.235-.14.285-.21.06-.07.1-.12.12-.15.14-.24.22-.565.24-.975.02-.41.03-.855.03-1.335v-.015z" fill="#1E211E"/><defs><filter id="a" x="18.207" y="6.207" width="34.56" height="35" filterUnits="userSpaceOnUse" color-interpolation-filters="sRGB"><feFlood flood-opacity="0" result="BackgroundImageFix"/><feBlend in="SourceGraphic" in2="BackgroundImageFix" result="shape"/><feColorMatrix in="SourceAlpha" values="0 0 0 0 0 0 0 0 0 0 0 0 0 0 0 0 0 0 127 0" result="hardAlpha"/><feOffset/><feGaussianBlur stdDeviation="3.5"/><feComposite in2="hardAlpha" operator="arithmetic" k2="-1" k3="1"/><feColorMatrix values="0 0 0 0 0 0 0 0 0 0.416667 0 0 0 0 0.12741 0 0 0 1 0"/><feBlend in2="shape" result="effect1_innerShadow"/></filter><filter id="c" x="0" y="0" width="40.983" height="30.003" filterUnits="userSpaceOnUse" color-interpolation-filters="sRGB"><feFlood flood-opacity="0" result="BackgroundImageFix"/><feBlend in="SourceGraphic" in2="BackgroundImageFix" result="shape"/><feColorMatrix in="SourceAlpha" values="0 0 0 0 0 0 0 0 0 0 0 0 0 0 0 0 0 0 127 0" result="hardAlpha"/><feOffset/><feGaussianBlur stdDeviation="3.5"/><feComposite in2="hardAlpha" operator="arithmetic" k2="-1" k3="1"/><feColorMatrix values="0 0 0 0 0 0 0 0 0 0 0 0 0 0 0 0 0 0 0.25 0"/><feBlend in2="shape" result="effect1_innerShadow"/></filter><linearGradient id="b" x1="1.208" y1="4.707" x2="39.708" y2="27.207" gradientUnits="userSpaceOnUse"><stop stop-color="#21BF4D"/><stop offset="1" stop-color="#076C1D"/></linearGradient></defs></svg>