<svg width="50" height="57" viewBox="0 0 50 57" fill="none" xmlns="http://www.w3.org/2000/svg"><path d="M13.189 28.883c0-1.517-1.054-2.423-2.914-2.423-.759 0-1.273.073-1.543.146v4.874c.32.073.71.098 1.248.098 1.985 0 3.209-1.004 3.209-2.695zm11.513-2.374c-.833 0-1.37.073-1.69.146v10.8c.319.074.833.074 1.298.074 3.38.024 5.584-1.836 5.584-5.78.024-3.43-1.984-5.24-5.192-5.24z" fill="#fff"/><path d="M46.762 20.163H45.41v-6.53c0-.041-.007-.082-.012-.124a1.085 1.085 0 0 0-.262-.716L34.266.378c-.003-.003-.006-.004-.008-.008a1.098 1.098 0 0 0-.293-.227 1.14 1.14 0 0 0-.218-.092l-.06-.02A1.103 1.103 0 0 0 33.435 0H6.724c-1.22 0-2.211.992-2.211 2.21v17.953H3.16A3.16 3.16 0 0 0 0 23.323v16.43a3.16 3.16 0 0 0 3.16 3.16h1.353v11.246c0 1.219.99 2.211 2.21 2.211h36.475c1.219 0 2.21-.992 2.21-2.21V42.911h1.354a3.16 3.16 0 0 0 3.16-3.16v-16.43a3.16 3.16 0 0 0-3.16-3.159zM6.723 2.211H32.33v11.31c0 .61.495 1.105 1.105 1.105h9.764v5.538H6.723V2.211zM33.86 31.626c0 3.16-1.15 5.339-2.744 6.686-1.737 1.445-4.383 2.13-7.614 2.13-1.935 0-3.306-.122-4.237-.244V23.985c1.37-.22 3.16-.342 5.046-.342 3.132 0 5.166.564 6.758 1.763 1.713 1.274 2.791 3.306 2.791 6.22zM5.035 40.271V23.985c1.15-.194 2.767-.342 5.045-.342 2.302 0 3.943.44 5.044 1.323 1.054.832 1.762 2.204 1.762 3.82 0 1.617-.537 2.988-1.517 3.918-1.274 1.2-3.16 1.74-5.364 1.74-.489 0-.931-.025-1.272-.074v5.902H5.035zm38.163 13.29H6.723V42.912h36.475v10.649zm3.203-26.734h-6.344v3.771h5.927v3.037h-5.927v6.637h-3.745V23.765h10.09v3.062z" fill="#fff"/></svg>