<svg width="136" height="136" viewBox="0 0 136 136" fill="none" xmlns="http://www.w3.org/2000/svg"><circle opacity=".42" cx="68" cy="68" r="68" fill="url(#a)"/><circle cx="68" cy="68" r="47" fill="url(#b)"/><path d="M84.122 66.43l-27.556-16.2a1.66 1.66 0 0 0-1.712.015c-.53.324-.854.914-.854 1.555v32.4c0 .64.324 1.231.854 1.555a1.658 1.658 0 0 0 1.712.014l27.556-16.2c.54-.32.878-.917.878-1.569a1.82 1.82 0 0 0-.878-1.57z" fill="#fff"/><defs><linearGradient id="a" x1="4.675" y1="13.6" x2="147.109" y2="21.612" gradientUnits="userSpaceOnUse"><stop stop-color="#2CCF5E"/><stop offset="1" stop-color="#0FCF4A"/></linearGradient><linearGradient id="b" x1="24.231" y1="30.4" x2="122.679" y2="35.938" gradientUnits="userSpaceOnUse"><stop stop-color="#2CCF5E"/><stop offset="1" stop-color="#0FCF4A"/></linearGradient></defs></svg>