<svg width="120" height="120" viewBox="0 0 120 120" fill="none" xmlns="http://www.w3.org/2000/svg"><path d="M33.904 46.133a4.527 4.527 0 0 1-3.487-1.634l-8.252-9.9H5.767A5.774 5.774 0 0 1 0 28.834V5.767A5.774 5.774 0 0 1 5.767 0H51.9a5.774 5.774 0 0 1 5.766 5.767v19.222h-3.844V5.767A1.923 1.923 0 0 0 51.9 3.844H5.767a1.923 1.923 0 0 0-1.923 1.923v23.066c0 1.061.862 1.922 1.923 1.922h18.201l9.404 11.282c.373.453 1.23.146 1.23-.444V30.755h13.455V34.6h-9.61v6.993a4.55 4.55 0 0 1-4.543 4.54z" fill="#1E211E"/><path d="M93.232 29.002l-1.254-1.253c-5.5-5.5-12.807-8.527-20.58-8.527-16.051 0-29.109 13.058-29.109 29.108v15.103h1.922a5.766 5.766 0 0 1 5.767-5.767H51.9V51.9a32.882 32.882 0 0 0 20.539-7.205l.606-.484.605.484A32.882 32.882 0 0 0 94.189 51.9v5.767h1.922a5.766 5.766 0 0 1 5.767 5.766h1.922V42.48c0-6.393-4.41-11.966-10.568-13.477z" fill="url(#a)"/><path d="M48.895 85.343a23.175 23.175 0 0 0-1.543-3.73l2.274-4.69-7.37-7.37-4.69 2.275a23.426 23.426 0 0 0-3.73-1.544l-1.714-4.928H21.7l-1.713 4.926a23.22 23.22 0 0 0-3.729 1.544l-4.69-2.274-7.37 7.37 2.274 4.69A23.434 23.434 0 0 0 4.93 85.34L0 87.055v10.423l4.927 1.712c.407 1.29.922 2.538 1.543 3.729l-2.274 4.691 7.37 7.369 4.69-2.274a23.474 23.474 0 0 0 3.73 1.544l1.714 4.928h7.133v-1.922l3.708-10.199c.462-1.271 1.086-2.445 1.784-3.566a13.39 13.39 0 0 1-7.414 2.232c-7.431 0-13.456-6.024-13.456-13.456 0-7.43 6.025-13.455 13.456-13.455 7.431 0 13.456 6.024 13.456 13.455 0 2.226-.55 4.322-1.508 6.17a19.205 19.205 0 0 1 9.208-3.865l5.755-.767v-6.749l-4.927-1.712z" fill="url(#b)"/><path d="M13.456 23.067A5.774 5.774 0 0 1 7.69 17.3a5.774 5.774 0 0 1 5.767-5.767 5.774 5.774 0 0 1 5.767 5.767 5.774 5.774 0 0 1-5.767 5.767zm0-7.69a1.923 1.923 0 1 0 .001 3.847 1.923 1.923 0 0 0 0-3.846zm15.377 7.69a5.774 5.774 0 0 1-5.767-5.767 5.774 5.774 0 0 1 5.767-5.767A5.774 5.774 0 0 1 34.6 17.3a5.774 5.774 0 0 1-5.767 5.767zm0-7.69a1.923 1.923 0 1 0 .001 3.847 1.923 1.923 0 0 0-.001-3.846zm15.377 7.69a5.774 5.774 0 0 1-5.767-5.767 5.774 5.774 0 0 1 5.767-5.767 5.774 5.774 0 0 1 5.767 5.767 5.774 5.774 0 0 1-5.767 5.767zm0-7.69a1.923 1.923 0 1 0 .001 3.847 1.923 1.923 0 0 0-.001-3.846zm75.79 103.8l-4.648-12.777a21.08 21.08 0 0 0-17.077-13.734l-15.62-2.082v-.24h-.419c7.597-3.314 13.061-10.601 13.778-19.222h.097c4.24 0 7.688-3.449 7.688-7.689s-3.448-7.689-7.688-7.689v-5.767h-1.923a31.08 31.08 0 0 1-19.339-6.781l-1.805-1.447-1.805 1.445a31.07 31.07 0 0 1-19.34 6.783h-1.922v5.767c-4.24 0-7.688 3.449-7.688 7.689s3.448 7.689 7.688 7.689h.099c.716 8.621 6.181 15.908 13.778 19.222h-.421v.24l-15.62 2.082a21.172 21.172 0 0 0-5.659 1.576 15.24 15.24 0 0 0 .135-1.976c0-8.479-6.9-15.378-15.378-15.378-8.479 0-15.378 6.9-15.378 15.378 0 8.479 6.899 15.378 15.378 15.378 1.203 0 2.383-.179 3.537-.452l-4.36 11.985H120zM46.133 63.433a3.848 3.848 0 0 1 3.844-3.844v7.689a3.848 3.848 0 0 1-3.844-3.845zm21.144 28.074c1.848.479 3.772.76 5.767.76 1.995 0 3.92-.281 5.767-.76v.084l-5.767 7.207-5.767-7.207v-.084zm2.543 9.419l-7.092 2.364-2.79-8.363 4.594-.614 5.288 6.613zm11.736-6.61l4.594.612-2.79 8.364-7.092-2.364 5.288-6.613zm18.4-30.883a3.848 3.848 0 0 1-3.845 3.845v-7.69a3.848 3.848 0 0 1 3.844 3.845zM53.821 69.2V53.768a34.967 34.967 0 0 0 19.222-7.104 34.956 34.956 0 0 0 19.222 7.104V69.2c0 10.599-8.623 19.222-19.222 19.222-10.599 0-19.222-8.623-19.222-19.222zM48.32 96.476l7.74-1.032 4.234 12.707 12.75-4.248 12.75 4.25 4.235-12.707 7.739 1.032a17.25 17.25 0 0 1 13.972 11.237l2.77 7.618H31.578l2.77-7.62a17.253 17.253 0 0 1 13.973-11.237zm-32.942-4.21c0-6.36 5.172-11.533 11.533-11.533 6.36 0 11.533 5.173 11.533 11.533a11.39 11.39 0 0 1-1.117 4.894c-1.706 1.377-3.164 3.045-4.378 4.906a11.48 11.48 0 0 1-6.038 1.734c-6.36 0-11.533-5.173-11.533-11.534z" fill="#1E211E"/><path d="M63.434 61.51a1.922 1.922 0 1 0 0-3.844 1.922 1.922 0 0 0 0 3.845zm19.221 0a1.922 1.922 0 1 0 0-3.844 1.922 1.922 0 0 0 0 3.845zM86.5 69.2h-3.844c0 5.3-4.311 9.61-9.61 9.61-5.3 0-9.612-4.31-9.612-9.61H59.59c0 7.418 6.037 13.455 13.455 13.455S86.501 76.618 86.501 69.2z" fill="#1E211E"/><defs><linearGradient id="a" x1="44.404" y1="23.643" x2="108.635" y2="28.67" gradientUnits="userSpaceOnUse"><stop stop-color="#2CCF5E"/><stop offset="1" stop-color="#0FCF4A"/></linearGradient><linearGradient id="b" x1="1.85" y1="70.738" x2="58.218" y2="73.908" gradientUnits="userSpaceOnUse"><stop stop-color="#2CCF5E"/><stop offset="1" stop-color="#0FCF4A"/></linearGradient></defs></svg>