<svg width="41" height="41" viewBox="0 0 41 41" fill="none" xmlns="http://www.w3.org/2000/svg"><ellipse cx="20.5" cy="20.961" rx="20.5" ry="20" fill="#4D4547"/><path d="M25.552 7.96H15.448C11.34 7.96 8 11.303 8 15.41v10.104c0 4.107 3.341 7.448 7.448 7.448h10.104C29.66 32.96 33 29.62 33 25.513V15.41c0-4.107-3.341-7.448-7.448-7.448zm4.933 17.553a4.933 4.933 0 0 1-4.933 4.933H15.448a4.933 4.933 0 0 1-4.933-4.933V15.41a4.933 4.933 0 0 1 4.933-4.933h10.104a4.933 4.933 0 0 1 4.933 4.933v10.104z" fill="#fff"/><path d="M20.495 13.996a6.473 6.473 0 0 0-6.466 6.466c0 3.565 2.9 6.466 6.466 6.466 3.566 0 6.466-2.9 6.466-6.466 0-3.565-2.9-6.466-6.466-6.466zm0 10.417a3.95 3.95 0 1 1 0-7.902 3.95 3.95 0 0 1 0 7.902zm6.484-8.818a1.55 1.55 0 1 0 0-3.099 1.55 1.55 0 0 0 0 3.099z" fill="#fff"/></svg>