<svg width="90" height="50" viewBox="0 0 90 50" fill="none" xmlns="http://www.w3.org/2000/svg"><path fill-rule="evenodd" clip-rule="evenodd" d="M24.195 1.09h-.133.133v2.572H22.6l-1.064 1.8h2.659v2.571h-4.254l-1.064 1.8h5.318v2.572h-6.913l-1.063 1.8h7.976v2.7h-9.439l-1.063 1.801h10.502v2.572H12.097l-1.063 1.8h13.161v2.572H9.439l-1.064 1.8h15.82v2.572H6.913l-1.064 1.8h18.346v2.829H4.121l-1.063 1.8h21.137v2.443h-22.6L0 41.466h48.257L24.195 1.09z" fill="#E30613"/><path fill-rule="evenodd" clip-rule="evenodd" d="M34.433 23.72h-9.306l1.994 3.215h3.59v-2.7h1.462l2.924 5.143 1.33-2.443h1.728l1.063-1.671h2.128v5.4h2.393v-4.757h3.456v4.757h2.526V8.42h-2.526v15.559H43.87V8.548h-2.393v15.301h-3.722c.665-3.472 1.064-6.558.532-10.03-1.064-6.815-4.919-10.415-6.248-12.6L27.52.96c4.121 4.372 6.647 7.844 7.445 13.887.531 3.343.265 5.53-.532 8.873zM81.89 11.122v16.716c0 1.672 1.463 3.343 3.191 3.343 1.462 0 2.792.129 3.855-.9.4-.386 1.064-1.286 1.064-2.057v-17.23c0-1.544-1.595-3.087-3.324-3.087-.93 0-1.994-.128-2.924.257-.93.386-1.861 1.672-1.861 2.958zm3.723-1.029h.665a1.31 1.31 0 0 1 1.329 1.286v16.33c0 .772-.665 1.286-1.33 1.286h-.664a1.31 1.31 0 0 1-1.33-1.286V11.38a1.31 1.31 0 0 1 1.33-1.286zM62.746 30.666h2.659V26.55c.266 0 .93-.514 1.196-.643 1.862-1.286 3.457-3.215 3.989-5.4.664-2.315.797-4.501-.266-6.816-.93-2.057-2.26-3.343-4.254-4.629-.532-.386-2.526-1.286-3.191-1.286v22.889h-.133zm2.526-19.288v12.215c2.26-.642 3.855-4.757 3.057-8.23-.531-1.542-1.329-3.085-3.057-3.985zM53.708 23.72h-3.456l1.33 2.314h2.126c0 .9-.133 2.7.931 3.986.399.643 1.063.772 1.861.772h4.387l-.133-2.443c-1.196 0-2.924.257-3.722 0-.399-.129-.665-.772-.665-1.157v-1.158h4.52l.133-2.186H56.5V10.733h4.52V8.418h-7.179V23.72h-.133z" fill="#000"/><path fill-rule="evenodd" clip-rule="evenodd" d="M31.375 25.008v15.944h2.26v-7.329l2.393 3.472 2.127-3.472v7.33h2.26l.133-12.345-.133-2.572h-.798l-3.59 6.43-3.854-6.43-.665-1.028h-.133zM72.984 8.29v22.373h2.66V10.861h4.52V8.418l-7.18-.129zm9.572 26.233v2.444H81.36l-2.26-2.444h-1.994l2.924 3.344-3.057 3.343H79.1l2.526-2.829h.797v2.829h1.728v-2.83h.665c.798.9 1.728 1.929 2.659 2.958h2.26l-3.058-3.472c.93-1.158 1.994-2.186 2.925-3.344h-1.994l-2.127 2.315h-1.197v-2.315h-1.728zm-32.704 6.683l1.728.129v-2.572h4.254v2.572h1.595v-6.687h-1.595v2.572H51.58v-2.572h-1.728v6.558zm8.242-5.015h2.924v5.144h1.729V36.19h2.791v-1.543h-7.444v1.543z" fill="#000"/><path d="M2.925 47.383l.93.257c-.133.515-.399.9-.664 1.03-.266.256-.665.385-1.197.385-.665 0-1.063-.257-1.462-.643-.4-.386-.532-.9-.532-1.672 0-.771.133-1.285.532-1.671.399-.386.93-.643 1.595-.643.532 0 1.064.128 1.33.514.265.129.398.515.398.772l-.93.257c0-.257-.133-.386-.4-.514a1.034 1.034 0 0 0-.664-.258c-.399 0-.665.129-.797.386-.266.257-.266.643-.266 1.157 0 .515.133.9.266 1.158.265.257.531.385.797.385s.399-.128.665-.257c.133-.128.266-.386.399-.643zm2.526 1.543v-3.6H4.12v-.772h3.59v.772H6.38v3.6h-.93zm2.791 0v-4.372h1.463c.531 0 .93 0 1.063.129.266.129.532.257.665.386.133.257.266.514.266.9 0 .257 0 .514-.133.643-.133.128-.266.386-.4.386-.132.128-.265.128-.53.257H9.172v1.671h-.93zm.93-3.6v1.286h.533c.398 0 .531 0 .664-.129.133 0 .266-.128.266-.257.133-.129.133-.257.133-.386 0-.128 0-.257-.133-.386-.133-.128-.266-.128-.399-.257H9.172v.129zm3.058 1.414c0-.385.133-.771.266-1.157.133-.257.266-.386.4-.643.132-.128.398-.257.53-.386.267-.128.666-.128.931-.128.665 0 1.197.257 1.596.643s.664.9.664 1.671c0 .643-.133 1.286-.531 1.672-.4.386-.93.643-1.596.643a2.239 2.239 0 0 1-1.595-.643c-.532-.386-.665-.9-.665-1.672zm.931 0c0 .515.133.9.399 1.158.266.257.532.385.93.385.4 0 .665-.128.931-.385.266-.258.399-.643.399-1.158 0-.514-.133-.9-.399-1.157s-.532-.386-.93-.386c-.4 0-.665.129-.931.386s-.399.643-.399 1.157zm4.121-2.186h.798v2.958l1.86-2.958h.931v4.372h-.797v-2.829l-1.861 2.83h-.93v-4.373zm5.584 4.372v-3.6h-1.33v-.772h3.59v.772h-1.33v3.6h-.93zm2.791 0v-4.372h3.324v.772h-2.393v1.029h2.26v.771h-2.26v1.157h2.526v.772h-3.457v-.129zm4.52-4.372h3.19v4.372h-.93v-3.6h-1.33v2.957c0 .258-.132.386-.265.515-.133.128-.399.128-.665.128h-.532v-.643h.266c.133 0 .266 0 .4-.128 0 0 .132-.129.132-.386v-3.215h-.266zm4.121 0h.931v1.8h1.196c.532 0 .931.13 1.197.386.266.258.399.515.399.9 0 .258-.133.515-.266.772s-.399.386-.532.386c-.266.128-.532.128-.93.128h-2.128v-4.372h.133zm.931 3.6h1.462c.133 0 .266-.128.266-.128.133-.128.133-.257.133-.386 0-.257-.133-.385-.266-.385-.133-.129-.399-.129-.797-.129h-.931v1.029h.133zm3.59.772v-4.372h.93v1.672h1.728v-1.672h.93v4.372h-.93v-1.928H39.75v1.928h-.93zm8.64 0h-.93l-.399-1.028h-1.861l-.399 1.028h-.93l1.728-4.372h.93l1.861 4.372zm-1.728-1.671l-.665-1.672-.664 1.672h1.33zm4.919 1.671v-1.8h-.133c-.266 0-.532 0-.665.129-.133.128-.266.385-.664.771l-.665.9h-1.064l.532-.9c.266-.386.399-.514.532-.771a1.83 1.83 0 0 1 .532-.386c-.4 0-.665-.257-.93-.386-.134-.257-.267-.514-.267-.771 0-.258.133-.515.266-.643.133-.258.266-.386.532-.386.266-.129.532-.129 1.063-.129h1.861v4.372h-.93zm0-3.6h-1.33c-.133 0-.266.129-.266.129-.133.128-.133.257-.133.385 0 .129 0 .257.133.386s.133.129.266.129h1.463v-1.03h-.133zm3.59-.772h.93v1.8c.266 0 .399-.128.399-.128.133-.129.133-.257.266-.643.133-.514.398-.771.531-.9s.532-.129.93-.129h.134v.643h-.133c-.133 0-.266 0-.399.129-.133 0-.133.129-.266.257 0 .129-.133.257-.266.514 0 .129-.133.258-.133.386 0 .129-.133.257-.398.257.265 0 .398.129.531.386.133.129.266.386.4.772l.664 1.157h-1.064l-.531-1.157v-.129s0-.129-.133-.257c-.133-.257-.266-.386-.266-.386-.133 0-.133-.128-.4-.128v1.928h-.93v-4.372h.133zm3.589 2.186c0-.385.133-.771.265-1.157.133-.257.266-.386.4-.643.132-.128.398-.257.531-.386.266-.128.665-.128.93-.128a2.24 2.24 0 0 1 1.596.643c.399.386.532.9.532 1.671 0 .643-.133 1.286-.532 1.672-.399.386-.93.643-1.595.643a2.239 2.239 0 0 1-1.596-.643 2.8 2.8 0 0 1-.531-1.672zm.93 0c0 .515.133.9.4 1.158.265.257.53.385.93.385.398 0 .664-.128.93-.385.266-.258.399-.643.399-1.158 0-.514-.133-.9-.399-1.157s-.532-.386-.93-.386c-.4 0-.665.129-.93.386-.267.257-.4.643-.4 1.157zm4.121 2.186v-4.372h1.33l.797 2.958.798-2.958h1.33v4.372h-.798v-3.471l-.93 3.471h-.931l-.93-3.471v3.471h-.666zm5.318-4.372h3.59v4.372h-.931v-3.6h-1.728v3.6h-.931v-4.372zm8.508 4.372h-.93l-.4-1.028h-1.86l-.4 1.028h-.93l1.728-4.372h.93l1.862 4.372zm-1.595-1.671l-.665-1.672-.665 1.672h1.33zm2.127 1.671v-4.372h.93v1.672h1.729v-1.672h.93v4.372h-.93v-1.928h-1.729v1.928h-.93zm4.52-4.372h.93v2.958l1.861-2.958h.798v4.372h-.797v-2.829l-1.862 2.83h-.93v-4.373zm7.311 4.372v-1.8h-.133c-.265 0-.531 0-.664.129-.133.128-.266.385-.665.771l-.665.9H85.88l.532-.9c.266-.386.398-.514.531-.771a1.83 1.83 0 0 1 .532-.386c-.399 0-.665-.257-.93-.386-.133-.257-.266-.514-.266-.771 0-.258.133-.515.266-.643.133-.258.266-.386.531-.386.266-.129.532-.129 1.064-.129H90v4.372h-.93zm0-3.6H87.74c-.133 0-.266.129-.266.129-.133.128-.133.257-.133.385 0 .129 0 .257.133.386s.133.129.266.129h1.462v-1.03h-.133z" fill="#000"/><path fill-rule="evenodd" clip-rule="evenodd" d="M70.99 35.677l-1.33 2.444h2.791l-1.462-2.444zm-4.92 5.658h1.862l1.063-1.671h4.121l.93 1.671h1.862l-3.722-6.558h-2.393l-3.723 6.558zM30.709 30.02l-4.121 4.114h4.121V30.02zm12.629 5.532h3.722c.399 0 .665.257.665.643v2.957c0 .386-.266.643-.665.643h-3.722c-.399 0-.665-.257-.665-.643v-2.957c.133-.386.399-.643.665-.643zm-.399-1.157h4.653c.93 0 1.595.642 1.595 1.543v3.343c0 .9-.664 1.543-1.595 1.543h-4.653c-.93 0-1.595-.643-1.595-1.543v-3.343c0-.9.664-1.544 1.595-1.544z" fill="#000"/></svg>