<svg width="164" height="24" viewBox="0 0 164 24" fill="none" xmlns="http://www.w3.org/2000/svg"><path d="M29.968 4.768c-1.552 0-2.352.112-3.36.368l.208 1.824a57.83 57.83 0 0 1 3.152-.08c1.472 0 2.048.592 2.176 2.512h-4.48v1.696h4.512c-.064 2.304-.624 2.992-2.208 2.992-1.44 0-2.288-.032-3.232-.16l-.208 1.824c.992.32 1.888.448 3.44.448 3.472 0 4.72-1.504 4.72-5.712s-1.248-5.712-4.72-5.712zm16.03.192H43.55v4.224h-3.89V4.96h-2.43V16h2.431v-4.928h3.889V16h2.448V4.96zm10.278 9.136H52.02c-.528 0-.752-.24-.752-.832v-2.128h4.4v-1.76h-4.4v-1.68c0-.576.224-.816.752-.816h4.256l.096-1.808c-1.488-.16-3.408-.16-5.12-.16-1.456 0-2.416.864-2.416 2.224v6.688c0 1.36.944 2.224 2.416 2.224 1.712 0 3.632 0 5.12-.16l-.096-1.792zm6.738-9.28c-1.984 0-2.88.016-4.208.144V16h2.448v-4.096c.64.08 1.36.128 2.08.128 2.72 0 3.696-.768 3.696-3.616 0-2.816-.976-3.6-4.016-3.6zm-1.76 5.344V6.688h1.696c1.264 0 1.632.352 1.632 1.728s-.368 1.728-1.632 1.744h-1.696zm10.34-5.248c-1.345 0-2.32.96-2.32 2.352V16h2.447V7.76c0-.64.24-.88.864-.88h3.792l.112-1.792c-1.44-.176-3.248-.176-4.896-.176zm11.11-.16c-3.489 0-4.72 1.296-4.72 5.728 0 4.432 1.231 5.728 4.72 5.728 3.487 0 4.735-1.296 4.735-5.728 0-4.432-1.248-5.728-4.736-5.728zm0 1.968c1.663 0 2.16.832 2.16 3.76s-.497 3.76-2.16 3.76c-1.665 0-2.16-.832-2.16-3.76s.495-3.76 2.16-3.76zm16.12-1.76c-.543 0-.88.272-.991.784l-1.328 5.504c-.112.528-.192 1.04-.288 1.552h-.208c-.096-.512-.176-1.024-.288-1.552l-1.344-5.504c-.128-.512-.432-.784-.96-.784h-2.352c-.592 0-.896.32-.912.912L89.753 16h2.288l.32-9.136h.272l1.68 6.832c.128.528.464.784 1.008.784h1.6c.544 0 .864-.256.976-.784l1.664-6.832h.288L100.2 16h2.304l-.416-10.128c-.032-.592-.32-.912-.912-.912h-2.352zm10.722-.208c-3.488 0-4.72 1.296-4.72 5.728 0 4.432 1.232 5.728 4.72 5.728 3.488 0 4.736-1.296 4.736-5.728 0-4.432-1.248-5.728-4.736-5.728zm0 1.968c1.664 0 2.16.832 2.16 3.76s-.496 3.76-2.16 3.76c-1.664 0-2.16-.832-2.16-3.76s.496-3.76 2.16-3.76zm16.025-1.76h-2.448v4.224h-3.888V4.96h-2.432V16h2.432v-4.928h3.888V16h2.448V4.96zm11.126 1.984V4.96h-9.04v1.984h3.296V16h2.448V6.944h3.296zm7.12 6.16l.8 2.896h2.48l-3.184-10.4c-.096-.4-.432-.64-.848-.64h-2.304c-.4 0-.752.24-.848.64L136.729 16h2.496l.8-2.896h3.792zm-.528-1.888h-2.752l.928-3.376.24-1.04h.432c.048.336.144.704.224 1.04l.928 3.376zm15.43-1.008c2.064-.272 2.32-1.664 3.44-5.248h-2.48c-.992 3.072-1.344 4.432-2.64 4.432h-.704c.08-.432.112-.88.112-1.312V4.96h-2.336v3.12c0 .432.048.88.128 1.312h-.784c-1.28 0-1.632-1.36-2.608-4.432h-2.48c1.12 3.584 1.36 4.976 3.44 5.248v.064c-2.176.288-2.464 1.584-3.744 5.728h2.56c1.232-3.744 1.488-4.864 2.832-4.864h.784c-.08.368-.128.736-.128 1.056V16h2.336v-3.808c0-.32-.048-.688-.128-1.056h.736c1.376 0 1.632 1.12 2.848 4.864h2.56c-1.264-4.144-1.568-5.44-3.744-5.728v-.064z" fill="#232323"/><path d="M11.5 1l9.96 17.25H1.54L11.5 1z" fill="#E91D28"/></svg>