<svg width="265" height="142" viewBox="0 0 265 142" fill="none" xmlns="http://www.w3.org/2000/svg"><path fill-rule="evenodd" clip-rule="evenodd" d="M71.24.375h-.39.39v7.572h-4.696l-3.132 5.3h7.829v7.573H58.715l-3.132 5.3h15.658v7.573H50.886l-3.131 5.3H71.24v7.951H43.449l-3.131 5.301H71.24v7.572H35.62l-3.132 5.3H71.24v7.573H27.79l-3.13 5.3h46.58v7.573H20.355l-3.132 5.3h54.018v8.33H12.134l-3.131 5.301h62.238v7.193H4.697L0 119.26h142.09L71.24.375z" fill="#E30613"/><path fill-rule="evenodd" clip-rule="evenodd" d="M101.383 67.015h-27.4l5.87 9.465h10.57v-7.951h4.305l8.612 15.145 3.914-7.194h5.089l3.131-4.922h6.263V87.46h7.046V73.45h10.177v14.01h7.437v-65.5h-7.437v45.812h-9.786V22.338h-7.045v45.055h-10.96c1.957-10.222 3.131-19.31 1.565-29.532C109.603 17.795 98.251 7.194 94.337.757L81.028 0c12.135 12.873 19.572 23.095 21.92 40.89 1.566 9.844.783 16.28-1.565 26.125zm139.74-37.106v49.22c0 4.921 4.306 9.843 9.394 9.843 4.306 0 8.221.379 11.352-2.65 1.174-1.136 3.131-3.786 3.131-6.058V29.53c0-4.543-4.697-9.087-9.785-9.087-2.74 0-5.872-.378-8.612.758-2.74 1.136-5.48 4.922-5.48 8.708zm10.96-3.03h1.957c2.349 0 3.915 1.894 3.915 3.787V78.75c0 2.272-1.958 3.786-3.915 3.786h-1.957c-2.348 0-3.914-1.893-3.914-3.786V30.666c0-1.893 1.566-3.786 3.914-3.786zm-67.329 60.584h7.829V75.349c.782 0 2.74-1.515 3.522-1.893 5.481-3.786 10.178-9.465 11.743-15.902 1.958-6.815 2.349-13.251-.782-20.066-2.74-6.058-6.655-9.844-12.526-13.63-1.566-1.136-7.438-3.787-9.395-3.787v67.393h-.391zm7.437-56.791V66.64c6.654-1.893 11.352-14.009 9.003-24.232-1.566-4.543-3.914-9.086-9.003-11.736zm-34.051 36.34h-10.177l3.914 6.815h6.263c0 2.65-.391 7.95 2.74 11.737 1.174 1.893 3.132 2.272 5.48 2.272h12.918l-.392-7.194c-3.523 0-8.611.757-10.96 0-1.174-.379-1.957-2.272-1.957-3.407v-3.408h13.309l.391-6.436H166.36V28.772h13.309v-6.815h-21.137v45.055h-.392z" fill="#000"/><path fill-rule="evenodd" clip-rule="evenodd" d="M92.38 70.805v46.948h6.655V96.172l7.046 10.222 6.263-10.222v21.581h6.654l.392-36.347-.392-7.572h-2.348l-10.569 18.93-11.352-18.93-1.957-3.03h-.391zm122.518-49.223v65.879h7.829V29.154h13.309v-7.193l-21.138-.379zm28.181 77.234v7.194h-3.523l-6.654-7.194h-5.872l8.612 9.844-9.003 9.844h6.263l7.437-8.329h2.348v8.329h5.089v-8.329h1.957a1221.53 1221.53 0 0 0 7.829 8.708h6.654l-9.003-10.223c2.74-3.407 5.872-6.436 8.612-9.844h-5.872l-6.263 6.815h-3.523v-6.815h-5.088zm-96.292 19.685l5.089.378v-7.572h12.526v7.572h4.697V99.191h-4.697v7.573h-12.526v-7.573h-5.089v19.31zm24.268-14.766h8.611v15.144h5.089v-15.144h8.22v-4.544h-21.92v4.544z" fill="#000"/><path d="M8.612 136.685l2.74.757c-.392 1.514-1.175 2.65-1.958 3.029-.782.757-1.957 1.136-3.523 1.136-1.957 0-3.131-.758-4.305-1.893C.39 138.578 0 137.063 0 134.792c0-2.272.391-3.787 1.566-4.922 1.174-1.136 2.74-1.893 4.697-1.893 1.566 0 3.131.378 3.914 1.514.783.379 1.175 1.514 1.175 2.272l-2.74.757c0-.757-.392-1.136-1.175-1.515-.391-.378-1.174-.757-1.957-.757-1.174 0-1.957.379-2.349 1.136-.782.757-.782 1.893-.782 3.408 0 1.514.391 2.65.782 3.407.783.757 1.566 1.136 2.35 1.136.782 0 1.173-.379 1.956-.757.392-.379.783-1.136 1.175-1.893zm7.437 4.543v-10.601h-3.915v-2.272h10.57v2.272h-3.915v10.601h-2.74zm8.22 0v-12.873h4.306c1.565 0 2.74 0 3.131.379.783.378 1.566.757 1.957 1.136.392.757.783 1.514.783 2.65 0 .757 0 1.514-.391 1.893-.392.379-.783 1.136-1.175 1.136-.391.378-.783.378-1.565.757h-4.306v4.922h-2.74zm2.74-10.601v3.786h1.566c1.174 0 1.565 0 1.957-.379.391 0 .783-.378.783-.757.391-.378.391-.757.391-1.136 0-.378 0-.757-.391-1.136-.392-.378-.783-.378-1.175-.757h-3.13v.379zm9.003 4.165c0-1.136.391-2.272.783-3.408.391-.757.782-1.136 1.174-1.893.391-.379 1.174-.757 1.566-1.136.783-.378 1.957-.378 2.74-.378 1.957 0 3.523.757 4.697 1.893 1.174 1.135 1.957 2.65 1.957 4.922 0 1.893-.391 3.786-1.566 4.922-1.174 1.135-2.74 1.893-4.697 1.893-1.957 0-3.523-.758-4.697-1.893-1.566-1.136-1.957-2.651-1.957-4.922zm2.74 0c0 1.514.391 2.65 1.174 3.407.783.757 1.566 1.136 2.74 1.136 1.175 0 1.957-.379 2.74-1.136.783-.757 1.175-1.893 1.175-3.407 0-1.515-.392-2.651-1.175-3.408-.783-.757-1.566-1.136-2.74-1.136-1.174 0-1.957.379-2.74 1.136-.783.757-1.174 1.893-1.174 3.408zm12.134-6.437h2.349v8.708l5.48-8.708h2.74v12.873h-2.349v-8.329l-5.48 8.329h-2.74v-12.873zm16.44 12.873v-10.601h-3.914v-2.272h10.569v2.272h-3.914v10.601h-2.74zm8.22 0v-12.873h9.786v2.272h-7.045v3.029h6.654v2.271h-6.654v3.408h7.437v2.272H75.546v-.379zm13.31-12.873h9.394v12.873h-2.74v-10.601h-3.915v8.708c0 .757-.391 1.136-.783 1.514-.391.379-1.174.379-1.957.379H87.29v-1.893h.783c.392 0 .783 0 1.175-.379 0 0 .391-.378.391-1.135v-9.466h-.783zm12.134 0h2.74v5.301h3.523c1.565 0 2.74.378 3.522 1.136.783.757 1.175 1.514 1.175 2.65 0 .757-.392 1.514-.783 2.272-.392.757-1.174 1.135-1.566 1.135-.783.379-1.566.379-2.74.379h-6.263v-12.873h.392zm2.74 10.601h4.305c.392 0 .783-.378.783-.378.392-.379.392-.757.392-1.136 0-.757-.392-1.136-.783-1.136-.392-.379-1.174-.379-2.349-.379h-2.74v3.029h.392zm10.568 2.272v-12.873h2.74v4.922h5.089v-4.922h2.74v12.873h-2.74v-5.679h-5.089v5.679h-2.74zm25.444 0h-2.741l-1.174-3.029h-5.48l-1.174 3.029h-2.74l5.088-12.873h2.74l5.481 12.873zm-5.089-4.922l-1.957-4.922-1.957 4.922h3.914zm14.483 4.922v-5.301h-.392c-.782 0-1.565 0-1.957.379-.391.379-.783 1.136-1.957 2.272l-1.957 2.65h-3.131l1.565-2.65c.783-1.136 1.175-1.515 1.566-2.272.391-.379.783-.757 1.566-1.136-1.175 0-1.957-.757-2.74-1.136-.392-.757-.783-1.514-.783-2.271 0-.758.391-1.515.783-1.893.391-.758.783-1.136 1.565-1.136.783-.379 1.566-.379 3.132-.379h5.48v12.873h-2.74zm0-10.601h-3.914c-.392 0-.783.378-.783.378-.392.379-.392.758-.392 1.136 0 .379 0 .758.392 1.136.391.379.391.379.783.379h4.305v-3.029h-.391zm10.569-2.272h2.74v5.301c.782 0 1.174-.379 1.174-.379.391-.378.391-.757.783-1.893.391-1.514 1.174-2.272 1.566-2.65.391-.379 1.565-.379 2.74-.379h.391v1.893h-.391c-.392 0-.783 0-1.175.379-.391 0-.391.378-.783.757 0 .379-.391.757-.782 1.515 0 .378-.392.757-.392 1.135 0 .379-.391.758-1.174.758.783 0 1.174.378 1.566 1.135.391.379.782 1.136 1.174 2.272l1.957 3.408h-3.131l-1.566-3.408v-.378s0-.379-.392-.758c-.391-.757-.783-1.136-.783-1.136-.391 0-.391-.378-1.174-.378v5.679h-2.74v-12.873h.392zm10.568 6.437c0-1.136.392-2.272.783-3.408.392-.757.783-1.136 1.174-1.893.392-.379 1.175-.757 1.566-1.136.783-.378 1.957-.378 2.74-.378 1.957 0 3.523.757 4.697 1.893 1.175 1.135 1.566 2.65 1.566 4.922 0 1.893-.391 3.786-1.566 4.922-1.174 1.135-2.74 1.893-4.697 1.893-1.957 0-3.523-.758-4.697-1.893-.783-1.136-1.566-2.651-1.566-4.922zm2.74 0c0 1.514.392 2.65 1.175 3.407.782.757 1.565 1.136 2.74 1.136 1.174 0 1.957-.379 2.74-1.136.783-.757 1.174-1.893 1.174-3.407 0-1.515-.391-2.651-1.174-3.408-.783-.757-1.566-1.136-2.74-1.136-1.175 0-1.958.379-2.74 1.136-.783.757-1.175 1.893-1.175 3.408zm12.135 6.436v-12.873h3.914l2.349 8.708 2.348-8.708h3.915v12.873h-2.349v-10.223l-2.74 10.223h-2.74l-2.74-10.223v10.223h-1.957zm15.657-12.873h10.569v12.873h-2.74v-10.601h-5.089v10.601h-2.74v-12.873zm25.052 12.873h-2.74l-1.175-3.029h-5.48l-1.174 3.029h-2.74l5.089-12.873h2.74l5.48 12.873zm-4.697-4.922l-1.958-4.922-1.957 4.922h3.915zm6.262 4.922v-12.873h2.74v4.922h5.089v-4.922h2.74v12.873h-2.74v-5.679h-5.089v5.679h-2.74zm13.309-12.873h2.74v8.708l5.48-8.708h2.349v12.873h-2.349v-8.329l-5.48 8.329h-2.74v-12.873zm21.529 12.873v-5.301h-.391c-.783 0-1.566 0-1.958.379-.391.379-.782 1.136-1.957 2.272l-1.957 2.65h-3.131l1.565-2.65c.783-1.136 1.175-1.515 1.566-2.272.391-.379.783-.757 1.566-1.136-1.175 0-1.957-.757-2.74-1.136-.392-.757-.783-1.514-.783-2.271 0-.758.391-1.515.783-1.893.391-.758.783-1.136 1.565-1.136.783-.379 1.566-.379 3.132-.379H265v12.873h-2.74zm0-10.601h-3.914c-.392 0-.783.378-.783.378-.392.379-.392.758-.392 1.136 0 .379 0 .758.392 1.136.391.379.391.379.783.379h4.305v-3.029h-.391z" fill="#000"/><path fill-rule="evenodd" clip-rule="evenodd" d="M209.022 102.228l-3.914 7.194h8.22l-4.306-7.194zm-14.483 16.659h5.48l3.132-4.922h12.134l2.74 4.922h5.48l-10.96-19.309h-7.046l-10.96 19.309zM90.424 85.57L78.288 97.686h12.135V85.57zm37.186 16.279h10.96c1.174 0 1.957.757 1.957 1.893v8.708c0 1.136-.783 1.893-1.957 1.893h-10.96c-1.175 0-1.957-.757-1.957-1.893v-8.708c.391-1.136 1.174-1.893 1.957-1.893zm-1.175-3.408h13.701c2.74 0 4.697 1.893 4.697 4.544v9.844c0 2.65-1.957 4.543-4.697 4.543h-13.701c-2.74 0-4.697-1.893-4.697-4.543v-9.844c0-2.651 1.957-4.544 4.697-4.544z" fill="#000"/></svg>