<svg width="27" height="28" viewBox="0 0 27 28" fill="none" xmlns="http://www.w3.org/2000/svg"><path d="M13.183 27.19c7.28 0 13.182-5.902 13.182-13.183 0-7.28-5.902-13.183-13.182-13.183S0 6.726 0 14.007c0 7.28 5.902 13.182 13.183 13.182z" fill="url(#a)"/><path d="M19.89 7.95l-2.515 12.848s-.352.891-1.32.464l-5.806-4.509-2.111-1.033-3.554-1.212s-.546-.196-.599-.623c-.052-.428.616-.66.616-.66l14.13-5.613c-.002 0 1.16-.517 1.16.338z" fill="#fff"/><path d="M9.802 20.651s-.17-.015-.38-.693c-.212-.677-1.285-4.24-1.285-4.24l8.534-5.49s.492-.303.475 0c0 0 .087.054-.176.304-.264.25-6.704 6.112-6.704 6.112" fill="#E5E5E5"/><path d="M12.475 18.482l-2.297 2.12s-.179.138-.375.052l.44-3.94" fill="#9A9293"/><defs><linearGradient id="a" x1="13.183" y1=".824" x2="13.183" y2="27.093" gradientUnits="userSpaceOnUse"><stop stop-color="#9A9293"/><stop offset="1" stop-color="#9A9293"/></linearGradient></defs></svg>