<svg width="28" height="30" viewBox="0 0 28 30" fill="none" xmlns="http://www.w3.org/2000/svg"><path d="M13.96 1.512c-1.813 0-7.327 0-10.375 2.783C1.77 6.104.915 8.717.915 12.497v2.06c0 3.78.855 6.394 2.691 8.223.915.834 2.162 1.5 3.686 1.961l.488.147v3.659c0 .429.124.429.165.429.085 0 .22-.027.477-.255.062-.061.515-.552 2.719-3.02l.222-.25.333.022c.739.046 1.5.07 2.263.07 1.812 0 7.326 0 10.375-2.784 1.815-1.809 2.67-4.422 2.67-8.202v-2.06c0-3.78-.855-6.393-2.691-8.222-3.028-2.763-8.542-2.763-10.354-2.763z" fill="#fff"/><path d="M20.448 17.888c-.762-.642-1.114-.837-2.168-1.469-.439-.263-1.107-.49-1.458-.49-.24 0-.527.183-.703.359-.45.45-.598 1.014-1.387 1.014-.772 0-2.122-.786-3.09-1.802-1.016-.969-1.802-2.318-1.802-3.09 0-.79.553-.947 1.004-1.399.176-.175.37-.462.37-.701 0-.351-.228-1.01-.491-1.448-.633-1.054-.826-1.407-1.47-2.169-.217-.258-.465-.376-.724-.377-.44 0-1.015.217-1.405.508-.587.437-1.2 1.032-1.364 1.774-.022.1-.035.203-.039.304-.032.773.272 1.557.6 2.22.77 1.565 1.79 3.08 2.901 4.433.355.432.742.835 1.142 1.223.388.4.79.786 1.223 1.142 1.353 1.11 2.867 2.13 4.432 2.901.658.324 1.433.622 2.197.6.11-.003.219-.015.328-.04.741-.163 1.337-.776 1.774-1.363.29-.39.508-.965.508-1.405-.001-.26-.12-.507-.378-.725zm.376-3.333a.687.687 0 0 1-.687-.687v-.687a6.187 6.187 0 0 0-6.179-6.179.687.687 0 0 1 0-1.373c4.164 0 7.553 3.388 7.553 7.553v.686a.687.687 0 0 1-.687.687zm-4.216-1.371a.687.687 0 0 1-.664-.514 2.052 2.052 0 0 0-1.47-1.47.687.687 0 0 1 .344-1.33 3.43 3.43 0 0 1 2.455 2.453.687.687 0 0 1-.665.86z" fill="#9A9293"/><path d="M18.765 13.868a.687.687 0 0 1-.687-.687 4.115 4.115 0 0 0-3.898-4.11.686.686 0 1 1 .072-1.37 5.488 5.488 0 0 1 5.2 5.48c0 .38-.308.687-.687.687z" fill="#9A9293"/><path d="M13.959.824c-3.09 0-7.904.284-10.837 2.964C1.048 5.852.227 8.748.227 12.496c0 .31-.001.657.001 1.03-.002.373-.001.72-.001 1.03 0 3.748.821 6.644 2.895 8.708 1.116 1.02 2.508 1.69 3.97 2.133v3.149c0 1.095.721 1.115.853 1.115h.006c.34-.001.632-.167.926-.428.11-.098 1.387-1.521 2.776-3.077a36.35 36.35 0 0 0 2.305.072c3.09 0 7.904-.285 10.837-2.964 2.073-2.064 2.895-4.96 2.895-8.708 0-.31.002-.657-.001-1.03.003-.374.001-.72.001-1.03 0-3.748-.821-6.645-2.895-8.71C21.862 1.109 17.048.825 13.96.825zM25.63 14.316v.24c0 3.368-.718 5.663-2.256 7.217-2.666 2.396-7.743 2.396-9.417 2.396-.51 0-1.336-.001-2.312-.07-.27.306-3.18 3.56-3.18 3.56v-4.026c-1.445-.347-2.872-.915-3.923-1.86-1.539-1.554-2.256-3.85-2.256-7.217v-.24c0-.24-.001-.5.001-.805a74.477 74.477 0 0 1-.001-.776v-.239c0-3.368.717-5.663 2.256-7.217 2.665-2.396 7.743-2.396 9.416-2.396s6.75 0 9.415 2.396c1.54 1.554 2.256 3.849 2.256 7.217v.24c0 .24.001.5-.001.805.002.275.002.534.002.775z" fill="#9A9293"/></svg>