<svg width="40" height="41" viewBox="0 0 40 41" fill="none" xmlns="http://www.w3.org/2000/svg"><circle cx="19.942" cy="20.903" r="19.942" fill="#4D4547"/><path d="M18.19 30.89h1.733s.523-.06.79-.356c.246-.272.237-.782.237-.782s-.034-2.39 1.046-2.742c1.064-.346 2.431 2.31 3.88 3.332 1.094.773 1.926.603 1.926.603l3.874-.056s2.026-.128 1.066-1.765c-.078-.134-.56-1.21-2.88-3.423-2.43-2.317-2.103-1.94.822-5.946 1.782-2.44 2.494-3.93 2.271-4.567-.212-.607-1.522-.447-1.522-.447l-4.358.027s-.322-.045-.563.102c-.234.145-.385.48-.385.48s-.69 1.889-1.611 3.494c-1.941 3.387-2.72 3.566-3.036 3.356-.738-.49-.553-1.97-.553-3.02 0-3.284.484-4.653-.945-5.007-.474-.117-.822-.195-2.035-.208-1.555-.017-2.873.005-3.618.38-.497.25-.88.806-.646.838.289.039.941.18 1.287.665.448.623.432 2.028.432 2.028s.257 3.864-.6 4.344c-.59.33-1.396-.342-3.127-3.417-.886-1.574-1.557-3.315-1.557-3.315s-.129-.324-.359-.497c-.279-.21-.67-.277-.67-.277l-4.144.025s-.622.02-.85.297c-.203.247-.017.758-.017.758s3.245 7.797 6.917 11.728c3.37 3.604 7.195 3.367 7.195 3.367z" fill="#fff"/></svg>