<svg width="28" height="28" viewBox="0 0 28 28" fill="none" xmlns="http://www.w3.org/2000/svg"><path d="M1.459 26.516l1.818-6.635a12.773 12.773 0 0 1-1.71-6.401C1.57 6.42 7.314.676 14.377.676a12.738 12.738 0 0 1 9.059 3.755 12.723 12.723 0 0 1 3.747 9.057c-.003 7.062-5.75 12.804-12.807 12.804-.002 0 0 0 0 0h-.005a12.79 12.79 0 0 1-6.121-1.558l-6.791 1.782z" fill="#fff"/><path d="M1.46 26.85a.346.346 0 0 1-.24-.1.336.336 0 0 1-.085-.326l1.779-6.501a13.18 13.18 0 0 1-1.684-6.446C1.233 6.231 7.13.336 14.377.336a13.067 13.067 0 0 1 9.296 3.855 13.047 13.047 0 0 1 3.848 9.294c-.003 7.247-5.9 13.142-13.144 13.142-2.153 0-4.28-.53-6.17-1.537l-6.66 1.747a.332.332 0 0 1-.088.014z" fill="#fff"/><path d="M14.377.675a12.738 12.738 0 0 1 9.06 3.755 12.723 12.723 0 0 1 3.747 9.057c-.003 7.062-5.75 12.804-12.807 12.804h-.005c-2.145 0-4.25-.538-6.122-1.558l-6.79 1.782 1.818-6.636a12.773 12.773 0 0 1-1.71-6.4C1.57 6.419 7.315.675 14.378.675zm0-.675C6.943 0 .896 6.045.893 13.479a13.5 13.5 0 0 0 1.66 6.49L.81 26.335a.678.678 0 0 0 .65.854.625.625 0 0 0 .172-.023l6.535-1.713a13.536 13.536 0 0 0 6.206 1.515c7.436 0 13.484-6.048 13.486-13.479a13.392 13.392 0 0 0-3.944-9.536A13.406 13.406 0 0 0 14.377 0z" fill="#9A9293"/><path d="M21.906 5.96a10.575 10.575 0 0 0-7.526-3.12c-5.871 0-10.65 4.772-10.651 10.64 0 2.011.563 3.969 1.628 5.663l.253.404-1.075 3.926 4.029-1.057.39.232a10.62 10.62 0 0 0 5.418 1.484h.005c5.866 0 10.64-4.775 10.643-10.644a10.565 10.565 0 0 0-3.114-7.528z" fill="#9A9293"/><path fill-rule="evenodd" clip-rule="evenodd" d="M11.175 8.128c-.24-.535-.493-.546-.722-.554-.187-.008-.4-.008-.614-.008-.21 0-.559.08-.851.4-.295.32-1.123 1.095-1.123 2.67 0 1.574 1.15 3.097 1.307 3.31.161.21 2.216 3.547 5.468 4.83 2.704 1.065 3.255.854 3.84.801.587-.055 1.894-.774 2.16-1.523.267-.745.267-1.386.187-1.52-.079-.135-.292-.214-.614-.374-.318-.161-1.892-.933-2.187-1.041-.292-.106-.506-.158-.72.16-.213.32-.826 1.041-1.014 1.255-.187.213-.371.24-.693.081-.319-.16-1.349-.498-2.572-1.588-.95-.85-1.594-1.895-1.78-2.217-.188-.319-.022-.492.139-.653.145-.143.321-.374.482-.562.158-.187.21-.318.319-.532.105-.213.053-.4-.026-.561-.08-.16-.701-1.742-.986-2.374z" fill="#fff"/></svg>