<svg width="40" height="41" viewBox="0 0 40 41" fill="none" xmlns="http://www.w3.org/2000/svg"><circle cx="20" cy="20.961" r="20" fill="#4D4547"/><path d="M32.881 12.842c-.757-1.37-1.58-1.622-3.253-1.718-1.672-.115-5.877-.163-9.52-.163-3.65 0-7.857.048-9.527.162-1.67.097-2.494.347-3.259 1.72-.808 2.624-1.181 4.126-1.181 7.88v.009c0 4.132.401 6.507 1.181 7.862.765 1.37 1.587 1.618 3.257 1.734 1.672.1 5.88.158 9.529.158 3.643 0 7.848-.059 9.521-.156 1.674-.116 2.497-.364 3.254-1.735.787-1.354 1.185-3.729 1.185-7.861v-.014c0-4.152-.398-6.51-1.187-7.878z" fill="#fff"/><path d="M16.613 26.048v-10.65l8.728 5.325-8.728 5.325z" fill="#4D4547"/></svg>