<svg width="20" height="20" viewBox="0 0 20 20" fill="none" xmlns="http://www.w3.org/2000/svg"><g clip-path="url(#a)" fill="#163F59"><path d="M19.594 6.256c-.044-1.002-.206-1.691-.438-2.289a4.605 4.605 0 0 0-1.091-1.673 4.644 4.644 0 0 0-1.67-1.087c-.6-.232-1.286-.395-2.289-.439C13.096.72 12.776.71 10.214.71S7.332.72 6.325.765c-1.002.044-1.691.206-2.288.438a4.603 4.603 0 0 0-1.674 1.091 4.645 4.645 0 0 0-1.087 1.67c-.232.6-.394 1.286-.439 2.289-.048 1.01-.059 1.33-.059 3.892s.011 2.882.056 3.888c.044 1.003.206 1.692.438 2.29.24.633.612 1.2 1.091 1.673a4.646 4.646 0 0 0 1.67 1.087c.6.232 1.286.394 2.289.438 1.006.045 1.327.056 3.888.056 2.562 0 2.883-.011 3.889-.056 1.002-.044 1.691-.206 2.289-.438a4.827 4.827 0 0 0 2.76-2.76c.232-.601.395-1.287.439-2.29.044-1.006.055-1.326.055-3.888s-.004-2.882-.048-3.889zm-1.699 7.704c-.04.921-.195 1.419-.324 1.75a3.13 3.13 0 0 1-1.792 1.792c-.331.129-.832.284-1.75.324-.995.044-1.294.055-3.811.055-2.518 0-2.82-.01-3.812-.055-.921-.04-1.419-.195-1.75-.324a2.903 2.903 0 0 1-1.084-.704 2.933 2.933 0 0 1-.704-1.084c-.129-.332-.284-.833-.324-1.75-.044-.996-.055-1.294-.055-3.812 0-2.517.01-2.82.055-3.81.04-.922.195-1.42.324-1.752a2.85 2.85 0 0 1 .708-1.083 2.929 2.929 0 0 1 1.083-.704c.332-.13.834-.284 1.751-.325.995-.044 1.294-.055 3.811-.055 2.521 0 2.82.011 3.812.055.92.041 1.418.196 1.75.325.41.15.782.39 1.084.704.313.306.553.674.704 1.083.129.332.284.833.324 1.751.044.995.056 1.294.056 3.811 0 2.518-.012 2.813-.056 3.808z"/><path d="M10.207 5.298a4.848 4.848 0 0 0 0 9.694 4.848 4.848 0 0 0 0-9.694zm0 7.99A3.145 3.145 0 1 1 10.208 7a3.145 3.145 0 0 1 0 6.289zM6.3 5.106a1.132 1.132 0 1 1-2.263 0 1.132 1.132 0 0 1 2.263 0z"/></g><defs><clipPath id="a"><path fill="#fff" transform="matrix(-1 0 0 1 19.677 .71)" d="M0 0h18.867v18.867H0z"/></clipPath></defs></svg>