<svg width="20" height="21" viewBox="0 0 20 21" fill="none" xmlns="http://www.w3.org/2000/svg"><g clip-path="url(#a)"><path fill-rule="evenodd" clip-rule="evenodd" d="M17.048 11.668c.626.643 1.286 1.248 1.848 1.956a5.8 5.8 0 0 1 .662 1.005c.254.519.024 1.09-.418 1.121l-2.749-.001c-.709.062-1.274-.239-1.75-.749-.38-.408-.733-.842-1.099-1.264a2.654 2.654 0 0 0-.495-.463c-.375-.256-.7-.178-.915.234-.218.42-.268.883-.29 1.35-.029.682-.224.86-.875.892-1.389.069-2.708-.152-3.933-.89-1.08-.65-1.917-1.569-2.646-2.609-1.42-2.024-2.506-4.248-3.483-6.535-.22-.515-.06-.791.48-.801a70.877 70.877 0 0 1 2.692-.002c.364.006.606.226.746.589.485 1.255 1.079 2.45 1.824 3.557.199.295.4.59.689.797.319.23.561.154.711-.22a2.58 2.58 0 0 0 .159-.746c.07-.873.08-1.745-.044-2.615-.077-.543-.368-.895-.882-.998-.263-.052-.224-.155-.097-.313.221-.272.429-.442.843-.442h3.107c.489.102.597.333.664.851l.003 3.633c-.006.2.095.795.438.928.275.094.456-.137.62-.32.744-.831 1.275-1.813 1.75-2.83.21-.447.39-.911.566-1.375.13-.345.334-.514.702-.507l2.99.003a1.5 1.5 0 0 1 .264.017c.504.09.642.319.486.836-.245.813-.722 1.49-1.188 2.17-.499.726-1.032 1.428-1.526 2.158-.455.667-.419 1.003.146 1.583z" fill="#163F59"/></g><defs><clipPath id="a"><path fill="#fff" transform="translate(.81 .211)" d="M0 0h18.867v19.861H0z"/></clipPath></defs></svg>