<svg width="30" height="24" viewBox="0 0 30 24" fill="none" xmlns="http://www.w3.org/2000/svg"><path d="M4.063 21.707h19.615l-.046-.481a1.423 1.423 0 0 1 1.416-1.557h.44v-7.974h-.44a1.424 1.424 0 0 1-1.422-1.422c0-.087.003-.103.052-.616H4.063l.046.482a1.422 1.422 0 0 1-1.416 1.556h-.44v7.974h.44c.785 0 1.423.638 1.423 1.422 0 .088-.004.104-.053.616zm-.93-2.875v-6.3a2.306 2.306 0 0 0 1.847-1.995h17.782a2.305 2.305 0 0 0 1.846 1.995v6.3a2.307 2.307 0 0 0-1.846 1.996H4.98a2.307 2.307 0 0 0-1.847-1.996z" fill="#457DE9"/><path d="M13.87 19.959a4.246 4.246 0 0 0 3.025-1.253 4.264 4.264 0 0 0 .465-5.497l-.717.508a3.387 3.387 0 0 1-.37 4.368 3.396 3.396 0 0 1-4.804 0 3.398 3.398 0 1 1 4.654-4.947l.582-.658a4.267 4.267 0 0 0-2.834-1.074 4.27 4.27 0 0 0-4.275 4.276 4.272 4.272 0 0 0 4.275 4.277z" fill="#457DE9"/><path d="M15.089 14.565v-.88h-.779v-.499h-.879v.5h-.778v2.436h1.557v.678h-1.557v.879h.778v.5h.88v-.5h.778v-2.436h-1.557v-.678h1.557z" fill="#457DE9"/><path d="M15.79 6.943h1.557v-.88h-.778v-.498h-.88v.499h-.778v1.558H0v16.12h5.886v-.878H.879V8.5h25.983v14.363H6.765v.879H27.74V7.622H15.79v-.68z" fill="#457DE9"/><path d="M25.884 2.651c0-.089.004-.1.05-.615H6.325l.044.48a1.424 1.424 0 0 1-1.416 1.557h-.44v2.23h.88V4.91a2.307 2.307 0 0 0 1.846-1.995H25.02a2.307 2.307 0 0 0 1.847 1.995l-.002 1.392.879.002.003-2.23h-.44a1.424 1.424 0 0 1-1.423-1.423z" fill="#457DE9"/><path d="M2.258 0v6.303h.88V.88H29.12v14.363h-.061v.879H30V0H2.258z" fill="#457DE9"/><path d="M16.129 4.663a3.39 3.39 0 0 1 3.02 1.841l.782-.402a4.274 4.274 0 0 0-7.604 0l.782.402a3.392 3.392 0 0 1 3.02-1.841zM5.76 15.243h.88v.879h-.88v-.88zm15.354 0h.88v.879h-.88v-.88z" fill="#457DE9"/></svg>