<svg width="30" height="20" viewBox="0 0 30 20" fill="none" xmlns="http://www.w3.org/2000/svg"><path d="M27.5 0h-25A2.503 2.503 0 0 0 0 2.5v15A2.503 2.503 0 0 0 2.5 20h25a2.503 2.503 0 0 0 2.5-2.5v-15A2.503 2.503 0 0 0 27.5 0zM29 17.5a1.5 1.5 0 0 1-1.5 1.5h-25A1.5 1.5 0 0 1 1 17.5v-15A1.5 1.5 0 0 1 2.5 1h25A1.5 1.5 0 0 1 29 2.5v15z" fill="#457DE9"/><path d="M8.5 3h-4A1.5 1.5 0 0 0 3 4.5v3A1.5 1.5 0 0 0 4.5 9h4A1.5 1.5 0 0 0 10 7.5v-3A1.5 1.5 0 0 0 8.5 3zM9 4.5v1H8V4h.5a.5.5 0 0 1 .5.5zm-3 1V4h1v1.5H6zM4.5 4H5v1.5H4v-1a.5.5 0 0 1 .5-.5zM4 7.5v-1h2V8H4.5a.5.5 0 0 1-.5-.5zm5 0a.5.5 0 0 1-.5.5H7V6.5h2v1zM24 3c-.629 0-1.241.2-1.75.57a3 3 0 1 0 0 4.86A3 3 0 1 0 24 3zm-5.5 3a1.996 1.996 0 0 1 3.036-1.708 2.987 2.987 0 0 0 0 3.416A1.997 1.997 0 0 1 18.5 6zM24 8a2 2 0 1 1 0-4 2 2 0 0 1 0 4zM8 16H4a.5.5 0 0 1-.5-.5v-2A.5.5 0 0 1 4 13h4a.5.5 0 0 1 .5.5v2a.5.5 0 0 1-.5.5zm-3.5-1h3v-1h-3v1zm9.5 1h-4a.5.5 0 0 1-.5-.5v-2a.5.5 0 0 1 .5-.5h4a.5.5 0 0 1 .5.5v2a.5.5 0 0 1-.5.5zm-3.5-1h3v-1h-3v1zm9.5 1h-4a.5.5 0 0 1-.5-.5v-2a.5.5 0 0 1 .5-.5h4a.5.5 0 0 1 .5.5v2a.5.5 0 0 1-.5.5zm-3.5-1h3v-1h-3v1zm9.5 1h-4a.5.5 0 0 1-.5-.5v-2a.5.5 0 0 1 .5-.5h4a.5.5 0 0 1 .5.5v2a.5.5 0 0 1-.5.5zm-3.5-1h3v-1h-3v1z" fill="#457DE9"/></svg>