<svg width="26" height="30" viewBox="0 0 26 30" fill="none" xmlns="http://www.w3.org/2000/svg"><path d="M17.903 1.935a5.329 5.329 0 0 0-5.323 5.323h.968a4.36 4.36 0 0 1 4.355-4.355v-.968zm4.356 5.323a4.36 4.36 0 0 1-4.355 4.355v.968a5.329 5.329 0 0 0 5.322-5.323h-.967z" fill="#457DE9"/><path d="M25.161 7.258C25.161 3.256 21.905 0 17.903 0a7.262 7.262 0 0 0-6.414 3.871H.484A.483.483 0 0 0 0 4.355v25.161c0 .268.216.484.484.484h21.29a.483.483 0 0 0 .484-.484V13.051a7.244 7.244 0 0 0 2.903-5.793zm-13.05 4.355H2.902V6.774h7.767c-.01.16-.025.32-.025.484 0 1.635.55 3.14 1.465 4.355zm9.18 17.42H.967V4.838h10.1a7.16 7.16 0 0 0-.277.967H2.42a.483.483 0 0 0-.484.484v5.807c0 .268.217.484.484.484h10.566a7.223 7.223 0 0 0 8.305 1.092v15.36zm-3.388-15.485a6.298 6.298 0 0 1-6.29-6.29 6.298 6.298 0 0 1 6.29-6.29 6.298 6.298 0 0 1 6.29 6.29 6.298 6.298 0 0 1-6.29 6.29z" fill="#457DE9"/><path d="M18.387 9.677c.8 0 1.452-.651 1.452-1.451s-.652-1.452-1.452-1.452h-.968a.484.484 0 0 1 0-.968h2.42V4.84h-1.452v-.97h-.968v.968c-.8 0-1.451.651-1.451 1.451s.651 1.452 1.451 1.452h.968a.484.484 0 0 1 0 .968h-2.42v.967h1.452v.968h.968v-.968zM5.323 14.516H2.42a.483.483 0 0 0-.484.484v2.903c0 .268.216.484.484.484h2.903a.483.483 0 0 0 .484-.484V15a.483.483 0 0 0-.484-.484zm-.484 2.903H2.904v-1.935h1.935v1.935zm5.323-2.903H7.259a.483.483 0 0 0-.484.484v2.903c0 .268.216.484.484.484h2.903a.483.483 0 0 0 .484-.484V15a.483.483 0 0 0-.484-.484zm-.484 2.903H7.743v-1.935h1.935v1.935zM15 14.516h-2.904a.483.483 0 0 0-.484.484v2.903c0 .268.216.484.484.484H15a.483.483 0 0 0 .484-.484V15a.483.483 0 0 0-.484-.484zm-.485 2.903H12.58v-1.935h1.935v1.935zm-9.192 1.936H2.42a.483.483 0 0 0-.484.484v2.903c0 .268.216.484.484.484h2.903a.483.483 0 0 0 .484-.484V19.84a.483.483 0 0 0-.484-.484zm-.484 2.903H2.904v-1.935h1.935v1.935zm5.323-2.903H7.259a.483.483 0 0 0-.484.484v2.903c0 .268.216.484.484.484h2.903a.483.483 0 0 0 .484-.484V19.84a.483.483 0 0 0-.484-.484zm-.484 2.903H7.743v-1.935h1.935v1.935zM15 19.355h-2.904a.483.483 0 0 0-.484.484v2.903c0 .268.216.484.484.484H15a.483.483 0 0 0 .484-.484V19.84a.483.483 0 0 0-.484-.484zm-.485 2.903H12.58v-1.935h1.935v1.935zm1.937-2.419v7.742c0 .268.216.484.484.484h2.903a.483.483 0 0 0 .484-.484v-7.742a.483.483 0 0 0-.484-.484h-2.903a.483.483 0 0 0-.484.484zm.968.484h1.935v6.774H17.42v-6.774zM5.323 24.194H2.42a.483.483 0 0 0-.484.484v2.903c0 .268.216.484.484.484h2.903a.483.483 0 0 0 .484-.484v-2.903a.483.483 0 0 0-.484-.484zm-.484 2.903H2.904v-1.936h1.935v1.936zm5.323-2.903H7.259a.483.483 0 0 0-.484.484v2.903c0 .268.216.484.484.484h2.903a.483.483 0 0 0 .484-.484v-2.903a.483.483 0 0 0-.484-.484zm-.484 2.903H7.743v-1.936h1.935v1.936zM15 24.194h-2.904a.483.483 0 0 0-.484.484v2.903c0 .268.216.484.484.484H15a.483.483 0 0 0 .484-.484v-2.903a.483.483 0 0 0-.484-.484zm-.485 2.903H12.58v-1.936h1.935v1.936z" fill="#457DE9"/></svg>