<svg width="30" height="27" viewBox="0 0 30 27" fill="none" xmlns="http://www.w3.org/2000/svg"><path d="M16.26 22.093a1.322 1.322 0 0 0-1.69-.788 1.32 1.32 0 0 0 .451 2.557 1.32 1.32 0 0 0 1.239-1.77zm-1.089.864a.439.439 0 1 1-.301-.825.439.439 0 0 1 .301.825z" fill="#457DE9"/><path d="M29.973 18.04l-.601-1.651a.438.438 0 0 0-.224-.247l-.003-.001-.02-.008-.02-.008-.004-.002a.437.437 0 0 0-.292.003l-1.437.523-3.057-8.4-1.202-3.303a.441.441 0 0 0-.563-.263.44.44 0 0 0-.263.564l1.052 2.89-5.643 2.054h-.001l-3.44 1.252-2.306-6.331 3.029-1.102.651 1.789a.44.44 0 0 0 .563.262l2.203-.801a.437.437 0 0 0 .284-.476v-.001a.448.448 0 0 0-.007-.034c0-.003 0-.006-.002-.01a.416.416 0 0 0-.013-.042l-.65-1.79 3.027-1.101.651 1.789a.442.442 0 0 0 .564.262.44.44 0 0 0 .263-.563l-.802-2.202a.442.442 0 0 0-.563-.263l-3.852 1.402h-.002l-.004.002-2.195.8h-.004l-.006.003-3.848 1.4a.437.437 0 0 0-.262.564l2.605 7.157 2.505 6.883a3.633 3.633 0 0 0-.993-.158L8.745 1.446A2.2 2.2 0 0 0 5.929.133L.29 2.166H.289l-.03.013-.01.005a.184.184 0 0 0-.028.015l-.011.006c-.01.005-.017.011-.025.017l-.011.007-.022.019-.011.01c-.007.005-.013.012-.02.019l-.01.01-.017.022-.01.012-.014.021-.009.014-.012.022-.008.015-.009.023-.007.016-.006.022-.006.019-.005.022-.003.02c-.002.007-.002.014-.003.022L0 2.557V2.6l.002.023.002.02.005.023.004.02.007.024.006.019v.001l.601 1.652.017.035c.004.01.007.02.012.028l.023.035.015.022.03.034.015.015c.012.012.025.021.038.031l.014.011a.43.43 0 0 0 .044.026l.013.007a.431.431 0 0 0 .047.02l.014.005a.45.45 0 0 0 .05.012l.015.003a.43.43 0 0 0 .104.003h.008a.475.475 0 0 0 .03-.004l.013-.003.024-.006.025-.007.012-.004h.001l5.226-1.886 6.197 17.026a3.668 3.668 0 0 0-1.034 4.011 3.674 3.674 0 0 0 3.441 2.41 3.66 3.66 0 0 0 1.253-.221 3.639 3.639 0 0 0 2.066-1.894c.22-.47.334-.973.343-1.477l11.028-4.01.008-.004a.398.398 0 0 0 .033-.014l.013-.007.026-.014.014-.01.022-.014.006-.006.027-.022.004-.005a.528.528 0 0 0 .025-.026l.005-.006a.476.476 0 0 0 .022-.027l.002-.003a.445.445 0 0 0 .021-.032l.003-.007a.418.418 0 0 0 .017-.03l.005-.013c.004-.009.008-.018.01-.027l.006-.018.007-.022a.445.445 0 0 0 .007-.033l.001-.008a.437.437 0 0 0-.022-.216zM17.181 3.208l.5 1.377-1.376.5-.501-1.376 1.377-.5zm2.605 7.158l.5 1.376-1.376.501-.501-1.376 1.377-.501zm-5.23 1.903l3.027-1.102.652 1.79a.44.44 0 0 0 .563.262L21 12.417a.439.439 0 0 0 .262-.563l-.65-1.789 3.028-1.102 2.906 7.986-8.767 3.188a3.686 3.686 0 0 0-.546-.509l-2.678-7.359zM7.092 2.047c-.002-.007-.006-.014-.009-.02l-.008-.021-.01-.017-.011-.022-.01-.014-.015-.022-.009-.01-.019-.023-.008-.008-.022-.022-.007-.005a.413.413 0 0 0-.026-.021l-.004-.003a.444.444 0 0 0-.032-.02L6.9 1.817a.441.441 0 0 0-.199-.059h-.05a.43.43 0 0 0-.036.004l-.017.004-.026.005c-.01.002-.02.006-.029.009l-.013.004L1.302 3.67l-.3-.826L6.228.96h.001a1.32 1.32 0 0 1 1.69.787l6.271 17.231a3.692 3.692 0 0 0-.825.301L7.093 2.047zm10.45 21.673a2.765 2.765 0 0 1-1.57 1.439 2.775 2.775 0 0 1-.952.169 2.792 2.792 0 0 1-2.615-1.832 2.786 2.786 0 0 1 2.615-3.736c1.165 0 2.216.736 2.615 1.832a2.764 2.764 0 0 1-.093 2.128zm1.044-2.006a3.723 3.723 0 0 0-.3-.826l10.41-3.786.3.826-10.41 3.785z" fill="#457DE9"/></svg>