<svg width="30" height="26" viewBox="0 0 30 26" fill="none" xmlns="http://www.w3.org/2000/svg"><path d="M19.219 0h-6.563a.469.469 0 1 0 0 .937h6.563a.469.469 0 1 0 0-.937z" fill="#457DE9"/><path d="M16.875 0c-.26 0-.469.21-.469.469v2.343a.469.469 0 1 0 .938 0V.47a.469.469 0 0 0-.469-.47z" fill="#457DE9"/><path d="M16.875 2.344H15a.469.469 0 1 0 0 .937h1.875a.469.469 0 1 0 0-.937z" fill="#457DE9"/><path d="M15 0c-.26 0-.469.21-.469.469v2.343a.469.469 0 1 0 .938 0V.47A.469.469 0 0 0 15 0zm-2.344 9.375H7.031a.469.469 0 1 0 0 .938h5.625a.469.469 0 1 0 0-.938zm6.563-.937c-.26 0-.469.21-.469.468v7.969a.468.468 0 1 0 .938 0V8.906a.469.469 0 0 0-.47-.469zm10.312 11.718h-1.396a.468.468 0 1 0 0 .938h1.396a.468.468 0 1 0 0-.938z" fill="#457DE9"/><path d="M29.531 20.156a.468.468 0 0 0-.468.469V22.5a.468.468 0 1 0 .937 0v-1.875c0-.26-.21-.469-.469-.469zM4.688 22.031h-.002l-3.281.01a.468.468 0 0 0 .001.938h.002l3.28-.01a.468.468 0 0 0 0-.938zm24.375-4.218h-.47a.468.468 0 1 0 0 .937h.47a.468.468 0 1 0 0-.938z" fill="#457DE9"/><path d="M29.063 14.531a.47.47 0 0 0-.47.469v5.625a.468.468 0 1 0 .938 0V15c0-.26-.21-.469-.468-.469zM26.25 8.438h-7.031a.469.469 0 1 0 0 .937h7.031a.469.469 0 1 0 0-.938z" fill="#457DE9"/><path d="M29.488 14.804L26.675 8.71a.469.469 0 1 0-.851.393l2.813 6.093a.469.469 0 0 0 .85-.392zM1.406 20.156a.468.468 0 0 0-.468.469v1.904a.468.468 0 1 0 .937 0v-1.904c0-.26-.21-.469-.469-.469zm-.937-6.093a.468.468 0 0 0-.469.468v6.094a.468.468 0 1 0 .937 0v-6.094a.468.468 0 0 0-.468-.469z" fill="#457DE9"/><path d="M19.219 14.063H.469a.468.468 0 1 0 0 .937h18.75a.468.468 0 1 0 0-.938zM2.812 20.156H.47a.468.468 0 1 0 0 .938h2.343a.468.468 0 1 0 0-.938zm4.688-.937a3.285 3.285 0 0 0-3.281 3.28A3.285 3.285 0 0 0 7.5 25.782a3.285 3.285 0 0 0 3.281-3.281A3.285 3.285 0 0 0 7.5 19.219zm0 5.625A2.346 2.346 0 0 1 5.156 22.5 2.346 2.346 0 0 1 7.5 20.156 2.346 2.346 0 0 1 9.844 22.5 2.346 2.346 0 0 1 7.5 24.844z" fill="#457DE9"/><path d="M7.5 21.094c-.775 0-1.406.63-1.406 1.406 0 .775.63 1.406 1.406 1.406.775 0 1.406-.63 1.406-1.406 0-.775-.63-1.406-1.406-1.406zm0 1.875a.469.469 0 1 1 0-.938.469.469 0 0 1 0 .938zm15.469-1.875c-.776 0-1.407.63-1.407 1.406a1.407 1.407 0 0 0 2.813 0c0-.775-.63-1.406-1.406-1.406zm0 1.875a.469.469 0 1 1 0-.938.469.469 0 0 1 0 .938z" fill="#457DE9"/><path d="M22.969 19.219a3.285 3.285 0 0 0-3.282 3.28 3.285 3.285 0 0 0 3.282 3.282A3.286 3.286 0 0 0 26.25 22.5a3.285 3.285 0 0 0-3.281-3.281zm0 5.625a2.346 2.346 0 0 1-2.344-2.344 2.346 2.346 0 0 1 2.344-2.344 2.346 2.346 0 0 1 2.343 2.344 2.346 2.346 0 0 1-2.343 2.344z" fill="#457DE9"/><path d="M20.168 22.031h-9.855a.468.468 0 1 0 0 .938h9.855a.468.468 0 1 0 0-.938zm9.362 0h-3.75a.468.468 0 1 0 0 .938h3.75a.468.468 0 1 0 0-.938zm-.467-7.5h-5.625a.468.468 0 1 0 0 .938h5.625a.468.468 0 1 0 0-.938z" fill="#457DE9"/><path d="M23.438 14.531c-.776 0-1.407-.63-1.407-1.406a.469.469 0 1 0-.937 0 2.346 2.346 0 0 0 2.343 2.344.468.468 0 1 0 0-.938z" fill="#457DE9"/><path d="M21.563 8.438c-.26 0-.47.21-.47.468v4.219a.468.468 0 1 0 .938 0V8.906a.469.469 0 0 0-.468-.469zM19.219 0c-.26 0-.469.21-.469.469V14.53a.468.468 0 1 0 .938 0V.47a.469.469 0 0 0-.47-.469zm-6.563 0a.469.469 0 0 0-.469.469V14.53a.468.468 0 1 0 .938 0V.47a.469.469 0 0 0-.469-.47zM7.031 3.75a.468.468 0 0 0-.468.469V14.53a.468.468 0 1 0 .937 0V4.22a.469.469 0 0 0-.469-.469zm2.813 5.625c-.26 0-.469.21-.469.469v1.406a.469.469 0 1 0 .938 0V9.844a.469.469 0 0 0-.47-.469z" fill="#457DE9"/><path d="M12.656 3.75H7.031a.469.469 0 1 0 0 .938h5.625a.469.469 0 1 0 0-.938z" fill="#457DE9"/><path d="M9.844 3.75c-.26 0-.469.21-.469.469v.937a.469.469 0 1 0 .938 0V4.22a.469.469 0 0 0-.47-.469zM1.406 7.031a.468.468 0 0 0-.468.469v7.031a.468.468 0 1 0 .937 0V7.5a.469.469 0 0 0-.469-.469z" fill="#457DE9"/><path d="M7.031 7.031H1.406a.469.469 0 1 0 0 .938h5.625a.469.469 0 1 0 0-.938z" fill="#457DE9"/><path d="M3.281 7.031a.469.469 0 0 0-.469.469v1.406a.469.469 0 1 0 .938 0V7.5a.469.469 0 0 0-.469-.469z" fill="#457DE9"/><path d="M5.156 8.438H3.281a.469.469 0 1 0 0 .937h1.875a.469.469 0 1 0 0-.938z" fill="#457DE9"/><path d="M5.156 7.031a.468.468 0 0 0-.468.469v1.406a.469.469 0 1 0 .937 0V7.5a.469.469 0 0 0-.469-.469z" fill="#457DE9"/></svg>