<svg xmlns="http://www.w3.org/2000/svg" width="21" height="18" viewBox="0 0 21 18"><path fill="#ee2665" d="M20.22 3.095c.507 0 .88.466.756.946l-1.585 6.191a.777.777 0 0 1-.711.576l-12.47.715c.223.509.739 1.858 1.332 1.858h8.714c1.304 0 2.366 1.036 2.366 2.31 0 1.273-1.062 2.31-2.366 2.31-1.635 0-2.784-1.592-2.224-3.096H9.76C10.32 16.41 9.169 18 7.536 18c-1.967 0-3.072-2.224-1.862-3.731-.671-.519-1-2.29-1.124-2.986-.482-2.682-2.201-8.167-1.898-9.76H.78A.771.771 0 0 1 0 .76C0 .341.35 0 .78 0h2.586c.404 0 .74.301.777.694l.22 2.402zM7.536 16.476a.796.796 0 0 0 .805-.786.796.796 0 0 0-.805-.785.796.796 0 0 0-.805.785c0 .434.36.786.805.786zm8.72 0a.796.796 0 0 0 .804-.786.797.797 0 0 0-.805-.785.797.797 0 0 0-.805.785c0 .434.361.786.805.786zM19.22 4.62H4.504L6 10.009l12.016-.69z"/></svg>