<svg xmlns="http://www.w3.org/2000/svg" width="73" height="73" viewBox="0 0 73 73"><path fill="#9f9f9f" d="M25.534 37.927c-1.323-.764-2.298-1.75-2.9-2.929-1.859-3.642-.76-11.124-.713-11.44l.19-1.258 1.13.579s.412.211 1.055.583c2.124 1.229 5.895 3.694 7.28 6.41 1.934 3.788-.525 8.811-.631 9.024l-.28.563-.627-.062c-.096-.009-2.387-.246-4.504-1.47zm-1.963-12.77c-.223 2.231-.482 6.711.69 9.008.44.86 1.174 1.592 2.187 2.177 1.148.665 2.392.986 3.125 1.13.525-1.31 1.551-4.464.376-6.768-1.17-2.29-4.713-4.569-6.378-5.547zm14.56 19.32c-.677-.39-1.228-.805-1.616-1.204a.917.917 0 0 1 .018-1.295.917.917 0 0 1 1.292.018c1.315 1.353 6.68 3.85 11.53 1.7C54.9 41.24 59.85 34.626 61.47 27.667c-2.579.192-4.886-.184-7.128-.55-3.82-.622-7.427-1.21-12.213.958-2.952 1.338-6.727 5.85-6.837 10.405 4.915-3.27 10.973-5.69 18.256-7.31a.914.914 0 0 1 .397 1.787c-13.21 2.94-22.205 8.557-27.498 17.173a.913.913 0 0 1-1.235.313l-.022-.014a.916.916 0 0 1-.3-1.259c2.245-3.654 5.11-6.791 8.628-9.436-.619-5.783 4.088-11.62 7.857-13.327 5.29-2.396 9.342-1.735 13.26-1.097 2.583.421 5.023.819 7.85.407l1.25-.182-.22 1.246c-1.395 7.944-7.04 15.762-13.422 18.591-4.317 1.914-9.19.71-11.964-.893zm17.741-24.39A25.31 25.31 0 0 0 49.2 14.47c-12.148-7.024-27.68-2.856-34.693 9.31-7.014 12.167-2.852 27.724 9.296 34.748 12.147 7.024 27.68 2.856 34.693-9.31a25.36 25.36 0 0 0 2.955-8.087 49.195 49.195 0 0 0 1.86-1.959A26.891 26.891 0 0 1 59.85 50c-7.445 12.916-23.934 17.341-36.83 9.885-12.895-7.457-17.313-23.972-9.868-36.888 7.445-12.915 23.934-17.34 36.83-9.884a26.883 26.883 0 0 1 7.923 6.967 27.657 27.657 0 0 0-2.032.006zM3.666 47.762a1.818 1.818 0 0 1-.064-.897 1.63 1.63 0 0 1 .405-.84c.217-.242.47-.412.76-.51a1.7 1.7 0 0 1 1.353.084c.438.215.736.554.894 1.015.159.465.13.917-.085 1.356-.215.44-.554.738-1.018.897-.29.1-.596.12-.914.063a1.624 1.624 0 0 1-.832-.417 1.82 1.82 0 0 1-.499-.751zM.793 32.789l-.13 2.82 5.211.244-.036.775-5.841-.272.167-3.596zm.451-5.753l.17-.753 5.704 1.294-.17.753-4.396-.997 3.759 3.81-.172.758-5.703-1.295.172-.757 4.395.998zm8.196-5.05l-.316.707-4.762-2.134-1.178 2.636 4.762 2.135-.315.705-5.338-2.393 1.81-4.05zm1.134-6.638c.469.33.823.697 1.062 1.1.238.405.348.816.329 1.235-.019.42-.164.822-.435 1.209a2.235 2.235 0 0 1-.981.808 2.24 2.24 0 0 1-1.27.123c-.455-.08-.91-.276-1.365-.59l-.345-.242c-.46-.324-.81-.69-1.051-1.098a2.24 2.24 0 0 1-.334-1.25 2.23 2.23 0 0 1 .424-1.203c.27-.384.6-.658.99-.82.39-.163.817-.2 1.28-.11.462.089.927.298 1.394.626zm-.75.412c-.567-.4-1.083-.591-1.546-.577-.464.015-.84.228-1.127.638-.28.4-.349.82-.206 1.263.143.444.481.857 1.016 1.243l.351.247c.55.387 1.064.576 1.54.565.477-.01.858-.218 1.143-.624.286-.408.359-.83.219-1.262-.14-.433-.485-.847-1.035-1.244zm5.06-3.135l-1.75 1.717.679 1.48-.569.558-2.497-5.749.482-.473 5.69 2.616-.565.554zm-2.024 1.103l1.42-1.394-2.626-1.259zm5.348-8.904l3.223 4.887-.644.425-2.875-4.36-1.75 1.158 1.192 1.995c.395.672.65 1.204.766 1.597.116.393.13.73.038 1.01-.09.28-.296.53-.614.747l-.212.14-.347-.528.13-.095c.197-.153.312-.327.345-.52.033-.194-.008-.44-.123-.74-.114-.301-.339-.731-.673-1.291l-1.462-2.437zm6.56-2.973l2.204 5.425-.714.29-1.966-4.84-1.942.792.777 2.19c.255.737.402 1.31.439 1.717.037.408-.017.74-.16.998-.145.257-.394.46-.75.611l-.234.096-.238-.585.146-.068c.224-.112.37-.259.44-.443.07-.183.079-.433.025-.75-.053-.317-.19-.783-.407-1.398l-.957-2.676zm6.394 1.666l-2.479.53.433 2.03 2.88-.616.13.618-3.632.777-1.221-5.727 3.593-.77.132.619-2.84.607.394 1.845 2.478-.53zm2.743.105l.103 2.29-.77.035-.263-5.85 2.154-.098c.64-.028 1.148.113 1.525.423s.578.735.602 1.273c.025.568-.132 1.014-.473 1.336-.34.323-.841.5-1.502.53zm-.028-.63l1.384-.063c.412-.018.723-.13.934-.335.21-.204.307-.49.29-.858-.015-.349-.137-.623-.366-.822-.229-.2-.534-.295-.917-.285l-1.429.064zm8.945-1.885l-2.799-.34-.626 5.188-.77-.093.702-5.815 3.569.432zm4.386 3.742l-2.437-.697-.57 1.996 2.832.81-.173.607-3.573-1.021L44.892.912l3.534 1.01-.173.607-2.792-.798-.517 1.814 2.437.696zm4.748 5.086l-.696-.341 1.189-2.431-2.648-1.3-1.189 2.432-.692-.34 2.572-5.26.693.34-1.106 2.262 2.647 1.299 1.106-2.262.696.342zm4.89 3.533l-.617-.47 1.636-2.155-2.346-1.787-1.636 2.155-.614-.467 3.539-4.662.614.467L55.9 8.554l2.347 1.786 1.521-2.004.618.47zm6.174 2.625c-.429.381-.867.641-1.314.78-.448.14-.873.152-1.275.037-.403-.116-.76-.35-1.074-.703a2.24 2.24 0 0 1-.558-1.143 2.248 2.248 0 0 1 .173-1.265c.183-.426.48-.824.888-1.195l.316-.28c.42-.374.857-.63 1.31-.77.451-.14.882-.153 1.29-.037.409.116.766.346 1.071.691.311.351.5.736.568 1.154.068.418.006.842-.188 1.272-.194.43-.504.835-.93 1.214zm-.226-.825c.518-.461.824-.92.917-1.374.093-.455-.027-.87-.36-1.246-.323-.365-.716-.529-1.18-.492-.462.037-.943.27-1.441.703l-.321.285c-.503.447-.805.904-.905 1.37-.1.468.015.887.343 1.258.33.373.722.541 1.175.505.453-.036.935-.276 1.447-.72zm6.523 9.921c.096.28.117.578.065.897a1.63 1.63 0 0 1-.403.84c-.217.242-.47.413-.759.512-.463.16-.914.132-1.353-.082a1.703 1.703 0 0 1-.896-1.015 1.712 1.712 0 0 1 .082-1.355c.215-.44.554-.74 1.017-.899.291-.1.596-.122.914-.064.319.058.596.196.833.415.237.22.403.47.5.751zm2.895 14.968l.127-2.821-5.212-.235.035-.776 5.841.264-.16 3.596zm-.449 5.78l-.17.753-5.704-1.29.17-.753 4.396.994-3.762-3.808.171-.757 5.704 1.29-.17.757-4.396-.994zm-8.18 5.035l.315-.71 4.766 2.128 1.173-2.638-4.765-2.128.314-.705 5.341 2.384-1.803 4.053zM62.46 57.61c-.47-.33-.824-.695-1.064-1.099-.239-.403-.35-.814-.331-1.234.018-.42.163-.822.433-1.208.264-.378.59-.649.98-.81.39-.163.813-.205 1.269-.125.456.078.911.274 1.366.587l.346.242c.46.323.811.688 1.053 1.096.24.408.353.824.335 1.25a2.231 2.231 0 0 1-.422 1.203 2.269 2.269 0 0 1-.988.822c-.39.164-.817.201-1.28.113-.462-.089-.927-.297-1.395-.625zm.749-.412c.568.397 1.084.589 1.547.573.464-.015.84-.229 1.126-.64.28-.399.348-.82.204-1.263-.143-.443-.483-.856-1.018-1.241l-.352-.247c-.55-.386-1.064-.573-1.54-.562-.478.011-.858.22-1.142.627-.285.408-.358.828-.217 1.261.14.432.486.847 1.036 1.242zm-5.057 3.144l1.747-1.72-.68-1.48.568-.558 2.506 5.745-.482.474-5.694-2.607.564-.555zm2.023-1.107l-1.418 1.396 2.628 1.255zm-5.335 8.913l-3.23-4.882.642-.426 2.882 4.355 1.748-1.16-1.194-1.994c-.396-.67-.652-1.202-.769-1.595-.117-.393-.13-.73-.04-1.01.091-.28.296-.53.614-.748l.211-.14.348.527-.129.095c-.197.154-.312.327-.345.521-.032.194.01.44.124.74.115.3.34.73.675 1.29l1.466 2.434zm-6.556 2.984l-2.212-5.422.714-.292 1.973 4.837 1.94-.794-.78-2.19c-.256-.736-.404-1.307-.441-1.715-.038-.408.015-.741.159-.998.144-.258.393-.462.748-.613l.234-.096.238.585-.145.068c-.224.112-.37.26-.44.443-.07.184-.078.434-.024.75.055.317.191.783.41 1.397l.96 2.675zm-6.396-1.657l2.477-.534-.436-2.03-2.878.621-.132-.618 3.632-.782 1.23 5.726-3.593.774-.133-.617 2.839-.612-.396-1.845-2.478.534zm-2.744-.101l-.106-2.29.77-.036.272 5.85-2.154.1c-.64.03-1.148-.11-1.526-.42-.377-.31-.579-.734-.604-1.272-.026-.568.13-1.014.471-1.337.34-.323.84-.5 1.501-.531zm.03.63l-1.385.065c-.411.02-.723.131-.933.336-.21.205-.307.491-.29.859.017.349.14.623.368.822.23.199.535.293.918.284l1.428-.067zm-8.943 1.9l2.8.334.619-5.188.77.092-.694 5.815-3.57-.427zm-4.39-3.736l2.438.693.566-1.997-2.832-.805.172-.607 3.574 1.015-1.596 5.635-3.536-1.005.173-.607 2.793.793.514-1.814-2.438-.693zm-4.754-5.078l.696.34-1.185 2.433 2.65 1.295 1.185-2.434.693.34-2.565 5.263-.693-.339 1.103-2.263-2.65-1.295-1.102 2.263-.697-.34zm-4.915-3.542l.617.47-1.634 2.156 2.348 1.785 1.634-2.157.614.467-3.535 4.666-.614-.467 1.52-2.006-2.348-1.785-1.52 2.006-.618-.47zm-6.16-2.6c.427-.382.865-.643 1.312-.783.447-.14.872-.153 1.275-.038.403.115.761.349 1.075.701.306.345.493.726.56 1.143.068.417.01.838-.172 1.264-.182.427-.477.826-.886 1.197l-.315.28c-.42.375-.856.632-1.308.773-.452.14-.882.154-1.291.038a2.224 2.224 0 0 1-1.072-.689 2.273 2.273 0 0 1-.57-1.153 2.193 2.193 0 0 1 .187-1.273c.192-.43.502-.835.928-1.215zm.227.825c-.518.461-.823.92-.915 1.375-.092.455.028.87.361 1.245.324.364.717.528 1.18.49.464-.037.944-.272 1.441-.704l.321-.286c.502-.448.803-.905.902-1.372.1-.468-.015-.887-.345-1.257-.33-.373-.722-.54-1.175-.503-.453.037-.935.278-1.446.723z"/></svg>