<svg xmlns="http://www.w3.org/2000/svg" viewBox="0 0 50.92 51.32"><defs><style>.cls-1{isolation:isolate}.cls-2{fill:#259926;fill-rule:evenodd}</style></defs><title>Ресурс 1</title><g id="Слой_2" data-name="Слой 2"><g id="_гарантия_возврата" data-name="гарантия возврата" class="cls-1"><path class="cls-2" d="M48.77 23.63l-.23-.44a1.31 1.31 0 0 0-.65 1.18 1.52 1.52 0 1 0 3 0 1.31 1.31 0 0 0-.67-1.17l-.22.44a.88.88 0 0 1 .44.73 1 1 0 0 1-1 1 1 1 0 0 1-1.07-1 .84.84 0 0 1 .4-.74zM13.46 6.2a.76.76 0 0 0 .29-1.12.72.72 0 0 0-.86-.3.67.67 0 0 0 .11-.84.76.76 0 0 0-1.1-.18l-1.22.78L12.21 7zm-2.15-1.56L12 4.2a.38.38 0 1 1 .41.64l-.69.44zm1.36.57a.41.41 0 0 1 .6.09.4.4 0 0 1-.16.59l-.71.45-.4-.68zM16 4.93a1.45 1.45 0 0 0 .74-2 1.45 1.45 0 0 0-2-.76 1.44 1.44 0 0 0-.75 2 1.46 1.46 0 0 0 2.01.76zm-1.09-2.34a1 1 0 0 1 1.32.57 1 1 0 1 1-1.77.84 1 1 0 0 1 .45-1.41zm3.14-1.16c.34-.1.66 0 .74.22s-.17.45-.53.55l-.56.17.12.43.57-.17c.43-.12.71-.08.79.2s-.11.5-.51.62a1.24 1.24 0 0 1-.93-.1l-.17.4a1.44 1.44 0 0 0 1.24.13c.65-.19 1-.67.88-1.14a.73.73 0 0 0-.85-.49.72.72 0 0 0 .42-.82C19.12 1 18.57.8 18 1a1.48 1.48 0 0 0-.95.76l.34.23a1.2 1.2 0 0 1 .66-.56zm30 19.3l-.45.06.29 2.26.45-.05-.11-.88 2.46-.32-.07-.51-2.46.32zM47 28l.15.23a1 1 0 0 0 .18-1.53l-.2.19a.69.69 0 0 1 .23.59.67.67 0 0 1-.36.52zm-41.43-.42A19.66 19.66 0 1 0 38.1 10.67c.89-1.1 1.82-2.18 2.81-3.24 0-.36.05-.71-.43-.93a25 25 0 0 0-3.61 3.17 19.63 19.63 0 0 0-31.3 17.91zM23 7a18.44 18.44 0 0 1 13 3.5c-4.25 4.39-10.15 11.57-12.42 17.85-1.05-1.49-2.58-5.21-4.21-5.41S16.11 24.48 15.2 26c2.94-.29 7.08 8.35 7.26 9.32A19.18 19.18 0 0 0 26.33 32a73.71 73.71 0 0 1 11.06-20.44A18.5 18.5 0 1 1 23 7zm-1-3.86a.77.77 0 0 0 .72-.91.72.72 0 0 0-.72-.62.67.67 0 0 0 .4-.75.76.76 0 0 0-.95-.6L20 .49l.46 2.88zm.19-.9a.39.39 0 0 1-.38.47l-.83.14-.17-.85.83-.13a.41.41 0 0 1 .51.37zM21.43.72a.38.38 0 0 1 .47.28.37.37 0 0 1-.35.44l-.81.13-.12-.72zm4.69 2.2l.26-.54 1.34.12.17.57.58.05-.9-3-.64-.06-1.39 2.81zM27.21.6l.4 1.4h-1.05zm2.06 2.71l.5.1.5-2.41.87.18.09-.44L29 .27l-.1.44.87.18zm15.92 9.63l-.49-.74 2.08-1.35-.28-.43-2.08 1.35-.48-.77-.38.25 1.25 1.91zm3.88 4.72a.72.72 0 0 0-.56.72.66.66 0 0 0-.78-.33.75.75 0 0 0-.53 1l.34 1.4 2.85-.7L50 18.3a.77.77 0 0 0-.93-.64zm-1.21 2.16l-.19-.82a.37.37 0 0 1 .27-.49.37.37 0 0 1 .47.31l.19.79zm1.77-1.29l.2.81-.79.19-.2-.81a.4.4 0 0 1 .29-.53.39.39 0 0 1 .5.34zm-3.18-5.81l-.4.2.66 1.3-.67.35-.68-1.33-.4.21.91 1.78 2.61-1.33-.91-1.78-.41.2.68 1.33-.72.37zM23.92 3V1.9h.78a.9.9 0 0 0 .93-.94.9.9 0 0 0-1-.89L23.31 0l.09 3zm.62-2.5a.47.47 0 1 1 0 .93h-.7V.51zM46.19 16l1.89.16-1.32 1.34.21.55 1.63-1.79c.3 0 .43.1.51.32a.61.61 0 0 1 0 .42h.46a.91.91 0 0 0 0-.63.94.94 0 0 0-.88-.64L46 15.45zm-12.7 31.7a.65.65 0 0 0 .26-.8.75.75 0 0 0-1-.43l-1.36.47 1 2.76 1.4-.48a.77.77 0 0 0 .55-1 .73.73 0 0 0-.85-.53zm-1.25.21l-.24-.72.78-.27a.38.38 0 1 1 .24.72zm1.21.92l-.8.28-.27-.77.8-.27a.41.41 0 1 1 .27.76zm1.69-3.45a1.51 1.51 0 1 0 2 .69 1.45 1.45 0 0 0-2-.7zm1.15 2.3a1 1 0 0 1-1.29-.52 1 1 0 1 1 1.73-.87 1 1 0 0 1-.44 1.38zM31 47l-2.24.49.1.44.87-.19.53 2.41.5-.11-.53-2.41.87-.19zm8.46-4.38l.73 1-1.19.9-.72-.94-.41.31 1.78 2.32.4-.32-.77-1 1.19-.89.78 1 .4-.31-1.77-2.32zm-11.75 7.57a1 1 0 0 1-1.1-1 1 1 0 0 1 .9-1.14.86.86 0 0 1 .78.35l.41-.26a1.33 1.33 0 0 0-1.23-.55 1.51 1.51 0 1 0 .29 3 1.33 1.33 0 0 0 1.11-.76l-.46-.18a.88.88 0 0 1-.7.54zm-2.21-2.34l-2-.05-.21 1.5c-.13.86-.29 1-.61 1v.94h.51v-.53l2 .05v.54h.52v-1h-.27zm-.58 2.46h-1.53a1.42 1.42 0 0 0 .42-.92l.19-1.12h1zm-4.82 0l2 .3.06-.45-1.48-.16.12-.8 1.44.21.07-.44-1.45-.21L21 48l1.48.21.07-.44-2-.29zm29.5-19.05l-.79-.19.35-1.42-.44-.1-.35 1.45-.74-.17.37-1.49-.44-.11-.47 1.95 2.85.69.47-1.95-.41-.11zm-7.23 12.12l-.57-.58 1.05-1-.32-.33-1.05 1-.48-.53 1.07-1-.31-.32L40.27 42l2 2.1 1.43-1.4-.31-.33zm5.5-16.57l1.85 1.72-2-.23-.06.5 2.91.35.06-.49-1.92-1.76 2.07.24.06-.51-2.91-.34zM8.77 8.41L9 9.74l.43-.41-.23-1.24.37-.35.75.8.37-.35-2-2.13-.93.88a.89.89 0 0 0-.07 1.32.81.81 0 0 0 1.08.15zm-.66-1.19l.51-.48.64.68-.51.48a.48.48 0 0 1-.69 0 .46.46 0 0 1 .05-.68zM47.23 35a1.5 1.5 0 1 0 .63 2 1.46 1.46 0 0 0-.63-2zm.23 1.82a1.07 1.07 0 1 1-.46-1.34 1 1 0 0 1 .46 1.35zm-4.64 2.49L45.2 41l.3-.42-2-1.44.9-1.23 2 1.44.3-.41-2.37-1.71zm6.42-6.73l-2.32-.86-.7 1.85 1.35.69c.77.4.83.59.75.9l.88.33.18-.48-.5-.19.7-1.85.5.19.18-.48-.93-.35zm-.72 1.91a1.43 1.43 0 0 0-.74-.69l-1-.5.36-1 1.9.71zM3 19.6l.36-1.29.6-.06.16-.56L1 18l-.18.62 2.52 1.89.16-.51zm-.4-.26l-1.2-.88 1.49-.13zm.31 6l-.56-.22v-1.34l.57-.2V23L0 24.11v.63L2.9 26zm-1-.38l-1.38-.52 1.4-.5zm.24-3.82a.88.88 0 0 0-.76-1.08.89.89 0 0 0-1 .8l-.2 1.27 2.81.48.08-.51L2 21.94zm-.56.7l-.92-.15.1-.69a.46.46 0 0 1 .54-.42.45.45 0 0 1 .38.56zm-1 5.75l-.13-1.46H.01l.18 2 2.91-.23v-.51zm6.77-15.84l-.67-2.5 1.63 1.31.32-.4-2.28-1.83-.36.41.64 2.43L5.09 9.9l-.32.4 2.28 1.83zm-2.87 5.09l-1.17-.52.61-1.39 1.17.52.21-.45-2.68-1.2-.21.47 1.1.48-.62 1.39-1.09-.48-.21.47 2.68 1.18zm-.59-4.36L6 13.76l.27-.44L4.17 12l.46-.75-.38-.24L3.06 13l.38.23zm7 33.17l1.1-1.72-.44-.27L10 46.14l.42.26 2.41-1-1.12 1.77.44.27L13.72 45l-.45-.28zm-6.2-6.54l.87 1.17.36-.28-.87-1.17.61-.45.89 1.2.36-.27-1.19-1.6-2.36 1.74 1.2 1.61.36-.27-.93-1.2zm11.74 7.57a.88.88 0 0 1 .53.67l.49-.05a1.34 1.34 0 0 0-.85-1 1.51 1.51 0 1 0-1.12 2.81 1.34 1.34 0 0 0 1.34-.18l-.33-.37a.84.84 0 0 1-.84.12 1 1 0 0 1-.55-1.35 1 1 0 0 1 1.33-.65zm2.8.46L18 46.81l-.74 2.83.49.13.25-1.06.75.2a.92.92 0 1 0 .47-1.77zm.18 1a.46.46 0 0 1-.6.32l-.68-.18.24-.9.67.18a.46.46 0 0 1 .37.58zm-9.8-6l-1.1 1c-.63.6-.85.61-1.09.41l-.29.35c.43.36.85.45 1.75-.41l.79-.76.79.65-1.59 1.9.4.32 1.87-2.25zm-2.48.56a.86.86 0 0 1-.82-.24A1 1 0 0 1 6.41 41a1 1 0 0 1 1.46 0 .88.88 0 0 1 .19.83l.46.17a1.3 1.3 0 0 0-.32-1.31A1.51 1.51 0 1 0 6 42.73a1.34 1.34 0 0 0 1.28.41zm24-38.93l.38-.46 1.28.41v.6l.55.18-.18-3.13-.6-.2-2 2.42zm1.6-2l.06 1.49-1-.33z" id="_гарантия_возврата-2" data-name="гарантия возврата"/></g></g></svg>