<svg version="1" xmlns="http://www.w3.org/2000/svg" viewBox="0 0 151.6 163"><style>.st0{fill:#e9f4ff}.st1{fill:#2139c4}.st2{fill:#ffa3b4}.st3{fill:#4432db}.st4{fill:#3e69de}.st5{fill:#7695eb}.st6{fill:#0f1a5c}.st7{fill:#f08b9e}.st8{fill:#ffc248}.st9{fill-rule:evenodd;clip-rule:evenodd;fill:#ffa3b4}.st10{fill:#d6b48d}.st11{fill:#bd9a75}.st12{fill:#e8c399}.st13{fill:none;stroke:#a88a66;stroke-width:.8422;stroke-linecap:round;stroke-linejoin:round;stroke-miterlimit:10}.st14{fill:#a17b51}</style><path class="st0" d="M140.3 60.4s11.9 61.7-32.2 71C64 140.8 29.7 144.9 28 96.8 26.3 48.7-.9 25.2 18 12.5 36.9-.2 134.7 18.6 140.3 60.4z" id="Слой_2"/><g id="image"><path class="st1" d="M103.2 45.1s-1.4-1.7-3.9-1.7-5.6 6.2-5.6 6.2l9 .9.5-5.4z"/><path class="st2" d="M68.6 64.7c-.9 11.8-7 14.9-18.7 25.6-.8 1.8-22 18.6-22 18.6l7.5 6.7S56 101.8 64.2 95.4c2.2-1.7 3.9-3.8 5.2-6.2l16.2-30.9-17 6.4z"/><path class="st1" d="M74.2 46.8S53 81.4 50 86.5c0 0 9.2 16.5 15 11.9 14.6-11.5 15.2-48.1 9.2-51.6z"/><path class="st3" d="M95.3 54.4C89.7 59.5 84 65.6 77.9 79.2c-.3 9.6 5.1 13.5 10.6 17.6l19-20.2-7.8-14.8-4.4-7.4z"/><path class="st4" d="M65.6 126.2c.4-16 3.9-30.9 2-51 .7-27.7 8.2-37.6 25.5-30.8l7.2 2.1c20.8 11.8 24.1 7.3 27.2 33.7l-4.9 48.7c-.6 25.1-59.1 26.8-57-2.7z"/><path class="st1" d="M106.1 110.7l1-24.8-7.8 36z"/><path class="st5" d="M91.2 62.2c0 .6-.5 1-1.1 1-.6 0-1-.5-1-1.1 0-.6.5-1 1.1-1 .6 0 1 .5 1 1.1zM90 66.6c0 .6-.5 1-1.1 1-.6 0-1-.5-1-1.1 0-.6.5-1 1.1-1 .6 0 1 .5 1 1.1zm-.7-21.5l-3.6-2.7s-2.9 6.2-.4 14.9l3-.8 2.3 3.2 2.5-3.1c.1-.1-4.9-2-3.8-11.5z"/><path class="st6" d="M89.5 42s1.7 3.2 2.9 3.9c1.2.7 18.4-5.5 17.8-19.4-.4-8.8-17.1-7.8-17.1-7.8L89.5 42z"/><path class="st2" d="M96 57.1l-.8.1c-2.9.2-5.4-2-5.6-4.8l-1.2-16.1c-.2-2.9 2-5.4 4.8-5.6l.8-.1c2.9-.2 5.4 2 5.6 4.8l3.4 15.3c.2 2.8-4.2 6.2-7 6.4z"/><path class="st7" d="M89 44.9s6.3.6 11.4-5.5c0 0-1 8.8-11 10l-.4-4.5z"/><path class="st2" d="M99.1 17.6c-2.2-3.9-5.5-4.8-8.6-3-3-1.6-6.7 0-9.4 4.6-3.8 6.4-4.3 16.1-1.2 21.8.1.1.3.5.6 1 2.4 4.1 7.5 5.7 11.9 3.7 3.1-1.4 6.4-3.5 8-6.2 3.8-6.5 1.9-16.3-1.3-21.9z"/><path class="st6" d="M96 19.7s-3.8 13.2 6.4 18c0 0 13.2-4.9 6.6-19.4-5.9-12.8-19.8-6.1-19.8-6.1l6.8 7.5zm-17.6 7.6s2.4-5.5 9.8-6.8l-5-4.2c0-.1-5.8.2-4.8 11z"/><path class="st6" d="M100.3 28.6c-1.8-3.5-6.8-4.4-14.4-3-1.1.2-2.4.2-3.4-.2-5.1-2-.7-10.3-.7-10.3-.4-4.6-1.3-4.4 3.3-4.9l11.9-1c6.8-.6 12.1 5.7 12.5 10.3l.2.8c.5 4.5-4.8 7.9-9.4 8.3z"/><path class="st2" d="M102.7 36.7c-1.5 1-3.5.6-4.5-.9s-.6-3.5.9-4.5 3.5-.6 4.5.9.6 3.5-.9 4.5z"/><path class="st1" d="M77.8 18.9s.8-14.1 15.4-13.5c18.2.8 19.5 12.3 17.4 20.2 0 0-8.1 2.8-16.4-.9-8.4-3.6-16.4-5.8-16.4-5.8z"/><path class="st8" d="M77.8 18.9S79 4 91.1 6c11.4 1.9 8 19.4 8 19.4l-21.3-6.5z"/><path class="st5" d="M107.5 49.4l-4.2-4.4s-2 9.6-10.2 11.3l-2.4 3.2 4.4-1.8 4.2 3.7c.1.1 8.6-7.9 8.2-12z"/><path class="st1" d="M90.7 59.6l4.4-1.8 4.3 3.7-4.9-1.9zm-5.4-2.3l3.1-.9 2.3 3.2L87 58z"/><path class="st5" d="M102.8 76l-7-2.1c-.6-.2-1-.7-.9-1.3.1-.5.6-.8 1.2-.6l7 2.1c.6.2 1 .7.9 1.3-.1.5-.6.7-1.2.6z"/><path class="st1" d="M77.5 17.8L67.3 19c-.6.1-.7.6-.1.8l16 5.5c.8.3 1.8.4 2.7.3l13.1-.3-21.5-7.5z"/><path class="st9" d="M24.4 104.8s-6.6-3.3-6.9-.8c-.2 2.4-1.5 2.1-1.6 5.5 0 3.4-1.1 5.3 1.4 7.2 2.6 1.8 7 4 7 4v-4.6l.1-11.3z"/><path class="st10" d="M20.5 97l.4 15.9.1 5 .4 16 44.7 20.4-.5-15.9-.7-27.3-.4-15.9z"/><path class="st11" d="M64.5 95.2l.4 15.9.7 27.3.5 15.9 41.3-21.6-1.5-36.6z"/><path class="st12" d="M65.1 117.5L20.3 97l40.4-21.1 45.2 20.2z"/><path class="st13" d="M66.1 154.3l-1-36.8 40.8-21.4"/><path class="st14" d="M37.3 87.6L82 109.2l11-6.3-43.9-21.6zm-1.4 28.1L24 110.1l-.2-6.8 12 5.6zm46.1-6.5l.7 14.3 10.9-5.5-.6-15.1z"/><path class="st2" d="M113.7 83.9c.1 11.9-1.2 29.4-11.9 39.2-1.7 2.1-20.3 13.1-20.3 13.1l2.9 7.4s24.5-9.6 32.1-16.7c2-1.9 3.6-4.1 4.6-6.6l4-25.7-11.4-10.7z"/><path class="st4" d="M106.3 79.7l-.3 31c.3 2.6 19.8 3.3 19.7-.5 0-.7 5.7-35.3-2.3-46.3-6.4-9-15.9 2.1-17.1 15.8z"/><path class="st2" d="M87.5 135.8s-10.8-3.5-15-1.7c-3.1 1.3-7.7 5.2-9.9 7.2-.4.3 0 .9.4.8l4.5-1.1-2.7 2.6c-.5.5-.5 1.3-.1 1.8l1.5 1.7c1 1.1 2.7 1.2 4 .3l3.9-3c1.2-.9 2.7-1.1 4.1-.7 1.4.4 3.9.5 8.4-1 2.3-.6.9-6.9.9-6.9z"/><path class="st9" d="M23.6 107.7l-4.9-.4c-.6-.1-.8-1.1-.6-2.2.3-1.1.9-1.9 1.5-1.7l4.6 1.6c.6.1.9.6.6 1.7-.2 1-.6 1.1-1.2 1z"/><path class="st9" d="M23.8 110.8l-4.9-.4c-.6-.1-.8-1.1-.6-2.2.3-1.1.9-1.9 1.5-1.7l4.6 1.6c.6.1.9.6.6 1.7-.2 1-.6 1.1-1.2 1z"/><path class="st9" d="M22.8 113l-4.9-.4c-.6-.1-.8-1.1-.6-2.2.3-1.1.9-1.9 1.5-1.7l4.6 1.6c.6.1.9.6.6 1.7-.2 1-.6 1.1-1.2 1z"/><path class="st9" d="M22.2 115.3l-4.9-.4c-.6-.1-.8-1.1-.6-2.2.3-1.1.9-1.9 1.5-1.7l4.6 1.6c.6.1.9.6.6 1.7-.2 1.1-.6 1.1-1.2 1z"/></g></svg>