<svg version="1" id="image" xmlns="http://www.w3.org/2000/svg" viewBox="0 0 656 556"><style>.st0{opacity:.4;fill:#a8c4e5}.st1{fill:#ed516e}.st2{fill:#ff5776}.st3{fill:none;stroke:#fff;stroke-width:2.905;stroke-linecap:round;stroke-linejoin:round;stroke-miterlimit:10}.st4{fill:#cfae88}.st5{fill:#bd9a75}.st6{fill:#a17b51}.st7{fill:#d6b48d}.st8{fill:#1257b3}.st9{fill:#246fd1}.st10{fill:#3d89ed}.st11{fill:#e8c399}.st12{fill:#d6a985}.st13{fill:none;stroke:#122c73;stroke-width:1.3;stroke-linecap:round;stroke-linejoin:round;stroke-miterlimit:10}.st14{fill:#fff}.st15{fill:#529cff}.st16{fill:none;stroke:#1257b3;stroke-linecap:round;stroke-linejoin:round;stroke-miterlimit:10}.st17{fill:#ba8c66}.st18{fill:#cca17f}</style><path class="st0" d="M489.6 109.9s136.5 45.6 138.3 190.2c1.8 144.6-66.3 182.2-127.4 191.8-61.2 9.6-119.2-135.2-254.4-118.1C110.9 390.8-49 155.2 93.9 90.4c142.9-64.7 395.7 19.5 395.7 19.5z"/><path class="st1" d="M346.3 136c0 1 6.1 14.3 10.4 23.7 1.6 3.5 6.6 3.2 7.9-.3l8.6-23.4h-26.9z"/><path class="st1" d="M365.1 142.1h-11.6c-28.8 0-52.3-23.5-52.3-52.3 0-28.8 23.5-52.3 52.3-52.3h11.6c28.8 0 52.3 23.5 52.3 52.3 0 28.8-23.5 52.3-52.3 52.3z"/><path class="st2" d="M356.6 142.1H345c-28.8 0-52.3-23.5-52.3-52.3 0-28.8 23.5-52.3 52.3-52.3h11.6c28.8 0 52.3 23.5 52.3 52.3 0 28.8-23.5 52.3-52.3 52.3z"/><path class="st3" d="M332.9 81.3l15.5 26.6 20.4-38.8"/><path class="st4" d="M361.4 370.4l158.1-91.3-158.1-91.3-158.1 91.3z"/><path class="st5" d="M361.4 370.3l158.1-91.2-158.1-91.3z"/><path class="st6" d="M465.5 359.3l42.3-25v-28.5l-42.3 24.9z"/><path class="st7" d="M518.7 279.1l51.7-32.6-158.8-94.3-51 35.6z"/><path class="st7" d="M361.4 187.8l-42.7-28.4-156.9 91 41.5 28.7z"/><path class="st8" d="M483.3 286.8v93.1l-94.5 54.6V285.1z"/><path class="st9" d="M345.3 260.2v25.7l43.5-.8v149.4l-43.5-25.2v.3L250.8 355v-93.1z"/><path class="st10" d="M250.5 262l94.8-54.7 138.3 79.5-94.8 54.7z"/><path class="st5" d="M519.1 279v155.5l-157.7 91V370.4z"/><path class="st7" d="M361.4 370.4v155.1l-157.7-91V279z"/><path class="st11" d="M361.4 370.4l-38.6 26.7-161-91.3 41.5-26.7z"/><path class="st12" d="M519.5 279.1l43.2 30.2-165.5 97.4-35.8-36.3z"/><path class="st13" d="M263 451.4l27.4 16V433L263 417zm-27.5-16l27.5 16V417l-27.5-16zm-27.4-16l27.4 16V401l-27.4-16zm13.4-15.4v17.4"/><path class="st13" d="M224.9 410.5l-3.4-8.2-3.3 4.3m38.9 25.2s-.2-9.5-6.4-13.1c-6.2-3.6-6.8 5.5-6.8 5.5l13.2 7.6zm13-1.8s.2 9.5 6.4 13.1c6.2 3.6 6.8-5.5 6.8-5.5l-13.2-7.6zm-19.2.8v7.1c0 1.3-.8 1.8-1.9 1.2-1-.6-1.8-2.1-1.8-3.4v-1m29.3 8.5v10.3m4.4 3.2l-8.8-5.1"/><path class="st14" d="M276.3 286.2v9.4l-15.1-8.4v-9.7z"/><path class="st15" d="M290.4 239l137.2 80.2 23.2-13.4-139.4-79z"/><path class="st16" d="M301.3 232.6l138.1 80"/><path class="st17" d="M361.4 370.4V399l27.9 29 130.2-73 1-20.8-123.3 72.5z"/><path class="st18" d="M203.3 329.4l119.5 67.7 38.6-26.7V399l-32.2 21.8-125.5-65.9z"/></svg>