<svg version="1" id="image" xmlns="http://www.w3.org/2000/svg" viewBox="0 0 351 358"><style>.st0{opacity:.4;fill:#a8c4e5}.st1{fill:#0f1a5c}.st2{fill:#ffa3b4}.st3{fill:#ffc248}.st4{fill:#3e69de}.st5{fill:#f08b9e}.st6{fill:#d6b48d}.st7{fill:#bd9a75}.st8{fill:#e8c399}.st9{fill:#1f309c}.st10{fill:#fff}.st11{fill:#bad4f5}.st12{fill:#86abd9}.st13{fill:#2139c4}.st14{fill:#7695eb}.st15{fill:#ed516e}.st16{fill:#ff5776}.st17{fill:none;stroke:#fff;stroke-width:1.2737;stroke-linecap:round;stroke-linejoin:round;stroke-miterlimit:10}</style><path class="st0" d="M283.1 319.4s70.9-22.4 56-90.6c-14.9-68.3-56.9-85.6-92-89.7-35.1-4.2-51.4 64.6-128.5 57.3-77.1-7.2-140 105-53.4 134.7 86.6 29.6 217.9-11.7 217.9-11.7z"/><path class="st1" d="M226.1 42.7s10.8-12.1 24.9 3.4c14.2 15.5 21.2-.3 31.7 13.8 10.4 14 4.4 17.3 12.8 26.3s-12.8 28.2-22.5 18.7c-9.7-9.6-35.7-7.1-37.9-15.8s-9-46.4-9-46.4z"/><path class="st1" d="M224.8 48.3l-.3 19.3s12.1 7.6 18 3.2c5.9-4.4-1.5-25-9-23.8-7.4 1.2-8.7 1.3-8.7 1.3zm-15.1 194.6l11-9.3c1.4-.7 4.5-.8 6.6-.4.9.2 1.6 1 1.6 2v2.1c.1 3-.2 3.4-2.1 4.3l-11.2 5.4c-1.9.9-4.7.8-6.2-.2l-.4-.3c-1.5-1.1-1.2-2.7.7-3.6z"/><path class="st2" d="M212.3 149.2l9.1 84c.4 5.3 6.1 3.6 6.7.4l2.6-75.6-18.4-8.8z"/><path class="st1" d="M245.8 258.1l-3.4-12.9c0-1.6 1.3-4.4 2.6-6.1.6-.8 1.6-1 2.5-.6l1.8.9c2.7 1.2 3.3 3.6 3.3 5.7l-.3 10.4c0 2.1.3 3.9-1.3 4.8l-.6.3c-1.6 1-4.6-.4-4.6-2.5z"/><path class="st2" d="M234.8 158.1l9.1 84c.4 5.3 6.1 3.6 6.7.4l2.6-75.6-18.4-8.8z"/><path class="st3" d="M254.6 103.8l2.8 7.6 2.2-4.3s6.3-18.3-11.5-28.9c-6.4-3.8-12.9-8.1-17.1-10-6.7-2.9-12.1-2.3-17.2 3-.5.5-1.2 17.3-1.2 17.3l-.3 22.8c-.1.5-.1 1-.1 1.5-.3 5.2-1.2 23.8-.6 54.8 0 0 4.9 3.7 14.5 7.8 16.9 7.3 20.2 7.1 27.5 4.6 0 0 3.7-29.4 4.1-35.1.4-5.9.4-12-.6-15.5-2-7.1-1.3-8.5-5-12.8-.3.1-.7.1-1 .2.8-2 1.7-4 2.4-7.5l1.1-5.5z"/><path class="st1" d="M213.9 113.9s14.5 9.1 30.1 3.8v4.6s-15.9 3.8-32-5.3l1.9-3.1z"/><path class="st4" d="M241 73.7s2.7 19.1-7.4 60.8c-9.2 37.6 5.5 40.6 5.5 40.6s10.8 6.2 18.1-2.4c0 0 3.7-58.8 1.8-70.6-1.9-11.7-18-28.4-18-28.4zm-12.1-6.4s-13.9 10.3-14.5 50.8c-.3 23.7-.2 37.2-.1 44.3 0 2-2.6 2.9-3.7 1.2l-.3-.4c-1.2-1.7-1.8-3.8-1.7-5.9l1.9-74.4s1-23.5 18.4-15.6z"/><path class="st4" d="M241 73.7s21.8 5.2 23.3 23.4l-5.8 16.7-10.4-17.2-7.1-22.9z"/><path class="st5" d="M237.9 66.2s-3.7 2.3-8.1 1.4l.2 2.8c-.1 0 4.6.6 7.9-4.2z"/><path class="st2" d="M240.2 61.7c-.1 5.7-7.6 7.8-12.5 4.8s-5.3-9.9-5.1-15.6c.1-5.7 7.9-7.5 12.7-4.5 4.9 3 5 9.6 4.9 15.3z"/><path class="st2" d="M234.4 76.3c-2.3.1-4.3-1.6-4.4-3.9l-.7-11.8c-.1-2.3 1.6-4.3 3.9-4.4 2.3-.1 4.3 1.6 4.4 3.9l.7 11.8c.2 2.3-1.6 4.3-3.9 4.4z"/><path class="st1" d="M241.9 58.6s-7.1-1.4-10.5-5.3c-3.4-3.9-4.9-7.1-3-8.3 2-1.2 15.4-3.2 13.5 13.6z"/><path class="st1" d="M229.4 47.1s-5.2.5-6.8 5.5c-2.4-4 1.4-15.7 11-8.4l-4.2 2.9z"/><path class="st2" d="M242.6 60.7c-.6 1.6-2.1 2.5-3.4 2.1-1.3-.5-1.9-2.2-1.4-3.8.6-1.6 2.1-2.5 3.4-2.1 1.4.5 2 2.2 1.4 3.8zm-26.7 82.6l4.8-.8c2-.3 3.5-2.3 3.1-4.3l-.1-.5c-.3-2-2.3-3.5-4.3-3.1l-4.8.8c-2 .3-3.5 2.3-3.1 4.3l.1.5c.3 2 2.2 3.4 4.3 3.1z"/><path class="st4" d="M212 75s-9.6 24.1-14.5 28.3c-4.9 4.1-23.5 12.9-23.5 12.9l5.3 7s24.7-7.9 28.7-17c4-9 8.5-21.5 8.5-21.5L212 75z"/><path class="st6" d="M173.2 166.2l29.2-16.9v-37.6l-29.2 16.8z"/><path class="st7" d="M173.2 166.2l-38.8-22.5V106l38.8 22.5z"/><path class="st8" d="M202.4 111.7l-37.2-21.4-30.8 15.7 38.8 22.5z"/><path class="st7" d="M195.2 124.9v-9.1l-7.4-4.8-5.5 3 7.7 5v9z"/><path class="st9" d="M96.1 282.1l7.8-1c5.2-2.4 7.7-4.2 10-2.8l.7.4c2.3 1.4 2 3.7-.7 5.3l-11.5 9.2c-2.7 1.6-6.3 1.1-8.5-.8 0 0-1.3-1.2-.4-6.1.6-2.8.4-2.9 2.6-4.2zm34.2 15.7l7.7 2.7c5.9.3 9-.2 10.6 2.1l.4.6c1.5 2.2.1 4.2-3.1 4.3l-16.7 2.8c-3.2.1-4.5-1.9-5.6-4.6 0 0-.6-3.2 1.1-6.6 1.4-2.5 3.1-1.2 5.6-1.3z"/><path class="st10" d="M133.7 300.5c0 3.7-8.9 3.7-8.9 0v-11.9h8.9v11.9zm-30.4-17.6c-.2 3.3-9.1 3.3-8.9 0l.7-10.8h8.9l-.7 10.8z"/><path class="st11" d="M97.9 169.9l10.7 1.6-.3-1.5h32.2c.2 41.2-1.4 82.2-5.6 122.9-1.1 4.6-10.4 4.3-12.2 1.3.4-28.7-2-58.2-7.1-88.2l-10.5 72c-3.6 3.7-10.6 2.1-11.9-.5l4.7-107.6z"/><path class="st2" d="M128.7 90c-2.2 7.7-7.9 9.9-12.8 4.8-4.9-5-7-15.4-4.8-23.1 2.2-7.7 7.9-9.9 12.8-4.8 4.8 5.1 7 15.4 4.8 23.1z"/><path class="st2" d="M137.3 88.1c-2.1 7.2-9.8 9.9-14.4 5.1-4.6-4.7-6.6-14.4-4.5-21.7 2.1-7.2 7.5-9.3 12-4.6 4.6 4.8 9 13.9 6.9 21.2z"/><path class="st2" d="M118.1 109.8l-.8-.2c-2.8-.6-4.6-3.4-3.9-6.2l3.5-15.7c.6-2.8 3.4-4.6 6.2-3.9l.8.2c2.8.6 4.6 3.4 3.9 6.2l-1.2 15.6c-.6 2.8-5.7 4.7-8.5 4z"/><path class="st1" d="M111 89.2s.8 6.8 10.5 5.5c7-1 4.9-12.3 11.9-13.4 7.6-1.2-5.4-19.8-11.5-17.2-6.2 2.6-15.6 2.5-10.9 25.1z"/><path class="st2" d="M133.3 85.1c-.5 1.8-2.3 2.8-4.1 2.3-1.8-.5-2.8-2.3-2.3-4.1.5-1.8 2.3-2.8 4.1-2.3 1.8.5 2.8 2.4 2.3 4.1z"/><path class="st4" d="M96.9 168.5c-.3-14.9-.5-24.7-.3-40.1-.1-26.4 7.2-31.8 16.1-30.9 0 0 5.5 1.9 7.3 2.9 19.2 9.9 24.4 13 23.5 24.5.1 18.9-2.7 40.2-3.1 49.5-3.9 13.1-39.1 3.5-43.5-5.9z"/><path class="st5" d="M127.2 95.6l-.8-1.8s2.4 1.5 5.1 1.2c.1-.1-2 1-4.3.6z"/><path class="st12" d="M115.3 209.1l-9.5-13.6 9.5 4.2z"/><path class="st1" d="M136 79.5l8.4-3.7c1.7-.7 1.9-3.1.4-4.1l-9-5.7-15.2 10 15.4 3.5z"/><path class="st1" d="M130.5 85.4c.6 0 1-.5 1-1v-5.1c0-.6-.5-1-1-1-.6 0-1 .5-1 1v5.1c0 .6.4 1 1 1z"/><path class="st1" d="M138.3 78.1l-6.8 6.3s-1.5.4-1.8-.2c-.3-.6-.8-5.6-.8-5.6l9.4-.5z"/><path class="st10" d="M117.6 84.4l-7.1-2.3-.3-1.3 8.2 2.4z"/><path class="st13" d="M116.6 62.3c8.5-3 23.2-3.3 21.2 15 0 0-7.8 9.4-20.3 7.1 0 0 .2-4-3.7-4.8-3.8-.8-3.5 2.4-3.4 2.5l-.6-.3s-5.1-15.3 6.8-19.5z"/><path class="st1" d="M120.8 63.7c0 .4 1 .7 2.1.7 1.2 0 2.1-.3 2.1-.7 0-.4-1-.7-2.1-.7s-2.1.3-2.1.7z"/><path class="st3" d="M137.9 77.3s-1.5 1.8-4.3 3.7c1.3-17.3-5.8-19-12.7-19.8 8.3-1.5 18.6.6 17 16.1z"/><path class="st2" d="M141.3 114.3l22.2 42.7-16.4 1.1-21.7-29.9z"/><path class="st4" d="M139.4 112.1s5.1 2.2 16.7 28.4l-21 13.1-16.8-27.8 21.1-13.7z"/><path class="st2" d="M187.1 143.4l-27.4 6.5-12.7 6.8s-.4 12.3 18.4 4.6 23.4-12.1 23.4-12.1l-1.7-5.8z"/><path class="st2" d="M187.3 151.1l5.3-1.5c2.2-.6 3.6-3 3-5.2l-.2-.6c-.6-2.2-3-3.6-5.2-3l-5.3 1.5c-2.2.6-3.6 3-3 5.2l.2.6c.6 2.3 3 3.7 5.2 3z"/><path class="st5" d="M229.7 67.6s4.1.3 8.1-1.4c0 0-4 4.8-8 4.5l-.1-3.1z"/><path class="st14" d="M112.7 97.6s-1.3 1.4 3.8 4.1c2.2 1.1 13.6 4.1 13.6 4.1.1-4.9-16.9-12.8-17.4-8.2z"/><path class="st13" d="M140.5 174.5l1.8-22-7.9-11-1.5 38.8s6.3-.5 7.6-5.8zm91.9-34.7l14.2-5.9s9.9-4.2 12.8-11.2l-.4 10.1s-9 10.4-27.1 9.6l.5-2.6z"/><path class="st4" d="M264.4 97.2s1.8 29.3-15.1 37.9c-16.9 8.7-28.8 7.4-28.8 7.4l-.9-8.6s15.5-6 18.2-11.2c4.5-8.4 10.6-29 10.6-29l16 3.5z"/><path class="st13" d="M240.5 120.9l9-16.5-1 5.9c-.6 3.9-2.9 7.3-6.2 9.4l-1.8 1.2z"/><path class="st15" d="M168.2 61.2c0 .4 2.2 7.4 3.8 12.3.6 1.8 2.4 2.6 2.9 1.3l3.1-8.7-9.8-4.9zm11 4.7l-4.2-2.1c-10.4-5.2-19-19.7-19-32.3 0-12.6 8.5-18.7 19-13.5l4.2 2.1c10.4 5.2 19 19.7 19 32.3 0 12.6-8.5 18.7-19 13.5z"/><path class="st16" d="M175.1 67.3l-4.2-2.1c-10.4-5.2-19-19.7-19-32.3 0-12.6 8.5-18.7 19-13.5l4.2 2.1c10.4 5.2 19 19.7 19 32.3 0 12.6-8.6 18.7-19 13.5z"/><path class="st17" d="M166.5 36.4l5.6 14.4 7.4-13.3"/></svg>