<svg version="1" id="image" xmlns="http://www.w3.org/2000/svg" viewBox="0 0 692 624"><style>.st0{opacity:.4;fill:#a8c4e5}.st1{fill:#ffa3b4}.st2{fill:#f08b9e}.st3{fill:#0f1a5c}.st4{fill:url(#SVGID_1_)}.st5{fill:#ffc2cd}.st6{fill:#ffc248}.st7{fill:#fff}.st8{fill:#286dc9}.st9{fill:none;stroke:#fff;stroke-width:2.2048;stroke-linecap:round;stroke-linejoin:round;stroke-miterlimit:10}.st10{fill:#ff5776}.st11{fill:none;stroke:#fff;stroke-width:2.4512;stroke-linecap:round;stroke-linejoin:round;stroke-miterlimit:10}</style><path class="st0" d="M90 369.9S-36.1 264.8 51.6 137.8c87.7-127.1 188-127.3 263.2-106.4 75.2 20.9 51 175.1 214.6 224.9s198.1 331.9-3.7 320C323.7 564.3 90 369.9 90 369.9z"/><path class="st1" d="M247.7 474.6s81.7-49.5 112.8-88.2c55.9-69.5-100.2-220.2-100.2-220.2l-94.6 229.4-55.1 51.2c17.5 31.9 50.5 57.6 95.1 78.7l42-50.9z"/><path class="st2" d="M205.7 525.4l42.1-50.8s73.9-47.6 85.2-62l-63.6-2.3s25.7 22.6-27.7 55.6L176 509.5c8.6 5.7 18.6 11 29.7 15.9z"/><path class="st2" d="M219.1 399.8c8.3-36.4-5.8-83.8 8.2-143.6 0 0 66.8 152.2 65.2 155.3-1.6 3.1-3.9 25.6-10.9 22.8-7-2.7-69.6 13-62.5-34.5z"/><path class="st3" d="M414.4 414.6h-170c-6.9 0-12.5-5.6-12.5-12.5v-317c0-6.9 5.6-12.5 12.5-12.5h170c6.9 0 12.5 5.6 12.5 12.5v317c0 6.9-5.6 12.5-12.5 12.5z"/><linearGradient id="SVGID_1_" gradientUnits="userSpaceOnUse" x1="238.02" y1="243.407" x2="420.107" y2="243.407"><stop offset="0" stop-color="#73afff"/><stop offset=".552" stop-color="#3d89ed"/></linearGradient><path class="st4" d="M408.6 399.8h-159c-6.3 0-11.5-5.2-11.5-11.5V98.5c0-6.3 5.2-11.5 11.5-11.5h159c6.3 0 11.5 5.2 11.5 11.5v289.7c0 6.4-5.2 11.6-11.5 11.6z"/><path class="st1" d="M167.8 417.2l-5.6-58.8c-.8-8.7.2-17.5 2.9-25.8l32.6-98.2c1.6-4.9 4.9-9.1 9.2-12l54.2-35.8c4.1-2.7 9.9 2.3 9.9 7.2.1 6.1-.9 9-5.7 16.1-11.2 16.4-36.8 42.7-36.8 42.7l-21.7 58.9 14.7 106.3-45.8-.5-7.9-.1z"/><path class="st5" d="M260.8 195.8l-9.1 6.8c-1.7 1.2-4.1.9-5.3-.8l-.5-.7c-1.2-1.7-.9-4.1.8-5.3l9.1-6.8c1.7-1.2 4.1-.9 5.3.8l.5.7c1.3 1.7.9 4.1-.8 5.3z"/><path class="st6" d="M450 206.9H305.7c-7.3 0-13.2-6-13.2-13.2v-79.1c0-7.3 6-13.2 13.2-13.2H450c7.3 0 13.2 6 13.2 13.2v79.1c0 7.2-5.9 13.2-13.2 13.2z"/><path class="st7" d="M443.3 118.6h-20.1c-2.3 0-4.2-1.9-4.2-4.2 0-2.3 1.9-4.2 4.2-4.2h20.1c2.3 0 4.2 1.9 4.2 4.2 0 2.3-1.9 4.2-4.2 4.2zm-115 52.1h-20.1c-2.3 0-4.2-1.9-4.2-4.2 0-2.3 1.9-4.2 4.2-4.2h20.1c2.3 0 4.2 1.9 4.2 4.2 0 2.3-1.9 4.2-4.2 4.2zm40.1 0h-20.1c-2.3 0-4.2-1.9-4.2-4.2 0-2.3 1.9-4.2 4.2-4.2h20.1c2.3 0 4.2 1.9 4.2 4.2 0 2.3-1.9 4.2-4.2 4.2zm40.1 0h-20.1c-2.3 0-4.2-1.9-4.2-4.2 0-2.3 1.9-4.2 4.2-4.2h20.1c2.3 0 4.2 1.9 4.2 4.2 0 2.3-1.9 4.2-4.2 4.2zm40.1 0h-20.1c-2.3 0-4.2-1.9-4.2-4.2 0-2.3 1.9-4.2 4.2-4.2h20.1c2.3 0 4.2 1.9 4.2 4.2 0 2.3-1.9 4.2-4.2 4.2zm-116.3-18.4h-24.5c-2.1 0-3.8-1.7-3.8-3.8v-20.9c0-2.1 1.7-3.8 3.8-3.8h24.5c2.1 0 3.8 1.7 3.8 3.8v20.9c0 2.1-1.7 3.8-3.8 3.8zm33.8 39.3h-60c-1.5 0-2.8-1.3-2.8-2.8 0-1.5 1.3-2.8 2.8-2.8h60c1.5 0 2.8 1.3 2.8 2.8 0 1.5-1.2 2.8-2.8 2.8z"/><path class="st8" d="M388.7 348.9H265.4c-7.3 0-13.2-6-13.2-13.2v-99.8c0-7.3 6-13.2 13.2-13.2h123.3c7.3 0 13.2 6 13.2 13.2v99.8c0 7.3-6 13.2-13.2 13.2z"/><path class="st9" d="M344.7 269.4h-51.1l14.3 38.3h54.9l3.5-8.8m-40.1 28.9c0 4-3.2 7.2-7.2 7.2s-7.2-3.2-7.2-7.2 3.2-7.2 7.2-7.2 7.2 3.2 7.2 7.2zm32.9 0c0 4-3.2 7.2-7.2 7.2s-7.2-3.2-7.2-7.2 3.2-7.2 7.2-7.2 7.2 3.2 7.2 7.2zm-76.4-87.3h-15.3m26.2 28.9l-8.7-23.1"/><path class="st10" d="M386.6 273c0 10.3-8.3 18.6-18.6 18.6s-18.6-8.3-18.6-18.6 8.3-18.6 18.6-18.6c10.3-.1 18.6 8.3 18.6 18.6z"/><path class="st11" d="M359.9 271.1l7.5 10.2 8.8-16.7"/><path class="st9" d="M300.1 281.7h38.4m-27.6-6.3l9.3 26.3m6.5-26.3l9.2 26.3m-32.8-8.3h38.3"/><path class="st1" d="M587.2 596.8c-11.9-10.5-47.6-47.8-53.6-59.9-28-56.5 30.6-93.1 85.8-44.2 21 18.6 8.4 8.5 50.5 42.5 23 18.6-82.7 61.6-82.7 61.6z"/><path class="st2" d="M587.2 596.8c-11.9-10.5-47.6-47.8-53.6-59.9-28-56.5-24.7-44.8 29.1 5.7 34.2 32.1 79.6 27.5 79.6 27.5l-55.1 26.7z"/><path class="st1" d="M338.3 298.6c2-2.9 6.1-3.3 8.7-1 14.2 12.7 28.4 21.6 38.7 29.8 36.9 29.5 49.2 34.2 49.2 34.2.5.1 2.5 2.8 3 2.8-.5-3.2-2.3-15.3 12.9-15.1 2.8-.6 4.6 0 6.7.6 1.7.3 3.5.6 5.4 1 0 0 .4-6.3 5.5-9.1.4-.4.9-.8 1.4-1.2 9.8-1.3 12.8-.6 19.9 4.7 2.3-6.4 11.5-5.2 18.3-3 6.8 2.2 16 9 21 13.1 17.4 13.5 36.7 32 36.7 32l53.7 105.2s-45.8 39.7-75.4 54.5-100.1-54.1-100.6-54.5c-.4 0-7.4-5.5-9.1-7.2l-16.7-17c-12.8-12.1-64.4-43.6-63-42.7 0 0 3.4-16 23.9-12.2 24.9 4.6 67.7 29.2 67.8 28.2.8-12.1-28.9-41.9-51.4-64.5-10.1-10.1-36.2-37-40.4-41.1-21.3-20.9-20-32.1-16.2-37.5z"/><path transform="rotate(-46.37 451.576 377.597)" class="st2" d="M451 354.5h1.3v46.1H451z"/><path transform="rotate(-46.37 480.364 367.682)" class="st2" d="M479.7 344.6h1.3v46.1h-1.3z"/><path transform="rotate(-46.37 512.991 361.947)" class="st2" d="M512.3 338.9h1.3V385h-1.3z"/><path class="st2" d="M451.6 446.2l-5.3-4.5s-2.3-13-20.4-32.2c-18.1-19.2-71.4-73.3-71.4-73.3s97.9 66 100.8 90.8c2.8 24.7-3.7 19.2-3.7 19.2z"/><path class="st5" d="M367.5 434l7.4 3.8c2.2 1.1 5 .2 6.2-2 1.1-2.2.2-5-2-6.2l-7.4-3.8c-2.2-1.1-5-.2-6.2 2-1.1 2.3-.2 5 2 6.2zm-22.1-127.5l9.7 8.1c1.8 1.5 4.4 1.2 5.9-.5 1.5-1.8 1.2-4.4-.5-5.9l-9.7-8.1c-1.8-1.5-4.4-1.2-5.9.5-1.5 1.8-1.3 4.5.5 5.9z"/><path class="st2" d="M558.6 538.9s-15 13.9-28.6 10.1c-13.6-3.8-46.4-13.5-95.6-63.6 0 0 65.3 54.5 89.7 55.5 24.2.9 34.5-2 34.5-2z"/></svg>