<svg version="1" id="image" xmlns="http://www.w3.org/2000/svg" viewBox="0 0 319.6 364"><style>.st0{fill:#e4eff9}.st1{fill:#2d62d1}.st2{fill:#0f1a5c}.st3{fill:#ffa3b4}.st4{fill:#173891}.st5{fill:#122c73}.st6{fill:#e0e0e0}.st7{fill:#316ce6}.st8{fill:#437df7}.st9{fill:#1c43ad}.st10{fill:#c6d2f2}.st11{fill:#faa32f}.st12{fill:#ffc248}.st13{fill:#f08b9e}.st14{fill:#fff}.st15{fill:#b0daff}.st16{fill:#749ff7}.st17{fill:none;stroke:#fff;stroke-width:.7174;stroke-linecap:round;stroke-linejoin:round;stroke-miterlimit:10}</style><path class="st0" d="M114.9 18.3s141.7-40.2 172.5 60.8c30.8 101.1 47.3 180.4-64.6 194.1-112 13.7-161.3 82.1-194.8 40.5-33.4-41.5-9.6-273.8 86.9-295.4z"/><path class="st1" d="M165.3 72.9s-.1-1.7.6 7.6c.1 1.8 1.8 3.1 3.3 2.2 2.7-1.6 5.7-4.7 6.5-10.4 1.8-13.4-5.6-8.8-5.6-8.8l-4.8 9.4z"/><path class="st2" d="M181.6 89.4s2.6-.2 3.8 0c1.2.2 13.9-8.8 8.5-20.5-3.4-7.4-17.3-.8-17.3-.8l5 21.3z"/><path class="st3" d="M162.2 99.2l-18.9 25.1s-14.9 5.8-27.5 8.7l1.3 8.3 23.6-2.6c4.2-.6 8.1-2.5 11.1-5.5 4.9-4.9 12.1-12.7 15-19.3 7.1-16 1.9-5.2 1.9-5.2l-6.5-9.5z"/><path class="st4" d="M245.6 235.2l-80.1 50.3c-10.5 6.6-23.6 7.1-34.6 1.3l-37.8-19.9 99.5-59.1 53 27.4z"/><path class="st5" d="M249.3 209.8l-16.6-9c-4.6-2.4-10.7-2-17.6 1.9-.2.1-.3.2-.5.3-14.1 8.3-25.6 28-25.8 44.3 0 .9 0 1.7.1 2.5.2 3.9 1.2 7.2 2.8 9.8 1.6 2.6 3.8 4.5 6.4 5.5l14.4 7.9 7.2-14.1c8.1-6.5 14.8-16.5 18.3-26.8 1.5-4.4 2.4-8.8 2.6-13v-.9l.7-1.4 8-7z"/><path class="st4" d="M230.3 233.2l.1-.1c4.2-2.4 7.6-.3 7.5 4.5-.1 4.8-3.4 10.6-7.6 13l-.1.1c-4.2 2.4-7.6.3-7.5-4.5 0-4.8 3.4-10.6 7.6-13z"/><path class="st6" d="M230.5 223.9c8.6-4.8 15.4-.7 15.3 9.2-.1 9.8-7 21.6-15.5 26.6-.1.1-.2.1-.3.2-8.6 4.8-15.4.7-15.3-9.2.1-9.8 7-21.6 15.4-26.6.2 0 .3-.1.4-.2zm-.2 26.8c4.1-2.4 7.5-8.2 7.6-13 .1-4.9-3.3-6.9-7.5-4.5l-.1.1c-4.1 2.4-7.5 8.2-7.6 13-.1 4.9 3.3 6.9 7.5 4.5 0-.1.1-.1.1-.1"/><path class="st4" d="M230.7 211.1c14.3-8.1 25.7-1.2 25.5 15.4v1.2c-.2 4.2-1.1 8.6-2.6 13-4.2 12.3-13 24.2-23.1 30.2-.2.1-.4.2-.5.3-9.9 5.6-18.5 4-22.7-3-1.5-2.6-2.5-5.9-2.8-9.8-.1-.8-.1-1.6-.1-2.5.2-16.4 11.7-36.1 25.8-44.3.1-.3.3-.4.5-.5zm-.3 48.7c8.4-5 15.3-16.8 15.5-26.6.1-9.9-6.7-14.1-15.3-9.2-.1.1-.2.1-.3.2-8.4 4.9-15.3 16.8-15.4 26.6-.1 9.9 6.7 14.1 15.3 9.2 0-.1.1-.2.2-.2"/><path class="st7" d="M258.9 213.4c-1.9-12.9-7.1-37.3-21-50-19.4-17.7-46 31.1-46 31.1l4.7 15c-7.6 11.3-15.9 28.8-13.2 47.7l17.6 5.7 53.5-37.3c3.9-2.7 5.7-7.5 4.6-12-.1 0-.1-.1-.2-.2z"/><path class="st1" d="M244.1 167l-32.3-18.6c-3.9-2.3-3.9-8 0-10.2l34.4-19.9c1.8-1.1 4.1-1.1 5.9 0l34.4 19.9c3.9 2.3 3.9 8 0 10.2L254.4 167c-3.2 1.9-7.1 1.9-10.3 0z"/><path class="st1" d="M289.6 143h-80.7v-39.6l80.7.1z"/><path class="st8" d="M244.1 127.2l-32.3-18.6c-3.9-2.3-3.9-8 0-10.2l34.4-19.9c1.8-1.1 4.1-1.1 5.9 0l34.4 19.9c3.9 2.3 3.9 8 0 10.2l-32.3 18.6c-3 1.8-6.9 1.8-10.1 0z"/><path class="st5" d="M114.8 287.4l-16.6-9c-4.6-2.4-10.7-2-17.6 1.9-.2.1-.3.2-.5.3-14.1 8.3-25.6 28-25.8 44.3 0 .9 0 1.7.1 2.5.2 3.9 1.2 7.2 2.8 9.8 1.6 2.6 3.8 4.5 6.4 5.5l14.4 7.9 7.2-14.1c8.1-6.5 14.8-16.5 18.3-26.8 1.5-4.4 2.4-8.8 2.6-13v-.9l.7-1.4 8-7z"/><path class="st4" d="M95.8 310.8l.1-.1c4.2-2.4 7.6-.3 7.5 4.5-.1 4.8-3.4 10.6-7.6 13l-.1.1c-4.2 2.4-7.6.3-7.5-4.5.1-4.8 3.5-10.6 7.6-13z"/><path class="st6" d="M96.1 301.5c8.6-4.8 15.4-.7 15.3 9.2-.1 9.8-7 21.6-15.5 26.6-.1.1-.2.1-.3.2-8.6 4.8-15.4.7-15.3-9.2.1-9.8 7-21.6 15.4-26.6.1-.1.3-.1.4-.2zm-.2 26.7c4.1-2.4 7.5-8.2 7.6-13 .1-4.9-3.3-6.9-7.5-4.5l-.1.1c-4.1 2.4-7.5 8.2-7.6 13-.1 4.9 3.3 6.9 7.5 4.5l.1-.1"/><path class="st4" d="M96.2 288.7c14.3-8.1 25.7-1.2 25.5 15.4v1.2c-.2 4.2-1.1 8.6-2.6 13-4.2 12.3-13 24.2-23.1 30.2-.2.1-.4.2-.5.3-9.9 5.6-18.5 4-22.7-3-1.5-2.6-2.5-5.9-2.8-9.8-.1-.8-.1-1.6-.1-2.5.2-16.4 11.7-36.1 25.8-44.3.2-.3.3-.4.5-.5zm-.3 48.6c8.4-5 15.3-16.8 15.5-26.6.1-9.9-6.7-14.1-15.3-9.2-.1.1-.2.1-.3.2-8.4 4.9-15.3 16.8-15.4 26.6-.1 9.9 6.7 14.1 15.3 9.2l.2-.2"/><path class="st7" d="M65.3 310.1l6.7 2.7c1.7.7 3.6.9 5.4.6l48-8.1c3-.6.2-9.5-.4-11.2-1.9-5.8-13.7-22.3-35.1-19.4-12 1.6-22.6 11.3-29 20.3-3.7 5.3-1.5 12.6 4.4 15.1z"/><path class="st1" d="M162.2 190.9s8.1 28.3-12.9 42.6l34 23.7s26.9-27.1 20.4-59.2c-9.3-45.4-41.5-7.1-41.5-7.1z"/><path class="st4" d="M241.8 174.1l-47 29.5c-3.1 1.9-6.9 2.1-10.1.4l-17.1-9c-7-3.7-7.2-13.6-.4-17.7l48.3-28.7c3-1.8 6.7-1.9 9.8-.3l15.8 8.2c6.9 3.6 7.3 13.4.7 17.6z"/><path class="st7" d="M205.1 260.7l-13.2-8.9-63.3 40.5 9.6-1.5c6.4 3.4 14.1 3.1 20.3-.8l7-4.4 39.6-24.9z"/><path class="st9" d="M173.9 185.2c2 0 42.7 14.6 42.6-19 0-33.6-51.9 4.8-51.9 4.8l9.3 14.2z"/><path class="st10" d="M126.9 258.2l13.3-13.5c1.8-1.1 5.9-1.6 8.6-1.2 1.2.1 2.2 1.2 2.3 2.4l.2 2.7c.5 3.9.1 4.4-2.2 5.9l-14.1 8.4c-2.4 1.4-6 1.6-8.1.4l-.6-.3c-2-1.3-1.8-3.4.6-4.8z"/><path class="st7" d="M126.9 255.3l13.3-13.5c1.8-1.1 5.9-1.6 8.6-1.2 1.2.1 2.2 1.2 2.3 2.4l.2 2.7c.5 3.9.1 4.4-2.2 5.9L135 260c-2.4 1.4-6 1.6-8.1.4l-.6-.3c-2-1.3-1.8-3.4.6-4.8z"/><path class="st10" d="M150.2 243.1c0 4-9.7 4-9.7 0v-13h9.7v13zm-8.3 24.7l12.6-12.7c1.7-1.2 5.8-1.8 8.6-1.7 1.3.1 2.3 1.1 2.4 2.3l1.3.6c.7 3.8.3 6.3-2 7.8l-14.6 9.3c-2.3 1.5-5.9 1.9-8.1.8l-.6-.3c-2.1-1-1.9-4.6.4-6.1z"/><path class="st7" d="M142.7 266.2l12.7-14.2c1.7-1.2 5.8-1.8 8.6-1.7 1.3.1 2.3 1.1 2.4 2.3l.4 2.7c.7 3.8.3 4.4-2 6l-13.7 9.1c-2.3 1.5-5.9 1.9-8.1.8l-.6-.3c-2.1-1-2-3.1.3-4.7z"/><path class="st10" d="M165.3 252.3c0 4-9.7 4-9.7 0v-13h9.7v13z"/><path class="st4" d="M171.7 152.5s-30.8 15.2-31.6 26.7c-.5 7.1-2 45.2-1.3 55 .1 1.4.9 2.7 2.2 3.3 3 1.4 8.3 3 10.1-3.1 2.5-8.5 1.7-37.8 7.7-46.1 6.1-8.4 36.1-20.2 36.1-20.2l-23.2-15.6z"/><path class="st9" d="M189.7 166.9s-25.1 10.3-34.1 24.2c-3.7 5.6-2.3 42.1-2 51.7.1 1.5.9 2.8 2.2 3.4 3 1.4 8.1 3 10.1-2.6 2.9-8 3.1-35.7 9.5-43.3 3.5-4.2 13.8-7.8 28-13.2 6.5-2.5 10.1-15.2 2.5-16.8l-16.2-3.4z"/><path class="st11" d="M166.7 93l-19.8 23c1.2 8.4 5.8 10.8 11.2 13.6l16.9-17.3-8.3-19.3z"/><path class="st12" d="M164.6 153.6c1.7-12.8.8-18.1-2.1-35.6-1.1-24.3 5.9-33.7 21.4-28.8l6.4 1.4c19 9.1 28.3 8.2 25.9 27.9l-.9 40.2c1.1 22-50.6 20.9-50.7-5.1z"/><path class="st3" d="M186.4 99.6l-.7.2c-2.5.5-4.9-1-5.5-3.5l-3-13.9c-.5-2.5 1-4.9 3.5-5.5l.7-.2c2.5-.5 4.9 1 5.5 3.5l4.9 12.9c.5 2.6-2.9 6-5.4 6.5z"/><path class="st13" d="M179.2 91.2s6-.1 9.7-6.1c0 0-3.4 9-8.8 10l-.9-3.9z"/><path class="st14" d="M179.2 91.7s-4.8 7.3 2.6 10.1c11.6 4.3 14.5-8.7 12.7-9.4l-3.7-1.7s2.6 3.4-.8 6.6c-2.6 2.4-7.3 3.1-9.6-.3l-1.2-5.3z"/><path class="st7" d="M83.2 276.5c1.8-33.9 11.1-68.9 27.2-105 3-11.4 15.2-17.7 26.3-13.5l9.6 3.7c9.8 3.8 8.3 10.9 5.5 21.1-16.5 39.2-25.9 78.1-26.4 116.8l-42.2-23.1z"/><path class="st7" d="M145 163s-12.3-2.2-27.6-19.1l-10.2-8.4c-1.4-1.2-3.5-1-4.7.4-1.2 1.4-1.1 3.5.3 4.8l9.2 8.2s-.5 23.8 23 25.1l10-11z"/><path class="st7" d="M139.3 163.3s11.2 8.3 35.5 5.8l14.8.4c1.6 0 2.8 1.3 2.8 2.9 0 1.5-1.2 2.8-2.8 2.9l-14.1.7s-20.9 11.6-40.7-2l4.5-10.7zm21.6 125.1l-13.6 8.5c-6.1 3.8-13.8 4.4-20.3 1.1-5-2.6-9.7-7.6-11.1-17.4-3.2-23.4 12.4-25.8 12.4-25.8s-4.7 46 32.6 33.6z"/><path class="st8" d="M88.8 286.9l-12.7 12.2c-1.8 1.8-5.9 2.2-9 1-3.2-1.2-4.2-3.6-2.4-5.3l12.7-12.2c1.8-1.8 5.9-2.2 9-1 3.1 1.1 4.2 3.5 2.4 5.3z"/><path class="st3" d="M105.6 147c-2.2-.3-3.5-2.9-2.9-6.1.5-2.7 1.5-5.6 3.8-6.8 4.9-2.5 10-1 10-1l3.1 6.1c.5 1-.2 2.1-1.3 2.2-3.1.2-8.3 1-9.5 4.3-.3 1-1.1 1.6-1.7 1.5l-1.5-.2zm77.4 33.2c-2.5 1.1-5.5.2-7-2.2-1.2-2-1.9-4.6-.2-6.8 1.7-2.1 3.5-3.5 4.9-4.4 1.7-1 3.7-1.2 5.5-.5l3.3 1.2c1.3.5 1.6 2.2.4 3-2.3 1.7-5.1 4.3-4.4 6.7.2.8-.1 1.7-.9 2.1l-1.6.9z"/><path class="st3" d="M205.6 137.4c0 16.4-13.6 19.3-24.8 29.4l9.8 1.5s28.4-12.2 27.5-27.6c-.9-15.3-12.5-3.3-12.5-3.3z"/><path class="st8" d="M95.5 259.9c-3.7-1.7-5.8-5.6-5.4-9.6 2.2-21.5 7.5-41.1 15.7-58.8 1.4-3 5-4.4 8-2.9 5.2 2.5 7.6 8.6 5.4 14-6.7 16.8-11.6 34.1-13.9 52-.6 4.6-5.6 7.3-9.8 5.3zM136 155.2c-2-.6-3.9-.3-5.6.7l-10.6 6.7 6.7 18.3 11-6.9c2.4-1.1 4.2-3.5 4.8-6.7 1-5.4-1.9-10.7-6.3-12.1z"/><path class="st15" d="M130.8 174.4c-.9 5.2-5.3 8.4-9.7 7-4.4-1.4-7.2-6.8-6.3-12 .9-5.2 5.3-8.4 9.7-7 4.4 1.3 7.2 6.7 6.3 12z"/><path class="st11" d="M199.7 117.1l-.9 28.9 5.6-.1z"/><path class="st12" d="M200.3 120.3L203 145c.9 2.3 16.1 3.6 16.7.1 1.3-7.3 1-37.7-8.6-44.8-7.8-5.8-13.3 7.3-10.8 20z"/><path class="st3" d="M183.4 84.6c-1.1 6.8-5.7 9.2-10.3 5.4-4.6-3.8-6.7-11.8-4.8-20.1 1.5-6.7 4.1-8.1 8.7-4.4 4.6 3.8 7.5 12.3 6.4 19.1z"/><path class="st3" d="M190 81.7c-1.1 6.8-7.8 10-12.4 6.2-4.6-3.8-7.5-12.3-6.4-19 1.1-6.8 5.7-9.2 10.3-5.4 4.7 3.7 9.6 11.4 8.5 18.2z"/><path class="st3" d="M192 83.1c-.3 1.6-1.8 2.8-3.5 2.5-1.6-.3-2.8-1.8-2.5-3.5.3-1.6 1.8-2.8 3.5-2.5 1.7.3 2.8 1.8 2.5 3.5z"/><path class="st13" d="M167.9 80s3.6 3.7 9.5 2.6c3.7-.7 5.3-2.1 5.3-2.1l3.6 3.8 2.3-5.9-12.6-6.1-7.5-2.8-1.9 4.4 1.3 6.1z"/><path class="st2" d="M179.6 68.1s-.3 16.9 11.6 13.3c0 0 9.6-8.7-1-18.9-9.4-8.9-19.1 1.5-19.1 1.5l8.5 4.1z"/><path class="st1" d="M184.4 72.8s2.3 5.9 1.5 11.9c-.2 1.8 1.8 3.1 3.3 2.2 2.7-1.6 5.7-4.7 6.5-10.4 1.8-13.4-7.8-15.4-7.8-15.4l-3.5 11.7z"/><path class="st8" d="M165.6 71.2s4.2 5.5 16.8 4.3c12.6-1.1 13.5-4.2 13.5-4.2S195 56 181.4 56c-10 .1-13.5 7.5-15.8 15.2z"/><path class="st16" d="M166.1 70.1s-4.4 3.3-2.4 5.4c1.5 1.6 9.4 6.1 15.9 4.5 1.8-.4 3.4-2.9 5-4.7 0 0-12.7 1.9-18.5-5.2z"/><path class="st16" d="M167.9 71.9s2.2-13.7 16.2-15.5c0 0 3.2.2 5.5 2.3 0 0-12 4.4-13.3 16.6-.1-.1-6-.6-8.4-3.4z"/><path class="st17" d="M166.1 70.1s3 6.8 18.5 5.2"/><circle class="st2" cx="188.7" cy="84.6" r=".7"/><path class="st17" d="M151.6 257.2s3.5.2 5.2 3.3m-7.5.3s3.5.2 5.2 3.3m-17.3-18.9s3.5.2 5.2 3.3m-7.5.2s3.5.2 5.2 3.3"/><path class="st14" d="M144.1 45.6c0-4.8-3.5-6.7-7.8-4.1-.2-9-6.9-12.4-15.1-7.6-6.8 4-12.6 12.5-14.5 20.6-1.9 2.1-3.4 4.6-4.5 7.2-.5.2-.9.4-1.4.7-4.3 2.5-7.8 8.5-7.8 13.3 0 4.6 3.2 6.5 7.2 4.4v.1l36.6-21.7c4.1-2.7 7.3-8.3 7.3-12.9zm-67.4 93.3c0-3.2-2.3-4.4-5.2-2.8-.2-6-4.6-8.3-10-5-4.5 2.7-8.4 8.4-9.6 13.8-1.2 1.4-2.3 3.1-3 4.8-.3.1-.6.3-.9.5-2.9 1.7-5.2 5.7-5.2 8.9 0 3.1 2.1 4.3 4.8 3L72 147.6c2.6-1.9 4.7-5.7 4.7-8.7zm173-85c0-2.2-1.6-3.1-3.6-1.9-.1-4.2-3.2-5.8-7-3.5-3.2 1.9-5.9 5.8-6.7 9.6-.9 1-1.6 2.1-2.1 3.4-.2.1-.4.2-.7.3-2 1.2-3.6 4-3.6 6.2 0 2.1 1.5 3 3.3 2.1l17-10.1c1.9-1.3 3.4-4 3.4-6.1z"/></svg>