<svg version="1" id="image" xmlns="http://www.w3.org/2000/svg" viewBox="0 0 348 392"><style>.st0{fill:#e6f1ff}.st1{fill:#9dc4f5}.st2{fill:#bad4f5}.st3{opacity:.4;fill:#a8c4e5}.st4{fill:#0f1a5c}.st5{fill:#ffa3b4}.st6{fill:#ffc248}.st7{fill:#3e69de}.st8{fill:#f08b9e}.st9{fill:#d6b48d}.st10{fill:#bd9a75}.st11{fill:#e8c399}.st12{fill:#1f309c}.st13{fill:#fff}.st14{fill:#86abd9}.st15{fill:#2139c4}.st16{fill:#7695eb}</style><path class="st0" d="M19.8 252.7s-28.5-140 77.5-179.2 188.5-62.2 192.5 49.9 69.5 156.5 24.1 193.6c-45.4 37.2-280.7 31.6-294.1-64.3z"/><path class="st1" d="M166.4 9.3L152 15l14.4 260.3 2 14.5 14.4-5.7v-243l100.3 55.1v241.6l2.9 15 14.5-5.7v-266z"/><path class="st2" d="M152 15v266l16.4 8.8v-243l100.3 55.1v241.6l17.3 9.3v-266z"/><path class="st3" d="M229.8 319.3c-10.4 6-28.3 6.9-40.2 2-11.8-5-13-13.9-2.7-19.9 10.4-6 28.3-6.9 40.2-2 11.9 4.9 13.1 13.8 2.7 19.9z"/><path class="st4" d="M200.1 102.7s10.8-12.1 24.9 3.4c14.2 15.5 21.2-.3 31.7 13.8 10.4 14 4.4 17.3 12.8 26.3s-12.8 28.2-22.5 18.7c-9.7-9.6-35.7-7.1-37.9-15.8-2.2-8.7-9-46.4-9-46.4z"/><path class="st4" d="M198.8 108.3l-.3 19.3s12.1 7.6 18 3.2c5.9-4.4-1.5-25-9-23.8-7.4 1.2-8.7 1.3-8.7 1.3zm-15.1 194.6l11-9.3c1.4-.7 4.5-.8 6.6-.4.9.2 1.6 1 1.6 2v2.1c.1 3-.2 3.4-2.1 4.3l-11.2 5.4c-1.9.9-4.7.8-6.2-.2l-.4-.3c-1.5-1.1-1.2-2.7.7-3.6z"/><path class="st5" d="M186.3 209.2l9.1 84c.4 5.3 6.1 3.6 6.7.4l2.6-75.6-18.4-8.8z"/><path class="st4" d="M219.8 318.1l-3.4-12.9c0-1.6 1.3-4.4 2.6-6.1.6-.8 1.6-1 2.5-.6l1.8.9c2.7 1.2 3.3 3.6 3.3 5.7l-.3 10.4c0 2.1.3 3.9-1.3 4.8l-.6.3c-1.6 1-4.6-.4-4.6-2.5z"/><path class="st5" d="M208.8 218.1l9.1 84c.4 5.3 6.1 3.6 6.7.4l2.6-75.6-18.4-8.8z"/><path class="st6" d="M228.6 163.8l2.8 7.6 2.2-4.3s6.3-18.3-11.5-28.9c-6.4-3.8-12.9-8.1-17.1-10-6.7-2.9-12.1-2.3-17.2 3-.5.5-1.2 17.3-1.2 17.3l-.3 22.8c-.1.5-.1 1-.1 1.5-.3 5.2-1.2 23.8-.6 54.8 0 0 4.9 3.7 14.5 7.8 16.9 7.3 20.2 7.1 27.5 4.6 0 0 3.7-29.4 4.1-35.1.4-5.9.4-12-.6-15.5-2-7.1-1.3-8.5-5-12.8-.3.1-.7.1-1 .2.8-2 1.7-4 2.4-7.5l1.1-5.5z"/><path class="st4" d="M187.9 173.9s14.5 9.1 30.1 3.8v4.6s-15.9 3.8-32-5.3l1.9-3.1z"/><path class="st7" d="M215 133.7s2.7 19.1-7.4 60.8c-9.2 37.6 5.5 40.6 5.5 40.6s10.8 6.2 18.1-2.4c0 0 3.7-58.8 1.8-70.6-1.9-11.7-18-28.4-18-28.4zm-12.1-6.4s-13.9 10.3-14.5 50.8c-.3 23.7-.2 37.2-.1 44.3 0 2-2.6 2.9-3.7 1.2l-.3-.4c-1.2-1.7-1.8-3.8-1.7-5.9l1.9-74.4s1-23.5 18.4-15.6z"/><path class="st7" d="M215 133.7s21.8 5.2 23.3 23.4l-5.8 16.7-10.4-17.2-7.1-22.9z"/><path class="st8" d="M211.9 126.2s-3.7 2.3-8.1 1.4l.2 2.8c-.1 0 4.6.6 7.9-4.2z"/><path class="st5" d="M214.2 121.7c-.1 5.7-7.6 7.8-12.5 4.8s-5.3-9.9-5.1-15.6c.1-5.7 7.9-7.5 12.7-4.5 4.9 3 5 9.6 4.9 15.3z"/><path class="st5" d="M208.4 136.3c-2.3.1-4.3-1.6-4.4-3.9l-.7-11.8c-.1-2.3 1.6-4.3 3.9-4.4 2.3-.1 4.3 1.6 4.4 3.9l.7 11.8c.2 2.3-1.6 4.3-3.9 4.4z"/><path class="st4" d="M215.9 118.6s-7.1-1.4-10.5-5.3c-3.4-3.9-4.9-7.1-3-8.3 2-1.2 15.4-3.2 13.5 13.6z"/><path class="st4" d="M203.4 107.1s-5.2.5-6.8 5.5c-2.4-4 1.4-15.7 11-8.4l-4.2 2.9z"/><path class="st5" d="M216.6 120.7c-.6 1.6-2.1 2.5-3.4 2.1-1.3-.5-1.9-2.2-1.4-3.8.6-1.6 2.1-2.5 3.4-2.1 1.4.5 2 2.2 1.4 3.8zm-26.7 82.6l4.8-.8c2-.3 3.5-2.3 3.1-4.3l-.1-.5c-.3-2-2.3-3.5-4.3-3.1l-4.8.8c-2 .3-3.5 2.3-3.1 4.3l.1.5c.3 2 2.2 3.4 4.3 3.1z"/><path class="st7" d="M186 135s-9.6 24.1-14.5 28.3c-4.9 4.1-23.5 12.9-23.5 12.9l5.3 7s24.7-7.9 28.7-17c4-9 8.5-21.5 8.5-21.5L186 135z"/><path class="st9" d="M147.2 226.2l29.2-16.9v-37.6l-29.2 16.8z"/><path class="st10" d="M147.2 226.2l-38.8-22.5V166l38.8 22.5z"/><path class="st11" d="M176.4 171.7l-37.2-21.4-30.8 15.7 38.8 22.5z"/><path class="st10" d="M169.2 184.9v-9.1l-7.4-4.8-5.5 3 7.7 5v9z"/><path class="st3" d="M115.6 365.3c-10.2 6-27.9 6.8-39.5 1.9-11.6-4.9-12.8-13.6-2.6-19.6 10.2-5.9 27.9-6.8 39.5-1.9 11.6 4.9 12.8 13.7 2.6 19.6z"/><path class="st12" d="M70.1 342.1l7.8-1c5.2-2.4 7.7-4.2 10-2.8l.7.4c2.3 1.4 2 3.7-.7 5.3l-11.5 9.2c-2.7 1.6-6.3 1.1-8.5-.8 0 0-1.3-1.2-.4-6.1.6-2.8.4-2.9 2.6-4.2zm34.2 15.7l7.7 2.7c5.9.3 9-.2 10.6 2.1l.4.6c1.5 2.2.1 4.2-3.1 4.3l-16.7 2.8c-3.2.1-4.5-1.9-5.6-4.6 0 0-.6-3.2 1.1-6.6 1.4-2.5 3.1-1.2 5.6-1.3z"/><path class="st13" d="M107.7 360.5c0 3.7-8.9 3.7-8.9 0v-11.9h8.9v11.9zm-30.4-17.6c-.2 3.3-9.1 3.3-8.9 0l.7-10.8H78l-.7 10.8z"/><path class="st2" d="M71.9 229.9l10.7 1.6-.3-1.5h32.2c.2 41.2-1.4 82.2-5.6 122.9-1.1 4.6-10.4 4.3-12.2 1.3.4-28.7-2-58.2-7.1-88.2l-10.5 72c-3.6 3.7-10.6 2.1-11.9-.5l4.7-107.6z"/><path class="st5" d="M102.7 150c-2.2 7.7-7.9 9.9-12.8 4.8-4.9-5-7-15.4-4.8-23.1 2.2-7.7 7.9-9.9 12.8-4.8 4.8 5.1 7 15.4 4.8 23.1z"/><path class="st5" d="M111.3 148.1c-2.1 7.2-9.8 9.9-14.4 5.1-4.6-4.7-6.6-14.4-4.5-21.7 2.1-7.2 7.5-9.3 12-4.6 4.6 4.8 9 13.9 6.9 21.2z"/><path class="st5" d="M92.1 169.8l-.8-.2c-2.8-.6-4.6-3.4-3.9-6.2l3.5-15.7c.6-2.8 3.4-4.6 6.2-3.9l.8.2c2.8.6 4.6 3.4 3.9 6.2l-1.2 15.6c-.6 2.8-5.7 4.7-8.5 4z"/><path class="st4" d="M85 149.2s.8 6.8 10.5 5.5c7-1 4.9-12.3 11.9-13.4 7.6-1.2-5.4-19.8-11.5-17.2-6.2 2.6-15.6 2.5-10.9 25.1z"/><path class="st5" d="M107.3 145.1c-.5 1.8-2.3 2.8-4.1 2.3-1.8-.5-2.8-2.3-2.3-4.1.5-1.8 2.3-2.8 4.1-2.3 1.8.5 2.8 2.4 2.3 4.1z"/><path class="st7" d="M70.9 228.5c-.3-14.9-.5-24.7-.3-40.1-.1-26.4 7.2-31.8 16.1-30.9 0 0 5.5 1.9 7.3 2.9 19.2 9.9 24.4 13 23.5 24.5.1 18.9-2.7 40.2-3.1 49.5-3.9 13.1-39.1 3.5-43.5-5.9z"/><path class="st8" d="M101.2 155.6l-.8-1.8s2.4 1.5 5.1 1.2c.1-.1-2 1-4.3.6z"/><path class="st14" d="M89.3 269.1l-9.5-13.6 9.5 4.2z"/><path class="st4" d="M110 139.5l8.4-3.7c1.7-.7 1.9-3.1.4-4.1l-9-5.7-15.2 10 15.4 3.5z"/><path class="st4" d="M104.5 145.4c.6 0 1-.5 1-1v-5.1c0-.6-.5-1-1-1-.6 0-1 .5-1 1v5.1c0 .6.4 1 1 1z"/><path class="st4" d="M112.3 138.1l-6.8 6.3s-1.5.4-1.8-.2c-.3-.6-.8-5.6-.8-5.6l9.4-.5z"/><path class="st13" d="M91.6 144.4l-7.1-2.3-.3-1.3 8.2 2.4z"/><path class="st15" d="M90.6 122.3c8.5-3 23.2-3.3 21.2 15 0 0-7.8 9.4-20.3 7.1 0 0 .2-4-3.7-4.8-3.8-.8-3.5 2.4-3.4 2.5l-.6-.3s-5.1-15.3 6.8-19.5z"/><path class="st4" d="M94.8 123.7c0 .4 1 .7 2.1.7 1.2 0 2.1-.3 2.1-.7 0-.4-1-.7-2.1-.7s-2.1.3-2.1.7z"/><path class="st6" d="M111.9 137.3s-1.5 1.8-4.3 3.7c1.3-17.3-5.8-19-12.7-19.8 8.3-1.5 18.6.6 17 16.1z"/><path class="st5" d="M115.3 174.3l22.2 42.7-16.4 1.1-21.7-29.9z"/><path class="st7" d="M113.4 172.1s5.1 2.2 16.7 28.4l-21 13.1-16.8-27.8 21.1-13.7z"/><path class="st5" d="M161.1 203.4l-27.4 6.5-12.7 6.8s-.4 12.3 18.4 4.6 23.4-12.1 23.4-12.1l-1.7-5.8z"/><path class="st5" d="M161.3 211.1l5.3-1.5c2.2-.6 3.6-3 3-5.2l-.2-.6c-.6-2.2-3-3.6-5.2-3l-5.3 1.5c-2.2.6-3.6 3-3 5.2l.2.6c.6 2.3 3 3.7 5.2 3z"/><path class="st8" d="M203.7 127.6s4.1.3 8.1-1.4c0 0-4 4.8-8 4.5l-.1-3.1z"/><path class="st16" d="M86.7 157.6s-1.3 1.4 3.8 4.1c2.2 1.1 13.6 4.1 13.6 4.1.1-4.9-16.9-12.8-17.4-8.2z"/><path class="st15" d="M114.5 234.5l1.8-22-7.9-11-1.5 38.8s6.3-.5 7.6-5.8zm91.9-34.7l14.2-5.9s9.9-4.2 12.8-11.2l-.4 10.1s-9 10.4-27.1 9.6l.5-2.6z"/><path class="st7" d="M238.4 157.2s1.8 29.3-15.1 37.9c-16.9 8.7-28.8 7.4-28.8 7.4l-.9-8.6s15.5-6 18.2-11.2c4.5-8.4 10.6-29 10.6-29l16 3.5z"/><path class="st15" d="M214.5 180.9l9-16.5-1 5.9c-.6 3.9-2.9 7.3-6.2 9.4l-1.8 1.2z"/></svg>