<svg xmlns="http://www.w3.org/2000/svg" width="144" height="54" viewBox="0 0 144 54"><defs><clipPath id="a"><path d="M61.515 3.525c.215-.438.814-.665 1.502-.665 1.289 0 2.89.796 2.872 2.5-.03 2.734-.483 20.502-.73 23.22.951-.399 6.598-3.98 7.347-4.347.17 0 1.76-1.269 3.323.502.824.932.81 1.28.213 1.738-.068.034-10.493 7.184-12.262 7.954-.203.1-.41.122-.612.15-2.325.316-2.262-2.118-2.296-2.151.24-3.081.556-15.22.643-22.67.015-1.325-.015-3.158 0-4.535M87.56 16.348c.356 1.628.554 2.754.839 4.173-2.314 0-3.92.063-4.464.164a97.481 97.481 0 0 1 2.654-8.295c.306 1.332.679 2.615.971 3.958zM102.355.546c.782-.366 1.547-.55 2.295-.55 1.43 0 2.5.383 3.215 1.149.34.367.51.733.51 1.1 0 .666-.337 2.364-2.347 1.799-.78-.22-1.38-.204-1.796.12-1.402 1.025-3.721 4.743-1.877 9.274.135.368 1.123 2.915 3.571 7.713 3.522 7.53 2.296 11.777 1.378 13.476-.307.566-.806 1.363-2.04 2.25-2.651 1.905-5.094.519-5.308-.8-.064-.395.006-1.87 1.735-1.75 1.43.1 2.71-2.179 2.455-4.752-.214-2.154-1.46-5.65-3.654-9.765S97.2 12.406 97.2 9.94c0-2.032.408-3.848 1.225-5.446M22.997 16.636l.45-.62c2.12-2.932 4.566-4.437 5.52-4.437.543 0 1.053.2 1.53.6.477.4 1.752.933 3.827 1.6 1.633.533 2.789 1.433 3.47 2.698 3.054 6.12-.752 15.764-7.511 16.339-1.819.155-4.64-.39-6.59-2.782-2.005-2.07-4.308-8.058-.696-13.398zM43.9 5.143c.388 0 .891.052 1.852.192 4.422.7 10.325 2.212 11.135 8.732.95 7.668-7.763 12.648-9.487 13.78-.14.091.084 6.623.087 7.223.008 1.325.097 1.986-.125 2.679-.625 1.947-4.051 2.04-4.146-.501-.208-2.406-.446-31.93-.04-32.044h.002c.257-.038.464-.061.722-.061zm-13.383 45.07c0-2.26 1.691-3.803 3.87-3.803 1.492 0 2.41.772 2.963 1.654l-1.106.562a2.191 2.191 0 0 0-1.858-1.07c-1.46 0-2.543 1.114-2.543 2.658 0 1.543 1.084 2.657 2.543 2.657.796 0 1.504-.452 1.858-1.07l1.106.563c-.564.882-1.471 1.653-2.964 1.653-2.178 0-3.87-1.543-3.87-3.803zm9.527 0c0-2.193 1.56-3.803 3.77-3.803 2.212 0 3.771 1.61 3.771 3.804s-1.559 3.803-3.77 3.803c-2.212 0-3.77-1.609-3.77-3.803zm6.214 0c0-1.52-.962-2.657-2.443-2.657-1.493 0-2.444 1.136-2.444 2.658 0 1.51.951 2.657 2.444 2.657 1.481 0 2.443-1.147 2.443-2.657zm4.088 2.636l.719-.993a3.184 3.184 0 0 0 2.333 1.015c1.061 0 1.481-.518 1.481-1.003 0-1.544-4.3-.585-4.3-3.297 0-1.213 1.072-2.15 2.686-2.15 1.15 0 2.079.364 2.764 1.025l-.74.96c-.576-.573-1.36-.838-2.135-.838-.762 0-1.249.363-1.249.915 0 1.367 4.29.518 4.29 3.263 0 1.224-.862 2.271-2.853 2.271-1.36 0-2.344-.473-2.996-1.168zm15.4 1.036v-5.458l-2.267 5.458h-.553l-2.256-5.458v5.458h-1.293v-7.353H61.2l2.001 4.84 2.013-4.84h1.824v7.353zm4.85 0v-7.353h5.053v1.135h-3.76v1.907h3.682v1.136h-3.682v2.04h3.76v1.135zm10.125 0v-6.218h-2.233v-1.135h5.76v1.135h-2.233v6.218zm6.61 0v-7.353h1.293v7.353zm4.52-3.671c0-2.26 1.692-3.804 3.87-3.804 1.492 0 2.41.772 2.963 1.654l-1.106.562a2.191 2.191 0 0 0-1.857-1.07c-1.46 0-2.543 1.114-2.543 2.658 0 1.543 1.083 2.657 2.543 2.657.796 0 1.503-.452 1.857-1.07l1.106.563c-.564.882-1.47 1.653-2.963 1.653-2.178 0-3.87-1.543-3.87-3.803zm9.384 2.635l.719-.993a3.184 3.184 0 0 0 2.333 1.015c1.061 0 1.481-.518 1.481-1.003 0-1.544-4.3-.585-4.3-3.297 0-1.213 1.072-2.15 2.686-2.15 1.15 0 2.079.364 2.764 1.025l-.74.96c-.576-.573-1.36-.838-2.135-.838-.763 0-1.249.363-1.249.915 0 1.367 4.29.518 4.29 3.263 0 1.224-.863 2.271-2.853 2.271-1.36 0-2.344-.473-2.996-1.168zm37.548-40.677c-2.875 0-5.209-2.327-5.209-5.193a5.188 5.188 0 0 1 5.209-5.195 5.173 5.173 0 0 1 5.208 5.195 5.188 5.188 0 0 1-5.208 5.193zm0-9.628c-2.482 0-4.472 1.96-4.472 4.435 0 2.45 1.99 4.458 4.472 4.458 2.457 0 4.447-2.009 4.447-4.458a4.424 4.424 0 0 0-4.447-4.435zm1.425 7.423l-1.548-2.352h-1.056v2.352h-.811V4.014h2.432c1.007 0 1.916.71 1.916 1.813 0 1.322-1.179 1.764-1.523 1.764l1.597 2.376zm-.983-5.243h-1.621V6.88h1.621c.516 0 1.081-.44 1.081-1.053a1.11 1.11 0 0 0-1.08-1.103z"/></clipPath></defs><path d="M61.515 3.525c.215-.438.814-.665 1.502-.665 1.289 0 2.89.796 2.872 2.5-.03 2.734-.483 20.502-.73 23.22.951-.399 6.598-3.98 7.347-4.347.17 0 1.76-1.269 3.323.502.824.932.81 1.28.213 1.738-.068.034-10.493 7.184-12.262 7.954-.203.1-.41.122-.612.15-2.325.316-2.262-2.118-2.296-2.151.24-3.081.556-15.22.643-22.67.015-1.325-.015-3.158 0-4.535M87.56 16.348c.356 1.628.554 2.754.839 4.173-2.314 0-3.92.063-4.464.164a97.481 97.481 0 0 1 2.654-8.295c.306 1.332.679 2.615.971 3.958zM102.355.546c.782-.366 1.547-.55 2.295-.55 1.43 0 2.5.383 3.215 1.149.34.367.51.733.51 1.1 0 .666-.337 2.364-2.347 1.799-.78-.22-1.38-.204-1.796.12-1.402 1.025-3.721 4.743-1.877 9.274.135.368 1.123 2.915 3.571 7.713 3.522 7.53 2.296 11.777 1.378 13.476-.307.566-.806 1.363-2.04 2.25-2.651 1.905-5.094.519-5.308-.8-.064-.395.006-1.87 1.735-1.75 1.43.1 2.71-2.179 2.455-4.752-.214-2.154-1.46-5.65-3.654-9.765S97.2 12.406 97.2 9.94c0-2.032.408-3.848 1.225-5.446M22.997 16.636l.45-.62c2.12-2.932 4.566-4.437 5.52-4.437.543 0 1.053.2 1.53.6.477.4 1.752.933 3.827 1.6 1.633.533 2.789 1.433 3.47 2.698 3.054 6.12-.752 15.764-7.511 16.339-1.819.155-4.64-.39-6.59-2.782-2.005-2.07-4.308-8.058-.696-13.398zM43.9 5.143c.388 0 .891.052 1.852.192 4.422.7 10.325 2.212 11.135 8.732.95 7.668-7.763 12.648-9.487 13.78-.14.091.084 6.623.087 7.223.008 1.325.097 1.986-.125 2.679-.625 1.947-4.051 2.04-4.146-.501-.208-2.406-.446-31.93-.04-32.044h.002c.257-.038.464-.061.722-.061zm-13.383 45.07c0-2.26 1.691-3.803 3.87-3.803 1.492 0 2.41.772 2.963 1.654l-1.106.562a2.191 2.191 0 0 0-1.858-1.07c-1.46 0-2.543 1.114-2.543 2.658 0 1.543 1.084 2.657 2.543 2.657.796 0 1.504-.452 1.858-1.07l1.106.563c-.564.882-1.471 1.653-2.964 1.653-2.178 0-3.87-1.543-3.87-3.803zm9.527 0c0-2.193 1.56-3.803 3.77-3.803 2.212 0 3.771 1.61 3.771 3.804s-1.559 3.803-3.77 3.803c-2.212 0-3.77-1.609-3.77-3.803zm6.214 0c0-1.52-.962-2.657-2.443-2.657-1.493 0-2.444 1.136-2.444 2.658 0 1.51.951 2.657 2.444 2.657 1.481 0 2.443-1.147 2.443-2.657zm4.088 2.636l.719-.993a3.184 3.184 0 0 0 2.333 1.015c1.061 0 1.481-.518 1.481-1.003 0-1.544-4.3-.585-4.3-3.297 0-1.213 1.072-2.15 2.686-2.15 1.15 0 2.079.364 2.764 1.025l-.74.96c-.576-.573-1.36-.838-2.135-.838-.762 0-1.249.363-1.249.915 0 1.367 4.29.518 4.29 3.263 0 1.224-.862 2.271-2.853 2.271-1.36 0-2.344-.473-2.996-1.168zm15.4 1.036v-5.458l-2.267 5.458h-.553l-2.256-5.458v5.458h-1.293v-7.353H61.2l2.001 4.84 2.013-4.84h1.824v7.353zm4.85 0v-7.353h5.053v1.135h-3.76v1.907h3.682v1.136h-3.682v2.04h3.76v1.135zm10.125 0v-6.218h-2.233v-1.135h5.76v1.135h-2.233v6.218zm6.61 0v-7.353h1.293v7.353zm4.52-3.671c0-2.26 1.692-3.804 3.87-3.804 1.492 0 2.41.772 2.963 1.654l-1.106.562a2.191 2.191 0 0 0-1.857-1.07c-1.46 0-2.543 1.114-2.543 2.658 0 1.543 1.083 2.657 2.543 2.657.796 0 1.503-.452 1.857-1.07l1.106.563c-.564.882-1.47 1.653-2.963 1.653-2.178 0-3.87-1.543-3.87-3.803zm9.384 2.635l.719-.993a3.184 3.184 0 0 0 2.333 1.015c1.061 0 1.481-.518 1.481-1.003 0-1.544-4.3-.585-4.3-3.297 0-1.213 1.072-2.15 2.686-2.15 1.15 0 2.079.364 2.764 1.025l-.74.96c-.576-.573-1.36-.838-2.135-.838-.763 0-1.249.363-1.249.915 0 1.367 4.29.518 4.29 3.263 0 1.224-.863 2.271-2.853 2.271-1.36 0-2.344-.473-2.996-1.168zm37.548-40.677c-2.875 0-5.209-2.327-5.209-5.193a5.188 5.188 0 0 1 5.209-5.195 5.173 5.173 0 0 1 5.208 5.195 5.188 5.188 0 0 1-5.208 5.193zm0-9.628c-2.482 0-4.472 1.96-4.472 4.435 0 2.45 1.99 4.458 4.472 4.458 2.457 0 4.447-2.009 4.447-4.458a4.424 4.424 0 0 0-4.447-4.435zm1.425 7.423l-1.548-2.352h-1.056v2.352h-.811V4.014h2.432c1.007 0 1.916.71 1.916 1.813 0 1.322-1.179 1.764-1.523 1.764l1.597 2.376zm-.983-5.243h-1.621V6.88h1.621c.516 0 1.081-.44 1.081-1.053a1.11 1.11 0 0 0-1.08-1.103z"/><g clip-path="url(#a)"><path fill="#ee2665" d="M-12-14h164v55H-12z"/></g></svg>