<svg xmlns="http://www.w3.org/2000/svg" width="360" height="97" viewBox="0 0 360 97"><path fill="#fed8e2" d="M.005 49.295c0 26.302 21.313 47.7 47.51 47.7 26.196 0 47.508-21.398 47.508-47.7 0-26.302-21.312-47.7-47.509-47.7-26.196 0-47.509 21.398-47.509 47.7z"/><path fill="#def0d9" d="M205.783 49.295c0 26.302 21.312 47.7 47.508 47.7 26.197 0 47.509-21.398 47.509-47.7 0-26.302-21.312-47.7-47.509-47.7-26.196 0-47.508 21.398-47.508 47.7z"/><path d="M125.937 47.312c-20.753 6.449-68.463 17.174-100.64 1.804-1.235-1.457-2.126-2.599-.644-3.39 8.73-6.206 20.7 22.703 101.284 1.586zM360.01 25.04c-22.088 26.015-66.455 42.704-111.112 30.45-5.176-1.421-8.402-2.223-14.33-6.374-1.236-1.457-2.127-2.599-.645-3.39 3.504-3.871 6.404.427 16.65 5.543 29.225 10.21 77.563 7.85 109.436-26.23z"/><path d="M359.096 43.677c-25.22 25.639-72.476 41.557-114.854 20.702-4.818-2.37-7.744-2.33-13.436-6.8-1.155-1.522-1.983-2.712-.46-3.42 3.71-3.673 5.847.428 15.8 6.099 29.586 17.47 77.869 16.395 112.95-16.581zM352.152.01c-14.476 30.937-60.24 51.745-99.59 43.493-5.09-1.068-7.72-.72-14.135-3.95-1.468-1.258-2.545-2.256-1.342-3.258 2.408-4.349 5.47-.763 16.109 2.784 27.75 8.098 77.33.065 98.958-39.07zM113.641 69.49c-58.55 14.293-75.455-4.184-90.151-13.6-1.236-1.456-2.127-2.598-.645-3.389 8.73-6.206 15.707 32.928 90.796 16.988zm2.429-52.2C78.037 46.037 54.076 40.749 29.142 38.451c-1.73-.802-3.016-1.465-2-2.806C32.48 26.34 61.45 55.552 116.07 17.29z"/><path fill="#ee306c" d="M165.528 54.12l-.883-1.666 1.653-3.048c-3.16.027-25.207.151-26.255-1.427 13.449-1.227 21.988-.86 26.46-1.214l-1.527-2.411 1.055-1.633 5.174 6.005z"/></svg>