<svg width="162" height="23" viewBox="0 0 162 23" fill="none" xmlns="http://www.w3.org/2000/svg"><path d="M.648 1.242c.5.125.977.219 1.43.281.453.063.852.11 1.195.141a7.06 7.06 0 0 0 1.125.047c.438 0 .985-.04 1.641-.117.672-.078 1.36-.149 2.063-.211a23.46 23.46 0 0 1 2.015-.14c.656-.032 1.188.007 1.594.116.406.094.82.243 1.242.446.438.187.836.43 1.195.726.36.281.657.617.891 1.008.234.375.367.805.399 1.29a4.008 4.008 0 0 1-.422 1.71c-.22.453-.586.922-1.102 1.406-.516.47-1.258.828-2.226 1.078.484.063.898.172 1.242.329.36.14.664.312.914.515.265.188.476.399.633.633.171.234.304.469.398.703.234.547.344 1.156.328 1.828-.094.875-.273 1.57-.539 2.086-.25.516-.539.914-.867 1.195a2.917 2.917 0 0 1-1.008.586c-.344.11-.656.196-.937.258a4.83 4.83 0 0 1-1.032.094c-.406 0-.843-.008-1.312-.023a38.54 38.54 0 0 0-1.406-.07 10.22 10.22 0 0 0-1.383 0c-.36.03-.797.062-1.313.093l-1.64.117c-.657.031-1.422.07-2.297.117a1.8 1.8 0 0 0 .422-.422 7.47 7.47 0 0 0 .304-.445c.078-.156.149-.305.211-.445.047-.125.086-.469.117-1.031.032-.563.055-1.235.07-2.016.016-.797.024-1.648.024-2.555a49.15 49.15 0 0 0-.023-2.648A43.403 43.403 0 0 0 2.5 5.648c-.031-.671-.078-1.156-.14-1.453a7.263 7.263 0 0 0-.376-1.008 5.575 5.575 0 0 0-.539-.96 5.793 5.793 0 0 0-.797-.985zm4.946 2.39c0 .063.008.274.023.634.016.312.031.796.047 1.453.031.64.07 1.554.117 2.742.39.172.774.266 1.149.281.375 0 .71-.015 1.008-.047.343-.047.671-.125.984-.234.422-.172.75-.453.984-.844.25-.39.414-.797.492-1.219a3.61 3.61 0 0 0 .07-1.218c-.046-.39-.148-.672-.304-.844a3.616 3.616 0 0 0-1.101-.656c-.376-.14-.852-.235-1.43-.282-.563-.062-1.242.016-2.04.235zm-.117 11.11c.578.297 1.085.492 1.523.586.438.094.805.14 1.102.14.343 0 .64-.046.89-.14.297-.14.586-.328.867-.562a2.335 2.335 0 0 0 .844-1.993c-.031-.421-.21-.882-.539-1.382a3.16 3.16 0 0 0-1.078-.844c-.375-.172-.852-.281-1.43-.328-.562-.047-1.258.086-2.086.398l-.093 4.125zm12.796-6.234c.079-.094.125-.266.141-.516a5.66 5.66 0 0 1 .188-.89 4.09 4.09 0 0 1 .539-1.032c.25-.36.656-.695 1.218-1.008.547-.312 1.078-.5 1.594-.562a4.22 4.22 0 0 1 1.477.07c.468.11.906.282 1.312.516a7.75 7.75 0 0 1 1.149.773c.234.188.422.461.562.82.14.344.25.735.328 1.173.078.437.133.898.164 1.382.047.47.078.93.094 1.383.016.438.023.844.023 1.219.016.36.047.656.094.89.063.344.172.641.328.891.157.235.328.438.516.61.188.156.375.28.563.375.187.093.351.164.492.21.093.047.18.079.258.094.156.063.265.063.328 0-.094.219-.18.406-.258.563-.078.156-.14.289-.188.398a4.644 4.644 0 0 1-.164.305c-.047.094-.101.18-.164.258-.047.078-.11.164-.187.258a5.145 5.145 0 0 0-.235.304 4.033 4.033 0 0 1-.586-.281c-.172-.11-.328-.211-.468-.305a6.067 6.067 0 0 1-.47-.328 2.974 2.974 0 0 1-.398-.375 45.118 45.118 0 0 0-.351-.398 2.332 2.332 0 0 1-.281-.47c-.094.204-.32.493-.68.868-.344.375-.797.719-1.36 1.031-.562.297-1.218.508-1.968.633-.735.125-1.547.04-2.438-.258a4.24 4.24 0 0 1-1.101-.539 4.014 4.014 0 0 1-.89-.89 3.62 3.62 0 0 1-.517-1.172c-.093-.453-.085-.953.024-1.5.11-.547.305-1.008.586-1.383.281-.375.617-.68 1.008-.914a4.93 4.93 0 0 1 1.312-.54 9.4 9.4 0 0 1 1.5-.257c.406-.016.813.008 1.219.07.344.063.703.18 1.078.352.375.156.695.398.961.726a26.74 26.74 0 0 0-.094-1.968 22.57 22.57 0 0 0-.093-1.149 4.819 4.819 0 0 0-.165-.656 14.42 14.42 0 0 1-.257-.375 1.398 1.398 0 0 0-.305-.375 1.432 1.432 0 0 0-.469-.305 1.456 1.456 0 0 0-.656-.093c-.266.015-.477.086-.633.21a1.464 1.464 0 0 0-.375.446 1.402 1.402 0 0 0-.14.516c-.016.187-.008.351.023.492.031.093.078.195.14.304.063.094.149.196.258.305.11.11.258.203.446.281-.36.047-.68.086-.961.117a7.65 7.65 0 0 0-.727.07c-.234.032-.437.056-.61.071a5.892 5.892 0 0 0-.609.094l-.75.117c-.296.047-.64.11-1.03.188l.257-.305a6.54 6.54 0 0 1 .21-.281 3.94 3.94 0 0 1 .188-.258zm3.516 2.789a2.395 2.395 0 0 0-.844.21c-.28.11-.53.274-.75.493a2.912 2.912 0 0 0-.562.727c-.14.265-.211.562-.211.89 0 .328.078.617.234.867.172.235.39.43.657.586.28.157.578.25.89.282.328.03.649 0 .961-.094.297-.11.578-.281.844-.516a4.6 4.6 0 0 0 .68-.797c.187-.297.32-.586.398-.867.078-.297.086-.539.023-.726-.125-.407-.406-.688-.843-.844-.438-.172-.93-.242-1.477-.211zM42.508 9.68a6.632 6.632 0 0 0-.703-.07 13.175 13.175 0 0 0-.774-.024c-.281 0-.578.008-.89.023l-.985.047c-.281.016-.601.04-.96.07a20.4 20.4 0 0 0-1.008.07c.124-.062.234-.148.328-.257.109-.11.203-.219.28-.328.079-.125.15-.258.212-.399.078-.234.07-.515-.024-.843a2.316 2.316 0 0 0-.515-.938c-.235-.281-.54-.5-.914-.656-.36-.172-.758-.21-1.196-.117-.468.11-.89.273-1.265.492-.36.219-.664.523-.914.914-.235.375-.407.844-.516 1.406-.094.547-.117 1.203-.07 1.97.062.952.218 1.71.468 2.273.25.562.555.984.915 1.265.359.281.75.453 1.171.516.438.047.868.047 1.29 0 .296-.063.57-.196.82-.399.203-.172.39-.422.562-.75.172-.328.25-.78.235-1.36l2.86-.116c-.33.922-.727 1.656-1.196 2.203-.469.531-.922.945-1.36 1.242a4.864 4.864 0 0 1-1.547.703 8.58 8.58 0 0 1-1.71.14 5.863 5.863 0 0 1-2.485-.702c-.344-.188-.672-.39-.984-.61-.203-.14-.43-.375-.68-.703a6.837 6.837 0 0 1-.703-1.172 8.563 8.563 0 0 1-.54-1.547 5.844 5.844 0 0 1-.163-1.734 5.53 5.53 0 0 1 .422-1.828c.25-.61.648-1.195 1.195-1.758.828-.844 1.711-1.39 2.648-1.64.954-.266 1.852-.336 2.696-.211.844.109 1.594.351 2.25.726.656.375 1.117.781 1.383 1.219.265.437.46.773.586 1.008.14.218.242.39.304.515.078.11.14.196.188.258.062.047.148.117.258.211.078.078.171.164.28.258.095.078.204.172.329.281.125.11.266.227.422.352zm-.586-8.578c.172.078.375.132.61.164.25.03.484.046.702.046a14.792 14.792 0 0 0 1.852-.117c.328-.03.734-.07 1.219-.117a51.32 51.32 0 0 0 1.617-.187 3.16 3.16 0 0 0-.961.726 2.34 2.34 0 0 0-.305.422c-.11.188-.258.516-.445.984-.172.454-.352.961-.54 1.524a30.662 30.662 0 0 0-.468 1.71 8.768 8.768 0 0 0-.21 1.477 164.65 164.65 0 0 0-.095 2.555 299.3 299.3 0 0 0-.046 1.875 74.982 74.982 0 0 0 2.601-1.945c.61-.5 1.055-.883 1.336-1.149.328-.297.523-.508.586-.633a.933.933 0 0 0-.117-.304 3.215 3.215 0 0 0-.328-.328 3.653 3.653 0 0 0-.633-.422c.406.047.758.078 1.055.094.312.015.578.03.796.046.25.016.47.016.657 0 .203 0 .453-.007.75-.023.515-.016 1.312-.04 2.39-.07-1.047.547-1.875 1.015-2.484 1.406a23.15 23.15 0 0 0-.914.61c-.266.202-.54.413-.82.632-.25.188-.54.406-.868.656-.312.25-.625.516-.937.797.547.89 1.023 1.625 1.43 2.203.421.579.773 1.047 1.054 1.407.328.421.617.757.867 1.007.25.235.579.5.985.797.344.266.789.578 1.336.938a76.12 76.12 0 0 0 2.039 1.195 11.082 11.082 0 0 0-1.172-.164 9.736 9.736 0 0 0-.961 0 7.087 7.087 0 0 0-.89.094 27.115 27.115 0 0 0-1.992.54c-.391.14-.821.32-1.29.538.297-.219.516-.43.656-.633a2.54 2.54 0 0 0 .328-.469.797.797 0 0 0 .07-.398 22.736 22.736 0 0 0-.538-.961l-1.172-1.781c-.516-.781-1.25-1.844-2.203-3.188a1.108 1.108 0 0 0-.235.14 9.782 9.782 0 0 1-.422.329c-.187.125-.437.313-.75.563l.633 4.101c-.14.063-.297.117-.468.164a6.301 6.301 0 0 1-.446.117 2.986 2.986 0 0 1-.515.094 5.88 5.88 0 0 0-.61.094c-.203.031-.445.07-.726.117-.282.063-.602.133-.961.21.203-.14.367-.304.492-.491a3.53 3.53 0 0 0 .305-.492c.078-.172.148-.352.21-.54.032-.156.063-.562.094-1.218a65.01 65.01 0 0 0 .117-2.344c.032-.922.055-1.906.07-2.953a108.729 108.729 0 0 0 .023-5.39c-.014-.704-.046-1.157-.093-1.36-.078-.25-.171-.516-.28-.797a6.566 6.566 0 0 0-.4-.844c-.155-.328-.35-.68-.585-1.054zm10.476 5.976c.5-.078.907-.14 1.22-.187.327-.063.593-.11.796-.141a12.475 12.475 0 0 0 1.078-.258c.203-.062.469-.133.797-.21.328-.095.742-.22 1.242-.376a4.551 4.551 0 0 0-.304.422c-.063.11-.125.203-.188.281-.062.094-.117.18-.164.258a1.614 1.614 0 0 0-.14.352c-.032.125-.07.304-.118.539a7.325 7.325 0 0 0-.117.867c.844-.531 1.617-.93 2.32-1.195a13.258 13.258 0 0 1 1.875-.563c.625-.125 1.188-.172 1.688-.14a5.234 5.234 0 0 1 1.734.421 7.003 7.003 0 0 1 1.477.797c.437.313.82.657 1.148 1.032a5.4 5.4 0 0 1 .774 1.125c.125.25.203.609.234 1.078.047.468 0 .968-.14 1.5a4.977 4.977 0 0 1-.75 1.57c-.344.5-.837.898-1.477 1.195-1.11.5-2.211.782-3.305.844a7.62 7.62 0 0 1-1.453-.047 5.942 5.942 0 0 1-1.477-.398 5.621 5.621 0 0 1-1.406-.867c-.453-.391-.867-.891-1.242-1.5a42.077 42.077 0 0 0-.281 2.085 36.548 36.548 0 0 0-.094 1.454 13.98 13.98 0 0 0 0 1.148c.031.313.094.648.188 1.008.078.312.187.672.328 1.078.156.422.351.86.586 1.313a1.85 1.85 0 0 0-.399-.07c-.156 0-.32.015-.492.046-.188.031-.398.063-.633.094-.219.047-.46.101-.726.164l-.774.164c-.281.078-.57.164-.867.258a2.21 2.21 0 0 0 .398-.703c.11-.25.196-.485.258-.703.063-.266.117-.532.164-.797.016-.235.04-.68.07-1.336.047-.64.087-1.383.118-2.227.031-.86.054-1.758.07-2.695.031-.938.047-1.805.047-2.602.016-.812.016-1.5 0-2.062-.016-.563-.047-.89-.094-.985-.062-.109-.18-.226-.351-.351a2.665 2.665 0 0 0-.61-.328 8.952 8.952 0 0 0-1.008-.352zm5.579 4.266a2.2 2.2 0 0 0-.07 1.054c.062.344.218.665.468.961.266.297.633.563 1.102.797.484.219 1.086.383 1.804.492.719.11 1.266.094 1.64-.046.376-.141.65-.36.821-.657.188-.312.313-.672.375-1.078.063-.422.14-.86.235-1.312a2.772 2.772 0 0 0-.047-1.336 4.614 4.614 0 0 0-.54-1.266 3.406 3.406 0 0 0-.75-.914c-.265-.25-.5-.375-.703-.375-.484 0-.96.125-1.43.375-.468.25-.898.563-1.288.938s-.735.78-1.032 1.218c-.28.422-.476.805-.585 1.149zm12.492-2.836c.078-.094.125-.266.14-.516.032-.265.094-.562.188-.89.11-.329.289-.672.539-1.032.25-.36.656-.695 1.219-1.008.547-.312 1.078-.5 1.593-.562a4.22 4.22 0 0 1 1.477.07c.469.11.906.282 1.313.516a7.75 7.75 0 0 1 1.148.773c.234.188.422.461.562.82.141.344.25.735.329 1.173.078.437.132.898.164 1.382.046.47.078.93.093 1.383.016.438.024.844.024 1.219.015.36.047.656.094.89.062.344.171.641.328.891.156.235.328.438.515.61.188.156.375.28.563.375.187.093.351.164.492.21.094.047.18.079.258.094.156.063.265.063.328 0-.094.219-.18.406-.258.563-.078.156-.14.289-.187.398a4.698 4.698 0 0 1-.164.305 1.45 1.45 0 0 1-.165.258 2.04 2.04 0 0 1-.187.258 5.188 5.188 0 0 0-.234.304 4.033 4.033 0 0 1-.586-.281c-.172-.11-.328-.211-.47-.305a6.067 6.067 0 0 1-.468-.328 2.98 2.98 0 0 1-.398-.375l-.352-.398a2.332 2.332 0 0 1-.281-.47c-.094.204-.32.493-.68.868-.344.375-.797.719-1.36 1.031-.562.297-1.218.508-1.968.633-.734.125-1.547.04-2.437-.258a4.24 4.24 0 0 1-1.102-.539 4.014 4.014 0 0 1-.89-.89 3.62 3.62 0 0 1-.516-1.172c-.094-.453-.086-.953.023-1.5.11-.547.305-1.008.586-1.383.281-.375.617-.68 1.008-.914a4.93 4.93 0 0 1 1.313-.54 9.4 9.4 0 0 1 1.5-.257c.406-.016.812.008 1.218.07.344.063.703.18 1.078.352.375.156.696.398.961.726a26.806 26.806 0 0 0-.093-1.968c-.032-.5-.063-.883-.094-1.149a4.838 4.838 0 0 0-.164-.656c-.078-.11-.164-.234-.258-.375a1.398 1.398 0 0 0-.305-.375 1.432 1.432 0 0 0-.469-.305 1.456 1.456 0 0 0-.656-.093c-.265.015-.476.086-.633.21a1.464 1.464 0 0 0-.375.446 1.402 1.402 0 0 0-.14.516c-.016.187-.008.351.023.492.031.093.078.195.14.304.063.094.15.196.259.305.11.11.257.203.445.281-.36.047-.68.086-.96.117a7.65 7.65 0 0 0-.728.07c-.234.032-.437.056-.609.071a5.886 5.886 0 0 0-.61.094l-.75.117c-.296.047-.64.11-1.03.188.093-.11.18-.211.257-.305.078-.11.149-.203.211-.281.063-.094.125-.18.188-.258zm3.515 2.789a2.395 2.395 0 0 0-.843.21 2.15 2.15 0 0 0-.75.493 2.912 2.912 0 0 0-.563.727c-.14.265-.21.562-.21.89 0 .328.077.617.234.867.171.235.39.43.656.586.281.157.578.25.89.282.329.03.649 0 .961-.094.297-.11.579-.281.844-.516a4.58 4.58 0 0 0 .68-.797c.187-.297.32-.586.398-.867.078-.297.086-.539.024-.726-.125-.407-.407-.688-.844-.844-.438-.172-.93-.242-1.477-.211zm20.72-1.617A6.632 6.632 0 0 0 94 9.61a13.172 13.172 0 0 0-.773-.024c-.282 0-.579.008-.891.023l-.984.047c-.282.016-.602.04-.961.07a20.4 20.4 0 0 0-1.008.07c.125-.062.234-.148.328-.257.11-.11.203-.219.281-.328.078-.125.149-.258.211-.399.078-.234.07-.515-.023-.843a2.316 2.316 0 0 0-.516-.938 2.329 2.329 0 0 0-.914-.656c-.36-.172-.758-.21-1.195-.117-.47.11-.89.273-1.266.492-.36.219-.664.523-.914.914-.234.375-.406.844-.516 1.406-.093.547-.117 1.203-.07 1.97.063.952.219 1.71.469 2.273.25.562.555.984.914 1.265.36.281.75.453 1.172.516a5.91 5.91 0 0 0 1.289 0 1.92 1.92 0 0 0 .82-.399c.203-.172.39-.422.563-.75.171-.328.25-.78.234-1.36l2.86-.116c-.329.922-.727 1.656-1.196 2.203-.469.531-.922.945-1.36 1.242a4.864 4.864 0 0 1-1.546.703 8.59 8.59 0 0 1-1.711.14 5.864 5.864 0 0 1-2.484-.702 10.39 10.39 0 0 1-.985-.61c-.203-.14-.43-.375-.68-.703a6.837 6.837 0 0 1-.703-1.172 8.57 8.57 0 0 1-.539-1.547 5.844 5.844 0 0 1-.164-1.734 5.53 5.53 0 0 1 .422-1.828c.25-.61.648-1.195 1.195-1.758.829-.844 1.711-1.39 2.649-1.64.953-.266 1.851-.336 2.695-.211.844.109 1.594.351 2.25.726.656.375 1.117.781 1.383 1.219.266.437.46.773.586 1.008.14.218.242.39.305.515.078.11.14.196.187.258.063.047.148.117.258.211.078.078.172.164.281.258.094.078.203.172.328.281.125.11.266.227.422.352zm-.587-8.578c.172.078.375.132.61.164.25.03.484.046.703.046a14.79 14.79 0 0 0 1.851-.117c.328-.03.735-.07 1.219-.117a47.7 47.7 0 0 0 1.617-.187 3.105 3.105 0 0 0-.96.727c-.126.14-.227.28-.305.421-.11.188-.258.516-.446.984-.172.454-.351.961-.539 1.524a30.662 30.662 0 0 0-.469 1.71 8.768 8.768 0 0 0-.21 1.477c-.016.344-.032.735-.047 1.172-.016.375-.032.836-.047 1.383-.016.547-.031 1.172-.047 1.875a74.982 74.982 0 0 0 2.601-1.945c.61-.5 1.055-.883 1.336-1.149.328-.297.524-.508.586-.633a.908.908 0 0 0-.117-.304 3.161 3.161 0 0 0-.328-.328 3.68 3.68 0 0 0-.633-.422c.406.047.758.078 1.055.094.312.015.578.03.797.046.25.016.468.016.656 0 .203 0 .453-.007.75-.023.516-.016 1.312-.04 2.391-.07-1.047.547-1.875 1.015-2.485 1.406-.344.219-.648.422-.914.61a96.6 96.6 0 0 0-.82.632c-.25.188-.539.406-.867.656-.313.25-.625.516-.938.797a44.15 44.15 0 0 0 1.43 2.203c.422.579.773 1.047 1.055 1.407.328.421.617.757.867 1.007.25.235.578.5.984.797.344.266.789.578 1.336.938.563.344 1.242.742 2.039 1.195a11.077 11.077 0 0 0-1.172-.164 9.739 9.739 0 0 0-.961 0 7.066 7.066 0 0 0-.89.094 27.473 27.473 0 0 0-1.993.54c-.39.14-.82.32-1.289.538.297-.219.516-.43.657-.633a2.66 2.66 0 0 0 .328-.469.798.798 0 0 0 .07-.398 22.857 22.857 0 0 0-.539-.961c-.266-.406-.656-1-1.172-1.781a120.9 120.9 0 0 0-2.203-3.188 1.108 1.108 0 0 0-.234.14 11.24 11.24 0 0 1-.422.329c-.188.125-.438.313-.75.563l.633 4.101a3.28 3.28 0 0 1-.47.164 6.314 6.314 0 0 1-.444.117 2.989 2.989 0 0 1-.516.094 5.875 5.875 0 0 0-.61.094c-.203.031-.445.07-.726.117-.281.063-.602.133-.96.21.202-.14.366-.304.491-.491a3.53 3.53 0 0 0 .305-.492c.078-.172.148-.352.21-.54.032-.156.063-.562.095-1.218a64.78 64.78 0 0 0 .117-2.344c.031-.922.055-1.906.07-2.953a109.394 109.394 0 0 0 .023-5.39c-.015-.704-.046-1.157-.093-1.36A12.5 12.5 0 0 0 95.102 3a6.58 6.58 0 0 0-.399-.844c-.156-.328-.351-.68-.586-1.054zm21.516 3.515a52.15 52.15 0 0 0-.375.938c-.094.28-.18.53-.258.75-.078.25-.148.468-.211.656-.062.219-.133.469-.211.75-.078.25-.18.562-.305.937-.109.36-.242.79-.398 1.29-.125-.75-.352-1.344-.68-1.782-.328-.453-.664-.804-1.007-1.054a4.193 4.193 0 0 0-1.313-.61c-.844-.14-1.453-.125-1.828.047s-.625.39-.75.656c-.063.11-.133.25-.211.422-.063.156-.117.32-.164.492a1.941 1.941 0 0 0-.024.516.615.615 0 0 0 .211.422c.079.078.282.187.61.328l1.172.445c.468.157.961.328 1.476.516.531.187 1.031.375 1.5.562.469.188.875.375 1.219.563.344.187.57.36.68.516.093.156.195.367.304.632.125.25.211.532.258.844.063.297.078.61.047.938a2.358 2.358 0 0 1-.258.937c-.156.313-.406.602-.75.867-.328.266-.773.485-1.336.657a4.21 4.21 0 0 1-1.898.164 8.89 8.89 0 0 1-1.688-.422c-.5-.188-.937-.367-1.312-.54-.375-.187-.641-.265-.797-.234a1.682 1.682 0 0 0-.586.258c-.219.14-.43.29-.633.445a8.063 8.063 0 0 0-.492.399c-.141.11-.211.148-.211.117 0-.031.024-.125.07-.281a5.88 5.88 0 0 0 .188-.563c.078-.234.148-.484.211-.75a5.52 5.52 0 0 0 .164-.797l.117-.75c.031-.265.07-.585.117-.96.063-.391.133-.86.211-1.407.078.406.188.758.328 1.055.157.297.305.555.446.773.172.25.336.461.492.633.234.219.508.422.82.61.328.187.656.351.984.492.329.125.641.203.938.234.297.031.547 0 .75-.094.203-.093.375-.265.516-.515.156-.25.265-.524.328-.82a3.19 3.19 0 0 0 .07-.844c-.016-.282-.086-.508-.211-.68-.094-.11-.312-.25-.656-.422-.328-.172-.727-.36-1.195-.562a80.946 80.946 0 0 0-1.454-.633 42.01 42.01 0 0 1-1.429-.656 12.044 12.044 0 0 1-1.102-.657c-.281-.218-.437-.414-.469-.586-.031-.25-.054-.523-.07-.82-.016-.312 0-.617.047-.914a3.08 3.08 0 0 1 .328-.89c.172-.282.422-.516.75-.704.219-.125.508-.218.867-.281a6.96 6.96 0 0 1 1.196-.094c.437-.015.89 0 1.359.047.469.031.914.078 1.336.14.437.048.828.11 1.172.188.359.078.633.149.82.211.219.078.453.086.703.024.219-.047.453-.149.703-.305.25-.156.508-.438.774-.844zm.562-1.383l1.172.118c.328.03.594.054.797.07.234.015.422.023.563.023.14.016.328.016.562 0 .203-.015.469-.03.797-.047.328-.03.742-.078 1.242-.14a3.537 3.537 0 0 0-.258.422c-.062.11-.117.21-.164.304l-.14.282-.094.28a2.944 2.944 0 0 0-.094.282c-.016.11-.031.227-.047.352h3.61l-.329 1.898-3.304-.187a74.603 74.603 0 0 0-.164 1.851c-.032.438-.063.758-.094.961l-.047.422c-.047.594-.094 1.242-.141 1.945a20.604 20.604 0 0 0-.046 1.922c.015.594.07 1.094.164 1.5.093.39.258.586.492.586.234 0 .453-.062.656-.187a2.05 2.05 0 0 0 .516-.446c.156-.172.273-.343.351-.515.078-.188.117-.328.117-.422a.951.951 0 0 0-.07-.328 5.367 5.367 0 0 0-.422-.89c.453.108.852.218 1.196.327.172.063.328.125.468.188.157.062.336.133.539.21.172.079.391.172.657.282.265.11.578.242.937.398-.344.063-.594.164-.75.305a.677.677 0 0 0-.211.21 6.832 6.832 0 0 0-.375.704c-.14.281-.351.563-.633.844-.281.281-.664.531-1.148.75-.469.219-1.102.344-1.898.375-.829.031-1.461-.11-1.899-.422-.422-.313-.734-.672-.937-1.078a3.746 3.746 0 0 1-.328-1.242c-.032-.407-.055-.68-.071-.82-.015-.141-.015-.493 0-1.055.016-.563.039-1.18.071-1.852.031-.687.062-1.344.093-1.969.031-.64.047-1.11.047-1.406 0-.156.008-.32.024-.492v-.445c.015-.172.023-.336.023-.493l-3.398-.023-.141-1.336 3.422.094a3.368 3.368 0 0 0-.117-.469 3.456 3.456 0 0 0-.094-.375 2.348 2.348 0 0 0-.141-.281 14.828 14.828 0 0 0-.211-.258l-.304-.305a13.025 13.025 0 0 0-.446-.422zM130.938 7.5c.406 0 .828.078 1.265.234.438.141.859.329 1.266.563.406.219.773.46 1.101.726.344.25.625.493.844.727.391.422.656.992.797 1.71.156.704.187 1.43.094 2.18a6.136 6.136 0 0 1-.657 2.087c-.343.656-.82 1.14-1.429 1.453-.438.218-.867.39-1.289.515a9.677 9.677 0 0 1-1.219.282 6.997 6.997 0 0 1-1.102.093c-.343 0-.64-.008-.89-.023-.469-.031-.961-.195-1.477-.492a7.811 7.811 0 0 1-1.43-1.102 7.548 7.548 0 0 1-1.124-1.43c-.313-.53-.5-1.03-.563-1.5a8.633 8.633 0 0 1-.047-2.015 4.16 4.16 0 0 1 .68-1.945c.406-.594 1.015-1.086 1.828-1.477.828-.39 1.945-.586 3.352-.586zm-.774 9.094c.172.031.406-.008.703-.117a2.92 2.92 0 0 0 .867-.586 3.67 3.67 0 0 0 .774-1.008c.234-.422.375-.93.422-1.524a9.008 9.008 0 0 0 0-1.593 5.68 5.68 0 0 0-.211-1.266 3.993 3.993 0 0 0-.375-.914c-.141-.234-.289-.399-.446-.492a3.639 3.639 0 0 0-.96-.328c-.376-.094-.696-.079-.961.046-.125.063-.282.196-.469.399-.188.203-.375.46-.563.773a6.36 6.36 0 0 0-.515 1.032c-.141.39-.242.796-.305 1.218a6.428 6.428 0 0 0-.047 1.36c.047.484.149.945.305 1.383.156.421.375.789.656 1.101a1.8 1.8 0 0 0 1.125.516zm7.031-9.82c.297.015.563.023.797.023.25-.016.461-.031.633-.047a23.8 23.8 0 0 0 .539-.047c.234-.031.477-.07.727-.117.218-.031.445-.07.679-.117.25-.063.492-.133.727-.211a20.23 20.23 0 0 0-.235.61 4.65 4.65 0 0 0-.14.444c-.047.141-.07.258-.07.352a2.81 2.81 0 0 0-.024.399 16.68 16.68 0 0 0 0 1.289c.813-.704 1.492-1.25 2.039-1.641.563-.39 1.008-.695 1.336-.914.391-.25.695-.414.914-.492.578-.094 1.086.039 1.524.398a2.8 2.8 0 0 1 .539.633c.172.25.32.586.445 1.008.125.422.219.93.281 1.523.063.578.071 1.274.024 2.086a41.11 41.11 0 0 0-.891.094c-.25.031-.461.055-.633.07-.203.031-.39.047-.562.047l-.633.07c-.219.032-.492.063-.82.094a22.55 22.55 0 0 0-1.149.094c.656-.531 1.078-.992 1.266-1.383.203-.406.289-.742.258-1.008a1.173 1.173 0 0 0-.422-.773 1.47 1.47 0 0 0-.961-.188c-.297.032-.641.164-1.031.399-.391.234-.805.672-1.243 1.312.032 1 .063 1.828.094 2.485.047.656.086 1.187.117 1.593.047.47.086.836.118 1.102.046.234.14.484.281.75.109.219.265.46.469.727.203.265.468.53.796.796a14.98 14.98 0 0 0-1.687 0c-.266.016-.5.032-.703.047-.219.032-.453.063-.703.094a21.43 21.43 0 0 1-.774.094 32.58 32.58 0 0 1-.937.14 2.22 2.22 0 0 0 .304-.609c.078-.219.141-.43.188-.633a5.45 5.45 0 0 0 .14-.726c.016-.22.024-.547.024-.985.016-.437.008-.93-.024-1.476a68.198 68.198 0 0 0-.07-1.735 45.98 45.98 0 0 0-.117-1.71 20.437 20.437 0 0 0-.164-1.383c-.047-.407-.102-.688-.164-.844a4.756 4.756 0 0 0-.281-.563 4.481 4.481 0 0 0-.352-.539 13.244 13.244 0 0 0-.469-.633zm17.813 7.453c.437 0 .844-.047 1.219-.141a3.17 3.17 0 0 0 .89-.375 1.33 1.33 0 0 0 .586-.82c.313.062.578.117.797.164.219.03.406.062.562.093.172.047.321.079.446.094.125.031.273.063.445.094.156.031.344.07.563.117.234.031.507.078.82.14a1.674 1.674 0 0 0-.727.071 8.64 8.64 0 0 0-.679.258 3.857 3.857 0 0 0-1.196.82c-.172.188-.422.367-.75.54-.328.171-.765.32-1.312.445-.531.109-1.219.148-2.063.117-1.015-.031-1.867-.211-2.554-.54-.688-.343-1.243-.757-1.664-1.242a4.777 4.777 0 0 1-.914-1.617 5.856 5.856 0 0 1-.305-1.617c-.016-.5.133-1.023.445-1.57.313-.547.75-1.047 1.313-1.5.578-.453 1.273-.82 2.086-1.102.812-.297 1.703-.445 2.672-.445.562 0 1.078.07 1.546.21.485.126.922.298 1.313.516a5 5 0 0 1 1.055.75c.296.266.546.54.75.82.203.298.375.61.515.938.125.282.227.602.305.961.078.36.101.727.07 1.102-1.187.031-2.148.055-2.883.07a81.97 81.97 0 0 1-1.687.024h-1.852c-.281 0-.648.007-1.101.023-.453.016-1.008.04-1.664.07.078.625.273 1.11.586 1.453a3.75 3.75 0 0 0 1.031.75 3.73 3.73 0 0 0 1.336.329zm-2.11-4.22c.5.032.914.056 1.243.071.343.016.625.031.843.047.235.016.422.023.563.023h.586c.39 0 1.117-.023 2.179-.07-.046-.687-.195-1.21-.445-1.57-.234-.36-.484-.625-.75-.797a2.354 2.354 0 0 0-1.031-.328c-1.016.015-1.774.226-2.274.633-.484.406-.789 1.07-.914 1.992z" fill="#E3E6E8"/></svg>